G04 #@! TF.FileFunction,Soldermask,Bot*
%FSLAX46Y46*%
G04 Gerber Fmt 4.6, Leading zero omitted, Abs format (unit mm)*
G04 Created by KiCad (PCBNEW 4.0.6) date Thursday, June 15, 2017 'PMt' 05:18:36 PM*
%MOMM*%
%LPD*%
G01*
G04 APERTURE LIST*
%ADD10C,0.100000*%
%ADD11C,3.600000*%
%ADD12R,1.700000X1.700000*%
%ADD13C,1.700000*%
%ADD14R,2.100000X2.100000*%
%ADD15O,2.100000X2.100000*%
%ADD16R,2.200000X2.200000*%
%ADD17O,2.200000X2.200000*%
%ADD18C,2.800000*%
%ADD19O,2.800000X2.800000*%
%ADD20O,2.000000X2.000000*%
%ADD21C,2.398980*%
%ADD22C,2.900000*%
G04 APERTURE END LIST*
D10*
D11*
X118110000Y-110490000D03*
X173990000Y-110490000D03*
X173990000Y-54610000D03*
D12*
X144780000Y-57150000D03*
D13*
X144780000Y-54650000D03*
D14*
X125349000Y-66421000D03*
D15*
X125349000Y-63881000D03*
D14*
X124714000Y-95377000D03*
D15*
X124714000Y-97917000D03*
D14*
X137033000Y-70485000D03*
D15*
X137033000Y-73025000D03*
D14*
X146685000Y-75057000D03*
D15*
X146685000Y-72517000D03*
D16*
X132207000Y-82423000D03*
D17*
X129667000Y-82423000D03*
X127127000Y-82423000D03*
D16*
X132207000Y-73660000D03*
D17*
X129667000Y-73660000D03*
X127127000Y-73660000D03*
D18*
X121539000Y-82550000D03*
D19*
X121539000Y-69850000D03*
D16*
X132334000Y-97917000D03*
D17*
X132334000Y-95377000D03*
X132334000Y-92837000D03*
D11*
X118110000Y-54610000D03*
D20*
X168260038Y-82721340D03*
X168260038Y-85261340D03*
X168260038Y-87801340D03*
X168260038Y-90341340D03*
X160640038Y-90341340D03*
X160640038Y-87801340D03*
X160640038Y-85261340D03*
X160640038Y-82721340D03*
X154813000Y-82804000D03*
X154813000Y-85344000D03*
X154813000Y-87884000D03*
X154813000Y-90424000D03*
X147193000Y-90424000D03*
X147193000Y-87884000D03*
X147193000Y-85344000D03*
X147193000Y-82804000D03*
D21*
X144272000Y-100457000D03*
D22*
X146897000Y-97832000D03*
X146897000Y-103082000D03*
X141647000Y-97832000D03*
X141647000Y-103082000D03*
D21*
X166370000Y-72390000D03*
D22*
X168995000Y-69765000D03*
X168995000Y-75015000D03*
X163745000Y-69765000D03*
X163745000Y-75015000D03*
D21*
X168656000Y-98933000D03*
D22*
X166031000Y-101558000D03*
X166031000Y-96308000D03*
X171281000Y-101558000D03*
X171281000Y-96308000D03*
D21*
X136652000Y-59563000D03*
D22*
X139277000Y-56938000D03*
X139277000Y-62188000D03*
X134027000Y-56938000D03*
X134027000Y-62188000D03*
M02*
