G04 #@! TF.FileFunction,Paste,Top*
%FSLAX46Y46*%
G04 Gerber Fmt 4.6, Leading zero omitted, Abs format (unit mm)*
G04 Created by KiCad (PCBNEW 4.0.6) date Thursday, June 15, 2017 'PMt' 05:18:36 PM*
%MOMM*%
%LPD*%
G01*
G04 APERTURE LIST*
%ADD10C,0.100000*%
%ADD11R,1.300000X0.700000*%
%ADD12R,0.750000X0.800000*%
%ADD13R,1.000760X2.501900*%
%ADD14R,1.998980X4.000500*%
%ADD15R,0.400000X0.510000*%
%ADD16R,1.600000X1.000000*%
%ADD17R,0.800000X0.750000*%
%ADD18R,0.500000X0.900000*%
%ADD19R,0.900000X0.500000*%
%ADD20R,0.700000X1.300000*%
%ADD21R,1.651000X0.762000*%
%ADD22R,1.220000X0.650000*%
%ADD23R,1.524000X0.380000*%
G04 APERTURE END LIST*
D10*
D11*
X136657000Y-61854000D03*
X136657000Y-63754000D03*
D12*
X141859000Y-57392000D03*
X141859000Y-55892000D03*
D13*
X128927860Y-66233040D03*
X130429000Y-66233040D03*
X131930140Y-66233040D03*
D14*
X130429000Y-62280800D03*
D10*
G36*
X131429760Y-64255650D02*
X130929380Y-65004950D01*
X129928620Y-65004950D01*
X129428240Y-64255650D01*
X131429760Y-64255650D01*
X131429760Y-64255650D01*
G37*
D15*
X134612000Y-64501000D03*
X133612000Y-64501000D03*
X134112000Y-65801000D03*
D16*
X131191000Y-79351000D03*
X131191000Y-76351000D03*
D12*
X129032000Y-78601000D03*
X129032000Y-77101000D03*
X128016000Y-97270000D03*
X128016000Y-95770000D03*
X134874000Y-93357000D03*
X134874000Y-94857000D03*
X144399000Y-84582000D03*
X144399000Y-83082000D03*
X157861000Y-84431000D03*
X157861000Y-82931000D03*
X174498000Y-86475000D03*
X174498000Y-84975000D03*
X171196000Y-80887000D03*
X171196000Y-79387000D03*
D17*
X147181000Y-64897000D03*
X145681000Y-64897000D03*
X162584000Y-64389000D03*
X164084000Y-64389000D03*
D12*
X145669000Y-66941000D03*
X145669000Y-68441000D03*
X147447000Y-66941000D03*
X147447000Y-68441000D03*
D17*
X162584000Y-66929000D03*
X164084000Y-66929000D03*
D12*
X157861000Y-69227000D03*
X157861000Y-70727000D03*
X156718000Y-72795000D03*
X156718000Y-74295000D03*
X149860000Y-72771000D03*
X149860000Y-74271000D03*
X155321000Y-72771000D03*
X155321000Y-74271000D03*
X152908000Y-103354000D03*
X152908000Y-101854000D03*
X152908000Y-100064000D03*
X152908000Y-98564000D03*
D17*
X161659000Y-96774000D03*
X160159000Y-96774000D03*
D12*
X154686000Y-97790000D03*
X154686000Y-96290000D03*
D17*
X147054000Y-61087000D03*
X145554000Y-61087000D03*
X145300000Y-59436000D03*
X146800000Y-59436000D03*
D12*
X151384000Y-59956000D03*
X151384000Y-61456000D03*
X149606000Y-61456000D03*
X149606000Y-59956000D03*
D18*
X142125000Y-59436000D03*
X143625000Y-59436000D03*
X145554000Y-63119000D03*
X147054000Y-63119000D03*
X159790000Y-63754000D03*
X161290000Y-63754000D03*
X159790000Y-67437000D03*
X161290000Y-67437000D03*
D19*
X160020000Y-70624000D03*
X160020000Y-72124000D03*
D20*
X163500038Y-86531340D03*
X165400038Y-86531340D03*
D11*
X164465000Y-88966000D03*
X164465000Y-90866000D03*
X171196000Y-84621340D03*
X171196000Y-82721340D03*
D18*
X165354000Y-64389000D03*
X166854000Y-64389000D03*
D11*
X171704000Y-91181000D03*
X171704000Y-89281000D03*
D18*
X161278000Y-64770000D03*
X159778000Y-64770000D03*
X161290000Y-66421000D03*
X159790000Y-66421000D03*
X165239000Y-66929000D03*
X166739000Y-66929000D03*
D20*
X159959000Y-99187000D03*
X161859000Y-99187000D03*
D19*
X142113000Y-63004000D03*
X142113000Y-64504000D03*
D21*
X171640500Y-64389000D03*
X168465500Y-64389000D03*
X168465500Y-65659000D03*
X171640500Y-66929000D03*
X168465500Y-66929000D03*
D22*
X157607000Y-101455124D03*
X157607000Y-100505124D03*
X157607000Y-99555124D03*
X154987000Y-99555124D03*
X154987000Y-100505124D03*
X154987000Y-101455124D03*
D23*
X149859000Y-64325500D03*
X155449000Y-64325500D03*
X149859000Y-64965500D03*
X155449000Y-64965500D03*
X149859000Y-65605500D03*
X155449000Y-65605500D03*
X149859000Y-66245500D03*
X155449000Y-66245500D03*
X149859000Y-66885500D03*
X155449000Y-66885500D03*
X149859000Y-67525500D03*
X155449000Y-67525500D03*
X149859000Y-68165500D03*
X155449000Y-68165500D03*
X149859000Y-68805500D03*
X155449000Y-68805500D03*
X149859000Y-69445500D03*
X155449000Y-69445500D03*
X149859000Y-70085500D03*
X155449000Y-70085500D03*
M02*
