G04 #@! TF.FileFunction,Copper,L2,Bot,Signal*
%FSLAX46Y46*%
G04 Gerber Fmt 4.6, Leading zero omitted, Abs format (unit mm)*
G04 Created by KiCad (PCBNEW 4.0.6) date Thursday, June 15, 2017 'PMt' 05:18:36 PM*
%MOMM*%
%LPD*%
G01*
G04 APERTURE LIST*
%ADD10C,0.100000*%
%ADD11R,1.300000X1.300000*%
%ADD12C,1.300000*%
%ADD13R,1.700000X1.700000*%
%ADD14O,1.700000X1.700000*%
%ADD15R,1.800000X1.800000*%
%ADD16O,1.800000X1.800000*%
%ADD17C,2.400000*%
%ADD18O,2.400000X2.400000*%
%ADD19O,1.600000X1.600000*%
%ADD20C,1.998980*%
%ADD21C,2.500000*%
%ADD22C,1.524000*%
%ADD23C,0.381000*%
%ADD24C,0.762000*%
%ADD25C,0.457200*%
%ADD26C,0.254000*%
G04 APERTURE END LIST*
D10*
D11*
X144780000Y-57150000D03*
D12*
X144780000Y-54650000D03*
D13*
X125349000Y-66421000D03*
D14*
X125349000Y-63881000D03*
D13*
X124714000Y-95377000D03*
D14*
X124714000Y-97917000D03*
D13*
X137033000Y-70485000D03*
D14*
X137033000Y-73025000D03*
D13*
X146685000Y-75057000D03*
D14*
X146685000Y-72517000D03*
D15*
X132207000Y-82423000D03*
D16*
X129667000Y-82423000D03*
X127127000Y-82423000D03*
D15*
X132207000Y-73660000D03*
D16*
X129667000Y-73660000D03*
X127127000Y-73660000D03*
D17*
X121539000Y-82550000D03*
D18*
X121539000Y-69850000D03*
D15*
X132334000Y-97917000D03*
D16*
X132334000Y-95377000D03*
X132334000Y-92837000D03*
D19*
X168260038Y-82721340D03*
X168260038Y-85261340D03*
X168260038Y-87801340D03*
X168260038Y-90341340D03*
X160640038Y-90341340D03*
X160640038Y-87801340D03*
X160640038Y-85261340D03*
X160640038Y-82721340D03*
X154813000Y-82804000D03*
X154813000Y-85344000D03*
X154813000Y-87884000D03*
X154813000Y-90424000D03*
X147193000Y-90424000D03*
X147193000Y-87884000D03*
X147193000Y-85344000D03*
X147193000Y-82804000D03*
D20*
X144272000Y-100457000D03*
D21*
X146897000Y-97832000D03*
X146897000Y-103082000D03*
X141647000Y-97832000D03*
X141647000Y-103082000D03*
D20*
X166370000Y-72390000D03*
D21*
X168995000Y-69765000D03*
X168995000Y-75015000D03*
X163745000Y-69765000D03*
X163745000Y-75015000D03*
D20*
X168656000Y-98933000D03*
D21*
X166031000Y-101558000D03*
X166031000Y-96308000D03*
X171281000Y-101558000D03*
X171281000Y-96308000D03*
D20*
X136652000Y-59563000D03*
D21*
X139277000Y-56938000D03*
X139277000Y-62188000D03*
X134027000Y-56938000D03*
X134027000Y-62188000D03*
D22*
X150495000Y-58293000D03*
X144145000Y-64897000D03*
X129540000Y-86106000D03*
X128143000Y-99949000D03*
X162243745Y-92265186D03*
X160020000Y-73787000D03*
X144018000Y-62738000D03*
X156337000Y-97790000D03*
X157861000Y-86487000D03*
X143764000Y-86487000D03*
X136779000Y-93345000D03*
X160147000Y-69215000D03*
X157480000Y-65278000D03*
D23*
X144145000Y-64897000D02*
X150495000Y-58547000D01*
X150495000Y-58547000D02*
X150495000Y-58293000D01*
D24*
X128143000Y-99949000D02*
X129540000Y-98552000D01*
X129540000Y-98552000D02*
X129540000Y-86106000D01*
D25*
X143637000Y-86487000D02*
X143764000Y-86487000D01*
X160147000Y-69215000D02*
X157480000Y-66548000D01*
X157480000Y-66548000D02*
X157480000Y-65278000D01*
D26*
G36*
X177090000Y-113590000D02*
X115010000Y-113590000D01*
X115010000Y-110932619D01*
X115874613Y-110932619D01*
X116214155Y-111754372D01*
X116842321Y-112383636D01*
X117663481Y-112724611D01*
X118552619Y-112725387D01*
X119374372Y-112385845D01*
X120003636Y-111757679D01*
X120344611Y-110936519D01*
X120344614Y-110932619D01*
X171754613Y-110932619D01*
X172094155Y-111754372D01*
X172722321Y-112383636D01*
X173543481Y-112724611D01*
X174432619Y-112725387D01*
X175254372Y-112385845D01*
X175883636Y-111757679D01*
X176224611Y-110936519D01*
X176225387Y-110047381D01*
X175885845Y-109225628D01*
X175257679Y-108596364D01*
X174436519Y-108255389D01*
X173547381Y-108254613D01*
X172725628Y-108594155D01*
X172096364Y-109222321D01*
X171755389Y-110043481D01*
X171754613Y-110932619D01*
X120344614Y-110932619D01*
X120345387Y-110047381D01*
X120005845Y-109225628D01*
X119377679Y-108596364D01*
X118556519Y-108255389D01*
X117667381Y-108254613D01*
X116845628Y-108594155D01*
X116216364Y-109222321D01*
X115875389Y-110043481D01*
X115874613Y-110932619D01*
X115010000Y-110932619D01*
X115010000Y-103455305D01*
X139761674Y-103455305D01*
X140048043Y-104148372D01*
X140577839Y-104679093D01*
X141270405Y-104966672D01*
X142020305Y-104967326D01*
X142713372Y-104680957D01*
X143244093Y-104151161D01*
X143531672Y-103458595D01*
X143531674Y-103455305D01*
X145011674Y-103455305D01*
X145298043Y-104148372D01*
X145827839Y-104679093D01*
X146520405Y-104966672D01*
X147270305Y-104967326D01*
X147963372Y-104680957D01*
X148494093Y-104151161D01*
X148781672Y-103458595D01*
X148782326Y-102708695D01*
X148495957Y-102015628D01*
X148411781Y-101931305D01*
X164145674Y-101931305D01*
X164432043Y-102624372D01*
X164961839Y-103155093D01*
X165654405Y-103442672D01*
X166404305Y-103443326D01*
X167097372Y-103156957D01*
X167628093Y-102627161D01*
X167915672Y-101934595D01*
X167915674Y-101931305D01*
X169395674Y-101931305D01*
X169682043Y-102624372D01*
X170211839Y-103155093D01*
X170904405Y-103442672D01*
X171654305Y-103443326D01*
X172347372Y-103156957D01*
X172878093Y-102627161D01*
X173165672Y-101934595D01*
X173166326Y-101184695D01*
X172879957Y-100491628D01*
X172350161Y-99960907D01*
X171657595Y-99673328D01*
X170907695Y-99672674D01*
X170214628Y-99959043D01*
X169683907Y-100488839D01*
X169396328Y-101181405D01*
X169395674Y-101931305D01*
X167915674Y-101931305D01*
X167916326Y-101184695D01*
X167629957Y-100491628D01*
X167100161Y-99960907D01*
X166407595Y-99673328D01*
X165657695Y-99672674D01*
X164964628Y-99959043D01*
X164433907Y-100488839D01*
X164146328Y-101181405D01*
X164145674Y-101931305D01*
X148411781Y-101931305D01*
X147966161Y-101484907D01*
X147273595Y-101197328D01*
X146523695Y-101196674D01*
X145830628Y-101483043D01*
X145299907Y-102012839D01*
X145012328Y-102705405D01*
X145011674Y-103455305D01*
X143531674Y-103455305D01*
X143532326Y-102708695D01*
X143245957Y-102015628D01*
X142716161Y-101484907D01*
X142023595Y-101197328D01*
X141273695Y-101196674D01*
X140580628Y-101483043D01*
X140049907Y-102012839D01*
X139762328Y-102705405D01*
X139761674Y-103455305D01*
X115010000Y-103455305D01*
X115010000Y-100225661D01*
X126745758Y-100225661D01*
X126957990Y-100739303D01*
X127350630Y-101132629D01*
X127863900Y-101345757D01*
X128419661Y-101346242D01*
X128933303Y-101134010D01*
X129287236Y-100780694D01*
X142637226Y-100780694D01*
X142885538Y-101381655D01*
X143344927Y-101841846D01*
X143945453Y-102091206D01*
X144595694Y-102091774D01*
X145196655Y-101843462D01*
X145656846Y-101384073D01*
X145906206Y-100783547D01*
X145906774Y-100133306D01*
X145658462Y-99532345D01*
X145199073Y-99072154D01*
X144598547Y-98822794D01*
X143948306Y-98822226D01*
X143347345Y-99070538D01*
X142887154Y-99529927D01*
X142637794Y-100130453D01*
X142637226Y-100780694D01*
X129287236Y-100780694D01*
X129326629Y-100741370D01*
X129539757Y-100228100D01*
X129539966Y-99988875D01*
X130258420Y-99270421D01*
X130405581Y-99050179D01*
X130478662Y-98940806D01*
X130556000Y-98552000D01*
X130556000Y-97017000D01*
X130786560Y-97017000D01*
X130786560Y-98817000D01*
X130830838Y-99052317D01*
X130969910Y-99268441D01*
X131182110Y-99413431D01*
X131434000Y-99464440D01*
X133234000Y-99464440D01*
X133469317Y-99420162D01*
X133685441Y-99281090D01*
X133830431Y-99068890D01*
X133881440Y-98817000D01*
X133881440Y-98205305D01*
X139761674Y-98205305D01*
X140048043Y-98898372D01*
X140577839Y-99429093D01*
X141270405Y-99716672D01*
X142020305Y-99717326D01*
X142713372Y-99430957D01*
X143244093Y-98901161D01*
X143531672Y-98208595D01*
X143531674Y-98205305D01*
X145011674Y-98205305D01*
X145298043Y-98898372D01*
X145827839Y-99429093D01*
X146520405Y-99716672D01*
X147270305Y-99717326D01*
X147963372Y-99430957D01*
X148137939Y-99256694D01*
X167021226Y-99256694D01*
X167269538Y-99857655D01*
X167728927Y-100317846D01*
X168329453Y-100567206D01*
X168979694Y-100567774D01*
X169580655Y-100319462D01*
X170040846Y-99860073D01*
X170290206Y-99259547D01*
X170290774Y-98609306D01*
X170042462Y-98008345D01*
X169583073Y-97548154D01*
X168982547Y-97298794D01*
X168332306Y-97298226D01*
X167731345Y-97546538D01*
X167271154Y-98005927D01*
X167021794Y-98606453D01*
X167021226Y-99256694D01*
X148137939Y-99256694D01*
X148494093Y-98901161D01*
X148781672Y-98208595D01*
X148782326Y-97458695D01*
X148495957Y-96765628D01*
X148411781Y-96681305D01*
X164145674Y-96681305D01*
X164432043Y-97374372D01*
X164961839Y-97905093D01*
X165654405Y-98192672D01*
X166404305Y-98193326D01*
X167097372Y-97906957D01*
X167628093Y-97377161D01*
X167915672Y-96684595D01*
X167915674Y-96681305D01*
X169395674Y-96681305D01*
X169682043Y-97374372D01*
X170211839Y-97905093D01*
X170904405Y-98192672D01*
X171654305Y-98193326D01*
X172347372Y-97906957D01*
X172878093Y-97377161D01*
X173165672Y-96684595D01*
X173166326Y-95934695D01*
X172879957Y-95241628D01*
X172350161Y-94710907D01*
X171657595Y-94423328D01*
X170907695Y-94422674D01*
X170214628Y-94709043D01*
X169683907Y-95238839D01*
X169396328Y-95931405D01*
X169395674Y-96681305D01*
X167915674Y-96681305D01*
X167916326Y-95934695D01*
X167629957Y-95241628D01*
X167100161Y-94710907D01*
X166407595Y-94423328D01*
X165657695Y-94422674D01*
X164964628Y-94709043D01*
X164433907Y-95238839D01*
X164146328Y-95931405D01*
X164145674Y-96681305D01*
X148411781Y-96681305D01*
X147966161Y-96234907D01*
X147273595Y-95947328D01*
X146523695Y-95946674D01*
X145830628Y-96233043D01*
X145299907Y-96762839D01*
X145012328Y-97455405D01*
X145011674Y-98205305D01*
X143531674Y-98205305D01*
X143532326Y-97458695D01*
X143245957Y-96765628D01*
X142716161Y-96234907D01*
X142023595Y-95947328D01*
X141273695Y-95946674D01*
X140580628Y-96233043D01*
X140049907Y-96762839D01*
X139762328Y-97455405D01*
X139761674Y-98205305D01*
X133881440Y-98205305D01*
X133881440Y-97017000D01*
X133837162Y-96781683D01*
X133698090Y-96565559D01*
X133485890Y-96420569D01*
X133469656Y-96417281D01*
X133752155Y-95994491D01*
X133869000Y-95407072D01*
X133869000Y-95346928D01*
X133752155Y-94759509D01*
X133419409Y-94261519D01*
X133181418Y-94102499D01*
X133571966Y-93744576D01*
X133825046Y-93201742D01*
X133704997Y-92964000D01*
X132461000Y-92964000D01*
X132461000Y-92984000D01*
X132207000Y-92984000D01*
X132207000Y-92964000D01*
X130963003Y-92964000D01*
X130842954Y-93201742D01*
X131096034Y-93744576D01*
X131486582Y-94102499D01*
X131248591Y-94261519D01*
X130915845Y-94759509D01*
X130799000Y-95346928D01*
X130799000Y-95407072D01*
X130915845Y-95994491D01*
X131196837Y-96415026D01*
X130982559Y-96552910D01*
X130837569Y-96765110D01*
X130786560Y-97017000D01*
X130556000Y-97017000D01*
X130556000Y-92472258D01*
X130842954Y-92472258D01*
X130963003Y-92710000D01*
X132207000Y-92710000D01*
X132207000Y-91466622D01*
X132461000Y-91466622D01*
X132461000Y-92710000D01*
X133704997Y-92710000D01*
X133825046Y-92472258D01*
X133571966Y-91929424D01*
X133130417Y-91524760D01*
X132698740Y-91345964D01*
X132461000Y-91466622D01*
X132207000Y-91466622D01*
X131969260Y-91345964D01*
X131537583Y-91524760D01*
X131096034Y-91929424D01*
X130842954Y-92472258D01*
X130556000Y-92472258D01*
X130556000Y-87884000D01*
X145729887Y-87884000D01*
X145839120Y-88433151D01*
X146150189Y-88898698D01*
X146532275Y-89154000D01*
X146150189Y-89409302D01*
X145839120Y-89874849D01*
X145729887Y-90424000D01*
X145839120Y-90973151D01*
X146150189Y-91438698D01*
X146615736Y-91749767D01*
X147164887Y-91859000D01*
X147221113Y-91859000D01*
X147770264Y-91749767D01*
X148235811Y-91438698D01*
X148546880Y-90973151D01*
X148656113Y-90424000D01*
X148546880Y-89874849D01*
X148235811Y-89409302D01*
X147853725Y-89154000D01*
X148235811Y-88898698D01*
X148546880Y-88433151D01*
X148656113Y-87884000D01*
X148546880Y-87334849D01*
X148235811Y-86869302D01*
X147831297Y-86599014D01*
X148048134Y-86496389D01*
X148424041Y-86081423D01*
X148584904Y-85693039D01*
X148462915Y-85471000D01*
X147320000Y-85471000D01*
X147320000Y-85491000D01*
X147066000Y-85491000D01*
X147066000Y-85471000D01*
X145923085Y-85471000D01*
X145801096Y-85693039D01*
X145961959Y-86081423D01*
X146337866Y-86496389D01*
X146554703Y-86599014D01*
X146150189Y-86869302D01*
X145839120Y-87334849D01*
X145729887Y-87884000D01*
X130556000Y-87884000D01*
X130556000Y-87065707D01*
X130723629Y-86898370D01*
X130936757Y-86385100D01*
X130937242Y-85829339D01*
X130725010Y-85315697D01*
X130332370Y-84922371D01*
X129819100Y-84709243D01*
X129263339Y-84708758D01*
X128749697Y-84920990D01*
X128356371Y-85313630D01*
X128143243Y-85826900D01*
X128142758Y-86382661D01*
X128354990Y-86896303D01*
X128524000Y-87065608D01*
X128524000Y-98131159D01*
X128103195Y-98551965D01*
X127866339Y-98551758D01*
X127352697Y-98763990D01*
X126959371Y-99156630D01*
X126746243Y-99669900D01*
X126745758Y-100225661D01*
X115010000Y-100225661D01*
X115010000Y-97917000D01*
X123199907Y-97917000D01*
X123312946Y-98485285D01*
X123634853Y-98967054D01*
X124116622Y-99288961D01*
X124684907Y-99402000D01*
X124743093Y-99402000D01*
X125311378Y-99288961D01*
X125793147Y-98967054D01*
X126115054Y-98485285D01*
X126228093Y-97917000D01*
X126115054Y-97348715D01*
X125793147Y-96866946D01*
X125751548Y-96839150D01*
X125799317Y-96830162D01*
X126015441Y-96691090D01*
X126160431Y-96478890D01*
X126211440Y-96227000D01*
X126211440Y-94527000D01*
X126167162Y-94291683D01*
X126028090Y-94075559D01*
X125815890Y-93930569D01*
X125564000Y-93879560D01*
X123864000Y-93879560D01*
X123628683Y-93923838D01*
X123412559Y-94062910D01*
X123267569Y-94275110D01*
X123216560Y-94527000D01*
X123216560Y-96227000D01*
X123260838Y-96462317D01*
X123399910Y-96678441D01*
X123612110Y-96823431D01*
X123679541Y-96837086D01*
X123634853Y-96866946D01*
X123312946Y-97348715D01*
X123199907Y-97917000D01*
X115010000Y-97917000D01*
X115010000Y-82913403D01*
X119703682Y-82913403D01*
X119982455Y-83588086D01*
X120498199Y-84104730D01*
X121172395Y-84384681D01*
X121902403Y-84385318D01*
X122577086Y-84106545D01*
X123093730Y-83590801D01*
X123373681Y-82916605D01*
X123374111Y-82423000D01*
X125561928Y-82423000D01*
X125678773Y-83010419D01*
X126011519Y-83508409D01*
X126509509Y-83841155D01*
X127096928Y-83958000D01*
X127157072Y-83958000D01*
X127744491Y-83841155D01*
X128242481Y-83508409D01*
X128397000Y-83277155D01*
X128551519Y-83508409D01*
X129049509Y-83841155D01*
X129636928Y-83958000D01*
X129697072Y-83958000D01*
X130284491Y-83841155D01*
X130705026Y-83560163D01*
X130842910Y-83774441D01*
X131055110Y-83919431D01*
X131307000Y-83970440D01*
X133107000Y-83970440D01*
X133342317Y-83926162D01*
X133558441Y-83787090D01*
X133703431Y-83574890D01*
X133754440Y-83323000D01*
X133754440Y-82804000D01*
X145729887Y-82804000D01*
X145839120Y-83353151D01*
X146150189Y-83818698D01*
X146554703Y-84088986D01*
X146337866Y-84191611D01*
X145961959Y-84606577D01*
X145801096Y-84994961D01*
X145923085Y-85217000D01*
X147066000Y-85217000D01*
X147066000Y-85197000D01*
X147320000Y-85197000D01*
X147320000Y-85217000D01*
X148462915Y-85217000D01*
X148584904Y-84994961D01*
X148424041Y-84606577D01*
X148048134Y-84191611D01*
X147831297Y-84088986D01*
X148235811Y-83818698D01*
X148546880Y-83353151D01*
X148656113Y-82804000D01*
X153349887Y-82804000D01*
X153459120Y-83353151D01*
X153770189Y-83818698D01*
X154152275Y-84074000D01*
X153770189Y-84329302D01*
X153459120Y-84794849D01*
X153349887Y-85344000D01*
X153459120Y-85893151D01*
X153770189Y-86358698D01*
X154152275Y-86614000D01*
X153770189Y-86869302D01*
X153459120Y-87334849D01*
X153349887Y-87884000D01*
X153459120Y-88433151D01*
X153770189Y-88898698D01*
X154152275Y-89154000D01*
X153770189Y-89409302D01*
X153459120Y-89874849D01*
X153349887Y-90424000D01*
X153459120Y-90973151D01*
X153770189Y-91438698D01*
X154235736Y-91749767D01*
X154784887Y-91859000D01*
X154841113Y-91859000D01*
X155390264Y-91749767D01*
X155855811Y-91438698D01*
X156166880Y-90973151D01*
X156276113Y-90424000D01*
X156166880Y-89874849D01*
X155855811Y-89409302D01*
X155473725Y-89154000D01*
X155855811Y-88898698D01*
X156166880Y-88433151D01*
X156276113Y-87884000D01*
X156259671Y-87801340D01*
X159176925Y-87801340D01*
X159286158Y-88350491D01*
X159597227Y-88816038D01*
X159979313Y-89071340D01*
X159597227Y-89326642D01*
X159286158Y-89792189D01*
X159176925Y-90341340D01*
X159286158Y-90890491D01*
X159597227Y-91356038D01*
X160062774Y-91667107D01*
X160611925Y-91776340D01*
X160668151Y-91776340D01*
X161217302Y-91667107D01*
X161682849Y-91356038D01*
X161993918Y-90890491D01*
X162103151Y-90341340D01*
X161993918Y-89792189D01*
X161682849Y-89326642D01*
X161300763Y-89071340D01*
X161682849Y-88816038D01*
X161993918Y-88350491D01*
X162103151Y-87801340D01*
X161993918Y-87252189D01*
X161682849Y-86786642D01*
X161278335Y-86516354D01*
X161495172Y-86413729D01*
X161871079Y-85998763D01*
X162031942Y-85610379D01*
X161909953Y-85388340D01*
X160767038Y-85388340D01*
X160767038Y-85408340D01*
X160513038Y-85408340D01*
X160513038Y-85388340D01*
X159370123Y-85388340D01*
X159248134Y-85610379D01*
X159408997Y-85998763D01*
X159784904Y-86413729D01*
X160001741Y-86516354D01*
X159597227Y-86786642D01*
X159286158Y-87252189D01*
X159176925Y-87801340D01*
X156259671Y-87801340D01*
X156166880Y-87334849D01*
X155855811Y-86869302D01*
X155473725Y-86614000D01*
X155855811Y-86358698D01*
X156166880Y-85893151D01*
X156276113Y-85344000D01*
X156166880Y-84794849D01*
X155855811Y-84329302D01*
X155473725Y-84074000D01*
X155855811Y-83818698D01*
X156166880Y-83353151D01*
X156276113Y-82804000D01*
X156259671Y-82721340D01*
X159176925Y-82721340D01*
X159286158Y-83270491D01*
X159597227Y-83736038D01*
X160001741Y-84006326D01*
X159784904Y-84108951D01*
X159408997Y-84523917D01*
X159248134Y-84912301D01*
X159370123Y-85134340D01*
X160513038Y-85134340D01*
X160513038Y-85114340D01*
X160767038Y-85114340D01*
X160767038Y-85134340D01*
X161909953Y-85134340D01*
X162031942Y-84912301D01*
X161871079Y-84523917D01*
X161495172Y-84108951D01*
X161278335Y-84006326D01*
X161682849Y-83736038D01*
X161993918Y-83270491D01*
X162103151Y-82721340D01*
X166796925Y-82721340D01*
X166906158Y-83270491D01*
X167217227Y-83736038D01*
X167599313Y-83991340D01*
X167217227Y-84246642D01*
X166906158Y-84712189D01*
X166796925Y-85261340D01*
X166906158Y-85810491D01*
X167217227Y-86276038D01*
X167599313Y-86531340D01*
X167217227Y-86786642D01*
X166906158Y-87252189D01*
X166796925Y-87801340D01*
X166906158Y-88350491D01*
X167217227Y-88816038D01*
X167599313Y-89071340D01*
X167217227Y-89326642D01*
X166906158Y-89792189D01*
X166796925Y-90341340D01*
X166906158Y-90890491D01*
X167217227Y-91356038D01*
X167682774Y-91667107D01*
X168231925Y-91776340D01*
X168288151Y-91776340D01*
X168837302Y-91667107D01*
X169302849Y-91356038D01*
X169613918Y-90890491D01*
X169723151Y-90341340D01*
X169613918Y-89792189D01*
X169302849Y-89326642D01*
X168920763Y-89071340D01*
X169302849Y-88816038D01*
X169613918Y-88350491D01*
X169723151Y-87801340D01*
X169613918Y-87252189D01*
X169302849Y-86786642D01*
X168920763Y-86531340D01*
X169302849Y-86276038D01*
X169613918Y-85810491D01*
X169723151Y-85261340D01*
X169613918Y-84712189D01*
X169302849Y-84246642D01*
X168920763Y-83991340D01*
X169302849Y-83736038D01*
X169613918Y-83270491D01*
X169723151Y-82721340D01*
X169613918Y-82172189D01*
X169302849Y-81706642D01*
X168837302Y-81395573D01*
X168288151Y-81286340D01*
X168231925Y-81286340D01*
X167682774Y-81395573D01*
X167217227Y-81706642D01*
X166906158Y-82172189D01*
X166796925Y-82721340D01*
X162103151Y-82721340D01*
X161993918Y-82172189D01*
X161682849Y-81706642D01*
X161217302Y-81395573D01*
X160668151Y-81286340D01*
X160611925Y-81286340D01*
X160062774Y-81395573D01*
X159597227Y-81706642D01*
X159286158Y-82172189D01*
X159176925Y-82721340D01*
X156259671Y-82721340D01*
X156166880Y-82254849D01*
X155855811Y-81789302D01*
X155390264Y-81478233D01*
X154841113Y-81369000D01*
X154784887Y-81369000D01*
X154235736Y-81478233D01*
X153770189Y-81789302D01*
X153459120Y-82254849D01*
X153349887Y-82804000D01*
X148656113Y-82804000D01*
X148546880Y-82254849D01*
X148235811Y-81789302D01*
X147770264Y-81478233D01*
X147221113Y-81369000D01*
X147164887Y-81369000D01*
X146615736Y-81478233D01*
X146150189Y-81789302D01*
X145839120Y-82254849D01*
X145729887Y-82804000D01*
X133754440Y-82804000D01*
X133754440Y-81523000D01*
X133710162Y-81287683D01*
X133571090Y-81071559D01*
X133358890Y-80926569D01*
X133107000Y-80875560D01*
X131307000Y-80875560D01*
X131071683Y-80919838D01*
X130855559Y-81058910D01*
X130710569Y-81271110D01*
X130707281Y-81287344D01*
X130284491Y-81004845D01*
X129697072Y-80888000D01*
X129636928Y-80888000D01*
X129049509Y-81004845D01*
X128551519Y-81337591D01*
X128397000Y-81568845D01*
X128242481Y-81337591D01*
X127744491Y-81004845D01*
X127157072Y-80888000D01*
X127096928Y-80888000D01*
X126509509Y-81004845D01*
X126011519Y-81337591D01*
X125678773Y-81835581D01*
X125561928Y-82423000D01*
X123374111Y-82423000D01*
X123374318Y-82186597D01*
X123095545Y-81511914D01*
X122579801Y-80995270D01*
X121905605Y-80715319D01*
X121175597Y-80714682D01*
X120500914Y-80993455D01*
X119984270Y-81509199D01*
X119704319Y-82183395D01*
X119703682Y-82913403D01*
X115010000Y-82913403D01*
X115010000Y-73660000D01*
X125561928Y-73660000D01*
X125678773Y-74247419D01*
X126011519Y-74745409D01*
X126509509Y-75078155D01*
X127096928Y-75195000D01*
X127157072Y-75195000D01*
X127744491Y-75078155D01*
X128242481Y-74745409D01*
X128397000Y-74514155D01*
X128551519Y-74745409D01*
X129049509Y-75078155D01*
X129636928Y-75195000D01*
X129697072Y-75195000D01*
X130284491Y-75078155D01*
X130705026Y-74797163D01*
X130842910Y-75011441D01*
X131055110Y-75156431D01*
X131307000Y-75207440D01*
X133107000Y-75207440D01*
X133342317Y-75163162D01*
X133558441Y-75024090D01*
X133703431Y-74811890D01*
X133754440Y-74560000D01*
X133754440Y-73025000D01*
X135518907Y-73025000D01*
X135631946Y-73593285D01*
X135953853Y-74075054D01*
X136435622Y-74396961D01*
X137003907Y-74510000D01*
X137062093Y-74510000D01*
X137630378Y-74396961D01*
X138112147Y-74075054D01*
X138434054Y-73593285D01*
X138547093Y-73025000D01*
X138446046Y-72517000D01*
X145170907Y-72517000D01*
X145283946Y-73085285D01*
X145605853Y-73567054D01*
X145647452Y-73594850D01*
X145599683Y-73603838D01*
X145383559Y-73742910D01*
X145238569Y-73955110D01*
X145187560Y-74207000D01*
X145187560Y-75907000D01*
X145231838Y-76142317D01*
X145370910Y-76358441D01*
X145583110Y-76503431D01*
X145835000Y-76554440D01*
X147535000Y-76554440D01*
X147770317Y-76510162D01*
X147986441Y-76371090D01*
X148131431Y-76158890D01*
X148182440Y-75907000D01*
X148182440Y-75388305D01*
X161859674Y-75388305D01*
X162146043Y-76081372D01*
X162675839Y-76612093D01*
X163368405Y-76899672D01*
X164118305Y-76900326D01*
X164811372Y-76613957D01*
X165342093Y-76084161D01*
X165629672Y-75391595D01*
X165629674Y-75388305D01*
X167109674Y-75388305D01*
X167396043Y-76081372D01*
X167925839Y-76612093D01*
X168618405Y-76899672D01*
X169368305Y-76900326D01*
X170061372Y-76613957D01*
X170592093Y-76084161D01*
X170879672Y-75391595D01*
X170880326Y-74641695D01*
X170593957Y-73948628D01*
X170064161Y-73417907D01*
X169371595Y-73130328D01*
X168621695Y-73129674D01*
X167928628Y-73416043D01*
X167397907Y-73945839D01*
X167110328Y-74638405D01*
X167109674Y-75388305D01*
X165629674Y-75388305D01*
X165630326Y-74641695D01*
X165343957Y-73948628D01*
X164814161Y-73417907D01*
X164121595Y-73130328D01*
X163371695Y-73129674D01*
X162678628Y-73416043D01*
X162147907Y-73945839D01*
X161860328Y-74638405D01*
X161859674Y-75388305D01*
X148182440Y-75388305D01*
X148182440Y-74207000D01*
X148138162Y-73971683D01*
X147999090Y-73755559D01*
X147786890Y-73610569D01*
X147719459Y-73596914D01*
X147764147Y-73567054D01*
X148086054Y-73085285D01*
X148159968Y-72713694D01*
X164735226Y-72713694D01*
X164983538Y-73314655D01*
X165442927Y-73774846D01*
X166043453Y-74024206D01*
X166693694Y-74024774D01*
X167294655Y-73776462D01*
X167754846Y-73317073D01*
X168004206Y-72716547D01*
X168004774Y-72066306D01*
X167756462Y-71465345D01*
X167297073Y-71005154D01*
X166696547Y-70755794D01*
X166046306Y-70755226D01*
X165445345Y-71003538D01*
X164985154Y-71462927D01*
X164735794Y-72063453D01*
X164735226Y-72713694D01*
X148159968Y-72713694D01*
X148199093Y-72517000D01*
X148086054Y-71948715D01*
X147764147Y-71466946D01*
X147282378Y-71145039D01*
X146714093Y-71032000D01*
X146655907Y-71032000D01*
X146087622Y-71145039D01*
X145605853Y-71466946D01*
X145283946Y-71948715D01*
X145170907Y-72517000D01*
X138446046Y-72517000D01*
X138434054Y-72456715D01*
X138112147Y-71974946D01*
X138070548Y-71947150D01*
X138118317Y-71938162D01*
X138334441Y-71799090D01*
X138479431Y-71586890D01*
X138530440Y-71335000D01*
X138530440Y-69635000D01*
X138486162Y-69399683D01*
X138347090Y-69183559D01*
X138134890Y-69038569D01*
X137883000Y-68987560D01*
X136183000Y-68987560D01*
X135947683Y-69031838D01*
X135731559Y-69170910D01*
X135586569Y-69383110D01*
X135535560Y-69635000D01*
X135535560Y-71335000D01*
X135579838Y-71570317D01*
X135718910Y-71786441D01*
X135931110Y-71931431D01*
X135998541Y-71945086D01*
X135953853Y-71974946D01*
X135631946Y-72456715D01*
X135518907Y-73025000D01*
X133754440Y-73025000D01*
X133754440Y-72760000D01*
X133710162Y-72524683D01*
X133571090Y-72308559D01*
X133358890Y-72163569D01*
X133107000Y-72112560D01*
X131307000Y-72112560D01*
X131071683Y-72156838D01*
X130855559Y-72295910D01*
X130710569Y-72508110D01*
X130707281Y-72524344D01*
X130284491Y-72241845D01*
X129697072Y-72125000D01*
X129636928Y-72125000D01*
X129049509Y-72241845D01*
X128551519Y-72574591D01*
X128397000Y-72805845D01*
X128242481Y-72574591D01*
X127744491Y-72241845D01*
X127157072Y-72125000D01*
X127096928Y-72125000D01*
X126509509Y-72241845D01*
X126011519Y-72574591D01*
X125678773Y-73072581D01*
X125561928Y-73660000D01*
X115010000Y-73660000D01*
X115010000Y-69814050D01*
X119704000Y-69814050D01*
X119704000Y-69885950D01*
X119843681Y-70588174D01*
X120241459Y-71183491D01*
X120836776Y-71581269D01*
X121539000Y-71720950D01*
X122241224Y-71581269D01*
X122836541Y-71183491D01*
X123234319Y-70588174D01*
X123374000Y-69885950D01*
X123374000Y-69814050D01*
X123234319Y-69111826D01*
X122836541Y-68516509D01*
X122241224Y-68118731D01*
X121539000Y-67979050D01*
X120836776Y-68118731D01*
X120241459Y-68516509D01*
X119843681Y-69111826D01*
X119704000Y-69814050D01*
X115010000Y-69814050D01*
X115010000Y-63881000D01*
X123834907Y-63881000D01*
X123947946Y-64449285D01*
X124269853Y-64931054D01*
X124311452Y-64958850D01*
X124263683Y-64967838D01*
X124047559Y-65106910D01*
X123902569Y-65319110D01*
X123851560Y-65571000D01*
X123851560Y-67271000D01*
X123895838Y-67506317D01*
X124034910Y-67722441D01*
X124247110Y-67867431D01*
X124499000Y-67918440D01*
X126199000Y-67918440D01*
X126434317Y-67874162D01*
X126650441Y-67735090D01*
X126795431Y-67522890D01*
X126846440Y-67271000D01*
X126846440Y-65571000D01*
X126802162Y-65335683D01*
X126697904Y-65173661D01*
X142747758Y-65173661D01*
X142959990Y-65687303D01*
X143352630Y-66080629D01*
X143865900Y-66293757D01*
X144421661Y-66294242D01*
X144935303Y-66082010D01*
X145328629Y-65689370D01*
X145384564Y-65554661D01*
X156082758Y-65554661D01*
X156294990Y-66068303D01*
X156616400Y-66390275D01*
X156616400Y-66548000D01*
X156682138Y-66878485D01*
X156869343Y-67158657D01*
X158750153Y-69039467D01*
X158749758Y-69491661D01*
X158961990Y-70005303D01*
X159354630Y-70398629D01*
X159867900Y-70611757D01*
X160423661Y-70612242D01*
X160937303Y-70400010D01*
X161199465Y-70138305D01*
X161859674Y-70138305D01*
X162146043Y-70831372D01*
X162675839Y-71362093D01*
X163368405Y-71649672D01*
X164118305Y-71650326D01*
X164811372Y-71363957D01*
X165342093Y-70834161D01*
X165629672Y-70141595D01*
X165629674Y-70138305D01*
X167109674Y-70138305D01*
X167396043Y-70831372D01*
X167925839Y-71362093D01*
X168618405Y-71649672D01*
X169368305Y-71650326D01*
X170061372Y-71363957D01*
X170592093Y-70834161D01*
X170879672Y-70141595D01*
X170880326Y-69391695D01*
X170593957Y-68698628D01*
X170064161Y-68167907D01*
X169371595Y-67880328D01*
X168621695Y-67879674D01*
X167928628Y-68166043D01*
X167397907Y-68695839D01*
X167110328Y-69388405D01*
X167109674Y-70138305D01*
X165629674Y-70138305D01*
X165630326Y-69391695D01*
X165343957Y-68698628D01*
X164814161Y-68167907D01*
X164121595Y-67880328D01*
X163371695Y-67879674D01*
X162678628Y-68166043D01*
X162147907Y-68695839D01*
X161860328Y-69388405D01*
X161859674Y-70138305D01*
X161199465Y-70138305D01*
X161330629Y-70007370D01*
X161543757Y-69494100D01*
X161544242Y-68938339D01*
X161332010Y-68424697D01*
X160939370Y-68031371D01*
X160426100Y-67818243D01*
X159971161Y-67817846D01*
X158443465Y-66290150D01*
X158663629Y-66070370D01*
X158876757Y-65557100D01*
X158877242Y-65001339D01*
X158665010Y-64487697D01*
X158272370Y-64094371D01*
X157759100Y-63881243D01*
X157203339Y-63880758D01*
X156689697Y-64092990D01*
X156296371Y-64485630D01*
X156083243Y-64998900D01*
X156082758Y-65554661D01*
X145384564Y-65554661D01*
X145541757Y-65176100D01*
X145542201Y-64667233D01*
X150519412Y-59690022D01*
X150771661Y-59690242D01*
X151285303Y-59478010D01*
X151678629Y-59085370D01*
X151891757Y-58572100D01*
X151892242Y-58016339D01*
X151680010Y-57502697D01*
X151287370Y-57109371D01*
X150774100Y-56896243D01*
X150218339Y-56895758D01*
X149704697Y-57107990D01*
X149311371Y-57500630D01*
X149098243Y-58013900D01*
X149097758Y-58569661D01*
X149158324Y-58716242D01*
X144374366Y-63500200D01*
X143868339Y-63499758D01*
X143354697Y-63711990D01*
X142961371Y-64104630D01*
X142748243Y-64617900D01*
X142747758Y-65173661D01*
X126697904Y-65173661D01*
X126663090Y-65119559D01*
X126450890Y-64974569D01*
X126383459Y-64960914D01*
X126428147Y-64931054D01*
X126750054Y-64449285D01*
X126863093Y-63881000D01*
X126750054Y-63312715D01*
X126428147Y-62830946D01*
X126024600Y-62561305D01*
X132141674Y-62561305D01*
X132428043Y-63254372D01*
X132957839Y-63785093D01*
X133650405Y-64072672D01*
X134400305Y-64073326D01*
X135093372Y-63786957D01*
X135624093Y-63257161D01*
X135911672Y-62564595D01*
X135911674Y-62561305D01*
X137391674Y-62561305D01*
X137678043Y-63254372D01*
X138207839Y-63785093D01*
X138900405Y-64072672D01*
X139650305Y-64073326D01*
X140343372Y-63786957D01*
X140874093Y-63257161D01*
X141161672Y-62564595D01*
X141162326Y-61814695D01*
X140875957Y-61121628D01*
X140346161Y-60590907D01*
X139653595Y-60303328D01*
X138903695Y-60302674D01*
X138210628Y-60589043D01*
X137679907Y-61118839D01*
X137392328Y-61811405D01*
X137391674Y-62561305D01*
X135911674Y-62561305D01*
X135912326Y-61814695D01*
X135625957Y-61121628D01*
X135096161Y-60590907D01*
X134403595Y-60303328D01*
X133653695Y-60302674D01*
X132960628Y-60589043D01*
X132429907Y-61118839D01*
X132142328Y-61811405D01*
X132141674Y-62561305D01*
X126024600Y-62561305D01*
X125946378Y-62509039D01*
X125378093Y-62396000D01*
X125319907Y-62396000D01*
X124751622Y-62509039D01*
X124269853Y-62830946D01*
X123947946Y-63312715D01*
X123834907Y-63881000D01*
X115010000Y-63881000D01*
X115010000Y-59886694D01*
X135017226Y-59886694D01*
X135265538Y-60487655D01*
X135724927Y-60947846D01*
X136325453Y-61197206D01*
X136975694Y-61197774D01*
X137576655Y-60949462D01*
X138036846Y-60490073D01*
X138286206Y-59889547D01*
X138286774Y-59239306D01*
X138038462Y-58638345D01*
X137579073Y-58178154D01*
X136978547Y-57928794D01*
X136328306Y-57928226D01*
X135727345Y-58176538D01*
X135267154Y-58635927D01*
X135017794Y-59236453D01*
X135017226Y-59886694D01*
X115010000Y-59886694D01*
X115010000Y-57311305D01*
X132141674Y-57311305D01*
X132428043Y-58004372D01*
X132957839Y-58535093D01*
X133650405Y-58822672D01*
X134400305Y-58823326D01*
X135093372Y-58536957D01*
X135624093Y-58007161D01*
X135911672Y-57314595D01*
X135911674Y-57311305D01*
X137391674Y-57311305D01*
X137678043Y-58004372D01*
X138207839Y-58535093D01*
X138900405Y-58822672D01*
X139650305Y-58823326D01*
X140343372Y-58536957D01*
X140874093Y-58007161D01*
X141161672Y-57314595D01*
X141162271Y-56627000D01*
X142720560Y-56627000D01*
X142720560Y-57927000D01*
X142764838Y-58162317D01*
X142903910Y-58378441D01*
X143116110Y-58523431D01*
X143368000Y-58574440D01*
X144668000Y-58574440D01*
X144903317Y-58530162D01*
X145119441Y-58391090D01*
X145264431Y-58178890D01*
X145315440Y-57927000D01*
X145315440Y-56627000D01*
X145271162Y-56391683D01*
X145132090Y-56175559D01*
X144919890Y-56030569D01*
X144668000Y-55979560D01*
X144472540Y-55979560D01*
X144744943Y-55867005D01*
X145106735Y-55505845D01*
X145294931Y-55052619D01*
X171754613Y-55052619D01*
X172094155Y-55874372D01*
X172722321Y-56503636D01*
X173543481Y-56844611D01*
X174432619Y-56845387D01*
X175254372Y-56505845D01*
X175883636Y-55877679D01*
X176224611Y-55056519D01*
X176225387Y-54167381D01*
X175885845Y-53345628D01*
X175257679Y-52716364D01*
X174436519Y-52375389D01*
X173547381Y-52374613D01*
X172725628Y-52714155D01*
X172096364Y-53342321D01*
X171755389Y-54163481D01*
X171754613Y-55052619D01*
X145294931Y-55052619D01*
X145302777Y-55033724D01*
X145303223Y-54522519D01*
X145108005Y-54050057D01*
X144746845Y-53688265D01*
X144274724Y-53492223D01*
X143763519Y-53491777D01*
X143291057Y-53686995D01*
X142929265Y-54048155D01*
X142733223Y-54520276D01*
X142732777Y-55031481D01*
X142927995Y-55503943D01*
X143289155Y-55865735D01*
X143563276Y-55979560D01*
X143368000Y-55979560D01*
X143132683Y-56023838D01*
X142916559Y-56162910D01*
X142771569Y-56375110D01*
X142720560Y-56627000D01*
X141162271Y-56627000D01*
X141162326Y-56564695D01*
X140875957Y-55871628D01*
X140346161Y-55340907D01*
X139653595Y-55053328D01*
X138903695Y-55052674D01*
X138210628Y-55339043D01*
X137679907Y-55868839D01*
X137392328Y-56561405D01*
X137391674Y-57311305D01*
X135911674Y-57311305D01*
X135912326Y-56564695D01*
X135625957Y-55871628D01*
X135096161Y-55340907D01*
X134403595Y-55053328D01*
X133653695Y-55052674D01*
X132960628Y-55339043D01*
X132429907Y-55868839D01*
X132142328Y-56561405D01*
X132141674Y-57311305D01*
X115010000Y-57311305D01*
X115010000Y-55052619D01*
X115874613Y-55052619D01*
X116214155Y-55874372D01*
X116842321Y-56503636D01*
X117663481Y-56844611D01*
X118552619Y-56845387D01*
X119374372Y-56505845D01*
X120003636Y-55877679D01*
X120344611Y-55056519D01*
X120345387Y-54167381D01*
X120005845Y-53345628D01*
X119377679Y-52716364D01*
X118556519Y-52375389D01*
X117667381Y-52374613D01*
X116845628Y-52714155D01*
X116216364Y-53342321D01*
X115875389Y-54163481D01*
X115874613Y-55052619D01*
X115010000Y-55052619D01*
X115010000Y-51510000D01*
X177090000Y-51510000D01*
X177090000Y-113590000D01*
X177090000Y-113590000D01*
G37*
X177090000Y-113590000D02*
X115010000Y-113590000D01*
X115010000Y-110932619D01*
X115874613Y-110932619D01*
X116214155Y-111754372D01*
X116842321Y-112383636D01*
X117663481Y-112724611D01*
X118552619Y-112725387D01*
X119374372Y-112385845D01*
X120003636Y-111757679D01*
X120344611Y-110936519D01*
X120344614Y-110932619D01*
X171754613Y-110932619D01*
X172094155Y-111754372D01*
X172722321Y-112383636D01*
X173543481Y-112724611D01*
X174432619Y-112725387D01*
X175254372Y-112385845D01*
X175883636Y-111757679D01*
X176224611Y-110936519D01*
X176225387Y-110047381D01*
X175885845Y-109225628D01*
X175257679Y-108596364D01*
X174436519Y-108255389D01*
X173547381Y-108254613D01*
X172725628Y-108594155D01*
X172096364Y-109222321D01*
X171755389Y-110043481D01*
X171754613Y-110932619D01*
X120344614Y-110932619D01*
X120345387Y-110047381D01*
X120005845Y-109225628D01*
X119377679Y-108596364D01*
X118556519Y-108255389D01*
X117667381Y-108254613D01*
X116845628Y-108594155D01*
X116216364Y-109222321D01*
X115875389Y-110043481D01*
X115874613Y-110932619D01*
X115010000Y-110932619D01*
X115010000Y-103455305D01*
X139761674Y-103455305D01*
X140048043Y-104148372D01*
X140577839Y-104679093D01*
X141270405Y-104966672D01*
X142020305Y-104967326D01*
X142713372Y-104680957D01*
X143244093Y-104151161D01*
X143531672Y-103458595D01*
X143531674Y-103455305D01*
X145011674Y-103455305D01*
X145298043Y-104148372D01*
X145827839Y-104679093D01*
X146520405Y-104966672D01*
X147270305Y-104967326D01*
X147963372Y-104680957D01*
X148494093Y-104151161D01*
X148781672Y-103458595D01*
X148782326Y-102708695D01*
X148495957Y-102015628D01*
X148411781Y-101931305D01*
X164145674Y-101931305D01*
X164432043Y-102624372D01*
X164961839Y-103155093D01*
X165654405Y-103442672D01*
X166404305Y-103443326D01*
X167097372Y-103156957D01*
X167628093Y-102627161D01*
X167915672Y-101934595D01*
X167915674Y-101931305D01*
X169395674Y-101931305D01*
X169682043Y-102624372D01*
X170211839Y-103155093D01*
X170904405Y-103442672D01*
X171654305Y-103443326D01*
X172347372Y-103156957D01*
X172878093Y-102627161D01*
X173165672Y-101934595D01*
X173166326Y-101184695D01*
X172879957Y-100491628D01*
X172350161Y-99960907D01*
X171657595Y-99673328D01*
X170907695Y-99672674D01*
X170214628Y-99959043D01*
X169683907Y-100488839D01*
X169396328Y-101181405D01*
X169395674Y-101931305D01*
X167915674Y-101931305D01*
X167916326Y-101184695D01*
X167629957Y-100491628D01*
X167100161Y-99960907D01*
X166407595Y-99673328D01*
X165657695Y-99672674D01*
X164964628Y-99959043D01*
X164433907Y-100488839D01*
X164146328Y-101181405D01*
X164145674Y-101931305D01*
X148411781Y-101931305D01*
X147966161Y-101484907D01*
X147273595Y-101197328D01*
X146523695Y-101196674D01*
X145830628Y-101483043D01*
X145299907Y-102012839D01*
X145012328Y-102705405D01*
X145011674Y-103455305D01*
X143531674Y-103455305D01*
X143532326Y-102708695D01*
X143245957Y-102015628D01*
X142716161Y-101484907D01*
X142023595Y-101197328D01*
X141273695Y-101196674D01*
X140580628Y-101483043D01*
X140049907Y-102012839D01*
X139762328Y-102705405D01*
X139761674Y-103455305D01*
X115010000Y-103455305D01*
X115010000Y-100225661D01*
X126745758Y-100225661D01*
X126957990Y-100739303D01*
X127350630Y-101132629D01*
X127863900Y-101345757D01*
X128419661Y-101346242D01*
X128933303Y-101134010D01*
X129287236Y-100780694D01*
X142637226Y-100780694D01*
X142885538Y-101381655D01*
X143344927Y-101841846D01*
X143945453Y-102091206D01*
X144595694Y-102091774D01*
X145196655Y-101843462D01*
X145656846Y-101384073D01*
X145906206Y-100783547D01*
X145906774Y-100133306D01*
X145658462Y-99532345D01*
X145199073Y-99072154D01*
X144598547Y-98822794D01*
X143948306Y-98822226D01*
X143347345Y-99070538D01*
X142887154Y-99529927D01*
X142637794Y-100130453D01*
X142637226Y-100780694D01*
X129287236Y-100780694D01*
X129326629Y-100741370D01*
X129539757Y-100228100D01*
X129539966Y-99988875D01*
X130258420Y-99270421D01*
X130405581Y-99050179D01*
X130478662Y-98940806D01*
X130556000Y-98552000D01*
X130556000Y-97017000D01*
X130786560Y-97017000D01*
X130786560Y-98817000D01*
X130830838Y-99052317D01*
X130969910Y-99268441D01*
X131182110Y-99413431D01*
X131434000Y-99464440D01*
X133234000Y-99464440D01*
X133469317Y-99420162D01*
X133685441Y-99281090D01*
X133830431Y-99068890D01*
X133881440Y-98817000D01*
X133881440Y-98205305D01*
X139761674Y-98205305D01*
X140048043Y-98898372D01*
X140577839Y-99429093D01*
X141270405Y-99716672D01*
X142020305Y-99717326D01*
X142713372Y-99430957D01*
X143244093Y-98901161D01*
X143531672Y-98208595D01*
X143531674Y-98205305D01*
X145011674Y-98205305D01*
X145298043Y-98898372D01*
X145827839Y-99429093D01*
X146520405Y-99716672D01*
X147270305Y-99717326D01*
X147963372Y-99430957D01*
X148137939Y-99256694D01*
X167021226Y-99256694D01*
X167269538Y-99857655D01*
X167728927Y-100317846D01*
X168329453Y-100567206D01*
X168979694Y-100567774D01*
X169580655Y-100319462D01*
X170040846Y-99860073D01*
X170290206Y-99259547D01*
X170290774Y-98609306D01*
X170042462Y-98008345D01*
X169583073Y-97548154D01*
X168982547Y-97298794D01*
X168332306Y-97298226D01*
X167731345Y-97546538D01*
X167271154Y-98005927D01*
X167021794Y-98606453D01*
X167021226Y-99256694D01*
X148137939Y-99256694D01*
X148494093Y-98901161D01*
X148781672Y-98208595D01*
X148782326Y-97458695D01*
X148495957Y-96765628D01*
X148411781Y-96681305D01*
X164145674Y-96681305D01*
X164432043Y-97374372D01*
X164961839Y-97905093D01*
X165654405Y-98192672D01*
X166404305Y-98193326D01*
X167097372Y-97906957D01*
X167628093Y-97377161D01*
X167915672Y-96684595D01*
X167915674Y-96681305D01*
X169395674Y-96681305D01*
X169682043Y-97374372D01*
X170211839Y-97905093D01*
X170904405Y-98192672D01*
X171654305Y-98193326D01*
X172347372Y-97906957D01*
X172878093Y-97377161D01*
X173165672Y-96684595D01*
X173166326Y-95934695D01*
X172879957Y-95241628D01*
X172350161Y-94710907D01*
X171657595Y-94423328D01*
X170907695Y-94422674D01*
X170214628Y-94709043D01*
X169683907Y-95238839D01*
X169396328Y-95931405D01*
X169395674Y-96681305D01*
X167915674Y-96681305D01*
X167916326Y-95934695D01*
X167629957Y-95241628D01*
X167100161Y-94710907D01*
X166407595Y-94423328D01*
X165657695Y-94422674D01*
X164964628Y-94709043D01*
X164433907Y-95238839D01*
X164146328Y-95931405D01*
X164145674Y-96681305D01*
X148411781Y-96681305D01*
X147966161Y-96234907D01*
X147273595Y-95947328D01*
X146523695Y-95946674D01*
X145830628Y-96233043D01*
X145299907Y-96762839D01*
X145012328Y-97455405D01*
X145011674Y-98205305D01*
X143531674Y-98205305D01*
X143532326Y-97458695D01*
X143245957Y-96765628D01*
X142716161Y-96234907D01*
X142023595Y-95947328D01*
X141273695Y-95946674D01*
X140580628Y-96233043D01*
X140049907Y-96762839D01*
X139762328Y-97455405D01*
X139761674Y-98205305D01*
X133881440Y-98205305D01*
X133881440Y-97017000D01*
X133837162Y-96781683D01*
X133698090Y-96565559D01*
X133485890Y-96420569D01*
X133469656Y-96417281D01*
X133752155Y-95994491D01*
X133869000Y-95407072D01*
X133869000Y-95346928D01*
X133752155Y-94759509D01*
X133419409Y-94261519D01*
X133181418Y-94102499D01*
X133571966Y-93744576D01*
X133825046Y-93201742D01*
X133704997Y-92964000D01*
X132461000Y-92964000D01*
X132461000Y-92984000D01*
X132207000Y-92984000D01*
X132207000Y-92964000D01*
X130963003Y-92964000D01*
X130842954Y-93201742D01*
X131096034Y-93744576D01*
X131486582Y-94102499D01*
X131248591Y-94261519D01*
X130915845Y-94759509D01*
X130799000Y-95346928D01*
X130799000Y-95407072D01*
X130915845Y-95994491D01*
X131196837Y-96415026D01*
X130982559Y-96552910D01*
X130837569Y-96765110D01*
X130786560Y-97017000D01*
X130556000Y-97017000D01*
X130556000Y-92472258D01*
X130842954Y-92472258D01*
X130963003Y-92710000D01*
X132207000Y-92710000D01*
X132207000Y-91466622D01*
X132461000Y-91466622D01*
X132461000Y-92710000D01*
X133704997Y-92710000D01*
X133825046Y-92472258D01*
X133571966Y-91929424D01*
X133130417Y-91524760D01*
X132698740Y-91345964D01*
X132461000Y-91466622D01*
X132207000Y-91466622D01*
X131969260Y-91345964D01*
X131537583Y-91524760D01*
X131096034Y-91929424D01*
X130842954Y-92472258D01*
X130556000Y-92472258D01*
X130556000Y-87884000D01*
X145729887Y-87884000D01*
X145839120Y-88433151D01*
X146150189Y-88898698D01*
X146532275Y-89154000D01*
X146150189Y-89409302D01*
X145839120Y-89874849D01*
X145729887Y-90424000D01*
X145839120Y-90973151D01*
X146150189Y-91438698D01*
X146615736Y-91749767D01*
X147164887Y-91859000D01*
X147221113Y-91859000D01*
X147770264Y-91749767D01*
X148235811Y-91438698D01*
X148546880Y-90973151D01*
X148656113Y-90424000D01*
X148546880Y-89874849D01*
X148235811Y-89409302D01*
X147853725Y-89154000D01*
X148235811Y-88898698D01*
X148546880Y-88433151D01*
X148656113Y-87884000D01*
X148546880Y-87334849D01*
X148235811Y-86869302D01*
X147831297Y-86599014D01*
X148048134Y-86496389D01*
X148424041Y-86081423D01*
X148584904Y-85693039D01*
X148462915Y-85471000D01*
X147320000Y-85471000D01*
X147320000Y-85491000D01*
X147066000Y-85491000D01*
X147066000Y-85471000D01*
X145923085Y-85471000D01*
X145801096Y-85693039D01*
X145961959Y-86081423D01*
X146337866Y-86496389D01*
X146554703Y-86599014D01*
X146150189Y-86869302D01*
X145839120Y-87334849D01*
X145729887Y-87884000D01*
X130556000Y-87884000D01*
X130556000Y-87065707D01*
X130723629Y-86898370D01*
X130936757Y-86385100D01*
X130937242Y-85829339D01*
X130725010Y-85315697D01*
X130332370Y-84922371D01*
X129819100Y-84709243D01*
X129263339Y-84708758D01*
X128749697Y-84920990D01*
X128356371Y-85313630D01*
X128143243Y-85826900D01*
X128142758Y-86382661D01*
X128354990Y-86896303D01*
X128524000Y-87065608D01*
X128524000Y-98131159D01*
X128103195Y-98551965D01*
X127866339Y-98551758D01*
X127352697Y-98763990D01*
X126959371Y-99156630D01*
X126746243Y-99669900D01*
X126745758Y-100225661D01*
X115010000Y-100225661D01*
X115010000Y-97917000D01*
X123199907Y-97917000D01*
X123312946Y-98485285D01*
X123634853Y-98967054D01*
X124116622Y-99288961D01*
X124684907Y-99402000D01*
X124743093Y-99402000D01*
X125311378Y-99288961D01*
X125793147Y-98967054D01*
X126115054Y-98485285D01*
X126228093Y-97917000D01*
X126115054Y-97348715D01*
X125793147Y-96866946D01*
X125751548Y-96839150D01*
X125799317Y-96830162D01*
X126015441Y-96691090D01*
X126160431Y-96478890D01*
X126211440Y-96227000D01*
X126211440Y-94527000D01*
X126167162Y-94291683D01*
X126028090Y-94075559D01*
X125815890Y-93930569D01*
X125564000Y-93879560D01*
X123864000Y-93879560D01*
X123628683Y-93923838D01*
X123412559Y-94062910D01*
X123267569Y-94275110D01*
X123216560Y-94527000D01*
X123216560Y-96227000D01*
X123260838Y-96462317D01*
X123399910Y-96678441D01*
X123612110Y-96823431D01*
X123679541Y-96837086D01*
X123634853Y-96866946D01*
X123312946Y-97348715D01*
X123199907Y-97917000D01*
X115010000Y-97917000D01*
X115010000Y-82913403D01*
X119703682Y-82913403D01*
X119982455Y-83588086D01*
X120498199Y-84104730D01*
X121172395Y-84384681D01*
X121902403Y-84385318D01*
X122577086Y-84106545D01*
X123093730Y-83590801D01*
X123373681Y-82916605D01*
X123374111Y-82423000D01*
X125561928Y-82423000D01*
X125678773Y-83010419D01*
X126011519Y-83508409D01*
X126509509Y-83841155D01*
X127096928Y-83958000D01*
X127157072Y-83958000D01*
X127744491Y-83841155D01*
X128242481Y-83508409D01*
X128397000Y-83277155D01*
X128551519Y-83508409D01*
X129049509Y-83841155D01*
X129636928Y-83958000D01*
X129697072Y-83958000D01*
X130284491Y-83841155D01*
X130705026Y-83560163D01*
X130842910Y-83774441D01*
X131055110Y-83919431D01*
X131307000Y-83970440D01*
X133107000Y-83970440D01*
X133342317Y-83926162D01*
X133558441Y-83787090D01*
X133703431Y-83574890D01*
X133754440Y-83323000D01*
X133754440Y-82804000D01*
X145729887Y-82804000D01*
X145839120Y-83353151D01*
X146150189Y-83818698D01*
X146554703Y-84088986D01*
X146337866Y-84191611D01*
X145961959Y-84606577D01*
X145801096Y-84994961D01*
X145923085Y-85217000D01*
X147066000Y-85217000D01*
X147066000Y-85197000D01*
X147320000Y-85197000D01*
X147320000Y-85217000D01*
X148462915Y-85217000D01*
X148584904Y-84994961D01*
X148424041Y-84606577D01*
X148048134Y-84191611D01*
X147831297Y-84088986D01*
X148235811Y-83818698D01*
X148546880Y-83353151D01*
X148656113Y-82804000D01*
X153349887Y-82804000D01*
X153459120Y-83353151D01*
X153770189Y-83818698D01*
X154152275Y-84074000D01*
X153770189Y-84329302D01*
X153459120Y-84794849D01*
X153349887Y-85344000D01*
X153459120Y-85893151D01*
X153770189Y-86358698D01*
X154152275Y-86614000D01*
X153770189Y-86869302D01*
X153459120Y-87334849D01*
X153349887Y-87884000D01*
X153459120Y-88433151D01*
X153770189Y-88898698D01*
X154152275Y-89154000D01*
X153770189Y-89409302D01*
X153459120Y-89874849D01*
X153349887Y-90424000D01*
X153459120Y-90973151D01*
X153770189Y-91438698D01*
X154235736Y-91749767D01*
X154784887Y-91859000D01*
X154841113Y-91859000D01*
X155390264Y-91749767D01*
X155855811Y-91438698D01*
X156166880Y-90973151D01*
X156276113Y-90424000D01*
X156166880Y-89874849D01*
X155855811Y-89409302D01*
X155473725Y-89154000D01*
X155855811Y-88898698D01*
X156166880Y-88433151D01*
X156276113Y-87884000D01*
X156259671Y-87801340D01*
X159176925Y-87801340D01*
X159286158Y-88350491D01*
X159597227Y-88816038D01*
X159979313Y-89071340D01*
X159597227Y-89326642D01*
X159286158Y-89792189D01*
X159176925Y-90341340D01*
X159286158Y-90890491D01*
X159597227Y-91356038D01*
X160062774Y-91667107D01*
X160611925Y-91776340D01*
X160668151Y-91776340D01*
X161217302Y-91667107D01*
X161682849Y-91356038D01*
X161993918Y-90890491D01*
X162103151Y-90341340D01*
X161993918Y-89792189D01*
X161682849Y-89326642D01*
X161300763Y-89071340D01*
X161682849Y-88816038D01*
X161993918Y-88350491D01*
X162103151Y-87801340D01*
X161993918Y-87252189D01*
X161682849Y-86786642D01*
X161278335Y-86516354D01*
X161495172Y-86413729D01*
X161871079Y-85998763D01*
X162031942Y-85610379D01*
X161909953Y-85388340D01*
X160767038Y-85388340D01*
X160767038Y-85408340D01*
X160513038Y-85408340D01*
X160513038Y-85388340D01*
X159370123Y-85388340D01*
X159248134Y-85610379D01*
X159408997Y-85998763D01*
X159784904Y-86413729D01*
X160001741Y-86516354D01*
X159597227Y-86786642D01*
X159286158Y-87252189D01*
X159176925Y-87801340D01*
X156259671Y-87801340D01*
X156166880Y-87334849D01*
X155855811Y-86869302D01*
X155473725Y-86614000D01*
X155855811Y-86358698D01*
X156166880Y-85893151D01*
X156276113Y-85344000D01*
X156166880Y-84794849D01*
X155855811Y-84329302D01*
X155473725Y-84074000D01*
X155855811Y-83818698D01*
X156166880Y-83353151D01*
X156276113Y-82804000D01*
X156259671Y-82721340D01*
X159176925Y-82721340D01*
X159286158Y-83270491D01*
X159597227Y-83736038D01*
X160001741Y-84006326D01*
X159784904Y-84108951D01*
X159408997Y-84523917D01*
X159248134Y-84912301D01*
X159370123Y-85134340D01*
X160513038Y-85134340D01*
X160513038Y-85114340D01*
X160767038Y-85114340D01*
X160767038Y-85134340D01*
X161909953Y-85134340D01*
X162031942Y-84912301D01*
X161871079Y-84523917D01*
X161495172Y-84108951D01*
X161278335Y-84006326D01*
X161682849Y-83736038D01*
X161993918Y-83270491D01*
X162103151Y-82721340D01*
X166796925Y-82721340D01*
X166906158Y-83270491D01*
X167217227Y-83736038D01*
X167599313Y-83991340D01*
X167217227Y-84246642D01*
X166906158Y-84712189D01*
X166796925Y-85261340D01*
X166906158Y-85810491D01*
X167217227Y-86276038D01*
X167599313Y-86531340D01*
X167217227Y-86786642D01*
X166906158Y-87252189D01*
X166796925Y-87801340D01*
X166906158Y-88350491D01*
X167217227Y-88816038D01*
X167599313Y-89071340D01*
X167217227Y-89326642D01*
X166906158Y-89792189D01*
X166796925Y-90341340D01*
X166906158Y-90890491D01*
X167217227Y-91356038D01*
X167682774Y-91667107D01*
X168231925Y-91776340D01*
X168288151Y-91776340D01*
X168837302Y-91667107D01*
X169302849Y-91356038D01*
X169613918Y-90890491D01*
X169723151Y-90341340D01*
X169613918Y-89792189D01*
X169302849Y-89326642D01*
X168920763Y-89071340D01*
X169302849Y-88816038D01*
X169613918Y-88350491D01*
X169723151Y-87801340D01*
X169613918Y-87252189D01*
X169302849Y-86786642D01*
X168920763Y-86531340D01*
X169302849Y-86276038D01*
X169613918Y-85810491D01*
X169723151Y-85261340D01*
X169613918Y-84712189D01*
X169302849Y-84246642D01*
X168920763Y-83991340D01*
X169302849Y-83736038D01*
X169613918Y-83270491D01*
X169723151Y-82721340D01*
X169613918Y-82172189D01*
X169302849Y-81706642D01*
X168837302Y-81395573D01*
X168288151Y-81286340D01*
X168231925Y-81286340D01*
X167682774Y-81395573D01*
X167217227Y-81706642D01*
X166906158Y-82172189D01*
X166796925Y-82721340D01*
X162103151Y-82721340D01*
X161993918Y-82172189D01*
X161682849Y-81706642D01*
X161217302Y-81395573D01*
X160668151Y-81286340D01*
X160611925Y-81286340D01*
X160062774Y-81395573D01*
X159597227Y-81706642D01*
X159286158Y-82172189D01*
X159176925Y-82721340D01*
X156259671Y-82721340D01*
X156166880Y-82254849D01*
X155855811Y-81789302D01*
X155390264Y-81478233D01*
X154841113Y-81369000D01*
X154784887Y-81369000D01*
X154235736Y-81478233D01*
X153770189Y-81789302D01*
X153459120Y-82254849D01*
X153349887Y-82804000D01*
X148656113Y-82804000D01*
X148546880Y-82254849D01*
X148235811Y-81789302D01*
X147770264Y-81478233D01*
X147221113Y-81369000D01*
X147164887Y-81369000D01*
X146615736Y-81478233D01*
X146150189Y-81789302D01*
X145839120Y-82254849D01*
X145729887Y-82804000D01*
X133754440Y-82804000D01*
X133754440Y-81523000D01*
X133710162Y-81287683D01*
X133571090Y-81071559D01*
X133358890Y-80926569D01*
X133107000Y-80875560D01*
X131307000Y-80875560D01*
X131071683Y-80919838D01*
X130855559Y-81058910D01*
X130710569Y-81271110D01*
X130707281Y-81287344D01*
X130284491Y-81004845D01*
X129697072Y-80888000D01*
X129636928Y-80888000D01*
X129049509Y-81004845D01*
X128551519Y-81337591D01*
X128397000Y-81568845D01*
X128242481Y-81337591D01*
X127744491Y-81004845D01*
X127157072Y-80888000D01*
X127096928Y-80888000D01*
X126509509Y-81004845D01*
X126011519Y-81337591D01*
X125678773Y-81835581D01*
X125561928Y-82423000D01*
X123374111Y-82423000D01*
X123374318Y-82186597D01*
X123095545Y-81511914D01*
X122579801Y-80995270D01*
X121905605Y-80715319D01*
X121175597Y-80714682D01*
X120500914Y-80993455D01*
X119984270Y-81509199D01*
X119704319Y-82183395D01*
X119703682Y-82913403D01*
X115010000Y-82913403D01*
X115010000Y-73660000D01*
X125561928Y-73660000D01*
X125678773Y-74247419D01*
X126011519Y-74745409D01*
X126509509Y-75078155D01*
X127096928Y-75195000D01*
X127157072Y-75195000D01*
X127744491Y-75078155D01*
X128242481Y-74745409D01*
X128397000Y-74514155D01*
X128551519Y-74745409D01*
X129049509Y-75078155D01*
X129636928Y-75195000D01*
X129697072Y-75195000D01*
X130284491Y-75078155D01*
X130705026Y-74797163D01*
X130842910Y-75011441D01*
X131055110Y-75156431D01*
X131307000Y-75207440D01*
X133107000Y-75207440D01*
X133342317Y-75163162D01*
X133558441Y-75024090D01*
X133703431Y-74811890D01*
X133754440Y-74560000D01*
X133754440Y-73025000D01*
X135518907Y-73025000D01*
X135631946Y-73593285D01*
X135953853Y-74075054D01*
X136435622Y-74396961D01*
X137003907Y-74510000D01*
X137062093Y-74510000D01*
X137630378Y-74396961D01*
X138112147Y-74075054D01*
X138434054Y-73593285D01*
X138547093Y-73025000D01*
X138446046Y-72517000D01*
X145170907Y-72517000D01*
X145283946Y-73085285D01*
X145605853Y-73567054D01*
X145647452Y-73594850D01*
X145599683Y-73603838D01*
X145383559Y-73742910D01*
X145238569Y-73955110D01*
X145187560Y-74207000D01*
X145187560Y-75907000D01*
X145231838Y-76142317D01*
X145370910Y-76358441D01*
X145583110Y-76503431D01*
X145835000Y-76554440D01*
X147535000Y-76554440D01*
X147770317Y-76510162D01*
X147986441Y-76371090D01*
X148131431Y-76158890D01*
X148182440Y-75907000D01*
X148182440Y-75388305D01*
X161859674Y-75388305D01*
X162146043Y-76081372D01*
X162675839Y-76612093D01*
X163368405Y-76899672D01*
X164118305Y-76900326D01*
X164811372Y-76613957D01*
X165342093Y-76084161D01*
X165629672Y-75391595D01*
X165629674Y-75388305D01*
X167109674Y-75388305D01*
X167396043Y-76081372D01*
X167925839Y-76612093D01*
X168618405Y-76899672D01*
X169368305Y-76900326D01*
X170061372Y-76613957D01*
X170592093Y-76084161D01*
X170879672Y-75391595D01*
X170880326Y-74641695D01*
X170593957Y-73948628D01*
X170064161Y-73417907D01*
X169371595Y-73130328D01*
X168621695Y-73129674D01*
X167928628Y-73416043D01*
X167397907Y-73945839D01*
X167110328Y-74638405D01*
X167109674Y-75388305D01*
X165629674Y-75388305D01*
X165630326Y-74641695D01*
X165343957Y-73948628D01*
X164814161Y-73417907D01*
X164121595Y-73130328D01*
X163371695Y-73129674D01*
X162678628Y-73416043D01*
X162147907Y-73945839D01*
X161860328Y-74638405D01*
X161859674Y-75388305D01*
X148182440Y-75388305D01*
X148182440Y-74207000D01*
X148138162Y-73971683D01*
X147999090Y-73755559D01*
X147786890Y-73610569D01*
X147719459Y-73596914D01*
X147764147Y-73567054D01*
X148086054Y-73085285D01*
X148159968Y-72713694D01*
X164735226Y-72713694D01*
X164983538Y-73314655D01*
X165442927Y-73774846D01*
X166043453Y-74024206D01*
X166693694Y-74024774D01*
X167294655Y-73776462D01*
X167754846Y-73317073D01*
X168004206Y-72716547D01*
X168004774Y-72066306D01*
X167756462Y-71465345D01*
X167297073Y-71005154D01*
X166696547Y-70755794D01*
X166046306Y-70755226D01*
X165445345Y-71003538D01*
X164985154Y-71462927D01*
X164735794Y-72063453D01*
X164735226Y-72713694D01*
X148159968Y-72713694D01*
X148199093Y-72517000D01*
X148086054Y-71948715D01*
X147764147Y-71466946D01*
X147282378Y-71145039D01*
X146714093Y-71032000D01*
X146655907Y-71032000D01*
X146087622Y-71145039D01*
X145605853Y-71466946D01*
X145283946Y-71948715D01*
X145170907Y-72517000D01*
X138446046Y-72517000D01*
X138434054Y-72456715D01*
X138112147Y-71974946D01*
X138070548Y-71947150D01*
X138118317Y-71938162D01*
X138334441Y-71799090D01*
X138479431Y-71586890D01*
X138530440Y-71335000D01*
X138530440Y-69635000D01*
X138486162Y-69399683D01*
X138347090Y-69183559D01*
X138134890Y-69038569D01*
X137883000Y-68987560D01*
X136183000Y-68987560D01*
X135947683Y-69031838D01*
X135731559Y-69170910D01*
X135586569Y-69383110D01*
X135535560Y-69635000D01*
X135535560Y-71335000D01*
X135579838Y-71570317D01*
X135718910Y-71786441D01*
X135931110Y-71931431D01*
X135998541Y-71945086D01*
X135953853Y-71974946D01*
X135631946Y-72456715D01*
X135518907Y-73025000D01*
X133754440Y-73025000D01*
X133754440Y-72760000D01*
X133710162Y-72524683D01*
X133571090Y-72308559D01*
X133358890Y-72163569D01*
X133107000Y-72112560D01*
X131307000Y-72112560D01*
X131071683Y-72156838D01*
X130855559Y-72295910D01*
X130710569Y-72508110D01*
X130707281Y-72524344D01*
X130284491Y-72241845D01*
X129697072Y-72125000D01*
X129636928Y-72125000D01*
X129049509Y-72241845D01*
X128551519Y-72574591D01*
X128397000Y-72805845D01*
X128242481Y-72574591D01*
X127744491Y-72241845D01*
X127157072Y-72125000D01*
X127096928Y-72125000D01*
X126509509Y-72241845D01*
X126011519Y-72574591D01*
X125678773Y-73072581D01*
X125561928Y-73660000D01*
X115010000Y-73660000D01*
X115010000Y-69814050D01*
X119704000Y-69814050D01*
X119704000Y-69885950D01*
X119843681Y-70588174D01*
X120241459Y-71183491D01*
X120836776Y-71581269D01*
X121539000Y-71720950D01*
X122241224Y-71581269D01*
X122836541Y-71183491D01*
X123234319Y-70588174D01*
X123374000Y-69885950D01*
X123374000Y-69814050D01*
X123234319Y-69111826D01*
X122836541Y-68516509D01*
X122241224Y-68118731D01*
X121539000Y-67979050D01*
X120836776Y-68118731D01*
X120241459Y-68516509D01*
X119843681Y-69111826D01*
X119704000Y-69814050D01*
X115010000Y-69814050D01*
X115010000Y-63881000D01*
X123834907Y-63881000D01*
X123947946Y-64449285D01*
X124269853Y-64931054D01*
X124311452Y-64958850D01*
X124263683Y-64967838D01*
X124047559Y-65106910D01*
X123902569Y-65319110D01*
X123851560Y-65571000D01*
X123851560Y-67271000D01*
X123895838Y-67506317D01*
X124034910Y-67722441D01*
X124247110Y-67867431D01*
X124499000Y-67918440D01*
X126199000Y-67918440D01*
X126434317Y-67874162D01*
X126650441Y-67735090D01*
X126795431Y-67522890D01*
X126846440Y-67271000D01*
X126846440Y-65571000D01*
X126802162Y-65335683D01*
X126697904Y-65173661D01*
X142747758Y-65173661D01*
X142959990Y-65687303D01*
X143352630Y-66080629D01*
X143865900Y-66293757D01*
X144421661Y-66294242D01*
X144935303Y-66082010D01*
X145328629Y-65689370D01*
X145384564Y-65554661D01*
X156082758Y-65554661D01*
X156294990Y-66068303D01*
X156616400Y-66390275D01*
X156616400Y-66548000D01*
X156682138Y-66878485D01*
X156869343Y-67158657D01*
X158750153Y-69039467D01*
X158749758Y-69491661D01*
X158961990Y-70005303D01*
X159354630Y-70398629D01*
X159867900Y-70611757D01*
X160423661Y-70612242D01*
X160937303Y-70400010D01*
X161199465Y-70138305D01*
X161859674Y-70138305D01*
X162146043Y-70831372D01*
X162675839Y-71362093D01*
X163368405Y-71649672D01*
X164118305Y-71650326D01*
X164811372Y-71363957D01*
X165342093Y-70834161D01*
X165629672Y-70141595D01*
X165629674Y-70138305D01*
X167109674Y-70138305D01*
X167396043Y-70831372D01*
X167925839Y-71362093D01*
X168618405Y-71649672D01*
X169368305Y-71650326D01*
X170061372Y-71363957D01*
X170592093Y-70834161D01*
X170879672Y-70141595D01*
X170880326Y-69391695D01*
X170593957Y-68698628D01*
X170064161Y-68167907D01*
X169371595Y-67880328D01*
X168621695Y-67879674D01*
X167928628Y-68166043D01*
X167397907Y-68695839D01*
X167110328Y-69388405D01*
X167109674Y-70138305D01*
X165629674Y-70138305D01*
X165630326Y-69391695D01*
X165343957Y-68698628D01*
X164814161Y-68167907D01*
X164121595Y-67880328D01*
X163371695Y-67879674D01*
X162678628Y-68166043D01*
X162147907Y-68695839D01*
X161860328Y-69388405D01*
X161859674Y-70138305D01*
X161199465Y-70138305D01*
X161330629Y-70007370D01*
X161543757Y-69494100D01*
X161544242Y-68938339D01*
X161332010Y-68424697D01*
X160939370Y-68031371D01*
X160426100Y-67818243D01*
X159971161Y-67817846D01*
X158443465Y-66290150D01*
X158663629Y-66070370D01*
X158876757Y-65557100D01*
X158877242Y-65001339D01*
X158665010Y-64487697D01*
X158272370Y-64094371D01*
X157759100Y-63881243D01*
X157203339Y-63880758D01*
X156689697Y-64092990D01*
X156296371Y-64485630D01*
X156083243Y-64998900D01*
X156082758Y-65554661D01*
X145384564Y-65554661D01*
X145541757Y-65176100D01*
X145542201Y-64667233D01*
X150519412Y-59690022D01*
X150771661Y-59690242D01*
X151285303Y-59478010D01*
X151678629Y-59085370D01*
X151891757Y-58572100D01*
X151892242Y-58016339D01*
X151680010Y-57502697D01*
X151287370Y-57109371D01*
X150774100Y-56896243D01*
X150218339Y-56895758D01*
X149704697Y-57107990D01*
X149311371Y-57500630D01*
X149098243Y-58013900D01*
X149097758Y-58569661D01*
X149158324Y-58716242D01*
X144374366Y-63500200D01*
X143868339Y-63499758D01*
X143354697Y-63711990D01*
X142961371Y-64104630D01*
X142748243Y-64617900D01*
X142747758Y-65173661D01*
X126697904Y-65173661D01*
X126663090Y-65119559D01*
X126450890Y-64974569D01*
X126383459Y-64960914D01*
X126428147Y-64931054D01*
X126750054Y-64449285D01*
X126863093Y-63881000D01*
X126750054Y-63312715D01*
X126428147Y-62830946D01*
X126024600Y-62561305D01*
X132141674Y-62561305D01*
X132428043Y-63254372D01*
X132957839Y-63785093D01*
X133650405Y-64072672D01*
X134400305Y-64073326D01*
X135093372Y-63786957D01*
X135624093Y-63257161D01*
X135911672Y-62564595D01*
X135911674Y-62561305D01*
X137391674Y-62561305D01*
X137678043Y-63254372D01*
X138207839Y-63785093D01*
X138900405Y-64072672D01*
X139650305Y-64073326D01*
X140343372Y-63786957D01*
X140874093Y-63257161D01*
X141161672Y-62564595D01*
X141162326Y-61814695D01*
X140875957Y-61121628D01*
X140346161Y-60590907D01*
X139653595Y-60303328D01*
X138903695Y-60302674D01*
X138210628Y-60589043D01*
X137679907Y-61118839D01*
X137392328Y-61811405D01*
X137391674Y-62561305D01*
X135911674Y-62561305D01*
X135912326Y-61814695D01*
X135625957Y-61121628D01*
X135096161Y-60590907D01*
X134403595Y-60303328D01*
X133653695Y-60302674D01*
X132960628Y-60589043D01*
X132429907Y-61118839D01*
X132142328Y-61811405D01*
X132141674Y-62561305D01*
X126024600Y-62561305D01*
X125946378Y-62509039D01*
X125378093Y-62396000D01*
X125319907Y-62396000D01*
X124751622Y-62509039D01*
X124269853Y-62830946D01*
X123947946Y-63312715D01*
X123834907Y-63881000D01*
X115010000Y-63881000D01*
X115010000Y-59886694D01*
X135017226Y-59886694D01*
X135265538Y-60487655D01*
X135724927Y-60947846D01*
X136325453Y-61197206D01*
X136975694Y-61197774D01*
X137576655Y-60949462D01*
X138036846Y-60490073D01*
X138286206Y-59889547D01*
X138286774Y-59239306D01*
X138038462Y-58638345D01*
X137579073Y-58178154D01*
X136978547Y-57928794D01*
X136328306Y-57928226D01*
X135727345Y-58176538D01*
X135267154Y-58635927D01*
X135017794Y-59236453D01*
X135017226Y-59886694D01*
X115010000Y-59886694D01*
X115010000Y-57311305D01*
X132141674Y-57311305D01*
X132428043Y-58004372D01*
X132957839Y-58535093D01*
X133650405Y-58822672D01*
X134400305Y-58823326D01*
X135093372Y-58536957D01*
X135624093Y-58007161D01*
X135911672Y-57314595D01*
X135911674Y-57311305D01*
X137391674Y-57311305D01*
X137678043Y-58004372D01*
X138207839Y-58535093D01*
X138900405Y-58822672D01*
X139650305Y-58823326D01*
X140343372Y-58536957D01*
X140874093Y-58007161D01*
X141161672Y-57314595D01*
X141162271Y-56627000D01*
X142720560Y-56627000D01*
X142720560Y-57927000D01*
X142764838Y-58162317D01*
X142903910Y-58378441D01*
X143116110Y-58523431D01*
X143368000Y-58574440D01*
X144668000Y-58574440D01*
X144903317Y-58530162D01*
X145119441Y-58391090D01*
X145264431Y-58178890D01*
X145315440Y-57927000D01*
X145315440Y-56627000D01*
X145271162Y-56391683D01*
X145132090Y-56175559D01*
X144919890Y-56030569D01*
X144668000Y-55979560D01*
X144472540Y-55979560D01*
X144744943Y-55867005D01*
X145106735Y-55505845D01*
X145294931Y-55052619D01*
X171754613Y-55052619D01*
X172094155Y-55874372D01*
X172722321Y-56503636D01*
X173543481Y-56844611D01*
X174432619Y-56845387D01*
X175254372Y-56505845D01*
X175883636Y-55877679D01*
X176224611Y-55056519D01*
X176225387Y-54167381D01*
X175885845Y-53345628D01*
X175257679Y-52716364D01*
X174436519Y-52375389D01*
X173547381Y-52374613D01*
X172725628Y-52714155D01*
X172096364Y-53342321D01*
X171755389Y-54163481D01*
X171754613Y-55052619D01*
X145294931Y-55052619D01*
X145302777Y-55033724D01*
X145303223Y-54522519D01*
X145108005Y-54050057D01*
X144746845Y-53688265D01*
X144274724Y-53492223D01*
X143763519Y-53491777D01*
X143291057Y-53686995D01*
X142929265Y-54048155D01*
X142733223Y-54520276D01*
X142732777Y-55031481D01*
X142927995Y-55503943D01*
X143289155Y-55865735D01*
X143563276Y-55979560D01*
X143368000Y-55979560D01*
X143132683Y-56023838D01*
X142916559Y-56162910D01*
X142771569Y-56375110D01*
X142720560Y-56627000D01*
X141162271Y-56627000D01*
X141162326Y-56564695D01*
X140875957Y-55871628D01*
X140346161Y-55340907D01*
X139653595Y-55053328D01*
X138903695Y-55052674D01*
X138210628Y-55339043D01*
X137679907Y-55868839D01*
X137392328Y-56561405D01*
X137391674Y-57311305D01*
X135911674Y-57311305D01*
X135912326Y-56564695D01*
X135625957Y-55871628D01*
X135096161Y-55340907D01*
X134403595Y-55053328D01*
X133653695Y-55052674D01*
X132960628Y-55339043D01*
X132429907Y-55868839D01*
X132142328Y-56561405D01*
X132141674Y-57311305D01*
X115010000Y-57311305D01*
X115010000Y-55052619D01*
X115874613Y-55052619D01*
X116214155Y-55874372D01*
X116842321Y-56503636D01*
X117663481Y-56844611D01*
X118552619Y-56845387D01*
X119374372Y-56505845D01*
X120003636Y-55877679D01*
X120344611Y-55056519D01*
X120345387Y-54167381D01*
X120005845Y-53345628D01*
X119377679Y-52716364D01*
X118556519Y-52375389D01*
X117667381Y-52374613D01*
X116845628Y-52714155D01*
X116216364Y-53342321D01*
X115875389Y-54163481D01*
X115874613Y-55052619D01*
X115010000Y-55052619D01*
X115010000Y-51510000D01*
X177090000Y-51510000D01*
X177090000Y-113590000D01*
M02*
