G04 #@! TF.FileFunction,Legend,Bot*
%FSLAX46Y46*%
G04 Gerber Fmt 4.6, Leading zero omitted, Abs format (unit mm)*
G04 Created by KiCad (PCBNEW 4.0.6) date Thursday, June 15, 2017 'PMt' 05:18:36 PM*
%MOMM*%
%LPD*%
G01*
G04 APERTURE LIST*
%ADD10C,0.100000*%
%ADD11C,0.300000*%
%ADD12C,0.150000*%
%ADD13C,0.120000*%
%ADD14C,0.381000*%
%ADD15C,0.304800*%
G04 APERTURE END LIST*
D10*
D11*
X122185714Y-94428571D02*
X121685714Y-95928571D01*
X121185714Y-94428571D01*
X120685714Y-95928571D02*
X120685714Y-94928571D01*
X120685714Y-94428571D02*
X120757143Y-94500000D01*
X120685714Y-94571429D01*
X120614286Y-94500000D01*
X120685714Y-94428571D01*
X120685714Y-94571429D01*
X119971428Y-94928571D02*
X119971428Y-95928571D01*
X119971428Y-95071429D02*
X119900000Y-95000000D01*
X119757142Y-94928571D01*
X119542857Y-94928571D01*
X119400000Y-95000000D01*
X119328571Y-95142857D01*
X119328571Y-95928571D01*
X141060714Y-64583571D02*
X140560714Y-66083571D01*
X140060714Y-64583571D01*
X139775000Y-65083571D02*
X139203571Y-65083571D01*
X139560714Y-66083571D02*
X139560714Y-64797857D01*
X139489286Y-64655000D01*
X139346428Y-64583571D01*
X139203571Y-64583571D01*
X138703571Y-66083571D02*
X138703571Y-65083571D01*
X138703571Y-64583571D02*
X138775000Y-64655000D01*
X138703571Y-64726429D01*
X138632143Y-64655000D01*
X138703571Y-64583571D01*
X138703571Y-64726429D01*
X137774999Y-66083571D02*
X137917857Y-66012143D01*
X137989285Y-65869286D01*
X137989285Y-64583571D01*
X137417857Y-65083571D02*
X136846428Y-65083571D01*
X137203571Y-64583571D02*
X137203571Y-65869286D01*
X137132143Y-66012143D01*
X136989285Y-66083571D01*
X136846428Y-66083571D01*
X135775000Y-66012143D02*
X135917857Y-66083571D01*
X136203571Y-66083571D01*
X136346428Y-66012143D01*
X136417857Y-65869286D01*
X136417857Y-65297857D01*
X136346428Y-65155000D01*
X136203571Y-65083571D01*
X135917857Y-65083571D01*
X135775000Y-65155000D01*
X135703571Y-65297857D01*
X135703571Y-65440714D01*
X136417857Y-65583571D01*
X135060714Y-66083571D02*
X135060714Y-65083571D01*
X135060714Y-65369286D02*
X134989286Y-65226429D01*
X134917857Y-65155000D01*
X134775000Y-65083571D01*
X134632143Y-65083571D01*
X133560715Y-66012143D02*
X133703572Y-66083571D01*
X133989286Y-66083571D01*
X134132143Y-66012143D01*
X134203572Y-65869286D01*
X134203572Y-65297857D01*
X134132143Y-65155000D01*
X133989286Y-65083571D01*
X133703572Y-65083571D01*
X133560715Y-65155000D01*
X133489286Y-65297857D01*
X133489286Y-65440714D01*
X134203572Y-65583571D01*
X132203572Y-66083571D02*
X132203572Y-64583571D01*
X132203572Y-66012143D02*
X132346429Y-66083571D01*
X132632143Y-66083571D01*
X132775001Y-66012143D01*
X132846429Y-65940714D01*
X132917858Y-65797857D01*
X132917858Y-65369286D01*
X132846429Y-65226429D01*
X132775001Y-65155000D01*
X132632143Y-65083571D01*
X132346429Y-65083571D01*
X132203572Y-65155000D01*
X172906429Y-75497142D02*
X171406429Y-74997142D01*
X172906429Y-74497142D01*
X171263571Y-74354285D02*
X171263571Y-73211428D01*
X172906429Y-73068571D02*
X171406429Y-72568571D01*
X172906429Y-72068571D01*
X172835000Y-70782857D02*
X172906429Y-70925714D01*
X172906429Y-71140000D01*
X172835000Y-71354285D01*
X172692143Y-71497143D01*
X172549286Y-71568571D01*
X172263571Y-71640000D01*
X172049286Y-71640000D01*
X171763571Y-71568571D01*
X171620714Y-71497143D01*
X171477857Y-71354285D01*
X171406429Y-71140000D01*
X171406429Y-70997143D01*
X171477857Y-70782857D01*
X171549286Y-70711428D01*
X172049286Y-70711428D01*
X172049286Y-70997143D01*
X171835000Y-70140000D02*
X171835000Y-69425714D01*
X171406429Y-70282857D02*
X172906429Y-69782857D01*
X171406429Y-69282857D01*
X147466428Y-105223571D02*
X146966428Y-106723571D01*
X146466428Y-105223571D01*
X146323571Y-106866429D02*
X145180714Y-106866429D01*
X144895000Y-106295000D02*
X144180714Y-106295000D01*
X145037857Y-106723571D02*
X144537857Y-105223571D01*
X144037857Y-106723571D01*
X143537857Y-106723571D02*
X143537857Y-105223571D01*
X143037857Y-106295000D01*
X142537857Y-105223571D01*
X142537857Y-106723571D01*
X141823571Y-106723571D02*
X141823571Y-105223571D01*
X141252143Y-105223571D01*
X141109285Y-105295000D01*
X141037857Y-105366429D01*
X140966428Y-105509286D01*
X140966428Y-105723571D01*
X141037857Y-105866429D01*
X141109285Y-105937857D01*
X141252143Y-106009286D01*
X141823571Y-106009286D01*
X173445714Y-104588571D02*
X172945714Y-106088571D01*
X172445714Y-104588571D01*
X172302857Y-106231429D02*
X171160000Y-106231429D01*
X170802857Y-105302857D02*
X170302857Y-105302857D01*
X170088571Y-106088571D02*
X170802857Y-106088571D01*
X170802857Y-104588571D01*
X170088571Y-104588571D01*
X169445714Y-106088571D02*
X169445714Y-104588571D01*
X168588571Y-106088571D01*
X168588571Y-104588571D01*
X168088571Y-104588571D02*
X167588571Y-106088571D01*
X167088571Y-104588571D01*
X165874285Y-106088571D02*
X166588571Y-106088571D01*
X166588571Y-104588571D01*
X165374285Y-106088571D02*
X165374285Y-104588571D01*
X164802857Y-104588571D01*
X164659999Y-104660000D01*
X164588571Y-104731429D01*
X164517142Y-104874286D01*
X164517142Y-105088571D01*
X164588571Y-105231429D01*
X164659999Y-105302857D01*
X164802857Y-105374286D01*
X165374285Y-105374286D01*
X166890094Y-110532333D02*
X165680571Y-110532333D01*
X167131999Y-111258048D02*
X166285333Y-108718048D01*
X165438666Y-111258048D01*
X164591999Y-109564714D02*
X164591999Y-111258048D01*
X164591999Y-109806619D02*
X164471047Y-109685667D01*
X164229142Y-109564714D01*
X163866285Y-109564714D01*
X163624380Y-109685667D01*
X163503428Y-109927571D01*
X163503428Y-111258048D01*
X161205333Y-111258048D02*
X161205333Y-109927571D01*
X161326285Y-109685667D01*
X161568190Y-109564714D01*
X162051999Y-109564714D01*
X162293904Y-109685667D01*
X161205333Y-111137095D02*
X161447237Y-111258048D01*
X162051999Y-111258048D01*
X162293904Y-111137095D01*
X162414856Y-110895190D01*
X162414856Y-110653286D01*
X162293904Y-110411381D01*
X162051999Y-110290429D01*
X161447237Y-110290429D01*
X161205333Y-110169476D01*
X159632952Y-111258048D02*
X159874857Y-111137095D01*
X159995809Y-110895190D01*
X159995809Y-108718048D01*
X158302476Y-111258048D02*
X158544381Y-111137095D01*
X158665333Y-111016143D01*
X158786285Y-110774238D01*
X158786285Y-110048524D01*
X158665333Y-109806619D01*
X158544381Y-109685667D01*
X158302476Y-109564714D01*
X157939619Y-109564714D01*
X157697714Y-109685667D01*
X157576762Y-109806619D01*
X157455809Y-110048524D01*
X157455809Y-110774238D01*
X157576762Y-111016143D01*
X157697714Y-111137095D01*
X157939619Y-111258048D01*
X158302476Y-111258048D01*
X155278667Y-109564714D02*
X155278667Y-111620905D01*
X155399619Y-111862810D01*
X155520571Y-111983762D01*
X155762476Y-112104714D01*
X156125333Y-112104714D01*
X156367238Y-111983762D01*
X155278667Y-111137095D02*
X155520571Y-111258048D01*
X156004381Y-111258048D01*
X156246286Y-111137095D01*
X156367238Y-111016143D01*
X156488190Y-110774238D01*
X156488190Y-110048524D01*
X156367238Y-109806619D01*
X156246286Y-109685667D01*
X156004381Y-109564714D01*
X155520571Y-109564714D01*
X155278667Y-109685667D01*
X151287238Y-109927571D02*
X152133905Y-109927571D01*
X152133905Y-111258048D02*
X152133905Y-108718048D01*
X150924381Y-108718048D01*
X149956762Y-111258048D02*
X149956762Y-109564714D01*
X149956762Y-110048524D02*
X149835810Y-109806619D01*
X149714857Y-109685667D01*
X149472953Y-109564714D01*
X149231048Y-109564714D01*
X148021524Y-111258048D02*
X148263429Y-111137095D01*
X148384381Y-111016143D01*
X148505333Y-110774238D01*
X148505333Y-110048524D01*
X148384381Y-109806619D01*
X148263429Y-109685667D01*
X148021524Y-109564714D01*
X147658667Y-109564714D01*
X147416762Y-109685667D01*
X147295810Y-109806619D01*
X147174857Y-110048524D01*
X147174857Y-110774238D01*
X147295810Y-111016143D01*
X147416762Y-111137095D01*
X147658667Y-111258048D01*
X148021524Y-111258048D01*
X146086286Y-109564714D02*
X146086286Y-111258048D01*
X146086286Y-109806619D02*
X145965334Y-109685667D01*
X145723429Y-109564714D01*
X145360572Y-109564714D01*
X145118667Y-109685667D01*
X144997715Y-109927571D01*
X144997715Y-111258048D01*
X144151048Y-109564714D02*
X143183429Y-109564714D01*
X143788191Y-108718048D02*
X143788191Y-110895190D01*
X143667239Y-111137095D01*
X143425334Y-111258048D01*
X143183429Y-111258048D01*
X141369143Y-111137095D02*
X141611048Y-111258048D01*
X142094857Y-111258048D01*
X142336762Y-111137095D01*
X142457714Y-110895190D01*
X142457714Y-109927571D01*
X142336762Y-109685667D01*
X142094857Y-109564714D01*
X141611048Y-109564714D01*
X141369143Y-109685667D01*
X141248191Y-109927571D01*
X141248191Y-110169476D01*
X142457714Y-110411381D01*
X140159619Y-109564714D02*
X140159619Y-111258048D01*
X140159619Y-109806619D02*
X140038667Y-109685667D01*
X139796762Y-109564714D01*
X139433905Y-109564714D01*
X139192000Y-109685667D01*
X139071048Y-109927571D01*
X139071048Y-111258048D01*
X136772953Y-111258048D02*
X136772953Y-108718048D01*
X136772953Y-111137095D02*
X137014857Y-111258048D01*
X137498667Y-111258048D01*
X137740572Y-111137095D01*
X137861524Y-111016143D01*
X137982476Y-110774238D01*
X137982476Y-110048524D01*
X137861524Y-109806619D01*
X137740572Y-109685667D01*
X137498667Y-109564714D01*
X137014857Y-109564714D01*
X136772953Y-109685667D01*
X133870096Y-109564714D02*
X133265334Y-111258048D01*
X132660572Y-109564714D01*
X130362477Y-111258048D02*
X131813905Y-111258048D01*
X131088191Y-111258048D02*
X131088191Y-108718048D01*
X131330096Y-109080905D01*
X131572001Y-109322810D01*
X131813905Y-109443762D01*
X129273905Y-111016143D02*
X129152953Y-111137095D01*
X129273905Y-111258048D01*
X129394857Y-111137095D01*
X129273905Y-111016143D01*
X129273905Y-111258048D01*
X127580572Y-108718048D02*
X127338667Y-108718048D01*
X127096762Y-108839000D01*
X126975810Y-108959952D01*
X126854857Y-109201857D01*
X126733905Y-109685667D01*
X126733905Y-110290429D01*
X126854857Y-110774238D01*
X126975810Y-111016143D01*
X127096762Y-111137095D01*
X127338667Y-111258048D01*
X127580572Y-111258048D01*
X127822476Y-111137095D01*
X127943429Y-111016143D01*
X128064381Y-110774238D01*
X128185333Y-110290429D01*
X128185333Y-109685667D01*
X128064381Y-109201857D01*
X127943429Y-108959952D01*
X127822476Y-108839000D01*
X127580572Y-108718048D01*
D12*
X147279000Y-55825000D02*
X142281000Y-55825000D01*
X147271000Y-55685000D02*
X142289000Y-55685000D01*
X147255000Y-55545000D02*
X144875000Y-55545000D01*
X144685000Y-55545000D02*
X142305000Y-55545000D01*
X147231000Y-55405000D02*
X145270000Y-55405000D01*
X144290000Y-55405000D02*
X142329000Y-55405000D01*
X147198000Y-55265000D02*
X145437000Y-55265000D01*
X144123000Y-55265000D02*
X142362000Y-55265000D01*
X147157000Y-55125000D02*
X145544000Y-55125000D01*
X144016000Y-55125000D02*
X142403000Y-55125000D01*
X147107000Y-54985000D02*
X145615000Y-54985000D01*
X143945000Y-54985000D02*
X142453000Y-54985000D01*
X147046000Y-54845000D02*
X145659000Y-54845000D01*
X143901000Y-54845000D02*
X142514000Y-54845000D01*
X146976000Y-54705000D02*
X145678000Y-54705000D01*
X143882000Y-54705000D02*
X142584000Y-54705000D01*
X146894000Y-54565000D02*
X145676000Y-54565000D01*
X143884000Y-54565000D02*
X142666000Y-54565000D01*
X146799000Y-54425000D02*
X145651000Y-54425000D01*
X143909000Y-54425000D02*
X142761000Y-54425000D01*
X146688000Y-54285000D02*
X145603000Y-54285000D01*
X143957000Y-54285000D02*
X142872000Y-54285000D01*
X146560000Y-54145000D02*
X145525000Y-54145000D01*
X144035000Y-54145000D02*
X143000000Y-54145000D01*
X146411000Y-54005000D02*
X145408000Y-54005000D01*
X144152000Y-54005000D02*
X143149000Y-54005000D01*
X146232000Y-53865000D02*
X145220000Y-53865000D01*
X144340000Y-53865000D02*
X143328000Y-53865000D01*
X146013000Y-53725000D02*
X143547000Y-53725000D01*
X145724000Y-53585000D02*
X143836000Y-53585000D01*
X145252000Y-53445000D02*
X144308000Y-53445000D01*
X145680000Y-54650000D02*
G75*
G03X145680000Y-54650000I-900000J0D01*
G01*
X147317500Y-55900000D02*
G75*
G03X147317500Y-55900000I-2537500J0D01*
G01*
D13*
X123959000Y-65151000D02*
X123959000Y-62491000D01*
X123959000Y-62491000D02*
X126739000Y-62491000D01*
X126739000Y-62491000D02*
X126739000Y-65151000D01*
X126739000Y-65151000D02*
X123959000Y-65151000D01*
X123959000Y-66421000D02*
X123959000Y-67811000D01*
X123959000Y-67811000D02*
X125349000Y-67811000D01*
X126104000Y-96647000D02*
X126104000Y-99307000D01*
X126104000Y-99307000D02*
X123324000Y-99307000D01*
X123324000Y-99307000D02*
X123324000Y-96647000D01*
X123324000Y-96647000D02*
X126104000Y-96647000D01*
X126104000Y-95377000D02*
X126104000Y-93987000D01*
X126104000Y-93987000D02*
X124714000Y-93987000D01*
X138423000Y-71755000D02*
X138423000Y-74415000D01*
X138423000Y-74415000D02*
X135643000Y-74415000D01*
X135643000Y-74415000D02*
X135643000Y-71755000D01*
X135643000Y-71755000D02*
X138423000Y-71755000D01*
X138423000Y-70485000D02*
X138423000Y-69095000D01*
X138423000Y-69095000D02*
X137033000Y-69095000D01*
X145295000Y-73787000D02*
X145295000Y-71127000D01*
X145295000Y-71127000D02*
X148075000Y-71127000D01*
X148075000Y-71127000D02*
X148075000Y-73787000D01*
X148075000Y-73787000D02*
X145295000Y-73787000D01*
X145295000Y-75057000D02*
X145295000Y-76447000D01*
X145295000Y-76447000D02*
X146685000Y-76447000D01*
X134787000Y-79803000D02*
X124547000Y-79803000D01*
X134787000Y-84444000D02*
X124547000Y-84444000D01*
X134787000Y-79803000D02*
X134787000Y-84444000D01*
X124547000Y-79803000D02*
X124547000Y-84444000D01*
X134787000Y-81313000D02*
X124547000Y-81313000D01*
X131517000Y-79803000D02*
X131517000Y-81313000D01*
X127816000Y-79803000D02*
X127816000Y-81313000D01*
X134787000Y-71040000D02*
X124547000Y-71040000D01*
X134787000Y-75681000D02*
X124547000Y-75681000D01*
X134787000Y-71040000D02*
X134787000Y-75681000D01*
X124547000Y-71040000D02*
X124547000Y-75681000D01*
X134787000Y-72550000D02*
X124547000Y-72550000D01*
X131517000Y-71040000D02*
X131517000Y-72550000D01*
X127816000Y-71040000D02*
X127816000Y-72550000D01*
X122919000Y-81210000D02*
X123399000Y-81210000D01*
X123399000Y-81210000D02*
X123399000Y-71190000D01*
X123399000Y-71190000D02*
X122919000Y-71190000D01*
X120159000Y-81210000D02*
X119679000Y-81210000D01*
X119679000Y-81210000D02*
X119679000Y-71190000D01*
X119679000Y-71190000D02*
X120159000Y-71190000D01*
X134954000Y-100497000D02*
X134954000Y-90257000D01*
X130313000Y-100497000D02*
X130313000Y-90257000D01*
X134954000Y-100497000D02*
X130313000Y-100497000D01*
X134954000Y-90257000D02*
X130313000Y-90257000D01*
X133444000Y-100497000D02*
X133444000Y-90257000D01*
X134954000Y-97227000D02*
X133444000Y-97227000D01*
X134954000Y-93526000D02*
X133444000Y-93526000D01*
D12*
X168125038Y-80426340D02*
X168125038Y-81696340D01*
X160775038Y-80426340D02*
X160775038Y-81696340D01*
X160775038Y-92636340D02*
X160775038Y-91366340D01*
X168125038Y-92636340D02*
X168125038Y-91366340D01*
X168125038Y-80426340D02*
X160775038Y-80426340D01*
X168125038Y-92636340D02*
X160775038Y-92636340D01*
X168125038Y-81696340D02*
X169060038Y-81696340D01*
X154678000Y-80509000D02*
X154678000Y-81779000D01*
X147328000Y-80509000D02*
X147328000Y-81779000D01*
X147328000Y-92719000D02*
X147328000Y-91449000D01*
X154678000Y-92719000D02*
X154678000Y-91449000D01*
X154678000Y-80509000D02*
X147328000Y-80509000D01*
X154678000Y-92719000D02*
X147328000Y-92719000D01*
X154678000Y-81779000D02*
X155613000Y-81779000D01*
D14*
X141122400Y-103606600D02*
X147421600Y-103606600D01*
X147421600Y-103606600D02*
X147421600Y-97307400D01*
X147421600Y-97307400D02*
X141122400Y-97307400D01*
X141122400Y-97307400D02*
X141122400Y-103606600D01*
X163220400Y-75539600D02*
X169519600Y-75539600D01*
X169519600Y-75539600D02*
X169519600Y-69240400D01*
X169519600Y-69240400D02*
X163220400Y-69240400D01*
X163220400Y-69240400D02*
X163220400Y-75539600D01*
X171805600Y-95783400D02*
X165506400Y-95783400D01*
X165506400Y-95783400D02*
X165506400Y-102082600D01*
X165506400Y-102082600D02*
X171805600Y-102082600D01*
X171805600Y-102082600D02*
X171805600Y-95783400D01*
X133502400Y-62712600D02*
X139801600Y-62712600D01*
X139801600Y-62712600D02*
X139801600Y-56413400D01*
X139801600Y-56413400D02*
X133502400Y-56413400D01*
X133502400Y-56413400D02*
X133502400Y-62712600D01*
D12*
X149032381Y-55733334D02*
X149032381Y-55257143D01*
X148032381Y-55257143D01*
X149032381Y-56590477D02*
X149032381Y-56019048D01*
X149032381Y-56304762D02*
X148032381Y-56304762D01*
X148175238Y-56209524D01*
X148270476Y-56114286D01*
X148318095Y-56019048D01*
X125991857Y-69263381D02*
X126468048Y-69263381D01*
X126468048Y-68263381D01*
X125706143Y-69215762D02*
X125563286Y-69263381D01*
X125325190Y-69263381D01*
X125229952Y-69215762D01*
X125182333Y-69168143D01*
X125134714Y-69072905D01*
X125134714Y-68977667D01*
X125182333Y-68882429D01*
X125229952Y-68834810D01*
X125325190Y-68787190D01*
X125515667Y-68739571D01*
X125610905Y-68691952D01*
X125658524Y-68644333D01*
X125706143Y-68549095D01*
X125706143Y-68453857D01*
X125658524Y-68358619D01*
X125610905Y-68311000D01*
X125515667Y-68263381D01*
X125277571Y-68263381D01*
X125134714Y-68311000D01*
X124182333Y-69263381D02*
X124753762Y-69263381D01*
X124468048Y-69263381D02*
X124468048Y-68263381D01*
X124563286Y-68406238D01*
X124658524Y-68501476D01*
X124753762Y-68549095D01*
X125452095Y-93439381D02*
X125452095Y-92439381D01*
X125071142Y-92439381D01*
X124975904Y-92487000D01*
X124928285Y-92534619D01*
X124880666Y-92629857D01*
X124880666Y-92772714D01*
X124928285Y-92867952D01*
X124975904Y-92915571D01*
X125071142Y-92963190D01*
X125452095Y-92963190D01*
X123928285Y-93439381D02*
X124499714Y-93439381D01*
X124214000Y-93439381D02*
X124214000Y-92439381D01*
X124309238Y-92582238D01*
X124404476Y-92677476D01*
X124499714Y-92725095D01*
X137771095Y-68547381D02*
X137771095Y-67547381D01*
X137390142Y-67547381D01*
X137294904Y-67595000D01*
X137247285Y-67642619D01*
X137199666Y-67737857D01*
X137199666Y-67880714D01*
X137247285Y-67975952D01*
X137294904Y-68023571D01*
X137390142Y-68071190D01*
X137771095Y-68071190D01*
X136818714Y-67642619D02*
X136771095Y-67595000D01*
X136675857Y-67547381D01*
X136437761Y-67547381D01*
X136342523Y-67595000D01*
X136294904Y-67642619D01*
X136247285Y-67737857D01*
X136247285Y-67833095D01*
X136294904Y-67975952D01*
X136866333Y-68547381D01*
X136247285Y-68547381D01*
X147423095Y-77899381D02*
X147423095Y-76899381D01*
X147042142Y-76899381D01*
X146946904Y-76947000D01*
X146899285Y-76994619D01*
X146851666Y-77089857D01*
X146851666Y-77232714D01*
X146899285Y-77327952D01*
X146946904Y-77375571D01*
X147042142Y-77423190D01*
X147423095Y-77423190D01*
X146518333Y-76899381D02*
X145899285Y-76899381D01*
X146232619Y-77280333D01*
X146089761Y-77280333D01*
X145994523Y-77327952D01*
X145946904Y-77375571D01*
X145899285Y-77470810D01*
X145899285Y-77708905D01*
X145946904Y-77804143D01*
X145994523Y-77851762D01*
X146089761Y-77899381D01*
X146375476Y-77899381D01*
X146470714Y-77851762D01*
X146518333Y-77804143D01*
X129762238Y-79350619D02*
X129857476Y-79303000D01*
X129952714Y-79207762D01*
X130095571Y-79064905D01*
X130190810Y-79017286D01*
X130286048Y-79017286D01*
X130238429Y-79255381D02*
X130333667Y-79207762D01*
X130428905Y-79112524D01*
X130476524Y-78922048D01*
X130476524Y-78588714D01*
X130428905Y-78398238D01*
X130333667Y-78303000D01*
X130238429Y-78255381D01*
X130047952Y-78255381D01*
X129952714Y-78303000D01*
X129857476Y-78398238D01*
X129809857Y-78588714D01*
X129809857Y-78922048D01*
X129857476Y-79112524D01*
X129952714Y-79207762D01*
X130047952Y-79255381D01*
X130238429Y-79255381D01*
X128857476Y-79255381D02*
X129428905Y-79255381D01*
X129143191Y-79255381D02*
X129143191Y-78255381D01*
X129238429Y-78398238D01*
X129333667Y-78493476D01*
X129428905Y-78541095D01*
X129762238Y-70587619D02*
X129857476Y-70540000D01*
X129952714Y-70444762D01*
X130095571Y-70301905D01*
X130190810Y-70254286D01*
X130286048Y-70254286D01*
X130238429Y-70492381D02*
X130333667Y-70444762D01*
X130428905Y-70349524D01*
X130476524Y-70159048D01*
X130476524Y-69825714D01*
X130428905Y-69635238D01*
X130333667Y-69540000D01*
X130238429Y-69492381D01*
X130047952Y-69492381D01*
X129952714Y-69540000D01*
X129857476Y-69635238D01*
X129809857Y-69825714D01*
X129809857Y-70159048D01*
X129857476Y-70349524D01*
X129952714Y-70444762D01*
X130047952Y-70492381D01*
X130238429Y-70492381D01*
X129428905Y-69587619D02*
X129381286Y-69540000D01*
X129286048Y-69492381D01*
X129047952Y-69492381D01*
X128952714Y-69540000D01*
X128905095Y-69587619D01*
X128857476Y-69682857D01*
X128857476Y-69778095D01*
X128905095Y-69920952D01*
X129476524Y-70492381D01*
X128857476Y-70492381D01*
X124851381Y-76033334D02*
X124375190Y-75700000D01*
X124851381Y-75461905D02*
X123851381Y-75461905D01*
X123851381Y-75842858D01*
X123899000Y-75938096D01*
X123946619Y-75985715D01*
X124041857Y-76033334D01*
X124184714Y-76033334D01*
X124279952Y-75985715D01*
X124327571Y-75938096D01*
X124375190Y-75842858D01*
X124375190Y-75461905D01*
X123946619Y-76414286D02*
X123899000Y-76461905D01*
X123851381Y-76557143D01*
X123851381Y-76795239D01*
X123899000Y-76890477D01*
X123946619Y-76938096D01*
X124041857Y-76985715D01*
X124137095Y-76985715D01*
X124279952Y-76938096D01*
X124851381Y-76366667D01*
X124851381Y-76985715D01*
X135406381Y-94615095D02*
X136215905Y-94615095D01*
X136311143Y-94662714D01*
X136358762Y-94710333D01*
X136406381Y-94805571D01*
X136406381Y-94996048D01*
X136358762Y-95091286D01*
X136311143Y-95138905D01*
X136215905Y-95186524D01*
X135406381Y-95186524D01*
X136406381Y-96186524D02*
X136406381Y-95615095D01*
X136406381Y-95900809D02*
X135406381Y-95900809D01*
X135549238Y-95805571D01*
X135644476Y-95710333D01*
X135692095Y-95615095D01*
X169021943Y-76953721D02*
X169021943Y-77763245D01*
X168974324Y-77858483D01*
X168926705Y-77906102D01*
X168831467Y-77953721D01*
X168640990Y-77953721D01*
X168545752Y-77906102D01*
X168498133Y-77858483D01*
X168450514Y-77763245D01*
X168450514Y-76953721D01*
X168069562Y-76953721D02*
X167450514Y-76953721D01*
X167783848Y-77334673D01*
X167640990Y-77334673D01*
X167545752Y-77382292D01*
X167498133Y-77429911D01*
X167450514Y-77525150D01*
X167450514Y-77763245D01*
X167498133Y-77858483D01*
X167545752Y-77906102D01*
X167640990Y-77953721D01*
X167926705Y-77953721D01*
X168021943Y-77906102D01*
X168069562Y-77858483D01*
X155574905Y-77036381D02*
X155574905Y-77845905D01*
X155527286Y-77941143D01*
X155479667Y-77988762D01*
X155384429Y-78036381D01*
X155193952Y-78036381D01*
X155098714Y-77988762D01*
X155051095Y-77941143D01*
X155003476Y-77845905D01*
X155003476Y-77036381D01*
X154098714Y-77369714D02*
X154098714Y-78036381D01*
X154336810Y-76988762D02*
X154574905Y-77703048D01*
X153955857Y-77703048D01*
D15*
X144780000Y-94542429D02*
X144780000Y-95631000D01*
X144852572Y-95848714D01*
X144997715Y-95993857D01*
X145215429Y-96066429D01*
X145360572Y-96066429D01*
X144126857Y-94687571D02*
X144054286Y-94615000D01*
X143909143Y-94542429D01*
X143546286Y-94542429D01*
X143401143Y-94615000D01*
X143328572Y-94687571D01*
X143256000Y-94832714D01*
X143256000Y-94977857D01*
X143328572Y-95195571D01*
X144199429Y-96066429D01*
X143256000Y-96066429D01*
X166878000Y-66475429D02*
X166878000Y-67564000D01*
X166950572Y-67781714D01*
X167095715Y-67926857D01*
X167313429Y-67999429D01*
X167458572Y-67999429D01*
X166297429Y-66475429D02*
X165354000Y-66475429D01*
X165862000Y-67056000D01*
X165644286Y-67056000D01*
X165499143Y-67128571D01*
X165426572Y-67201143D01*
X165354000Y-67346286D01*
X165354000Y-67709143D01*
X165426572Y-67854286D01*
X165499143Y-67926857D01*
X165644286Y-67999429D01*
X166079714Y-67999429D01*
X166224857Y-67926857D01*
X166297429Y-67854286D01*
X169164000Y-103178429D02*
X169164000Y-104267000D01*
X169236572Y-104484714D01*
X169381715Y-104629857D01*
X169599429Y-104702429D01*
X169744572Y-104702429D01*
X167785143Y-103686429D02*
X167785143Y-104702429D01*
X168148000Y-103105857D02*
X168510857Y-104194429D01*
X167567429Y-104194429D01*
X137160000Y-53648429D02*
X137160000Y-54737000D01*
X137232572Y-54954714D01*
X137377715Y-55099857D01*
X137595429Y-55172429D01*
X137740572Y-55172429D01*
X135636000Y-55172429D02*
X136506857Y-55172429D01*
X136071429Y-55172429D02*
X136071429Y-53648429D01*
X136216572Y-53866143D01*
X136361714Y-54011286D01*
X136506857Y-54083857D01*
M02*
