G04 #@! TF.FileFunction,Legend,Top*
%FSLAX46Y46*%
G04 Gerber Fmt 4.6, Leading zero omitted, Abs format (unit mm)*
G04 Created by KiCad (PCBNEW 4.0.6) date Monday, October 02, 2017 'PMt' 03:48:25 PM*
%MOMM*%
%LPD*%
G01*
G04 APERTURE LIST*
%ADD10C,0.100000*%
%ADD11C,0.127000*%
%ADD12C,0.101600*%
%ADD13C,0.150000*%
%ADD14C,0.120000*%
%ADD15C,0.076200*%
G04 APERTURE END LIST*
D10*
D11*
X129122715Y-97844429D02*
X129703286Y-97844429D01*
X129122715Y-103051429D02*
X129703286Y-103051429D01*
X129413000Y-103341714D02*
X129413000Y-102761143D01*
D12*
X165227000Y-110369047D02*
X165202810Y-110417428D01*
X165202810Y-110490000D01*
X165227000Y-110562571D01*
X165275381Y-110610952D01*
X165323762Y-110635143D01*
X165420524Y-110659333D01*
X165493095Y-110659333D01*
X165589857Y-110635143D01*
X165638238Y-110610952D01*
X165686619Y-110562571D01*
X165710810Y-110490000D01*
X165710810Y-110441619D01*
X165686619Y-110369047D01*
X165662429Y-110344857D01*
X165493095Y-110344857D01*
X165493095Y-110441619D01*
X165710810Y-110127143D02*
X165202810Y-110127143D01*
X165710810Y-109836857D01*
X165202810Y-109836857D01*
X165710810Y-109594953D02*
X165202810Y-109594953D01*
X165202810Y-109474000D01*
X165227000Y-109401429D01*
X165275381Y-109353048D01*
X165323762Y-109328857D01*
X165420524Y-109304667D01*
X165493095Y-109304667D01*
X165589857Y-109328857D01*
X165638238Y-109353048D01*
X165686619Y-109401429D01*
X165710810Y-109474000D01*
X165710810Y-109594953D01*
X160933190Y-108935762D02*
X160909000Y-108911572D01*
X160884810Y-108863191D01*
X160884810Y-108742238D01*
X160909000Y-108693857D01*
X160933190Y-108669667D01*
X160981571Y-108645476D01*
X161029952Y-108645476D01*
X161102524Y-108669667D01*
X161392810Y-108959953D01*
X161392810Y-108645476D01*
X160884810Y-108331000D02*
X160884810Y-108282619D01*
X160909000Y-108234238D01*
X160933190Y-108210047D01*
X160981571Y-108185857D01*
X161078333Y-108161666D01*
X161199286Y-108161666D01*
X161296048Y-108185857D01*
X161344429Y-108210047D01*
X161368619Y-108234238D01*
X161392810Y-108282619D01*
X161392810Y-108331000D01*
X161368619Y-108379381D01*
X161344429Y-108403571D01*
X161296048Y-108427762D01*
X161199286Y-108451952D01*
X161078333Y-108451952D01*
X160981571Y-108427762D01*
X160933190Y-108403571D01*
X160909000Y-108379381D01*
X160884810Y-108331000D01*
X160884810Y-108016523D02*
X161392810Y-107847190D01*
X160884810Y-107677856D01*
X161011810Y-106710238D02*
X160503810Y-106710238D01*
X160503810Y-106516714D01*
X160528000Y-106468333D01*
X160552190Y-106444142D01*
X160600571Y-106419952D01*
X160673143Y-106419952D01*
X160721524Y-106444142D01*
X160745714Y-106468333D01*
X160769905Y-106516714D01*
X160769905Y-106710238D01*
X160673143Y-105984523D02*
X161011810Y-105984523D01*
X160673143Y-106202238D02*
X160939238Y-106202238D01*
X160987619Y-106178047D01*
X161011810Y-106129666D01*
X161011810Y-106057095D01*
X160987619Y-106008714D01*
X160963429Y-105984523D01*
X161011810Y-105670047D02*
X160987619Y-105718428D01*
X160939238Y-105742619D01*
X160503810Y-105742619D01*
X160987619Y-105500714D02*
X161011810Y-105452333D01*
X161011810Y-105355571D01*
X160987619Y-105307190D01*
X160939238Y-105283000D01*
X160915048Y-105283000D01*
X160866667Y-105307190D01*
X160842476Y-105355571D01*
X160842476Y-105428143D01*
X160818286Y-105476524D01*
X160769905Y-105500714D01*
X160745714Y-105500714D01*
X160697333Y-105476524D01*
X160673143Y-105428143D01*
X160673143Y-105355571D01*
X160697333Y-105307190D01*
X160987619Y-104871762D02*
X161011810Y-104920143D01*
X161011810Y-105016905D01*
X160987619Y-105065286D01*
X160939238Y-105089476D01*
X160745714Y-105089476D01*
X160697333Y-105065286D01*
X160673143Y-105016905D01*
X160673143Y-104920143D01*
X160697333Y-104871762D01*
X160745714Y-104847571D01*
X160794095Y-104847571D01*
X160842476Y-105089476D01*
X160528000Y-103698523D02*
X160503810Y-103746904D01*
X160503810Y-103819476D01*
X160528000Y-103892047D01*
X160576381Y-103940428D01*
X160624762Y-103964619D01*
X160721524Y-103988809D01*
X160794095Y-103988809D01*
X160890857Y-103964619D01*
X160939238Y-103940428D01*
X160987619Y-103892047D01*
X161011810Y-103819476D01*
X161011810Y-103771095D01*
X160987619Y-103698523D01*
X160963429Y-103674333D01*
X160794095Y-103674333D01*
X160794095Y-103771095D01*
X161011810Y-103238904D02*
X160745714Y-103238904D01*
X160697333Y-103263095D01*
X160673143Y-103311476D01*
X160673143Y-103408238D01*
X160697333Y-103456619D01*
X160987619Y-103238904D02*
X161011810Y-103287285D01*
X161011810Y-103408238D01*
X160987619Y-103456619D01*
X160939238Y-103480809D01*
X160890857Y-103480809D01*
X160842476Y-103456619D01*
X160818286Y-103408238D01*
X160818286Y-103287285D01*
X160794095Y-103238904D01*
X161011810Y-102997000D02*
X160673143Y-102997000D01*
X160503810Y-102997000D02*
X160528000Y-103021190D01*
X160552190Y-102997000D01*
X160528000Y-102972809D01*
X160503810Y-102997000D01*
X160552190Y-102997000D01*
X160673143Y-102755095D02*
X161011810Y-102755095D01*
X160721524Y-102755095D02*
X160697333Y-102730904D01*
X160673143Y-102682523D01*
X160673143Y-102609952D01*
X160697333Y-102561571D01*
X160745714Y-102537380D01*
X161011810Y-102537380D01*
D11*
X160364714Y-100856142D02*
X160364714Y-101218999D01*
X160727571Y-101255285D01*
X160691286Y-101218999D01*
X160655000Y-101146428D01*
X160655000Y-100964999D01*
X160691286Y-100892428D01*
X160727571Y-100856142D01*
X160800143Y-100819857D01*
X160981571Y-100819857D01*
X161054143Y-100856142D01*
X161090429Y-100892428D01*
X161126714Y-100964999D01*
X161126714Y-101146428D01*
X161090429Y-101218999D01*
X161054143Y-101255285D01*
X160364714Y-100602143D02*
X161126714Y-100348143D01*
X160364714Y-100094143D01*
X161652857Y-88355714D02*
X161906857Y-89117714D01*
X162160857Y-88355714D01*
X162233429Y-89190286D02*
X162814000Y-89190286D01*
X162995429Y-88718571D02*
X163249429Y-88718571D01*
X163358286Y-89117714D02*
X162995429Y-89117714D01*
X162995429Y-88355714D01*
X163358286Y-88355714D01*
X163684858Y-89117714D02*
X163684858Y-88355714D01*
X164120286Y-89117714D01*
X164120286Y-88355714D01*
X164374286Y-88355714D02*
X164628286Y-89117714D01*
X164882286Y-88355714D01*
X165499144Y-89117714D02*
X165136287Y-89117714D01*
X165136287Y-88355714D01*
X165753144Y-89117714D02*
X165753144Y-88355714D01*
X166043429Y-88355714D01*
X166116001Y-88392000D01*
X166152286Y-88428286D01*
X166188572Y-88500857D01*
X166188572Y-88609714D01*
X166152286Y-88682286D01*
X166116001Y-88718571D01*
X166043429Y-88754857D01*
X165753144Y-88754857D01*
D13*
X154059000Y-99655000D02*
X155059000Y-99655000D01*
X155059000Y-101005000D02*
X154059000Y-101005000D01*
D14*
X145828000Y-108386000D02*
X149828000Y-108386000D01*
X144138000Y-99436000D02*
X149828000Y-99436000D01*
D13*
X134528000Y-91835000D02*
X135728000Y-91835000D01*
X135728000Y-93585000D02*
X134528000Y-93585000D01*
X139671500Y-94266500D02*
X139671500Y-93566500D01*
X140871500Y-93566500D02*
X140871500Y-94266500D01*
X129164080Y-92148660D02*
X129413000Y-91848940D01*
X129413000Y-91848940D02*
X129514600Y-91699080D01*
X129514600Y-91699080D02*
X129514600Y-92547440D01*
X128813560Y-90647520D02*
X128813560Y-92448380D01*
X128813560Y-90647520D02*
X129463800Y-90647520D01*
X133314440Y-90647520D02*
X133314440Y-92448380D01*
X133314440Y-90647520D02*
X132664200Y-90647520D01*
X134799500Y-95513500D02*
X136599500Y-95513500D01*
X136599500Y-95513500D02*
X136599500Y-95113500D01*
X136599500Y-95113500D02*
X134799500Y-95113500D01*
X134799500Y-95113500D02*
X134799500Y-95513500D01*
X141967000Y-102454000D02*
X141267000Y-102454000D01*
X141267000Y-101254000D02*
X141967000Y-101254000D01*
X156626000Y-101696000D02*
X156626000Y-100996000D01*
X157826000Y-100996000D02*
X157826000Y-101696000D01*
X141570000Y-104298000D02*
X141570000Y-104998000D01*
X140370000Y-104998000D02*
X140370000Y-104298000D01*
X143221000Y-104298000D02*
X143221000Y-104998000D01*
X142021000Y-104998000D02*
X142021000Y-104298000D01*
X156626000Y-104744000D02*
X156626000Y-104044000D01*
X157826000Y-104044000D02*
X157826000Y-104744000D01*
X153762000Y-107092000D02*
X153762000Y-107792000D01*
X152562000Y-107792000D02*
X152562000Y-107092000D01*
X152238000Y-109505000D02*
X152238000Y-110205000D01*
X151038000Y-110205000D02*
X151038000Y-109505000D01*
X147158000Y-109886000D02*
X147158000Y-110586000D01*
X145958000Y-110586000D02*
X145958000Y-109886000D01*
X150460000Y-109505000D02*
X150460000Y-110205000D01*
X149260000Y-110205000D02*
X149260000Y-109505000D01*
X149768000Y-97124000D02*
X149768000Y-96424000D01*
X150968000Y-96424000D02*
X150968000Y-97124000D01*
X149768000Y-94203000D02*
X149768000Y-93503000D01*
X150968000Y-93503000D02*
X150968000Y-94203000D01*
X160560500Y-94389500D02*
X159860500Y-94389500D01*
X159860500Y-93189500D02*
X160560500Y-93189500D01*
X153701000Y-91221000D02*
X154401000Y-91221000D01*
X154401000Y-92421000D02*
X153701000Y-92421000D01*
X141955000Y-98771000D02*
X141255000Y-98771000D01*
X141255000Y-97571000D02*
X141955000Y-97571000D01*
X141128000Y-95920000D02*
X141828000Y-95920000D01*
X141828000Y-97120000D02*
X141128000Y-97120000D01*
X147797000Y-98898000D02*
X147097000Y-98898000D01*
X147097000Y-97698000D02*
X147797000Y-97698000D01*
X144049000Y-97571000D02*
X144749000Y-97571000D01*
X144749000Y-98771000D02*
X144049000Y-98771000D01*
X137882000Y-97909000D02*
X137882000Y-96909000D01*
X139232000Y-96909000D02*
X139232000Y-97909000D01*
X142117000Y-100624000D02*
X141117000Y-100624000D01*
X141117000Y-99274000D02*
X142117000Y-99274000D01*
X155059000Y-99227000D02*
X154059000Y-99227000D01*
X154059000Y-97877000D02*
X155059000Y-97877000D01*
X155186000Y-104561000D02*
X154186000Y-104561000D01*
X154186000Y-103211000D02*
X155186000Y-103211000D01*
X154138000Y-107180000D02*
X154138000Y-106180000D01*
X155488000Y-106180000D02*
X155488000Y-107180000D01*
X158329000Y-101719000D02*
X158329000Y-100719000D01*
X159679000Y-100719000D02*
X159679000Y-101719000D01*
X154059000Y-101433000D02*
X155059000Y-101433000D01*
X155059000Y-102783000D02*
X154059000Y-102783000D01*
X158329000Y-104767000D02*
X158329000Y-103767000D01*
X159679000Y-103767000D02*
X159679000Y-104767000D01*
X158842000Y-98284000D02*
X157642000Y-98284000D01*
X157642000Y-96534000D02*
X158842000Y-96534000D01*
X137755000Y-101084000D02*
X137755000Y-100084000D01*
X139105000Y-100084000D02*
X139105000Y-101084000D01*
D14*
X154804000Y-93055000D02*
X153044000Y-93055000D01*
X153044000Y-96125000D02*
X155474000Y-96125000D01*
D13*
X160655000Y-111125000D02*
X160655000Y-107315000D01*
X156845000Y-107315000D02*
X160655000Y-107315000D01*
X156845000Y-111125000D02*
X156845000Y-107315000D01*
X160655000Y-111125000D02*
X156845000Y-111125000D01*
D14*
X138856000Y-93353000D02*
X138856000Y-94353000D01*
X137496000Y-94353000D02*
X137496000Y-93353000D01*
X134651000Y-106905500D02*
X135351000Y-106905500D01*
X135351000Y-108105500D02*
X134651000Y-108105500D01*
X143694500Y-111814500D02*
X143694500Y-107514500D01*
X143694500Y-107514500D02*
X137994500Y-107514500D01*
X143694500Y-111814500D02*
X137994500Y-111814500D01*
X133168500Y-104451500D02*
X137468500Y-104451500D01*
X137468500Y-104451500D02*
X137468500Y-98751500D01*
X133168500Y-104451500D02*
X133168500Y-98751500D01*
X132136000Y-105094500D02*
X131206000Y-105094500D01*
X128976000Y-105094500D02*
X129906000Y-105094500D01*
X128976000Y-105094500D02*
X128976000Y-107254500D01*
X132136000Y-105094500D02*
X132136000Y-106554500D01*
X134538000Y-110053500D02*
X134538000Y-111053500D01*
X133178000Y-111053500D02*
X133178000Y-110053500D01*
D13*
X164178500Y-111350500D02*
X164878500Y-111350500D01*
X164878500Y-112550500D02*
X164178500Y-112550500D01*
X160499500Y-97822500D02*
X160499500Y-97122500D01*
X161699500Y-97122500D02*
X161699500Y-97822500D01*
X134845500Y-111030500D02*
X134845500Y-110330500D01*
X136045500Y-110330500D02*
X136045500Y-111030500D01*
D14*
X128704500Y-102990000D02*
X128704500Y-100330000D01*
X128704500Y-100330000D02*
X125964500Y-100330000D01*
X125964500Y-100330000D02*
X125964500Y-102990000D01*
X125964500Y-102990000D02*
X128704500Y-102990000D01*
X125964500Y-102040000D02*
X125964500Y-101160000D01*
X125964500Y-101160000D02*
X119964500Y-101160000D01*
X119964500Y-101160000D02*
X119964500Y-102040000D01*
X119964500Y-102040000D02*
X125964500Y-102040000D01*
X129014500Y-102040000D02*
X128704500Y-102040000D01*
X129014500Y-101160000D02*
X128704500Y-101160000D01*
X125964500Y-101920000D02*
X119964500Y-101920000D01*
X125964500Y-101800000D02*
X119964500Y-101800000D01*
X125964500Y-101680000D02*
X119964500Y-101680000D01*
X125964500Y-101560000D02*
X119964500Y-101560000D01*
X125964500Y-101440000D02*
X119964500Y-101440000D01*
X125964500Y-101320000D02*
X119964500Y-101320000D01*
X125964500Y-101200000D02*
X119964500Y-101200000D01*
X128704500Y-100330000D02*
X128704500Y-97670000D01*
X128704500Y-97670000D02*
X125964500Y-97670000D01*
X125964500Y-97670000D02*
X125964500Y-100330000D01*
X125964500Y-100330000D02*
X128704500Y-100330000D01*
X125964500Y-99500000D02*
X125964500Y-98620000D01*
X125964500Y-98620000D02*
X119964500Y-98620000D01*
X119964500Y-98620000D02*
X119964500Y-99500000D01*
X119964500Y-99500000D02*
X125964500Y-99500000D01*
X129014500Y-99500000D02*
X128704500Y-99500000D01*
X129014500Y-98620000D02*
X128704500Y-98620000D01*
X131254500Y-101600000D02*
X131254500Y-102870000D01*
X131254500Y-102870000D02*
X129984500Y-102870000D01*
D13*
X133009000Y-100338000D02*
X133009000Y-101338000D01*
X131659000Y-101338000D02*
X131659000Y-100338000D01*
D12*
X152569333Y-100686810D02*
X152400000Y-100444905D01*
X152279047Y-100686810D02*
X152279047Y-100178810D01*
X152472571Y-100178810D01*
X152520952Y-100203000D01*
X152545143Y-100227190D01*
X152569333Y-100275571D01*
X152569333Y-100348143D01*
X152545143Y-100396524D01*
X152520952Y-100420714D01*
X152472571Y-100444905D01*
X152279047Y-100444905D01*
X152859619Y-100396524D02*
X152811238Y-100372333D01*
X152787047Y-100348143D01*
X152762857Y-100299762D01*
X152762857Y-100275571D01*
X152787047Y-100227190D01*
X152811238Y-100203000D01*
X152859619Y-100178810D01*
X152956381Y-100178810D01*
X153004762Y-100203000D01*
X153028952Y-100227190D01*
X153053143Y-100275571D01*
X153053143Y-100299762D01*
X153028952Y-100348143D01*
X153004762Y-100372333D01*
X152956381Y-100396524D01*
X152859619Y-100396524D01*
X152811238Y-100420714D01*
X152787047Y-100444905D01*
X152762857Y-100493286D01*
X152762857Y-100590048D01*
X152787047Y-100638429D01*
X152811238Y-100662619D01*
X152859619Y-100686810D01*
X152956381Y-100686810D01*
X153004762Y-100662619D01*
X153028952Y-100638429D01*
X153053143Y-100590048D01*
X153053143Y-100493286D01*
X153028952Y-100444905D01*
X153004762Y-100420714D01*
X152956381Y-100396524D01*
X144900952Y-99797810D02*
X144900952Y-100209048D01*
X144925143Y-100257429D01*
X144949333Y-100281619D01*
X144997714Y-100305810D01*
X145094476Y-100305810D01*
X145142857Y-100281619D01*
X145167048Y-100257429D01*
X145191238Y-100209048D01*
X145191238Y-99797810D01*
X145675047Y-99797810D02*
X145433142Y-99797810D01*
X145408952Y-100039714D01*
X145433142Y-100015524D01*
X145481523Y-99991333D01*
X145602476Y-99991333D01*
X145650857Y-100015524D01*
X145675047Y-100039714D01*
X145699238Y-100088095D01*
X145699238Y-100209048D01*
X145675047Y-100257429D01*
X145650857Y-100281619D01*
X145602476Y-100305810D01*
X145481523Y-100305810D01*
X145433142Y-100281619D01*
X145408952Y-100257429D01*
X135043333Y-91415810D02*
X134874000Y-91173905D01*
X134753047Y-91415810D02*
X134753047Y-90907810D01*
X134946571Y-90907810D01*
X134994952Y-90932000D01*
X135019143Y-90956190D01*
X135043333Y-91004571D01*
X135043333Y-91077143D01*
X135019143Y-91125524D01*
X134994952Y-91149714D01*
X134946571Y-91173905D01*
X134753047Y-91173905D01*
X135527143Y-91415810D02*
X135236857Y-91415810D01*
X135382000Y-91415810D02*
X135382000Y-90907810D01*
X135333619Y-90980381D01*
X135285238Y-91028762D01*
X135236857Y-91052952D01*
X140631333Y-92383429D02*
X140607143Y-92407619D01*
X140534571Y-92431810D01*
X140486190Y-92431810D01*
X140413619Y-92407619D01*
X140365238Y-92359238D01*
X140341047Y-92310857D01*
X140316857Y-92214095D01*
X140316857Y-92141524D01*
X140341047Y-92044762D01*
X140365238Y-91996381D01*
X140413619Y-91948000D01*
X140486190Y-91923810D01*
X140534571Y-91923810D01*
X140607143Y-91948000D01*
X140631333Y-91972190D01*
X141090952Y-91923810D02*
X140849047Y-91923810D01*
X140824857Y-92165714D01*
X140849047Y-92141524D01*
X140897428Y-92117333D01*
X141018381Y-92117333D01*
X141066762Y-92141524D01*
X141090952Y-92165714D01*
X141115143Y-92214095D01*
X141115143Y-92335048D01*
X141090952Y-92383429D01*
X141066762Y-92407619D01*
X141018381Y-92431810D01*
X140897428Y-92431810D01*
X140849047Y-92407619D01*
X140824857Y-92383429D01*
X132454952Y-89637810D02*
X132454952Y-90049048D01*
X132479143Y-90097429D01*
X132503333Y-90121619D01*
X132551714Y-90145810D01*
X132648476Y-90145810D01*
X132696857Y-90121619D01*
X132721048Y-90097429D01*
X132745238Y-90049048D01*
X132745238Y-89637810D01*
X132962952Y-89686190D02*
X132987142Y-89662000D01*
X133035523Y-89637810D01*
X133156476Y-89637810D01*
X133204857Y-89662000D01*
X133229047Y-89686190D01*
X133253238Y-89734571D01*
X133253238Y-89782952D01*
X133229047Y-89855524D01*
X132938761Y-90145810D01*
X133253238Y-90145810D01*
X133737047Y-95225810D02*
X133737047Y-94717810D01*
X133858000Y-94717810D01*
X133930571Y-94742000D01*
X133978952Y-94790381D01*
X134003143Y-94838762D01*
X134027333Y-94935524D01*
X134027333Y-95008095D01*
X134003143Y-95104857D01*
X133978952Y-95153238D01*
X133930571Y-95201619D01*
X133858000Y-95225810D01*
X133737047Y-95225810D01*
X134511143Y-95225810D02*
X134220857Y-95225810D01*
X134366000Y-95225810D02*
X134366000Y-94717810D01*
X134317619Y-94790381D01*
X134269238Y-94838762D01*
X134220857Y-94862952D01*
X141405428Y-103178429D02*
X141381238Y-103202619D01*
X141308666Y-103226810D01*
X141260285Y-103226810D01*
X141187714Y-103202619D01*
X141139333Y-103154238D01*
X141115142Y-103105857D01*
X141090952Y-103009095D01*
X141090952Y-102936524D01*
X141115142Y-102839762D01*
X141139333Y-102791381D01*
X141187714Y-102743000D01*
X141260285Y-102718810D01*
X141308666Y-102718810D01*
X141381238Y-102743000D01*
X141405428Y-102767190D01*
X141889238Y-103226810D02*
X141598952Y-103226810D01*
X141744095Y-103226810D02*
X141744095Y-102718810D01*
X141695714Y-102791381D01*
X141647333Y-102839762D01*
X141598952Y-102863952D01*
X142373048Y-103226810D02*
X142082762Y-103226810D01*
X142227905Y-103226810D02*
X142227905Y-102718810D01*
X142179524Y-102791381D01*
X142131143Y-102839762D01*
X142082762Y-102863952D01*
X155502428Y-101400429D02*
X155478238Y-101424619D01*
X155405666Y-101448810D01*
X155357285Y-101448810D01*
X155284714Y-101424619D01*
X155236333Y-101376238D01*
X155212142Y-101327857D01*
X155187952Y-101231095D01*
X155187952Y-101158524D01*
X155212142Y-101061762D01*
X155236333Y-101013381D01*
X155284714Y-100965000D01*
X155357285Y-100940810D01*
X155405666Y-100940810D01*
X155478238Y-100965000D01*
X155502428Y-100989190D01*
X155986238Y-101448810D02*
X155695952Y-101448810D01*
X155841095Y-101448810D02*
X155841095Y-100940810D01*
X155792714Y-101013381D01*
X155744333Y-101061762D01*
X155695952Y-101085952D01*
X156179762Y-100989190D02*
X156203952Y-100965000D01*
X156252333Y-100940810D01*
X156373286Y-100940810D01*
X156421667Y-100965000D01*
X156445857Y-100989190D01*
X156470048Y-101037571D01*
X156470048Y-101085952D01*
X156445857Y-101158524D01*
X156155571Y-101448810D01*
X156470048Y-101448810D01*
X139119428Y-104829429D02*
X139095238Y-104853619D01*
X139022666Y-104877810D01*
X138974285Y-104877810D01*
X138901714Y-104853619D01*
X138853333Y-104805238D01*
X138829142Y-104756857D01*
X138804952Y-104660095D01*
X138804952Y-104587524D01*
X138829142Y-104490762D01*
X138853333Y-104442381D01*
X138901714Y-104394000D01*
X138974285Y-104369810D01*
X139022666Y-104369810D01*
X139095238Y-104394000D01*
X139119428Y-104418190D01*
X139603238Y-104877810D02*
X139312952Y-104877810D01*
X139458095Y-104877810D02*
X139458095Y-104369810D01*
X139409714Y-104442381D01*
X139361333Y-104490762D01*
X139312952Y-104514952D01*
X139772571Y-104369810D02*
X140087048Y-104369810D01*
X139917714Y-104563333D01*
X139990286Y-104563333D01*
X140038667Y-104587524D01*
X140062857Y-104611714D01*
X140087048Y-104660095D01*
X140087048Y-104781048D01*
X140062857Y-104829429D01*
X140038667Y-104853619D01*
X139990286Y-104877810D01*
X139845143Y-104877810D01*
X139796762Y-104853619D01*
X139772571Y-104829429D01*
X142167428Y-106861429D02*
X142143238Y-106885619D01*
X142070666Y-106909810D01*
X142022285Y-106909810D01*
X141949714Y-106885619D01*
X141901333Y-106837238D01*
X141877142Y-106788857D01*
X141852952Y-106692095D01*
X141852952Y-106619524D01*
X141877142Y-106522762D01*
X141901333Y-106474381D01*
X141949714Y-106426000D01*
X142022285Y-106401810D01*
X142070666Y-106401810D01*
X142143238Y-106426000D01*
X142167428Y-106450190D01*
X142651238Y-106909810D02*
X142360952Y-106909810D01*
X142506095Y-106909810D02*
X142506095Y-106401810D01*
X142457714Y-106474381D01*
X142409333Y-106522762D01*
X142360952Y-106546952D01*
X143086667Y-106571143D02*
X143086667Y-106909810D01*
X142965714Y-106377619D02*
X142844762Y-106740476D01*
X143159238Y-106740476D01*
X155502428Y-105337429D02*
X155478238Y-105361619D01*
X155405666Y-105385810D01*
X155357285Y-105385810D01*
X155284714Y-105361619D01*
X155236333Y-105313238D01*
X155212142Y-105264857D01*
X155187952Y-105168095D01*
X155187952Y-105095524D01*
X155212142Y-104998762D01*
X155236333Y-104950381D01*
X155284714Y-104902000D01*
X155357285Y-104877810D01*
X155405666Y-104877810D01*
X155478238Y-104902000D01*
X155502428Y-104926190D01*
X155986238Y-105385810D02*
X155695952Y-105385810D01*
X155841095Y-105385810D02*
X155841095Y-104877810D01*
X155792714Y-104950381D01*
X155744333Y-104998762D01*
X155695952Y-105022952D01*
X156445857Y-104877810D02*
X156203952Y-104877810D01*
X156179762Y-105119714D01*
X156203952Y-105095524D01*
X156252333Y-105071333D01*
X156373286Y-105071333D01*
X156421667Y-105095524D01*
X156445857Y-105119714D01*
X156470048Y-105168095D01*
X156470048Y-105289048D01*
X156445857Y-105337429D01*
X156421667Y-105361619D01*
X156373286Y-105385810D01*
X156252333Y-105385810D01*
X156203952Y-105361619D01*
X156179762Y-105337429D01*
X152835428Y-109401429D02*
X152811238Y-109425619D01*
X152738666Y-109449810D01*
X152690285Y-109449810D01*
X152617714Y-109425619D01*
X152569333Y-109377238D01*
X152545142Y-109328857D01*
X152520952Y-109232095D01*
X152520952Y-109159524D01*
X152545142Y-109062762D01*
X152569333Y-109014381D01*
X152617714Y-108966000D01*
X152690285Y-108941810D01*
X152738666Y-108941810D01*
X152811238Y-108966000D01*
X152835428Y-108990190D01*
X153319238Y-109449810D02*
X153028952Y-109449810D01*
X153174095Y-109449810D02*
X153174095Y-108941810D01*
X153125714Y-109014381D01*
X153077333Y-109062762D01*
X153028952Y-109086952D01*
X153754667Y-108941810D02*
X153657905Y-108941810D01*
X153609524Y-108966000D01*
X153585333Y-108990190D01*
X153536952Y-109062762D01*
X153512762Y-109159524D01*
X153512762Y-109353048D01*
X153536952Y-109401429D01*
X153561143Y-109425619D01*
X153609524Y-109449810D01*
X153706286Y-109449810D01*
X153754667Y-109425619D01*
X153778857Y-109401429D01*
X153803048Y-109353048D01*
X153803048Y-109232095D01*
X153778857Y-109183714D01*
X153754667Y-109159524D01*
X153706286Y-109135333D01*
X153609524Y-109135333D01*
X153561143Y-109159524D01*
X153536952Y-109183714D01*
X153512762Y-109232095D01*
X151311428Y-111814429D02*
X151287238Y-111838619D01*
X151214666Y-111862810D01*
X151166285Y-111862810D01*
X151093714Y-111838619D01*
X151045333Y-111790238D01*
X151021142Y-111741857D01*
X150996952Y-111645095D01*
X150996952Y-111572524D01*
X151021142Y-111475762D01*
X151045333Y-111427381D01*
X151093714Y-111379000D01*
X151166285Y-111354810D01*
X151214666Y-111354810D01*
X151287238Y-111379000D01*
X151311428Y-111403190D01*
X151795238Y-111862810D02*
X151504952Y-111862810D01*
X151650095Y-111862810D02*
X151650095Y-111354810D01*
X151601714Y-111427381D01*
X151553333Y-111475762D01*
X151504952Y-111499952D01*
X151964571Y-111354810D02*
X152303238Y-111354810D01*
X152085524Y-111862810D01*
X146104428Y-112068429D02*
X146080238Y-112092619D01*
X146007666Y-112116810D01*
X145959285Y-112116810D01*
X145886714Y-112092619D01*
X145838333Y-112044238D01*
X145814142Y-111995857D01*
X145789952Y-111899095D01*
X145789952Y-111826524D01*
X145814142Y-111729762D01*
X145838333Y-111681381D01*
X145886714Y-111633000D01*
X145959285Y-111608810D01*
X146007666Y-111608810D01*
X146080238Y-111633000D01*
X146104428Y-111657190D01*
X146588238Y-112116810D02*
X146297952Y-112116810D01*
X146443095Y-112116810D02*
X146443095Y-111608810D01*
X146394714Y-111681381D01*
X146346333Y-111729762D01*
X146297952Y-111753952D01*
X146878524Y-111826524D02*
X146830143Y-111802333D01*
X146805952Y-111778143D01*
X146781762Y-111729762D01*
X146781762Y-111705571D01*
X146805952Y-111657190D01*
X146830143Y-111633000D01*
X146878524Y-111608810D01*
X146975286Y-111608810D01*
X147023667Y-111633000D01*
X147047857Y-111657190D01*
X147072048Y-111705571D01*
X147072048Y-111729762D01*
X147047857Y-111778143D01*
X147023667Y-111802333D01*
X146975286Y-111826524D01*
X146878524Y-111826524D01*
X146830143Y-111850714D01*
X146805952Y-111874905D01*
X146781762Y-111923286D01*
X146781762Y-112020048D01*
X146805952Y-112068429D01*
X146830143Y-112092619D01*
X146878524Y-112116810D01*
X146975286Y-112116810D01*
X147023667Y-112092619D01*
X147047857Y-112068429D01*
X147072048Y-112020048D01*
X147072048Y-111923286D01*
X147047857Y-111874905D01*
X147023667Y-111850714D01*
X146975286Y-111826524D01*
X149533428Y-111814429D02*
X149509238Y-111838619D01*
X149436666Y-111862810D01*
X149388285Y-111862810D01*
X149315714Y-111838619D01*
X149267333Y-111790238D01*
X149243142Y-111741857D01*
X149218952Y-111645095D01*
X149218952Y-111572524D01*
X149243142Y-111475762D01*
X149267333Y-111427381D01*
X149315714Y-111379000D01*
X149388285Y-111354810D01*
X149436666Y-111354810D01*
X149509238Y-111379000D01*
X149533428Y-111403190D01*
X150017238Y-111862810D02*
X149726952Y-111862810D01*
X149872095Y-111862810D02*
X149872095Y-111354810D01*
X149823714Y-111427381D01*
X149775333Y-111475762D01*
X149726952Y-111499952D01*
X150259143Y-111862810D02*
X150355905Y-111862810D01*
X150404286Y-111838619D01*
X150428476Y-111814429D01*
X150476857Y-111741857D01*
X150501048Y-111645095D01*
X150501048Y-111451571D01*
X150476857Y-111403190D01*
X150452667Y-111379000D01*
X150404286Y-111354810D01*
X150307524Y-111354810D01*
X150259143Y-111379000D01*
X150234952Y-111403190D01*
X150210762Y-111451571D01*
X150210762Y-111572524D01*
X150234952Y-111620905D01*
X150259143Y-111645095D01*
X150307524Y-111669286D01*
X150404286Y-111669286D01*
X150452667Y-111645095D01*
X150476857Y-111620905D01*
X150501048Y-111572524D01*
X148517428Y-96447429D02*
X148493238Y-96471619D01*
X148420666Y-96495810D01*
X148372285Y-96495810D01*
X148299714Y-96471619D01*
X148251333Y-96423238D01*
X148227142Y-96374857D01*
X148202952Y-96278095D01*
X148202952Y-96205524D01*
X148227142Y-96108762D01*
X148251333Y-96060381D01*
X148299714Y-96012000D01*
X148372285Y-95987810D01*
X148420666Y-95987810D01*
X148493238Y-96012000D01*
X148517428Y-96036190D01*
X148710952Y-96036190D02*
X148735142Y-96012000D01*
X148783523Y-95987810D01*
X148904476Y-95987810D01*
X148952857Y-96012000D01*
X148977047Y-96036190D01*
X149001238Y-96084571D01*
X149001238Y-96132952D01*
X148977047Y-96205524D01*
X148686761Y-96495810D01*
X149001238Y-96495810D01*
X149315714Y-95987810D02*
X149364095Y-95987810D01*
X149412476Y-96012000D01*
X149436667Y-96036190D01*
X149460857Y-96084571D01*
X149485048Y-96181333D01*
X149485048Y-96302286D01*
X149460857Y-96399048D01*
X149436667Y-96447429D01*
X149412476Y-96471619D01*
X149364095Y-96495810D01*
X149315714Y-96495810D01*
X149267333Y-96471619D01*
X149243143Y-96447429D01*
X149218952Y-96399048D01*
X149194762Y-96302286D01*
X149194762Y-96181333D01*
X149218952Y-96084571D01*
X149243143Y-96036190D01*
X149267333Y-96012000D01*
X149315714Y-95987810D01*
X148517428Y-93907429D02*
X148493238Y-93931619D01*
X148420666Y-93955810D01*
X148372285Y-93955810D01*
X148299714Y-93931619D01*
X148251333Y-93883238D01*
X148227142Y-93834857D01*
X148202952Y-93738095D01*
X148202952Y-93665524D01*
X148227142Y-93568762D01*
X148251333Y-93520381D01*
X148299714Y-93472000D01*
X148372285Y-93447810D01*
X148420666Y-93447810D01*
X148493238Y-93472000D01*
X148517428Y-93496190D01*
X148710952Y-93496190D02*
X148735142Y-93472000D01*
X148783523Y-93447810D01*
X148904476Y-93447810D01*
X148952857Y-93472000D01*
X148977047Y-93496190D01*
X149001238Y-93544571D01*
X149001238Y-93592952D01*
X148977047Y-93665524D01*
X148686761Y-93955810D01*
X149001238Y-93955810D01*
X149485048Y-93955810D02*
X149194762Y-93955810D01*
X149339905Y-93955810D02*
X149339905Y-93447810D01*
X149291524Y-93520381D01*
X149243143Y-93568762D01*
X149194762Y-93592952D01*
X159883928Y-92446929D02*
X159859738Y-92471119D01*
X159787166Y-92495310D01*
X159738785Y-92495310D01*
X159666214Y-92471119D01*
X159617833Y-92422738D01*
X159593642Y-92374357D01*
X159569452Y-92277595D01*
X159569452Y-92205024D01*
X159593642Y-92108262D01*
X159617833Y-92059881D01*
X159666214Y-92011500D01*
X159738785Y-91987310D01*
X159787166Y-91987310D01*
X159859738Y-92011500D01*
X159883928Y-92035690D01*
X160077452Y-92035690D02*
X160101642Y-92011500D01*
X160150023Y-91987310D01*
X160270976Y-91987310D01*
X160319357Y-92011500D01*
X160343547Y-92035690D01*
X160367738Y-92084071D01*
X160367738Y-92132452D01*
X160343547Y-92205024D01*
X160053261Y-92495310D01*
X160367738Y-92495310D01*
X160561262Y-92035690D02*
X160585452Y-92011500D01*
X160633833Y-91987310D01*
X160754786Y-91987310D01*
X160803167Y-92011500D01*
X160827357Y-92035690D01*
X160851548Y-92084071D01*
X160851548Y-92132452D01*
X160827357Y-92205024D01*
X160537071Y-92495310D01*
X160851548Y-92495310D01*
X153851428Y-90605429D02*
X153827238Y-90629619D01*
X153754666Y-90653810D01*
X153706285Y-90653810D01*
X153633714Y-90629619D01*
X153585333Y-90581238D01*
X153561142Y-90532857D01*
X153536952Y-90436095D01*
X153536952Y-90363524D01*
X153561142Y-90266762D01*
X153585333Y-90218381D01*
X153633714Y-90170000D01*
X153706285Y-90145810D01*
X153754666Y-90145810D01*
X153827238Y-90170000D01*
X153851428Y-90194190D01*
X154044952Y-90194190D02*
X154069142Y-90170000D01*
X154117523Y-90145810D01*
X154238476Y-90145810D01*
X154286857Y-90170000D01*
X154311047Y-90194190D01*
X154335238Y-90242571D01*
X154335238Y-90290952D01*
X154311047Y-90363524D01*
X154020761Y-90653810D01*
X154335238Y-90653810D01*
X154504571Y-90145810D02*
X154819048Y-90145810D01*
X154649714Y-90339333D01*
X154722286Y-90339333D01*
X154770667Y-90363524D01*
X154794857Y-90387714D01*
X154819048Y-90436095D01*
X154819048Y-90557048D01*
X154794857Y-90605429D01*
X154770667Y-90629619D01*
X154722286Y-90653810D01*
X154577143Y-90653810D01*
X154528762Y-90629619D01*
X154504571Y-90605429D01*
D15*
X139917715Y-97545071D02*
X139899572Y-97563214D01*
X139845143Y-97581357D01*
X139808857Y-97581357D01*
X139754429Y-97563214D01*
X139718143Y-97526929D01*
X139700000Y-97490643D01*
X139681857Y-97418071D01*
X139681857Y-97363643D01*
X139700000Y-97291071D01*
X139718143Y-97254786D01*
X139754429Y-97218500D01*
X139808857Y-97200357D01*
X139845143Y-97200357D01*
X139899572Y-97218500D01*
X139917715Y-97236643D01*
X140208000Y-97381786D02*
X140081000Y-97381786D01*
X140081000Y-97581357D02*
X140081000Y-97200357D01*
X140262429Y-97200357D01*
X140534571Y-97381786D02*
X140589000Y-97399929D01*
X140607143Y-97418071D01*
X140625286Y-97454357D01*
X140625286Y-97508786D01*
X140607143Y-97545071D01*
X140589000Y-97563214D01*
X140552714Y-97581357D01*
X140407571Y-97581357D01*
X140407571Y-97200357D01*
X140534571Y-97200357D01*
X140570857Y-97218500D01*
X140589000Y-97236643D01*
X140607143Y-97272929D01*
X140607143Y-97309214D01*
X140589000Y-97345500D01*
X140570857Y-97363643D01*
X140534571Y-97381786D01*
X140407571Y-97381786D01*
X140988143Y-97581357D02*
X140770428Y-97581357D01*
X140879286Y-97581357D02*
X140879286Y-97200357D01*
X140843000Y-97254786D01*
X140806714Y-97291071D01*
X140770428Y-97309214D01*
D12*
X140994191Y-95558429D02*
X140970001Y-95582619D01*
X140897429Y-95606810D01*
X140849048Y-95606810D01*
X140776477Y-95582619D01*
X140728096Y-95534238D01*
X140703905Y-95485857D01*
X140679715Y-95389095D01*
X140679715Y-95316524D01*
X140703905Y-95219762D01*
X140728096Y-95171381D01*
X140776477Y-95123000D01*
X140849048Y-95098810D01*
X140897429Y-95098810D01*
X140970001Y-95123000D01*
X140994191Y-95147190D01*
X141211905Y-95606810D02*
X141211905Y-95098810D01*
X141453810Y-95606810D02*
X141453810Y-95098810D01*
X141744096Y-95606810D01*
X141744096Y-95098810D01*
X141986000Y-95606810D02*
X141986000Y-95098810D01*
X141986000Y-95340714D02*
X142276286Y-95340714D01*
X142276286Y-95606810D02*
X142276286Y-95098810D01*
X142784286Y-95606810D02*
X142494000Y-95606810D01*
X142639143Y-95606810D02*
X142639143Y-95098810D01*
X142590762Y-95171381D01*
X142542381Y-95219762D01*
X142494000Y-95243952D01*
X146485429Y-97209429D02*
X146461239Y-97233619D01*
X146388667Y-97257810D01*
X146340286Y-97257810D01*
X146267715Y-97233619D01*
X146219334Y-97185238D01*
X146195143Y-97136857D01*
X146170953Y-97040095D01*
X146170953Y-96967524D01*
X146195143Y-96870762D01*
X146219334Y-96822381D01*
X146267715Y-96774000D01*
X146340286Y-96749810D01*
X146388667Y-96749810D01*
X146461239Y-96774000D01*
X146485429Y-96798190D01*
X146945048Y-97257810D02*
X146703143Y-97257810D01*
X146703143Y-96749810D01*
X147114381Y-97257810D02*
X147114381Y-96749810D01*
X147283715Y-97112667D01*
X147453048Y-96749810D01*
X147453048Y-97257810D01*
X147694952Y-97257810D02*
X147694952Y-96749810D01*
X147815905Y-96749810D01*
X147888476Y-96774000D01*
X147936857Y-96822381D01*
X147961048Y-96870762D01*
X147985238Y-96967524D01*
X147985238Y-97040095D01*
X147961048Y-97136857D01*
X147936857Y-97185238D01*
X147888476Y-97233619D01*
X147815905Y-97257810D01*
X147694952Y-97257810D01*
X148469048Y-97257810D02*
X148178762Y-97257810D01*
X148323905Y-97257810D02*
X148323905Y-96749810D01*
X148275524Y-96822381D01*
X148227143Y-96870762D01*
X148178762Y-96894952D01*
X143679333Y-97209429D02*
X143655143Y-97233619D01*
X143582571Y-97257810D01*
X143534190Y-97257810D01*
X143461619Y-97233619D01*
X143413238Y-97185238D01*
X143389047Y-97136857D01*
X143364857Y-97040095D01*
X143364857Y-96967524D01*
X143389047Y-96870762D01*
X143413238Y-96822381D01*
X143461619Y-96774000D01*
X143534190Y-96749810D01*
X143582571Y-96749810D01*
X143655143Y-96774000D01*
X143679333Y-96798190D01*
X143872857Y-97233619D02*
X143945428Y-97257810D01*
X144066381Y-97257810D01*
X144114762Y-97233619D01*
X144138952Y-97209429D01*
X144163143Y-97161048D01*
X144163143Y-97112667D01*
X144138952Y-97064286D01*
X144114762Y-97040095D01*
X144066381Y-97015905D01*
X143969619Y-96991714D01*
X143921238Y-96967524D01*
X143897047Y-96943333D01*
X143872857Y-96894952D01*
X143872857Y-96846571D01*
X143897047Y-96798190D01*
X143921238Y-96774000D01*
X143969619Y-96749810D01*
X144090571Y-96749810D01*
X144163143Y-96774000D01*
X144380857Y-97257810D02*
X144380857Y-96749810D01*
X144380857Y-96991714D02*
X144671143Y-96991714D01*
X144671143Y-97257810D02*
X144671143Y-96749810D01*
X145179143Y-97257810D02*
X144888857Y-97257810D01*
X145034000Y-97257810D02*
X145034000Y-96749810D01*
X144985619Y-96822381D01*
X144937238Y-96870762D01*
X144888857Y-96894952D01*
X138345333Y-95987810D02*
X138103428Y-95987810D01*
X138103428Y-95479810D01*
X138490476Y-95528190D02*
X138514666Y-95504000D01*
X138563047Y-95479810D01*
X138684000Y-95479810D01*
X138732381Y-95504000D01*
X138756571Y-95528190D01*
X138780762Y-95576571D01*
X138780762Y-95624952D01*
X138756571Y-95697524D01*
X138466285Y-95987810D01*
X138780762Y-95987810D01*
X143310333Y-100178810D02*
X143068428Y-100178810D01*
X143068428Y-99670810D01*
X143431285Y-99670810D02*
X143745762Y-99670810D01*
X143576428Y-99864333D01*
X143649000Y-99864333D01*
X143697381Y-99888524D01*
X143721571Y-99912714D01*
X143745762Y-99961095D01*
X143745762Y-100082048D01*
X143721571Y-100130429D01*
X143697381Y-100154619D01*
X143649000Y-100178810D01*
X143503857Y-100178810D01*
X143455476Y-100154619D01*
X143431285Y-100130429D01*
X152557333Y-98781810D02*
X152315428Y-98781810D01*
X152315428Y-98273810D01*
X152944381Y-98443143D02*
X152944381Y-98781810D01*
X152823428Y-98249619D02*
X152702476Y-98612476D01*
X153016952Y-98612476D01*
X152684333Y-104242810D02*
X152442428Y-104242810D01*
X152442428Y-103734810D01*
X153095571Y-103734810D02*
X152853666Y-103734810D01*
X152829476Y-103976714D01*
X152853666Y-103952524D01*
X152902047Y-103928333D01*
X153023000Y-103928333D01*
X153071381Y-103952524D01*
X153095571Y-103976714D01*
X153119762Y-104025095D01*
X153119762Y-104146048D01*
X153095571Y-104194429D01*
X153071381Y-104218619D01*
X153023000Y-104242810D01*
X152902047Y-104242810D01*
X152853666Y-104218619D01*
X152829476Y-104194429D01*
X154728333Y-108560810D02*
X154486428Y-108560810D01*
X154486428Y-108052810D01*
X155115381Y-108052810D02*
X155018619Y-108052810D01*
X154970238Y-108077000D01*
X154946047Y-108101190D01*
X154897666Y-108173762D01*
X154873476Y-108270524D01*
X154873476Y-108464048D01*
X154897666Y-108512429D01*
X154921857Y-108536619D01*
X154970238Y-108560810D01*
X155067000Y-108560810D01*
X155115381Y-108536619D01*
X155139571Y-108512429D01*
X155163762Y-108464048D01*
X155163762Y-108343095D01*
X155139571Y-108294714D01*
X155115381Y-108270524D01*
X155067000Y-108246333D01*
X154970238Y-108246333D01*
X154921857Y-108270524D01*
X154897666Y-108294714D01*
X154873476Y-108343095D01*
X158919333Y-99924810D02*
X158750000Y-99682905D01*
X158629047Y-99924810D02*
X158629047Y-99416810D01*
X158822571Y-99416810D01*
X158870952Y-99441000D01*
X158895143Y-99465190D01*
X158919333Y-99513571D01*
X158919333Y-99586143D01*
X158895143Y-99634524D01*
X158870952Y-99658714D01*
X158822571Y-99682905D01*
X158629047Y-99682905D01*
X159354762Y-99416810D02*
X159258000Y-99416810D01*
X159209619Y-99441000D01*
X159185428Y-99465190D01*
X159137047Y-99537762D01*
X159112857Y-99634524D01*
X159112857Y-99828048D01*
X159137047Y-99876429D01*
X159161238Y-99900619D01*
X159209619Y-99924810D01*
X159306381Y-99924810D01*
X159354762Y-99900619D01*
X159378952Y-99876429D01*
X159403143Y-99828048D01*
X159403143Y-99707095D01*
X159378952Y-99658714D01*
X159354762Y-99634524D01*
X159306381Y-99610333D01*
X159209619Y-99610333D01*
X159161238Y-99634524D01*
X159137047Y-99658714D01*
X159112857Y-99707095D01*
X152557333Y-102337810D02*
X152388000Y-102095905D01*
X152267047Y-102337810D02*
X152267047Y-101829810D01*
X152460571Y-101829810D01*
X152508952Y-101854000D01*
X152533143Y-101878190D01*
X152557333Y-101926571D01*
X152557333Y-101999143D01*
X152533143Y-102047524D01*
X152508952Y-102071714D01*
X152460571Y-102095905D01*
X152267047Y-102095905D01*
X152799238Y-102337810D02*
X152896000Y-102337810D01*
X152944381Y-102313619D01*
X152968571Y-102289429D01*
X153016952Y-102216857D01*
X153041143Y-102120095D01*
X153041143Y-101926571D01*
X153016952Y-101878190D01*
X152992762Y-101854000D01*
X152944381Y-101829810D01*
X152847619Y-101829810D01*
X152799238Y-101854000D01*
X152775047Y-101878190D01*
X152750857Y-101926571D01*
X152750857Y-102047524D01*
X152775047Y-102095905D01*
X152799238Y-102120095D01*
X152847619Y-102144286D01*
X152944381Y-102144286D01*
X152992762Y-102120095D01*
X153016952Y-102095905D01*
X153041143Y-102047524D01*
X158677428Y-106274810D02*
X158508095Y-106032905D01*
X158387142Y-106274810D02*
X158387142Y-105766810D01*
X158580666Y-105766810D01*
X158629047Y-105791000D01*
X158653238Y-105815190D01*
X158677428Y-105863571D01*
X158677428Y-105936143D01*
X158653238Y-105984524D01*
X158629047Y-106008714D01*
X158580666Y-106032905D01*
X158387142Y-106032905D01*
X159161238Y-106274810D02*
X158870952Y-106274810D01*
X159016095Y-106274810D02*
X159016095Y-105766810D01*
X158967714Y-105839381D01*
X158919333Y-105887762D01*
X158870952Y-105911952D01*
X159475714Y-105766810D02*
X159524095Y-105766810D01*
X159572476Y-105791000D01*
X159596667Y-105815190D01*
X159620857Y-105863571D01*
X159645048Y-105960333D01*
X159645048Y-106081286D01*
X159620857Y-106178048D01*
X159596667Y-106226429D01*
X159572476Y-106250619D01*
X159524095Y-106274810D01*
X159475714Y-106274810D01*
X159427333Y-106250619D01*
X159403143Y-106226429D01*
X159378952Y-106178048D01*
X159354762Y-106081286D01*
X159354762Y-105960333D01*
X159378952Y-105863571D01*
X159403143Y-105815190D01*
X159427333Y-105791000D01*
X159475714Y-105766810D01*
X157915428Y-96114810D02*
X157746095Y-95872905D01*
X157625142Y-96114810D02*
X157625142Y-95606810D01*
X157818666Y-95606810D01*
X157867047Y-95631000D01*
X157891238Y-95655190D01*
X157915428Y-95703571D01*
X157915428Y-95776143D01*
X157891238Y-95824524D01*
X157867047Y-95848714D01*
X157818666Y-95872905D01*
X157625142Y-95872905D01*
X158399238Y-96114810D02*
X158108952Y-96114810D01*
X158254095Y-96114810D02*
X158254095Y-95606810D01*
X158205714Y-95679381D01*
X158157333Y-95727762D01*
X158108952Y-95751952D01*
X158883048Y-96114810D02*
X158592762Y-96114810D01*
X158737905Y-96114810D02*
X158737905Y-95606810D01*
X158689524Y-95679381D01*
X158641143Y-95727762D01*
X158592762Y-95751952D01*
X137873619Y-102337810D02*
X137704286Y-102095905D01*
X137583333Y-102337810D02*
X137583333Y-101829810D01*
X137776857Y-101829810D01*
X137825238Y-101854000D01*
X137849429Y-101878190D01*
X137873619Y-101926571D01*
X137873619Y-101999143D01*
X137849429Y-102047524D01*
X137825238Y-102071714D01*
X137776857Y-102095905D01*
X137583333Y-102095905D01*
X138260667Y-102071714D02*
X138091333Y-102071714D01*
X138091333Y-102337810D02*
X138091333Y-101829810D01*
X138333238Y-101829810D01*
X138696096Y-102071714D02*
X138768667Y-102095905D01*
X138792858Y-102120095D01*
X138817048Y-102168476D01*
X138817048Y-102241048D01*
X138792858Y-102289429D01*
X138768667Y-102313619D01*
X138720286Y-102337810D01*
X138526762Y-102337810D01*
X138526762Y-101829810D01*
X138696096Y-101829810D01*
X138744477Y-101854000D01*
X138768667Y-101878190D01*
X138792858Y-101926571D01*
X138792858Y-101974952D01*
X138768667Y-102023333D01*
X138744477Y-102047524D01*
X138696096Y-102071714D01*
X138526762Y-102071714D01*
X139300858Y-102337810D02*
X139010572Y-102337810D01*
X139155715Y-102337810D02*
X139155715Y-101829810D01*
X139107334Y-101902381D01*
X139058953Y-101950762D01*
X139010572Y-101974952D01*
X153663952Y-96368810D02*
X153663952Y-96780048D01*
X153688143Y-96828429D01*
X153712333Y-96852619D01*
X153760714Y-96876810D01*
X153857476Y-96876810D01*
X153905857Y-96852619D01*
X153930048Y-96828429D01*
X153954238Y-96780048D01*
X153954238Y-96368810D01*
X154413857Y-96368810D02*
X154317095Y-96368810D01*
X154268714Y-96393000D01*
X154244523Y-96417190D01*
X154196142Y-96489762D01*
X154171952Y-96586524D01*
X154171952Y-96780048D01*
X154196142Y-96828429D01*
X154220333Y-96852619D01*
X154268714Y-96876810D01*
X154365476Y-96876810D01*
X154413857Y-96852619D01*
X154438047Y-96828429D01*
X154462238Y-96780048D01*
X154462238Y-96659095D01*
X154438047Y-96610714D01*
X154413857Y-96586524D01*
X154365476Y-96562333D01*
X154268714Y-96562333D01*
X154220333Y-96586524D01*
X154196142Y-96610714D01*
X154171952Y-96659095D01*
X158489952Y-111735810D02*
X158780238Y-111735810D01*
X158635095Y-112243810D02*
X158635095Y-111735810D01*
X159215667Y-112243810D02*
X158925381Y-112243810D01*
X159070524Y-112243810D02*
X159070524Y-111735810D01*
X159022143Y-111808381D01*
X158973762Y-111856762D01*
X158925381Y-111880952D01*
X137837333Y-92431810D02*
X137595428Y-92431810D01*
X137595428Y-91923810D01*
X138272762Y-92431810D02*
X137982476Y-92431810D01*
X138127619Y-92431810D02*
X138127619Y-91923810D01*
X138079238Y-91996381D01*
X138030857Y-92044762D01*
X137982476Y-92068952D01*
X134039428Y-108766429D02*
X134015238Y-108790619D01*
X133942666Y-108814810D01*
X133894285Y-108814810D01*
X133821714Y-108790619D01*
X133773333Y-108742238D01*
X133749142Y-108693857D01*
X133724952Y-108597095D01*
X133724952Y-108524524D01*
X133749142Y-108427762D01*
X133773333Y-108379381D01*
X133821714Y-108331000D01*
X133894285Y-108306810D01*
X133942666Y-108306810D01*
X134015238Y-108331000D01*
X134039428Y-108355190D01*
X134232952Y-108355190D02*
X134257142Y-108331000D01*
X134305523Y-108306810D01*
X134426476Y-108306810D01*
X134474857Y-108331000D01*
X134499047Y-108355190D01*
X134523238Y-108403571D01*
X134523238Y-108451952D01*
X134499047Y-108524524D01*
X134208761Y-108814810D01*
X134523238Y-108814810D01*
X134958667Y-108306810D02*
X134861905Y-108306810D01*
X134813524Y-108331000D01*
X134789333Y-108355190D01*
X134740952Y-108427762D01*
X134716762Y-108524524D01*
X134716762Y-108718048D01*
X134740952Y-108766429D01*
X134765143Y-108790619D01*
X134813524Y-108814810D01*
X134910286Y-108814810D01*
X134958667Y-108790619D01*
X134982857Y-108766429D01*
X135007048Y-108718048D01*
X135007048Y-108597095D01*
X134982857Y-108548714D01*
X134958667Y-108524524D01*
X134910286Y-108500333D01*
X134813524Y-108500333D01*
X134765143Y-108524524D01*
X134740952Y-108548714D01*
X134716762Y-108597095D01*
X139769547Y-112894310D02*
X139769547Y-112386310D01*
X139890500Y-112386310D01*
X139963071Y-112410500D01*
X140011452Y-112458881D01*
X140035643Y-112507262D01*
X140059833Y-112604024D01*
X140059833Y-112676595D01*
X140035643Y-112773357D01*
X140011452Y-112821738D01*
X139963071Y-112870119D01*
X139890500Y-112894310D01*
X139769547Y-112894310D01*
X140229166Y-112386310D02*
X140543643Y-112386310D01*
X140374309Y-112579833D01*
X140446881Y-112579833D01*
X140495262Y-112604024D01*
X140519452Y-112628214D01*
X140543643Y-112676595D01*
X140543643Y-112797548D01*
X140519452Y-112845929D01*
X140495262Y-112870119D01*
X140446881Y-112894310D01*
X140301738Y-112894310D01*
X140253357Y-112870119D01*
X140229166Y-112845929D01*
X135007047Y-105385810D02*
X135007047Y-104877810D01*
X135128000Y-104877810D01*
X135200571Y-104902000D01*
X135248952Y-104950381D01*
X135273143Y-104998762D01*
X135297333Y-105095524D01*
X135297333Y-105168095D01*
X135273143Y-105264857D01*
X135248952Y-105313238D01*
X135200571Y-105361619D01*
X135128000Y-105385810D01*
X135007047Y-105385810D01*
X135732762Y-105047143D02*
X135732762Y-105385810D01*
X135611809Y-104853619D02*
X135490857Y-105216476D01*
X135805333Y-105216476D01*
X129745619Y-108228190D02*
X129697238Y-108204000D01*
X129648857Y-108155619D01*
X129576286Y-108083048D01*
X129527905Y-108058857D01*
X129479524Y-108058857D01*
X129503714Y-108179810D02*
X129455333Y-108155619D01*
X129406952Y-108107238D01*
X129382762Y-108010476D01*
X129382762Y-107841143D01*
X129406952Y-107744381D01*
X129455333Y-107696000D01*
X129503714Y-107671810D01*
X129600476Y-107671810D01*
X129648857Y-107696000D01*
X129697238Y-107744381D01*
X129721429Y-107841143D01*
X129721429Y-108010476D01*
X129697238Y-108107238D01*
X129648857Y-108155619D01*
X129600476Y-108179810D01*
X129503714Y-108179810D01*
X129914952Y-107720190D02*
X129939142Y-107696000D01*
X129987523Y-107671810D01*
X130108476Y-107671810D01*
X130156857Y-107696000D01*
X130181047Y-107720190D01*
X130205238Y-107768571D01*
X130205238Y-107816952D01*
X130181047Y-107889524D01*
X129890761Y-108179810D01*
X130205238Y-108179810D01*
X133023428Y-112497810D02*
X132854095Y-112255905D01*
X132733142Y-112497810D02*
X132733142Y-111989810D01*
X132926666Y-111989810D01*
X132975047Y-112014000D01*
X132999238Y-112038190D01*
X133023428Y-112086571D01*
X133023428Y-112159143D01*
X132999238Y-112207524D01*
X132975047Y-112231714D01*
X132926666Y-112255905D01*
X132733142Y-112255905D01*
X133507238Y-112497810D02*
X133216952Y-112497810D01*
X133362095Y-112497810D02*
X133362095Y-111989810D01*
X133313714Y-112062381D01*
X133265333Y-112110762D01*
X133216952Y-112134952D01*
X133700762Y-112038190D02*
X133724952Y-112014000D01*
X133773333Y-111989810D01*
X133894286Y-111989810D01*
X133942667Y-112014000D01*
X133966857Y-112038190D01*
X133991048Y-112086571D01*
X133991048Y-112134952D01*
X133966857Y-112207524D01*
X133676571Y-112497810D01*
X133991048Y-112497810D01*
X164380333Y-110925429D02*
X164356143Y-110949619D01*
X164283571Y-110973810D01*
X164235190Y-110973810D01*
X164162619Y-110949619D01*
X164114238Y-110901238D01*
X164090047Y-110852857D01*
X164065857Y-110756095D01*
X164065857Y-110683524D01*
X164090047Y-110586762D01*
X164114238Y-110538381D01*
X164162619Y-110490000D01*
X164235190Y-110465810D01*
X164283571Y-110465810D01*
X164356143Y-110490000D01*
X164380333Y-110514190D01*
X164864143Y-110973810D02*
X164573857Y-110973810D01*
X164719000Y-110973810D02*
X164719000Y-110465810D01*
X164670619Y-110538381D01*
X164622238Y-110586762D01*
X164573857Y-110610952D01*
X160951333Y-95939429D02*
X160927143Y-95963619D01*
X160854571Y-95987810D01*
X160806190Y-95987810D01*
X160733619Y-95963619D01*
X160685238Y-95915238D01*
X160661047Y-95866857D01*
X160636857Y-95770095D01*
X160636857Y-95697524D01*
X160661047Y-95600762D01*
X160685238Y-95552381D01*
X160733619Y-95504000D01*
X160806190Y-95479810D01*
X160854571Y-95479810D01*
X160927143Y-95504000D01*
X160951333Y-95528190D01*
X161144857Y-95528190D02*
X161169047Y-95504000D01*
X161217428Y-95479810D01*
X161338381Y-95479810D01*
X161386762Y-95504000D01*
X161410952Y-95528190D01*
X161435143Y-95576571D01*
X161435143Y-95624952D01*
X161410952Y-95697524D01*
X161120666Y-95987810D01*
X161435143Y-95987810D01*
X135551333Y-112449429D02*
X135527143Y-112473619D01*
X135454571Y-112497810D01*
X135406190Y-112497810D01*
X135333619Y-112473619D01*
X135285238Y-112425238D01*
X135261047Y-112376857D01*
X135236857Y-112280095D01*
X135236857Y-112207524D01*
X135261047Y-112110762D01*
X135285238Y-112062381D01*
X135333619Y-112014000D01*
X135406190Y-111989810D01*
X135454571Y-111989810D01*
X135527143Y-112014000D01*
X135551333Y-112038190D01*
X135720666Y-111989810D02*
X136035143Y-111989810D01*
X135865809Y-112183333D01*
X135938381Y-112183333D01*
X135986762Y-112207524D01*
X136010952Y-112231714D01*
X136035143Y-112280095D01*
X136035143Y-112401048D01*
X136010952Y-112449429D01*
X135986762Y-112473619D01*
X135938381Y-112497810D01*
X135793238Y-112497810D01*
X135744857Y-112473619D01*
X135720666Y-112449429D01*
X163406666Y-99289810D02*
X163406666Y-99652667D01*
X163382476Y-99725238D01*
X163334095Y-99773619D01*
X163261523Y-99797810D01*
X163213142Y-99797810D01*
X163914667Y-99797810D02*
X163624381Y-99797810D01*
X163769524Y-99797810D02*
X163769524Y-99289810D01*
X163721143Y-99362381D01*
X163672762Y-99410762D01*
X163624381Y-99434952D01*
X130483428Y-103607810D02*
X130241523Y-103607810D01*
X130241523Y-103099810D01*
X130628571Y-103583619D02*
X130701142Y-103607810D01*
X130822095Y-103607810D01*
X130870476Y-103583619D01*
X130894666Y-103559429D01*
X130918857Y-103511048D01*
X130918857Y-103462667D01*
X130894666Y-103414286D01*
X130870476Y-103390095D01*
X130822095Y-103365905D01*
X130725333Y-103341714D01*
X130676952Y-103317524D01*
X130652761Y-103293333D01*
X130628571Y-103244952D01*
X130628571Y-103196571D01*
X130652761Y-103148190D01*
X130676952Y-103124000D01*
X130725333Y-103099810D01*
X130846285Y-103099810D01*
X130918857Y-103124000D01*
X131402667Y-103607810D02*
X131112381Y-103607810D01*
X131257524Y-103607810D02*
X131257524Y-103099810D01*
X131209143Y-103172381D01*
X131160762Y-103220762D01*
X131112381Y-103244952D01*
D15*
X131118430Y-99486357D02*
X130991430Y-99304929D01*
X130900715Y-99486357D02*
X130900715Y-99105357D01*
X131045858Y-99105357D01*
X131082144Y-99123500D01*
X131100287Y-99141643D01*
X131118430Y-99177929D01*
X131118430Y-99232357D01*
X131100287Y-99268643D01*
X131082144Y-99286786D01*
X131045858Y-99304929D01*
X130900715Y-99304929D01*
X131445001Y-99486357D02*
X131445001Y-99105357D01*
X131445001Y-99468214D02*
X131408715Y-99486357D01*
X131336144Y-99486357D01*
X131299858Y-99468214D01*
X131281715Y-99450071D01*
X131263572Y-99413786D01*
X131263572Y-99304929D01*
X131281715Y-99268643D01*
X131299858Y-99250500D01*
X131336144Y-99232357D01*
X131408715Y-99232357D01*
X131445001Y-99250500D01*
X131789715Y-99486357D02*
X131789715Y-99286786D01*
X131771572Y-99250500D01*
X131735286Y-99232357D01*
X131662715Y-99232357D01*
X131626429Y-99250500D01*
X131789715Y-99468214D02*
X131753429Y-99486357D01*
X131662715Y-99486357D01*
X131626429Y-99468214D01*
X131608286Y-99431929D01*
X131608286Y-99395643D01*
X131626429Y-99359357D01*
X131662715Y-99341214D01*
X131753429Y-99341214D01*
X131789715Y-99323071D01*
X131971143Y-99486357D02*
X131971143Y-99232357D01*
X131971143Y-99268643D02*
X131989286Y-99250500D01*
X132025572Y-99232357D01*
X132080000Y-99232357D01*
X132116286Y-99250500D01*
X132134429Y-99286786D01*
X132134429Y-99486357D01*
X132134429Y-99286786D02*
X132152572Y-99250500D01*
X132188858Y-99232357D01*
X132243286Y-99232357D01*
X132279572Y-99250500D01*
X132297715Y-99286786D01*
X132297715Y-99486357D01*
X132479143Y-99232357D02*
X132479143Y-99613357D01*
X132479143Y-99250500D02*
X132515429Y-99232357D01*
X132588000Y-99232357D01*
X132624286Y-99250500D01*
X132642429Y-99268643D01*
X132660572Y-99304929D01*
X132660572Y-99413786D01*
X132642429Y-99450071D01*
X132624286Y-99468214D01*
X132588000Y-99486357D01*
X132515429Y-99486357D01*
X132479143Y-99468214D01*
X133023429Y-99486357D02*
X132805714Y-99486357D01*
X132914572Y-99486357D02*
X132914572Y-99105357D01*
X132878286Y-99159786D01*
X132842000Y-99196071D01*
X132805714Y-99214214D01*
D12*
X164871666Y-98202810D02*
X164871666Y-98565667D01*
X164847476Y-98638238D01*
X164799095Y-98686619D01*
X164726523Y-98710810D01*
X164678142Y-98710810D01*
X165065190Y-98202810D02*
X165403857Y-98202810D01*
X165186143Y-98710810D01*
M02*
