M48
;DRILL file {KiCad 4.0.6} date Monday, October 02, 2017 'PMt' 03:48:28 PM
;FORMAT={-:-/ absolute / inch / decimal}
FMAT,2
INCH,TZ
T1C0.015
T2C0.039
T3C0.118
%
G90
G05
M72
T1
X5.195Y-4.085
X5.2025Y-3.8075
X5.24Y-4.275
X5.27Y-3.765
X5.3375Y-4.2825
X5.495Y-4.035
X5.5Y-3.935
X5.655Y-3.75
X5.72Y-3.675
X5.835Y-4.31
X5.985Y-4.015
X5.995Y-3.825
X6.1175Y-4.395
X6.13Y-4.27
X6.15Y-4.19
X6.175Y-3.725
X6.39Y-4.3975
T2
X5.1175Y-3.9
X5.1175Y-4.
X6.39Y-3.965
X6.39Y-4.065
X6.39Y-4.165
X6.39Y-4.265
X6.49Y-3.965
X6.49Y-4.065
X6.49Y-4.165
X6.49Y-4.265
T3
X5.149Y-4.3625
X5.4715Y-3.5425
X6.279Y-3.54
T0
M30
