<?xml version="1.0" encoding="UTF-8" standalone="no"?>
<svg
   xmlns:dc="http://purl.org/dc/elements/1.1/"
   xmlns:cc="http://creativecommons.org/ns#"
   xmlns:rdf="http://www.w3.org/1999/02/22-rdf-syntax-ns#"
   xmlns:svg="http://www.w3.org/2000/svg"
   xmlns="http://www.w3.org/2000/svg"
   xmlns:sodipodi="http://sodipodi.sourceforge.net/DTD/sodipodi-0.dtd"
   xmlns:inkscape="http://www.inkscape.org/namespaces/inkscape"
   version="1.1"
   width="27.94cm"
   height="21.59cm"
   viewBox="0 0 110000 85000 "
   id="svg2"
   inkscape:version="0.91 r13725"
   sodipodi:docname="stencil.svg">
  <metadata
     id="metadata276">
    <rdf:RDF>
      <cc:Work
         rdf:about="">
        <dc:format>image/svg+xml</dc:format>
        <dc:type
           rdf:resource="http://purl.org/dc/dcmitype/StillImage" />
      </cc:Work>
    </rdf:RDF>
  </metadata>
  <defs
     id="defs274" />
  <sodipodi:namedview
     pagecolor="#ffffff"
     bordercolor="#666666"
     borderopacity="1"
     objecttolerance="10"
     gridtolerance="10"
     guidetolerance="10"
     inkscape:pageopacity="0"
     inkscape:pageshadow="2"
     inkscape:window-width="1244"
     inkscape:window-height="760"
     id="namedview272"
     showgrid="false"
     inkscape:zoom="2.063088"
     inkscape:cx="495.00001"
     inkscape:cy="479.44206"
     inkscape:window-x="39"
     inkscape:window-y="0"
     inkscape:window-maximized="0"
     inkscape:current-layer="svg2" />
  <title
     id="title4">SVG Picture created as Analog_Frontend-F.Paste.svg date 2017/06/06 16:34:33 </title>
  <desc
     id="desc6">Picture generated by PCBNEW </desc>
  <g
     style="fill:none;fill-opacity:1;stroke:#000000;stroke-opacity:1;stroke-linecap:round;stroke-linejoin:round;stroke-width:50.00000215;stroke-miterlimit:4;stroke-dasharray:none"
     transform="translate(0 0) scale(1 1)"
     id="g8" />
  <g
     style="fill:none;fill-opacity:0;stroke:#000000;stroke-width:50.00000215;stroke-opacity:1;stroke-linecap:round;stroke-linejoin:round;stroke-miterlimit:4;stroke-dasharray:none"
     id="g10" />
  <g
     style="fill:none;fill-opacity:0;stroke:#000000;stroke-width:50.00000215;stroke-opacity:1;stroke-linecap:round;stroke-linejoin:round;stroke-miterlimit:4;stroke-dasharray:50.00000215,1200.00005166;stroke-dashoffset:0"
     id="g12">
    <path
       d="M70000 20000 L45000 20000 "
       id="path14"
       style="fill:none;stroke-width:50.00000215;stroke-miterlimit:4;stroke-dasharray:50.00000215,1200.00005166;stroke-dashoffset:0" />
    <path
       d="M70000 45000 L70000 20000 "
       id="path16"
       style="fill:none;stroke-width:50.00000215;stroke-miterlimit:4;stroke-dasharray:50.00000215,1200.00005166;stroke-dashoffset:0" />
    <path
       d="M45000 45000 L70000 45000 "
       id="path18"
       style="fill:none;stroke-width:50.00000215;stroke-miterlimit:4;stroke-dasharray:50.00000215,1200.00005166;stroke-dashoffset:0" />
    <path
       d="M45000 20000 L45000 45000 "
       id="path20"
       style="fill:none;stroke-width:50.00000215;stroke-miterlimit:4;stroke-dasharray:50.00000215,1200.00005166;stroke-dashoffset:0" />
  </g>
  <g
     style="fill:none;fill-opacity:0;stroke:#000000;stroke-width:50.00000215;stroke-opacity:1;stroke-linecap:round;stroke-linejoin:round;stroke-miterlimit:4;stroke-dasharray:none"
     id="g22" />
  <g
     style="fill:none;fill-opacity:1;stroke:#000000;stroke-width:50.00000215;stroke-opacity:1;stroke-linecap:round;stroke-linejoin:round;stroke-miterlimit:4;stroke-dasharray:none"
     id="g24">
    <polyline
       style="fill-rule:evenodd;fill:none;stroke-width:50.00000215;stroke-miterlimit:4;stroke-dasharray:none"
       points="53546,24214 54057,24214 54057,24489 53546,24489 53546,24214 "
       id="polyline26" />
    <polyline
       style="fill-rule:evenodd;fill:none;stroke-width:50.00000215;stroke-miterlimit:4;stroke-dasharray:none"
       points="53546,24962 54057,24962 54057,25237 53546,25237 53546,24962 "
       id="polyline28" />
    <polyline
       style="fill-rule:evenodd;fill:none;stroke-width:50.00000215;stroke-miterlimit:4;stroke-dasharray:none"
       points="55997,22752 55702,22752 55702,22437 55997,22437 55997,22752 "
       id="polyline30" />
    <polyline
       style="fill-rule:evenodd;fill:none;stroke-width:50.00000215;stroke-miterlimit:4;stroke-dasharray:none"
       points="55997,22162 55702,22162 55702,21847 55997,21847 55997,22162 "
       id="polyline32" />
    <polyline
       style="fill-rule:evenodd;fill:none;stroke-width:50.00000215;stroke-miterlimit:4;stroke-dasharray:none"
       points="50562,26568 50562,25583 50956,25583 50956,26568 50562,26568 "
       id="polyline34" />
    <polyline
       style="fill-rule:evenodd;fill:none;stroke-width:50.00000215;stroke-miterlimit:4;stroke-dasharray:none"
       points="51153,26568 51153,25583 51547,25583 51547,26568 51153,26568 "
       id="polyline36" />
    <polyline
       style="fill-rule:evenodd;fill:none;stroke-width:50.00000215;stroke-miterlimit:4;stroke-dasharray:none"
       points="51744,26568 51744,25583 52138,25583 52138,26568 51744,26568 "
       id="polyline38" />
    <polyline
       style="fill-rule:evenodd;fill:none;stroke-width:50.00000215;stroke-miterlimit:4;stroke-dasharray:none"
       points="50956,25307 50956,23732 51743,23732 51743,25307 50956,25307 "
       id="polyline40" />
    <polyline
       style="fill-rule:evenodd;fill:none;stroke-width:50.00000215;stroke-miterlimit:4;stroke-dasharray:none"
       points="51744,25297 51547,25592 51153,25592 50956,25297 51744,25297 "
       id="polyline42" />
    <polyline
       style="fill-rule:evenodd;fill:none;stroke-width:50.00000215;stroke-miterlimit:4;stroke-dasharray:none"
       points="53075,25494 52918,25494 52918,25293 53075,25293 53075,25494 "
       id="polyline44" />
    <polyline
       style="fill-rule:evenodd;fill:none;stroke-width:50.00000215;stroke-miterlimit:4;stroke-dasharray:none"
       points="52681,25494 52524,25494 52524,25293 52681,25293 52681,25494 "
       id="polyline46" />
    <polyline
       style="fill-rule:evenodd;fill:none;stroke-width:50.00000215;stroke-miterlimit:4;stroke-dasharray:none"
       points="52878,26006 52721,26006 52721,25805 52878,25805 52878,26006 "
       id="polyline48" />
    <polyline
       style="fill-rule:evenodd;fill:none;stroke-width:50.00000215;stroke-miterlimit:4;stroke-dasharray:none"
       points="51964,31437 51335,31437 51335,31043 51964,31043 51964,31437 "
       id="polyline50" />
    <polyline
       style="fill-rule:evenodd;fill:none;stroke-width:50.00000215;stroke-miterlimit:4;stroke-dasharray:none"
       points="51964,30256 51335,30256 51335,29862 51964,29862 51964,30256 "
       id="polyline52" />
    <polyline
       style="fill-rule:evenodd;fill:none;stroke-width:50.00000215;stroke-miterlimit:4;stroke-dasharray:none"
       points="50947,31102 50652,31102 50652,30787 50947,30787 50947,31102 "
       id="polyline54" />
    <polyline
       style="fill-rule:evenodd;fill:none;stroke-width:50.00000215;stroke-miterlimit:4;stroke-dasharray:none"
       points="50947,30512 50652,30512 50652,30197 50947,30197 50947,30512 "
       id="polyline56" />
    <polyline
       style="fill-rule:evenodd;fill:none;stroke-width:50.00000215;stroke-miterlimit:4;stroke-dasharray:none"
       points="50547,38452 50252,38452 50252,38137 50547,38137 50547,38452 "
       id="polyline58" />
    <polyline
       style="fill-rule:evenodd;fill:none;stroke-width:50.00000215;stroke-miterlimit:4;stroke-dasharray:none"
       points="50547,37862 50252,37862 50252,37547 50547,37547 50547,37862 "
       id="polyline60" />
    <polyline
       style="fill-rule:evenodd;fill:none;stroke-width:50.00000215;stroke-miterlimit:4;stroke-dasharray:none"
       points="52952,36597 53247,36597 53247,36912 52952,36912 52952,36597 "
       id="polyline62" />
    <polyline
       style="fill-rule:evenodd;fill:none;stroke-width:50.00000215;stroke-miterlimit:4;stroke-dasharray:none"
       points="52952,37187 53247,37187 53247,37502 52952,37502 52952,37187 "
       id="polyline64" />
    <polyline
       style="fill-rule:evenodd;fill:none;stroke-width:50.00000215;stroke-miterlimit:4;stroke-dasharray:none"
       points="56997,33457 56702,33457 56702,33142 56997,33142 56997,33457 "
       id="polyline66" />
    <polyline
       style="fill-rule:evenodd;fill:none;stroke-width:50.00000215;stroke-miterlimit:4;stroke-dasharray:none"
       points="56997,32866 56702,32866 56702,32551 56997,32551 56997,32866 "
       id="polyline68" />
    <polyline
       style="fill-rule:evenodd;fill:none;stroke-width:50.00000215;stroke-miterlimit:4;stroke-dasharray:none"
       points="62297,33398 62002,33398 62002,33083 62297,33083 62297,33398 "
       id="polyline70" />
    <polyline
       style="fill-rule:evenodd;fill:none;stroke-width:50.00000215;stroke-miterlimit:4;stroke-dasharray:none"
       points="62297,32807 62002,32807 62002,32492 62297,32492 62297,32807 "
       id="polyline72" />
    <polyline
       style="fill-rule:evenodd;fill:none;stroke-width:50.00000215;stroke-miterlimit:4;stroke-dasharray:none"
       points="68847,34202 68552,34202 68552,33887 68847,33887 68847,34202 "
       id="polyline74" />
    <polyline
       style="fill-rule:evenodd;fill:none;stroke-width:50.00000215;stroke-miterlimit:4;stroke-dasharray:none"
       points="68847,33612 68552,33612 68552,33297 68847,33297 68847,33612 "
       id="polyline76" />
    <polyline
       style="fill-rule:evenodd;fill:none;stroke-width:50.00000215;stroke-miterlimit:4;stroke-dasharray:none"
       points="67547,32002 67252,32002 67252,31687 67547,31687 67547,32002 "
       id="polyline78" />
    <polyline
       style="fill-rule:evenodd;fill:none;stroke-width:50.00000215;stroke-miterlimit:4;stroke-dasharray:none"
       points="67547,31412 67252,31412 67252,31097 67547,31097 67547,31412 "
       id="polyline80" />
    <polyline
       style="fill-rule:evenodd;fill:none;stroke-width:50.00000215;stroke-miterlimit:4;stroke-dasharray:none"
       points="58102,25402 58102,25697 57787,25697 57787,25402 58102,25402 "
       id="polyline82" />
    <polyline
       style="fill-rule:evenodd;fill:none;stroke-width:50.00000215;stroke-miterlimit:4;stroke-dasharray:none"
       points="57512,25402 57512,25697 57197,25697 57197,25402 57512,25402 "
       id="polyline84" />
    <polyline
       style="fill-rule:evenodd;fill:none;stroke-width:50.00000215;stroke-miterlimit:4;stroke-dasharray:none"
       points="63851,25497 63851,25202 64166,25202 64166,25497 63851,25497 "
       id="polyline86" />
    <polyline
       style="fill-rule:evenodd;fill:none;stroke-width:50.00000215;stroke-miterlimit:4;stroke-dasharray:none"
       points="64442,25497 64442,25202 64757,25202 64757,25497 64442,25497 "
       id="polyline88" />
    <polyline
       style="fill-rule:evenodd;fill:none;stroke-width:50.00000215;stroke-miterlimit:4;stroke-dasharray:none"
       points="57202,26197 57497,26197 57497,26512 57202,26512 57202,26197 "
       id="polyline90" />
    <polyline
       style="fill-rule:evenodd;fill:none;stroke-width:50.00000215;stroke-miterlimit:4;stroke-dasharray:none"
       points="57202,26787 57497,26787 57497,27102 57202,27102 57202,26787 "
       id="polyline92" />
    <polyline
       style="fill-rule:evenodd;fill:none;stroke-width:50.00000215;stroke-miterlimit:4;stroke-dasharray:none"
       points="57902,26197 58197,26197 58197,26512 57902,26512 57902,26197 "
       id="polyline94" />
    <polyline
       style="fill-rule:evenodd;fill:none;stroke-width:50.00000215;stroke-miterlimit:4;stroke-dasharray:none"
       points="57902,26787 58197,26787 58197,27102 57902,27102 57902,26787 "
       id="polyline96" />
    <polyline
       style="fill-rule:evenodd;fill:none;stroke-width:50.00000215;stroke-miterlimit:4;stroke-dasharray:none"
       points="63851,26497 63851,26202 64166,26202 64166,26497 63851,26497 "
       id="polyline98" />
    <polyline
       style="fill-rule:evenodd;fill:none;stroke-width:50.00000215;stroke-miterlimit:4;stroke-dasharray:none"
       points="64442,26497 64442,26202 64757,26202 64757,26497 64442,26497 "
       id="polyline100" />
    <polyline
       style="fill-rule:evenodd;fill:none;stroke-width:50.00000215;stroke-miterlimit:4;stroke-dasharray:none"
       points="62002,27097 62297,27097 62297,27412 62002,27412 62002,27097 "
       id="polyline102" />
    <polyline
       style="fill-rule:evenodd;fill:none;stroke-width:50.00000215;stroke-miterlimit:4;stroke-dasharray:none"
       points="62002,27687 62297,27687 62297,28002 62002,28002 62002,27687 "
       id="polyline104" />
    <polyline
       style="fill-rule:evenodd;fill:none;stroke-width:50.00000215;stroke-miterlimit:4;stroke-dasharray:none"
       points="61552,28501 61847,28501 61847,28816 61552,28816 61552,28501 "
       id="polyline106" />
    <polyline
       style="fill-rule:evenodd;fill:none;stroke-width:50.00000215;stroke-miterlimit:4;stroke-dasharray:none"
       points="61552,29092 61847,29092 61847,29407 61552,29407 61552,29092 "
       id="polyline108" />
    <polyline
       style="fill-rule:evenodd;fill:none;stroke-width:50.00000215;stroke-miterlimit:4;stroke-dasharray:none"
       points="58852,28492 59147,28492 59147,28807 58852,28807 58852,28492 "
       id="polyline110" />
    <polyline
       style="fill-rule:evenodd;fill:none;stroke-width:50.00000215;stroke-miterlimit:4;stroke-dasharray:none"
       points="58852,29083 59147,29083 59147,29398 58852,29398 58852,29083 "
       id="polyline112" />
    <polyline
       style="fill-rule:evenodd;fill:none;stroke-width:50.00000215;stroke-miterlimit:4;stroke-dasharray:none"
       points="61002,28492 61297,28492 61297,28807 61002,28807 61002,28492 "
       id="polyline114" />
    <polyline
       style="fill-rule:evenodd;fill:none;stroke-width:50.00000215;stroke-miterlimit:4;stroke-dasharray:none"
       points="61002,29083 61297,29083 61297,29398 61002,29398 61002,29083 "
       id="polyline116" />
    <polyline
       style="fill-rule:evenodd;fill:none;stroke-width:50.00000215;stroke-miterlimit:4;stroke-dasharray:none"
       points="60347,40848 60052,40848 60052,40533 60347,40533 60347,40848 "
       id="polyline118" />
    <polyline
       style="fill-rule:evenodd;fill:none;stroke-width:50.00000215;stroke-miterlimit:4;stroke-dasharray:none"
       points="60347,40257 60052,40257 60052,39942 60347,39942 60347,40257 "
       id="polyline120" />
    <polyline
       style="fill-rule:evenodd;fill:none;stroke-width:50.00000215;stroke-miterlimit:4;stroke-dasharray:none"
       points="60347,39552 60052,39552 60052,39237 60347,39237 60347,39552 "
       id="polyline122" />
    <polyline
       style="fill-rule:evenodd;fill:none;stroke-width:50.00000215;stroke-miterlimit:4;stroke-dasharray:none"
       points="60347,38962 60052,38962 60052,38647 60347,38647 60347,38962 "
       id="polyline124" />
    <polyline
       style="fill-rule:evenodd;fill:none;stroke-width:50.00000215;stroke-miterlimit:4;stroke-dasharray:none"
       points="63802,37952 63802,38247 63487,38247 63487,37952 63802,37952 "
       id="polyline126" />
    <polyline
       style="fill-rule:evenodd;fill:none;stroke-width:50.00000215;stroke-miterlimit:4;stroke-dasharray:none"
       points="63212,37952 63212,38247 62897,38247 62897,37952 63212,37952 "
       id="polyline128" />
    <polyline
       style="fill-rule:evenodd;fill:none;stroke-width:50.00000215;stroke-miterlimit:4;stroke-dasharray:none"
       points="61047,38657 60752,38657 60752,38342 61047,38342 61047,38657 "
       id="polyline130" />
    <polyline
       style="fill-rule:evenodd;fill:none;stroke-width:50.00000215;stroke-miterlimit:4;stroke-dasharray:none"
       points="61047,38066 60752,38066 60752,37751 61047,37751 61047,38066 "
       id="polyline132" />
    <polyline
       style="fill-rule:evenodd;fill:none;stroke-width:50.00000215;stroke-miterlimit:4;stroke-dasharray:none"
       points="58052,23902 58052,24197 57737,24197 57737,23902 58052,23902 "
       id="polyline134" />
    <polyline
       style="fill-rule:evenodd;fill:none;stroke-width:50.00000215;stroke-miterlimit:4;stroke-dasharray:none"
       points="57462,23902 57462,24197 57147,24197 57147,23902 57462,23902 "
       id="polyline136" />
    <polyline
       style="fill-rule:evenodd;fill:none;stroke-width:50.00000215;stroke-miterlimit:4;stroke-dasharray:none"
       points="57047,23547 57047,23252 57362,23252 57362,23547 57047,23547 "
       id="polyline138" />
    <polyline
       style="fill-rule:evenodd;fill:none;stroke-width:50.00000215;stroke-miterlimit:4;stroke-dasharray:none"
       points="57637,23547 57637,23252 57952,23252 57952,23547 57637,23547 "
       id="polyline140" />
    <polyline
       style="fill-rule:evenodd;fill:none;stroke-width:50.00000215;stroke-miterlimit:4;stroke-dasharray:none"
       points="59452,23447 59747,23447 59747,23762 59452,23762 59452,23447 "
       id="polyline142" />
    <polyline
       style="fill-rule:evenodd;fill:none;stroke-width:50.00000215;stroke-miterlimit:4;stroke-dasharray:none"
       points="59452,24037 59747,24037 59747,24352 59452,24352 59452,24037 "
       id="polyline144" />
    <polyline
       style="fill-rule:evenodd;fill:none;stroke-width:50.00000215;stroke-miterlimit:4;stroke-dasharray:none"
       points="59047,24352 58752,24352 58752,24037 59047,24037 59047,24352 "
       id="polyline146" />
    <polyline
       style="fill-rule:evenodd;fill:none;stroke-width:50.00000215;stroke-miterlimit:4;stroke-dasharray:none"
       points="59047,23762 58752,23762 58752,23447 59047,23447 59047,23762 "
       id="polyline148" />
    <polyline
       style="fill-rule:evenodd;fill:none;stroke-width:50.00000215;stroke-miterlimit:4;stroke-dasharray:none"
       points="55856,23577 55856,23222 56053,23222 56053,23577 55856,23577 "
       id="polyline150" />
    <polyline
       style="fill-rule:evenodd;fill:none;stroke-width:50.00000215;stroke-miterlimit:4;stroke-dasharray:none"
       points="56446,23577 56446,23222 56643,23222 56643,23577 56446,23577 "
       id="polyline152" />
    <polyline
       style="fill-rule:evenodd;fill:none;stroke-width:50.00000215;stroke-miterlimit:4;stroke-dasharray:none"
       points="57206,25027 57206,24672 57403,24672 57403,25027 57206,25027 "
       id="polyline154" />
    <polyline
       style="fill-rule:evenodd;fill:none;stroke-width:50.00000215;stroke-miterlimit:4;stroke-dasharray:none"
       points="57796,25027 57796,24672 57993,24672 57993,25027 57796,25027 "
       id="polyline156" />
    <polyline
       style="fill-rule:evenodd;fill:none;stroke-width:50.00000215;stroke-miterlimit:4;stroke-dasharray:none"
       points="62811,25277 62811,24922 63007,24922 63007,25277 62811,25277 "
       id="polyline158" />
    <polyline
       style="fill-rule:evenodd;fill:none;stroke-width:50.00000215;stroke-miterlimit:4;stroke-dasharray:none"
       points="63401,25277 63401,24922 63598,24922 63598,25277 63401,25277 "
       id="polyline160" />
    <polyline
       style="fill-rule:evenodd;fill:none;stroke-width:50.00000215;stroke-miterlimit:4;stroke-dasharray:none"
       points="62811,26727 62811,26372 63007,26372 63007,26727 62811,26727 "
       id="polyline162" />
    <polyline
       style="fill-rule:evenodd;fill:none;stroke-width:50.00000215;stroke-miterlimit:4;stroke-dasharray:none"
       points="63401,26727 63401,26372 63598,26372 63598,26727 63401,26727 "
       id="polyline164" />
    <polyline
       style="fill-rule:evenodd;fill:none;stroke-width:50.00000215;stroke-miterlimit:4;stroke-dasharray:none"
       points="62822,27706 63177,27706 63177,27903 62822,27903 62822,27706 "
       id="polyline166" />
    <polyline
       style="fill-rule:evenodd;fill:none;stroke-width:50.00000215;stroke-miterlimit:4;stroke-dasharray:none"
       points="62822,28296 63177,28296 63177,28493 62822,28493 62822,28296 "
       id="polyline168" />
    <polyline
       style="fill-rule:evenodd;fill:none;stroke-width:50.00000215;stroke-miterlimit:4;stroke-dasharray:none"
       points="64232,34323 64232,33811 64507,33811 64507,34323 64232,34323 "
       id="polyline170" />
    <polyline
       style="fill-rule:evenodd;fill:none;stroke-width:50.00000215;stroke-miterlimit:4;stroke-dasharray:none"
       points="64980,34323 64980,33811 65255,33811 65255,34323 64980,34323 "
       id="polyline172" />
    <polyline
       style="fill-rule:evenodd;fill:none;stroke-width:50.00000215;stroke-miterlimit:4;stroke-dasharray:none"
       points="64494,34888 65005,34888 65005,35163 64494,35163 64494,34888 "
       id="polyline174" />
    <polyline
       style="fill-rule:evenodd;fill:none;stroke-width:50.00000215;stroke-miterlimit:4;stroke-dasharray:none"
       points="64494,35636 65005,35636 65005,35911 64494,35911 64494,35636 "
       id="polyline176" />
    <polyline
       style="fill-rule:evenodd;fill:none;stroke-width:50.00000215;stroke-miterlimit:4;stroke-dasharray:none"
       points="67655,33453 67144,33453 67144,33177 67655,33177 67655,33453 "
       id="polyline178" />
    <polyline
       style="fill-rule:evenodd;fill:none;stroke-width:50.00000215;stroke-miterlimit:4;stroke-dasharray:none"
       points="67655,32705 67144,32705 67144,32429 67655,32429 67655,32705 "
       id="polyline180" />
    <polyline
       style="fill-rule:evenodd;fill:none;stroke-width:50.00000215;stroke-miterlimit:4;stroke-dasharray:none"
       points="65001,25527 65001,25172 65198,25172 65198,25527 65001,25527 "
       id="polyline182" />
    <polyline
       style="fill-rule:evenodd;fill:none;stroke-width:50.00000215;stroke-miterlimit:4;stroke-dasharray:none"
       points="65592,25527 65592,25172 65788,25172 65788,25527 65592,25527 "
       id="polyline184" />
    <polyline
       style="fill-rule:evenodd;fill:none;stroke-width:50.00000215;stroke-miterlimit:4;stroke-dasharray:none"
       points="67855,36035 67344,36035 67344,35760 67855,35760 67855,36035 "
       id="polyline186" />
    <polyline
       style="fill-rule:evenodd;fill:none;stroke-width:50.00000215;stroke-miterlimit:4;stroke-dasharray:none"
       points="67855,35287 67344,35287 67344,35012 67855,35012 67855,35287 "
       id="polyline188" />
    <polyline
       style="fill-rule:evenodd;fill:none;stroke-width:50.00000215;stroke-miterlimit:4;stroke-dasharray:none"
       points="63593,25322 63593,25677 63396,25677 63396,25322 63593,25322 "
       id="polyline190" />
    <polyline
       style="fill-rule:evenodd;fill:none;stroke-width:50.00000215;stroke-miterlimit:4;stroke-dasharray:none"
       points="63003,25322 63003,25677 62806,25677 62806,25322 63003,25322 "
       id="polyline192" />
    <polyline
       style="fill-rule:evenodd;fill:none;stroke-width:50.00000215;stroke-miterlimit:4;stroke-dasharray:none"
       points="63598,25972 63598,26327 63401,26327 63401,25972 63598,25972 "
       id="polyline194" />
    <polyline
       style="fill-rule:evenodd;fill:none;stroke-width:50.00000215;stroke-miterlimit:4;stroke-dasharray:none"
       points="63007,25972 63007,26327 62811,26327 62811,25972 63007,25972 "
       id="polyline196" />
    <polyline
       style="fill-rule:evenodd;fill:none;stroke-width:50.00000215;stroke-miterlimit:4;stroke-dasharray:none"
       points="64956,26527 64956,26172 65153,26172 65153,26527 64956,26527 "
       id="polyline198" />
    <polyline
       style="fill-rule:evenodd;fill:none;stroke-width:50.00000215;stroke-miterlimit:4;stroke-dasharray:none"
       points="65546,26527 65546,26172 65743,26172 65743,26527 65546,26527 "
       id="polyline200" />
    <polyline
       style="fill-rule:evenodd;fill:none;stroke-width:50.00000215;stroke-miterlimit:4;stroke-dasharray:none"
       points="62838,39305 62838,38794 63113,38794 63113,39305 62838,39305 "
       id="polyline202" />
    <polyline
       style="fill-rule:evenodd;fill:none;stroke-width:50.00000215;stroke-miterlimit:4;stroke-dasharray:none"
       points="63586,39305 63586,38794 63861,38794 63861,39305 63586,39305 "
       id="polyline204" />
    <polyline
       style="fill-rule:evenodd;fill:none;stroke-width:50.00000215;stroke-miterlimit:4;stroke-dasharray:none"
       points="55772,24706 56127,24706 56127,24903 55772,24903 55772,24706 "
       id="polyline206" />
    <polyline
       style="fill-rule:evenodd;fill:none;stroke-width:50.00000215;stroke-miterlimit:4;stroke-dasharray:none"
       points="55772,25296 56127,25296 56127,25493 55772,25493 55772,25296 "
       id="polyline208" />
    <polyline
       style="fill-rule:evenodd;fill:none;stroke-width:50.00000215;stroke-miterlimit:4;stroke-dasharray:none"
       points="67250,25200 67900,25200 67900,25500 67250,25500 67250,25200 "
       id="polyline210" />
    <polyline
       style="fill-rule:evenodd;fill:none;stroke-width:50.00000215;stroke-miterlimit:4;stroke-dasharray:none"
       points="66000,25200 66650,25200 66650,25500 66000,25500 66000,25200 "
       id="polyline212" />
    <polyline
       style="fill-rule:evenodd;fill:none;stroke-width:50.00000215;stroke-miterlimit:4;stroke-dasharray:none"
       points="66000,25700 66650,25700 66650,26000 66000,26000 66000,25700 "
       id="polyline214" />
    <polyline
       style="fill-rule:evenodd;fill:none;stroke-width:50.00000215;stroke-miterlimit:4;stroke-dasharray:none"
       points="67250,26200 67900,26200 67900,26500 67250,26500 67250,26200 "
       id="polyline216" />
    <polyline
       style="fill-rule:evenodd;fill:none;stroke-width:50.00000215;stroke-miterlimit:4;stroke-dasharray:none"
       points="66000,26200 66650,26200 66650,26500 66000,26500 66000,26200 "
       id="polyline218" />
    <polyline
       style="fill-rule:evenodd;fill:none;stroke-width:50.00000215;stroke-miterlimit:4;stroke-dasharray:none"
       points="62290,39815 62290,40070 61809,40070 61809,39815 62290,39815 "
       id="polyline220" />
    <polyline
       style="fill-rule:evenodd;fill:none;stroke-width:50.00000215;stroke-miterlimit:4;stroke-dasharray:none"
       points="62290,39440 62290,39696 61809,39696 61809,39440 62290,39440 "
       id="polyline222" />
    <polyline
       style="fill-rule:evenodd;fill:none;stroke-width:50.00000215;stroke-miterlimit:4;stroke-dasharray:none"
       points="62290,39066 62290,39322 61809,39322 61809,39066 62290,39066 "
       id="polyline224" />
    <polyline
       style="fill-rule:evenodd;fill:none;stroke-width:50.00000215;stroke-miterlimit:4;stroke-dasharray:none"
       points="61258,39066 61258,39322 60778,39322 60778,39066 61258,39066 "
       id="polyline226" />
    <polyline
       style="fill-rule:evenodd;fill:none;stroke-width:50.00000215;stroke-miterlimit:4;stroke-dasharray:none"
       points="61258,39440 61258,39696 60778,39696 60778,39440 61258,39440 "
       id="polyline228" />
    <polyline
       style="fill-rule:evenodd;fill:none;stroke-width:50.00000215;stroke-miterlimit:4;stroke-dasharray:none"
       points="61258,39815 61258,40070 60778,40070 60778,39815 61258,39815 "
       id="polyline230" />
    <polyline
       style="fill-rule:evenodd;fill:none;stroke-width:50.00000215;stroke-miterlimit:4;stroke-dasharray:none"
       points="58699,25399 58699,25250 59299,25250 59299,25399 58699,25399 "
       id="polyline232" />
    <polyline
       style="fill-rule:evenodd;fill:none;stroke-width:50.00000215;stroke-miterlimit:4;stroke-dasharray:none"
       points="60900,25399 60900,25250 61500,25250 61500,25399 60900,25399 "
       id="polyline234" />
    <polyline
       style="fill-rule:evenodd;fill:none;stroke-width:50.00000215;stroke-miterlimit:4;stroke-dasharray:none"
       points="58699,25651 58699,25502 59299,25502 59299,25651 58699,25651 "
       id="polyline236" />
    <polyline
       style="fill-rule:evenodd;fill:none;stroke-width:50.00000215;stroke-miterlimit:4;stroke-dasharray:none"
       points="60900,25651 60900,25502 61500,25502 61500,25651 60900,25651 "
       id="polyline238" />
    <polyline
       style="fill-rule:evenodd;fill:none;stroke-width:50.00000215;stroke-miterlimit:4;stroke-dasharray:none"
       points="58699,25903 58699,25754 59299,25754 59299,25903 58699,25903 "
       id="polyline240" />
    <polyline
       style="fill-rule:evenodd;fill:none;stroke-width:50.00000215;stroke-miterlimit:4;stroke-dasharray:none"
       points="60900,25903 60900,25754 61500,25754 61500,25903 60900,25903 "
       id="polyline242" />
    <polyline
       style="fill-rule:evenodd;fill:none;stroke-width:50.00000215;stroke-miterlimit:4;stroke-dasharray:none"
       points="58699,26155 58699,26006 59299,26006 59299,26155 58699,26155 "
       id="polyline244" />
    <polyline
       style="fill-rule:evenodd;fill:none;stroke-width:50.00000215;stroke-miterlimit:4;stroke-dasharray:none"
       points="60900,26155 60900,26006 61500,26006 61500,26155 60900,26155 "
       id="polyline246" />
    <polyline
       style="fill-rule:evenodd;fill:none;stroke-width:50.00000215;stroke-miterlimit:4;stroke-dasharray:none"
       points="58699,26407 58699,26258 59299,26258 59299,26407 58699,26407 "
       id="polyline248" />
    <polyline
       style="fill-rule:evenodd;fill:none;stroke-width:50.00000215;stroke-miterlimit:4;stroke-dasharray:none"
       points="60900,26407 60900,26258 61500,26258 61500,26407 60900,26407 "
       id="polyline250" />
    <polyline
       style="fill-rule:evenodd;fill:none;stroke-width:50.00000215;stroke-miterlimit:4;stroke-dasharray:none"
       points="58699,26659 58699,26510 59299,26510 59299,26659 58699,26659 "
       id="polyline252" />
    <polyline
       style="fill-rule:evenodd;fill:none;stroke-width:50.00000215;stroke-miterlimit:4;stroke-dasharray:none"
       points="60900,26659 60900,26510 61500,26510 61500,26659 60900,26659 "
       id="polyline254" />
    <polyline
       style="fill-rule:evenodd;fill:none;stroke-width:50.00000215;stroke-miterlimit:4;stroke-dasharray:none"
       points="58699,26911 58699,26762 59299,26762 59299,26911 58699,26911 "
       id="polyline256" />
    <polyline
       style="fill-rule:evenodd;fill:none;stroke-width:50.00000215;stroke-miterlimit:4;stroke-dasharray:none"
       points="60900,26911 60900,26762 61500,26762 61500,26911 60900,26911 "
       id="polyline258" />
    <polyline
       style="fill-rule:evenodd;fill:none;stroke-width:50.00000215;stroke-miterlimit:4;stroke-dasharray:none"
       points="58699,27163 58699,27013 59299,27013 59299,27163 58699,27163 "
       id="polyline260" />
    <polyline
       style="fill-rule:evenodd;fill:none;stroke-width:50.00000215;stroke-miterlimit:4;stroke-dasharray:none"
       points="60900,27163 60900,27013 61500,27013 61500,27163 60900,27163 "
       id="polyline262" />
    <polyline
       style="fill-rule:evenodd;fill:none;stroke-width:50.00000215;stroke-miterlimit:4;stroke-dasharray:none"
       points="58699,27415 58699,27265 59299,27265 59299,27415 58699,27415 "
       id="polyline264" />
    <polyline
       style="fill-rule:evenodd;fill:none;stroke-width:50.00000215;stroke-miterlimit:4;stroke-dasharray:none"
       points="60900,27415 60900,27265 61500,27265 61500,27415 60900,27415 "
       id="polyline266" />
    <polyline
       style="fill-rule:evenodd;fill:none;stroke-width:50.00000215;stroke-miterlimit:4;stroke-dasharray:none"
       points="58699,27667 58699,27517 59299,27517 59299,27667 58699,27667 "
       id="polyline268" />
    <polyline
       style="fill-rule:evenodd;fill:none;stroke-width:50.00000215;stroke-miterlimit:4;stroke-dasharray:none"
       points="60900,27667 60900,27517 61500,27517 61500,27667 60900,27667 "
       id="polyline270" />
  </g>
</svg>
