M48
;DRILL file {KiCad 4.0.6} date Friday, May 19, 2017 'PMt' 07:05:13 PM
;FORMAT={-:-/ absolute / inch / decimal}
FMAT,2
INCH,TZ
T1C0.031
T2C0.035
T3C0.039
T4C0.039
T5C0.047
T6C0.059
T7C0.126
%
G90
G05
M72
T1
X5.67Y-2.1566
X5.67Y-2.255
X5.795Y-3.26
X5.795Y-3.36
X5.795Y-3.46
X5.795Y-3.56
X6.095Y-3.26
X6.095Y-3.36
X6.095Y-3.46
X6.095Y-3.56
X6.3244Y-3.2567
X6.3244Y-3.3567
X6.3244Y-3.4567
X6.3244Y-3.5567
X6.6244Y-3.2567
X6.6244Y-3.3567
X6.6244Y-3.4567
X6.6244Y-3.5567
T2
X5.045Y-3.935
X5.1Y-3.39
X5.385Y-3.675
X5.465Y-3.68
X5.55Y-3.29
X5.615Y-3.17
X5.66Y-3.405
X5.67Y-2.47
X5.675Y-2.555
X5.925Y-2.295
X6.115Y-3.675
X6.155Y-3.85
X6.2Y-2.57
X6.205Y-3.66
X6.215Y-3.405
X6.215Y-3.57
X6.3Y-2.905
X6.305Y-2.725
T3
X4.91Y-3.755
X4.91Y-3.855
X4.935Y-2.515
X4.935Y-2.615
X5.005Y-2.9
X5.005Y-3.245
X5.105Y-2.9
X5.105Y-3.245
X5.205Y-2.9
X5.205Y-3.245
X5.21Y-3.655
X5.21Y-3.755
X5.21Y-3.855
X5.395Y-2.775
X5.395Y-2.875
X5.775Y-2.855
X5.775Y-2.955
T4
X5.38Y-2.345
X5.68Y-3.955
X6.55Y-2.85
X6.64Y-3.895
T5
X4.785Y-2.75
X4.785Y-3.25
T6
X5.2737Y-2.2387
X5.2737Y-2.4513
X5.4863Y-2.2387
X5.4863Y-2.4513
X5.5737Y-3.8487
X5.5737Y-4.0613
X5.7863Y-3.8487
X5.7863Y-4.0613
X6.4437Y-2.7437
X6.4437Y-2.9563
X6.5337Y-3.7887
X6.5337Y-4.0013
X6.6563Y-2.7437
X6.6563Y-2.9563
X6.7463Y-3.7887
X6.7463Y-4.0013
T7
X4.65Y-2.15
X4.65Y-4.35
X6.85Y-2.15
X6.85Y-4.35
T0
M30
