G04 #@! TF.FileFunction,Copper,L2,Bot,Signal*
%FSLAX46Y46*%
G04 Gerber Fmt 4.6, Leading zero omitted, Abs format (unit mm)*
G04 Created by KiCad (PCBNEW 4.0.6) date Friday, May 19, 2017 'PMt' 07:05:11 PM*
%MOMM*%
%LPD*%
G01*
G04 APERTURE LIST*
%ADD10C,0.100000*%
%ADD11R,1.300000X1.300000*%
%ADD12C,1.300000*%
%ADD13R,1.700000X1.700000*%
%ADD14O,1.700000X1.700000*%
%ADD15C,1.998980*%
%ADD16C,2.500000*%
%ADD17R,1.800000X1.800000*%
%ADD18O,1.800000X1.800000*%
%ADD19C,2.400000*%
%ADD20O,2.400000X2.400000*%
%ADD21O,1.600000X1.600000*%
%ADD22C,1.524000*%
%ADD23C,0.381000*%
%ADD24C,0.762000*%
%ADD25C,0.457200*%
G04 APERTURE END LIST*
D10*
D11*
X144018000Y-57277000D03*
D12*
X144018000Y-54777000D03*
D13*
X125349000Y-66421000D03*
D14*
X125349000Y-63881000D03*
D15*
X136652000Y-59563000D03*
D16*
X139352020Y-62263020D03*
X133951980Y-62263020D03*
X133951980Y-56862980D03*
X139352020Y-56862980D03*
D13*
X124714000Y-95377000D03*
D14*
X124714000Y-97917000D03*
D13*
X137033000Y-70485000D03*
D14*
X137033000Y-73025000D03*
D13*
X146685000Y-75057000D03*
D14*
X146685000Y-72517000D03*
D17*
X132207000Y-82423000D03*
D18*
X129667000Y-82423000D03*
X127127000Y-82423000D03*
D17*
X132207000Y-73660000D03*
D18*
X129667000Y-73660000D03*
X127127000Y-73660000D03*
D19*
X121539000Y-82550000D03*
D20*
X121539000Y-69850000D03*
D17*
X132334000Y-97917000D03*
D18*
X132334000Y-95377000D03*
X132334000Y-92837000D03*
D15*
X168656000Y-98933000D03*
D16*
X165955980Y-96232980D03*
X171356020Y-96232980D03*
X171356020Y-101633020D03*
X165955980Y-101633020D03*
D15*
X166370000Y-72390000D03*
D16*
X169070020Y-75090020D03*
X163669980Y-75090020D03*
X163669980Y-69689980D03*
X169070020Y-69689980D03*
D15*
X144272000Y-100457000D03*
D16*
X146972020Y-103157020D03*
X141571980Y-103157020D03*
X141571980Y-97756980D03*
X146972020Y-97756980D03*
D21*
X168260038Y-82721340D03*
X168260038Y-85261340D03*
X168260038Y-87801340D03*
X168260038Y-90341340D03*
X160640038Y-90341340D03*
X160640038Y-87801340D03*
X160640038Y-85261340D03*
X160640038Y-82721340D03*
X154813000Y-82804000D03*
X154813000Y-85344000D03*
X154813000Y-87884000D03*
X154813000Y-90424000D03*
X147193000Y-90424000D03*
X147193000Y-87884000D03*
X147193000Y-85344000D03*
X147193000Y-82804000D03*
D22*
X150495000Y-58293000D03*
X144145000Y-64897000D03*
X129540000Y-86106000D03*
X128143000Y-99949000D03*
X138811000Y-93472000D03*
X155321000Y-93345000D03*
X142621000Y-80518000D03*
X160020000Y-73787000D03*
X140970000Y-83566000D03*
X144018000Y-62738000D03*
X156337000Y-97790000D03*
X157607000Y-92964000D03*
X157861000Y-90678000D03*
X157861000Y-86487000D03*
X143764000Y-86487000D03*
X136779000Y-93345000D03*
X160147000Y-69215000D03*
X157480000Y-65278000D03*
D23*
X144145000Y-64897000D02*
X150495000Y-58547000D01*
X150495000Y-58547000D02*
X150495000Y-58293000D01*
D24*
X128143000Y-99949000D02*
X129540000Y-98552000D01*
X129540000Y-98552000D02*
X129540000Y-86106000D01*
D23*
X155321000Y-93345000D02*
X138938000Y-93345000D01*
X138938000Y-93345000D02*
X138811000Y-93472000D01*
D25*
X160020000Y-73787000D02*
X153289000Y-80518000D01*
X153289000Y-80518000D02*
X142621000Y-80518000D01*
X144018000Y-62738000D02*
X140970000Y-65786000D01*
X140970000Y-65786000D02*
X140970000Y-83566000D01*
X157607000Y-92964000D02*
X157607000Y-96520000D01*
X157607000Y-96520000D02*
X156337000Y-97790000D01*
X157861000Y-86487000D02*
X157861000Y-90678000D01*
X136779000Y-93345000D02*
X143637000Y-86487000D01*
X143637000Y-86487000D02*
X143764000Y-86487000D01*
X160147000Y-69215000D02*
X157480000Y-66548000D01*
X157480000Y-66548000D02*
X157480000Y-65278000D01*
M02*
