G04 #@! TF.FileFunction,Other,Fab,Top*
%FSLAX46Y46*%
G04 Gerber Fmt 4.6, Leading zero omitted, Abs format (unit mm)*
G04 Created by KiCad (PCBNEW 4.0.7) date Friday, November 17, 2017 'PMt' 12:47:33 PM*
%MOMM*%
%LPD*%
G01*
G04 APERTURE LIST*
%ADD10C,0.100000*%
%ADD11C,0.120000*%
%ADD12C,0.150000*%
%ADD13C,0.075000*%
G04 APERTURE END LIST*
D10*
X155359000Y-99930000D02*
X155359000Y-100730000D01*
X153759000Y-99930000D02*
X155359000Y-99930000D01*
X153759000Y-100730000D02*
X153759000Y-99930000D01*
X155359000Y-100730000D02*
X153759000Y-100730000D01*
D11*
X147188000Y-99586000D02*
X147188000Y-99586000D01*
D12*
X146998000Y-99586000D02*
X147188000Y-99586000D01*
X145878000Y-100706000D02*
X146998000Y-99586000D01*
X149778000Y-108186000D02*
X149778000Y-99586000D01*
X147193000Y-99586000D02*
X149778000Y-99586000D01*
X145878000Y-108186000D02*
X145878000Y-100711000D01*
X145878000Y-108186000D02*
X149778000Y-108186000D01*
D10*
X136128000Y-92085000D02*
X136128000Y-93335000D01*
X134128000Y-92085000D02*
X136128000Y-92085000D01*
X134128000Y-93335000D02*
X134128000Y-92085000D01*
X136128000Y-93335000D02*
X134128000Y-93335000D01*
D12*
X140671500Y-94716500D02*
X139871500Y-94716500D01*
X140671500Y-93116500D02*
X140671500Y-94716500D01*
X139871500Y-93116500D02*
X140671500Y-93116500D01*
X139871500Y-94716500D02*
X139871500Y-93116500D01*
X134849500Y-95803500D02*
X134849500Y-94823500D01*
X134849500Y-94823500D02*
X136549500Y-94823500D01*
X136549500Y-94823500D02*
X136549500Y-95803500D01*
X136549500Y-95803500D02*
X134849500Y-95803500D01*
X142417000Y-101454000D02*
X142417000Y-102254000D01*
X140817000Y-101454000D02*
X142417000Y-101454000D01*
X140817000Y-102254000D02*
X140817000Y-101454000D01*
X142417000Y-102254000D02*
X140817000Y-102254000D01*
X157626000Y-102146000D02*
X156826000Y-102146000D01*
X157626000Y-100546000D02*
X157626000Y-102146000D01*
X156826000Y-100546000D02*
X157626000Y-100546000D01*
X156826000Y-102146000D02*
X156826000Y-100546000D01*
X137649000Y-103848000D02*
X138449000Y-103848000D01*
X137649000Y-105448000D02*
X137649000Y-103848000D01*
X138449000Y-105448000D02*
X137649000Y-105448000D01*
X138449000Y-103848000D02*
X138449000Y-105448000D01*
X139789000Y-105556000D02*
X139789000Y-104756000D01*
X141389000Y-105556000D02*
X139789000Y-105556000D01*
X141389000Y-104756000D02*
X141389000Y-105556000D01*
X139789000Y-104756000D02*
X141389000Y-104756000D01*
X157626000Y-105194000D02*
X156826000Y-105194000D01*
X157626000Y-103594000D02*
X157626000Y-105194000D01*
X156826000Y-103594000D02*
X157626000Y-103594000D01*
X156826000Y-105194000D02*
X156826000Y-103594000D01*
X152762000Y-106642000D02*
X153562000Y-106642000D01*
X152762000Y-108242000D02*
X152762000Y-106642000D01*
X153562000Y-108242000D02*
X152762000Y-108242000D01*
X153562000Y-106642000D02*
X153562000Y-108242000D01*
X151238000Y-109055000D02*
X152038000Y-109055000D01*
X151238000Y-110655000D02*
X151238000Y-109055000D01*
X152038000Y-110655000D02*
X151238000Y-110655000D01*
X152038000Y-109055000D02*
X152038000Y-110655000D01*
X146158000Y-109436000D02*
X146958000Y-109436000D01*
X146158000Y-111036000D02*
X146158000Y-109436000D01*
X146958000Y-111036000D02*
X146158000Y-111036000D01*
X146958000Y-109436000D02*
X146958000Y-111036000D01*
X149460000Y-109055000D02*
X150260000Y-109055000D01*
X149460000Y-110655000D02*
X149460000Y-109055000D01*
X150260000Y-110655000D02*
X149460000Y-110655000D01*
X150260000Y-109055000D02*
X150260000Y-110655000D01*
X150768000Y-97574000D02*
X149968000Y-97574000D01*
X150768000Y-95974000D02*
X150768000Y-97574000D01*
X149968000Y-95974000D02*
X150768000Y-95974000D01*
X149968000Y-97574000D02*
X149968000Y-95974000D01*
X150768000Y-94653000D02*
X149968000Y-94653000D01*
X150768000Y-93053000D02*
X150768000Y-94653000D01*
X149968000Y-93053000D02*
X150768000Y-93053000D01*
X149968000Y-94653000D02*
X149968000Y-93053000D01*
X161010500Y-93389500D02*
X161010500Y-94189500D01*
X159410500Y-93389500D02*
X161010500Y-93389500D01*
X159410500Y-94189500D02*
X159410500Y-93389500D01*
X161010500Y-94189500D02*
X159410500Y-94189500D01*
X153251000Y-92221000D02*
X153251000Y-91421000D01*
X154851000Y-92221000D02*
X153251000Y-92221000D01*
X154851000Y-91421000D02*
X154851000Y-92221000D01*
X153251000Y-91421000D02*
X154851000Y-91421000D01*
X142405000Y-97771000D02*
X142405000Y-98571000D01*
X140805000Y-97771000D02*
X142405000Y-97771000D01*
X140805000Y-98571000D02*
X140805000Y-97771000D01*
X142405000Y-98571000D02*
X140805000Y-98571000D01*
X140678000Y-96920000D02*
X140678000Y-96120000D01*
X142278000Y-96920000D02*
X140678000Y-96920000D01*
X142278000Y-96120000D02*
X142278000Y-96920000D01*
X140678000Y-96120000D02*
X142278000Y-96120000D01*
X148247000Y-97898000D02*
X148247000Y-98698000D01*
X146647000Y-97898000D02*
X148247000Y-97898000D01*
X146647000Y-98698000D02*
X146647000Y-97898000D01*
X148247000Y-98698000D02*
X146647000Y-98698000D01*
X143599000Y-98571000D02*
X143599000Y-97771000D01*
X145199000Y-98571000D02*
X143599000Y-98571000D01*
X145199000Y-97771000D02*
X145199000Y-98571000D01*
X143599000Y-97771000D02*
X145199000Y-97771000D01*
D10*
X138157000Y-96609000D02*
X138957000Y-96609000D01*
X138157000Y-98209000D02*
X138157000Y-96609000D01*
X138957000Y-98209000D02*
X138157000Y-98209000D01*
X138957000Y-96609000D02*
X138957000Y-98209000D01*
X140817000Y-100349000D02*
X140817000Y-99549000D01*
X142417000Y-100349000D02*
X140817000Y-100349000D01*
X142417000Y-99549000D02*
X142417000Y-100349000D01*
X140817000Y-99549000D02*
X142417000Y-99549000D01*
X153759000Y-98952000D02*
X153759000Y-98152000D01*
X155359000Y-98952000D02*
X153759000Y-98952000D01*
X155359000Y-98152000D02*
X155359000Y-98952000D01*
X153759000Y-98152000D02*
X155359000Y-98152000D01*
X153886000Y-104286000D02*
X153886000Y-103486000D01*
X155486000Y-104286000D02*
X153886000Y-104286000D01*
X155486000Y-103486000D02*
X155486000Y-104286000D01*
X153886000Y-103486000D02*
X155486000Y-103486000D01*
X154413000Y-105880000D02*
X155213000Y-105880000D01*
X154413000Y-107480000D02*
X154413000Y-105880000D01*
X155213000Y-107480000D02*
X154413000Y-107480000D01*
X155213000Y-105880000D02*
X155213000Y-107480000D01*
X158604000Y-100419000D02*
X159404000Y-100419000D01*
X158604000Y-102019000D02*
X158604000Y-100419000D01*
X159404000Y-102019000D02*
X158604000Y-102019000D01*
X159404000Y-100419000D02*
X159404000Y-102019000D01*
X155359000Y-101708000D02*
X155359000Y-102508000D01*
X153759000Y-101708000D02*
X155359000Y-101708000D01*
X153759000Y-102508000D02*
X153759000Y-101708000D01*
X155359000Y-102508000D02*
X153759000Y-102508000D01*
X158604000Y-103467000D02*
X159404000Y-103467000D01*
X158604000Y-105067000D02*
X158604000Y-103467000D01*
X159404000Y-105067000D02*
X158604000Y-105067000D01*
X159404000Y-103467000D02*
X159404000Y-105067000D01*
X157242000Y-98034000D02*
X157242000Y-96784000D01*
X159242000Y-98034000D02*
X157242000Y-98034000D01*
X159242000Y-96784000D02*
X159242000Y-98034000D01*
X157242000Y-96784000D02*
X159242000Y-96784000D01*
X138030000Y-99784000D02*
X138830000Y-99784000D01*
X138030000Y-101384000D02*
X138030000Y-99784000D01*
X138830000Y-101384000D02*
X138030000Y-101384000D01*
X138830000Y-99784000D02*
X138830000Y-101384000D01*
X154804000Y-95615000D02*
X154354000Y-96065000D01*
X153044000Y-96065000D02*
X154354000Y-96065000D01*
X154804000Y-95615000D02*
X154804000Y-93165000D01*
X153044000Y-93165000D02*
X154804000Y-93165000D01*
X153044000Y-96065000D02*
X153044000Y-93165000D01*
X138576000Y-94653000D02*
X137776000Y-94653000D01*
X138576000Y-93053000D02*
X138576000Y-94653000D01*
X137776000Y-93053000D02*
X138576000Y-93053000D01*
X137776000Y-94653000D02*
X137776000Y-93053000D01*
X132861000Y-103670000D02*
X132061000Y-103670000D01*
X132861000Y-102070000D02*
X132861000Y-103670000D01*
X132061000Y-102070000D02*
X132861000Y-102070000D01*
X132061000Y-103670000D02*
X132061000Y-102070000D01*
D12*
X163728500Y-112350500D02*
X163728500Y-111550500D01*
X165328500Y-112350500D02*
X163728500Y-112350500D01*
X165328500Y-111550500D02*
X165328500Y-112350500D01*
X163728500Y-111550500D02*
X165328500Y-111550500D01*
X161499500Y-98272500D02*
X160699500Y-98272500D01*
X161499500Y-96672500D02*
X161499500Y-98272500D01*
X160699500Y-96672500D02*
X161499500Y-96672500D01*
X160699500Y-98272500D02*
X160699500Y-96672500D01*
X133515000Y-107296000D02*
X133515000Y-108096000D01*
X131915000Y-107296000D02*
X133515000Y-107296000D01*
X131915000Y-108096000D02*
X131915000Y-107296000D01*
X133515000Y-108096000D02*
X131915000Y-108096000D01*
D10*
X128584500Y-102870000D02*
X128584500Y-100330000D01*
X128584500Y-100330000D02*
X126084500Y-100330000D01*
X126084500Y-100330000D02*
X126084500Y-102870000D01*
X126084500Y-102870000D02*
X128584500Y-102870000D01*
X129984500Y-101920000D02*
X129984500Y-101280000D01*
X129984500Y-101280000D02*
X120084500Y-101280000D01*
X120084500Y-101280000D02*
X120084500Y-101920000D01*
X120084500Y-101920000D02*
X129984500Y-101920000D01*
X128584500Y-100330000D02*
X128584500Y-97790000D01*
X128584500Y-97790000D02*
X126084500Y-97790000D01*
X126084500Y-97790000D02*
X126084500Y-100330000D01*
X126084500Y-100330000D02*
X128584500Y-100330000D01*
X129984500Y-99380000D02*
X129984500Y-98740000D01*
X129984500Y-98740000D02*
X120084500Y-98740000D01*
X120084500Y-98740000D02*
X120084500Y-99380000D01*
X120084500Y-99380000D02*
X129984500Y-99380000D01*
D12*
X136521000Y-106237000D02*
X133481000Y-106237000D01*
X133481000Y-104837000D02*
X133481000Y-106237000D01*
X136521000Y-104837000D02*
X136521000Y-106237000D01*
X136521000Y-104837000D02*
X133481000Y-104837000D01*
X131129000Y-104271000D02*
X131129000Y-107311000D01*
X129729000Y-107311000D02*
X131129000Y-107311000D01*
X129729000Y-104271000D02*
X131129000Y-104271000D01*
X129729000Y-104271000D02*
X129729000Y-107311000D01*
X153892334Y-98882381D02*
X153320905Y-98882381D01*
X153606619Y-98882381D02*
X153606619Y-97882381D01*
X153511381Y-98025238D01*
X153416143Y-98120476D01*
X153320905Y-98168095D01*
X154511381Y-97882381D02*
X154606620Y-97882381D01*
X154701858Y-97930000D01*
X154749477Y-97977619D01*
X154797096Y-98072857D01*
X154844715Y-98263333D01*
X154844715Y-98501429D01*
X154797096Y-98691905D01*
X154749477Y-98787143D01*
X154701858Y-98834762D01*
X154606620Y-98882381D01*
X154511381Y-98882381D01*
X154416143Y-98834762D01*
X154368524Y-98787143D01*
X154320905Y-98691905D01*
X154273286Y-98501429D01*
X154273286Y-98263333D01*
X154320905Y-98072857D01*
X154368524Y-97977619D01*
X154416143Y-97930000D01*
X154511381Y-97882381D01*
X155463762Y-97882381D02*
X155559001Y-97882381D01*
X155654239Y-97930000D01*
X155701858Y-97977619D01*
X155749477Y-98072857D01*
X155797096Y-98263333D01*
X155797096Y-98501429D01*
X155749477Y-98691905D01*
X155701858Y-98787143D01*
X155654239Y-98834762D01*
X155559001Y-98882381D01*
X155463762Y-98882381D01*
X155368524Y-98834762D01*
X155320905Y-98787143D01*
X155273286Y-98691905D01*
X155225667Y-98501429D01*
X155225667Y-98263333D01*
X155273286Y-98072857D01*
X155320905Y-97977619D01*
X155368524Y-97930000D01*
X155463762Y-97882381D01*
X145185143Y-110052667D02*
X145661334Y-110052667D01*
X145089905Y-110338381D02*
X145423238Y-109338381D01*
X145756572Y-110338381D01*
X146089905Y-110338381D02*
X146089905Y-109338381D01*
X146328000Y-109338381D01*
X146470858Y-109386000D01*
X146566096Y-109481238D01*
X146613715Y-109576476D01*
X146661334Y-109766952D01*
X146661334Y-109909810D01*
X146613715Y-110100286D01*
X146566096Y-110195524D01*
X146470858Y-110290762D01*
X146328000Y-110338381D01*
X146089905Y-110338381D01*
X147232762Y-109766952D02*
X147137524Y-109719333D01*
X147089905Y-109671714D01*
X147042286Y-109576476D01*
X147042286Y-109528857D01*
X147089905Y-109433619D01*
X147137524Y-109386000D01*
X147232762Y-109338381D01*
X147423239Y-109338381D01*
X147518477Y-109386000D01*
X147566096Y-109433619D01*
X147613715Y-109528857D01*
X147613715Y-109576476D01*
X147566096Y-109671714D01*
X147518477Y-109719333D01*
X147423239Y-109766952D01*
X147232762Y-109766952D01*
X147137524Y-109814571D01*
X147089905Y-109862190D01*
X147042286Y-109957429D01*
X147042286Y-110147905D01*
X147089905Y-110243143D01*
X147137524Y-110290762D01*
X147232762Y-110338381D01*
X147423239Y-110338381D01*
X147518477Y-110290762D01*
X147566096Y-110243143D01*
X147613715Y-110147905D01*
X147613715Y-109957429D01*
X147566096Y-109862190D01*
X147518477Y-109814571D01*
X147423239Y-109766952D01*
X147947048Y-109338381D02*
X148566096Y-109338381D01*
X148232762Y-109719333D01*
X148375620Y-109719333D01*
X148470858Y-109766952D01*
X148518477Y-109814571D01*
X148566096Y-109909810D01*
X148566096Y-110147905D01*
X148518477Y-110243143D01*
X148470858Y-110290762D01*
X148375620Y-110338381D01*
X148089905Y-110338381D01*
X147994667Y-110290762D01*
X147947048Y-110243143D01*
X148899429Y-109338381D02*
X149518477Y-109338381D01*
X149185143Y-109719333D01*
X149328001Y-109719333D01*
X149423239Y-109766952D01*
X149470858Y-109814571D01*
X149518477Y-109909810D01*
X149518477Y-110147905D01*
X149470858Y-110243143D01*
X149423239Y-110290762D01*
X149328001Y-110338381D01*
X149042286Y-110338381D01*
X148947048Y-110290762D01*
X148899429Y-110243143D01*
X150470858Y-110338381D02*
X149899429Y-110338381D01*
X150185143Y-110338381D02*
X150185143Y-109338381D01*
X150089905Y-109481238D01*
X149994667Y-109576476D01*
X149899429Y-109624095D01*
X134461334Y-91062381D02*
X133889905Y-91062381D01*
X134175619Y-91062381D02*
X134175619Y-90062381D01*
X134080381Y-90205238D01*
X133985143Y-90300476D01*
X133889905Y-90348095D01*
X135080381Y-90062381D02*
X135175620Y-90062381D01*
X135270858Y-90110000D01*
X135318477Y-90157619D01*
X135366096Y-90252857D01*
X135413715Y-90443333D01*
X135413715Y-90681429D01*
X135366096Y-90871905D01*
X135318477Y-90967143D01*
X135270858Y-91014762D01*
X135175620Y-91062381D01*
X135080381Y-91062381D01*
X134985143Y-91014762D01*
X134937524Y-90967143D01*
X134889905Y-90871905D01*
X134842286Y-90681429D01*
X134842286Y-90443333D01*
X134889905Y-90252857D01*
X134937524Y-90157619D01*
X134985143Y-90110000D01*
X135080381Y-90062381D01*
X136032762Y-90062381D02*
X136128001Y-90062381D01*
X136223239Y-90110000D01*
X136270858Y-90157619D01*
X136318477Y-90252857D01*
X136366096Y-90443333D01*
X136366096Y-90681429D01*
X136318477Y-90871905D01*
X136270858Y-90967143D01*
X136223239Y-91014762D01*
X136128001Y-91062381D01*
X136032762Y-91062381D01*
X135937524Y-91014762D01*
X135889905Y-90967143D01*
X135842286Y-90871905D01*
X135794667Y-90681429D01*
X135794667Y-90443333D01*
X135842286Y-90252857D01*
X135889905Y-90157619D01*
X135937524Y-90110000D01*
X136032762Y-90062381D01*
X142623881Y-94083166D02*
X142623881Y-94654595D01*
X142623881Y-94368881D02*
X141623881Y-94368881D01*
X141766738Y-94464119D01*
X141861976Y-94559357D01*
X141909595Y-94654595D01*
X141957214Y-93654595D02*
X142623881Y-93654595D01*
X142052452Y-93654595D02*
X142004833Y-93606976D01*
X141957214Y-93511738D01*
X141957214Y-93368880D01*
X142004833Y-93273642D01*
X142100071Y-93226023D01*
X142623881Y-93226023D01*
X127176045Y-97701361D02*
X127176045Y-96701361D01*
X127509379Y-97415647D01*
X127842712Y-96701361D01*
X127842712Y-97701361D01*
X128318902Y-97701361D02*
X128318902Y-96701361D01*
X128556997Y-96701361D01*
X128699855Y-96748980D01*
X128795093Y-96844218D01*
X128842712Y-96939456D01*
X128890331Y-97129932D01*
X128890331Y-97272790D01*
X128842712Y-97463266D01*
X128795093Y-97558504D01*
X128699855Y-97653742D01*
X128556997Y-97701361D01*
X128318902Y-97701361D01*
X129509378Y-96701361D02*
X129604617Y-96701361D01*
X129699855Y-96748980D01*
X129747474Y-96796599D01*
X129795093Y-96891837D01*
X129842712Y-97082313D01*
X129842712Y-97320409D01*
X129795093Y-97510885D01*
X129747474Y-97606123D01*
X129699855Y-97653742D01*
X129604617Y-97701361D01*
X129509378Y-97701361D01*
X129414140Y-97653742D01*
X129366521Y-97606123D01*
X129318902Y-97510885D01*
X129271283Y-97320409D01*
X129271283Y-97082313D01*
X129318902Y-96891837D01*
X129366521Y-96796599D01*
X129414140Y-96748980D01*
X129509378Y-96701361D01*
X130795093Y-97701361D02*
X130223664Y-97701361D01*
X130509378Y-97701361D02*
X130509378Y-96701361D01*
X130414140Y-96844218D01*
X130318902Y-96939456D01*
X130223664Y-96987075D01*
X131414140Y-96701361D02*
X131509379Y-96701361D01*
X131604617Y-96748980D01*
X131652236Y-96796599D01*
X131699855Y-96891837D01*
X131747474Y-97082313D01*
X131747474Y-97320409D01*
X131699855Y-97510885D01*
X131652236Y-97606123D01*
X131604617Y-97653742D01*
X131509379Y-97701361D01*
X131414140Y-97701361D01*
X131318902Y-97653742D01*
X131271283Y-97606123D01*
X131223664Y-97510885D01*
X131176045Y-97320409D01*
X131176045Y-97082313D01*
X131223664Y-96891837D01*
X131271283Y-96796599D01*
X131318902Y-96748980D01*
X131414140Y-96701361D01*
X132366521Y-96701361D02*
X132461760Y-96701361D01*
X132556998Y-96748980D01*
X132604617Y-96796599D01*
X132652236Y-96891837D01*
X132699855Y-97082313D01*
X132699855Y-97320409D01*
X132652236Y-97510885D01*
X132604617Y-97606123D01*
X132556998Y-97653742D01*
X132461760Y-97701361D01*
X132366521Y-97701361D01*
X132271283Y-97653742D01*
X132223664Y-97606123D01*
X132176045Y-97510885D01*
X132128426Y-97320409D01*
X132128426Y-97082313D01*
X132176045Y-96891837D01*
X132223664Y-96796599D01*
X132271283Y-96748980D01*
X132366521Y-96701361D01*
X133128426Y-97701361D02*
X133128426Y-96701361D01*
X133699855Y-97701361D01*
X133699855Y-96701361D01*
X134318902Y-97129932D02*
X134223664Y-97082313D01*
X134176045Y-97034694D01*
X134128426Y-96939456D01*
X134128426Y-96891837D01*
X134176045Y-96796599D01*
X134223664Y-96748980D01*
X134318902Y-96701361D01*
X134509379Y-96701361D01*
X134604617Y-96748980D01*
X134652236Y-96796599D01*
X134699855Y-96891837D01*
X134699855Y-96939456D01*
X134652236Y-97034694D01*
X134604617Y-97082313D01*
X134509379Y-97129932D01*
X134318902Y-97129932D01*
X134223664Y-97177551D01*
X134176045Y-97225170D01*
X134128426Y-97320409D01*
X134128426Y-97510885D01*
X134176045Y-97606123D01*
X134223664Y-97653742D01*
X134318902Y-97701361D01*
X134509379Y-97701361D01*
X134604617Y-97653742D01*
X134652236Y-97606123D01*
X134699855Y-97510885D01*
X134699855Y-97320409D01*
X134652236Y-97225170D01*
X134604617Y-97177551D01*
X134509379Y-97129932D01*
X137547357Y-97008738D02*
X137585452Y-96894452D01*
X137623548Y-96856357D01*
X137699738Y-96818262D01*
X137814024Y-96818262D01*
X137890214Y-96856357D01*
X137928310Y-96894452D01*
X137966405Y-96970643D01*
X137966405Y-97275405D01*
X137166405Y-97275405D01*
X137166405Y-97008738D01*
X137204500Y-96932548D01*
X137242595Y-96894452D01*
X137318786Y-96856357D01*
X137394976Y-96856357D01*
X137471167Y-96894452D01*
X137509262Y-96932548D01*
X137547357Y-97008738D01*
X137547357Y-97275405D01*
X137737833Y-96513500D02*
X137737833Y-96132548D01*
X137966405Y-96589691D02*
X137166405Y-96323024D01*
X137966405Y-96056357D01*
X137166405Y-95903977D02*
X137966405Y-95637310D01*
X137166405Y-95370643D01*
X137966405Y-95065882D02*
X137966405Y-94913501D01*
X137928310Y-94837310D01*
X137890214Y-94799215D01*
X137775929Y-94723024D01*
X137623548Y-94684929D01*
X137318786Y-94684929D01*
X137242595Y-94723024D01*
X137204500Y-94761120D01*
X137166405Y-94837310D01*
X137166405Y-94989691D01*
X137204500Y-95065882D01*
X137242595Y-95103977D01*
X137318786Y-95142072D01*
X137509262Y-95142072D01*
X137585452Y-95103977D01*
X137623548Y-95065882D01*
X137661643Y-94989691D01*
X137661643Y-94837310D01*
X137623548Y-94761120D01*
X137585452Y-94723024D01*
X137509262Y-94684929D01*
X137966405Y-94303977D02*
X137966405Y-94151596D01*
X137928310Y-94075405D01*
X137890214Y-94037310D01*
X137775929Y-93961119D01*
X137623548Y-93923024D01*
X137318786Y-93923024D01*
X137242595Y-93961119D01*
X137204500Y-93999215D01*
X137166405Y-94075405D01*
X137166405Y-94227786D01*
X137204500Y-94303977D01*
X137242595Y-94342072D01*
X137318786Y-94380167D01*
X137509262Y-94380167D01*
X137585452Y-94342072D01*
X137623548Y-94303977D01*
X137661643Y-94227786D01*
X137661643Y-94075405D01*
X137623548Y-93999215D01*
X137585452Y-93961119D01*
X137509262Y-93923024D01*
X137166405Y-93694453D02*
X137166405Y-93237310D01*
X137966405Y-93465881D02*
X137166405Y-93465881D01*
X139902714Y-99406381D02*
X139997953Y-99406381D01*
X140093191Y-99454000D01*
X140140810Y-99501619D01*
X140188429Y-99596857D01*
X140236048Y-99787333D01*
X140236048Y-100025429D01*
X140188429Y-100215905D01*
X140140810Y-100311143D01*
X140093191Y-100358762D01*
X139997953Y-100406381D01*
X139902714Y-100406381D01*
X139807476Y-100358762D01*
X139759857Y-100311143D01*
X139712238Y-100215905D01*
X139664619Y-100025429D01*
X139664619Y-99787333D01*
X139712238Y-99596857D01*
X139759857Y-99501619D01*
X139807476Y-99454000D01*
X139902714Y-99406381D01*
X140664619Y-100311143D02*
X140712238Y-100358762D01*
X140664619Y-100406381D01*
X140617000Y-100358762D01*
X140664619Y-100311143D01*
X140664619Y-100406381D01*
X141664619Y-100406381D02*
X141093190Y-100406381D01*
X141378904Y-100406381D02*
X141378904Y-99406381D01*
X141283666Y-99549238D01*
X141188428Y-99644476D01*
X141093190Y-99692095D01*
X142093190Y-99739714D02*
X142093190Y-100739714D01*
X142569381Y-100263524D02*
X142617000Y-100358762D01*
X142712238Y-100406381D01*
X142093190Y-100263524D02*
X142140809Y-100358762D01*
X142236047Y-100406381D01*
X142426524Y-100406381D01*
X142521762Y-100358762D01*
X142569381Y-100263524D01*
X142569381Y-99739714D01*
X143474143Y-99882571D02*
X143140809Y-99882571D01*
X143140809Y-100406381D02*
X143140809Y-99406381D01*
X143617000Y-99406381D01*
X158578381Y-103060286D02*
X158578381Y-102965047D01*
X158626000Y-102869809D01*
X158673619Y-102822190D01*
X158768857Y-102774571D01*
X158959333Y-102726952D01*
X159197429Y-102726952D01*
X159387905Y-102774571D01*
X159483143Y-102822190D01*
X159530762Y-102869809D01*
X159578381Y-102965047D01*
X159578381Y-103060286D01*
X159530762Y-103155524D01*
X159483143Y-103203143D01*
X159387905Y-103250762D01*
X159197429Y-103298381D01*
X158959333Y-103298381D01*
X158768857Y-103250762D01*
X158673619Y-103203143D01*
X158626000Y-103155524D01*
X158578381Y-103060286D01*
X159483143Y-102298381D02*
X159530762Y-102250762D01*
X159578381Y-102298381D01*
X159530762Y-102346000D01*
X159483143Y-102298381D01*
X159578381Y-102298381D01*
X159578381Y-101298381D02*
X159578381Y-101869810D01*
X159578381Y-101584096D02*
X158578381Y-101584096D01*
X158721238Y-101679334D01*
X158816476Y-101774572D01*
X158864095Y-101869810D01*
X158911714Y-100869810D02*
X159911714Y-100869810D01*
X159435524Y-100393619D02*
X159530762Y-100346000D01*
X159578381Y-100250762D01*
X159435524Y-100869810D02*
X159530762Y-100822191D01*
X159578381Y-100726953D01*
X159578381Y-100536476D01*
X159530762Y-100441238D01*
X159435524Y-100393619D01*
X158911714Y-100393619D01*
X159054571Y-99488857D02*
X159054571Y-99822191D01*
X159578381Y-99822191D02*
X158578381Y-99822191D01*
X158578381Y-99346000D01*
X135601381Y-106362286D02*
X135601381Y-106267047D01*
X135649000Y-106171809D01*
X135696619Y-106124190D01*
X135791857Y-106076571D01*
X135982333Y-106028952D01*
X136220429Y-106028952D01*
X136410905Y-106076571D01*
X136506143Y-106124190D01*
X136553762Y-106171809D01*
X136601381Y-106267047D01*
X136601381Y-106362286D01*
X136553762Y-106457524D01*
X136506143Y-106505143D01*
X136410905Y-106552762D01*
X136220429Y-106600381D01*
X135982333Y-106600381D01*
X135791857Y-106552762D01*
X135696619Y-106505143D01*
X135649000Y-106457524D01*
X135601381Y-106362286D01*
X136506143Y-105600381D02*
X136553762Y-105552762D01*
X136601381Y-105600381D01*
X136553762Y-105648000D01*
X136506143Y-105600381D01*
X136601381Y-105600381D01*
X136601381Y-104600381D02*
X136601381Y-105171810D01*
X136601381Y-104886096D02*
X135601381Y-104886096D01*
X135744238Y-104981334D01*
X135839476Y-105076572D01*
X135887095Y-105171810D01*
X135934714Y-104171810D02*
X136934714Y-104171810D01*
X136458524Y-103695619D02*
X136553762Y-103648000D01*
X136601381Y-103552762D01*
X136458524Y-104171810D02*
X136553762Y-104124191D01*
X136601381Y-104028953D01*
X136601381Y-103838476D01*
X136553762Y-103743238D01*
X136458524Y-103695619D01*
X135934714Y-103695619D01*
X136077571Y-102790857D02*
X136077571Y-103124191D01*
X136601381Y-103124191D02*
X135601381Y-103124191D01*
X135601381Y-102648000D01*
X138874714Y-106508381D02*
X138969953Y-106508381D01*
X139065191Y-106556000D01*
X139112810Y-106603619D01*
X139160429Y-106698857D01*
X139208048Y-106889333D01*
X139208048Y-107127429D01*
X139160429Y-107317905D01*
X139112810Y-107413143D01*
X139065191Y-107460762D01*
X138969953Y-107508381D01*
X138874714Y-107508381D01*
X138779476Y-107460762D01*
X138731857Y-107413143D01*
X138684238Y-107317905D01*
X138636619Y-107127429D01*
X138636619Y-106889333D01*
X138684238Y-106698857D01*
X138731857Y-106603619D01*
X138779476Y-106556000D01*
X138874714Y-106508381D01*
X139636619Y-107413143D02*
X139684238Y-107460762D01*
X139636619Y-107508381D01*
X139589000Y-107460762D01*
X139636619Y-107413143D01*
X139636619Y-107508381D01*
X140636619Y-107508381D02*
X140065190Y-107508381D01*
X140350904Y-107508381D02*
X140350904Y-106508381D01*
X140255666Y-106651238D01*
X140160428Y-106746476D01*
X140065190Y-106794095D01*
X141065190Y-106841714D02*
X141065190Y-107841714D01*
X141541381Y-107365524D02*
X141589000Y-107460762D01*
X141684238Y-107508381D01*
X141065190Y-107365524D02*
X141112809Y-107460762D01*
X141208047Y-107508381D01*
X141398524Y-107508381D01*
X141493762Y-107460762D01*
X141541381Y-107365524D01*
X141541381Y-106841714D01*
X142446143Y-106984571D02*
X142112809Y-106984571D01*
X142112809Y-107508381D02*
X142112809Y-106508381D01*
X142589000Y-106508381D01*
X158578381Y-106108286D02*
X158578381Y-106013047D01*
X158626000Y-105917809D01*
X158673619Y-105870190D01*
X158768857Y-105822571D01*
X158959333Y-105774952D01*
X159197429Y-105774952D01*
X159387905Y-105822571D01*
X159483143Y-105870190D01*
X159530762Y-105917809D01*
X159578381Y-106013047D01*
X159578381Y-106108286D01*
X159530762Y-106203524D01*
X159483143Y-106251143D01*
X159387905Y-106298762D01*
X159197429Y-106346381D01*
X158959333Y-106346381D01*
X158768857Y-106298762D01*
X158673619Y-106251143D01*
X158626000Y-106203524D01*
X158578381Y-106108286D01*
X159483143Y-105346381D02*
X159530762Y-105298762D01*
X159578381Y-105346381D01*
X159530762Y-105394000D01*
X159483143Y-105346381D01*
X159578381Y-105346381D01*
X159578381Y-104346381D02*
X159578381Y-104917810D01*
X159578381Y-104632096D02*
X158578381Y-104632096D01*
X158721238Y-104727334D01*
X158816476Y-104822572D01*
X158864095Y-104917810D01*
X158911714Y-103917810D02*
X159911714Y-103917810D01*
X159435524Y-103441619D02*
X159530762Y-103394000D01*
X159578381Y-103298762D01*
X159435524Y-103917810D02*
X159530762Y-103870191D01*
X159578381Y-103774953D01*
X159578381Y-103584476D01*
X159530762Y-103489238D01*
X159435524Y-103441619D01*
X158911714Y-103441619D01*
X159054571Y-102536857D02*
X159054571Y-102870191D01*
X159578381Y-102870191D02*
X158578381Y-102870191D01*
X158578381Y-102394000D01*
X150714381Y-109156286D02*
X150714381Y-109061047D01*
X150762000Y-108965809D01*
X150809619Y-108918190D01*
X150904857Y-108870571D01*
X151095333Y-108822952D01*
X151333429Y-108822952D01*
X151523905Y-108870571D01*
X151619143Y-108918190D01*
X151666762Y-108965809D01*
X151714381Y-109061047D01*
X151714381Y-109156286D01*
X151666762Y-109251524D01*
X151619143Y-109299143D01*
X151523905Y-109346762D01*
X151333429Y-109394381D01*
X151095333Y-109394381D01*
X150904857Y-109346762D01*
X150809619Y-109299143D01*
X150762000Y-109251524D01*
X150714381Y-109156286D01*
X151619143Y-108394381D02*
X151666762Y-108346762D01*
X151714381Y-108394381D01*
X151666762Y-108442000D01*
X151619143Y-108394381D01*
X151714381Y-108394381D01*
X151714381Y-107394381D02*
X151714381Y-107965810D01*
X151714381Y-107680096D02*
X150714381Y-107680096D01*
X150857238Y-107775334D01*
X150952476Y-107870572D01*
X151000095Y-107965810D01*
X151047714Y-106965810D02*
X152047714Y-106965810D01*
X151571524Y-106489619D02*
X151666762Y-106442000D01*
X151714381Y-106346762D01*
X151571524Y-106965810D02*
X151666762Y-106918191D01*
X151714381Y-106822953D01*
X151714381Y-106632476D01*
X151666762Y-106537238D01*
X151571524Y-106489619D01*
X151047714Y-106489619D01*
X151190571Y-105584857D02*
X151190571Y-105918191D01*
X151714381Y-105918191D02*
X150714381Y-105918191D01*
X150714381Y-105442000D01*
X149190381Y-111569286D02*
X149190381Y-111474047D01*
X149238000Y-111378809D01*
X149285619Y-111331190D01*
X149380857Y-111283571D01*
X149571333Y-111235952D01*
X149809429Y-111235952D01*
X149999905Y-111283571D01*
X150095143Y-111331190D01*
X150142762Y-111378809D01*
X150190381Y-111474047D01*
X150190381Y-111569286D01*
X150142762Y-111664524D01*
X150095143Y-111712143D01*
X149999905Y-111759762D01*
X149809429Y-111807381D01*
X149571333Y-111807381D01*
X149380857Y-111759762D01*
X149285619Y-111712143D01*
X149238000Y-111664524D01*
X149190381Y-111569286D01*
X150095143Y-110807381D02*
X150142762Y-110759762D01*
X150190381Y-110807381D01*
X150142762Y-110855000D01*
X150095143Y-110807381D01*
X150190381Y-110807381D01*
X150190381Y-109807381D02*
X150190381Y-110378810D01*
X150190381Y-110093096D02*
X149190381Y-110093096D01*
X149333238Y-110188334D01*
X149428476Y-110283572D01*
X149476095Y-110378810D01*
X149523714Y-109378810D02*
X150523714Y-109378810D01*
X150047524Y-108902619D02*
X150142762Y-108855000D01*
X150190381Y-108759762D01*
X150047524Y-109378810D02*
X150142762Y-109331191D01*
X150190381Y-109235953D01*
X150190381Y-109045476D01*
X150142762Y-108950238D01*
X150047524Y-108902619D01*
X149523714Y-108902619D01*
X149666571Y-107997857D02*
X149666571Y-108331191D01*
X150190381Y-108331191D02*
X149190381Y-108331191D01*
X149190381Y-107855000D01*
X145110381Y-110831238D02*
X145110381Y-111402667D01*
X145110381Y-111116953D02*
X144110381Y-111116953D01*
X144253238Y-111212191D01*
X144348476Y-111307429D01*
X144396095Y-111402667D01*
X144443714Y-110402667D02*
X145110381Y-110402667D01*
X144538952Y-110402667D02*
X144491333Y-110355048D01*
X144443714Y-110259810D01*
X144443714Y-110116952D01*
X144491333Y-110021714D01*
X144586571Y-109974095D01*
X145110381Y-109974095D01*
X144586571Y-109164571D02*
X144586571Y-109497905D01*
X145110381Y-109497905D02*
X144110381Y-109497905D01*
X144110381Y-109021714D01*
X148412381Y-110450238D02*
X148412381Y-111021667D01*
X148412381Y-110735953D02*
X147412381Y-110735953D01*
X147555238Y-110831191D01*
X147650476Y-110926429D01*
X147698095Y-111021667D01*
X147745714Y-110021667D02*
X148412381Y-110021667D01*
X147840952Y-110021667D02*
X147793333Y-109974048D01*
X147745714Y-109878810D01*
X147745714Y-109735952D01*
X147793333Y-109640714D01*
X147888571Y-109593095D01*
X148412381Y-109593095D01*
X147888571Y-108783571D02*
X147888571Y-109116905D01*
X148412381Y-109116905D02*
X147412381Y-109116905D01*
X147412381Y-108640714D01*
X151720381Y-98178761D02*
X151720381Y-98369238D01*
X151768000Y-98464476D01*
X151815619Y-98512095D01*
X151958476Y-98607333D01*
X152148952Y-98654952D01*
X152529905Y-98654952D01*
X152625143Y-98607333D01*
X152672762Y-98559714D01*
X152720381Y-98464476D01*
X152720381Y-98273999D01*
X152672762Y-98178761D01*
X152625143Y-98131142D01*
X152529905Y-98083523D01*
X152291810Y-98083523D01*
X152196571Y-98131142D01*
X152148952Y-98178761D01*
X152101333Y-98273999D01*
X152101333Y-98464476D01*
X152148952Y-98559714D01*
X152196571Y-98607333D01*
X152291810Y-98654952D01*
X152625143Y-97654952D02*
X152672762Y-97607333D01*
X152720381Y-97654952D01*
X152672762Y-97702571D01*
X152625143Y-97654952D01*
X152720381Y-97654952D01*
X152148952Y-97035905D02*
X152101333Y-97131143D01*
X152053714Y-97178762D01*
X151958476Y-97226381D01*
X151910857Y-97226381D01*
X151815619Y-97178762D01*
X151768000Y-97131143D01*
X151720381Y-97035905D01*
X151720381Y-96845428D01*
X151768000Y-96750190D01*
X151815619Y-96702571D01*
X151910857Y-96654952D01*
X151958476Y-96654952D01*
X152053714Y-96702571D01*
X152101333Y-96750190D01*
X152148952Y-96845428D01*
X152148952Y-97035905D01*
X152196571Y-97131143D01*
X152244190Y-97178762D01*
X152339429Y-97226381D01*
X152529905Y-97226381D01*
X152625143Y-97178762D01*
X152672762Y-97131143D01*
X152720381Y-97035905D01*
X152720381Y-96845428D01*
X152672762Y-96750190D01*
X152625143Y-96702571D01*
X152529905Y-96654952D01*
X152339429Y-96654952D01*
X152244190Y-96702571D01*
X152196571Y-96750190D01*
X152148952Y-96845428D01*
X152053714Y-96226381D02*
X152720381Y-96226381D01*
X152148952Y-96226381D02*
X152101333Y-96178762D01*
X152053714Y-96083524D01*
X152053714Y-95940666D01*
X152101333Y-95845428D01*
X152196571Y-95797809D01*
X152720381Y-95797809D01*
X152196571Y-94988285D02*
X152196571Y-95321619D01*
X152720381Y-95321619D02*
X151720381Y-95321619D01*
X151720381Y-94845428D01*
X151815619Y-95733952D02*
X151768000Y-95686333D01*
X151720381Y-95591095D01*
X151720381Y-95352999D01*
X151768000Y-95257761D01*
X151815619Y-95210142D01*
X151910857Y-95162523D01*
X152006095Y-95162523D01*
X152148952Y-95210142D01*
X152720381Y-95781571D01*
X152720381Y-95162523D01*
X152625143Y-94733952D02*
X152672762Y-94686333D01*
X152720381Y-94733952D01*
X152672762Y-94781571D01*
X152625143Y-94733952D01*
X152720381Y-94733952D01*
X151815619Y-94305381D02*
X151768000Y-94257762D01*
X151720381Y-94162524D01*
X151720381Y-93924428D01*
X151768000Y-93829190D01*
X151815619Y-93781571D01*
X151910857Y-93733952D01*
X152006095Y-93733952D01*
X152148952Y-93781571D01*
X152720381Y-94353000D01*
X152720381Y-93733952D01*
X152053714Y-93305381D02*
X152720381Y-93305381D01*
X152148952Y-93305381D02*
X152101333Y-93257762D01*
X152053714Y-93162524D01*
X152053714Y-93019666D01*
X152101333Y-92924428D01*
X152196571Y-92876809D01*
X152720381Y-92876809D01*
X152196571Y-92067285D02*
X152196571Y-92400619D01*
X152720381Y-92400619D02*
X151720381Y-92400619D01*
X151720381Y-91924428D01*
X158567643Y-91675214D02*
X158567643Y-92341881D01*
X158329547Y-91294262D02*
X158091452Y-92008548D01*
X158710500Y-92008548D01*
X158996214Y-91341881D02*
X159662881Y-91341881D01*
X159234309Y-92341881D01*
X160234309Y-91341881D02*
X160329548Y-91341881D01*
X160424786Y-91389500D01*
X160472405Y-91437119D01*
X160520024Y-91532357D01*
X160567643Y-91722833D01*
X160567643Y-91960929D01*
X160520024Y-92151405D01*
X160472405Y-92246643D01*
X160424786Y-92294262D01*
X160329548Y-92341881D01*
X160234309Y-92341881D01*
X160139071Y-92294262D01*
X160091452Y-92246643D01*
X160043833Y-92151405D01*
X159996214Y-91960929D01*
X159996214Y-91722833D01*
X160043833Y-91532357D01*
X160091452Y-91437119D01*
X160139071Y-91389500D01*
X160234309Y-91341881D01*
X160996214Y-91675214D02*
X160996214Y-92675214D01*
X160996214Y-91722833D02*
X161091452Y-91675214D01*
X161281929Y-91675214D01*
X161377167Y-91722833D01*
X161424786Y-91770452D01*
X161472405Y-91865690D01*
X161472405Y-92151405D01*
X161424786Y-92246643D01*
X161377167Y-92294262D01*
X161281929Y-92341881D01*
X161091452Y-92341881D01*
X160996214Y-92294262D01*
X162234310Y-91818071D02*
X161900976Y-91818071D01*
X161900976Y-92341881D02*
X161900976Y-91341881D01*
X162377167Y-91341881D01*
X152336714Y-93173381D02*
X152431953Y-93173381D01*
X152527191Y-93221000D01*
X152574810Y-93268619D01*
X152622429Y-93363857D01*
X152670048Y-93554333D01*
X152670048Y-93792429D01*
X152622429Y-93982905D01*
X152574810Y-94078143D01*
X152527191Y-94125762D01*
X152431953Y-94173381D01*
X152336714Y-94173381D01*
X152241476Y-94125762D01*
X152193857Y-94078143D01*
X152146238Y-93982905D01*
X152098619Y-93792429D01*
X152098619Y-93554333D01*
X152146238Y-93363857D01*
X152193857Y-93268619D01*
X152241476Y-93221000D01*
X152336714Y-93173381D01*
X153098619Y-94078143D02*
X153146238Y-94125762D01*
X153098619Y-94173381D01*
X153051000Y-94125762D01*
X153098619Y-94078143D01*
X153098619Y-94173381D01*
X154098619Y-94173381D02*
X153527190Y-94173381D01*
X153812904Y-94173381D02*
X153812904Y-93173381D01*
X153717666Y-93316238D01*
X153622428Y-93411476D01*
X153527190Y-93459095D01*
X154527190Y-93506714D02*
X154527190Y-94506714D01*
X155003381Y-94030524D02*
X155051000Y-94125762D01*
X155146238Y-94173381D01*
X154527190Y-94030524D02*
X154574809Y-94125762D01*
X154670047Y-94173381D01*
X154860524Y-94173381D01*
X154955762Y-94125762D01*
X155003381Y-94030524D01*
X155003381Y-93506714D01*
X155908143Y-93649571D02*
X155574809Y-93649571D01*
X155574809Y-94173381D02*
X155574809Y-93173381D01*
X156051000Y-93173381D01*
X140533572Y-96723381D02*
X139962143Y-96723381D01*
X140247857Y-96723381D02*
X140247857Y-95723381D01*
X140152619Y-95866238D01*
X140057381Y-95961476D01*
X139962143Y-96009095D01*
X141105000Y-96151952D02*
X141009762Y-96104333D01*
X140962143Y-96056714D01*
X140914524Y-95961476D01*
X140914524Y-95913857D01*
X140962143Y-95818619D01*
X141009762Y-95771000D01*
X141105000Y-95723381D01*
X141295477Y-95723381D01*
X141390715Y-95771000D01*
X141438334Y-95818619D01*
X141485953Y-95913857D01*
X141485953Y-95961476D01*
X141438334Y-96056714D01*
X141390715Y-96104333D01*
X141295477Y-96151952D01*
X141105000Y-96151952D01*
X141009762Y-96199571D01*
X140962143Y-96247190D01*
X140914524Y-96342429D01*
X140914524Y-96532905D01*
X140962143Y-96628143D01*
X141009762Y-96675762D01*
X141105000Y-96723381D01*
X141295477Y-96723381D01*
X141390715Y-96675762D01*
X141438334Y-96628143D01*
X141485953Y-96532905D01*
X141485953Y-96342429D01*
X141438334Y-96247190D01*
X141390715Y-96199571D01*
X141295477Y-96151952D01*
X141914524Y-96056714D02*
X141914524Y-96723381D01*
X141914524Y-96151952D02*
X141962143Y-96104333D01*
X142057381Y-96056714D01*
X142200239Y-96056714D01*
X142295477Y-96104333D01*
X142343096Y-96199571D01*
X142343096Y-96723381D01*
X143152620Y-96199571D02*
X142819286Y-96199571D01*
X142819286Y-96723381D02*
X142819286Y-95723381D01*
X143295477Y-95723381D01*
X139763714Y-97872381D02*
X139858953Y-97872381D01*
X139954191Y-97920000D01*
X140001810Y-97967619D01*
X140049429Y-98062857D01*
X140097048Y-98253333D01*
X140097048Y-98491429D01*
X140049429Y-98681905D01*
X140001810Y-98777143D01*
X139954191Y-98824762D01*
X139858953Y-98872381D01*
X139763714Y-98872381D01*
X139668476Y-98824762D01*
X139620857Y-98777143D01*
X139573238Y-98681905D01*
X139525619Y-98491429D01*
X139525619Y-98253333D01*
X139573238Y-98062857D01*
X139620857Y-97967619D01*
X139668476Y-97920000D01*
X139763714Y-97872381D01*
X140525619Y-98777143D02*
X140573238Y-98824762D01*
X140525619Y-98872381D01*
X140478000Y-98824762D01*
X140525619Y-98777143D01*
X140525619Y-98872381D01*
X141525619Y-98872381D02*
X140954190Y-98872381D01*
X141239904Y-98872381D02*
X141239904Y-97872381D01*
X141144666Y-98015238D01*
X141049428Y-98110476D01*
X140954190Y-98158095D01*
X141954190Y-98205714D02*
X141954190Y-99205714D01*
X142430381Y-98729524D02*
X142478000Y-98824762D01*
X142573238Y-98872381D01*
X141954190Y-98729524D02*
X142001809Y-98824762D01*
X142097047Y-98872381D01*
X142287524Y-98872381D01*
X142382762Y-98824762D01*
X142430381Y-98729524D01*
X142430381Y-98205714D01*
X143335143Y-98348571D02*
X143001809Y-98348571D01*
X143001809Y-98872381D02*
X143001809Y-97872381D01*
X143478000Y-97872381D01*
X145732714Y-95850381D02*
X145827953Y-95850381D01*
X145923191Y-95898000D01*
X145970810Y-95945619D01*
X146018429Y-96040857D01*
X146066048Y-96231333D01*
X146066048Y-96469429D01*
X146018429Y-96659905D01*
X145970810Y-96755143D01*
X145923191Y-96802762D01*
X145827953Y-96850381D01*
X145732714Y-96850381D01*
X145637476Y-96802762D01*
X145589857Y-96755143D01*
X145542238Y-96659905D01*
X145494619Y-96469429D01*
X145494619Y-96231333D01*
X145542238Y-96040857D01*
X145589857Y-95945619D01*
X145637476Y-95898000D01*
X145732714Y-95850381D01*
X146494619Y-96755143D02*
X146542238Y-96802762D01*
X146494619Y-96850381D01*
X146447000Y-96802762D01*
X146494619Y-96755143D01*
X146494619Y-96850381D01*
X147494619Y-96850381D02*
X146923190Y-96850381D01*
X147208904Y-96850381D02*
X147208904Y-95850381D01*
X147113666Y-95993238D01*
X147018428Y-96088476D01*
X146923190Y-96136095D01*
X147923190Y-96183714D02*
X147923190Y-97183714D01*
X148399381Y-96707524D02*
X148447000Y-96802762D01*
X148542238Y-96850381D01*
X147923190Y-96707524D02*
X147970809Y-96802762D01*
X148066047Y-96850381D01*
X148256524Y-96850381D01*
X148351762Y-96802762D01*
X148399381Y-96707524D01*
X148399381Y-96183714D01*
X149304143Y-96326571D02*
X148970809Y-96326571D01*
X148970809Y-96850381D02*
X148970809Y-95850381D01*
X149447000Y-95850381D01*
X142756143Y-99618619D02*
X142803762Y-99571000D01*
X142899000Y-99523381D01*
X143137096Y-99523381D01*
X143232334Y-99571000D01*
X143279953Y-99618619D01*
X143327572Y-99713857D01*
X143327572Y-99809095D01*
X143279953Y-99951952D01*
X142708524Y-100523381D01*
X143327572Y-100523381D01*
X143708524Y-99618619D02*
X143756143Y-99571000D01*
X143851381Y-99523381D01*
X144089477Y-99523381D01*
X144184715Y-99571000D01*
X144232334Y-99618619D01*
X144279953Y-99713857D01*
X144279953Y-99809095D01*
X144232334Y-99951952D01*
X143660905Y-100523381D01*
X144279953Y-100523381D01*
X144708524Y-99856714D02*
X144708524Y-100856714D01*
X144708524Y-99904333D02*
X144803762Y-99856714D01*
X144994239Y-99856714D01*
X145089477Y-99904333D01*
X145137096Y-99951952D01*
X145184715Y-100047190D01*
X145184715Y-100332905D01*
X145137096Y-100428143D01*
X145089477Y-100475762D01*
X144994239Y-100523381D01*
X144803762Y-100523381D01*
X144708524Y-100475762D01*
X145946620Y-99999571D02*
X145613286Y-99999571D01*
X145613286Y-100523381D02*
X145613286Y-99523381D01*
X146089477Y-99523381D01*
X137109381Y-100361381D02*
X137109381Y-100932810D01*
X137109381Y-100647096D02*
X136109381Y-100647096D01*
X136252238Y-100742334D01*
X136347476Y-100837572D01*
X136395095Y-100932810D01*
X136204619Y-99980429D02*
X136157000Y-99932810D01*
X136109381Y-99837572D01*
X136109381Y-99599476D01*
X136157000Y-99504238D01*
X136204619Y-99456619D01*
X136299857Y-99409000D01*
X136395095Y-99409000D01*
X136537952Y-99456619D01*
X137109381Y-100028048D01*
X137109381Y-99409000D01*
X136109381Y-98789953D02*
X136109381Y-98694714D01*
X136157000Y-98599476D01*
X136204619Y-98551857D01*
X136299857Y-98504238D01*
X136490333Y-98456619D01*
X136728429Y-98456619D01*
X136918905Y-98504238D01*
X137014143Y-98551857D01*
X137061762Y-98599476D01*
X137109381Y-98694714D01*
X137109381Y-98789953D01*
X137061762Y-98885191D01*
X137014143Y-98932810D01*
X136918905Y-98980429D01*
X136728429Y-99028048D01*
X136490333Y-99028048D01*
X136299857Y-98980429D01*
X136204619Y-98932810D01*
X136157000Y-98885191D01*
X136109381Y-98789953D01*
X136442714Y-98028048D02*
X137109381Y-98028048D01*
X136537952Y-98028048D02*
X136490333Y-97980429D01*
X136442714Y-97885191D01*
X136442714Y-97742333D01*
X136490333Y-97647095D01*
X136585571Y-97599476D01*
X137109381Y-97599476D01*
X137109381Y-97123286D02*
X136109381Y-97123286D01*
X136585571Y-97123286D02*
X136585571Y-96551857D01*
X137109381Y-96551857D02*
X136109381Y-96551857D01*
X136585571Y-94980428D02*
X136585571Y-95313762D01*
X137109381Y-95313762D02*
X136109381Y-95313762D01*
X136109381Y-94837571D01*
X136585571Y-94123285D02*
X136633190Y-93980428D01*
X136680810Y-93932809D01*
X136776048Y-93885190D01*
X136918905Y-93885190D01*
X137014143Y-93932809D01*
X137061762Y-93980428D01*
X137109381Y-94075666D01*
X137109381Y-94456619D01*
X136109381Y-94456619D01*
X136109381Y-94123285D01*
X136157000Y-94028047D01*
X136204619Y-93980428D01*
X136299857Y-93932809D01*
X136395095Y-93932809D01*
X136490333Y-93980428D01*
X136537952Y-94028047D01*
X136585571Y-94123285D01*
X136585571Y-94456619D01*
X138664619Y-102301381D02*
X138093190Y-102301381D01*
X138378904Y-102301381D02*
X138378904Y-101301381D01*
X138283666Y-101444238D01*
X138188428Y-101539476D01*
X138093190Y-101587095D01*
X139045571Y-101396619D02*
X139093190Y-101349000D01*
X139188428Y-101301381D01*
X139426524Y-101301381D01*
X139521762Y-101349000D01*
X139569381Y-101396619D01*
X139617000Y-101491857D01*
X139617000Y-101587095D01*
X139569381Y-101729952D01*
X138997952Y-102301381D01*
X139617000Y-102301381D01*
X140236047Y-101301381D02*
X140331286Y-101301381D01*
X140426524Y-101349000D01*
X140474143Y-101396619D01*
X140521762Y-101491857D01*
X140569381Y-101682333D01*
X140569381Y-101920429D01*
X140521762Y-102110905D01*
X140474143Y-102206143D01*
X140426524Y-102253762D01*
X140331286Y-102301381D01*
X140236047Y-102301381D01*
X140140809Y-102253762D01*
X140093190Y-102206143D01*
X140045571Y-102110905D01*
X139997952Y-101920429D01*
X139997952Y-101682333D01*
X140045571Y-101491857D01*
X140093190Y-101396619D01*
X140140809Y-101349000D01*
X140236047Y-101301381D01*
X140997952Y-101634714D02*
X140997952Y-102301381D01*
X140997952Y-101729952D02*
X141045571Y-101682333D01*
X141140809Y-101634714D01*
X141283667Y-101634714D01*
X141378905Y-101682333D01*
X141426524Y-101777571D01*
X141426524Y-102301381D01*
X141902714Y-102301381D02*
X141902714Y-101301381D01*
X141902714Y-101777571D02*
X142474143Y-101777571D01*
X142474143Y-102301381D02*
X142474143Y-101301381D01*
X144045572Y-101777571D02*
X143712238Y-101777571D01*
X143712238Y-102301381D02*
X143712238Y-101301381D01*
X144188429Y-101301381D01*
X144902715Y-101777571D02*
X145045572Y-101825190D01*
X145093191Y-101872810D01*
X145140810Y-101968048D01*
X145140810Y-102110905D01*
X145093191Y-102206143D01*
X145045572Y-102253762D01*
X144950334Y-102301381D01*
X144569381Y-102301381D01*
X144569381Y-101301381D01*
X144902715Y-101301381D01*
X144997953Y-101349000D01*
X145045572Y-101396619D01*
X145093191Y-101491857D01*
X145093191Y-101587095D01*
X145045572Y-101682333D01*
X144997953Y-101729952D01*
X144902715Y-101777571D01*
X144569381Y-101777571D01*
X151606619Y-100904381D02*
X151035190Y-100904381D01*
X151320904Y-100904381D02*
X151320904Y-99904381D01*
X151225666Y-100047238D01*
X151130428Y-100142476D01*
X151035190Y-100190095D01*
X151987571Y-99999619D02*
X152035190Y-99952000D01*
X152130428Y-99904381D01*
X152368524Y-99904381D01*
X152463762Y-99952000D01*
X152511381Y-99999619D01*
X152559000Y-100094857D01*
X152559000Y-100190095D01*
X152511381Y-100332952D01*
X151939952Y-100904381D01*
X152559000Y-100904381D01*
X153178047Y-99904381D02*
X153273286Y-99904381D01*
X153368524Y-99952000D01*
X153416143Y-99999619D01*
X153463762Y-100094857D01*
X153511381Y-100285333D01*
X153511381Y-100523429D01*
X153463762Y-100713905D01*
X153416143Y-100809143D01*
X153368524Y-100856762D01*
X153273286Y-100904381D01*
X153178047Y-100904381D01*
X153082809Y-100856762D01*
X153035190Y-100809143D01*
X152987571Y-100713905D01*
X152939952Y-100523429D01*
X152939952Y-100285333D01*
X152987571Y-100094857D01*
X153035190Y-99999619D01*
X153082809Y-99952000D01*
X153178047Y-99904381D01*
X153939952Y-100237714D02*
X153939952Y-100904381D01*
X153939952Y-100332952D02*
X153987571Y-100285333D01*
X154082809Y-100237714D01*
X154225667Y-100237714D01*
X154320905Y-100285333D01*
X154368524Y-100380571D01*
X154368524Y-100904381D01*
X154844714Y-100904381D02*
X154844714Y-99904381D01*
X154844714Y-100380571D02*
X155416143Y-100380571D01*
X155416143Y-100904381D02*
X155416143Y-99904381D01*
X156987572Y-100380571D02*
X156654238Y-100380571D01*
X156654238Y-100904381D02*
X156654238Y-99904381D01*
X157130429Y-99904381D01*
X157844715Y-100380571D02*
X157987572Y-100428190D01*
X158035191Y-100475810D01*
X158082810Y-100571048D01*
X158082810Y-100713905D01*
X158035191Y-100809143D01*
X157987572Y-100856762D01*
X157892334Y-100904381D01*
X157511381Y-100904381D01*
X157511381Y-99904381D01*
X157844715Y-99904381D01*
X157939953Y-99952000D01*
X157987572Y-99999619D01*
X158035191Y-100094857D01*
X158035191Y-100190095D01*
X157987572Y-100285333D01*
X157939953Y-100332952D01*
X157844715Y-100380571D01*
X157511381Y-100380571D01*
X151733619Y-106238381D02*
X151162190Y-106238381D01*
X151447904Y-106238381D02*
X151447904Y-105238381D01*
X151352666Y-105381238D01*
X151257428Y-105476476D01*
X151162190Y-105524095D01*
X152114571Y-105333619D02*
X152162190Y-105286000D01*
X152257428Y-105238381D01*
X152495524Y-105238381D01*
X152590762Y-105286000D01*
X152638381Y-105333619D01*
X152686000Y-105428857D01*
X152686000Y-105524095D01*
X152638381Y-105666952D01*
X152066952Y-106238381D01*
X152686000Y-106238381D01*
X153305047Y-105238381D02*
X153400286Y-105238381D01*
X153495524Y-105286000D01*
X153543143Y-105333619D01*
X153590762Y-105428857D01*
X153638381Y-105619333D01*
X153638381Y-105857429D01*
X153590762Y-106047905D01*
X153543143Y-106143143D01*
X153495524Y-106190762D01*
X153400286Y-106238381D01*
X153305047Y-106238381D01*
X153209809Y-106190762D01*
X153162190Y-106143143D01*
X153114571Y-106047905D01*
X153066952Y-105857429D01*
X153066952Y-105619333D01*
X153114571Y-105428857D01*
X153162190Y-105333619D01*
X153209809Y-105286000D01*
X153305047Y-105238381D01*
X154066952Y-105571714D02*
X154066952Y-106238381D01*
X154066952Y-105666952D02*
X154114571Y-105619333D01*
X154209809Y-105571714D01*
X154352667Y-105571714D01*
X154447905Y-105619333D01*
X154495524Y-105714571D01*
X154495524Y-106238381D01*
X154971714Y-106238381D02*
X154971714Y-105238381D01*
X154971714Y-105714571D02*
X155543143Y-105714571D01*
X155543143Y-106238381D02*
X155543143Y-105238381D01*
X157114572Y-105714571D02*
X156781238Y-105714571D01*
X156781238Y-106238381D02*
X156781238Y-105238381D01*
X157257429Y-105238381D01*
X157971715Y-105714571D02*
X158114572Y-105762190D01*
X158162191Y-105809810D01*
X158209810Y-105905048D01*
X158209810Y-106047905D01*
X158162191Y-106143143D01*
X158114572Y-106190762D01*
X158019334Y-106238381D01*
X157638381Y-106238381D01*
X157638381Y-105238381D01*
X157971715Y-105238381D01*
X158066953Y-105286000D01*
X158114572Y-105333619D01*
X158162191Y-105428857D01*
X158162191Y-105524095D01*
X158114572Y-105619333D01*
X158066953Y-105666952D01*
X157971715Y-105714571D01*
X157638381Y-105714571D01*
X153365381Y-109632381D02*
X153365381Y-110203810D01*
X153365381Y-109918096D02*
X152365381Y-109918096D01*
X152508238Y-110013334D01*
X152603476Y-110108572D01*
X152651095Y-110203810D01*
X152460619Y-109251429D02*
X152413000Y-109203810D01*
X152365381Y-109108572D01*
X152365381Y-108870476D01*
X152413000Y-108775238D01*
X152460619Y-108727619D01*
X152555857Y-108680000D01*
X152651095Y-108680000D01*
X152793952Y-108727619D01*
X153365381Y-109299048D01*
X153365381Y-108680000D01*
X152365381Y-108060953D02*
X152365381Y-107965714D01*
X152413000Y-107870476D01*
X152460619Y-107822857D01*
X152555857Y-107775238D01*
X152746333Y-107727619D01*
X152984429Y-107727619D01*
X153174905Y-107775238D01*
X153270143Y-107822857D01*
X153317762Y-107870476D01*
X153365381Y-107965714D01*
X153365381Y-108060953D01*
X153317762Y-108156191D01*
X153270143Y-108203810D01*
X153174905Y-108251429D01*
X152984429Y-108299048D01*
X152746333Y-108299048D01*
X152555857Y-108251429D01*
X152460619Y-108203810D01*
X152413000Y-108156191D01*
X152365381Y-108060953D01*
X152698714Y-107299048D02*
X153365381Y-107299048D01*
X152793952Y-107299048D02*
X152746333Y-107251429D01*
X152698714Y-107156191D01*
X152698714Y-107013333D01*
X152746333Y-106918095D01*
X152841571Y-106870476D01*
X153365381Y-106870476D01*
X153365381Y-106394286D02*
X152365381Y-106394286D01*
X152841571Y-106394286D02*
X152841571Y-105822857D01*
X153365381Y-105822857D02*
X152365381Y-105822857D01*
X152841571Y-104251428D02*
X152841571Y-104584762D01*
X153365381Y-104584762D02*
X152365381Y-104584762D01*
X152365381Y-104108571D01*
X152841571Y-103394285D02*
X152889190Y-103251428D01*
X152936810Y-103203809D01*
X153032048Y-103156190D01*
X153174905Y-103156190D01*
X153270143Y-103203809D01*
X153317762Y-103251428D01*
X153365381Y-103346666D01*
X153365381Y-103727619D01*
X152365381Y-103727619D01*
X152365381Y-103394285D01*
X152413000Y-103299047D01*
X152460619Y-103251428D01*
X152555857Y-103203809D01*
X152651095Y-103203809D01*
X152746333Y-103251428D01*
X152793952Y-103299047D01*
X152841571Y-103394285D01*
X152841571Y-103727619D01*
X156651619Y-102457095D02*
X156604000Y-102409476D01*
X156556381Y-102314238D01*
X156556381Y-102076142D01*
X156604000Y-101980904D01*
X156651619Y-101933285D01*
X156746857Y-101885666D01*
X156842095Y-101885666D01*
X156984952Y-101933285D01*
X157556381Y-102504714D01*
X157556381Y-101885666D01*
X156556381Y-101552333D02*
X156556381Y-100933285D01*
X156937333Y-101266619D01*
X156937333Y-101123761D01*
X156984952Y-101028523D01*
X157032571Y-100980904D01*
X157127810Y-100933285D01*
X157365905Y-100933285D01*
X157461143Y-100980904D01*
X157508762Y-101028523D01*
X157556381Y-101123761D01*
X157556381Y-101409476D01*
X157508762Y-101504714D01*
X157461143Y-101552333D01*
X156556381Y-100599952D02*
X156556381Y-99933285D01*
X157556381Y-100361857D01*
X153892334Y-100660381D02*
X153320905Y-100660381D01*
X153606619Y-100660381D02*
X153606619Y-99660381D01*
X153511381Y-99803238D01*
X153416143Y-99898476D01*
X153320905Y-99946095D01*
X154511381Y-99660381D02*
X154606620Y-99660381D01*
X154701858Y-99708000D01*
X154749477Y-99755619D01*
X154797096Y-99850857D01*
X154844715Y-100041333D01*
X154844715Y-100279429D01*
X154797096Y-100469905D01*
X154749477Y-100565143D01*
X154701858Y-100612762D01*
X154606620Y-100660381D01*
X154511381Y-100660381D01*
X154416143Y-100612762D01*
X154368524Y-100565143D01*
X154320905Y-100469905D01*
X154273286Y-100279429D01*
X154273286Y-100041333D01*
X154320905Y-99850857D01*
X154368524Y-99755619D01*
X154416143Y-99708000D01*
X154511381Y-99660381D01*
X155463762Y-99660381D02*
X155559001Y-99660381D01*
X155654239Y-99708000D01*
X155701858Y-99755619D01*
X155749477Y-99850857D01*
X155797096Y-100041333D01*
X155797096Y-100279429D01*
X155749477Y-100469905D01*
X155701858Y-100565143D01*
X155654239Y-100612762D01*
X155559001Y-100660381D01*
X155463762Y-100660381D01*
X155368524Y-100612762D01*
X155320905Y-100565143D01*
X155273286Y-100469905D01*
X155225667Y-100279429D01*
X155225667Y-100041333D01*
X155273286Y-99850857D01*
X155320905Y-99755619D01*
X155368524Y-99708000D01*
X155463762Y-99660381D01*
X156651619Y-105505095D02*
X156604000Y-105457476D01*
X156556381Y-105362238D01*
X156556381Y-105124142D01*
X156604000Y-105028904D01*
X156651619Y-104981285D01*
X156746857Y-104933666D01*
X156842095Y-104933666D01*
X156984952Y-104981285D01*
X157556381Y-105552714D01*
X157556381Y-104933666D01*
X156556381Y-104600333D02*
X156556381Y-103981285D01*
X156937333Y-104314619D01*
X156937333Y-104171761D01*
X156984952Y-104076523D01*
X157032571Y-104028904D01*
X157127810Y-103981285D01*
X157365905Y-103981285D01*
X157461143Y-104028904D01*
X157508762Y-104076523D01*
X157556381Y-104171761D01*
X157556381Y-104457476D01*
X157508762Y-104552714D01*
X157461143Y-104600333D01*
X156556381Y-103647952D02*
X156556381Y-102981285D01*
X157556381Y-103409857D01*
X157956286Y-98961381D02*
X157765809Y-98961381D01*
X157670571Y-99009000D01*
X157622952Y-99056619D01*
X157527714Y-99199476D01*
X157480095Y-99389952D01*
X157480095Y-99770905D01*
X157527714Y-99866143D01*
X157575333Y-99913762D01*
X157670571Y-99961381D01*
X157861048Y-99961381D01*
X157956286Y-99913762D01*
X158003905Y-99866143D01*
X158051524Y-99770905D01*
X158051524Y-99532810D01*
X158003905Y-99437571D01*
X157956286Y-99389952D01*
X157861048Y-99342333D01*
X157670571Y-99342333D01*
X157575333Y-99389952D01*
X157527714Y-99437571D01*
X157480095Y-99532810D01*
X158622952Y-99389952D02*
X158527714Y-99342333D01*
X158480095Y-99294714D01*
X158432476Y-99199476D01*
X158432476Y-99151857D01*
X158480095Y-99056619D01*
X158527714Y-99009000D01*
X158622952Y-98961381D01*
X158813429Y-98961381D01*
X158908667Y-99009000D01*
X158956286Y-99056619D01*
X159003905Y-99151857D01*
X159003905Y-99199476D01*
X158956286Y-99294714D01*
X158908667Y-99342333D01*
X158813429Y-99389952D01*
X158622952Y-99389952D01*
X158527714Y-99437571D01*
X158480095Y-99485190D01*
X158432476Y-99580429D01*
X158432476Y-99770905D01*
X158480095Y-99866143D01*
X158527714Y-99913762D01*
X158622952Y-99961381D01*
X158813429Y-99961381D01*
X158908667Y-99913762D01*
X158956286Y-99866143D01*
X159003905Y-99770905D01*
X159003905Y-99580429D01*
X158956286Y-99485190D01*
X158908667Y-99437571D01*
X158813429Y-99389952D01*
X136077619Y-101822095D02*
X136030000Y-101774476D01*
X135982381Y-101679238D01*
X135982381Y-101441142D01*
X136030000Y-101345904D01*
X136077619Y-101298285D01*
X136172857Y-101250666D01*
X136268095Y-101250666D01*
X136410952Y-101298285D01*
X136982381Y-101869714D01*
X136982381Y-101250666D01*
X135982381Y-100917333D02*
X135982381Y-100250666D01*
X136982381Y-100679238D01*
X136315714Y-99441142D02*
X136982381Y-99441142D01*
X135934762Y-99679238D02*
X136649048Y-99917333D01*
X136649048Y-99298285D01*
X151447810Y-92567381D02*
X150971619Y-92567381D01*
X150971619Y-91567381D01*
X151638286Y-91567381D02*
X152209715Y-91567381D01*
X151924000Y-92567381D02*
X151924000Y-91567381D01*
X153114477Y-92472143D02*
X153066858Y-92519762D01*
X152924001Y-92567381D01*
X152828763Y-92567381D01*
X152685905Y-92519762D01*
X152590667Y-92424524D01*
X152543048Y-92329286D01*
X152495429Y-92138810D01*
X152495429Y-91995952D01*
X152543048Y-91805476D01*
X152590667Y-91710238D01*
X152685905Y-91615000D01*
X152828763Y-91567381D01*
X152924001Y-91567381D01*
X153066858Y-91615000D01*
X153114477Y-91662619D01*
X154019239Y-91567381D02*
X153543048Y-91567381D01*
X153495429Y-92043571D01*
X153543048Y-91995952D01*
X153638286Y-91948333D01*
X153876382Y-91948333D01*
X153971620Y-91995952D01*
X154019239Y-92043571D01*
X154066858Y-92138810D01*
X154066858Y-92376905D01*
X154019239Y-92472143D01*
X153971620Y-92519762D01*
X153876382Y-92567381D01*
X153638286Y-92567381D01*
X153543048Y-92519762D01*
X153495429Y-92472143D01*
X154971620Y-91567381D02*
X154495429Y-91567381D01*
X154447810Y-92043571D01*
X154495429Y-91995952D01*
X154590667Y-91948333D01*
X154828763Y-91948333D01*
X154924001Y-91995952D01*
X154971620Y-92043571D01*
X155019239Y-92138810D01*
X155019239Y-92376905D01*
X154971620Y-92472143D01*
X154924001Y-92519762D01*
X154828763Y-92567381D01*
X154590667Y-92567381D01*
X154495429Y-92519762D01*
X154447810Y-92472143D01*
X155638286Y-91567381D02*
X155733525Y-91567381D01*
X155828763Y-91615000D01*
X155876382Y-91662619D01*
X155924001Y-91757857D01*
X155971620Y-91948333D01*
X155971620Y-92186429D01*
X155924001Y-92376905D01*
X155876382Y-92472143D01*
X155828763Y-92519762D01*
X155733525Y-92567381D01*
X155638286Y-92567381D01*
X155543048Y-92519762D01*
X155495429Y-92472143D01*
X155447810Y-92376905D01*
X155400191Y-92186429D01*
X155400191Y-91948333D01*
X155447810Y-91757857D01*
X155495429Y-91662619D01*
X155543048Y-91615000D01*
X155638286Y-91567381D01*
X156304953Y-91567381D02*
X156971620Y-91567381D01*
X156543048Y-92567381D01*
D13*
X153543048Y-94341190D02*
X153543048Y-94745952D01*
X153566857Y-94793571D01*
X153590667Y-94817381D01*
X153638286Y-94841190D01*
X153733524Y-94841190D01*
X153781143Y-94817381D01*
X153804952Y-94793571D01*
X153828762Y-94745952D01*
X153828762Y-94341190D01*
X154281143Y-94341190D02*
X154185905Y-94341190D01*
X154138286Y-94365000D01*
X154114477Y-94388810D01*
X154066858Y-94460238D01*
X154043048Y-94555476D01*
X154043048Y-94745952D01*
X154066858Y-94793571D01*
X154090667Y-94817381D01*
X154138286Y-94841190D01*
X154233524Y-94841190D01*
X154281143Y-94817381D01*
X154304953Y-94793571D01*
X154328762Y-94745952D01*
X154328762Y-94626905D01*
X154304953Y-94579286D01*
X154281143Y-94555476D01*
X154233524Y-94531667D01*
X154138286Y-94531667D01*
X154090667Y-94555476D01*
X154066858Y-94579286D01*
X154043048Y-94626905D01*
D12*
X154692858Y-105838571D02*
X154635715Y-105895714D01*
X154464286Y-105952857D01*
X154350000Y-105952857D01*
X154178572Y-105895714D01*
X154064286Y-105781429D01*
X154007143Y-105667143D01*
X153950000Y-105438571D01*
X153950000Y-105267143D01*
X154007143Y-105038571D01*
X154064286Y-104924286D01*
X154178572Y-104810000D01*
X154350000Y-104752857D01*
X154464286Y-104752857D01*
X154635715Y-104810000D01*
X154692858Y-104867143D01*
X155092858Y-104752857D02*
X155892858Y-105952857D01*
X155892858Y-104752857D02*
X155092858Y-105952857D01*
X156292857Y-104867143D02*
X156350000Y-104810000D01*
X156464286Y-104752857D01*
X156750000Y-104752857D01*
X156864286Y-104810000D01*
X156921429Y-104867143D01*
X156978572Y-104981429D01*
X156978572Y-105095714D01*
X156921429Y-105267143D01*
X156235715Y-105952857D01*
X156978572Y-105952857D01*
X157721429Y-104752857D02*
X157835714Y-104752857D01*
X157950000Y-104810000D01*
X158007143Y-104867143D01*
X158064286Y-104981429D01*
X158121429Y-105210000D01*
X158121429Y-105495714D01*
X158064286Y-105724286D01*
X158007143Y-105838571D01*
X157950000Y-105895714D01*
X157835714Y-105952857D01*
X157721429Y-105952857D01*
X157607143Y-105895714D01*
X157550000Y-105838571D01*
X157492857Y-105724286D01*
X157435714Y-105495714D01*
X157435714Y-105210000D01*
X157492857Y-104981429D01*
X157550000Y-104867143D01*
X157607143Y-104810000D01*
X157721429Y-104752857D01*
X159150000Y-105152857D02*
X159150000Y-105952857D01*
X158864286Y-104695714D02*
X158578571Y-105552857D01*
X159321429Y-105552857D01*
X160407143Y-105952857D02*
X159721428Y-105952857D01*
X160064286Y-105952857D02*
X160064286Y-104752857D01*
X159950000Y-104924286D01*
X159835714Y-105038571D01*
X159721428Y-105095714D01*
X160921428Y-105952857D02*
X160921428Y-104752857D01*
X161607143Y-105952857D01*
X161607143Y-104752857D01*
X162750000Y-105952857D02*
X162178571Y-105952857D01*
X162178571Y-104752857D01*
X162978572Y-104752857D02*
X163664286Y-104752857D01*
X163321429Y-105952857D02*
X163321429Y-104752857D01*
X140528381Y-94019666D02*
X140528381Y-94591095D01*
X140528381Y-94305381D02*
X139528381Y-94305381D01*
X139671238Y-94400619D01*
X139766476Y-94495857D01*
X139814095Y-94591095D01*
X139861714Y-93162523D02*
X140528381Y-93162523D01*
X139861714Y-93591095D02*
X140385524Y-93591095D01*
X140480762Y-93543476D01*
X140528381Y-93448238D01*
X140528381Y-93305380D01*
X140480762Y-93210142D01*
X140433143Y-93162523D01*
D13*
X138356952Y-93919667D02*
X138356952Y-94110143D01*
X137956952Y-94110143D01*
X138356952Y-93576809D02*
X138356952Y-93805381D01*
X138356952Y-93691095D02*
X137956952Y-93691095D01*
X138014095Y-93729190D01*
X138052190Y-93767285D01*
X138071238Y-93805381D01*
D12*
X134413381Y-103060476D02*
X134413381Y-103631905D01*
X134413381Y-103346191D02*
X133413381Y-103346191D01*
X133556238Y-103441429D01*
X133651476Y-103536667D01*
X133699095Y-103631905D01*
X133413381Y-102155714D02*
X133413381Y-102631905D01*
X133889571Y-102679524D01*
X133841952Y-102631905D01*
X133794333Y-102536667D01*
X133794333Y-102298571D01*
X133841952Y-102203333D01*
X133889571Y-102155714D01*
X133984810Y-102108095D01*
X134222905Y-102108095D01*
X134318143Y-102155714D01*
X134365762Y-102203333D01*
X134413381Y-102298571D01*
X134413381Y-102536667D01*
X134365762Y-102631905D01*
X134318143Y-102679524D01*
D13*
X132641952Y-103127142D02*
X132451476Y-103260476D01*
X132641952Y-103355714D02*
X132241952Y-103355714D01*
X132241952Y-103203333D01*
X132261000Y-103165238D01*
X132280048Y-103146190D01*
X132318143Y-103127142D01*
X132375286Y-103127142D01*
X132413381Y-103146190D01*
X132432429Y-103165238D01*
X132451476Y-103203333D01*
X132451476Y-103355714D01*
X132641952Y-102746190D02*
X132641952Y-102974762D01*
X132641952Y-102860476D02*
X132241952Y-102860476D01*
X132299095Y-102898571D01*
X132337190Y-102936666D01*
X132356238Y-102974762D01*
X132280048Y-102593810D02*
X132261000Y-102574762D01*
X132241952Y-102536667D01*
X132241952Y-102441429D01*
X132261000Y-102403333D01*
X132280048Y-102384286D01*
X132318143Y-102365238D01*
X132356238Y-102365238D01*
X132413381Y-102384286D01*
X132641952Y-102612857D01*
X132641952Y-102365238D01*
D12*
X163314214Y-113302881D02*
X163409453Y-113302881D01*
X163504691Y-113350500D01*
X163552310Y-113398119D01*
X163599929Y-113493357D01*
X163647548Y-113683833D01*
X163647548Y-113921929D01*
X163599929Y-114112405D01*
X163552310Y-114207643D01*
X163504691Y-114255262D01*
X163409453Y-114302881D01*
X163314214Y-114302881D01*
X163218976Y-114255262D01*
X163171357Y-114207643D01*
X163123738Y-114112405D01*
X163076119Y-113921929D01*
X163076119Y-113683833D01*
X163123738Y-113493357D01*
X163171357Y-113398119D01*
X163218976Y-113350500D01*
X163314214Y-113302881D01*
X164076119Y-114207643D02*
X164123738Y-114255262D01*
X164076119Y-114302881D01*
X164028500Y-114255262D01*
X164076119Y-114207643D01*
X164076119Y-114302881D01*
X165076119Y-114302881D02*
X164504690Y-114302881D01*
X164790404Y-114302881D02*
X164790404Y-113302881D01*
X164695166Y-113445738D01*
X164599928Y-113540976D01*
X164504690Y-113588595D01*
X165933262Y-113636214D02*
X165933262Y-114302881D01*
X165504690Y-113636214D02*
X165504690Y-114160024D01*
X165552309Y-114255262D01*
X165647547Y-114302881D01*
X165790405Y-114302881D01*
X165885643Y-114255262D01*
X165933262Y-114207643D01*
X162451881Y-98686786D02*
X162451881Y-98591547D01*
X162499500Y-98496309D01*
X162547119Y-98448690D01*
X162642357Y-98401071D01*
X162832833Y-98353452D01*
X163070929Y-98353452D01*
X163261405Y-98401071D01*
X163356643Y-98448690D01*
X163404262Y-98496309D01*
X163451881Y-98591547D01*
X163451881Y-98686786D01*
X163404262Y-98782024D01*
X163356643Y-98829643D01*
X163261405Y-98877262D01*
X163070929Y-98924881D01*
X162832833Y-98924881D01*
X162642357Y-98877262D01*
X162547119Y-98829643D01*
X162499500Y-98782024D01*
X162451881Y-98686786D01*
X163356643Y-97924881D02*
X163404262Y-97877262D01*
X163451881Y-97924881D01*
X163404262Y-97972500D01*
X163356643Y-97924881D01*
X163451881Y-97924881D01*
X163451881Y-96924881D02*
X163451881Y-97496310D01*
X163451881Y-97210596D02*
X162451881Y-97210596D01*
X162594738Y-97305834D01*
X162689976Y-97401072D01*
X162737595Y-97496310D01*
X162785214Y-96067738D02*
X163451881Y-96067738D01*
X162785214Y-96496310D02*
X163309024Y-96496310D01*
X163404262Y-96448691D01*
X163451881Y-96353453D01*
X163451881Y-96210595D01*
X163404262Y-96115357D01*
X163356643Y-96067738D01*
X131500714Y-105248381D02*
X131595953Y-105248381D01*
X131691191Y-105296000D01*
X131738810Y-105343619D01*
X131786429Y-105438857D01*
X131834048Y-105629333D01*
X131834048Y-105867429D01*
X131786429Y-106057905D01*
X131738810Y-106153143D01*
X131691191Y-106200762D01*
X131595953Y-106248381D01*
X131500714Y-106248381D01*
X131405476Y-106200762D01*
X131357857Y-106153143D01*
X131310238Y-106057905D01*
X131262619Y-105867429D01*
X131262619Y-105629333D01*
X131310238Y-105438857D01*
X131357857Y-105343619D01*
X131405476Y-105296000D01*
X131500714Y-105248381D01*
X132262619Y-106153143D02*
X132310238Y-106200762D01*
X132262619Y-106248381D01*
X132215000Y-106200762D01*
X132262619Y-106153143D01*
X132262619Y-106248381D01*
X133262619Y-106248381D02*
X132691190Y-106248381D01*
X132976904Y-106248381D02*
X132976904Y-105248381D01*
X132881666Y-105391238D01*
X132786428Y-105486476D01*
X132691190Y-105534095D01*
X134119762Y-105581714D02*
X134119762Y-106248381D01*
X133691190Y-105581714D02*
X133691190Y-106105524D01*
X133738809Y-106200762D01*
X133834047Y-106248381D01*
X133976905Y-106248381D01*
X134072143Y-106200762D01*
X134119762Y-106153143D01*
X123883786Y-97242381D02*
X123883786Y-96242381D01*
X124264739Y-96242381D01*
X124359977Y-96290000D01*
X124407596Y-96337619D01*
X124455215Y-96432857D01*
X124455215Y-96575714D01*
X124407596Y-96670952D01*
X124359977Y-96718571D01*
X124264739Y-96766190D01*
X123883786Y-96766190D01*
X124883786Y-97242381D02*
X124883786Y-96575714D01*
X124883786Y-96242381D02*
X124836167Y-96290000D01*
X124883786Y-96337619D01*
X124931405Y-96290000D01*
X124883786Y-96242381D01*
X124883786Y-96337619D01*
X125740929Y-97194762D02*
X125645691Y-97242381D01*
X125455214Y-97242381D01*
X125359976Y-97194762D01*
X125312357Y-97099524D01*
X125312357Y-96718571D01*
X125359976Y-96623333D01*
X125455214Y-96575714D01*
X125645691Y-96575714D01*
X125740929Y-96623333D01*
X125788548Y-96718571D01*
X125788548Y-96813810D01*
X125312357Y-96909048D01*
X126121881Y-96575714D02*
X126645691Y-96575714D01*
X126121881Y-97242381D01*
X126645691Y-97242381D01*
X127169500Y-97242381D02*
X127074262Y-97194762D01*
X127026643Y-97147143D01*
X126979024Y-97051905D01*
X126979024Y-96766190D01*
X127026643Y-96670952D01*
X127074262Y-96623333D01*
X127169500Y-96575714D01*
X127312358Y-96575714D01*
X127407596Y-96623333D01*
X127455215Y-96670952D01*
X127502834Y-96766190D01*
X127502834Y-97051905D01*
X127455215Y-97147143D01*
X127407596Y-97194762D01*
X127312358Y-97242381D01*
X127169500Y-97242381D01*
X171875143Y-98424857D02*
X171922762Y-98472476D01*
X171970381Y-98615333D01*
X171970381Y-98710571D01*
X171922762Y-98853429D01*
X171827524Y-98948667D01*
X171732286Y-98996286D01*
X171541810Y-99043905D01*
X171398952Y-99043905D01*
X171208476Y-98996286D01*
X171113238Y-98948667D01*
X171018000Y-98853429D01*
X170970381Y-98710571D01*
X170970381Y-98615333D01*
X171018000Y-98472476D01*
X171065619Y-98424857D01*
X170970381Y-97805810D02*
X170970381Y-97615333D01*
X171018000Y-97520095D01*
X171113238Y-97424857D01*
X171303714Y-97377238D01*
X171637048Y-97377238D01*
X171827524Y-97424857D01*
X171922762Y-97520095D01*
X171970381Y-97615333D01*
X171970381Y-97805810D01*
X171922762Y-97901048D01*
X171827524Y-97996286D01*
X171637048Y-98043905D01*
X171303714Y-98043905D01*
X171113238Y-97996286D01*
X171018000Y-97901048D01*
X170970381Y-97805810D01*
X171970381Y-96948667D02*
X170970381Y-96948667D01*
X171970381Y-96377238D01*
X170970381Y-96377238D01*
X171970381Y-95901048D02*
X170970381Y-95901048D01*
X171970381Y-95329619D01*
X170970381Y-95329619D01*
X172065619Y-95091524D02*
X172065619Y-94329619D01*
X171875143Y-93520095D02*
X171922762Y-93567714D01*
X171970381Y-93710571D01*
X171970381Y-93805809D01*
X171922762Y-93948667D01*
X171827524Y-94043905D01*
X171732286Y-94091524D01*
X171541810Y-94139143D01*
X171398952Y-94139143D01*
X171208476Y-94091524D01*
X171113238Y-94043905D01*
X171018000Y-93948667D01*
X170970381Y-93805809D01*
X170970381Y-93710571D01*
X171018000Y-93567714D01*
X171065619Y-93520095D01*
X170970381Y-92901048D02*
X170970381Y-92710571D01*
X171018000Y-92615333D01*
X171113238Y-92520095D01*
X171303714Y-92472476D01*
X171637048Y-92472476D01*
X171827524Y-92520095D01*
X171922762Y-92615333D01*
X171970381Y-92710571D01*
X171970381Y-92901048D01*
X171922762Y-92996286D01*
X171827524Y-93091524D01*
X171637048Y-93139143D01*
X171303714Y-93139143D01*
X171113238Y-93091524D01*
X171018000Y-92996286D01*
X170970381Y-92901048D01*
X171684667Y-92091524D02*
X171684667Y-91615333D01*
X171970381Y-92186762D02*
X170970381Y-91853429D01*
X171970381Y-91520095D01*
X170970381Y-91282000D02*
X171970381Y-90615333D01*
X170970381Y-90615333D02*
X171970381Y-91282000D01*
X171970381Y-90234381D02*
X170970381Y-90234381D01*
X171684667Y-89805810D02*
X171684667Y-89329619D01*
X171970381Y-89901048D02*
X170970381Y-89567715D01*
X171970381Y-89234381D01*
X171970381Y-88424857D02*
X171970381Y-88901048D01*
X170970381Y-88901048D01*
X133048619Y-109465571D02*
X133001000Y-109560809D01*
X132905762Y-109656047D01*
X132762905Y-109798904D01*
X132715286Y-109894143D01*
X132715286Y-109989381D01*
X132953381Y-109941762D02*
X132905762Y-110037000D01*
X132810524Y-110132238D01*
X132620048Y-110179857D01*
X132286714Y-110179857D01*
X132096238Y-110132238D01*
X132001000Y-110037000D01*
X131953381Y-109941762D01*
X131953381Y-109751285D01*
X132001000Y-109656047D01*
X132096238Y-109560809D01*
X132286714Y-109513190D01*
X132620048Y-109513190D01*
X132810524Y-109560809D01*
X132905762Y-109656047D01*
X132953381Y-109751285D01*
X132953381Y-109941762D01*
X133048619Y-109322714D02*
X133048619Y-108560809D01*
X132953381Y-108322714D02*
X131953381Y-108322714D01*
X131953381Y-107941761D01*
X132001000Y-107846523D01*
X132048619Y-107798904D01*
X132143857Y-107751285D01*
X132286714Y-107751285D01*
X132381952Y-107798904D01*
X132429571Y-107846523D01*
X132477190Y-107941761D01*
X132477190Y-108322714D01*
X132953381Y-107322714D02*
X131953381Y-107322714D01*
X132667667Y-106989380D01*
X131953381Y-106656047D01*
X132953381Y-106656047D01*
X131953381Y-105989381D02*
X131953381Y-105798904D01*
X132001000Y-105703666D01*
X132096238Y-105608428D01*
X132286714Y-105560809D01*
X132620048Y-105560809D01*
X132810524Y-105608428D01*
X132905762Y-105703666D01*
X132953381Y-105798904D01*
X132953381Y-105989381D01*
X132905762Y-106084619D01*
X132810524Y-106179857D01*
X132620048Y-106227476D01*
X132286714Y-106227476D01*
X132096238Y-106179857D01*
X132001000Y-106084619D01*
X131953381Y-105989381D01*
X132905762Y-105179857D02*
X132953381Y-105037000D01*
X132953381Y-104798904D01*
X132905762Y-104703666D01*
X132858143Y-104656047D01*
X132762905Y-104608428D01*
X132667667Y-104608428D01*
X132572429Y-104656047D01*
X132524810Y-104703666D01*
X132477190Y-104798904D01*
X132429571Y-104989381D01*
X132381952Y-105084619D01*
X132334333Y-105132238D01*
X132239095Y-105179857D01*
X132143857Y-105179857D01*
X132048619Y-105132238D01*
X132001000Y-105084619D01*
X131953381Y-104989381D01*
X131953381Y-104751285D01*
X132001000Y-104608428D01*
X133048619Y-104417952D02*
X133048619Y-103656047D01*
X132001000Y-102894142D02*
X131953381Y-102989380D01*
X131953381Y-103132237D01*
X132001000Y-103275095D01*
X132096238Y-103370333D01*
X132191476Y-103417952D01*
X132381952Y-103465571D01*
X132524810Y-103465571D01*
X132715286Y-103417952D01*
X132810524Y-103370333D01*
X132905762Y-103275095D01*
X132953381Y-103132237D01*
X132953381Y-103036999D01*
X132905762Y-102894142D01*
X132858143Y-102846523D01*
X132524810Y-102846523D01*
X132524810Y-103036999D01*
X132905762Y-102465571D02*
X132953381Y-102322714D01*
X132953381Y-102084618D01*
X132905762Y-101989380D01*
X132858143Y-101941761D01*
X132762905Y-101894142D01*
X132667667Y-101894142D01*
X132572429Y-101941761D01*
X132524810Y-101989380D01*
X132477190Y-102084618D01*
X132429571Y-102275095D01*
X132381952Y-102370333D01*
X132334333Y-102417952D01*
X132239095Y-102465571D01*
X132143857Y-102465571D01*
X132048619Y-102417952D01*
X132001000Y-102370333D01*
X131953381Y-102275095D01*
X131953381Y-102036999D01*
X132001000Y-101894142D01*
X132953381Y-101465571D02*
X131953381Y-101465571D01*
X131953381Y-101227476D01*
X132001000Y-101084618D01*
X132096238Y-100989380D01*
X132191476Y-100941761D01*
X132381952Y-100894142D01*
X132524810Y-100894142D01*
X132715286Y-100941761D01*
X132810524Y-100989380D01*
X132905762Y-101084618D01*
X132953381Y-101227476D01*
X132953381Y-101465571D01*
X126476619Y-108838619D02*
X126381381Y-108791000D01*
X126286143Y-108695762D01*
X126143286Y-108552905D01*
X126048047Y-108505286D01*
X125952809Y-108505286D01*
X126000428Y-108743381D02*
X125905190Y-108695762D01*
X125809952Y-108600524D01*
X125762333Y-108410048D01*
X125762333Y-108076714D01*
X125809952Y-107886238D01*
X125905190Y-107791000D01*
X126000428Y-107743381D01*
X126190905Y-107743381D01*
X126286143Y-107791000D01*
X126381381Y-107886238D01*
X126429000Y-108076714D01*
X126429000Y-108410048D01*
X126381381Y-108600524D01*
X126286143Y-108695762D01*
X126190905Y-108743381D01*
X126000428Y-108743381D01*
X126619476Y-108838619D02*
X127381381Y-108838619D01*
X127619476Y-108743381D02*
X127619476Y-107743381D01*
X128190905Y-108743381D01*
X128190905Y-107743381D01*
X128667095Y-108743381D02*
X128667095Y-107743381D01*
X129000429Y-108457667D01*
X129333762Y-107743381D01*
X129333762Y-108743381D01*
X130000428Y-107743381D02*
X130190905Y-107743381D01*
X130286143Y-107791000D01*
X130381381Y-107886238D01*
X130429000Y-108076714D01*
X130429000Y-108410048D01*
X130381381Y-108600524D01*
X130286143Y-108695762D01*
X130190905Y-108743381D01*
X130000428Y-108743381D01*
X129905190Y-108695762D01*
X129809952Y-108600524D01*
X129762333Y-108410048D01*
X129762333Y-108076714D01*
X129809952Y-107886238D01*
X129905190Y-107791000D01*
X130000428Y-107743381D01*
X130809952Y-108695762D02*
X130952809Y-108743381D01*
X131190905Y-108743381D01*
X131286143Y-108695762D01*
X131333762Y-108648143D01*
X131381381Y-108552905D01*
X131381381Y-108457667D01*
X131333762Y-108362429D01*
X131286143Y-108314810D01*
X131190905Y-108267190D01*
X131000428Y-108219571D01*
X130905190Y-108171952D01*
X130857571Y-108124333D01*
X130809952Y-108029095D01*
X130809952Y-107933857D01*
X130857571Y-107838619D01*
X130905190Y-107791000D01*
X131000428Y-107743381D01*
X131238524Y-107743381D01*
X131381381Y-107791000D01*
X131571857Y-108838619D02*
X132333762Y-108838619D01*
X133095667Y-107791000D02*
X133000429Y-107743381D01*
X132857572Y-107743381D01*
X132714714Y-107791000D01*
X132619476Y-107886238D01*
X132571857Y-107981476D01*
X132524238Y-108171952D01*
X132524238Y-108314810D01*
X132571857Y-108505286D01*
X132619476Y-108600524D01*
X132714714Y-108695762D01*
X132857572Y-108743381D01*
X132952810Y-108743381D01*
X133095667Y-108695762D01*
X133143286Y-108648143D01*
X133143286Y-108314810D01*
X132952810Y-108314810D01*
X133524238Y-108695762D02*
X133667095Y-108743381D01*
X133905191Y-108743381D01*
X134000429Y-108695762D01*
X134048048Y-108648143D01*
X134095667Y-108552905D01*
X134095667Y-108457667D01*
X134048048Y-108362429D01*
X134000429Y-108314810D01*
X133905191Y-108267190D01*
X133714714Y-108219571D01*
X133619476Y-108171952D01*
X133571857Y-108124333D01*
X133524238Y-108029095D01*
X133524238Y-107933857D01*
X133571857Y-107838619D01*
X133619476Y-107791000D01*
X133714714Y-107743381D01*
X133952810Y-107743381D01*
X134095667Y-107791000D01*
X134524238Y-108743381D02*
X134524238Y-107743381D01*
X134762333Y-107743381D01*
X134905191Y-107791000D01*
X135000429Y-107886238D01*
X135048048Y-107981476D01*
X135095667Y-108171952D01*
X135095667Y-108314810D01*
X135048048Y-108505286D01*
X135000429Y-108600524D01*
X134905191Y-108695762D01*
X134762333Y-108743381D01*
X134524238Y-108743381D01*
X123073494Y-115856762D02*
X123216351Y-115904381D01*
X123454447Y-115904381D01*
X123549685Y-115856762D01*
X123597304Y-115809143D01*
X123644923Y-115713905D01*
X123644923Y-115618667D01*
X123597304Y-115523429D01*
X123549685Y-115475810D01*
X123454447Y-115428190D01*
X123263970Y-115380571D01*
X123168732Y-115332952D01*
X123121113Y-115285333D01*
X123073494Y-115190095D01*
X123073494Y-115094857D01*
X123121113Y-114999619D01*
X123168732Y-114952000D01*
X123263970Y-114904381D01*
X123502066Y-114904381D01*
X123644923Y-114952000D01*
X124502066Y-115856762D02*
X124406828Y-115904381D01*
X124216351Y-115904381D01*
X124121113Y-115856762D01*
X124073494Y-115809143D01*
X124025875Y-115713905D01*
X124025875Y-115428190D01*
X124073494Y-115332952D01*
X124121113Y-115285333D01*
X124216351Y-115237714D01*
X124406828Y-115237714D01*
X124502066Y-115285333D01*
X124930637Y-115904381D02*
X124930637Y-115237714D01*
X124930637Y-115428190D02*
X124978256Y-115332952D01*
X125025875Y-115285333D01*
X125121113Y-115237714D01*
X125216352Y-115237714D01*
X125930638Y-115856762D02*
X125835400Y-115904381D01*
X125644923Y-115904381D01*
X125549685Y-115856762D01*
X125502066Y-115761524D01*
X125502066Y-115380571D01*
X125549685Y-115285333D01*
X125644923Y-115237714D01*
X125835400Y-115237714D01*
X125930638Y-115285333D01*
X125978257Y-115380571D01*
X125978257Y-115475810D01*
X125502066Y-115571048D01*
X126311590Y-115237714D02*
X126502066Y-115904381D01*
X126692543Y-115428190D01*
X126883019Y-115904381D01*
X127073495Y-115237714D01*
X127216352Y-115999619D02*
X127978257Y-115999619D01*
X128073495Y-114904381D02*
X128644924Y-114904381D01*
X128359209Y-115904381D02*
X128359209Y-114904381D01*
X129359210Y-115856762D02*
X129263972Y-115904381D01*
X129073495Y-115904381D01*
X128978257Y-115856762D01*
X128930638Y-115761524D01*
X128930638Y-115380571D01*
X128978257Y-115285333D01*
X129073495Y-115237714D01*
X129263972Y-115237714D01*
X129359210Y-115285333D01*
X129406829Y-115380571D01*
X129406829Y-115475810D01*
X128930638Y-115571048D01*
X129835400Y-115904381D02*
X129835400Y-115237714D01*
X129835400Y-115428190D02*
X129883019Y-115332952D01*
X129930638Y-115285333D01*
X130025876Y-115237714D01*
X130121115Y-115237714D01*
X130454448Y-115904381D02*
X130454448Y-115237714D01*
X130454448Y-115332952D02*
X130502067Y-115285333D01*
X130597305Y-115237714D01*
X130740163Y-115237714D01*
X130835401Y-115285333D01*
X130883020Y-115380571D01*
X130883020Y-115904381D01*
X130883020Y-115380571D02*
X130930639Y-115285333D01*
X131025877Y-115237714D01*
X131168734Y-115237714D01*
X131263972Y-115285333D01*
X131311591Y-115380571D01*
X131311591Y-115904381D01*
X131787781Y-115904381D02*
X131787781Y-115237714D01*
X131787781Y-114904381D02*
X131740162Y-114952000D01*
X131787781Y-114999619D01*
X131835400Y-114952000D01*
X131787781Y-114904381D01*
X131787781Y-114999619D01*
X132263971Y-115237714D02*
X132263971Y-115904381D01*
X132263971Y-115332952D02*
X132311590Y-115285333D01*
X132406828Y-115237714D01*
X132549686Y-115237714D01*
X132644924Y-115285333D01*
X132692543Y-115380571D01*
X132692543Y-115904381D01*
X133597305Y-115904381D02*
X133597305Y-115380571D01*
X133549686Y-115285333D01*
X133454448Y-115237714D01*
X133263971Y-115237714D01*
X133168733Y-115285333D01*
X133597305Y-115856762D02*
X133502067Y-115904381D01*
X133263971Y-115904381D01*
X133168733Y-115856762D01*
X133121114Y-115761524D01*
X133121114Y-115666286D01*
X133168733Y-115571048D01*
X133263971Y-115523429D01*
X133502067Y-115523429D01*
X133597305Y-115475810D01*
X134216352Y-115904381D02*
X134121114Y-115856762D01*
X134073495Y-115761524D01*
X134073495Y-114904381D01*
X134359210Y-115999619D02*
X135121115Y-115999619D01*
X135883020Y-115904381D02*
X135311591Y-115904381D01*
X135597305Y-115904381D02*
X135597305Y-114904381D01*
X135502067Y-115047238D01*
X135406829Y-115142476D01*
X135311591Y-115190095D01*
X136216353Y-115904381D02*
X136740163Y-115237714D01*
X136216353Y-115237714D02*
X136740163Y-115904381D01*
X137311591Y-114904381D02*
X137406830Y-114904381D01*
X137502068Y-114952000D01*
X137549687Y-114999619D01*
X137597306Y-115094857D01*
X137644925Y-115285333D01*
X137644925Y-115523429D01*
X137597306Y-115713905D01*
X137549687Y-115809143D01*
X137502068Y-115856762D01*
X137406830Y-115904381D01*
X137311591Y-115904381D01*
X137216353Y-115856762D01*
X137168734Y-115809143D01*
X137121115Y-115713905D01*
X137073496Y-115523429D01*
X137073496Y-115285333D01*
X137121115Y-115094857D01*
X137168734Y-114999619D01*
X137216353Y-114952000D01*
X137311591Y-114904381D01*
X138597306Y-115904381D02*
X138025877Y-115904381D01*
X138311591Y-115904381D02*
X138311591Y-114904381D01*
X138216353Y-115047238D01*
X138121115Y-115142476D01*
X138025877Y-115190095D01*
X151750094Y-94901762D02*
X151892951Y-94949381D01*
X152131047Y-94949381D01*
X152226285Y-94901762D01*
X152273904Y-94854143D01*
X152321523Y-94758905D01*
X152321523Y-94663667D01*
X152273904Y-94568429D01*
X152226285Y-94520810D01*
X152131047Y-94473190D01*
X151940570Y-94425571D01*
X151845332Y-94377952D01*
X151797713Y-94330333D01*
X151750094Y-94235095D01*
X151750094Y-94139857D01*
X151797713Y-94044619D01*
X151845332Y-93997000D01*
X151940570Y-93949381D01*
X152178666Y-93949381D01*
X152321523Y-93997000D01*
X153178666Y-94901762D02*
X153083428Y-94949381D01*
X152892951Y-94949381D01*
X152797713Y-94901762D01*
X152750094Y-94854143D01*
X152702475Y-94758905D01*
X152702475Y-94473190D01*
X152750094Y-94377952D01*
X152797713Y-94330333D01*
X152892951Y-94282714D01*
X153083428Y-94282714D01*
X153178666Y-94330333D01*
X153607237Y-94949381D02*
X153607237Y-94282714D01*
X153607237Y-94473190D02*
X153654856Y-94377952D01*
X153702475Y-94330333D01*
X153797713Y-94282714D01*
X153892952Y-94282714D01*
X154607238Y-94901762D02*
X154512000Y-94949381D01*
X154321523Y-94949381D01*
X154226285Y-94901762D01*
X154178666Y-94806524D01*
X154178666Y-94425571D01*
X154226285Y-94330333D01*
X154321523Y-94282714D01*
X154512000Y-94282714D01*
X154607238Y-94330333D01*
X154654857Y-94425571D01*
X154654857Y-94520810D01*
X154178666Y-94616048D01*
X154988190Y-94282714D02*
X155178666Y-94949381D01*
X155369143Y-94473190D01*
X155559619Y-94949381D01*
X155750095Y-94282714D01*
X155892952Y-95044619D02*
X156654857Y-95044619D01*
X156750095Y-93949381D02*
X157321524Y-93949381D01*
X157035809Y-94949381D02*
X157035809Y-93949381D01*
X158035810Y-94901762D02*
X157940572Y-94949381D01*
X157750095Y-94949381D01*
X157654857Y-94901762D01*
X157607238Y-94806524D01*
X157607238Y-94425571D01*
X157654857Y-94330333D01*
X157750095Y-94282714D01*
X157940572Y-94282714D01*
X158035810Y-94330333D01*
X158083429Y-94425571D01*
X158083429Y-94520810D01*
X157607238Y-94616048D01*
X158512000Y-94949381D02*
X158512000Y-94282714D01*
X158512000Y-94473190D02*
X158559619Y-94377952D01*
X158607238Y-94330333D01*
X158702476Y-94282714D01*
X158797715Y-94282714D01*
X159131048Y-94949381D02*
X159131048Y-94282714D01*
X159131048Y-94377952D02*
X159178667Y-94330333D01*
X159273905Y-94282714D01*
X159416763Y-94282714D01*
X159512001Y-94330333D01*
X159559620Y-94425571D01*
X159559620Y-94949381D01*
X159559620Y-94425571D02*
X159607239Y-94330333D01*
X159702477Y-94282714D01*
X159845334Y-94282714D01*
X159940572Y-94330333D01*
X159988191Y-94425571D01*
X159988191Y-94949381D01*
X160464381Y-94949381D02*
X160464381Y-94282714D01*
X160464381Y-93949381D02*
X160416762Y-93997000D01*
X160464381Y-94044619D01*
X160512000Y-93997000D01*
X160464381Y-93949381D01*
X160464381Y-94044619D01*
X160940571Y-94282714D02*
X160940571Y-94949381D01*
X160940571Y-94377952D02*
X160988190Y-94330333D01*
X161083428Y-94282714D01*
X161226286Y-94282714D01*
X161321524Y-94330333D01*
X161369143Y-94425571D01*
X161369143Y-94949381D01*
X162273905Y-94949381D02*
X162273905Y-94425571D01*
X162226286Y-94330333D01*
X162131048Y-94282714D01*
X161940571Y-94282714D01*
X161845333Y-94330333D01*
X162273905Y-94901762D02*
X162178667Y-94949381D01*
X161940571Y-94949381D01*
X161845333Y-94901762D01*
X161797714Y-94806524D01*
X161797714Y-94711286D01*
X161845333Y-94616048D01*
X161940571Y-94568429D01*
X162178667Y-94568429D01*
X162273905Y-94520810D01*
X162892952Y-94949381D02*
X162797714Y-94901762D01*
X162750095Y-94806524D01*
X162750095Y-93949381D01*
X163035810Y-95044619D02*
X163797715Y-95044619D01*
X164559620Y-94949381D02*
X163988191Y-94949381D01*
X164273905Y-94949381D02*
X164273905Y-93949381D01*
X164178667Y-94092238D01*
X164083429Y-94187476D01*
X163988191Y-94235095D01*
X164892953Y-94949381D02*
X165416763Y-94282714D01*
X164892953Y-94282714D02*
X165416763Y-94949381D01*
X165988191Y-93949381D02*
X166083430Y-93949381D01*
X166178668Y-93997000D01*
X166226287Y-94044619D01*
X166273906Y-94139857D01*
X166321525Y-94330333D01*
X166321525Y-94568429D01*
X166273906Y-94758905D01*
X166226287Y-94854143D01*
X166178668Y-94901762D01*
X166083430Y-94949381D01*
X165988191Y-94949381D01*
X165892953Y-94901762D01*
X165845334Y-94854143D01*
X165797715Y-94758905D01*
X165750096Y-94568429D01*
X165750096Y-94330333D01*
X165797715Y-94139857D01*
X165845334Y-94044619D01*
X165892953Y-93997000D01*
X165988191Y-93949381D01*
X167273906Y-94949381D02*
X166702477Y-94949381D01*
X166988191Y-94949381D02*
X166988191Y-93949381D01*
X166892953Y-94092238D01*
X166797715Y-94187476D01*
X166702477Y-94235095D01*
M02*
