G04 #@! TF.FileFunction,Legend,Top*
%FSLAX46Y46*%
G04 Gerber Fmt 4.6, Leading zero omitted, Abs format (unit mm)*
G04 Created by KiCad (PCBNEW 4.0.7) date Friday, November 17, 2017 'PMt' 12:47:33 PM*
%MOMM*%
%LPD*%
G01*
G04 APERTURE LIST*
%ADD10C,0.100000*%
%ADD11C,0.127000*%
%ADD12C,0.101600*%
%ADD13C,0.150000*%
%ADD14C,0.120000*%
%ADD15C,0.152400*%
%ADD16C,0.076200*%
G04 APERTURE END LIST*
D10*
D11*
X129122715Y-97844429D02*
X129703286Y-97844429D01*
X129122715Y-103051429D02*
X129703286Y-103051429D01*
X129413000Y-103341714D02*
X129413000Y-102761143D01*
D12*
X165227000Y-110369047D02*
X165202810Y-110417428D01*
X165202810Y-110490000D01*
X165227000Y-110562571D01*
X165275381Y-110610952D01*
X165323762Y-110635143D01*
X165420524Y-110659333D01*
X165493095Y-110659333D01*
X165589857Y-110635143D01*
X165638238Y-110610952D01*
X165686619Y-110562571D01*
X165710810Y-110490000D01*
X165710810Y-110441619D01*
X165686619Y-110369047D01*
X165662429Y-110344857D01*
X165493095Y-110344857D01*
X165493095Y-110441619D01*
X165710810Y-110127143D02*
X165202810Y-110127143D01*
X165710810Y-109836857D01*
X165202810Y-109836857D01*
X165710810Y-109594953D02*
X165202810Y-109594953D01*
X165202810Y-109474000D01*
X165227000Y-109401429D01*
X165275381Y-109353048D01*
X165323762Y-109328857D01*
X165420524Y-109304667D01*
X165493095Y-109304667D01*
X165589857Y-109328857D01*
X165638238Y-109353048D01*
X165686619Y-109401429D01*
X165710810Y-109474000D01*
X165710810Y-109594953D01*
X160933190Y-108935762D02*
X160909000Y-108911572D01*
X160884810Y-108863191D01*
X160884810Y-108742238D01*
X160909000Y-108693857D01*
X160933190Y-108669667D01*
X160981571Y-108645476D01*
X161029952Y-108645476D01*
X161102524Y-108669667D01*
X161392810Y-108959953D01*
X161392810Y-108645476D01*
X160884810Y-108331000D02*
X160884810Y-108282619D01*
X160909000Y-108234238D01*
X160933190Y-108210047D01*
X160981571Y-108185857D01*
X161078333Y-108161666D01*
X161199286Y-108161666D01*
X161296048Y-108185857D01*
X161344429Y-108210047D01*
X161368619Y-108234238D01*
X161392810Y-108282619D01*
X161392810Y-108331000D01*
X161368619Y-108379381D01*
X161344429Y-108403571D01*
X161296048Y-108427762D01*
X161199286Y-108451952D01*
X161078333Y-108451952D01*
X160981571Y-108427762D01*
X160933190Y-108403571D01*
X160909000Y-108379381D01*
X160884810Y-108331000D01*
X160884810Y-108016523D02*
X161392810Y-107847190D01*
X160884810Y-107677856D01*
X161011810Y-106710238D02*
X160503810Y-106710238D01*
X160503810Y-106516714D01*
X160528000Y-106468333D01*
X160552190Y-106444142D01*
X160600571Y-106419952D01*
X160673143Y-106419952D01*
X160721524Y-106444142D01*
X160745714Y-106468333D01*
X160769905Y-106516714D01*
X160769905Y-106710238D01*
X160673143Y-105984523D02*
X161011810Y-105984523D01*
X160673143Y-106202238D02*
X160939238Y-106202238D01*
X160987619Y-106178047D01*
X161011810Y-106129666D01*
X161011810Y-106057095D01*
X160987619Y-106008714D01*
X160963429Y-105984523D01*
X161011810Y-105670047D02*
X160987619Y-105718428D01*
X160939238Y-105742619D01*
X160503810Y-105742619D01*
X160987619Y-105500714D02*
X161011810Y-105452333D01*
X161011810Y-105355571D01*
X160987619Y-105307190D01*
X160939238Y-105283000D01*
X160915048Y-105283000D01*
X160866667Y-105307190D01*
X160842476Y-105355571D01*
X160842476Y-105428143D01*
X160818286Y-105476524D01*
X160769905Y-105500714D01*
X160745714Y-105500714D01*
X160697333Y-105476524D01*
X160673143Y-105428143D01*
X160673143Y-105355571D01*
X160697333Y-105307190D01*
X160987619Y-104871762D02*
X161011810Y-104920143D01*
X161011810Y-105016905D01*
X160987619Y-105065286D01*
X160939238Y-105089476D01*
X160745714Y-105089476D01*
X160697333Y-105065286D01*
X160673143Y-105016905D01*
X160673143Y-104920143D01*
X160697333Y-104871762D01*
X160745714Y-104847571D01*
X160794095Y-104847571D01*
X160842476Y-105089476D01*
X160528000Y-103698523D02*
X160503810Y-103746904D01*
X160503810Y-103819476D01*
X160528000Y-103892047D01*
X160576381Y-103940428D01*
X160624762Y-103964619D01*
X160721524Y-103988809D01*
X160794095Y-103988809D01*
X160890857Y-103964619D01*
X160939238Y-103940428D01*
X160987619Y-103892047D01*
X161011810Y-103819476D01*
X161011810Y-103771095D01*
X160987619Y-103698523D01*
X160963429Y-103674333D01*
X160794095Y-103674333D01*
X160794095Y-103771095D01*
X161011810Y-103238904D02*
X160745714Y-103238904D01*
X160697333Y-103263095D01*
X160673143Y-103311476D01*
X160673143Y-103408238D01*
X160697333Y-103456619D01*
X160987619Y-103238904D02*
X161011810Y-103287285D01*
X161011810Y-103408238D01*
X160987619Y-103456619D01*
X160939238Y-103480809D01*
X160890857Y-103480809D01*
X160842476Y-103456619D01*
X160818286Y-103408238D01*
X160818286Y-103287285D01*
X160794095Y-103238904D01*
X161011810Y-102997000D02*
X160673143Y-102997000D01*
X160503810Y-102997000D02*
X160528000Y-103021190D01*
X160552190Y-102997000D01*
X160528000Y-102972809D01*
X160503810Y-102997000D01*
X160552190Y-102997000D01*
X160673143Y-102755095D02*
X161011810Y-102755095D01*
X160721524Y-102755095D02*
X160697333Y-102730904D01*
X160673143Y-102682523D01*
X160673143Y-102609952D01*
X160697333Y-102561571D01*
X160745714Y-102537380D01*
X161011810Y-102537380D01*
D11*
X160364714Y-100856142D02*
X160364714Y-101218999D01*
X160727571Y-101255285D01*
X160691286Y-101218999D01*
X160655000Y-101146428D01*
X160655000Y-100964999D01*
X160691286Y-100892428D01*
X160727571Y-100856142D01*
X160800143Y-100819857D01*
X160981571Y-100819857D01*
X161054143Y-100856142D01*
X161090429Y-100892428D01*
X161126714Y-100964999D01*
X161126714Y-101146428D01*
X161090429Y-101218999D01*
X161054143Y-101255285D01*
X160364714Y-100602143D02*
X161126714Y-100348143D01*
X160364714Y-100094143D01*
X161652857Y-88355714D02*
X161906857Y-89117714D01*
X162160857Y-88355714D01*
X162233429Y-89190286D02*
X162814000Y-89190286D01*
X162995429Y-88718571D02*
X163249429Y-88718571D01*
X163358286Y-89117714D02*
X162995429Y-89117714D01*
X162995429Y-88355714D01*
X163358286Y-88355714D01*
X163684858Y-89117714D02*
X163684858Y-88355714D01*
X164120286Y-89117714D01*
X164120286Y-88355714D01*
X164374286Y-88355714D02*
X164628286Y-89117714D01*
X164882286Y-88355714D01*
X165499144Y-89117714D02*
X165136287Y-89117714D01*
X165136287Y-88355714D01*
X165753144Y-89117714D02*
X165753144Y-88355714D01*
X166043429Y-88355714D01*
X166116001Y-88392000D01*
X166152286Y-88428286D01*
X166188572Y-88500857D01*
X166188572Y-88609714D01*
X166152286Y-88682286D01*
X166116001Y-88718571D01*
X166043429Y-88754857D01*
X165753144Y-88754857D01*
D13*
X154059000Y-99655000D02*
X155059000Y-99655000D01*
X155059000Y-101005000D02*
X154059000Y-101005000D01*
D14*
X145828000Y-108386000D02*
X149828000Y-108386000D01*
X144138000Y-99436000D02*
X149828000Y-99436000D01*
D13*
X134528000Y-91835000D02*
X135728000Y-91835000D01*
X135728000Y-93585000D02*
X134528000Y-93585000D01*
X139671500Y-94266500D02*
X139671500Y-93566500D01*
X140871500Y-93566500D02*
X140871500Y-94266500D01*
X129164080Y-92148660D02*
X129413000Y-91848940D01*
X129413000Y-91848940D02*
X129514600Y-91699080D01*
X129514600Y-91699080D02*
X129514600Y-92547440D01*
X128813560Y-90647520D02*
X128813560Y-92448380D01*
X128813560Y-90647520D02*
X129463800Y-90647520D01*
X133314440Y-90647520D02*
X133314440Y-92448380D01*
X133314440Y-90647520D02*
X132664200Y-90647520D01*
X134799500Y-95513500D02*
X136599500Y-95513500D01*
X136599500Y-95513500D02*
X136599500Y-95113500D01*
X136599500Y-95113500D02*
X134799500Y-95113500D01*
X134799500Y-95113500D02*
X134799500Y-95513500D01*
X141967000Y-102454000D02*
X141267000Y-102454000D01*
X141267000Y-101254000D02*
X141967000Y-101254000D01*
X156626000Y-101696000D02*
X156626000Y-100996000D01*
X157826000Y-100996000D02*
X157826000Y-101696000D01*
X138649000Y-104298000D02*
X138649000Y-104998000D01*
X137449000Y-104998000D02*
X137449000Y-104298000D01*
X140239000Y-104556000D02*
X140939000Y-104556000D01*
X140939000Y-105756000D02*
X140239000Y-105756000D01*
X156626000Y-104744000D02*
X156626000Y-104044000D01*
X157826000Y-104044000D02*
X157826000Y-104744000D01*
X153762000Y-107092000D02*
X153762000Y-107792000D01*
X152562000Y-107792000D02*
X152562000Y-107092000D01*
X152238000Y-109505000D02*
X152238000Y-110205000D01*
X151038000Y-110205000D02*
X151038000Y-109505000D01*
X147158000Y-109886000D02*
X147158000Y-110586000D01*
X145958000Y-110586000D02*
X145958000Y-109886000D01*
X150460000Y-109505000D02*
X150460000Y-110205000D01*
X149260000Y-110205000D02*
X149260000Y-109505000D01*
X149768000Y-97124000D02*
X149768000Y-96424000D01*
X150968000Y-96424000D02*
X150968000Y-97124000D01*
X149768000Y-94203000D02*
X149768000Y-93503000D01*
X150968000Y-93503000D02*
X150968000Y-94203000D01*
X160560500Y-94389500D02*
X159860500Y-94389500D01*
X159860500Y-93189500D02*
X160560500Y-93189500D01*
X153701000Y-91221000D02*
X154401000Y-91221000D01*
X154401000Y-92421000D02*
X153701000Y-92421000D01*
X141955000Y-98771000D02*
X141255000Y-98771000D01*
X141255000Y-97571000D02*
X141955000Y-97571000D01*
X141128000Y-95920000D02*
X141828000Y-95920000D01*
X141828000Y-97120000D02*
X141128000Y-97120000D01*
X147797000Y-98898000D02*
X147097000Y-98898000D01*
X147097000Y-97698000D02*
X147797000Y-97698000D01*
X144049000Y-97571000D02*
X144749000Y-97571000D01*
X144749000Y-98771000D02*
X144049000Y-98771000D01*
X137882000Y-97909000D02*
X137882000Y-96909000D01*
X139232000Y-96909000D02*
X139232000Y-97909000D01*
X142117000Y-100624000D02*
X141117000Y-100624000D01*
X141117000Y-99274000D02*
X142117000Y-99274000D01*
X155059000Y-99227000D02*
X154059000Y-99227000D01*
X154059000Y-97877000D02*
X155059000Y-97877000D01*
X155186000Y-104561000D02*
X154186000Y-104561000D01*
X154186000Y-103211000D02*
X155186000Y-103211000D01*
X154138000Y-107180000D02*
X154138000Y-106180000D01*
X155488000Y-106180000D02*
X155488000Y-107180000D01*
X158329000Y-101719000D02*
X158329000Y-100719000D01*
X159679000Y-100719000D02*
X159679000Y-101719000D01*
X154059000Y-101433000D02*
X155059000Y-101433000D01*
X155059000Y-102783000D02*
X154059000Y-102783000D01*
X158329000Y-104767000D02*
X158329000Y-103767000D01*
X159679000Y-103767000D02*
X159679000Y-104767000D01*
X158842000Y-98284000D02*
X157642000Y-98284000D01*
X157642000Y-96534000D02*
X158842000Y-96534000D01*
X137755000Y-101084000D02*
X137755000Y-100084000D01*
X139105000Y-100084000D02*
X139105000Y-101084000D01*
D14*
X154804000Y-93055000D02*
X153044000Y-93055000D01*
X153044000Y-96125000D02*
X155474000Y-96125000D01*
D13*
X160655000Y-111125000D02*
X160655000Y-107315000D01*
X156845000Y-107315000D02*
X160655000Y-107315000D01*
X156845000Y-111125000D02*
X156845000Y-107315000D01*
X160655000Y-111125000D02*
X156845000Y-111125000D01*
D14*
X138856000Y-93353000D02*
X138856000Y-94353000D01*
X137496000Y-94353000D02*
X137496000Y-93353000D01*
X133141000Y-102370000D02*
X133141000Y-103370000D01*
X131781000Y-103370000D02*
X131781000Y-102370000D01*
D13*
X164178500Y-111350500D02*
X164878500Y-111350500D01*
X164878500Y-112550500D02*
X164178500Y-112550500D01*
X160499500Y-97822500D02*
X160499500Y-97122500D01*
X161699500Y-97122500D02*
X161699500Y-97822500D01*
X133065000Y-108296000D02*
X132365000Y-108296000D01*
X132365000Y-107096000D02*
X133065000Y-107096000D01*
D14*
X128704500Y-102990000D02*
X128704500Y-100330000D01*
X128704500Y-100330000D02*
X125964500Y-100330000D01*
X125964500Y-100330000D02*
X125964500Y-102990000D01*
X125964500Y-102990000D02*
X128704500Y-102990000D01*
X125964500Y-102040000D02*
X125964500Y-101160000D01*
X125964500Y-101160000D02*
X119964500Y-101160000D01*
X119964500Y-101160000D02*
X119964500Y-102040000D01*
X119964500Y-102040000D02*
X125964500Y-102040000D01*
X129014500Y-102040000D02*
X128704500Y-102040000D01*
X129014500Y-101160000D02*
X128704500Y-101160000D01*
X125964500Y-101920000D02*
X119964500Y-101920000D01*
X125964500Y-101800000D02*
X119964500Y-101800000D01*
X125964500Y-101680000D02*
X119964500Y-101680000D01*
X125964500Y-101560000D02*
X119964500Y-101560000D01*
X125964500Y-101440000D02*
X119964500Y-101440000D01*
X125964500Y-101320000D02*
X119964500Y-101320000D01*
X125964500Y-101200000D02*
X119964500Y-101200000D01*
X128704500Y-100330000D02*
X128704500Y-97670000D01*
X128704500Y-97670000D02*
X125964500Y-97670000D01*
X125964500Y-97670000D02*
X125964500Y-100330000D01*
X125964500Y-100330000D02*
X128704500Y-100330000D01*
X125964500Y-99500000D02*
X125964500Y-98620000D01*
X125964500Y-98620000D02*
X119964500Y-98620000D01*
X119964500Y-98620000D02*
X119964500Y-99500000D01*
X119964500Y-99500000D02*
X125964500Y-99500000D01*
X129014500Y-99500000D02*
X128704500Y-99500000D01*
X129014500Y-98620000D02*
X128704500Y-98620000D01*
X131254500Y-101600000D02*
X131254500Y-102870000D01*
X131254500Y-102870000D02*
X129984500Y-102870000D01*
X133421000Y-106297000D02*
X134351000Y-106297000D01*
X136581000Y-106297000D02*
X135651000Y-106297000D01*
X136581000Y-106297000D02*
X136581000Y-104137000D01*
X133421000Y-106297000D02*
X133421000Y-104837000D01*
X131189000Y-107371000D02*
X131189000Y-106441000D01*
X131189000Y-104211000D02*
X131189000Y-105141000D01*
X131189000Y-104211000D02*
X129029000Y-104211000D01*
X131189000Y-107371000D02*
X129729000Y-107371000D01*
D12*
X152569333Y-100686810D02*
X152400000Y-100444905D01*
X152279047Y-100686810D02*
X152279047Y-100178810D01*
X152472571Y-100178810D01*
X152520952Y-100203000D01*
X152545143Y-100227190D01*
X152569333Y-100275571D01*
X152569333Y-100348143D01*
X152545143Y-100396524D01*
X152520952Y-100420714D01*
X152472571Y-100444905D01*
X152279047Y-100444905D01*
X152859619Y-100396524D02*
X152811238Y-100372333D01*
X152787047Y-100348143D01*
X152762857Y-100299762D01*
X152762857Y-100275571D01*
X152787047Y-100227190D01*
X152811238Y-100203000D01*
X152859619Y-100178810D01*
X152956381Y-100178810D01*
X153004762Y-100203000D01*
X153028952Y-100227190D01*
X153053143Y-100275571D01*
X153053143Y-100299762D01*
X153028952Y-100348143D01*
X153004762Y-100372333D01*
X152956381Y-100396524D01*
X152859619Y-100396524D01*
X152811238Y-100420714D01*
X152787047Y-100444905D01*
X152762857Y-100493286D01*
X152762857Y-100590048D01*
X152787047Y-100638429D01*
X152811238Y-100662619D01*
X152859619Y-100686810D01*
X152956381Y-100686810D01*
X153004762Y-100662619D01*
X153028952Y-100638429D01*
X153053143Y-100590048D01*
X153053143Y-100493286D01*
X153028952Y-100444905D01*
X153004762Y-100420714D01*
X152956381Y-100396524D01*
X144900952Y-99797810D02*
X144900952Y-100209048D01*
X144925143Y-100257429D01*
X144949333Y-100281619D01*
X144997714Y-100305810D01*
X145094476Y-100305810D01*
X145142857Y-100281619D01*
X145167048Y-100257429D01*
X145191238Y-100209048D01*
X145191238Y-99797810D01*
X145675047Y-99797810D02*
X145433142Y-99797810D01*
X145408952Y-100039714D01*
X145433142Y-100015524D01*
X145481523Y-99991333D01*
X145602476Y-99991333D01*
X145650857Y-100015524D01*
X145675047Y-100039714D01*
X145699238Y-100088095D01*
X145699238Y-100209048D01*
X145675047Y-100257429D01*
X145650857Y-100281619D01*
X145602476Y-100305810D01*
X145481523Y-100305810D01*
X145433142Y-100281619D01*
X145408952Y-100257429D01*
X135043333Y-91415810D02*
X134874000Y-91173905D01*
X134753047Y-91415810D02*
X134753047Y-90907810D01*
X134946571Y-90907810D01*
X134994952Y-90932000D01*
X135019143Y-90956190D01*
X135043333Y-91004571D01*
X135043333Y-91077143D01*
X135019143Y-91125524D01*
X134994952Y-91149714D01*
X134946571Y-91173905D01*
X134753047Y-91173905D01*
X135527143Y-91415810D02*
X135236857Y-91415810D01*
X135382000Y-91415810D02*
X135382000Y-90907810D01*
X135333619Y-90980381D01*
X135285238Y-91028762D01*
X135236857Y-91052952D01*
X140631333Y-92383429D02*
X140607143Y-92407619D01*
X140534571Y-92431810D01*
X140486190Y-92431810D01*
X140413619Y-92407619D01*
X140365238Y-92359238D01*
X140341047Y-92310857D01*
X140316857Y-92214095D01*
X140316857Y-92141524D01*
X140341047Y-92044762D01*
X140365238Y-91996381D01*
X140413619Y-91948000D01*
X140486190Y-91923810D01*
X140534571Y-91923810D01*
X140607143Y-91948000D01*
X140631333Y-91972190D01*
X141090952Y-91923810D02*
X140849047Y-91923810D01*
X140824857Y-92165714D01*
X140849047Y-92141524D01*
X140897428Y-92117333D01*
X141018381Y-92117333D01*
X141066762Y-92141524D01*
X141090952Y-92165714D01*
X141115143Y-92214095D01*
X141115143Y-92335048D01*
X141090952Y-92383429D01*
X141066762Y-92407619D01*
X141018381Y-92431810D01*
X140897428Y-92431810D01*
X140849047Y-92407619D01*
X140824857Y-92383429D01*
D15*
X132575905Y-88978619D02*
X132575905Y-89801095D01*
X132624286Y-89897857D01*
X132672667Y-89946238D01*
X132769429Y-89994619D01*
X132962952Y-89994619D01*
X133059714Y-89946238D01*
X133108095Y-89897857D01*
X133156476Y-89801095D01*
X133156476Y-88978619D01*
X133591905Y-89075381D02*
X133640286Y-89027000D01*
X133737048Y-88978619D01*
X133978952Y-88978619D01*
X134075714Y-89027000D01*
X134124095Y-89075381D01*
X134172476Y-89172143D01*
X134172476Y-89268905D01*
X134124095Y-89414048D01*
X133543524Y-89994619D01*
X134172476Y-89994619D01*
D12*
X135388047Y-96876810D02*
X135388047Y-96368810D01*
X135509000Y-96368810D01*
X135581571Y-96393000D01*
X135629952Y-96441381D01*
X135654143Y-96489762D01*
X135678333Y-96586524D01*
X135678333Y-96659095D01*
X135654143Y-96755857D01*
X135629952Y-96804238D01*
X135581571Y-96852619D01*
X135509000Y-96876810D01*
X135388047Y-96876810D01*
X136162143Y-96876810D02*
X135871857Y-96876810D01*
X136017000Y-96876810D02*
X136017000Y-96368810D01*
X135968619Y-96441381D01*
X135920238Y-96489762D01*
X135871857Y-96513952D01*
X141405428Y-103178429D02*
X141381238Y-103202619D01*
X141308666Y-103226810D01*
X141260285Y-103226810D01*
X141187714Y-103202619D01*
X141139333Y-103154238D01*
X141115142Y-103105857D01*
X141090952Y-103009095D01*
X141090952Y-102936524D01*
X141115142Y-102839762D01*
X141139333Y-102791381D01*
X141187714Y-102743000D01*
X141260285Y-102718810D01*
X141308666Y-102718810D01*
X141381238Y-102743000D01*
X141405428Y-102767190D01*
X141889238Y-103226810D02*
X141598952Y-103226810D01*
X141744095Y-103226810D02*
X141744095Y-102718810D01*
X141695714Y-102791381D01*
X141647333Y-102839762D01*
X141598952Y-102863952D01*
X142373048Y-103226810D02*
X142082762Y-103226810D01*
X142227905Y-103226810D02*
X142227905Y-102718810D01*
X142179524Y-102791381D01*
X142131143Y-102839762D01*
X142082762Y-102863952D01*
X156645428Y-99749429D02*
X156621238Y-99773619D01*
X156548666Y-99797810D01*
X156500285Y-99797810D01*
X156427714Y-99773619D01*
X156379333Y-99725238D01*
X156355142Y-99676857D01*
X156330952Y-99580095D01*
X156330952Y-99507524D01*
X156355142Y-99410762D01*
X156379333Y-99362381D01*
X156427714Y-99314000D01*
X156500285Y-99289810D01*
X156548666Y-99289810D01*
X156621238Y-99314000D01*
X156645428Y-99338190D01*
X157129238Y-99797810D02*
X156838952Y-99797810D01*
X156984095Y-99797810D02*
X156984095Y-99289810D01*
X156935714Y-99362381D01*
X156887333Y-99410762D01*
X156838952Y-99434952D01*
X157322762Y-99338190D02*
X157346952Y-99314000D01*
X157395333Y-99289810D01*
X157516286Y-99289810D01*
X157564667Y-99314000D01*
X157588857Y-99338190D01*
X157613048Y-99386571D01*
X157613048Y-99434952D01*
X157588857Y-99507524D01*
X157298571Y-99797810D01*
X157613048Y-99797810D01*
X137722428Y-106353429D02*
X137698238Y-106377619D01*
X137625666Y-106401810D01*
X137577285Y-106401810D01*
X137504714Y-106377619D01*
X137456333Y-106329238D01*
X137432142Y-106280857D01*
X137407952Y-106184095D01*
X137407952Y-106111524D01*
X137432142Y-106014762D01*
X137456333Y-105966381D01*
X137504714Y-105918000D01*
X137577285Y-105893810D01*
X137625666Y-105893810D01*
X137698238Y-105918000D01*
X137722428Y-105942190D01*
X138206238Y-106401810D02*
X137915952Y-106401810D01*
X138061095Y-106401810D02*
X138061095Y-105893810D01*
X138012714Y-105966381D01*
X137964333Y-106014762D01*
X137915952Y-106038952D01*
X138375571Y-105893810D02*
X138690048Y-105893810D01*
X138520714Y-106087333D01*
X138593286Y-106087333D01*
X138641667Y-106111524D01*
X138665857Y-106135714D01*
X138690048Y-106184095D01*
X138690048Y-106305048D01*
X138665857Y-106353429D01*
X138641667Y-106377619D01*
X138593286Y-106401810D01*
X138448143Y-106401810D01*
X138399762Y-106377619D01*
X138375571Y-106353429D01*
X140262428Y-106607429D02*
X140238238Y-106631619D01*
X140165666Y-106655810D01*
X140117285Y-106655810D01*
X140044714Y-106631619D01*
X139996333Y-106583238D01*
X139972142Y-106534857D01*
X139947952Y-106438095D01*
X139947952Y-106365524D01*
X139972142Y-106268762D01*
X139996333Y-106220381D01*
X140044714Y-106172000D01*
X140117285Y-106147810D01*
X140165666Y-106147810D01*
X140238238Y-106172000D01*
X140262428Y-106196190D01*
X140746238Y-106655810D02*
X140455952Y-106655810D01*
X140601095Y-106655810D02*
X140601095Y-106147810D01*
X140552714Y-106220381D01*
X140504333Y-106268762D01*
X140455952Y-106292952D01*
X141181667Y-106317143D02*
X141181667Y-106655810D01*
X141060714Y-106123619D02*
X140939762Y-106486476D01*
X141254238Y-106486476D01*
X155502428Y-105337429D02*
X155478238Y-105361619D01*
X155405666Y-105385810D01*
X155357285Y-105385810D01*
X155284714Y-105361619D01*
X155236333Y-105313238D01*
X155212142Y-105264857D01*
X155187952Y-105168095D01*
X155187952Y-105095524D01*
X155212142Y-104998762D01*
X155236333Y-104950381D01*
X155284714Y-104902000D01*
X155357285Y-104877810D01*
X155405666Y-104877810D01*
X155478238Y-104902000D01*
X155502428Y-104926190D01*
X155986238Y-105385810D02*
X155695952Y-105385810D01*
X155841095Y-105385810D02*
X155841095Y-104877810D01*
X155792714Y-104950381D01*
X155744333Y-104998762D01*
X155695952Y-105022952D01*
X156445857Y-104877810D02*
X156203952Y-104877810D01*
X156179762Y-105119714D01*
X156203952Y-105095524D01*
X156252333Y-105071333D01*
X156373286Y-105071333D01*
X156421667Y-105095524D01*
X156445857Y-105119714D01*
X156470048Y-105168095D01*
X156470048Y-105289048D01*
X156445857Y-105337429D01*
X156421667Y-105361619D01*
X156373286Y-105385810D01*
X156252333Y-105385810D01*
X156203952Y-105361619D01*
X156179762Y-105337429D01*
X152835428Y-109401429D02*
X152811238Y-109425619D01*
X152738666Y-109449810D01*
X152690285Y-109449810D01*
X152617714Y-109425619D01*
X152569333Y-109377238D01*
X152545142Y-109328857D01*
X152520952Y-109232095D01*
X152520952Y-109159524D01*
X152545142Y-109062762D01*
X152569333Y-109014381D01*
X152617714Y-108966000D01*
X152690285Y-108941810D01*
X152738666Y-108941810D01*
X152811238Y-108966000D01*
X152835428Y-108990190D01*
X153319238Y-109449810D02*
X153028952Y-109449810D01*
X153174095Y-109449810D02*
X153174095Y-108941810D01*
X153125714Y-109014381D01*
X153077333Y-109062762D01*
X153028952Y-109086952D01*
X153754667Y-108941810D02*
X153657905Y-108941810D01*
X153609524Y-108966000D01*
X153585333Y-108990190D01*
X153536952Y-109062762D01*
X153512762Y-109159524D01*
X153512762Y-109353048D01*
X153536952Y-109401429D01*
X153561143Y-109425619D01*
X153609524Y-109449810D01*
X153706286Y-109449810D01*
X153754667Y-109425619D01*
X153778857Y-109401429D01*
X153803048Y-109353048D01*
X153803048Y-109232095D01*
X153778857Y-109183714D01*
X153754667Y-109159524D01*
X153706286Y-109135333D01*
X153609524Y-109135333D01*
X153561143Y-109159524D01*
X153536952Y-109183714D01*
X153512762Y-109232095D01*
X151311428Y-111814429D02*
X151287238Y-111838619D01*
X151214666Y-111862810D01*
X151166285Y-111862810D01*
X151093714Y-111838619D01*
X151045333Y-111790238D01*
X151021142Y-111741857D01*
X150996952Y-111645095D01*
X150996952Y-111572524D01*
X151021142Y-111475762D01*
X151045333Y-111427381D01*
X151093714Y-111379000D01*
X151166285Y-111354810D01*
X151214666Y-111354810D01*
X151287238Y-111379000D01*
X151311428Y-111403190D01*
X151795238Y-111862810D02*
X151504952Y-111862810D01*
X151650095Y-111862810D02*
X151650095Y-111354810D01*
X151601714Y-111427381D01*
X151553333Y-111475762D01*
X151504952Y-111499952D01*
X151964571Y-111354810D02*
X152303238Y-111354810D01*
X152085524Y-111862810D01*
X146104428Y-112068429D02*
X146080238Y-112092619D01*
X146007666Y-112116810D01*
X145959285Y-112116810D01*
X145886714Y-112092619D01*
X145838333Y-112044238D01*
X145814142Y-111995857D01*
X145789952Y-111899095D01*
X145789952Y-111826524D01*
X145814142Y-111729762D01*
X145838333Y-111681381D01*
X145886714Y-111633000D01*
X145959285Y-111608810D01*
X146007666Y-111608810D01*
X146080238Y-111633000D01*
X146104428Y-111657190D01*
X146588238Y-112116810D02*
X146297952Y-112116810D01*
X146443095Y-112116810D02*
X146443095Y-111608810D01*
X146394714Y-111681381D01*
X146346333Y-111729762D01*
X146297952Y-111753952D01*
X146878524Y-111826524D02*
X146830143Y-111802333D01*
X146805952Y-111778143D01*
X146781762Y-111729762D01*
X146781762Y-111705571D01*
X146805952Y-111657190D01*
X146830143Y-111633000D01*
X146878524Y-111608810D01*
X146975286Y-111608810D01*
X147023667Y-111633000D01*
X147047857Y-111657190D01*
X147072048Y-111705571D01*
X147072048Y-111729762D01*
X147047857Y-111778143D01*
X147023667Y-111802333D01*
X146975286Y-111826524D01*
X146878524Y-111826524D01*
X146830143Y-111850714D01*
X146805952Y-111874905D01*
X146781762Y-111923286D01*
X146781762Y-112020048D01*
X146805952Y-112068429D01*
X146830143Y-112092619D01*
X146878524Y-112116810D01*
X146975286Y-112116810D01*
X147023667Y-112092619D01*
X147047857Y-112068429D01*
X147072048Y-112020048D01*
X147072048Y-111923286D01*
X147047857Y-111874905D01*
X147023667Y-111850714D01*
X146975286Y-111826524D01*
X149533428Y-111814429D02*
X149509238Y-111838619D01*
X149436666Y-111862810D01*
X149388285Y-111862810D01*
X149315714Y-111838619D01*
X149267333Y-111790238D01*
X149243142Y-111741857D01*
X149218952Y-111645095D01*
X149218952Y-111572524D01*
X149243142Y-111475762D01*
X149267333Y-111427381D01*
X149315714Y-111379000D01*
X149388285Y-111354810D01*
X149436666Y-111354810D01*
X149509238Y-111379000D01*
X149533428Y-111403190D01*
X150017238Y-111862810D02*
X149726952Y-111862810D01*
X149872095Y-111862810D02*
X149872095Y-111354810D01*
X149823714Y-111427381D01*
X149775333Y-111475762D01*
X149726952Y-111499952D01*
X150259143Y-111862810D02*
X150355905Y-111862810D01*
X150404286Y-111838619D01*
X150428476Y-111814429D01*
X150476857Y-111741857D01*
X150501048Y-111645095D01*
X150501048Y-111451571D01*
X150476857Y-111403190D01*
X150452667Y-111379000D01*
X150404286Y-111354810D01*
X150307524Y-111354810D01*
X150259143Y-111379000D01*
X150234952Y-111403190D01*
X150210762Y-111451571D01*
X150210762Y-111572524D01*
X150234952Y-111620905D01*
X150259143Y-111645095D01*
X150307524Y-111669286D01*
X150404286Y-111669286D01*
X150452667Y-111645095D01*
X150476857Y-111620905D01*
X150501048Y-111572524D01*
X150041428Y-98733429D02*
X150017238Y-98757619D01*
X149944666Y-98781810D01*
X149896285Y-98781810D01*
X149823714Y-98757619D01*
X149775333Y-98709238D01*
X149751142Y-98660857D01*
X149726952Y-98564095D01*
X149726952Y-98491524D01*
X149751142Y-98394762D01*
X149775333Y-98346381D01*
X149823714Y-98298000D01*
X149896285Y-98273810D01*
X149944666Y-98273810D01*
X150017238Y-98298000D01*
X150041428Y-98322190D01*
X150234952Y-98322190D02*
X150259142Y-98298000D01*
X150307523Y-98273810D01*
X150428476Y-98273810D01*
X150476857Y-98298000D01*
X150501047Y-98322190D01*
X150525238Y-98370571D01*
X150525238Y-98418952D01*
X150501047Y-98491524D01*
X150210761Y-98781810D01*
X150525238Y-98781810D01*
X150839714Y-98273810D02*
X150888095Y-98273810D01*
X150936476Y-98298000D01*
X150960667Y-98322190D01*
X150984857Y-98370571D01*
X151009048Y-98467333D01*
X151009048Y-98588286D01*
X150984857Y-98685048D01*
X150960667Y-98733429D01*
X150936476Y-98757619D01*
X150888095Y-98781810D01*
X150839714Y-98781810D01*
X150791333Y-98757619D01*
X150767143Y-98733429D01*
X150742952Y-98685048D01*
X150718762Y-98588286D01*
X150718762Y-98467333D01*
X150742952Y-98370571D01*
X150767143Y-98322190D01*
X150791333Y-98298000D01*
X150839714Y-98273810D01*
X150041428Y-92129429D02*
X150017238Y-92153619D01*
X149944666Y-92177810D01*
X149896285Y-92177810D01*
X149823714Y-92153619D01*
X149775333Y-92105238D01*
X149751142Y-92056857D01*
X149726952Y-91960095D01*
X149726952Y-91887524D01*
X149751142Y-91790762D01*
X149775333Y-91742381D01*
X149823714Y-91694000D01*
X149896285Y-91669810D01*
X149944666Y-91669810D01*
X150017238Y-91694000D01*
X150041428Y-91718190D01*
X150234952Y-91718190D02*
X150259142Y-91694000D01*
X150307523Y-91669810D01*
X150428476Y-91669810D01*
X150476857Y-91694000D01*
X150501047Y-91718190D01*
X150525238Y-91766571D01*
X150525238Y-91814952D01*
X150501047Y-91887524D01*
X150210761Y-92177810D01*
X150525238Y-92177810D01*
X151009048Y-92177810D02*
X150718762Y-92177810D01*
X150863905Y-92177810D02*
X150863905Y-91669810D01*
X150815524Y-91742381D01*
X150767143Y-91790762D01*
X150718762Y-91814952D01*
X159883928Y-92764429D02*
X159859738Y-92788619D01*
X159787166Y-92812810D01*
X159738785Y-92812810D01*
X159666214Y-92788619D01*
X159617833Y-92740238D01*
X159593642Y-92691857D01*
X159569452Y-92595095D01*
X159569452Y-92522524D01*
X159593642Y-92425762D01*
X159617833Y-92377381D01*
X159666214Y-92329000D01*
X159738785Y-92304810D01*
X159787166Y-92304810D01*
X159859738Y-92329000D01*
X159883928Y-92353190D01*
X160077452Y-92353190D02*
X160101642Y-92329000D01*
X160150023Y-92304810D01*
X160270976Y-92304810D01*
X160319357Y-92329000D01*
X160343547Y-92353190D01*
X160367738Y-92401571D01*
X160367738Y-92449952D01*
X160343547Y-92522524D01*
X160053261Y-92812810D01*
X160367738Y-92812810D01*
X160561262Y-92353190D02*
X160585452Y-92329000D01*
X160633833Y-92304810D01*
X160754786Y-92304810D01*
X160803167Y-92329000D01*
X160827357Y-92353190D01*
X160851548Y-92401571D01*
X160851548Y-92449952D01*
X160827357Y-92522524D01*
X160537071Y-92812810D01*
X160851548Y-92812810D01*
X153851428Y-90605429D02*
X153827238Y-90629619D01*
X153754666Y-90653810D01*
X153706285Y-90653810D01*
X153633714Y-90629619D01*
X153585333Y-90581238D01*
X153561142Y-90532857D01*
X153536952Y-90436095D01*
X153536952Y-90363524D01*
X153561142Y-90266762D01*
X153585333Y-90218381D01*
X153633714Y-90170000D01*
X153706285Y-90145810D01*
X153754666Y-90145810D01*
X153827238Y-90170000D01*
X153851428Y-90194190D01*
X154044952Y-90194190D02*
X154069142Y-90170000D01*
X154117523Y-90145810D01*
X154238476Y-90145810D01*
X154286857Y-90170000D01*
X154311047Y-90194190D01*
X154335238Y-90242571D01*
X154335238Y-90290952D01*
X154311047Y-90363524D01*
X154020761Y-90653810D01*
X154335238Y-90653810D01*
X154504571Y-90145810D02*
X154819048Y-90145810D01*
X154649714Y-90339333D01*
X154722286Y-90339333D01*
X154770667Y-90363524D01*
X154794857Y-90387714D01*
X154819048Y-90436095D01*
X154819048Y-90557048D01*
X154794857Y-90605429D01*
X154770667Y-90629619D01*
X154722286Y-90653810D01*
X154577143Y-90653810D01*
X154528762Y-90629619D01*
X154504571Y-90605429D01*
D16*
X139917715Y-97545071D02*
X139899572Y-97563214D01*
X139845143Y-97581357D01*
X139808857Y-97581357D01*
X139754429Y-97563214D01*
X139718143Y-97526929D01*
X139700000Y-97490643D01*
X139681857Y-97418071D01*
X139681857Y-97363643D01*
X139700000Y-97291071D01*
X139718143Y-97254786D01*
X139754429Y-97218500D01*
X139808857Y-97200357D01*
X139845143Y-97200357D01*
X139899572Y-97218500D01*
X139917715Y-97236643D01*
X140208000Y-97381786D02*
X140081000Y-97381786D01*
X140081000Y-97581357D02*
X140081000Y-97200357D01*
X140262429Y-97200357D01*
X140534571Y-97381786D02*
X140589000Y-97399929D01*
X140607143Y-97418071D01*
X140625286Y-97454357D01*
X140625286Y-97508786D01*
X140607143Y-97545071D01*
X140589000Y-97563214D01*
X140552714Y-97581357D01*
X140407571Y-97581357D01*
X140407571Y-97200357D01*
X140534571Y-97200357D01*
X140570857Y-97218500D01*
X140589000Y-97236643D01*
X140607143Y-97272929D01*
X140607143Y-97309214D01*
X140589000Y-97345500D01*
X140570857Y-97363643D01*
X140534571Y-97381786D01*
X140407571Y-97381786D01*
X140988143Y-97581357D02*
X140770428Y-97581357D01*
X140879286Y-97581357D02*
X140879286Y-97200357D01*
X140843000Y-97254786D01*
X140806714Y-97291071D01*
X140770428Y-97309214D01*
D12*
X140994191Y-95558429D02*
X140970001Y-95582619D01*
X140897429Y-95606810D01*
X140849048Y-95606810D01*
X140776477Y-95582619D01*
X140728096Y-95534238D01*
X140703905Y-95485857D01*
X140679715Y-95389095D01*
X140679715Y-95316524D01*
X140703905Y-95219762D01*
X140728096Y-95171381D01*
X140776477Y-95123000D01*
X140849048Y-95098810D01*
X140897429Y-95098810D01*
X140970001Y-95123000D01*
X140994191Y-95147190D01*
X141211905Y-95606810D02*
X141211905Y-95098810D01*
X141453810Y-95606810D02*
X141453810Y-95098810D01*
X141744096Y-95606810D01*
X141744096Y-95098810D01*
X141986000Y-95606810D02*
X141986000Y-95098810D01*
X141986000Y-95340714D02*
X142276286Y-95340714D01*
X142276286Y-95606810D02*
X142276286Y-95098810D01*
X142784286Y-95606810D02*
X142494000Y-95606810D01*
X142639143Y-95606810D02*
X142639143Y-95098810D01*
X142590762Y-95171381D01*
X142542381Y-95219762D01*
X142494000Y-95243952D01*
X146485429Y-97209429D02*
X146461239Y-97233619D01*
X146388667Y-97257810D01*
X146340286Y-97257810D01*
X146267715Y-97233619D01*
X146219334Y-97185238D01*
X146195143Y-97136857D01*
X146170953Y-97040095D01*
X146170953Y-96967524D01*
X146195143Y-96870762D01*
X146219334Y-96822381D01*
X146267715Y-96774000D01*
X146340286Y-96749810D01*
X146388667Y-96749810D01*
X146461239Y-96774000D01*
X146485429Y-96798190D01*
X146945048Y-97257810D02*
X146703143Y-97257810D01*
X146703143Y-96749810D01*
X147114381Y-97257810D02*
X147114381Y-96749810D01*
X147283715Y-97112667D01*
X147453048Y-96749810D01*
X147453048Y-97257810D01*
X147694952Y-97257810D02*
X147694952Y-96749810D01*
X147815905Y-96749810D01*
X147888476Y-96774000D01*
X147936857Y-96822381D01*
X147961048Y-96870762D01*
X147985238Y-96967524D01*
X147985238Y-97040095D01*
X147961048Y-97136857D01*
X147936857Y-97185238D01*
X147888476Y-97233619D01*
X147815905Y-97257810D01*
X147694952Y-97257810D01*
X148469048Y-97257810D02*
X148178762Y-97257810D01*
X148323905Y-97257810D02*
X148323905Y-96749810D01*
X148275524Y-96822381D01*
X148227143Y-96870762D01*
X148178762Y-96894952D01*
X143679333Y-97209429D02*
X143655143Y-97233619D01*
X143582571Y-97257810D01*
X143534190Y-97257810D01*
X143461619Y-97233619D01*
X143413238Y-97185238D01*
X143389047Y-97136857D01*
X143364857Y-97040095D01*
X143364857Y-96967524D01*
X143389047Y-96870762D01*
X143413238Y-96822381D01*
X143461619Y-96774000D01*
X143534190Y-96749810D01*
X143582571Y-96749810D01*
X143655143Y-96774000D01*
X143679333Y-96798190D01*
X143872857Y-97233619D02*
X143945428Y-97257810D01*
X144066381Y-97257810D01*
X144114762Y-97233619D01*
X144138952Y-97209429D01*
X144163143Y-97161048D01*
X144163143Y-97112667D01*
X144138952Y-97064286D01*
X144114762Y-97040095D01*
X144066381Y-97015905D01*
X143969619Y-96991714D01*
X143921238Y-96967524D01*
X143897047Y-96943333D01*
X143872857Y-96894952D01*
X143872857Y-96846571D01*
X143897047Y-96798190D01*
X143921238Y-96774000D01*
X143969619Y-96749810D01*
X144090571Y-96749810D01*
X144163143Y-96774000D01*
X144380857Y-97257810D02*
X144380857Y-96749810D01*
X144380857Y-96991714D02*
X144671143Y-96991714D01*
X144671143Y-97257810D02*
X144671143Y-96749810D01*
X145179143Y-97257810D02*
X144888857Y-97257810D01*
X145034000Y-97257810D02*
X145034000Y-96749810D01*
X144985619Y-96822381D01*
X144937238Y-96870762D01*
X144888857Y-96894952D01*
X138345333Y-95987810D02*
X138103428Y-95987810D01*
X138103428Y-95479810D01*
X138490476Y-95528190D02*
X138514666Y-95504000D01*
X138563047Y-95479810D01*
X138684000Y-95479810D01*
X138732381Y-95504000D01*
X138756571Y-95528190D01*
X138780762Y-95576571D01*
X138780762Y-95624952D01*
X138756571Y-95697524D01*
X138466285Y-95987810D01*
X138780762Y-95987810D01*
X143310333Y-100178810D02*
X143068428Y-100178810D01*
X143068428Y-99670810D01*
X143431285Y-99670810D02*
X143745762Y-99670810D01*
X143576428Y-99864333D01*
X143649000Y-99864333D01*
X143697381Y-99888524D01*
X143721571Y-99912714D01*
X143745762Y-99961095D01*
X143745762Y-100082048D01*
X143721571Y-100130429D01*
X143697381Y-100154619D01*
X143649000Y-100178810D01*
X143503857Y-100178810D01*
X143455476Y-100154619D01*
X143431285Y-100130429D01*
X152557333Y-98781810D02*
X152315428Y-98781810D01*
X152315428Y-98273810D01*
X152944381Y-98443143D02*
X152944381Y-98781810D01*
X152823428Y-98249619D02*
X152702476Y-98612476D01*
X153016952Y-98612476D01*
X152684333Y-104242810D02*
X152442428Y-104242810D01*
X152442428Y-103734810D01*
X153095571Y-103734810D02*
X152853666Y-103734810D01*
X152829476Y-103976714D01*
X152853666Y-103952524D01*
X152902047Y-103928333D01*
X153023000Y-103928333D01*
X153071381Y-103952524D01*
X153095571Y-103976714D01*
X153119762Y-104025095D01*
X153119762Y-104146048D01*
X153095571Y-104194429D01*
X153071381Y-104218619D01*
X153023000Y-104242810D01*
X152902047Y-104242810D01*
X152853666Y-104218619D01*
X152829476Y-104194429D01*
X154728333Y-108560810D02*
X154486428Y-108560810D01*
X154486428Y-108052810D01*
X155115381Y-108052810D02*
X155018619Y-108052810D01*
X154970238Y-108077000D01*
X154946047Y-108101190D01*
X154897666Y-108173762D01*
X154873476Y-108270524D01*
X154873476Y-108464048D01*
X154897666Y-108512429D01*
X154921857Y-108536619D01*
X154970238Y-108560810D01*
X155067000Y-108560810D01*
X155115381Y-108536619D01*
X155139571Y-108512429D01*
X155163762Y-108464048D01*
X155163762Y-108343095D01*
X155139571Y-108294714D01*
X155115381Y-108270524D01*
X155067000Y-108246333D01*
X154970238Y-108246333D01*
X154921857Y-108270524D01*
X154897666Y-108294714D01*
X154873476Y-108343095D01*
X158919333Y-99924810D02*
X158750000Y-99682905D01*
X158629047Y-99924810D02*
X158629047Y-99416810D01*
X158822571Y-99416810D01*
X158870952Y-99441000D01*
X158895143Y-99465190D01*
X158919333Y-99513571D01*
X158919333Y-99586143D01*
X158895143Y-99634524D01*
X158870952Y-99658714D01*
X158822571Y-99682905D01*
X158629047Y-99682905D01*
X159354762Y-99416810D02*
X159258000Y-99416810D01*
X159209619Y-99441000D01*
X159185428Y-99465190D01*
X159137047Y-99537762D01*
X159112857Y-99634524D01*
X159112857Y-99828048D01*
X159137047Y-99876429D01*
X159161238Y-99900619D01*
X159209619Y-99924810D01*
X159306381Y-99924810D01*
X159354762Y-99900619D01*
X159378952Y-99876429D01*
X159403143Y-99828048D01*
X159403143Y-99707095D01*
X159378952Y-99658714D01*
X159354762Y-99634524D01*
X159306381Y-99610333D01*
X159209619Y-99610333D01*
X159161238Y-99634524D01*
X159137047Y-99658714D01*
X159112857Y-99707095D01*
X152557333Y-102337810D02*
X152388000Y-102095905D01*
X152267047Y-102337810D02*
X152267047Y-101829810D01*
X152460571Y-101829810D01*
X152508952Y-101854000D01*
X152533143Y-101878190D01*
X152557333Y-101926571D01*
X152557333Y-101999143D01*
X152533143Y-102047524D01*
X152508952Y-102071714D01*
X152460571Y-102095905D01*
X152267047Y-102095905D01*
X152799238Y-102337810D02*
X152896000Y-102337810D01*
X152944381Y-102313619D01*
X152968571Y-102289429D01*
X153016952Y-102216857D01*
X153041143Y-102120095D01*
X153041143Y-101926571D01*
X153016952Y-101878190D01*
X152992762Y-101854000D01*
X152944381Y-101829810D01*
X152847619Y-101829810D01*
X152799238Y-101854000D01*
X152775047Y-101878190D01*
X152750857Y-101926571D01*
X152750857Y-102047524D01*
X152775047Y-102095905D01*
X152799238Y-102120095D01*
X152847619Y-102144286D01*
X152944381Y-102144286D01*
X152992762Y-102120095D01*
X153016952Y-102095905D01*
X153041143Y-102047524D01*
X158677428Y-106274810D02*
X158508095Y-106032905D01*
X158387142Y-106274810D02*
X158387142Y-105766810D01*
X158580666Y-105766810D01*
X158629047Y-105791000D01*
X158653238Y-105815190D01*
X158677428Y-105863571D01*
X158677428Y-105936143D01*
X158653238Y-105984524D01*
X158629047Y-106008714D01*
X158580666Y-106032905D01*
X158387142Y-106032905D01*
X159161238Y-106274810D02*
X158870952Y-106274810D01*
X159016095Y-106274810D02*
X159016095Y-105766810D01*
X158967714Y-105839381D01*
X158919333Y-105887762D01*
X158870952Y-105911952D01*
X159475714Y-105766810D02*
X159524095Y-105766810D01*
X159572476Y-105791000D01*
X159596667Y-105815190D01*
X159620857Y-105863571D01*
X159645048Y-105960333D01*
X159645048Y-106081286D01*
X159620857Y-106178048D01*
X159596667Y-106226429D01*
X159572476Y-106250619D01*
X159524095Y-106274810D01*
X159475714Y-106274810D01*
X159427333Y-106250619D01*
X159403143Y-106226429D01*
X159378952Y-106178048D01*
X159354762Y-106081286D01*
X159354762Y-105960333D01*
X159378952Y-105863571D01*
X159403143Y-105815190D01*
X159427333Y-105791000D01*
X159475714Y-105766810D01*
X157915428Y-96114810D02*
X157746095Y-95872905D01*
X157625142Y-96114810D02*
X157625142Y-95606810D01*
X157818666Y-95606810D01*
X157867047Y-95631000D01*
X157891238Y-95655190D01*
X157915428Y-95703571D01*
X157915428Y-95776143D01*
X157891238Y-95824524D01*
X157867047Y-95848714D01*
X157818666Y-95872905D01*
X157625142Y-95872905D01*
X158399238Y-96114810D02*
X158108952Y-96114810D01*
X158254095Y-96114810D02*
X158254095Y-95606810D01*
X158205714Y-95679381D01*
X158157333Y-95727762D01*
X158108952Y-95751952D01*
X158883048Y-96114810D02*
X158592762Y-96114810D01*
X158737905Y-96114810D02*
X158737905Y-95606810D01*
X158689524Y-95679381D01*
X158641143Y-95727762D01*
X158592762Y-95751952D01*
X137873619Y-102337810D02*
X137704286Y-102095905D01*
X137583333Y-102337810D02*
X137583333Y-101829810D01*
X137776857Y-101829810D01*
X137825238Y-101854000D01*
X137849429Y-101878190D01*
X137873619Y-101926571D01*
X137873619Y-101999143D01*
X137849429Y-102047524D01*
X137825238Y-102071714D01*
X137776857Y-102095905D01*
X137583333Y-102095905D01*
X138260667Y-102071714D02*
X138091333Y-102071714D01*
X138091333Y-102337810D02*
X138091333Y-101829810D01*
X138333238Y-101829810D01*
X138696096Y-102071714D02*
X138768667Y-102095905D01*
X138792858Y-102120095D01*
X138817048Y-102168476D01*
X138817048Y-102241048D01*
X138792858Y-102289429D01*
X138768667Y-102313619D01*
X138720286Y-102337810D01*
X138526762Y-102337810D01*
X138526762Y-101829810D01*
X138696096Y-101829810D01*
X138744477Y-101854000D01*
X138768667Y-101878190D01*
X138792858Y-101926571D01*
X138792858Y-101974952D01*
X138768667Y-102023333D01*
X138744477Y-102047524D01*
X138696096Y-102071714D01*
X138526762Y-102071714D01*
X139300858Y-102337810D02*
X139010572Y-102337810D01*
X139155715Y-102337810D02*
X139155715Y-101829810D01*
X139107334Y-101902381D01*
X139058953Y-101950762D01*
X139010572Y-101974952D01*
X153663952Y-96368810D02*
X153663952Y-96780048D01*
X153688143Y-96828429D01*
X153712333Y-96852619D01*
X153760714Y-96876810D01*
X153857476Y-96876810D01*
X153905857Y-96852619D01*
X153930048Y-96828429D01*
X153954238Y-96780048D01*
X153954238Y-96368810D01*
X154413857Y-96368810D02*
X154317095Y-96368810D01*
X154268714Y-96393000D01*
X154244523Y-96417190D01*
X154196142Y-96489762D01*
X154171952Y-96586524D01*
X154171952Y-96780048D01*
X154196142Y-96828429D01*
X154220333Y-96852619D01*
X154268714Y-96876810D01*
X154365476Y-96876810D01*
X154413857Y-96852619D01*
X154438047Y-96828429D01*
X154462238Y-96780048D01*
X154462238Y-96659095D01*
X154438047Y-96610714D01*
X154413857Y-96586524D01*
X154365476Y-96562333D01*
X154268714Y-96562333D01*
X154220333Y-96586524D01*
X154196142Y-96610714D01*
X154171952Y-96659095D01*
X158489952Y-111735810D02*
X158780238Y-111735810D01*
X158635095Y-112243810D02*
X158635095Y-111735810D01*
X159215667Y-112243810D02*
X158925381Y-112243810D01*
X159070524Y-112243810D02*
X159070524Y-111735810D01*
X159022143Y-111808381D01*
X158973762Y-111856762D01*
X158925381Y-111880952D01*
X137837333Y-92431810D02*
X137595428Y-92431810D01*
X137595428Y-91923810D01*
X138272762Y-92431810D02*
X137982476Y-92431810D01*
X138127619Y-92431810D02*
X138127619Y-91923810D01*
X138079238Y-91996381D01*
X138030857Y-92044762D01*
X137982476Y-92068952D01*
X133785428Y-103099810D02*
X133616095Y-102857905D01*
X133495142Y-103099810D02*
X133495142Y-102591810D01*
X133688666Y-102591810D01*
X133737047Y-102616000D01*
X133761238Y-102640190D01*
X133785428Y-102688571D01*
X133785428Y-102761143D01*
X133761238Y-102809524D01*
X133737047Y-102833714D01*
X133688666Y-102857905D01*
X133495142Y-102857905D01*
X134269238Y-103099810D02*
X133978952Y-103099810D01*
X134124095Y-103099810D02*
X134124095Y-102591810D01*
X134075714Y-102664381D01*
X134027333Y-102712762D01*
X133978952Y-102736952D01*
X134462762Y-102640190D02*
X134486952Y-102616000D01*
X134535333Y-102591810D01*
X134656286Y-102591810D01*
X134704667Y-102616000D01*
X134728857Y-102640190D01*
X134753048Y-102688571D01*
X134753048Y-102736952D01*
X134728857Y-102809524D01*
X134438571Y-103099810D01*
X134753048Y-103099810D01*
X164380333Y-110925429D02*
X164356143Y-110949619D01*
X164283571Y-110973810D01*
X164235190Y-110973810D01*
X164162619Y-110949619D01*
X164114238Y-110901238D01*
X164090047Y-110852857D01*
X164065857Y-110756095D01*
X164065857Y-110683524D01*
X164090047Y-110586762D01*
X164114238Y-110538381D01*
X164162619Y-110490000D01*
X164235190Y-110465810D01*
X164283571Y-110465810D01*
X164356143Y-110490000D01*
X164380333Y-110514190D01*
X164864143Y-110973810D02*
X164573857Y-110973810D01*
X164719000Y-110973810D02*
X164719000Y-110465810D01*
X164670619Y-110538381D01*
X164622238Y-110586762D01*
X164573857Y-110610952D01*
X160951333Y-95939429D02*
X160927143Y-95963619D01*
X160854571Y-95987810D01*
X160806190Y-95987810D01*
X160733619Y-95963619D01*
X160685238Y-95915238D01*
X160661047Y-95866857D01*
X160636857Y-95770095D01*
X160636857Y-95697524D01*
X160661047Y-95600762D01*
X160685238Y-95552381D01*
X160733619Y-95504000D01*
X160806190Y-95479810D01*
X160854571Y-95479810D01*
X160927143Y-95504000D01*
X160951333Y-95528190D01*
X161144857Y-95528190D02*
X161169047Y-95504000D01*
X161217428Y-95479810D01*
X161338381Y-95479810D01*
X161386762Y-95504000D01*
X161410952Y-95528190D01*
X161435143Y-95576571D01*
X161435143Y-95624952D01*
X161410952Y-95697524D01*
X161120666Y-95987810D01*
X161435143Y-95987810D01*
X132503333Y-109147429D02*
X132479143Y-109171619D01*
X132406571Y-109195810D01*
X132358190Y-109195810D01*
X132285619Y-109171619D01*
X132237238Y-109123238D01*
X132213047Y-109074857D01*
X132188857Y-108978095D01*
X132188857Y-108905524D01*
X132213047Y-108808762D01*
X132237238Y-108760381D01*
X132285619Y-108712000D01*
X132358190Y-108687810D01*
X132406571Y-108687810D01*
X132479143Y-108712000D01*
X132503333Y-108736190D01*
X132672666Y-108687810D02*
X132987143Y-108687810D01*
X132817809Y-108881333D01*
X132890381Y-108881333D01*
X132938762Y-108905524D01*
X132962952Y-108929714D01*
X132987143Y-108978095D01*
X132987143Y-109099048D01*
X132962952Y-109147429D01*
X132938762Y-109171619D01*
X132890381Y-109195810D01*
X132745238Y-109195810D01*
X132696857Y-109171619D01*
X132672666Y-109147429D01*
X163406666Y-99289810D02*
X163406666Y-99652667D01*
X163382476Y-99725238D01*
X163334095Y-99773619D01*
X163261523Y-99797810D01*
X163213142Y-99797810D01*
X163914667Y-99797810D02*
X163624381Y-99797810D01*
X163769524Y-99797810D02*
X163769524Y-99289810D01*
X163721143Y-99362381D01*
X163672762Y-99410762D01*
X163624381Y-99434952D01*
X130483428Y-103607810D02*
X130241523Y-103607810D01*
X130241523Y-103099810D01*
X130628571Y-103583619D02*
X130701142Y-103607810D01*
X130822095Y-103607810D01*
X130870476Y-103583619D01*
X130894666Y-103559429D01*
X130918857Y-103511048D01*
X130918857Y-103462667D01*
X130894666Y-103414286D01*
X130870476Y-103390095D01*
X130822095Y-103365905D01*
X130725333Y-103341714D01*
X130676952Y-103317524D01*
X130652761Y-103293333D01*
X130628571Y-103244952D01*
X130628571Y-103196571D01*
X130652761Y-103148190D01*
X130676952Y-103124000D01*
X130725333Y-103099810D01*
X130846285Y-103099810D01*
X130918857Y-103124000D01*
X131402667Y-103607810D02*
X131112381Y-103607810D01*
X131257524Y-103607810D02*
X131257524Y-103099810D01*
X131209143Y-103172381D01*
X131160762Y-103220762D01*
X131112381Y-103244952D01*
X164871666Y-98202810D02*
X164871666Y-98565667D01*
X164847476Y-98638238D01*
X164799095Y-98686619D01*
X164726523Y-98710810D01*
X164678142Y-98710810D01*
X165065190Y-98202810D02*
X165403857Y-98202810D01*
X165186143Y-98710810D01*
D13*
X135032762Y-108497619D02*
X134937524Y-108450000D01*
X134842286Y-108354762D01*
X134699429Y-108211905D01*
X134604190Y-108164286D01*
X134508952Y-108164286D01*
X134556571Y-108402381D02*
X134461333Y-108354762D01*
X134366095Y-108259524D01*
X134318476Y-108069048D01*
X134318476Y-107735714D01*
X134366095Y-107545238D01*
X134461333Y-107450000D01*
X134556571Y-107402381D01*
X134747048Y-107402381D01*
X134842286Y-107450000D01*
X134937524Y-107545238D01*
X134985143Y-107735714D01*
X134985143Y-108069048D01*
X134937524Y-108259524D01*
X134842286Y-108354762D01*
X134747048Y-108402381D01*
X134556571Y-108402381D01*
X135937524Y-108402381D02*
X135366095Y-108402381D01*
X135651809Y-108402381D02*
X135651809Y-107402381D01*
X135556571Y-107545238D01*
X135461333Y-107640476D01*
X135366095Y-107688095D01*
X129825762Y-109005619D02*
X129730524Y-108958000D01*
X129635286Y-108862762D01*
X129492429Y-108719905D01*
X129397190Y-108672286D01*
X129301952Y-108672286D01*
X129349571Y-108910381D02*
X129254333Y-108862762D01*
X129159095Y-108767524D01*
X129111476Y-108577048D01*
X129111476Y-108243714D01*
X129159095Y-108053238D01*
X129254333Y-107958000D01*
X129349571Y-107910381D01*
X129540048Y-107910381D01*
X129635286Y-107958000D01*
X129730524Y-108053238D01*
X129778143Y-108243714D01*
X129778143Y-108577048D01*
X129730524Y-108767524D01*
X129635286Y-108862762D01*
X129540048Y-108910381D01*
X129349571Y-108910381D01*
X130159095Y-108005619D02*
X130206714Y-107958000D01*
X130301952Y-107910381D01*
X130540048Y-107910381D01*
X130635286Y-107958000D01*
X130682905Y-108005619D01*
X130730524Y-108100857D01*
X130730524Y-108196095D01*
X130682905Y-108338952D01*
X130111476Y-108910381D01*
X130730524Y-108910381D01*
X159178667Y-85549381D02*
X159178667Y-86263667D01*
X159131047Y-86406524D01*
X159035809Y-86501762D01*
X158892952Y-86549381D01*
X158797714Y-86549381D01*
X160083429Y-85549381D02*
X159892952Y-85549381D01*
X159797714Y-85597000D01*
X159750095Y-85644619D01*
X159654857Y-85787476D01*
X159607238Y-85977952D01*
X159607238Y-86358905D01*
X159654857Y-86454143D01*
X159702476Y-86501762D01*
X159797714Y-86549381D01*
X159988191Y-86549381D01*
X160083429Y-86501762D01*
X160131048Y-86454143D01*
X160178667Y-86358905D01*
X160178667Y-86120810D01*
X160131048Y-86025571D01*
X160083429Y-85977952D01*
X159988191Y-85930333D01*
X159797714Y-85930333D01*
X159702476Y-85977952D01*
X159654857Y-86025571D01*
X159607238Y-86120810D01*
M02*
