G04 #@! TF.FileFunction,Paste,Top*
%FSLAX46Y46*%
G04 Gerber Fmt 4.6, Leading zero omitted, Abs format (unit mm)*
G04 Created by KiCad (PCBNEW 4.0.7) date Friday, November 17, 2017 'AMt' 01:25:50 AM*
%MOMM*%
%LPD*%
G01*
G04 APERTURE LIST*
%ADD10C,0.100000*%
%ADD11R,0.347600X0.747600*%
%ADD12R,1.371600X0.227600*%
%ADD13R,0.547600X1.147600*%
%ADD14R,0.597600X0.647600*%
%ADD15R,0.848360X2.349500*%
%ADD16R,1.846580X3.848100*%
%ADD17R,0.247600X0.357600*%
%ADD18R,0.647600X0.597600*%
%ADD19R,0.747600X0.347600*%
%ADD20R,1.067600X0.497600*%
%ADD21R,0.609600X1.498600*%
%ADD22R,0.647600X0.747600*%
%ADD23R,0.747600X0.647600*%
G04 APERTURE END LIST*
D10*
D11*
X155309000Y-100330000D03*
X153809000Y-100330000D03*
D12*
X145033000Y-101028500D03*
X150623000Y-101028500D03*
X145033000Y-101668500D03*
X150623000Y-101668500D03*
X145033000Y-102308500D03*
X150623000Y-102308500D03*
X145033000Y-102948500D03*
X150623000Y-102948500D03*
X145033000Y-103588500D03*
X150623000Y-103588500D03*
X145033000Y-104228500D03*
X150623000Y-104228500D03*
X145033000Y-104868500D03*
X150623000Y-104868500D03*
X145033000Y-105508500D03*
X150623000Y-105508500D03*
X145033000Y-106148500D03*
X150623000Y-106148500D03*
X145033000Y-106788500D03*
X150623000Y-106788500D03*
D13*
X136078000Y-92710000D03*
X134178000Y-92710000D03*
D14*
X140271500Y-94666500D03*
X140271500Y-93166500D03*
D15*
X129562860Y-94300040D03*
X131064000Y-94300040D03*
X132565140Y-94300040D03*
D16*
X131064000Y-90347800D03*
D10*
G36*
X131988560Y-92398850D02*
X131488180Y-92995750D01*
X130639820Y-92995750D01*
X130139440Y-92398850D01*
X131988560Y-92398850D01*
X131988560Y-92398850D01*
G37*
D17*
X135199500Y-95963500D03*
X136199500Y-95963500D03*
X135699500Y-94663500D03*
D18*
X142367000Y-101854000D03*
X140867000Y-101854000D03*
D14*
X157226000Y-102096000D03*
X157226000Y-100596000D03*
X138049000Y-103898000D03*
X138049000Y-105398000D03*
D18*
X139839000Y-105156000D03*
X141339000Y-105156000D03*
D14*
X157226000Y-105144000D03*
X157226000Y-103644000D03*
X153162000Y-106692000D03*
X153162000Y-108192000D03*
X151638000Y-109105000D03*
X151638000Y-110605000D03*
X146558000Y-109486000D03*
X146558000Y-110986000D03*
X149860000Y-109105000D03*
X149860000Y-110605000D03*
X150368000Y-97524000D03*
X150368000Y-96024000D03*
X150368000Y-94603000D03*
X150368000Y-93103000D03*
D18*
X160960500Y-93789500D03*
X159460500Y-93789500D03*
X153301000Y-91821000D03*
X154801000Y-91821000D03*
X142355000Y-98171000D03*
X140855000Y-98171000D03*
X140728000Y-96520000D03*
X142228000Y-96520000D03*
X148197000Y-98298000D03*
X146697000Y-98298000D03*
X143649000Y-98171000D03*
X145149000Y-98171000D03*
D19*
X138557000Y-96659000D03*
X138557000Y-98159000D03*
D11*
X140867000Y-99949000D03*
X142367000Y-99949000D03*
X153809000Y-98552000D03*
X155309000Y-98552000D03*
X153936000Y-103886000D03*
X155436000Y-103886000D03*
D19*
X154813000Y-105930000D03*
X154813000Y-107430000D03*
X159004000Y-100469000D03*
X159004000Y-101969000D03*
D11*
X155309000Y-102108000D03*
X153809000Y-102108000D03*
D19*
X159004000Y-103517000D03*
X159004000Y-105017000D03*
D13*
X157292000Y-97409000D03*
X159192000Y-97409000D03*
D19*
X138430000Y-99834000D03*
X138430000Y-101334000D03*
D20*
X155234000Y-95565000D03*
X155234000Y-94615000D03*
X155234000Y-93665000D03*
X152614000Y-93665000D03*
X152614000Y-94615000D03*
X152614000Y-95565000D03*
D21*
X160020000Y-110807500D03*
X160020000Y-107632500D03*
X158750000Y-107632500D03*
X157480000Y-110807500D03*
X157480000Y-107632500D03*
D19*
X138176000Y-94603000D03*
X138176000Y-93103000D03*
X132461000Y-103620000D03*
X132461000Y-102120000D03*
D18*
X163778500Y-111950500D03*
X165278500Y-111950500D03*
D14*
X161099500Y-98222500D03*
X161099500Y-96722500D03*
D18*
X133465000Y-107696000D03*
X131965000Y-107696000D03*
D22*
X135951000Y-104537000D03*
X134051000Y-104537000D03*
X135001000Y-106537000D03*
D23*
X129429000Y-104841000D03*
X129429000Y-106741000D03*
X131429000Y-105791000D03*
M02*
