M48
;DRILL file {KiCad 4.0.7} date Friday, November 17, 2017 'AMt' 01:25:52 AM
;FORMAT={-:-/ absolute / inch / decimal}
FMAT,2
INCH,TZ
T1C0.015
T2C0.039
T3C0.126
%
G90
G05
M72
T1
X5.093Y-4.0871
X5.1215Y-3.804
X5.24Y-3.59
X5.26Y-4.285
X5.27Y-3.765
X5.275Y-4.425
X5.32Y-4.07
X5.385Y-3.835
X5.395Y-4.02
X5.487Y-4.0206
X5.5Y-3.935
X5.58Y-3.74
X5.785Y-4.02
X5.835Y-4.31
X5.8724Y-3.6766
X5.9599Y-3.8228
X5.98Y-3.615
X5.985Y-4.015
X6.1175Y-4.38
X6.13Y-4.27
X6.15Y-4.19
X6.175Y-3.635
X6.1752Y-3.7357
X6.25Y-4.365
X6.3774Y-4.4014
T2
X5.1175Y-3.9
X5.1175Y-4.
X6.39Y-3.965
X6.39Y-4.065
X6.39Y-4.165
X6.39Y-4.265
X6.49Y-3.965
X6.49Y-4.065
X6.49Y-4.165
X6.49Y-4.265
T3
X5.151Y-4.38
X5.81Y-4.8517
X5.81Y-4.8517
X6.28Y-3.555
T0
M30
