G04 #@! TF.FileFunction,Copper,L1,Top,Signal*
%FSLAX46Y46*%
G04 Gerber Fmt 4.6, Leading zero omitted, Abs format (unit mm)*
G04 Created by KiCad (PCBNEW 4.0.7) date Friday, November 17, 2017 'AMt' 01:25:50 AM*
%MOMM*%
%LPD*%
G01*
G04 APERTURE LIST*
%ADD10C,0.100000*%
%ADD11R,0.500000X0.900000*%
%ADD12R,1.524000X0.380000*%
%ADD13R,0.700000X1.300000*%
%ADD14R,0.750000X0.800000*%
%ADD15R,1.000760X2.501900*%
%ADD16R,1.998980X4.000500*%
%ADD17R,0.400000X0.510000*%
%ADD18R,0.800000X0.750000*%
%ADD19R,0.900000X0.500000*%
%ADD20R,1.220000X0.650000*%
%ADD21R,0.762000X1.651000*%
%ADD22R,1.700000X1.700000*%
%ADD23O,1.700000X1.700000*%
%ADD24R,4.200000X1.350000*%
%ADD25R,3.600000X1.270000*%
%ADD26R,0.800000X0.900000*%
%ADD27R,0.900000X0.800000*%
%ADD28C,0.762000*%
%ADD29C,0.381000*%
%ADD30C,0.254000*%
G04 APERTURE END LIST*
D10*
D11*
X155309000Y-100330000D03*
X153809000Y-100330000D03*
D12*
X145033000Y-101028500D03*
X150623000Y-101028500D03*
X145033000Y-101668500D03*
X150623000Y-101668500D03*
X145033000Y-102308500D03*
X150623000Y-102308500D03*
X145033000Y-102948500D03*
X150623000Y-102948500D03*
X145033000Y-103588500D03*
X150623000Y-103588500D03*
X145033000Y-104228500D03*
X150623000Y-104228500D03*
X145033000Y-104868500D03*
X150623000Y-104868500D03*
X145033000Y-105508500D03*
X150623000Y-105508500D03*
X145033000Y-106148500D03*
X150623000Y-106148500D03*
X145033000Y-106788500D03*
X150623000Y-106788500D03*
D13*
X136078000Y-92710000D03*
X134178000Y-92710000D03*
D14*
X140271500Y-94666500D03*
X140271500Y-93166500D03*
D15*
X129562860Y-94300040D03*
X131064000Y-94300040D03*
X132565140Y-94300040D03*
D16*
X131064000Y-90347800D03*
D10*
G36*
X132064760Y-92322650D02*
X131564380Y-93071950D01*
X130563620Y-93071950D01*
X130063240Y-92322650D01*
X132064760Y-92322650D01*
X132064760Y-92322650D01*
G37*
D17*
X135199500Y-95963500D03*
X136199500Y-95963500D03*
X135699500Y-94663500D03*
D18*
X142367000Y-101854000D03*
X140867000Y-101854000D03*
D14*
X157226000Y-102096000D03*
X157226000Y-100596000D03*
X138049000Y-103898000D03*
X138049000Y-105398000D03*
D18*
X139839000Y-105156000D03*
X141339000Y-105156000D03*
D14*
X157226000Y-105144000D03*
X157226000Y-103644000D03*
X153162000Y-106692000D03*
X153162000Y-108192000D03*
X151638000Y-109105000D03*
X151638000Y-110605000D03*
X146558000Y-109486000D03*
X146558000Y-110986000D03*
X149860000Y-109105000D03*
X149860000Y-110605000D03*
X150368000Y-97524000D03*
X150368000Y-96024000D03*
X150368000Y-94603000D03*
X150368000Y-93103000D03*
D18*
X160960500Y-93789500D03*
X159460500Y-93789500D03*
X153301000Y-91821000D03*
X154801000Y-91821000D03*
X142355000Y-98171000D03*
X140855000Y-98171000D03*
X140728000Y-96520000D03*
X142228000Y-96520000D03*
X148197000Y-98298000D03*
X146697000Y-98298000D03*
X143649000Y-98171000D03*
X145149000Y-98171000D03*
D19*
X138557000Y-96659000D03*
X138557000Y-98159000D03*
D11*
X140867000Y-99949000D03*
X142367000Y-99949000D03*
X153809000Y-98552000D03*
X155309000Y-98552000D03*
X153936000Y-103886000D03*
X155436000Y-103886000D03*
D19*
X154813000Y-105930000D03*
X154813000Y-107430000D03*
X159004000Y-100469000D03*
X159004000Y-101969000D03*
D11*
X155309000Y-102108000D03*
X153809000Y-102108000D03*
D19*
X159004000Y-103517000D03*
X159004000Y-105017000D03*
D13*
X157292000Y-97409000D03*
X159192000Y-97409000D03*
D19*
X138430000Y-99834000D03*
X138430000Y-101334000D03*
D20*
X155234000Y-95565000D03*
X155234000Y-94615000D03*
X155234000Y-93665000D03*
X152614000Y-93665000D03*
X152614000Y-94615000D03*
X152614000Y-95565000D03*
D21*
X160020000Y-110807500D03*
X160020000Y-107632500D03*
X158750000Y-107632500D03*
X157480000Y-110807500D03*
X157480000Y-107632500D03*
D19*
X138176000Y-94603000D03*
X138176000Y-93103000D03*
X132461000Y-103620000D03*
X132461000Y-102120000D03*
D18*
X163778500Y-111950500D03*
X165278500Y-111950500D03*
D14*
X161099500Y-98222500D03*
X161099500Y-96722500D03*
D18*
X133465000Y-107696000D03*
X131965000Y-107696000D03*
D22*
X162306000Y-108331000D03*
D23*
X164846000Y-108331000D03*
X162306000Y-105791000D03*
X164846000Y-105791000D03*
X162306000Y-103251000D03*
X164846000Y-103251000D03*
X162306000Y-100711000D03*
X164846000Y-100711000D03*
D22*
X129984500Y-101600000D03*
D23*
X129984500Y-99060000D03*
D24*
X164338000Y-90282000D03*
X164338000Y-97282000D03*
D25*
X164538000Y-93782000D03*
D26*
X135951000Y-104537000D03*
X134051000Y-104537000D03*
X135001000Y-106537000D03*
D27*
X129429000Y-104841000D03*
X129429000Y-106741000D03*
X131429000Y-105791000D03*
D28*
X136779000Y-97409000D03*
X141732000Y-94996000D03*
X146939000Y-102108000D03*
X139369152Y-102122990D03*
X156850579Y-94885905D03*
X158750000Y-110871000D03*
X156845000Y-92329000D03*
X137033000Y-102108000D03*
X133096000Y-91186000D03*
X155384500Y-111251991D03*
X133858000Y-95631000D03*
X151892000Y-91821000D03*
X149158373Y-93386695D03*
X139700000Y-99949000D03*
X152019000Y-101981000D03*
X156210000Y-106426000D03*
X151380391Y-97099519D03*
X155702000Y-108458000D03*
X148209000Y-109474000D03*
X135128000Y-103378000D03*
X129362717Y-103812653D03*
X130087288Y-96622677D03*
X133604000Y-108839000D03*
X133985000Y-112395000D03*
X161987000Y-111796405D03*
D29*
X139638142Y-101854000D02*
X139369152Y-102122990D01*
X140867000Y-101854000D02*
X139638142Y-101854000D01*
X156579674Y-94615000D02*
X156850579Y-94885905D01*
X155234000Y-94615000D02*
X156579674Y-94615000D01*
X153162000Y-109029491D02*
X155003501Y-110870992D01*
X155003501Y-110870992D02*
X155384500Y-111251991D01*
X153162000Y-108192000D02*
X153162000Y-109029491D01*
X145033000Y-106148500D02*
X143890000Y-106148500D01*
X143890000Y-106148500D02*
X143826499Y-106212001D01*
X143826499Y-106212001D02*
X143826499Y-108012499D01*
X143826499Y-108012499D02*
X145738499Y-109924499D01*
X145738499Y-109924499D02*
X145738499Y-110141499D01*
X145738499Y-110141499D02*
X146558000Y-110961000D01*
X146558000Y-110961000D02*
X146558000Y-110986000D01*
X154801000Y-91821000D02*
X157492000Y-91821000D01*
X157492000Y-91821000D02*
X159460500Y-93789500D01*
X135699500Y-96583500D02*
X135699500Y-98370500D01*
X135699500Y-98370500D02*
X135318500Y-98751500D01*
X135199500Y-95963500D02*
X135199500Y-96401000D01*
X136199500Y-96337500D02*
X136199500Y-95963500D01*
X135953500Y-96583500D02*
X136199500Y-96337500D01*
X135382000Y-96583500D02*
X135699500Y-96583500D01*
X135699500Y-96583500D02*
X135953500Y-96583500D01*
X135199500Y-96401000D02*
X135382000Y-96583500D01*
X132334000Y-99961000D02*
X134109000Y-99961000D01*
X134109000Y-99961000D02*
X135318500Y-98751500D01*
X161099500Y-96722500D02*
X163893500Y-96722500D01*
X163893500Y-96722500D02*
X164397000Y-97226000D01*
X165278500Y-111950500D02*
X165278500Y-108763500D01*
X165278500Y-108763500D02*
X164846000Y-108331000D01*
X132334000Y-99961000D02*
X130885500Y-99961000D01*
X130885500Y-99961000D02*
X129984500Y-99060000D01*
X133858000Y-95631000D02*
X133858000Y-97418000D01*
X133858000Y-97418000D02*
X135191500Y-98751500D01*
X148197000Y-98298000D02*
X148197000Y-98602500D01*
X146558000Y-110986000D02*
X149237000Y-110986000D01*
X149237000Y-110986000D02*
X149479000Y-110744000D01*
X149860000Y-110605000D02*
X151638000Y-110605000D01*
X153162000Y-108192000D02*
X153162000Y-109081000D01*
X153162000Y-109081000D02*
X151638000Y-110605000D01*
X147447000Y-104228500D02*
X147447000Y-106045000D01*
X147343500Y-106148500D02*
X145033000Y-106148500D01*
X147447000Y-106045000D02*
X147343500Y-106148500D01*
X148018500Y-102933500D02*
X148018500Y-103695500D01*
X147485500Y-104228500D02*
X147447000Y-104228500D01*
X147447000Y-104228500D02*
X145033000Y-104228500D01*
X148018500Y-103695500D02*
X147485500Y-104228500D01*
X148018500Y-101028500D02*
X148018500Y-102933500D01*
X148033500Y-102948500D02*
X150623000Y-102948500D01*
X148018500Y-102933500D02*
X148033500Y-102948500D01*
X148018500Y-101028500D02*
X150623000Y-101028500D01*
X160020000Y-110807500D02*
X162369500Y-110807500D01*
X162369500Y-110807500D02*
X164846000Y-108331000D01*
X158750000Y-107632500D02*
X158750000Y-109537500D01*
X158750000Y-109537500D02*
X160020000Y-110807500D01*
X162974136Y-97226000D02*
X164397000Y-97226000D01*
X165100000Y-105791000D02*
X165100000Y-108331000D01*
X165100000Y-103251000D02*
X165100000Y-105791000D01*
X165100000Y-100711000D02*
X165100000Y-103251000D01*
X164397000Y-97226000D02*
X164397000Y-100655000D01*
X164397000Y-100655000D02*
X164270000Y-100782000D01*
X153301000Y-91821000D02*
X151892000Y-91821000D01*
X149102622Y-93386695D02*
X149158373Y-93386695D01*
X149098000Y-93382073D02*
X149102622Y-93386695D01*
X149098000Y-93345000D02*
X149098000Y-93382073D01*
X161099500Y-98234500D02*
X161099500Y-98222500D01*
X161099500Y-98222500D02*
X161099500Y-99504500D01*
X161099500Y-99504500D02*
X162306000Y-100711000D01*
X139700000Y-99949000D02*
X140867000Y-99949000D01*
X149098000Y-93345000D02*
X150126000Y-93345000D01*
X150126000Y-93345000D02*
X150368000Y-93103000D01*
X153301000Y-91821000D02*
X153301000Y-92978000D01*
X153301000Y-92978000D02*
X152614000Y-93665000D01*
X150368000Y-93103000D02*
X152052000Y-93103000D01*
X152052000Y-93103000D02*
X152614000Y-93665000D01*
X150623000Y-102308500D02*
X151691500Y-102308500D01*
X151691500Y-102308500D02*
X152019000Y-101981000D01*
X150623000Y-101668500D02*
X151706500Y-101668500D01*
X151706500Y-101668500D02*
X152019000Y-101981000D01*
X156210000Y-106426000D02*
X155817000Y-106426000D01*
X155817000Y-106426000D02*
X154813000Y-107430000D01*
X152614000Y-93665000D02*
X153355000Y-93665000D01*
X154239000Y-95565000D02*
X155234000Y-95565000D01*
X153924000Y-95250000D02*
X154239000Y-95565000D01*
X153924000Y-94234000D02*
X153924000Y-95250000D01*
X153355000Y-93665000D02*
X153924000Y-94234000D01*
X138176000Y-94603000D02*
X140208000Y-94603000D01*
X140208000Y-94603000D02*
X140271500Y-94666500D01*
X136078000Y-92710000D02*
X136283000Y-92710000D01*
X136283000Y-92710000D02*
X138176000Y-94603000D01*
X138176000Y-94603000D02*
X138176000Y-96278000D01*
X138176000Y-96278000D02*
X138557000Y-96659000D01*
X151380391Y-97267609D02*
X151380391Y-97099519D01*
X151124000Y-97524000D02*
X151380391Y-97267609D01*
X150368000Y-97524000D02*
X151124000Y-97524000D01*
X155702000Y-108458000D02*
X157480000Y-110236000D01*
X157480000Y-110807500D02*
X157480000Y-110236000D01*
X157480000Y-110807500D02*
X157416500Y-110807500D01*
X142367000Y-99949000D02*
X142367000Y-101854000D01*
X145033000Y-102308500D02*
X142821500Y-102308500D01*
X142821500Y-102308500D02*
X142367000Y-101854000D01*
X155309000Y-98552000D02*
X155309000Y-100330000D01*
X155309000Y-100330000D02*
X155460000Y-100330000D01*
X155460000Y-100330000D02*
X157226000Y-102096000D01*
X157226000Y-100596000D02*
X158877000Y-100596000D01*
X158877000Y-100596000D02*
X159004000Y-100469000D01*
X145033000Y-102948500D02*
X139089500Y-102948500D01*
X139089500Y-102948500D02*
X138914000Y-103124000D01*
X138430000Y-103124000D02*
X138914000Y-103124000D01*
X138049000Y-103898000D02*
X138049000Y-103505000D01*
X138049000Y-103505000D02*
X138430000Y-103124000D01*
X138430000Y-101334000D02*
X138430000Y-103124000D01*
X138430000Y-101334000D02*
X138430000Y-101358000D01*
X145033000Y-102953498D02*
X145033000Y-102948500D01*
X138049000Y-105398000D02*
X138049000Y-106426000D01*
X143129000Y-106299000D02*
X143129000Y-105508500D01*
X143002000Y-106426000D02*
X143129000Y-106299000D01*
X138049000Y-106426000D02*
X143002000Y-106426000D01*
X145033000Y-105508500D02*
X143129000Y-105508500D01*
X139839000Y-105156000D02*
X141406500Y-103588500D01*
X145033000Y-103588500D02*
X141406500Y-103588500D01*
X141406500Y-103588500D02*
X141224000Y-103771000D01*
X145033000Y-104868500D02*
X141626500Y-104868500D01*
X141626500Y-104868500D02*
X141224000Y-105271000D01*
X155309000Y-102108000D02*
X155309000Y-103759000D01*
X155309000Y-103759000D02*
X155436000Y-103886000D01*
X155436000Y-103886000D02*
X155968000Y-103886000D01*
X155968000Y-103886000D02*
X157226000Y-105144000D01*
X157226000Y-103644000D02*
X158877000Y-103644000D01*
X158877000Y-103644000D02*
X159004000Y-103517000D01*
X150623000Y-106148500D02*
X152122500Y-106148500D01*
X152146000Y-108597000D02*
X151638000Y-109105000D01*
X152146000Y-106172000D02*
X152146000Y-108597000D01*
X152122500Y-106148500D02*
X152146000Y-106172000D01*
X146558000Y-109486000D02*
X148197000Y-109486000D01*
X148197000Y-109486000D02*
X148209000Y-109474000D01*
X145033000Y-106788500D02*
X148081000Y-109346000D01*
X148081000Y-109346000D02*
X148209000Y-109474000D01*
X148336000Y-109601000D02*
X148209000Y-109474000D01*
X150623000Y-106788500D02*
X150623000Y-108342000D01*
X150623000Y-108342000D02*
X149860000Y-109105000D01*
X150623000Y-106788500D02*
X149890500Y-106788500D01*
X142355000Y-98171000D02*
X143649000Y-98171000D01*
X142228000Y-96520000D02*
X142228000Y-98044000D01*
X142228000Y-98044000D02*
X142355000Y-98171000D01*
X143504000Y-98159000D02*
X143510000Y-98165000D01*
X143510000Y-98165000D02*
X143510000Y-101257602D01*
X143510000Y-101257602D02*
X143920898Y-101668500D01*
X143920898Y-101668500D02*
X144145000Y-101668500D01*
X144145000Y-101668500D02*
X145033000Y-101668500D01*
X140855000Y-98171000D02*
X140093000Y-98171000D01*
X140093000Y-98171000D02*
X138430000Y-99834000D01*
X140728000Y-96520000D02*
X140196000Y-96520000D01*
X140196000Y-96520000D02*
X138557000Y-98159000D01*
X146697000Y-98298000D02*
X146697000Y-99364500D01*
X146697000Y-99364500D02*
X145033000Y-101028500D01*
X132565140Y-94300040D02*
X132587960Y-94300040D01*
X132587960Y-94300040D02*
X134178000Y-92710000D01*
X132565140Y-94300040D02*
X135336040Y-94300040D01*
X135336040Y-94300040D02*
X135699500Y-94663500D01*
X159004000Y-101969000D02*
X159835000Y-101969000D01*
X159835000Y-101969000D02*
X160020000Y-102154000D01*
X160020000Y-102154000D02*
X160020000Y-106426000D01*
X160020000Y-106426000D02*
X160020000Y-107632500D01*
X160135000Y-107517500D02*
X160020000Y-107632500D01*
X159004000Y-105017000D02*
X159004000Y-105156000D01*
X159004000Y-105156000D02*
X157480000Y-106680000D01*
X157480000Y-106680000D02*
X157480000Y-107632500D01*
X131064000Y-94300040D02*
X131064000Y-90347800D01*
X131064000Y-90347800D02*
X131064000Y-92697300D01*
X153162000Y-106692000D02*
X154051000Y-106692000D01*
X154051000Y-106692000D02*
X154813000Y-105930000D01*
X151638000Y-105283000D02*
X152908000Y-105283000D01*
X153162000Y-105537000D02*
X153162000Y-106692000D01*
X152908000Y-105283000D02*
X153162000Y-105537000D01*
X150623000Y-105508500D02*
X151412500Y-105508500D01*
X151604500Y-104868500D02*
X151638000Y-104902000D01*
X151638000Y-104902000D02*
X151638000Y-105283000D01*
X151604500Y-104868500D02*
X150623000Y-104868500D01*
X151412500Y-105508500D02*
X151638000Y-105283000D01*
X150623000Y-103588500D02*
X152443500Y-103588500D01*
X152908000Y-101231000D02*
X153809000Y-100330000D01*
X152908000Y-103124000D02*
X152908000Y-101231000D01*
X152443500Y-103588500D02*
X152908000Y-103124000D01*
X153809000Y-98552000D02*
X153809000Y-100330000D01*
X150623000Y-104228500D02*
X153593500Y-104228500D01*
X153593500Y-104228500D02*
X153936000Y-103886000D01*
X153809000Y-102108000D02*
X153809000Y-103759000D01*
X153809000Y-103759000D02*
X153936000Y-103886000D01*
X155234000Y-93665000D02*
X157863500Y-93665000D01*
X158178500Y-96522500D02*
X157292000Y-97409000D01*
X158178500Y-93980000D02*
X158178500Y-96522500D01*
X157863500Y-93665000D02*
X158178500Y-93980000D01*
X135951000Y-104537000D02*
X135951000Y-104201000D01*
X135951000Y-104201000D02*
X135128000Y-103378000D01*
X129429000Y-103878936D02*
X129362717Y-103812653D01*
X129429000Y-104841000D02*
X129429000Y-103878936D01*
X150368000Y-96024000D02*
X152155000Y-96024000D01*
X152155000Y-96024000D02*
X152614000Y-95565000D01*
X150368000Y-94603000D02*
X152602000Y-94603000D01*
X152602000Y-94603000D02*
X152614000Y-94615000D01*
X160960500Y-93789500D02*
X164533500Y-93789500D01*
X164533500Y-93789500D02*
X164597000Y-93726000D01*
X160274000Y-95758000D02*
X162565000Y-95758000D01*
X162565000Y-95758000D02*
X164597000Y-93726000D01*
X160274000Y-96327000D02*
X159192000Y-97409000D01*
X160274000Y-95758000D02*
X160274000Y-96327000D01*
X163410699Y-93726000D02*
X164597000Y-93726000D01*
X132461000Y-102120000D02*
X130504500Y-102120000D01*
X130504500Y-102120000D02*
X129984500Y-101600000D01*
X129706289Y-96241678D02*
X130087288Y-96622677D01*
X129562860Y-96098249D02*
X129706289Y-96241678D01*
X129562860Y-94300040D02*
X129562860Y-96098249D01*
X130302000Y-101600000D02*
X130556000Y-101600000D01*
X134051000Y-104537000D02*
X133270000Y-104537000D01*
X133270000Y-104537000D02*
X133048000Y-104759000D01*
X133048000Y-104759000D02*
X132461000Y-104759000D01*
X132461000Y-103620000D02*
X132461000Y-104759000D01*
X132461000Y-104759000D02*
X131429000Y-105791000D01*
X163778500Y-111950500D02*
X162141095Y-111950500D01*
X162141095Y-111950500D02*
X161987000Y-111796405D01*
X133604000Y-108839000D02*
X133604000Y-107835000D01*
X133604000Y-107835000D02*
X133465000Y-107696000D01*
X139089555Y-112539555D02*
X134129555Y-112539555D01*
X134129555Y-112539555D02*
X133985000Y-112395000D01*
X139089555Y-112539555D02*
X161243850Y-112539555D01*
X161606001Y-112177404D02*
X161987000Y-111796405D01*
X161243850Y-112539555D02*
X161606001Y-112177404D01*
X133465000Y-107696000D02*
X133842000Y-107696000D01*
X133842000Y-107696000D02*
X135001000Y-106537000D01*
X163715000Y-112014000D02*
X163778500Y-111950500D01*
D30*
G36*
X137078560Y-94672993D02*
X137078560Y-94853000D01*
X137122838Y-95088317D01*
X137261910Y-95304441D01*
X137350500Y-95364972D01*
X137350500Y-96278000D01*
X137413337Y-96593906D01*
X137459560Y-96663083D01*
X137459560Y-96909000D01*
X137503838Y-97144317D01*
X137642910Y-97360441D01*
X137712711Y-97408134D01*
X137655559Y-97444910D01*
X137510569Y-97657110D01*
X137459560Y-97909000D01*
X137459560Y-98409000D01*
X137503838Y-98644317D01*
X137642910Y-98860441D01*
X137803045Y-98969856D01*
X137744683Y-98980838D01*
X137528559Y-99119910D01*
X137383569Y-99332110D01*
X137332560Y-99584000D01*
X137332560Y-100084000D01*
X137376838Y-100319317D01*
X137515910Y-100535441D01*
X137585711Y-100583134D01*
X137528559Y-100619910D01*
X137383569Y-100832110D01*
X137332560Y-101084000D01*
X137332560Y-101584000D01*
X137376838Y-101819317D01*
X137515910Y-102035441D01*
X137604500Y-102095972D01*
X137604500Y-102782066D01*
X137504023Y-102882543D01*
X137438683Y-102894838D01*
X137222559Y-103033910D01*
X137077569Y-103246110D01*
X137026560Y-103498000D01*
X137026560Y-104298000D01*
X137070838Y-104533317D01*
X137144620Y-104647978D01*
X137077569Y-104746110D01*
X137026560Y-104998000D01*
X137026560Y-105798000D01*
X137070838Y-106033317D01*
X137209910Y-106249441D01*
X137223500Y-106258727D01*
X137223500Y-106426000D01*
X137286337Y-106741905D01*
X137465283Y-107009717D01*
X137733095Y-107188663D01*
X138049000Y-107251500D01*
X143002000Y-107251500D01*
X143317906Y-107188663D01*
X143585717Y-107009717D01*
X143623560Y-106971874D01*
X143623560Y-106978500D01*
X143667838Y-107213817D01*
X143806910Y-107429941D01*
X144019110Y-107574931D01*
X144271000Y-107625940D01*
X144746780Y-107625940D01*
X145846001Y-108548269D01*
X145731559Y-108621910D01*
X145586569Y-108834110D01*
X145535560Y-109086000D01*
X145535560Y-109886000D01*
X145579838Y-110121317D01*
X145646329Y-110224646D01*
X145644673Y-110226302D01*
X145548000Y-110459691D01*
X145548000Y-110700250D01*
X145706750Y-110859000D01*
X146431000Y-110859000D01*
X146431000Y-110839000D01*
X146685000Y-110839000D01*
X146685000Y-110859000D01*
X147409250Y-110859000D01*
X147568000Y-110700250D01*
X147568000Y-110459691D01*
X147506617Y-110311500D01*
X147609451Y-110311500D01*
X147632731Y-110334821D01*
X148006018Y-110489824D01*
X148410208Y-110490176D01*
X148783766Y-110335825D01*
X148850000Y-110269707D01*
X148850000Y-110319250D01*
X149008750Y-110478000D01*
X149733000Y-110478000D01*
X149733000Y-110458000D01*
X149987000Y-110458000D01*
X149987000Y-110478000D01*
X150711250Y-110478000D01*
X150749000Y-110440250D01*
X150786750Y-110478000D01*
X151511000Y-110478000D01*
X151511000Y-110458000D01*
X151765000Y-110458000D01*
X151765000Y-110478000D01*
X152489250Y-110478000D01*
X152648000Y-110319250D01*
X152648000Y-110078691D01*
X152551327Y-109845302D01*
X152549957Y-109843932D01*
X152609431Y-109756890D01*
X152660440Y-109505000D01*
X152660440Y-109249993D01*
X152683433Y-109227000D01*
X152876250Y-109227000D01*
X153035000Y-109068250D01*
X153035000Y-108319000D01*
X153015000Y-108319000D01*
X153015000Y-108065000D01*
X153035000Y-108065000D01*
X153035000Y-108045000D01*
X153289000Y-108045000D01*
X153289000Y-108065000D01*
X153309000Y-108065000D01*
X153309000Y-108319000D01*
X153289000Y-108319000D01*
X153289000Y-109068250D01*
X153447750Y-109227000D01*
X153663310Y-109227000D01*
X153896699Y-109130327D01*
X154075327Y-108951698D01*
X154172000Y-108718309D01*
X154172000Y-108477750D01*
X154013252Y-108319002D01*
X154172000Y-108319002D01*
X154172000Y-108288762D01*
X154363000Y-108327440D01*
X154686113Y-108327440D01*
X154685824Y-108659208D01*
X154840175Y-109032766D01*
X155125731Y-109318821D01*
X155499018Y-109473824D01*
X155550435Y-109473869D01*
X156451560Y-110374993D01*
X156451560Y-111633000D01*
X156466812Y-111714055D01*
X147484434Y-111714055D01*
X147568000Y-111512309D01*
X147568000Y-111271750D01*
X147409250Y-111113000D01*
X146685000Y-111113000D01*
X146685000Y-111133000D01*
X146431000Y-111133000D01*
X146431000Y-111113000D01*
X145706750Y-111113000D01*
X145548000Y-111271750D01*
X145548000Y-111512309D01*
X145631566Y-111714055D01*
X134740831Y-111714055D01*
X134561269Y-111534179D01*
X134187982Y-111379176D01*
X133783792Y-111378824D01*
X133410234Y-111533175D01*
X133124179Y-111818731D01*
X132969176Y-112192018D01*
X132968954Y-112447000D01*
X132766407Y-112447000D01*
X133077426Y-111659654D01*
X133064746Y-110890750D01*
X148850000Y-110890750D01*
X148850000Y-111131309D01*
X148946673Y-111364698D01*
X149125301Y-111543327D01*
X149358690Y-111640000D01*
X149574250Y-111640000D01*
X149733000Y-111481250D01*
X149733000Y-110732000D01*
X149987000Y-110732000D01*
X149987000Y-111481250D01*
X150145750Y-111640000D01*
X150361310Y-111640000D01*
X150594699Y-111543327D01*
X150749000Y-111389025D01*
X150903301Y-111543327D01*
X151136690Y-111640000D01*
X151352250Y-111640000D01*
X151511000Y-111481250D01*
X151511000Y-110732000D01*
X151765000Y-110732000D01*
X151765000Y-111481250D01*
X151923750Y-111640000D01*
X152139310Y-111640000D01*
X152372699Y-111543327D01*
X152551327Y-111364698D01*
X152648000Y-111131309D01*
X152648000Y-110890750D01*
X152489250Y-110732000D01*
X151765000Y-110732000D01*
X151511000Y-110732000D01*
X150786750Y-110732000D01*
X150749000Y-110769750D01*
X150711250Y-110732000D01*
X149987000Y-110732000D01*
X149733000Y-110732000D01*
X149008750Y-110732000D01*
X148850000Y-110890750D01*
X133064746Y-110890750D01*
X133062765Y-110770637D01*
X132750760Y-110017390D01*
X132421602Y-109845403D01*
X131015005Y-111252000D01*
X131029148Y-111266143D01*
X130849543Y-111445748D01*
X130835400Y-111431605D01*
X130821258Y-111445748D01*
X130641653Y-111266143D01*
X130655795Y-111252000D01*
X130641653Y-111237858D01*
X130821258Y-111058253D01*
X130835400Y-111072395D01*
X132241997Y-109665798D01*
X132070010Y-109336640D01*
X131243054Y-109009974D01*
X130354037Y-109024635D01*
X129600790Y-109336640D01*
X129428804Y-109665796D01*
X129315618Y-109552610D01*
X129234000Y-109634228D01*
X129234000Y-107981750D01*
X130930000Y-107981750D01*
X130930000Y-108197310D01*
X131026673Y-108430699D01*
X131205302Y-108609327D01*
X131438691Y-108706000D01*
X131679250Y-108706000D01*
X131838000Y-108547250D01*
X131838000Y-107823000D01*
X131088750Y-107823000D01*
X130930000Y-107981750D01*
X129234000Y-107981750D01*
X129234000Y-107685250D01*
X129302000Y-107617250D01*
X129302000Y-106868000D01*
X129556000Y-106868000D01*
X129556000Y-107617250D01*
X129714750Y-107776000D01*
X130005309Y-107776000D01*
X130238698Y-107679327D01*
X130417327Y-107500699D01*
X130514000Y-107267310D01*
X130514000Y-107026750D01*
X130355250Y-106868000D01*
X129556000Y-106868000D01*
X129302000Y-106868000D01*
X129282000Y-106868000D01*
X129282000Y-106614000D01*
X129302000Y-106614000D01*
X129302000Y-106594000D01*
X129556000Y-106594000D01*
X129556000Y-106614000D01*
X130355250Y-106614000D01*
X130441262Y-106527988D01*
X130514910Y-106642441D01*
X130727110Y-106787431D01*
X130979000Y-106838440D01*
X131149535Y-106838440D01*
X131026673Y-106961301D01*
X130930000Y-107194690D01*
X130930000Y-107410250D01*
X131088750Y-107569000D01*
X131838000Y-107569000D01*
X131838000Y-107549000D01*
X132092000Y-107549000D01*
X132092000Y-107569000D01*
X132112000Y-107569000D01*
X132112000Y-107823000D01*
X132092000Y-107823000D01*
X132092000Y-108547250D01*
X132250750Y-108706000D01*
X132491309Y-108706000D01*
X132588150Y-108665887D01*
X132587824Y-109040208D01*
X132742175Y-109413766D01*
X133027731Y-109699821D01*
X133401018Y-109854824D01*
X133805208Y-109855176D01*
X134178766Y-109700825D01*
X134464821Y-109415269D01*
X134619824Y-109041982D01*
X134620176Y-108637792D01*
X134470848Y-108276390D01*
X134481463Y-108223971D01*
X135070993Y-107634440D01*
X135401000Y-107634440D01*
X135636317Y-107590162D01*
X135852441Y-107451090D01*
X135997431Y-107238890D01*
X136048440Y-106987000D01*
X136048440Y-106087000D01*
X136004162Y-105851683D01*
X135865090Y-105635559D01*
X135863452Y-105634440D01*
X136351000Y-105634440D01*
X136586317Y-105590162D01*
X136802441Y-105451090D01*
X136947431Y-105238890D01*
X136998440Y-104987000D01*
X136998440Y-104087000D01*
X136954162Y-103851683D01*
X136815090Y-103635559D01*
X136602890Y-103490569D01*
X136358515Y-103441082D01*
X136144133Y-103226699D01*
X136144176Y-103176792D01*
X135989825Y-102803234D01*
X135704269Y-102517179D01*
X135330982Y-102362176D01*
X134926792Y-102361824D01*
X134553234Y-102516175D01*
X134267179Y-102801731D01*
X134112176Y-103175018D01*
X134111946Y-103439560D01*
X133651000Y-103439560D01*
X133558440Y-103456976D01*
X133558440Y-103370000D01*
X133514162Y-103134683D01*
X133375090Y-102918559D01*
X133305289Y-102870866D01*
X133362441Y-102834090D01*
X133507431Y-102621890D01*
X133558440Y-102370000D01*
X133558440Y-101870000D01*
X133514162Y-101634683D01*
X133375090Y-101418559D01*
X133162890Y-101273569D01*
X132911000Y-101222560D01*
X132011000Y-101222560D01*
X131775683Y-101266838D01*
X131732695Y-101294500D01*
X131481940Y-101294500D01*
X131481940Y-100750000D01*
X131437662Y-100514683D01*
X131298590Y-100298559D01*
X131086390Y-100153569D01*
X130978393Y-100131699D01*
X131256145Y-99826924D01*
X131425976Y-99416890D01*
X131304655Y-99187000D01*
X130111500Y-99187000D01*
X130111500Y-99207000D01*
X129857500Y-99207000D01*
X129857500Y-99187000D01*
X129837500Y-99187000D01*
X129837500Y-98933000D01*
X129857500Y-98933000D01*
X129857500Y-98913000D01*
X130111500Y-98913000D01*
X130111500Y-98933000D01*
X131304655Y-98933000D01*
X131425976Y-98703110D01*
X131256145Y-98293076D01*
X130865858Y-97864817D01*
X130341392Y-97618514D01*
X130111502Y-97739180D01*
X130111502Y-97638699D01*
X130288496Y-97638853D01*
X130662054Y-97484502D01*
X130948109Y-97198946D01*
X131103112Y-96825659D01*
X131103464Y-96421469D01*
X131032305Y-96249250D01*
X134364500Y-96249250D01*
X134364500Y-96344809D01*
X134461173Y-96578198D01*
X134639801Y-96756827D01*
X134873190Y-96853500D01*
X134940750Y-96853500D01*
X135099500Y-96694750D01*
X135099500Y-96090500D01*
X135299500Y-96090500D01*
X135299500Y-96694750D01*
X135458250Y-96853500D01*
X135525810Y-96853500D01*
X135699500Y-96781555D01*
X135873190Y-96853500D01*
X135940750Y-96853500D01*
X136099500Y-96694750D01*
X136099500Y-96090500D01*
X136299500Y-96090500D01*
X136299500Y-96694750D01*
X136458250Y-96853500D01*
X136525810Y-96853500D01*
X136759199Y-96756827D01*
X136937827Y-96578198D01*
X137034500Y-96344809D01*
X137034500Y-96249250D01*
X136875750Y-96090500D01*
X136299500Y-96090500D01*
X136099500Y-96090500D01*
X135299500Y-96090500D01*
X135099500Y-96090500D01*
X134523250Y-96090500D01*
X134364500Y-96249250D01*
X131032305Y-96249250D01*
X131011306Y-96198430D01*
X131564380Y-96198430D01*
X131799697Y-96154152D01*
X131811554Y-96146522D01*
X131812870Y-96147421D01*
X132064760Y-96198430D01*
X133065520Y-96198430D01*
X133300837Y-96154152D01*
X133516961Y-96015080D01*
X133661951Y-95802880D01*
X133712960Y-95550990D01*
X133712960Y-95125540D01*
X134747554Y-95125540D01*
X134639801Y-95170173D01*
X134461173Y-95348802D01*
X134364500Y-95582191D01*
X134364500Y-95677750D01*
X134523250Y-95836500D01*
X135099500Y-95836500D01*
X135099500Y-95816500D01*
X135299500Y-95816500D01*
X135299500Y-95836500D01*
X136099500Y-95836500D01*
X136099500Y-95816500D01*
X136299500Y-95816500D01*
X136299500Y-95836500D01*
X136875750Y-95836500D01*
X137034500Y-95677750D01*
X137034500Y-95582191D01*
X136937827Y-95348802D01*
X136759199Y-95170173D01*
X136525810Y-95073500D01*
X136515552Y-95073500D01*
X136546940Y-94918500D01*
X136546940Y-94408500D01*
X136502662Y-94173183D01*
X136396009Y-94007440D01*
X136413006Y-94007440D01*
X137078560Y-94672993D01*
X137078560Y-94672993D01*
G37*
X137078560Y-94672993D02*
X137078560Y-94853000D01*
X137122838Y-95088317D01*
X137261910Y-95304441D01*
X137350500Y-95364972D01*
X137350500Y-96278000D01*
X137413337Y-96593906D01*
X137459560Y-96663083D01*
X137459560Y-96909000D01*
X137503838Y-97144317D01*
X137642910Y-97360441D01*
X137712711Y-97408134D01*
X137655559Y-97444910D01*
X137510569Y-97657110D01*
X137459560Y-97909000D01*
X137459560Y-98409000D01*
X137503838Y-98644317D01*
X137642910Y-98860441D01*
X137803045Y-98969856D01*
X137744683Y-98980838D01*
X137528559Y-99119910D01*
X137383569Y-99332110D01*
X137332560Y-99584000D01*
X137332560Y-100084000D01*
X137376838Y-100319317D01*
X137515910Y-100535441D01*
X137585711Y-100583134D01*
X137528559Y-100619910D01*
X137383569Y-100832110D01*
X137332560Y-101084000D01*
X137332560Y-101584000D01*
X137376838Y-101819317D01*
X137515910Y-102035441D01*
X137604500Y-102095972D01*
X137604500Y-102782066D01*
X137504023Y-102882543D01*
X137438683Y-102894838D01*
X137222559Y-103033910D01*
X137077569Y-103246110D01*
X137026560Y-103498000D01*
X137026560Y-104298000D01*
X137070838Y-104533317D01*
X137144620Y-104647978D01*
X137077569Y-104746110D01*
X137026560Y-104998000D01*
X137026560Y-105798000D01*
X137070838Y-106033317D01*
X137209910Y-106249441D01*
X137223500Y-106258727D01*
X137223500Y-106426000D01*
X137286337Y-106741905D01*
X137465283Y-107009717D01*
X137733095Y-107188663D01*
X138049000Y-107251500D01*
X143002000Y-107251500D01*
X143317906Y-107188663D01*
X143585717Y-107009717D01*
X143623560Y-106971874D01*
X143623560Y-106978500D01*
X143667838Y-107213817D01*
X143806910Y-107429941D01*
X144019110Y-107574931D01*
X144271000Y-107625940D01*
X144746780Y-107625940D01*
X145846001Y-108548269D01*
X145731559Y-108621910D01*
X145586569Y-108834110D01*
X145535560Y-109086000D01*
X145535560Y-109886000D01*
X145579838Y-110121317D01*
X145646329Y-110224646D01*
X145644673Y-110226302D01*
X145548000Y-110459691D01*
X145548000Y-110700250D01*
X145706750Y-110859000D01*
X146431000Y-110859000D01*
X146431000Y-110839000D01*
X146685000Y-110839000D01*
X146685000Y-110859000D01*
X147409250Y-110859000D01*
X147568000Y-110700250D01*
X147568000Y-110459691D01*
X147506617Y-110311500D01*
X147609451Y-110311500D01*
X147632731Y-110334821D01*
X148006018Y-110489824D01*
X148410208Y-110490176D01*
X148783766Y-110335825D01*
X148850000Y-110269707D01*
X148850000Y-110319250D01*
X149008750Y-110478000D01*
X149733000Y-110478000D01*
X149733000Y-110458000D01*
X149987000Y-110458000D01*
X149987000Y-110478000D01*
X150711250Y-110478000D01*
X150749000Y-110440250D01*
X150786750Y-110478000D01*
X151511000Y-110478000D01*
X151511000Y-110458000D01*
X151765000Y-110458000D01*
X151765000Y-110478000D01*
X152489250Y-110478000D01*
X152648000Y-110319250D01*
X152648000Y-110078691D01*
X152551327Y-109845302D01*
X152549957Y-109843932D01*
X152609431Y-109756890D01*
X152660440Y-109505000D01*
X152660440Y-109249993D01*
X152683433Y-109227000D01*
X152876250Y-109227000D01*
X153035000Y-109068250D01*
X153035000Y-108319000D01*
X153015000Y-108319000D01*
X153015000Y-108065000D01*
X153035000Y-108065000D01*
X153035000Y-108045000D01*
X153289000Y-108045000D01*
X153289000Y-108065000D01*
X153309000Y-108065000D01*
X153309000Y-108319000D01*
X153289000Y-108319000D01*
X153289000Y-109068250D01*
X153447750Y-109227000D01*
X153663310Y-109227000D01*
X153896699Y-109130327D01*
X154075327Y-108951698D01*
X154172000Y-108718309D01*
X154172000Y-108477750D01*
X154013252Y-108319002D01*
X154172000Y-108319002D01*
X154172000Y-108288762D01*
X154363000Y-108327440D01*
X154686113Y-108327440D01*
X154685824Y-108659208D01*
X154840175Y-109032766D01*
X155125731Y-109318821D01*
X155499018Y-109473824D01*
X155550435Y-109473869D01*
X156451560Y-110374993D01*
X156451560Y-111633000D01*
X156466812Y-111714055D01*
X147484434Y-111714055D01*
X147568000Y-111512309D01*
X147568000Y-111271750D01*
X147409250Y-111113000D01*
X146685000Y-111113000D01*
X146685000Y-111133000D01*
X146431000Y-111133000D01*
X146431000Y-111113000D01*
X145706750Y-111113000D01*
X145548000Y-111271750D01*
X145548000Y-111512309D01*
X145631566Y-111714055D01*
X134740831Y-111714055D01*
X134561269Y-111534179D01*
X134187982Y-111379176D01*
X133783792Y-111378824D01*
X133410234Y-111533175D01*
X133124179Y-111818731D01*
X132969176Y-112192018D01*
X132968954Y-112447000D01*
X132766407Y-112447000D01*
X133077426Y-111659654D01*
X133064746Y-110890750D01*
X148850000Y-110890750D01*
X148850000Y-111131309D01*
X148946673Y-111364698D01*
X149125301Y-111543327D01*
X149358690Y-111640000D01*
X149574250Y-111640000D01*
X149733000Y-111481250D01*
X149733000Y-110732000D01*
X149987000Y-110732000D01*
X149987000Y-111481250D01*
X150145750Y-111640000D01*
X150361310Y-111640000D01*
X150594699Y-111543327D01*
X150749000Y-111389025D01*
X150903301Y-111543327D01*
X151136690Y-111640000D01*
X151352250Y-111640000D01*
X151511000Y-111481250D01*
X151511000Y-110732000D01*
X151765000Y-110732000D01*
X151765000Y-111481250D01*
X151923750Y-111640000D01*
X152139310Y-111640000D01*
X152372699Y-111543327D01*
X152551327Y-111364698D01*
X152648000Y-111131309D01*
X152648000Y-110890750D01*
X152489250Y-110732000D01*
X151765000Y-110732000D01*
X151511000Y-110732000D01*
X150786750Y-110732000D01*
X150749000Y-110769750D01*
X150711250Y-110732000D01*
X149987000Y-110732000D01*
X149733000Y-110732000D01*
X149008750Y-110732000D01*
X148850000Y-110890750D01*
X133064746Y-110890750D01*
X133062765Y-110770637D01*
X132750760Y-110017390D01*
X132421602Y-109845403D01*
X131015005Y-111252000D01*
X131029148Y-111266143D01*
X130849543Y-111445748D01*
X130835400Y-111431605D01*
X130821258Y-111445748D01*
X130641653Y-111266143D01*
X130655795Y-111252000D01*
X130641653Y-111237858D01*
X130821258Y-111058253D01*
X130835400Y-111072395D01*
X132241997Y-109665798D01*
X132070010Y-109336640D01*
X131243054Y-109009974D01*
X130354037Y-109024635D01*
X129600790Y-109336640D01*
X129428804Y-109665796D01*
X129315618Y-109552610D01*
X129234000Y-109634228D01*
X129234000Y-107981750D01*
X130930000Y-107981750D01*
X130930000Y-108197310D01*
X131026673Y-108430699D01*
X131205302Y-108609327D01*
X131438691Y-108706000D01*
X131679250Y-108706000D01*
X131838000Y-108547250D01*
X131838000Y-107823000D01*
X131088750Y-107823000D01*
X130930000Y-107981750D01*
X129234000Y-107981750D01*
X129234000Y-107685250D01*
X129302000Y-107617250D01*
X129302000Y-106868000D01*
X129556000Y-106868000D01*
X129556000Y-107617250D01*
X129714750Y-107776000D01*
X130005309Y-107776000D01*
X130238698Y-107679327D01*
X130417327Y-107500699D01*
X130514000Y-107267310D01*
X130514000Y-107026750D01*
X130355250Y-106868000D01*
X129556000Y-106868000D01*
X129302000Y-106868000D01*
X129282000Y-106868000D01*
X129282000Y-106614000D01*
X129302000Y-106614000D01*
X129302000Y-106594000D01*
X129556000Y-106594000D01*
X129556000Y-106614000D01*
X130355250Y-106614000D01*
X130441262Y-106527988D01*
X130514910Y-106642441D01*
X130727110Y-106787431D01*
X130979000Y-106838440D01*
X131149535Y-106838440D01*
X131026673Y-106961301D01*
X130930000Y-107194690D01*
X130930000Y-107410250D01*
X131088750Y-107569000D01*
X131838000Y-107569000D01*
X131838000Y-107549000D01*
X132092000Y-107549000D01*
X132092000Y-107569000D01*
X132112000Y-107569000D01*
X132112000Y-107823000D01*
X132092000Y-107823000D01*
X132092000Y-108547250D01*
X132250750Y-108706000D01*
X132491309Y-108706000D01*
X132588150Y-108665887D01*
X132587824Y-109040208D01*
X132742175Y-109413766D01*
X133027731Y-109699821D01*
X133401018Y-109854824D01*
X133805208Y-109855176D01*
X134178766Y-109700825D01*
X134464821Y-109415269D01*
X134619824Y-109041982D01*
X134620176Y-108637792D01*
X134470848Y-108276390D01*
X134481463Y-108223971D01*
X135070993Y-107634440D01*
X135401000Y-107634440D01*
X135636317Y-107590162D01*
X135852441Y-107451090D01*
X135997431Y-107238890D01*
X136048440Y-106987000D01*
X136048440Y-106087000D01*
X136004162Y-105851683D01*
X135865090Y-105635559D01*
X135863452Y-105634440D01*
X136351000Y-105634440D01*
X136586317Y-105590162D01*
X136802441Y-105451090D01*
X136947431Y-105238890D01*
X136998440Y-104987000D01*
X136998440Y-104087000D01*
X136954162Y-103851683D01*
X136815090Y-103635559D01*
X136602890Y-103490569D01*
X136358515Y-103441082D01*
X136144133Y-103226699D01*
X136144176Y-103176792D01*
X135989825Y-102803234D01*
X135704269Y-102517179D01*
X135330982Y-102362176D01*
X134926792Y-102361824D01*
X134553234Y-102516175D01*
X134267179Y-102801731D01*
X134112176Y-103175018D01*
X134111946Y-103439560D01*
X133651000Y-103439560D01*
X133558440Y-103456976D01*
X133558440Y-103370000D01*
X133514162Y-103134683D01*
X133375090Y-102918559D01*
X133305289Y-102870866D01*
X133362441Y-102834090D01*
X133507431Y-102621890D01*
X133558440Y-102370000D01*
X133558440Y-101870000D01*
X133514162Y-101634683D01*
X133375090Y-101418559D01*
X133162890Y-101273569D01*
X132911000Y-101222560D01*
X132011000Y-101222560D01*
X131775683Y-101266838D01*
X131732695Y-101294500D01*
X131481940Y-101294500D01*
X131481940Y-100750000D01*
X131437662Y-100514683D01*
X131298590Y-100298559D01*
X131086390Y-100153569D01*
X130978393Y-100131699D01*
X131256145Y-99826924D01*
X131425976Y-99416890D01*
X131304655Y-99187000D01*
X130111500Y-99187000D01*
X130111500Y-99207000D01*
X129857500Y-99207000D01*
X129857500Y-99187000D01*
X129837500Y-99187000D01*
X129837500Y-98933000D01*
X129857500Y-98933000D01*
X129857500Y-98913000D01*
X130111500Y-98913000D01*
X130111500Y-98933000D01*
X131304655Y-98933000D01*
X131425976Y-98703110D01*
X131256145Y-98293076D01*
X130865858Y-97864817D01*
X130341392Y-97618514D01*
X130111502Y-97739180D01*
X130111502Y-97638699D01*
X130288496Y-97638853D01*
X130662054Y-97484502D01*
X130948109Y-97198946D01*
X131103112Y-96825659D01*
X131103464Y-96421469D01*
X131032305Y-96249250D01*
X134364500Y-96249250D01*
X134364500Y-96344809D01*
X134461173Y-96578198D01*
X134639801Y-96756827D01*
X134873190Y-96853500D01*
X134940750Y-96853500D01*
X135099500Y-96694750D01*
X135099500Y-96090500D01*
X135299500Y-96090500D01*
X135299500Y-96694750D01*
X135458250Y-96853500D01*
X135525810Y-96853500D01*
X135699500Y-96781555D01*
X135873190Y-96853500D01*
X135940750Y-96853500D01*
X136099500Y-96694750D01*
X136099500Y-96090500D01*
X136299500Y-96090500D01*
X136299500Y-96694750D01*
X136458250Y-96853500D01*
X136525810Y-96853500D01*
X136759199Y-96756827D01*
X136937827Y-96578198D01*
X137034500Y-96344809D01*
X137034500Y-96249250D01*
X136875750Y-96090500D01*
X136299500Y-96090500D01*
X136099500Y-96090500D01*
X135299500Y-96090500D01*
X135099500Y-96090500D01*
X134523250Y-96090500D01*
X134364500Y-96249250D01*
X131032305Y-96249250D01*
X131011306Y-96198430D01*
X131564380Y-96198430D01*
X131799697Y-96154152D01*
X131811554Y-96146522D01*
X131812870Y-96147421D01*
X132064760Y-96198430D01*
X133065520Y-96198430D01*
X133300837Y-96154152D01*
X133516961Y-96015080D01*
X133661951Y-95802880D01*
X133712960Y-95550990D01*
X133712960Y-95125540D01*
X134747554Y-95125540D01*
X134639801Y-95170173D01*
X134461173Y-95348802D01*
X134364500Y-95582191D01*
X134364500Y-95677750D01*
X134523250Y-95836500D01*
X135099500Y-95836500D01*
X135099500Y-95816500D01*
X135299500Y-95816500D01*
X135299500Y-95836500D01*
X136099500Y-95836500D01*
X136099500Y-95816500D01*
X136299500Y-95816500D01*
X136299500Y-95836500D01*
X136875750Y-95836500D01*
X137034500Y-95677750D01*
X137034500Y-95582191D01*
X136937827Y-95348802D01*
X136759199Y-95170173D01*
X136525810Y-95073500D01*
X136515552Y-95073500D01*
X136546940Y-94918500D01*
X136546940Y-94408500D01*
X136502662Y-94173183D01*
X136396009Y-94007440D01*
X136413006Y-94007440D01*
X137078560Y-94672993D01*
G36*
X165914000Y-95972000D02*
X164623750Y-95972000D01*
X164465000Y-96130750D01*
X164465000Y-97155000D01*
X164485000Y-97155000D01*
X164485000Y-97409000D01*
X164465000Y-97409000D01*
X164465000Y-98433250D01*
X164623750Y-98592000D01*
X165914000Y-98592000D01*
X165914000Y-99720618D01*
X165727358Y-99515817D01*
X165202892Y-99269514D01*
X164973000Y-99390181D01*
X164973000Y-100584000D01*
X164993000Y-100584000D01*
X164993000Y-100838000D01*
X164973000Y-100838000D01*
X164973000Y-103124000D01*
X164993000Y-103124000D01*
X164993000Y-103378000D01*
X164973000Y-103378000D01*
X164973000Y-105664000D01*
X164993000Y-105664000D01*
X164993000Y-105918000D01*
X164973000Y-105918000D01*
X164973000Y-108204000D01*
X164993000Y-108204000D01*
X164993000Y-108458000D01*
X164973000Y-108458000D01*
X164973000Y-109651819D01*
X165202892Y-109772486D01*
X165727358Y-109526183D01*
X165914000Y-109321382D01*
X165914000Y-110985728D01*
X165804809Y-110940500D01*
X165564250Y-110940500D01*
X165405500Y-111099250D01*
X165405500Y-111823500D01*
X165425500Y-111823500D01*
X165425500Y-112077500D01*
X165405500Y-112077500D01*
X165405500Y-112097500D01*
X165151500Y-112097500D01*
X165151500Y-112077500D01*
X165131500Y-112077500D01*
X165131500Y-111823500D01*
X165151500Y-111823500D01*
X165151500Y-111099250D01*
X164992750Y-110940500D01*
X164752191Y-110940500D01*
X164518802Y-111037173D01*
X164517432Y-111038543D01*
X164430390Y-110979069D01*
X164178500Y-110928060D01*
X163378500Y-110928060D01*
X163143183Y-110972338D01*
X162927059Y-111111410D01*
X162917773Y-111125000D01*
X162752355Y-111125000D01*
X162563269Y-110935584D01*
X162189982Y-110780581D01*
X161785792Y-110780229D01*
X161412234Y-110934580D01*
X161126179Y-111220136D01*
X161036000Y-111437310D01*
X161036000Y-111093250D01*
X160877250Y-110934500D01*
X160147000Y-110934500D01*
X160147000Y-110954500D01*
X159893000Y-110954500D01*
X159893000Y-110934500D01*
X159162750Y-110934500D01*
X159004000Y-111093250D01*
X159004000Y-111714055D01*
X158492026Y-111714055D01*
X158508440Y-111633000D01*
X158508440Y-109982000D01*
X158484674Y-109855690D01*
X159004000Y-109855690D01*
X159004000Y-110521750D01*
X159162750Y-110680500D01*
X159893000Y-110680500D01*
X159893000Y-109505750D01*
X160147000Y-109505750D01*
X160147000Y-110680500D01*
X160877250Y-110680500D01*
X161036000Y-110521750D01*
X161036000Y-109855690D01*
X160939327Y-109622301D01*
X160760698Y-109443673D01*
X160527309Y-109347000D01*
X160305750Y-109347000D01*
X160147000Y-109505750D01*
X159893000Y-109505750D01*
X159734250Y-109347000D01*
X159512691Y-109347000D01*
X159279302Y-109443673D01*
X159100673Y-109622301D01*
X159004000Y-109855690D01*
X158484674Y-109855690D01*
X158464162Y-109746683D01*
X158325090Y-109530559D01*
X158112890Y-109385569D01*
X157861000Y-109334560D01*
X157745993Y-109334560D01*
X157516873Y-109105440D01*
X157861000Y-109105440D01*
X158096317Y-109061162D01*
X158123539Y-109043645D01*
X158242691Y-109093000D01*
X158464250Y-109093000D01*
X158623000Y-108934250D01*
X158623000Y-107759500D01*
X158603000Y-107759500D01*
X158603000Y-107505500D01*
X158623000Y-107505500D01*
X158623000Y-107485500D01*
X158877000Y-107485500D01*
X158877000Y-107505500D01*
X158897000Y-107505500D01*
X158897000Y-107759500D01*
X158877000Y-107759500D01*
X158877000Y-108934250D01*
X159035750Y-109093000D01*
X159257309Y-109093000D01*
X159373263Y-109044970D01*
X159387110Y-109054431D01*
X159639000Y-109105440D01*
X160401000Y-109105440D01*
X160636317Y-109061162D01*
X160808560Y-108950327D01*
X160808560Y-109181000D01*
X160852838Y-109416317D01*
X160991910Y-109632441D01*
X161204110Y-109777431D01*
X161456000Y-109828440D01*
X163156000Y-109828440D01*
X163391317Y-109784162D01*
X163607441Y-109645090D01*
X163752431Y-109432890D01*
X163775555Y-109318699D01*
X163964642Y-109526183D01*
X164489108Y-109772486D01*
X164719000Y-109651819D01*
X164719000Y-108458000D01*
X164699000Y-108458000D01*
X164699000Y-108204000D01*
X164719000Y-108204000D01*
X164719000Y-105918000D01*
X164699000Y-105918000D01*
X164699000Y-105664000D01*
X164719000Y-105664000D01*
X164719000Y-103378000D01*
X164699000Y-103378000D01*
X164699000Y-103124000D01*
X164719000Y-103124000D01*
X164719000Y-100838000D01*
X164699000Y-100838000D01*
X164699000Y-100584000D01*
X164719000Y-100584000D01*
X164719000Y-99390181D01*
X164489108Y-99269514D01*
X163964642Y-99515817D01*
X163574355Y-99944076D01*
X163574345Y-99944101D01*
X163385147Y-99660946D01*
X162903378Y-99339039D01*
X162335093Y-99226000D01*
X162276907Y-99226000D01*
X162036295Y-99273861D01*
X161925000Y-99162566D01*
X161925000Y-99087196D01*
X161925941Y-99086590D01*
X162070931Y-98874390D01*
X162121940Y-98622500D01*
X162121940Y-98592000D01*
X164052250Y-98592000D01*
X164211000Y-98433250D01*
X164211000Y-97409000D01*
X164191000Y-97409000D01*
X164191000Y-97155000D01*
X164211000Y-97155000D01*
X164211000Y-96130750D01*
X164052250Y-95972000D01*
X163518434Y-95972000D01*
X164425994Y-95064440D01*
X165914000Y-95064440D01*
X165914000Y-95972000D01*
X165914000Y-95972000D01*
G37*
X165914000Y-95972000D02*
X164623750Y-95972000D01*
X164465000Y-96130750D01*
X164465000Y-97155000D01*
X164485000Y-97155000D01*
X164485000Y-97409000D01*
X164465000Y-97409000D01*
X164465000Y-98433250D01*
X164623750Y-98592000D01*
X165914000Y-98592000D01*
X165914000Y-99720618D01*
X165727358Y-99515817D01*
X165202892Y-99269514D01*
X164973000Y-99390181D01*
X164973000Y-100584000D01*
X164993000Y-100584000D01*
X164993000Y-100838000D01*
X164973000Y-100838000D01*
X164973000Y-103124000D01*
X164993000Y-103124000D01*
X164993000Y-103378000D01*
X164973000Y-103378000D01*
X164973000Y-105664000D01*
X164993000Y-105664000D01*
X164993000Y-105918000D01*
X164973000Y-105918000D01*
X164973000Y-108204000D01*
X164993000Y-108204000D01*
X164993000Y-108458000D01*
X164973000Y-108458000D01*
X164973000Y-109651819D01*
X165202892Y-109772486D01*
X165727358Y-109526183D01*
X165914000Y-109321382D01*
X165914000Y-110985728D01*
X165804809Y-110940500D01*
X165564250Y-110940500D01*
X165405500Y-111099250D01*
X165405500Y-111823500D01*
X165425500Y-111823500D01*
X165425500Y-112077500D01*
X165405500Y-112077500D01*
X165405500Y-112097500D01*
X165151500Y-112097500D01*
X165151500Y-112077500D01*
X165131500Y-112077500D01*
X165131500Y-111823500D01*
X165151500Y-111823500D01*
X165151500Y-111099250D01*
X164992750Y-110940500D01*
X164752191Y-110940500D01*
X164518802Y-111037173D01*
X164517432Y-111038543D01*
X164430390Y-110979069D01*
X164178500Y-110928060D01*
X163378500Y-110928060D01*
X163143183Y-110972338D01*
X162927059Y-111111410D01*
X162917773Y-111125000D01*
X162752355Y-111125000D01*
X162563269Y-110935584D01*
X162189982Y-110780581D01*
X161785792Y-110780229D01*
X161412234Y-110934580D01*
X161126179Y-111220136D01*
X161036000Y-111437310D01*
X161036000Y-111093250D01*
X160877250Y-110934500D01*
X160147000Y-110934500D01*
X160147000Y-110954500D01*
X159893000Y-110954500D01*
X159893000Y-110934500D01*
X159162750Y-110934500D01*
X159004000Y-111093250D01*
X159004000Y-111714055D01*
X158492026Y-111714055D01*
X158508440Y-111633000D01*
X158508440Y-109982000D01*
X158484674Y-109855690D01*
X159004000Y-109855690D01*
X159004000Y-110521750D01*
X159162750Y-110680500D01*
X159893000Y-110680500D01*
X159893000Y-109505750D01*
X160147000Y-109505750D01*
X160147000Y-110680500D01*
X160877250Y-110680500D01*
X161036000Y-110521750D01*
X161036000Y-109855690D01*
X160939327Y-109622301D01*
X160760698Y-109443673D01*
X160527309Y-109347000D01*
X160305750Y-109347000D01*
X160147000Y-109505750D01*
X159893000Y-109505750D01*
X159734250Y-109347000D01*
X159512691Y-109347000D01*
X159279302Y-109443673D01*
X159100673Y-109622301D01*
X159004000Y-109855690D01*
X158484674Y-109855690D01*
X158464162Y-109746683D01*
X158325090Y-109530559D01*
X158112890Y-109385569D01*
X157861000Y-109334560D01*
X157745993Y-109334560D01*
X157516873Y-109105440D01*
X157861000Y-109105440D01*
X158096317Y-109061162D01*
X158123539Y-109043645D01*
X158242691Y-109093000D01*
X158464250Y-109093000D01*
X158623000Y-108934250D01*
X158623000Y-107759500D01*
X158603000Y-107759500D01*
X158603000Y-107505500D01*
X158623000Y-107505500D01*
X158623000Y-107485500D01*
X158877000Y-107485500D01*
X158877000Y-107505500D01*
X158897000Y-107505500D01*
X158897000Y-107759500D01*
X158877000Y-107759500D01*
X158877000Y-108934250D01*
X159035750Y-109093000D01*
X159257309Y-109093000D01*
X159373263Y-109044970D01*
X159387110Y-109054431D01*
X159639000Y-109105440D01*
X160401000Y-109105440D01*
X160636317Y-109061162D01*
X160808560Y-108950327D01*
X160808560Y-109181000D01*
X160852838Y-109416317D01*
X160991910Y-109632441D01*
X161204110Y-109777431D01*
X161456000Y-109828440D01*
X163156000Y-109828440D01*
X163391317Y-109784162D01*
X163607441Y-109645090D01*
X163752431Y-109432890D01*
X163775555Y-109318699D01*
X163964642Y-109526183D01*
X164489108Y-109772486D01*
X164719000Y-109651819D01*
X164719000Y-108458000D01*
X164699000Y-108458000D01*
X164699000Y-108204000D01*
X164719000Y-108204000D01*
X164719000Y-105918000D01*
X164699000Y-105918000D01*
X164699000Y-105664000D01*
X164719000Y-105664000D01*
X164719000Y-103378000D01*
X164699000Y-103378000D01*
X164699000Y-103124000D01*
X164719000Y-103124000D01*
X164719000Y-100838000D01*
X164699000Y-100838000D01*
X164699000Y-100584000D01*
X164719000Y-100584000D01*
X164719000Y-99390181D01*
X164489108Y-99269514D01*
X163964642Y-99515817D01*
X163574355Y-99944076D01*
X163574345Y-99944101D01*
X163385147Y-99660946D01*
X162903378Y-99339039D01*
X162335093Y-99226000D01*
X162276907Y-99226000D01*
X162036295Y-99273861D01*
X161925000Y-99162566D01*
X161925000Y-99087196D01*
X161925941Y-99086590D01*
X162070931Y-98874390D01*
X162121940Y-98622500D01*
X162121940Y-98592000D01*
X164052250Y-98592000D01*
X164211000Y-98433250D01*
X164211000Y-97409000D01*
X164191000Y-97409000D01*
X164191000Y-97155000D01*
X164211000Y-97155000D01*
X164211000Y-96130750D01*
X164052250Y-95972000D01*
X163518434Y-95972000D01*
X164425994Y-95064440D01*
X165914000Y-95064440D01*
X165914000Y-95972000D01*
G36*
X158105403Y-88710798D02*
X159512000Y-90117395D01*
X160918597Y-88710798D01*
X160791211Y-88467000D01*
X165914000Y-88467000D01*
X165914000Y-88972000D01*
X164623750Y-88972000D01*
X164465000Y-89130750D01*
X164465000Y-90155000D01*
X164485000Y-90155000D01*
X164485000Y-90409000D01*
X164465000Y-90409000D01*
X164465000Y-91433250D01*
X164623750Y-91592000D01*
X165914000Y-91592000D01*
X165914000Y-92499560D01*
X162738000Y-92499560D01*
X162502683Y-92543838D01*
X162286559Y-92682910D01*
X162141569Y-92895110D01*
X162127618Y-92964000D01*
X161825196Y-92964000D01*
X161824590Y-92963059D01*
X161612390Y-92818069D01*
X161360500Y-92767060D01*
X160560500Y-92767060D01*
X160325183Y-92811338D01*
X160221854Y-92877829D01*
X160220198Y-92876173D01*
X159986809Y-92779500D01*
X159746250Y-92779500D01*
X159587500Y-92938250D01*
X159587500Y-93662500D01*
X159607500Y-93662500D01*
X159607500Y-93916500D01*
X159587500Y-93916500D01*
X159587500Y-94640750D01*
X159746250Y-94799500D01*
X159986809Y-94799500D01*
X160220198Y-94702827D01*
X160221568Y-94701457D01*
X160308610Y-94760931D01*
X160560500Y-94811940D01*
X161360500Y-94811940D01*
X161595817Y-94767662D01*
X161811941Y-94628590D01*
X161821227Y-94615000D01*
X162127816Y-94615000D01*
X162134838Y-94652317D01*
X162273910Y-94868441D01*
X162281761Y-94873805D01*
X162223066Y-94932500D01*
X160274000Y-94932500D01*
X159958095Y-94995337D01*
X159690283Y-95174283D01*
X159511337Y-95442095D01*
X159448500Y-95758000D01*
X159448500Y-95985066D01*
X159322006Y-96111560D01*
X159004000Y-96111560D01*
X159004000Y-94799500D01*
X159174750Y-94799500D01*
X159333500Y-94640750D01*
X159333500Y-93916500D01*
X159313500Y-93916500D01*
X159313500Y-93662500D01*
X159333500Y-93662500D01*
X159333500Y-92938250D01*
X159174750Y-92779500D01*
X158934191Y-92779500D01*
X158700802Y-92876173D01*
X158522173Y-93054801D01*
X158492462Y-93126529D01*
X158447217Y-93081283D01*
X158179406Y-92902337D01*
X157863500Y-92839500D01*
X156236290Y-92839500D01*
X156095890Y-92743569D01*
X155844000Y-92692560D01*
X155602465Y-92692560D01*
X155739327Y-92555699D01*
X155836000Y-92322310D01*
X155836000Y-92106750D01*
X155677250Y-91948000D01*
X154928000Y-91948000D01*
X154928000Y-91968000D01*
X154674000Y-91968000D01*
X154674000Y-91948000D01*
X154654000Y-91948000D01*
X154654000Y-91883202D01*
X158105403Y-91883202D01*
X158277390Y-92212360D01*
X159104346Y-92539026D01*
X159993363Y-92524365D01*
X160746610Y-92212360D01*
X160918597Y-91883202D01*
X159512000Y-90476605D01*
X158105403Y-91883202D01*
X154654000Y-91883202D01*
X154654000Y-91694000D01*
X154674000Y-91694000D01*
X154674000Y-90969750D01*
X154928000Y-90969750D01*
X154928000Y-91694000D01*
X155677250Y-91694000D01*
X155836000Y-91535250D01*
X155836000Y-91319690D01*
X155739327Y-91086301D01*
X155560698Y-90907673D01*
X155327309Y-90811000D01*
X155086750Y-90811000D01*
X154928000Y-90969750D01*
X154674000Y-90969750D01*
X154515250Y-90811000D01*
X154274691Y-90811000D01*
X154041302Y-90907673D01*
X154039932Y-90909043D01*
X153952890Y-90849569D01*
X153701000Y-90798560D01*
X152901000Y-90798560D01*
X152665683Y-90842838D01*
X152474160Y-90966080D01*
X152468269Y-90960179D01*
X152094982Y-90805176D01*
X151690792Y-90804824D01*
X151317234Y-90959175D01*
X151031179Y-91244731D01*
X150876176Y-91618018D01*
X150875824Y-92022208D01*
X150902992Y-92087959D01*
X150743000Y-92055560D01*
X149993000Y-92055560D01*
X149757683Y-92099838D01*
X149541559Y-92238910D01*
X149431494Y-92399995D01*
X149361355Y-92370871D01*
X148957165Y-92370519D01*
X148583607Y-92524870D01*
X148297552Y-92810426D01*
X148142549Y-93183713D01*
X148142197Y-93587903D01*
X148296548Y-93961461D01*
X148582104Y-94247516D01*
X148955391Y-94402519D01*
X149345560Y-94402859D01*
X149345560Y-95003000D01*
X149389838Y-95238317D01*
X149437440Y-95312293D01*
X149396569Y-95372110D01*
X149345560Y-95624000D01*
X149345560Y-96424000D01*
X149389838Y-96659317D01*
X149463620Y-96773978D01*
X149396569Y-96872110D01*
X149345560Y-97124000D01*
X149345560Y-97924000D01*
X149389838Y-98159317D01*
X149528910Y-98375441D01*
X149741110Y-98520431D01*
X149993000Y-98571440D01*
X150743000Y-98571440D01*
X150978317Y-98527162D01*
X151194441Y-98388090D01*
X151236035Y-98327215D01*
X151439906Y-98286663D01*
X151707717Y-98107717D01*
X151782925Y-98032509D01*
X151955157Y-97961344D01*
X152241212Y-97675788D01*
X152396215Y-97302501D01*
X152396567Y-96898311D01*
X152359584Y-96808806D01*
X152470906Y-96786663D01*
X152738717Y-96607717D01*
X152808994Y-96537440D01*
X153224000Y-96537440D01*
X153459317Y-96493162D01*
X153675441Y-96354090D01*
X153765464Y-96222337D01*
X153815824Y-96255987D01*
X153923094Y-96327663D01*
X154228717Y-96388455D01*
X154372110Y-96486431D01*
X154624000Y-96537440D01*
X155844000Y-96537440D01*
X156079317Y-96493162D01*
X156295441Y-96354090D01*
X156440431Y-96141890D01*
X156491440Y-95890000D01*
X156491440Y-95240000D01*
X156465081Y-95099914D01*
X156479000Y-95066310D01*
X156479000Y-94900750D01*
X156320250Y-94742000D01*
X156239949Y-94742000D01*
X156095890Y-94643569D01*
X155958880Y-94615824D01*
X156079317Y-94593162D01*
X156238858Y-94490500D01*
X157353000Y-94490500D01*
X157353000Y-96111560D01*
X156942000Y-96111560D01*
X156706683Y-96155838D01*
X156490559Y-96294910D01*
X156345569Y-96507110D01*
X156294560Y-96759000D01*
X156294560Y-98059000D01*
X156338838Y-98294317D01*
X156477910Y-98510441D01*
X156690110Y-98655431D01*
X156942000Y-98706440D01*
X157642000Y-98706440D01*
X157877317Y-98662162D01*
X158093441Y-98523090D01*
X158238431Y-98310890D01*
X158241081Y-98297803D01*
X158377910Y-98510441D01*
X158590110Y-98655431D01*
X158842000Y-98706440D01*
X159542000Y-98706440D01*
X159777317Y-98662162D01*
X159993441Y-98523090D01*
X160077060Y-98400709D01*
X160077060Y-98622500D01*
X160121338Y-98857817D01*
X160260410Y-99073941D01*
X160274000Y-99083227D01*
X160274000Y-99504500D01*
X160336837Y-99820406D01*
X160515783Y-100088217D01*
X160849422Y-100421855D01*
X160791907Y-100711000D01*
X160904946Y-101279285D01*
X161226853Y-101761054D01*
X161556026Y-101981000D01*
X161226853Y-102200946D01*
X160904946Y-102682715D01*
X160845500Y-102981570D01*
X160845500Y-102154005D01*
X160845501Y-102154000D01*
X160782663Y-101838095D01*
X160731186Y-101761054D01*
X160603717Y-101570283D01*
X160603714Y-101570281D01*
X160418717Y-101385283D01*
X160150906Y-101206337D01*
X159920827Y-101160572D01*
X160050431Y-100970890D01*
X160101440Y-100719000D01*
X160101440Y-100219000D01*
X160057162Y-99983683D01*
X159918090Y-99767559D01*
X159705890Y-99622569D01*
X159454000Y-99571560D01*
X158554000Y-99571560D01*
X158318683Y-99615838D01*
X158102559Y-99754910D01*
X158091907Y-99770500D01*
X158081783Y-99770500D01*
X158065090Y-99744559D01*
X157852890Y-99599569D01*
X157601000Y-99548560D01*
X156851000Y-99548560D01*
X156615683Y-99592838D01*
X156399559Y-99731910D01*
X156254569Y-99944110D01*
X156252376Y-99954942D01*
X156206440Y-99909006D01*
X156206440Y-99880000D01*
X156162162Y-99644683D01*
X156134500Y-99601695D01*
X156134500Y-99284524D01*
X156155431Y-99253890D01*
X156206440Y-99002000D01*
X156206440Y-98102000D01*
X156162162Y-97866683D01*
X156023090Y-97650559D01*
X155810890Y-97505569D01*
X155559000Y-97454560D01*
X155059000Y-97454560D01*
X154823683Y-97498838D01*
X154607559Y-97637910D01*
X154559866Y-97707711D01*
X154523090Y-97650559D01*
X154310890Y-97505569D01*
X154059000Y-97454560D01*
X153559000Y-97454560D01*
X153323683Y-97498838D01*
X153107559Y-97637910D01*
X152962569Y-97850110D01*
X152911560Y-98102000D01*
X152911560Y-99002000D01*
X152955838Y-99237317D01*
X152983500Y-99280305D01*
X152983500Y-99597476D01*
X152962569Y-99628110D01*
X152911560Y-99880000D01*
X152911560Y-100060007D01*
X152324283Y-100647283D01*
X152145337Y-100915094D01*
X152135390Y-100965101D01*
X152111068Y-100965079D01*
X152022406Y-100905837D01*
X152020000Y-100905358D01*
X152020000Y-100901498D01*
X152000592Y-100901498D01*
X151911061Y-100883689D01*
X152020000Y-100774750D01*
X152020000Y-100712190D01*
X151923327Y-100478801D01*
X151744698Y-100300173D01*
X151511309Y-100203500D01*
X150908750Y-100203500D01*
X150750000Y-100362250D01*
X150750000Y-100831060D01*
X150496000Y-100831060D01*
X150496000Y-100362250D01*
X150337250Y-100203500D01*
X149734691Y-100203500D01*
X149501302Y-100300173D01*
X149322673Y-100478801D01*
X149226000Y-100712190D01*
X149226000Y-100774750D01*
X149384750Y-100933500D01*
X149535297Y-100933500D01*
X149409559Y-101014410D01*
X149264569Y-101226610D01*
X149260234Y-101248016D01*
X149226000Y-101282250D01*
X149226000Y-101344810D01*
X149235828Y-101368537D01*
X149213560Y-101478500D01*
X149213560Y-101858500D01*
X149238919Y-101993272D01*
X149213560Y-102118500D01*
X149213560Y-102498500D01*
X149234744Y-102611081D01*
X149226000Y-102632190D01*
X149226000Y-102694750D01*
X149256163Y-102724913D01*
X149257838Y-102733817D01*
X149396910Y-102949941D01*
X149398299Y-102950890D01*
X149264569Y-103146610D01*
X149260234Y-103168016D01*
X149226000Y-103202250D01*
X149226000Y-103264810D01*
X149235828Y-103288537D01*
X149213560Y-103398500D01*
X149213560Y-103778500D01*
X149238919Y-103913272D01*
X149213560Y-104038500D01*
X149213560Y-104418500D01*
X149238919Y-104553272D01*
X149213560Y-104678500D01*
X149213560Y-105058500D01*
X149238919Y-105193272D01*
X149213560Y-105318500D01*
X149213560Y-105698500D01*
X149238919Y-105833272D01*
X149213560Y-105958500D01*
X149213560Y-106338500D01*
X149214412Y-106343027D01*
X149127837Y-106472595D01*
X149065000Y-106788500D01*
X149127837Y-107104405D01*
X149306783Y-107372217D01*
X149562343Y-107542976D01*
X149609110Y-107574931D01*
X149797500Y-107613081D01*
X149797500Y-108000066D01*
X149740006Y-108057560D01*
X149485000Y-108057560D01*
X149249683Y-108101838D01*
X149033559Y-108240910D01*
X148888569Y-108453110D01*
X148844200Y-108672213D01*
X148785269Y-108613179D01*
X148411982Y-108458176D01*
X148307064Y-108458085D01*
X146442440Y-106893525D01*
X146442440Y-106598500D01*
X146421256Y-106485919D01*
X146430000Y-106464810D01*
X146430000Y-106402250D01*
X146399837Y-106372087D01*
X146398162Y-106363183D01*
X146259090Y-106147059D01*
X146257701Y-106146110D01*
X146391431Y-105950390D01*
X146395766Y-105928984D01*
X146430000Y-105894750D01*
X146430000Y-105832190D01*
X146420172Y-105808463D01*
X146442440Y-105698500D01*
X146442440Y-105318500D01*
X146417081Y-105183728D01*
X146442440Y-105058500D01*
X146442440Y-104678500D01*
X146421256Y-104565919D01*
X146430000Y-104544810D01*
X146430000Y-104482250D01*
X146399837Y-104452087D01*
X146398162Y-104443183D01*
X146259090Y-104227059D01*
X146257701Y-104226110D01*
X146391431Y-104030390D01*
X146395766Y-104008984D01*
X146430000Y-103974750D01*
X146430000Y-103912190D01*
X146420172Y-103888463D01*
X146442440Y-103778500D01*
X146442440Y-103398500D01*
X146417081Y-103263728D01*
X146442440Y-103138500D01*
X146442440Y-102758500D01*
X146417081Y-102623728D01*
X146442440Y-102498500D01*
X146442440Y-102118500D01*
X146417081Y-101983728D01*
X146442440Y-101858500D01*
X146442440Y-101478500D01*
X146417081Y-101343728D01*
X146442440Y-101218500D01*
X146442440Y-100838500D01*
X146434204Y-100794730D01*
X147280714Y-99948219D01*
X147280717Y-99948217D01*
X147459663Y-99680405D01*
X147522500Y-99364500D01*
X147522500Y-99246617D01*
X147670691Y-99308000D01*
X147911250Y-99308000D01*
X148070000Y-99149250D01*
X148070000Y-98425000D01*
X148324000Y-98425000D01*
X148324000Y-99149250D01*
X148482750Y-99308000D01*
X148723309Y-99308000D01*
X148956698Y-99211327D01*
X149135327Y-99032699D01*
X149232000Y-98799310D01*
X149232000Y-98583750D01*
X149073250Y-98425000D01*
X148324000Y-98425000D01*
X148070000Y-98425000D01*
X148050000Y-98425000D01*
X148050000Y-98171000D01*
X148070000Y-98171000D01*
X148070000Y-97446750D01*
X148324000Y-97446750D01*
X148324000Y-98171000D01*
X149073250Y-98171000D01*
X149232000Y-98012250D01*
X149232000Y-97796690D01*
X149135327Y-97563301D01*
X148956698Y-97384673D01*
X148723309Y-97288000D01*
X148482750Y-97288000D01*
X148324000Y-97446750D01*
X148070000Y-97446750D01*
X147911250Y-97288000D01*
X147670691Y-97288000D01*
X147437302Y-97384673D01*
X147435932Y-97386043D01*
X147348890Y-97326569D01*
X147097000Y-97275560D01*
X146297000Y-97275560D01*
X146061683Y-97319838D01*
X146006423Y-97355397D01*
X145908698Y-97257673D01*
X145675309Y-97161000D01*
X145434750Y-97161000D01*
X145276000Y-97319750D01*
X145276000Y-98044000D01*
X145296000Y-98044000D01*
X145296000Y-98298000D01*
X145276000Y-98298000D01*
X145276000Y-99022250D01*
X145434750Y-99181000D01*
X145675309Y-99181000D01*
X145739766Y-99154301D01*
X144703006Y-100191060D01*
X144335500Y-100191060D01*
X144335500Y-99116227D01*
X144387646Y-99082671D01*
X144389302Y-99084327D01*
X144622691Y-99181000D01*
X144863250Y-99181000D01*
X145022000Y-99022250D01*
X145022000Y-98298000D01*
X145002000Y-98298000D01*
X145002000Y-98044000D01*
X145022000Y-98044000D01*
X145022000Y-97319750D01*
X144863250Y-97161000D01*
X144622691Y-97161000D01*
X144389302Y-97257673D01*
X144387932Y-97259043D01*
X144300890Y-97199569D01*
X144049000Y-97148560D01*
X143249000Y-97148560D01*
X143219497Y-97154111D01*
X143224431Y-97146890D01*
X143275440Y-96895000D01*
X143275440Y-96145000D01*
X143231162Y-95909683D01*
X143092090Y-95693559D01*
X142879890Y-95548569D01*
X142628000Y-95497560D01*
X141828000Y-95497560D01*
X141592683Y-95541838D01*
X141478022Y-95615620D01*
X141379890Y-95548569D01*
X141128000Y-95497560D01*
X141120509Y-95497560D01*
X141242931Y-95318390D01*
X141293940Y-95066500D01*
X141293940Y-94266500D01*
X141249662Y-94031183D01*
X141183171Y-93927854D01*
X141184827Y-93926198D01*
X141281500Y-93692809D01*
X141281500Y-93452250D01*
X141122750Y-93293500D01*
X140398500Y-93293500D01*
X140398500Y-93313500D01*
X140144500Y-93313500D01*
X140144500Y-93293500D01*
X139420250Y-93293500D01*
X139261500Y-93452250D01*
X139261500Y-93692809D01*
X139296580Y-93777500D01*
X139099525Y-93777500D01*
X139164327Y-93712698D01*
X139261000Y-93479309D01*
X139261000Y-93386750D01*
X139102250Y-93228000D01*
X138303000Y-93228000D01*
X138303000Y-93250000D01*
X138049000Y-93250000D01*
X138049000Y-93228000D01*
X138029000Y-93228000D01*
X138029000Y-92978000D01*
X138049000Y-92978000D01*
X138049000Y-92376750D01*
X138303000Y-92376750D01*
X138303000Y-92978000D01*
X139102250Y-92978000D01*
X139261000Y-92819250D01*
X139261000Y-92726691D01*
X139225171Y-92640191D01*
X139261500Y-92640191D01*
X139261500Y-92880750D01*
X139420250Y-93039500D01*
X140144500Y-93039500D01*
X140144500Y-92290250D01*
X140398500Y-92290250D01*
X140398500Y-93039500D01*
X141122750Y-93039500D01*
X141281500Y-92880750D01*
X141281500Y-92640191D01*
X141184827Y-92406802D01*
X141006199Y-92228173D01*
X140772810Y-92131500D01*
X140557250Y-92131500D01*
X140398500Y-92290250D01*
X140144500Y-92290250D01*
X139985750Y-92131500D01*
X139770190Y-92131500D01*
X139536801Y-92228173D01*
X139358173Y-92406802D01*
X139261500Y-92640191D01*
X139225171Y-92640191D01*
X139164327Y-92493302D01*
X138985699Y-92314673D01*
X138752310Y-92218000D01*
X138461750Y-92218000D01*
X138303000Y-92376750D01*
X138049000Y-92376750D01*
X137890250Y-92218000D01*
X137599690Y-92218000D01*
X137366301Y-92314673D01*
X137210704Y-92470271D01*
X137075440Y-92335006D01*
X137075440Y-92060000D01*
X137031162Y-91824683D01*
X136892090Y-91608559D01*
X136679890Y-91463569D01*
X136428000Y-91412560D01*
X135728000Y-91412560D01*
X135492683Y-91456838D01*
X135276559Y-91595910D01*
X135131569Y-91808110D01*
X135128919Y-91821197D01*
X134992090Y-91608559D01*
X134779890Y-91463569D01*
X134528000Y-91412560D01*
X133828000Y-91412560D01*
X133592683Y-91456838D01*
X133376559Y-91595910D01*
X133231569Y-91808110D01*
X133180560Y-92060000D01*
X133180560Y-92424946D01*
X133065520Y-92401650D01*
X132700076Y-92401650D01*
X132710930Y-92348050D01*
X132710930Y-92343750D01*
X132711953Y-92340537D01*
X132710930Y-92334654D01*
X132710930Y-89889346D01*
X157269974Y-89889346D01*
X157284635Y-90778363D01*
X157596640Y-91531610D01*
X157925798Y-91703597D01*
X159332395Y-90297000D01*
X159691605Y-90297000D01*
X161098202Y-91703597D01*
X161427360Y-91531610D01*
X161603742Y-91085099D01*
X161699673Y-91316698D01*
X161878301Y-91495327D01*
X162111690Y-91592000D01*
X164052250Y-91592000D01*
X164211000Y-91433250D01*
X164211000Y-90409000D01*
X164191000Y-90409000D01*
X164191000Y-90155000D01*
X164211000Y-90155000D01*
X164211000Y-89130750D01*
X164052250Y-88972000D01*
X162111690Y-88972000D01*
X161878301Y-89068673D01*
X161699673Y-89247302D01*
X161603000Y-89480691D01*
X161603000Y-89486423D01*
X161427360Y-89062390D01*
X161098202Y-88890403D01*
X159691605Y-90297000D01*
X159332395Y-90297000D01*
X157925798Y-88890403D01*
X157596640Y-89062390D01*
X157269974Y-89889346D01*
X132710930Y-89889346D01*
X132710930Y-88467000D01*
X158232789Y-88467000D01*
X158105403Y-88710798D01*
X158105403Y-88710798D01*
G37*
X158105403Y-88710798D02*
X159512000Y-90117395D01*
X160918597Y-88710798D01*
X160791211Y-88467000D01*
X165914000Y-88467000D01*
X165914000Y-88972000D01*
X164623750Y-88972000D01*
X164465000Y-89130750D01*
X164465000Y-90155000D01*
X164485000Y-90155000D01*
X164485000Y-90409000D01*
X164465000Y-90409000D01*
X164465000Y-91433250D01*
X164623750Y-91592000D01*
X165914000Y-91592000D01*
X165914000Y-92499560D01*
X162738000Y-92499560D01*
X162502683Y-92543838D01*
X162286559Y-92682910D01*
X162141569Y-92895110D01*
X162127618Y-92964000D01*
X161825196Y-92964000D01*
X161824590Y-92963059D01*
X161612390Y-92818069D01*
X161360500Y-92767060D01*
X160560500Y-92767060D01*
X160325183Y-92811338D01*
X160221854Y-92877829D01*
X160220198Y-92876173D01*
X159986809Y-92779500D01*
X159746250Y-92779500D01*
X159587500Y-92938250D01*
X159587500Y-93662500D01*
X159607500Y-93662500D01*
X159607500Y-93916500D01*
X159587500Y-93916500D01*
X159587500Y-94640750D01*
X159746250Y-94799500D01*
X159986809Y-94799500D01*
X160220198Y-94702827D01*
X160221568Y-94701457D01*
X160308610Y-94760931D01*
X160560500Y-94811940D01*
X161360500Y-94811940D01*
X161595817Y-94767662D01*
X161811941Y-94628590D01*
X161821227Y-94615000D01*
X162127816Y-94615000D01*
X162134838Y-94652317D01*
X162273910Y-94868441D01*
X162281761Y-94873805D01*
X162223066Y-94932500D01*
X160274000Y-94932500D01*
X159958095Y-94995337D01*
X159690283Y-95174283D01*
X159511337Y-95442095D01*
X159448500Y-95758000D01*
X159448500Y-95985066D01*
X159322006Y-96111560D01*
X159004000Y-96111560D01*
X159004000Y-94799500D01*
X159174750Y-94799500D01*
X159333500Y-94640750D01*
X159333500Y-93916500D01*
X159313500Y-93916500D01*
X159313500Y-93662500D01*
X159333500Y-93662500D01*
X159333500Y-92938250D01*
X159174750Y-92779500D01*
X158934191Y-92779500D01*
X158700802Y-92876173D01*
X158522173Y-93054801D01*
X158492462Y-93126529D01*
X158447217Y-93081283D01*
X158179406Y-92902337D01*
X157863500Y-92839500D01*
X156236290Y-92839500D01*
X156095890Y-92743569D01*
X155844000Y-92692560D01*
X155602465Y-92692560D01*
X155739327Y-92555699D01*
X155836000Y-92322310D01*
X155836000Y-92106750D01*
X155677250Y-91948000D01*
X154928000Y-91948000D01*
X154928000Y-91968000D01*
X154674000Y-91968000D01*
X154674000Y-91948000D01*
X154654000Y-91948000D01*
X154654000Y-91883202D01*
X158105403Y-91883202D01*
X158277390Y-92212360D01*
X159104346Y-92539026D01*
X159993363Y-92524365D01*
X160746610Y-92212360D01*
X160918597Y-91883202D01*
X159512000Y-90476605D01*
X158105403Y-91883202D01*
X154654000Y-91883202D01*
X154654000Y-91694000D01*
X154674000Y-91694000D01*
X154674000Y-90969750D01*
X154928000Y-90969750D01*
X154928000Y-91694000D01*
X155677250Y-91694000D01*
X155836000Y-91535250D01*
X155836000Y-91319690D01*
X155739327Y-91086301D01*
X155560698Y-90907673D01*
X155327309Y-90811000D01*
X155086750Y-90811000D01*
X154928000Y-90969750D01*
X154674000Y-90969750D01*
X154515250Y-90811000D01*
X154274691Y-90811000D01*
X154041302Y-90907673D01*
X154039932Y-90909043D01*
X153952890Y-90849569D01*
X153701000Y-90798560D01*
X152901000Y-90798560D01*
X152665683Y-90842838D01*
X152474160Y-90966080D01*
X152468269Y-90960179D01*
X152094982Y-90805176D01*
X151690792Y-90804824D01*
X151317234Y-90959175D01*
X151031179Y-91244731D01*
X150876176Y-91618018D01*
X150875824Y-92022208D01*
X150902992Y-92087959D01*
X150743000Y-92055560D01*
X149993000Y-92055560D01*
X149757683Y-92099838D01*
X149541559Y-92238910D01*
X149431494Y-92399995D01*
X149361355Y-92370871D01*
X148957165Y-92370519D01*
X148583607Y-92524870D01*
X148297552Y-92810426D01*
X148142549Y-93183713D01*
X148142197Y-93587903D01*
X148296548Y-93961461D01*
X148582104Y-94247516D01*
X148955391Y-94402519D01*
X149345560Y-94402859D01*
X149345560Y-95003000D01*
X149389838Y-95238317D01*
X149437440Y-95312293D01*
X149396569Y-95372110D01*
X149345560Y-95624000D01*
X149345560Y-96424000D01*
X149389838Y-96659317D01*
X149463620Y-96773978D01*
X149396569Y-96872110D01*
X149345560Y-97124000D01*
X149345560Y-97924000D01*
X149389838Y-98159317D01*
X149528910Y-98375441D01*
X149741110Y-98520431D01*
X149993000Y-98571440D01*
X150743000Y-98571440D01*
X150978317Y-98527162D01*
X151194441Y-98388090D01*
X151236035Y-98327215D01*
X151439906Y-98286663D01*
X151707717Y-98107717D01*
X151782925Y-98032509D01*
X151955157Y-97961344D01*
X152241212Y-97675788D01*
X152396215Y-97302501D01*
X152396567Y-96898311D01*
X152359584Y-96808806D01*
X152470906Y-96786663D01*
X152738717Y-96607717D01*
X152808994Y-96537440D01*
X153224000Y-96537440D01*
X153459317Y-96493162D01*
X153675441Y-96354090D01*
X153765464Y-96222337D01*
X153815824Y-96255987D01*
X153923094Y-96327663D01*
X154228717Y-96388455D01*
X154372110Y-96486431D01*
X154624000Y-96537440D01*
X155844000Y-96537440D01*
X156079317Y-96493162D01*
X156295441Y-96354090D01*
X156440431Y-96141890D01*
X156491440Y-95890000D01*
X156491440Y-95240000D01*
X156465081Y-95099914D01*
X156479000Y-95066310D01*
X156479000Y-94900750D01*
X156320250Y-94742000D01*
X156239949Y-94742000D01*
X156095890Y-94643569D01*
X155958880Y-94615824D01*
X156079317Y-94593162D01*
X156238858Y-94490500D01*
X157353000Y-94490500D01*
X157353000Y-96111560D01*
X156942000Y-96111560D01*
X156706683Y-96155838D01*
X156490559Y-96294910D01*
X156345569Y-96507110D01*
X156294560Y-96759000D01*
X156294560Y-98059000D01*
X156338838Y-98294317D01*
X156477910Y-98510441D01*
X156690110Y-98655431D01*
X156942000Y-98706440D01*
X157642000Y-98706440D01*
X157877317Y-98662162D01*
X158093441Y-98523090D01*
X158238431Y-98310890D01*
X158241081Y-98297803D01*
X158377910Y-98510441D01*
X158590110Y-98655431D01*
X158842000Y-98706440D01*
X159542000Y-98706440D01*
X159777317Y-98662162D01*
X159993441Y-98523090D01*
X160077060Y-98400709D01*
X160077060Y-98622500D01*
X160121338Y-98857817D01*
X160260410Y-99073941D01*
X160274000Y-99083227D01*
X160274000Y-99504500D01*
X160336837Y-99820406D01*
X160515783Y-100088217D01*
X160849422Y-100421855D01*
X160791907Y-100711000D01*
X160904946Y-101279285D01*
X161226853Y-101761054D01*
X161556026Y-101981000D01*
X161226853Y-102200946D01*
X160904946Y-102682715D01*
X160845500Y-102981570D01*
X160845500Y-102154005D01*
X160845501Y-102154000D01*
X160782663Y-101838095D01*
X160731186Y-101761054D01*
X160603717Y-101570283D01*
X160603714Y-101570281D01*
X160418717Y-101385283D01*
X160150906Y-101206337D01*
X159920827Y-101160572D01*
X160050431Y-100970890D01*
X160101440Y-100719000D01*
X160101440Y-100219000D01*
X160057162Y-99983683D01*
X159918090Y-99767559D01*
X159705890Y-99622569D01*
X159454000Y-99571560D01*
X158554000Y-99571560D01*
X158318683Y-99615838D01*
X158102559Y-99754910D01*
X158091907Y-99770500D01*
X158081783Y-99770500D01*
X158065090Y-99744559D01*
X157852890Y-99599569D01*
X157601000Y-99548560D01*
X156851000Y-99548560D01*
X156615683Y-99592838D01*
X156399559Y-99731910D01*
X156254569Y-99944110D01*
X156252376Y-99954942D01*
X156206440Y-99909006D01*
X156206440Y-99880000D01*
X156162162Y-99644683D01*
X156134500Y-99601695D01*
X156134500Y-99284524D01*
X156155431Y-99253890D01*
X156206440Y-99002000D01*
X156206440Y-98102000D01*
X156162162Y-97866683D01*
X156023090Y-97650559D01*
X155810890Y-97505569D01*
X155559000Y-97454560D01*
X155059000Y-97454560D01*
X154823683Y-97498838D01*
X154607559Y-97637910D01*
X154559866Y-97707711D01*
X154523090Y-97650559D01*
X154310890Y-97505569D01*
X154059000Y-97454560D01*
X153559000Y-97454560D01*
X153323683Y-97498838D01*
X153107559Y-97637910D01*
X152962569Y-97850110D01*
X152911560Y-98102000D01*
X152911560Y-99002000D01*
X152955838Y-99237317D01*
X152983500Y-99280305D01*
X152983500Y-99597476D01*
X152962569Y-99628110D01*
X152911560Y-99880000D01*
X152911560Y-100060007D01*
X152324283Y-100647283D01*
X152145337Y-100915094D01*
X152135390Y-100965101D01*
X152111068Y-100965079D01*
X152022406Y-100905837D01*
X152020000Y-100905358D01*
X152020000Y-100901498D01*
X152000592Y-100901498D01*
X151911061Y-100883689D01*
X152020000Y-100774750D01*
X152020000Y-100712190D01*
X151923327Y-100478801D01*
X151744698Y-100300173D01*
X151511309Y-100203500D01*
X150908750Y-100203500D01*
X150750000Y-100362250D01*
X150750000Y-100831060D01*
X150496000Y-100831060D01*
X150496000Y-100362250D01*
X150337250Y-100203500D01*
X149734691Y-100203500D01*
X149501302Y-100300173D01*
X149322673Y-100478801D01*
X149226000Y-100712190D01*
X149226000Y-100774750D01*
X149384750Y-100933500D01*
X149535297Y-100933500D01*
X149409559Y-101014410D01*
X149264569Y-101226610D01*
X149260234Y-101248016D01*
X149226000Y-101282250D01*
X149226000Y-101344810D01*
X149235828Y-101368537D01*
X149213560Y-101478500D01*
X149213560Y-101858500D01*
X149238919Y-101993272D01*
X149213560Y-102118500D01*
X149213560Y-102498500D01*
X149234744Y-102611081D01*
X149226000Y-102632190D01*
X149226000Y-102694750D01*
X149256163Y-102724913D01*
X149257838Y-102733817D01*
X149396910Y-102949941D01*
X149398299Y-102950890D01*
X149264569Y-103146610D01*
X149260234Y-103168016D01*
X149226000Y-103202250D01*
X149226000Y-103264810D01*
X149235828Y-103288537D01*
X149213560Y-103398500D01*
X149213560Y-103778500D01*
X149238919Y-103913272D01*
X149213560Y-104038500D01*
X149213560Y-104418500D01*
X149238919Y-104553272D01*
X149213560Y-104678500D01*
X149213560Y-105058500D01*
X149238919Y-105193272D01*
X149213560Y-105318500D01*
X149213560Y-105698500D01*
X149238919Y-105833272D01*
X149213560Y-105958500D01*
X149213560Y-106338500D01*
X149214412Y-106343027D01*
X149127837Y-106472595D01*
X149065000Y-106788500D01*
X149127837Y-107104405D01*
X149306783Y-107372217D01*
X149562343Y-107542976D01*
X149609110Y-107574931D01*
X149797500Y-107613081D01*
X149797500Y-108000066D01*
X149740006Y-108057560D01*
X149485000Y-108057560D01*
X149249683Y-108101838D01*
X149033559Y-108240910D01*
X148888569Y-108453110D01*
X148844200Y-108672213D01*
X148785269Y-108613179D01*
X148411982Y-108458176D01*
X148307064Y-108458085D01*
X146442440Y-106893525D01*
X146442440Y-106598500D01*
X146421256Y-106485919D01*
X146430000Y-106464810D01*
X146430000Y-106402250D01*
X146399837Y-106372087D01*
X146398162Y-106363183D01*
X146259090Y-106147059D01*
X146257701Y-106146110D01*
X146391431Y-105950390D01*
X146395766Y-105928984D01*
X146430000Y-105894750D01*
X146430000Y-105832190D01*
X146420172Y-105808463D01*
X146442440Y-105698500D01*
X146442440Y-105318500D01*
X146417081Y-105183728D01*
X146442440Y-105058500D01*
X146442440Y-104678500D01*
X146421256Y-104565919D01*
X146430000Y-104544810D01*
X146430000Y-104482250D01*
X146399837Y-104452087D01*
X146398162Y-104443183D01*
X146259090Y-104227059D01*
X146257701Y-104226110D01*
X146391431Y-104030390D01*
X146395766Y-104008984D01*
X146430000Y-103974750D01*
X146430000Y-103912190D01*
X146420172Y-103888463D01*
X146442440Y-103778500D01*
X146442440Y-103398500D01*
X146417081Y-103263728D01*
X146442440Y-103138500D01*
X146442440Y-102758500D01*
X146417081Y-102623728D01*
X146442440Y-102498500D01*
X146442440Y-102118500D01*
X146417081Y-101983728D01*
X146442440Y-101858500D01*
X146442440Y-101478500D01*
X146417081Y-101343728D01*
X146442440Y-101218500D01*
X146442440Y-100838500D01*
X146434204Y-100794730D01*
X147280714Y-99948219D01*
X147280717Y-99948217D01*
X147459663Y-99680405D01*
X147522500Y-99364500D01*
X147522500Y-99246617D01*
X147670691Y-99308000D01*
X147911250Y-99308000D01*
X148070000Y-99149250D01*
X148070000Y-98425000D01*
X148324000Y-98425000D01*
X148324000Y-99149250D01*
X148482750Y-99308000D01*
X148723309Y-99308000D01*
X148956698Y-99211327D01*
X149135327Y-99032699D01*
X149232000Y-98799310D01*
X149232000Y-98583750D01*
X149073250Y-98425000D01*
X148324000Y-98425000D01*
X148070000Y-98425000D01*
X148050000Y-98425000D01*
X148050000Y-98171000D01*
X148070000Y-98171000D01*
X148070000Y-97446750D01*
X148324000Y-97446750D01*
X148324000Y-98171000D01*
X149073250Y-98171000D01*
X149232000Y-98012250D01*
X149232000Y-97796690D01*
X149135327Y-97563301D01*
X148956698Y-97384673D01*
X148723309Y-97288000D01*
X148482750Y-97288000D01*
X148324000Y-97446750D01*
X148070000Y-97446750D01*
X147911250Y-97288000D01*
X147670691Y-97288000D01*
X147437302Y-97384673D01*
X147435932Y-97386043D01*
X147348890Y-97326569D01*
X147097000Y-97275560D01*
X146297000Y-97275560D01*
X146061683Y-97319838D01*
X146006423Y-97355397D01*
X145908698Y-97257673D01*
X145675309Y-97161000D01*
X145434750Y-97161000D01*
X145276000Y-97319750D01*
X145276000Y-98044000D01*
X145296000Y-98044000D01*
X145296000Y-98298000D01*
X145276000Y-98298000D01*
X145276000Y-99022250D01*
X145434750Y-99181000D01*
X145675309Y-99181000D01*
X145739766Y-99154301D01*
X144703006Y-100191060D01*
X144335500Y-100191060D01*
X144335500Y-99116227D01*
X144387646Y-99082671D01*
X144389302Y-99084327D01*
X144622691Y-99181000D01*
X144863250Y-99181000D01*
X145022000Y-99022250D01*
X145022000Y-98298000D01*
X145002000Y-98298000D01*
X145002000Y-98044000D01*
X145022000Y-98044000D01*
X145022000Y-97319750D01*
X144863250Y-97161000D01*
X144622691Y-97161000D01*
X144389302Y-97257673D01*
X144387932Y-97259043D01*
X144300890Y-97199569D01*
X144049000Y-97148560D01*
X143249000Y-97148560D01*
X143219497Y-97154111D01*
X143224431Y-97146890D01*
X143275440Y-96895000D01*
X143275440Y-96145000D01*
X143231162Y-95909683D01*
X143092090Y-95693559D01*
X142879890Y-95548569D01*
X142628000Y-95497560D01*
X141828000Y-95497560D01*
X141592683Y-95541838D01*
X141478022Y-95615620D01*
X141379890Y-95548569D01*
X141128000Y-95497560D01*
X141120509Y-95497560D01*
X141242931Y-95318390D01*
X141293940Y-95066500D01*
X141293940Y-94266500D01*
X141249662Y-94031183D01*
X141183171Y-93927854D01*
X141184827Y-93926198D01*
X141281500Y-93692809D01*
X141281500Y-93452250D01*
X141122750Y-93293500D01*
X140398500Y-93293500D01*
X140398500Y-93313500D01*
X140144500Y-93313500D01*
X140144500Y-93293500D01*
X139420250Y-93293500D01*
X139261500Y-93452250D01*
X139261500Y-93692809D01*
X139296580Y-93777500D01*
X139099525Y-93777500D01*
X139164327Y-93712698D01*
X139261000Y-93479309D01*
X139261000Y-93386750D01*
X139102250Y-93228000D01*
X138303000Y-93228000D01*
X138303000Y-93250000D01*
X138049000Y-93250000D01*
X138049000Y-93228000D01*
X138029000Y-93228000D01*
X138029000Y-92978000D01*
X138049000Y-92978000D01*
X138049000Y-92376750D01*
X138303000Y-92376750D01*
X138303000Y-92978000D01*
X139102250Y-92978000D01*
X139261000Y-92819250D01*
X139261000Y-92726691D01*
X139225171Y-92640191D01*
X139261500Y-92640191D01*
X139261500Y-92880750D01*
X139420250Y-93039500D01*
X140144500Y-93039500D01*
X140144500Y-92290250D01*
X140398500Y-92290250D01*
X140398500Y-93039500D01*
X141122750Y-93039500D01*
X141281500Y-92880750D01*
X141281500Y-92640191D01*
X141184827Y-92406802D01*
X141006199Y-92228173D01*
X140772810Y-92131500D01*
X140557250Y-92131500D01*
X140398500Y-92290250D01*
X140144500Y-92290250D01*
X139985750Y-92131500D01*
X139770190Y-92131500D01*
X139536801Y-92228173D01*
X139358173Y-92406802D01*
X139261500Y-92640191D01*
X139225171Y-92640191D01*
X139164327Y-92493302D01*
X138985699Y-92314673D01*
X138752310Y-92218000D01*
X138461750Y-92218000D01*
X138303000Y-92376750D01*
X138049000Y-92376750D01*
X137890250Y-92218000D01*
X137599690Y-92218000D01*
X137366301Y-92314673D01*
X137210704Y-92470271D01*
X137075440Y-92335006D01*
X137075440Y-92060000D01*
X137031162Y-91824683D01*
X136892090Y-91608559D01*
X136679890Y-91463569D01*
X136428000Y-91412560D01*
X135728000Y-91412560D01*
X135492683Y-91456838D01*
X135276559Y-91595910D01*
X135131569Y-91808110D01*
X135128919Y-91821197D01*
X134992090Y-91608559D01*
X134779890Y-91463569D01*
X134528000Y-91412560D01*
X133828000Y-91412560D01*
X133592683Y-91456838D01*
X133376559Y-91595910D01*
X133231569Y-91808110D01*
X133180560Y-92060000D01*
X133180560Y-92424946D01*
X133065520Y-92401650D01*
X132700076Y-92401650D01*
X132710930Y-92348050D01*
X132710930Y-92343750D01*
X132711953Y-92340537D01*
X132710930Y-92334654D01*
X132710930Y-89889346D01*
X157269974Y-89889346D01*
X157284635Y-90778363D01*
X157596640Y-91531610D01*
X157925798Y-91703597D01*
X159332395Y-90297000D01*
X159691605Y-90297000D01*
X161098202Y-91703597D01*
X161427360Y-91531610D01*
X161603742Y-91085099D01*
X161699673Y-91316698D01*
X161878301Y-91495327D01*
X162111690Y-91592000D01*
X164052250Y-91592000D01*
X164211000Y-91433250D01*
X164211000Y-90409000D01*
X164191000Y-90409000D01*
X164191000Y-90155000D01*
X164211000Y-90155000D01*
X164211000Y-89130750D01*
X164052250Y-88972000D01*
X162111690Y-88972000D01*
X161878301Y-89068673D01*
X161699673Y-89247302D01*
X161603000Y-89480691D01*
X161603000Y-89486423D01*
X161427360Y-89062390D01*
X161098202Y-88890403D01*
X159691605Y-90297000D01*
X159332395Y-90297000D01*
X157925798Y-88890403D01*
X157596640Y-89062390D01*
X157269974Y-89889346D01*
X132710930Y-89889346D01*
X132710930Y-88467000D01*
X158232789Y-88467000D01*
X158105403Y-88710798D01*
G36*
X140217914Y-100894856D02*
X140107302Y-100940673D01*
X139928673Y-101119301D01*
X139832000Y-101352690D01*
X139832000Y-101568250D01*
X139990750Y-101727000D01*
X140740000Y-101727000D01*
X140740000Y-101707000D01*
X140994000Y-101707000D01*
X140994000Y-101727000D01*
X141014000Y-101727000D01*
X141014000Y-101981000D01*
X140994000Y-101981000D01*
X140994000Y-102001000D01*
X140740000Y-102001000D01*
X140740000Y-101981000D01*
X139990750Y-101981000D01*
X139848750Y-102123000D01*
X139255500Y-102123000D01*
X139255500Y-102096957D01*
X139331441Y-102048090D01*
X139476431Y-101835890D01*
X139527440Y-101584000D01*
X139527440Y-101084000D01*
X139505017Y-100964831D01*
X139901208Y-100965176D01*
X140162700Y-100857130D01*
X140217914Y-100894856D01*
X140217914Y-100894856D01*
G37*
X140217914Y-100894856D02*
X140107302Y-100940673D01*
X139928673Y-101119301D01*
X139832000Y-101352690D01*
X139832000Y-101568250D01*
X139990750Y-101727000D01*
X140740000Y-101727000D01*
X140740000Y-101707000D01*
X140994000Y-101707000D01*
X140994000Y-101727000D01*
X141014000Y-101727000D01*
X141014000Y-101981000D01*
X140994000Y-101981000D01*
X140994000Y-102001000D01*
X140740000Y-102001000D01*
X140740000Y-101981000D01*
X139990750Y-101981000D01*
X139848750Y-102123000D01*
X139255500Y-102123000D01*
X139255500Y-102096957D01*
X139331441Y-102048090D01*
X139476431Y-101835890D01*
X139527440Y-101584000D01*
X139527440Y-101084000D01*
X139505017Y-100964831D01*
X139901208Y-100965176D01*
X140162700Y-100857130D01*
X140217914Y-100894856D01*
G36*
X161226500Y-96595500D02*
X161246500Y-96595500D01*
X161246500Y-96849500D01*
X161226500Y-96849500D01*
X161226500Y-96869500D01*
X160972500Y-96869500D01*
X160972500Y-96849500D01*
X160952500Y-96849500D01*
X160952500Y-96768865D01*
X161036663Y-96642906D01*
X161048479Y-96583500D01*
X161226500Y-96583500D01*
X161226500Y-96595500D01*
X161226500Y-96595500D01*
G37*
X161226500Y-96595500D02*
X161246500Y-96595500D01*
X161246500Y-96849500D01*
X161226500Y-96849500D01*
X161226500Y-96869500D01*
X160972500Y-96869500D01*
X160972500Y-96849500D01*
X160952500Y-96849500D01*
X160952500Y-96768865D01*
X161036663Y-96642906D01*
X161048479Y-96583500D01*
X161226500Y-96583500D01*
X161226500Y-96595500D01*
M02*
