G04 #@! TF.FileFunction,Legend,Top*
%FSLAX46Y46*%
G04 Gerber Fmt 4.6, Leading zero omitted, Abs format (unit mm)*
G04 Created by KiCad (PCBNEW 4.0.6) date Friday, June 16, 2017 'PMt' 04:10:38 PM*
%MOMM*%
%LPD*%
G01*
G04 APERTURE LIST*
%ADD10C,0.100000*%
%ADD11C,0.127000*%
%ADD12C,0.150000*%
%ADD13C,0.120000*%
%ADD14C,0.076200*%
%ADD15C,0.101600*%
G04 APERTURE END LIST*
D10*
D11*
X125736048Y-109546571D02*
X125675572Y-109607048D01*
X125494143Y-109667524D01*
X125373191Y-109667524D01*
X125191763Y-109607048D01*
X125070810Y-109486095D01*
X125010334Y-109365143D01*
X124949858Y-109123238D01*
X124949858Y-108941810D01*
X125010334Y-108699905D01*
X125070810Y-108578952D01*
X125191763Y-108458000D01*
X125373191Y-108397524D01*
X125494143Y-108397524D01*
X125675572Y-108458000D01*
X125736048Y-108518476D01*
X126461763Y-109667524D02*
X126340810Y-109607048D01*
X126280334Y-109546571D01*
X126219858Y-109425619D01*
X126219858Y-109062762D01*
X126280334Y-108941810D01*
X126340810Y-108881333D01*
X126461763Y-108820857D01*
X126643191Y-108820857D01*
X126764143Y-108881333D01*
X126824620Y-108941810D01*
X126885096Y-109062762D01*
X126885096Y-109425619D01*
X126824620Y-109546571D01*
X126764143Y-109607048D01*
X126643191Y-109667524D01*
X126461763Y-109667524D01*
X127610811Y-109667524D02*
X127489858Y-109607048D01*
X127429382Y-109486095D01*
X127429382Y-108397524D01*
X128638906Y-108820857D02*
X128638906Y-109667524D01*
X128094620Y-108820857D02*
X128094620Y-109486095D01*
X128155096Y-109607048D01*
X128276049Y-109667524D01*
X128457477Y-109667524D01*
X128578429Y-109607048D01*
X128638906Y-109546571D01*
X129243668Y-109667524D02*
X129243668Y-108820857D01*
X129243668Y-108941810D02*
X129304144Y-108881333D01*
X129425097Y-108820857D01*
X129606525Y-108820857D01*
X129727477Y-108881333D01*
X129787954Y-109002286D01*
X129787954Y-109667524D01*
X129787954Y-109002286D02*
X129848430Y-108881333D01*
X129969382Y-108820857D01*
X130150811Y-108820857D01*
X130271763Y-108881333D01*
X130332239Y-109002286D01*
X130332239Y-109667524D01*
X130937001Y-109667524D02*
X130937001Y-108397524D01*
X130937001Y-108881333D02*
X131057953Y-108820857D01*
X131299858Y-108820857D01*
X131420810Y-108881333D01*
X131481287Y-108941810D01*
X131541763Y-109062762D01*
X131541763Y-109425619D01*
X131481287Y-109546571D01*
X131420810Y-109607048D01*
X131299858Y-109667524D01*
X131057953Y-109667524D01*
X130937001Y-109607048D01*
X132086049Y-109667524D02*
X132086049Y-108820857D01*
X132086049Y-108397524D02*
X132025573Y-108458000D01*
X132086049Y-108518476D01*
X132146525Y-108458000D01*
X132086049Y-108397524D01*
X132086049Y-108518476D01*
X133235097Y-109667524D02*
X133235097Y-109002286D01*
X133174620Y-108881333D01*
X133053668Y-108820857D01*
X132811763Y-108820857D01*
X132690811Y-108881333D01*
X133235097Y-109607048D02*
X133114144Y-109667524D01*
X132811763Y-109667524D01*
X132690811Y-109607048D01*
X132630335Y-109486095D01*
X132630335Y-109365143D01*
X132690811Y-109244190D01*
X132811763Y-109183714D01*
X133114144Y-109183714D01*
X133235097Y-109123238D01*
X134807478Y-108397524D02*
X134807478Y-109425619D01*
X134867954Y-109546571D01*
X134928430Y-109607048D01*
X135049383Y-109667524D01*
X135291287Y-109667524D01*
X135412240Y-109607048D01*
X135472716Y-109546571D01*
X135533192Y-109425619D01*
X135533192Y-108397524D01*
X136137954Y-108820857D02*
X136137954Y-109667524D01*
X136137954Y-108941810D02*
X136198430Y-108881333D01*
X136319383Y-108820857D01*
X136500811Y-108820857D01*
X136621763Y-108881333D01*
X136682240Y-109002286D01*
X136682240Y-109667524D01*
X137287002Y-109667524D02*
X137287002Y-108820857D01*
X137287002Y-108397524D02*
X137226526Y-108458000D01*
X137287002Y-108518476D01*
X137347478Y-108458000D01*
X137287002Y-108397524D01*
X137287002Y-108518476D01*
X137770812Y-108820857D02*
X138073193Y-109667524D01*
X138375573Y-108820857D01*
X139343192Y-109607048D02*
X139222240Y-109667524D01*
X138980335Y-109667524D01*
X138859383Y-109607048D01*
X138798907Y-109486095D01*
X138798907Y-109002286D01*
X138859383Y-108881333D01*
X138980335Y-108820857D01*
X139222240Y-108820857D01*
X139343192Y-108881333D01*
X139403669Y-109002286D01*
X139403669Y-109123238D01*
X138798907Y-109244190D01*
X139947954Y-109667524D02*
X139947954Y-108820857D01*
X139947954Y-109062762D02*
X140008430Y-108941810D01*
X140068906Y-108881333D01*
X140189859Y-108820857D01*
X140310811Y-108820857D01*
X140673668Y-109607048D02*
X140794620Y-109667524D01*
X141036525Y-109667524D01*
X141157477Y-109607048D01*
X141217953Y-109486095D01*
X141217953Y-109425619D01*
X141157477Y-109304667D01*
X141036525Y-109244190D01*
X140855096Y-109244190D01*
X140734144Y-109183714D01*
X140673668Y-109062762D01*
X140673668Y-109002286D01*
X140734144Y-108881333D01*
X140855096Y-108820857D01*
X141036525Y-108820857D01*
X141157477Y-108881333D01*
X141762239Y-109667524D02*
X141762239Y-108820857D01*
X141762239Y-108397524D02*
X141701763Y-108458000D01*
X141762239Y-108518476D01*
X141822715Y-108458000D01*
X141762239Y-108397524D01*
X141762239Y-108518476D01*
X142185572Y-108820857D02*
X142669382Y-108820857D01*
X142367001Y-108397524D02*
X142367001Y-109486095D01*
X142427477Y-109607048D01*
X142548430Y-109667524D01*
X142669382Y-109667524D01*
X142971763Y-108820857D02*
X143274144Y-109667524D01*
X143576524Y-108820857D02*
X143274144Y-109667524D01*
X143153191Y-109969905D01*
X143092715Y-110030381D01*
X142971763Y-110090857D01*
X145027953Y-109183714D02*
X145995572Y-109183714D01*
X148293667Y-109546571D02*
X148233191Y-109607048D01*
X148051762Y-109667524D01*
X147930810Y-109667524D01*
X147749382Y-109607048D01*
X147628429Y-109486095D01*
X147567953Y-109365143D01*
X147507477Y-109123238D01*
X147507477Y-108941810D01*
X147567953Y-108699905D01*
X147628429Y-108578952D01*
X147749382Y-108458000D01*
X147930810Y-108397524D01*
X148051762Y-108397524D01*
X148233191Y-108458000D01*
X148293667Y-108518476D01*
X148837953Y-109667524D02*
X148837953Y-108820857D01*
X148837953Y-109062762D02*
X148898429Y-108941810D01*
X148958905Y-108881333D01*
X149079858Y-108820857D01*
X149200810Y-108820857D01*
X150107952Y-109607048D02*
X149987000Y-109667524D01*
X149745095Y-109667524D01*
X149624143Y-109607048D01*
X149563667Y-109486095D01*
X149563667Y-109002286D01*
X149624143Y-108881333D01*
X149745095Y-108820857D01*
X149987000Y-108820857D01*
X150107952Y-108881333D01*
X150168429Y-109002286D01*
X150168429Y-109123238D01*
X149563667Y-109244190D01*
X151257000Y-109667524D02*
X151257000Y-109002286D01*
X151196523Y-108881333D01*
X151075571Y-108820857D01*
X150833666Y-108820857D01*
X150712714Y-108881333D01*
X151257000Y-109607048D02*
X151136047Y-109667524D01*
X150833666Y-109667524D01*
X150712714Y-109607048D01*
X150652238Y-109486095D01*
X150652238Y-109365143D01*
X150712714Y-109244190D01*
X150833666Y-109183714D01*
X151136047Y-109183714D01*
X151257000Y-109123238D01*
X151680333Y-108820857D02*
X152164143Y-108820857D01*
X151861762Y-108397524D02*
X151861762Y-109486095D01*
X151922238Y-109607048D01*
X152043191Y-109667524D01*
X152164143Y-109667524D01*
X152587476Y-109667524D02*
X152587476Y-108820857D01*
X152587476Y-108397524D02*
X152527000Y-108458000D01*
X152587476Y-108518476D01*
X152647952Y-108458000D01*
X152587476Y-108397524D01*
X152587476Y-108518476D01*
X153071286Y-108820857D02*
X153373667Y-109667524D01*
X153676047Y-108820857D01*
X154643666Y-109607048D02*
X154522714Y-109667524D01*
X154280809Y-109667524D01*
X154159857Y-109607048D01*
X154099381Y-109486095D01*
X154099381Y-109002286D01*
X154159857Y-108881333D01*
X154280809Y-108820857D01*
X154522714Y-108820857D01*
X154643666Y-108881333D01*
X154704143Y-109002286D01*
X154704143Y-109123238D01*
X154099381Y-109244190D01*
X156216047Y-109667524D02*
X156216047Y-108397524D01*
X156639380Y-109304667D01*
X157062714Y-108397524D01*
X157062714Y-109667524D01*
X158211762Y-109667524D02*
X158211762Y-109002286D01*
X158151285Y-108881333D01*
X158030333Y-108820857D01*
X157788428Y-108820857D01*
X157667476Y-108881333D01*
X158211762Y-109607048D02*
X158090809Y-109667524D01*
X157788428Y-109667524D01*
X157667476Y-109607048D01*
X157607000Y-109486095D01*
X157607000Y-109365143D01*
X157667476Y-109244190D01*
X157788428Y-109183714D01*
X158090809Y-109183714D01*
X158211762Y-109123238D01*
X159360810Y-109607048D02*
X159239857Y-109667524D01*
X158997953Y-109667524D01*
X158877000Y-109607048D01*
X158816524Y-109546571D01*
X158756048Y-109425619D01*
X158756048Y-109062762D01*
X158816524Y-108941810D01*
X158877000Y-108881333D01*
X158997953Y-108820857D01*
X159239857Y-108820857D01*
X159360810Y-108881333D01*
X159905095Y-109667524D02*
X159905095Y-108397524D01*
X160449381Y-109667524D02*
X160449381Y-109002286D01*
X160388904Y-108881333D01*
X160267952Y-108820857D01*
X160086524Y-108820857D01*
X159965571Y-108881333D01*
X159905095Y-108941810D01*
X161054143Y-109667524D02*
X161054143Y-108820857D01*
X161054143Y-108397524D02*
X160993667Y-108458000D01*
X161054143Y-108518476D01*
X161114619Y-108458000D01*
X161054143Y-108397524D01*
X161054143Y-108518476D01*
X161658905Y-108820857D02*
X161658905Y-109667524D01*
X161658905Y-108941810D02*
X161719381Y-108881333D01*
X161840334Y-108820857D01*
X162021762Y-108820857D01*
X162142714Y-108881333D01*
X162203191Y-109002286D01*
X162203191Y-109667524D01*
X163291762Y-109607048D02*
X163170810Y-109667524D01*
X162928905Y-109667524D01*
X162807953Y-109607048D01*
X162747477Y-109486095D01*
X162747477Y-109002286D01*
X162807953Y-108881333D01*
X162928905Y-108820857D01*
X163170810Y-108820857D01*
X163291762Y-108881333D01*
X163352239Y-109002286D01*
X163352239Y-109123238D01*
X162747477Y-109244190D01*
X163836048Y-109607048D02*
X163957000Y-109667524D01*
X164198905Y-109667524D01*
X164319857Y-109607048D01*
X164380333Y-109486095D01*
X164380333Y-109425619D01*
X164319857Y-109304667D01*
X164198905Y-109244190D01*
X164017476Y-109244190D01*
X163896524Y-109183714D01*
X163836048Y-109062762D01*
X163836048Y-109002286D01*
X163896524Y-108881333D01*
X164017476Y-108820857D01*
X164198905Y-108820857D01*
X164319857Y-108881333D01*
X166497000Y-109667524D02*
X165892238Y-109667524D01*
X165892238Y-108397524D01*
X167464619Y-109667524D02*
X167464619Y-109002286D01*
X167404142Y-108881333D01*
X167283190Y-108820857D01*
X167041285Y-108820857D01*
X166920333Y-108881333D01*
X167464619Y-109607048D02*
X167343666Y-109667524D01*
X167041285Y-109667524D01*
X166920333Y-109607048D01*
X166859857Y-109486095D01*
X166859857Y-109365143D01*
X166920333Y-109244190D01*
X167041285Y-109183714D01*
X167343666Y-109183714D01*
X167464619Y-109123238D01*
X168069381Y-109667524D02*
X168069381Y-108397524D01*
X168069381Y-108881333D02*
X168190333Y-108820857D01*
X168432238Y-108820857D01*
X168553190Y-108881333D01*
X168613667Y-108941810D01*
X168674143Y-109062762D01*
X168674143Y-109425619D01*
X168613667Y-109546571D01*
X168553190Y-109607048D01*
X168432238Y-109667524D01*
X168190333Y-109667524D01*
X168069381Y-109607048D01*
X140401523Y-110429524D02*
X140401523Y-111336667D01*
X140341047Y-111518095D01*
X140220095Y-111639048D01*
X140038666Y-111699524D01*
X139917714Y-111699524D01*
X141550571Y-110852857D02*
X141550571Y-111699524D01*
X141006285Y-110852857D02*
X141006285Y-111518095D01*
X141066761Y-111639048D01*
X141187714Y-111699524D01*
X141369142Y-111699524D01*
X141490094Y-111639048D01*
X141550571Y-111578571D01*
X142155333Y-110852857D02*
X142155333Y-111699524D01*
X142155333Y-110973810D02*
X142215809Y-110913333D01*
X142336762Y-110852857D01*
X142518190Y-110852857D01*
X142639142Y-110913333D01*
X142699619Y-111034286D01*
X142699619Y-111699524D01*
X143788190Y-111639048D02*
X143667238Y-111699524D01*
X143425333Y-111699524D01*
X143304381Y-111639048D01*
X143243905Y-111518095D01*
X143243905Y-111034286D01*
X143304381Y-110913333D01*
X143425333Y-110852857D01*
X143667238Y-110852857D01*
X143788190Y-110913333D01*
X143848667Y-111034286D01*
X143848667Y-111155238D01*
X143243905Y-111276190D01*
X146025809Y-111699524D02*
X145300095Y-111699524D01*
X145662952Y-111699524D02*
X145662952Y-110429524D01*
X145542000Y-110610952D01*
X145421047Y-110731905D01*
X145300095Y-110792381D01*
X147114381Y-110429524D02*
X146872476Y-110429524D01*
X146751524Y-110490000D01*
X146691047Y-110550476D01*
X146570095Y-110731905D01*
X146509619Y-110973810D01*
X146509619Y-111457619D01*
X146570095Y-111578571D01*
X146630571Y-111639048D01*
X146751524Y-111699524D01*
X146993428Y-111699524D01*
X147114381Y-111639048D01*
X147174857Y-111578571D01*
X147235333Y-111457619D01*
X147235333Y-111155238D01*
X147174857Y-111034286D01*
X147114381Y-110973810D01*
X146993428Y-110913333D01*
X146751524Y-110913333D01*
X146630571Y-110973810D01*
X146570095Y-111034286D01*
X146509619Y-111155238D01*
X147840095Y-111639048D02*
X147840095Y-111699524D01*
X147779619Y-111820476D01*
X147719143Y-111880952D01*
X149291524Y-110550476D02*
X149352000Y-110490000D01*
X149472952Y-110429524D01*
X149775333Y-110429524D01*
X149896286Y-110490000D01*
X149956762Y-110550476D01*
X150017238Y-110671429D01*
X150017238Y-110792381D01*
X149956762Y-110973810D01*
X149231048Y-111699524D01*
X150017238Y-111699524D01*
X150803429Y-110429524D02*
X150924381Y-110429524D01*
X151045333Y-110490000D01*
X151105810Y-110550476D01*
X151166286Y-110671429D01*
X151226762Y-110913333D01*
X151226762Y-111215714D01*
X151166286Y-111457619D01*
X151105810Y-111578571D01*
X151045333Y-111639048D01*
X150924381Y-111699524D01*
X150803429Y-111699524D01*
X150682476Y-111639048D01*
X150622000Y-111578571D01*
X150561524Y-111457619D01*
X150501048Y-111215714D01*
X150501048Y-110913333D01*
X150561524Y-110671429D01*
X150622000Y-110550476D01*
X150682476Y-110490000D01*
X150803429Y-110429524D01*
X152436286Y-111699524D02*
X151710572Y-111699524D01*
X152073429Y-111699524D02*
X152073429Y-110429524D01*
X151952477Y-110610952D01*
X151831524Y-110731905D01*
X151710572Y-110792381D01*
X152859620Y-110429524D02*
X153706286Y-110429524D01*
X153162001Y-111699524D01*
D12*
X135782000Y-63404000D02*
X135782000Y-62204000D01*
X137532000Y-62204000D02*
X137532000Y-63404000D01*
X141259000Y-56992000D02*
X141259000Y-56292000D01*
X142459000Y-56292000D02*
X142459000Y-56992000D01*
X128529080Y-64081660D02*
X128778000Y-63781940D01*
X128778000Y-63781940D02*
X128879600Y-63632080D01*
X128879600Y-63632080D02*
X128879600Y-64480440D01*
X128178560Y-62580520D02*
X128178560Y-64381380D01*
X128178560Y-62580520D02*
X128828800Y-62580520D01*
X132679440Y-62580520D02*
X132679440Y-64381380D01*
X132679440Y-62580520D02*
X132029200Y-62580520D01*
X135012000Y-64951000D02*
X133212000Y-64951000D01*
X133212000Y-64951000D02*
X133212000Y-65351000D01*
X133212000Y-65351000D02*
X135012000Y-65351000D01*
X135012000Y-65351000D02*
X135012000Y-64951000D01*
X128432000Y-78201000D02*
X128432000Y-77501000D01*
X129632000Y-77501000D02*
X129632000Y-78201000D01*
X127416000Y-96870000D02*
X127416000Y-96170000D01*
X128616000Y-96170000D02*
X128616000Y-96870000D01*
X135474000Y-93757000D02*
X135474000Y-94457000D01*
X134274000Y-94457000D02*
X134274000Y-93757000D01*
X143799000Y-84182000D02*
X143799000Y-83482000D01*
X144999000Y-83482000D02*
X144999000Y-84182000D01*
X157261000Y-84031000D02*
X157261000Y-83331000D01*
X158461000Y-83331000D02*
X158461000Y-84031000D01*
X173898000Y-86075000D02*
X173898000Y-85375000D01*
X175098000Y-85375000D02*
X175098000Y-86075000D01*
X170596000Y-80487000D02*
X170596000Y-79787000D01*
X171796000Y-79787000D02*
X171796000Y-80487000D01*
X146781000Y-65497000D02*
X146081000Y-65497000D01*
X146081000Y-64297000D02*
X146781000Y-64297000D01*
X162984000Y-63789000D02*
X163684000Y-63789000D01*
X163684000Y-64989000D02*
X162984000Y-64989000D01*
X146269000Y-67341000D02*
X146269000Y-68041000D01*
X145069000Y-68041000D02*
X145069000Y-67341000D01*
X148047000Y-67341000D02*
X148047000Y-68041000D01*
X146847000Y-68041000D02*
X146847000Y-67341000D01*
X162984000Y-66329000D02*
X163684000Y-66329000D01*
X163684000Y-67529000D02*
X162984000Y-67529000D01*
X158969000Y-70643000D02*
X158969000Y-71343000D01*
X157769000Y-71343000D02*
X157769000Y-70643000D01*
X156683000Y-73195000D02*
X156683000Y-73895000D01*
X155483000Y-73895000D02*
X155483000Y-73195000D01*
X150460000Y-73171000D02*
X150460000Y-73871000D01*
X149260000Y-73871000D02*
X149260000Y-73171000D01*
X154651000Y-73183000D02*
X154651000Y-73883000D01*
X153451000Y-73883000D02*
X153451000Y-73183000D01*
X152308000Y-102954000D02*
X152308000Y-102254000D01*
X153508000Y-102254000D02*
X153508000Y-102954000D01*
X152308000Y-99664000D02*
X152308000Y-98964000D01*
X153508000Y-98964000D02*
X153508000Y-99664000D01*
X161259000Y-97374000D02*
X160559000Y-97374000D01*
X160559000Y-96174000D02*
X161259000Y-96174000D01*
X154086000Y-97390000D02*
X154086000Y-96690000D01*
X155286000Y-96690000D02*
X155286000Y-97390000D01*
X146654000Y-61687000D02*
X145954000Y-61687000D01*
X145954000Y-60487000D02*
X146654000Y-60487000D01*
X145700000Y-58836000D02*
X146400000Y-58836000D01*
X146400000Y-60036000D02*
X145700000Y-60036000D01*
X151984000Y-60356000D02*
X151984000Y-61056000D01*
X150784000Y-61056000D02*
X150784000Y-60356000D01*
X149006000Y-61056000D02*
X149006000Y-60356000D01*
X150206000Y-60356000D02*
X150206000Y-61056000D01*
X143375000Y-60111000D02*
X142375000Y-60111000D01*
X142375000Y-58761000D02*
X143375000Y-58761000D01*
X146804000Y-63794000D02*
X145804000Y-63794000D01*
X145804000Y-62444000D02*
X146804000Y-62444000D01*
X161028000Y-63794000D02*
X160028000Y-63794000D01*
X160028000Y-62444000D02*
X161028000Y-62444000D01*
X161028000Y-68747000D02*
X160028000Y-68747000D01*
X160028000Y-67397000D02*
X161028000Y-67397000D01*
X159726000Y-72001000D02*
X159726000Y-71001000D01*
X161076000Y-71001000D02*
X161076000Y-72001000D01*
X165050038Y-87406340D02*
X163850038Y-87406340D01*
X163850038Y-85656340D02*
X165050038Y-85656340D01*
X163590000Y-90516000D02*
X163590000Y-89316000D01*
X165340000Y-89316000D02*
X165340000Y-90516000D01*
X172071000Y-83071340D02*
X172071000Y-84271340D01*
X170321000Y-84271340D02*
X170321000Y-83071340D01*
X166604000Y-65064000D02*
X165604000Y-65064000D01*
X165604000Y-63714000D02*
X166604000Y-63714000D01*
X172579000Y-89631000D02*
X172579000Y-90831000D01*
X170829000Y-90831000D02*
X170829000Y-89631000D01*
X160028000Y-64095000D02*
X161028000Y-64095000D01*
X161028000Y-65445000D02*
X160028000Y-65445000D01*
X160040000Y-65746000D02*
X161040000Y-65746000D01*
X161040000Y-67096000D02*
X160040000Y-67096000D01*
X166489000Y-67604000D02*
X165489000Y-67604000D01*
X165489000Y-66254000D02*
X166489000Y-66254000D01*
X161509000Y-100062000D02*
X160309000Y-100062000D01*
X160309000Y-98312000D02*
X161509000Y-98312000D01*
X141438000Y-64254000D02*
X141438000Y-63254000D01*
X142788000Y-63254000D02*
X142788000Y-64254000D01*
D13*
X157177000Y-98945124D02*
X155417000Y-98945124D01*
X155417000Y-102015124D02*
X157847000Y-102015124D01*
X150654000Y-71683000D02*
X154654000Y-71683000D01*
X148964000Y-62733000D02*
X154654000Y-62733000D01*
D12*
X171958000Y-63754000D02*
X168148000Y-63754000D01*
X168148000Y-67564000D02*
X168148000Y-63754000D01*
X171958000Y-67564000D02*
X168148000Y-67564000D01*
X171958000Y-63754000D02*
X171958000Y-67564000D01*
D13*
X130141000Y-80501000D02*
X130141000Y-76251000D01*
X132241000Y-80501000D02*
X132241000Y-76251000D01*
X130141000Y-80501000D02*
X132241000Y-80501000D01*
D12*
X136612334Y-65857381D02*
X136279000Y-65381190D01*
X136040905Y-65857381D02*
X136040905Y-64857381D01*
X136421858Y-64857381D01*
X136517096Y-64905000D01*
X136564715Y-64952619D01*
X136612334Y-65047857D01*
X136612334Y-65190714D01*
X136564715Y-65285952D01*
X136517096Y-65333571D01*
X136421858Y-65381190D01*
X136040905Y-65381190D01*
X137564715Y-65857381D02*
X136993286Y-65857381D01*
X137279000Y-65857381D02*
X137279000Y-64857381D01*
X137183762Y-65000238D01*
X137088524Y-65095476D01*
X136993286Y-65143095D01*
X141565334Y-54840143D02*
X141517715Y-54887762D01*
X141374858Y-54935381D01*
X141279620Y-54935381D01*
X141136762Y-54887762D01*
X141041524Y-54792524D01*
X140993905Y-54697286D01*
X140946286Y-54506810D01*
X140946286Y-54363952D01*
X140993905Y-54173476D01*
X141041524Y-54078238D01*
X141136762Y-53983000D01*
X141279620Y-53935381D01*
X141374858Y-53935381D01*
X141517715Y-53983000D01*
X141565334Y-54030619D01*
X142470096Y-53935381D02*
X141993905Y-53935381D01*
X141946286Y-54411571D01*
X141993905Y-54363952D01*
X142089143Y-54316333D01*
X142327239Y-54316333D01*
X142422477Y-54363952D01*
X142470096Y-54411571D01*
X142517715Y-54506810D01*
X142517715Y-54744905D01*
X142470096Y-54840143D01*
X142422477Y-54887762D01*
X142327239Y-54935381D01*
X142089143Y-54935381D01*
X141993905Y-54887762D01*
X141946286Y-54840143D01*
X129616295Y-58332121D02*
X129616295Y-59141645D01*
X129663914Y-59236883D01*
X129711533Y-59284502D01*
X129806771Y-59332121D01*
X129997248Y-59332121D01*
X130092486Y-59284502D01*
X130140105Y-59236883D01*
X130187724Y-59141645D01*
X130187724Y-58332121D01*
X130616295Y-58427359D02*
X130663914Y-58379740D01*
X130759152Y-58332121D01*
X130997248Y-58332121D01*
X131092486Y-58379740D01*
X131140105Y-58427359D01*
X131187724Y-58522597D01*
X131187724Y-58617835D01*
X131140105Y-58760692D01*
X130568676Y-59332121D01*
X131187724Y-59332121D01*
X133648524Y-67417905D02*
X133648524Y-66617905D01*
X133839000Y-66617905D01*
X133953286Y-66656000D01*
X134029477Y-66732190D01*
X134067572Y-66808381D01*
X134105667Y-66960762D01*
X134105667Y-67075048D01*
X134067572Y-67227429D01*
X134029477Y-67303619D01*
X133953286Y-67379810D01*
X133839000Y-67417905D01*
X133648524Y-67417905D01*
X134867572Y-67417905D02*
X134410429Y-67417905D01*
X134639000Y-67417905D02*
X134639000Y-66617905D01*
X134562810Y-66732190D01*
X134486619Y-66808381D01*
X134410429Y-66846476D01*
X126965334Y-78208143D02*
X126917715Y-78255762D01*
X126774858Y-78303381D01*
X126679620Y-78303381D01*
X126536762Y-78255762D01*
X126441524Y-78160524D01*
X126393905Y-78065286D01*
X126346286Y-77874810D01*
X126346286Y-77731952D01*
X126393905Y-77541476D01*
X126441524Y-77446238D01*
X126536762Y-77351000D01*
X126679620Y-77303381D01*
X126774858Y-77303381D01*
X126917715Y-77351000D01*
X126965334Y-77398619D01*
X127346286Y-77398619D02*
X127393905Y-77351000D01*
X127489143Y-77303381D01*
X127727239Y-77303381D01*
X127822477Y-77351000D01*
X127870096Y-77398619D01*
X127917715Y-77493857D01*
X127917715Y-77589095D01*
X127870096Y-77731952D01*
X127298667Y-78303381D01*
X127917715Y-78303381D01*
X127849334Y-94464143D02*
X127801715Y-94511762D01*
X127658858Y-94559381D01*
X127563620Y-94559381D01*
X127420762Y-94511762D01*
X127325524Y-94416524D01*
X127277905Y-94321286D01*
X127230286Y-94130810D01*
X127230286Y-93987952D01*
X127277905Y-93797476D01*
X127325524Y-93702238D01*
X127420762Y-93607000D01*
X127563620Y-93559381D01*
X127658858Y-93559381D01*
X127801715Y-93607000D01*
X127849334Y-93654619D01*
X128182667Y-93559381D02*
X128801715Y-93559381D01*
X128468381Y-93940333D01*
X128611239Y-93940333D01*
X128706477Y-93987952D01*
X128754096Y-94035571D01*
X128801715Y-94130810D01*
X128801715Y-94368905D01*
X128754096Y-94464143D01*
X128706477Y-94511762D01*
X128611239Y-94559381D01*
X128325524Y-94559381D01*
X128230286Y-94511762D01*
X128182667Y-94464143D01*
X134707334Y-91924143D02*
X134659715Y-91971762D01*
X134516858Y-92019381D01*
X134421620Y-92019381D01*
X134278762Y-91971762D01*
X134183524Y-91876524D01*
X134135905Y-91781286D01*
X134088286Y-91590810D01*
X134088286Y-91447952D01*
X134135905Y-91257476D01*
X134183524Y-91162238D01*
X134278762Y-91067000D01*
X134421620Y-91019381D01*
X134516858Y-91019381D01*
X134659715Y-91067000D01*
X134707334Y-91114619D01*
X135564477Y-91352714D02*
X135564477Y-92019381D01*
X135326381Y-90971762D02*
X135088286Y-91686048D01*
X135707334Y-91686048D01*
X144232334Y-82018143D02*
X144184715Y-82065762D01*
X144041858Y-82113381D01*
X143946620Y-82113381D01*
X143803762Y-82065762D01*
X143708524Y-81970524D01*
X143660905Y-81875286D01*
X143613286Y-81684810D01*
X143613286Y-81541952D01*
X143660905Y-81351476D01*
X143708524Y-81256238D01*
X143803762Y-81161000D01*
X143946620Y-81113381D01*
X144041858Y-81113381D01*
X144184715Y-81161000D01*
X144232334Y-81208619D01*
X145089477Y-81113381D02*
X144899000Y-81113381D01*
X144803762Y-81161000D01*
X144756143Y-81208619D01*
X144660905Y-81351476D01*
X144613286Y-81541952D01*
X144613286Y-81922905D01*
X144660905Y-82018143D01*
X144708524Y-82065762D01*
X144803762Y-82113381D01*
X144994239Y-82113381D01*
X145089477Y-82065762D01*
X145137096Y-82018143D01*
X145184715Y-81922905D01*
X145184715Y-81684810D01*
X145137096Y-81589571D01*
X145089477Y-81541952D01*
X144994239Y-81494333D01*
X144803762Y-81494333D01*
X144708524Y-81541952D01*
X144660905Y-81589571D01*
X144613286Y-81684810D01*
X157694334Y-81764143D02*
X157646715Y-81811762D01*
X157503858Y-81859381D01*
X157408620Y-81859381D01*
X157265762Y-81811762D01*
X157170524Y-81716524D01*
X157122905Y-81621286D01*
X157075286Y-81430810D01*
X157075286Y-81287952D01*
X157122905Y-81097476D01*
X157170524Y-81002238D01*
X157265762Y-80907000D01*
X157408620Y-80859381D01*
X157503858Y-80859381D01*
X157646715Y-80907000D01*
X157694334Y-80954619D01*
X158027667Y-80859381D02*
X158694334Y-80859381D01*
X158265762Y-81859381D01*
X174331334Y-88368143D02*
X174283715Y-88415762D01*
X174140858Y-88463381D01*
X174045620Y-88463381D01*
X173902762Y-88415762D01*
X173807524Y-88320524D01*
X173759905Y-88225286D01*
X173712286Y-88034810D01*
X173712286Y-87891952D01*
X173759905Y-87701476D01*
X173807524Y-87606238D01*
X173902762Y-87511000D01*
X174045620Y-87463381D01*
X174140858Y-87463381D01*
X174283715Y-87511000D01*
X174331334Y-87558619D01*
X174902762Y-87891952D02*
X174807524Y-87844333D01*
X174759905Y-87796714D01*
X174712286Y-87701476D01*
X174712286Y-87653857D01*
X174759905Y-87558619D01*
X174807524Y-87511000D01*
X174902762Y-87463381D01*
X175093239Y-87463381D01*
X175188477Y-87511000D01*
X175236096Y-87558619D01*
X175283715Y-87653857D01*
X175283715Y-87701476D01*
X175236096Y-87796714D01*
X175188477Y-87844333D01*
X175093239Y-87891952D01*
X174902762Y-87891952D01*
X174807524Y-87939571D01*
X174759905Y-87987190D01*
X174712286Y-88082429D01*
X174712286Y-88272905D01*
X174759905Y-88368143D01*
X174807524Y-88415762D01*
X174902762Y-88463381D01*
X175093239Y-88463381D01*
X175188477Y-88415762D01*
X175236096Y-88368143D01*
X175283715Y-88272905D01*
X175283715Y-88082429D01*
X175236096Y-87987190D01*
X175188477Y-87939571D01*
X175093239Y-87891952D01*
X171029334Y-78335143D02*
X170981715Y-78382762D01*
X170838858Y-78430381D01*
X170743620Y-78430381D01*
X170600762Y-78382762D01*
X170505524Y-78287524D01*
X170457905Y-78192286D01*
X170410286Y-78001810D01*
X170410286Y-77858952D01*
X170457905Y-77668476D01*
X170505524Y-77573238D01*
X170600762Y-77478000D01*
X170743620Y-77430381D01*
X170838858Y-77430381D01*
X170981715Y-77478000D01*
X171029334Y-77525619D01*
X171505524Y-78430381D02*
X171696000Y-78430381D01*
X171791239Y-78382762D01*
X171838858Y-78335143D01*
X171934096Y-78192286D01*
X171981715Y-78001810D01*
X171981715Y-77620857D01*
X171934096Y-77525619D01*
X171886477Y-77478000D01*
X171791239Y-77430381D01*
X171600762Y-77430381D01*
X171505524Y-77478000D01*
X171457905Y-77525619D01*
X171410286Y-77620857D01*
X171410286Y-77858952D01*
X171457905Y-77954190D01*
X171505524Y-78001810D01*
X171600762Y-78049429D01*
X171791239Y-78049429D01*
X171886477Y-78001810D01*
X171934096Y-77954190D01*
X171981715Y-77858952D01*
D14*
X146866428Y-66094429D02*
X146842238Y-66118619D01*
X146769666Y-66142810D01*
X146721285Y-66142810D01*
X146648714Y-66118619D01*
X146600333Y-66070238D01*
X146576142Y-66021857D01*
X146551952Y-65925095D01*
X146551952Y-65852524D01*
X146576142Y-65755762D01*
X146600333Y-65707381D01*
X146648714Y-65659000D01*
X146721285Y-65634810D01*
X146769666Y-65634810D01*
X146842238Y-65659000D01*
X146866428Y-65683190D01*
X147350238Y-66142810D02*
X147059952Y-66142810D01*
X147205095Y-66142810D02*
X147205095Y-65634810D01*
X147156714Y-65707381D01*
X147108333Y-65755762D01*
X147059952Y-65779952D01*
X147834048Y-66142810D02*
X147543762Y-66142810D01*
X147688905Y-66142810D02*
X147688905Y-65634810D01*
X147640524Y-65707381D01*
X147592143Y-65755762D01*
X147543762Y-65779952D01*
X163630428Y-63554429D02*
X163606238Y-63578619D01*
X163533666Y-63602810D01*
X163485285Y-63602810D01*
X163412714Y-63578619D01*
X163364333Y-63530238D01*
X163340142Y-63481857D01*
X163315952Y-63385095D01*
X163315952Y-63312524D01*
X163340142Y-63215762D01*
X163364333Y-63167381D01*
X163412714Y-63119000D01*
X163485285Y-63094810D01*
X163533666Y-63094810D01*
X163606238Y-63119000D01*
X163630428Y-63143190D01*
X164114238Y-63602810D02*
X163823952Y-63602810D01*
X163969095Y-63602810D02*
X163969095Y-63094810D01*
X163920714Y-63167381D01*
X163872333Y-63215762D01*
X163823952Y-63239952D01*
X164307762Y-63143190D02*
X164331952Y-63119000D01*
X164380333Y-63094810D01*
X164501286Y-63094810D01*
X164549667Y-63119000D01*
X164573857Y-63143190D01*
X164598048Y-63191571D01*
X164598048Y-63239952D01*
X164573857Y-63312524D01*
X164283571Y-63602810D01*
X164598048Y-63602810D01*
D15*
X143147143Y-67963143D02*
X143110857Y-67999429D01*
X143002000Y-68035714D01*
X142929429Y-68035714D01*
X142820572Y-67999429D01*
X142748000Y-67926857D01*
X142711715Y-67854286D01*
X142675429Y-67709143D01*
X142675429Y-67600286D01*
X142711715Y-67455143D01*
X142748000Y-67382571D01*
X142820572Y-67310000D01*
X142929429Y-67273714D01*
X143002000Y-67273714D01*
X143110857Y-67310000D01*
X143147143Y-67346286D01*
X143872857Y-68035714D02*
X143437429Y-68035714D01*
X143655143Y-68035714D02*
X143655143Y-67273714D01*
X143582572Y-67382571D01*
X143510000Y-67455143D01*
X143437429Y-67491429D01*
X144126857Y-67273714D02*
X144598571Y-67273714D01*
X144344571Y-67564000D01*
X144453429Y-67564000D01*
X144526000Y-67600286D01*
X144562286Y-67636571D01*
X144598571Y-67709143D01*
X144598571Y-67890571D01*
X144562286Y-67963143D01*
X144526000Y-67999429D01*
X144453429Y-68035714D01*
X144235714Y-68035714D01*
X144163143Y-67999429D01*
X144126857Y-67963143D01*
X146830143Y-69995143D02*
X146793857Y-70031429D01*
X146685000Y-70067714D01*
X146612429Y-70067714D01*
X146503572Y-70031429D01*
X146431000Y-69958857D01*
X146394715Y-69886286D01*
X146358429Y-69741143D01*
X146358429Y-69632286D01*
X146394715Y-69487143D01*
X146431000Y-69414571D01*
X146503572Y-69342000D01*
X146612429Y-69305714D01*
X146685000Y-69305714D01*
X146793857Y-69342000D01*
X146830143Y-69378286D01*
X147555857Y-70067714D02*
X147120429Y-70067714D01*
X147338143Y-70067714D02*
X147338143Y-69305714D01*
X147265572Y-69414571D01*
X147193000Y-69487143D01*
X147120429Y-69523429D01*
X148209000Y-69559714D02*
X148209000Y-70067714D01*
X148027571Y-69269429D02*
X147846143Y-69813714D01*
X148317857Y-69813714D01*
D14*
X162995428Y-65967429D02*
X162971238Y-65991619D01*
X162898666Y-66015810D01*
X162850285Y-66015810D01*
X162777714Y-65991619D01*
X162729333Y-65943238D01*
X162705142Y-65894857D01*
X162680952Y-65798095D01*
X162680952Y-65725524D01*
X162705142Y-65628762D01*
X162729333Y-65580381D01*
X162777714Y-65532000D01*
X162850285Y-65507810D01*
X162898666Y-65507810D01*
X162971238Y-65532000D01*
X162995428Y-65556190D01*
X163479238Y-66015810D02*
X163188952Y-66015810D01*
X163334095Y-66015810D02*
X163334095Y-65507810D01*
X163285714Y-65580381D01*
X163237333Y-65628762D01*
X163188952Y-65652952D01*
X163938857Y-65507810D02*
X163696952Y-65507810D01*
X163672762Y-65749714D01*
X163696952Y-65725524D01*
X163745333Y-65701333D01*
X163866286Y-65701333D01*
X163914667Y-65725524D01*
X163938857Y-65749714D01*
X163963048Y-65798095D01*
X163963048Y-65919048D01*
X163938857Y-65967429D01*
X163914667Y-65991619D01*
X163866286Y-66015810D01*
X163745333Y-66015810D01*
X163696952Y-65991619D01*
X163672762Y-65967429D01*
D15*
X157879143Y-73297143D02*
X157842857Y-73333429D01*
X157734000Y-73369714D01*
X157661429Y-73369714D01*
X157552572Y-73333429D01*
X157480000Y-73260857D01*
X157443715Y-73188286D01*
X157407429Y-73043143D01*
X157407429Y-72934286D01*
X157443715Y-72789143D01*
X157480000Y-72716571D01*
X157552572Y-72644000D01*
X157661429Y-72607714D01*
X157734000Y-72607714D01*
X157842857Y-72644000D01*
X157879143Y-72680286D01*
X158604857Y-73369714D02*
X158169429Y-73369714D01*
X158387143Y-73369714D02*
X158387143Y-72607714D01*
X158314572Y-72716571D01*
X158242000Y-72789143D01*
X158169429Y-72825429D01*
X159258000Y-72607714D02*
X159112857Y-72607714D01*
X159040286Y-72644000D01*
X159004000Y-72680286D01*
X158931429Y-72789143D01*
X158895143Y-72934286D01*
X158895143Y-73224571D01*
X158931429Y-73297143D01*
X158967714Y-73333429D01*
X159040286Y-73369714D01*
X159185429Y-73369714D01*
X159258000Y-73333429D01*
X159294286Y-73297143D01*
X159330571Y-73224571D01*
X159330571Y-73043143D01*
X159294286Y-72970571D01*
X159258000Y-72934286D01*
X159185429Y-72898000D01*
X159040286Y-72898000D01*
X158967714Y-72934286D01*
X158931429Y-72970571D01*
X158895143Y-73043143D01*
X155847143Y-75964143D02*
X155810857Y-76000429D01*
X155702000Y-76036714D01*
X155629429Y-76036714D01*
X155520572Y-76000429D01*
X155448000Y-75927857D01*
X155411715Y-75855286D01*
X155375429Y-75710143D01*
X155375429Y-75601286D01*
X155411715Y-75456143D01*
X155448000Y-75383571D01*
X155520572Y-75311000D01*
X155629429Y-75274714D01*
X155702000Y-75274714D01*
X155810857Y-75311000D01*
X155847143Y-75347286D01*
X156572857Y-76036714D02*
X156137429Y-76036714D01*
X156355143Y-76036714D02*
X156355143Y-75274714D01*
X156282572Y-75383571D01*
X156210000Y-75456143D01*
X156137429Y-75492429D01*
X156826857Y-75274714D02*
X157334857Y-75274714D01*
X157008286Y-76036714D01*
D12*
X149344143Y-76176143D02*
X149296524Y-76223762D01*
X149153667Y-76271381D01*
X149058429Y-76271381D01*
X148915571Y-76223762D01*
X148820333Y-76128524D01*
X148772714Y-76033286D01*
X148725095Y-75842810D01*
X148725095Y-75699952D01*
X148772714Y-75509476D01*
X148820333Y-75414238D01*
X148915571Y-75319000D01*
X149058429Y-75271381D01*
X149153667Y-75271381D01*
X149296524Y-75319000D01*
X149344143Y-75366619D01*
X150296524Y-76271381D02*
X149725095Y-76271381D01*
X150010809Y-76271381D02*
X150010809Y-75271381D01*
X149915571Y-75414238D01*
X149820333Y-75509476D01*
X149725095Y-75557095D01*
X150867952Y-75699952D02*
X150772714Y-75652333D01*
X150725095Y-75604714D01*
X150677476Y-75509476D01*
X150677476Y-75461857D01*
X150725095Y-75366619D01*
X150772714Y-75319000D01*
X150867952Y-75271381D01*
X151058429Y-75271381D01*
X151153667Y-75319000D01*
X151201286Y-75366619D01*
X151248905Y-75461857D01*
X151248905Y-75509476D01*
X151201286Y-75604714D01*
X151153667Y-75652333D01*
X151058429Y-75699952D01*
X150867952Y-75699952D01*
X150772714Y-75747571D01*
X150725095Y-75795190D01*
X150677476Y-75890429D01*
X150677476Y-76080905D01*
X150725095Y-76176143D01*
X150772714Y-76223762D01*
X150867952Y-76271381D01*
X151058429Y-76271381D01*
X151153667Y-76223762D01*
X151201286Y-76176143D01*
X151248905Y-76080905D01*
X151248905Y-75890429D01*
X151201286Y-75795190D01*
X151153667Y-75747571D01*
X151058429Y-75699952D01*
D15*
X153180143Y-75964143D02*
X153143857Y-76000429D01*
X153035000Y-76036714D01*
X152962429Y-76036714D01*
X152853572Y-76000429D01*
X152781000Y-75927857D01*
X152744715Y-75855286D01*
X152708429Y-75710143D01*
X152708429Y-75601286D01*
X152744715Y-75456143D01*
X152781000Y-75383571D01*
X152853572Y-75311000D01*
X152962429Y-75274714D01*
X153035000Y-75274714D01*
X153143857Y-75311000D01*
X153180143Y-75347286D01*
X153905857Y-76036714D02*
X153470429Y-76036714D01*
X153688143Y-76036714D02*
X153688143Y-75274714D01*
X153615572Y-75383571D01*
X153543000Y-75456143D01*
X153470429Y-75492429D01*
X154268714Y-76036714D02*
X154413857Y-76036714D01*
X154486429Y-76000429D01*
X154522714Y-75964143D01*
X154595286Y-75855286D01*
X154631571Y-75710143D01*
X154631571Y-75419857D01*
X154595286Y-75347286D01*
X154559000Y-75311000D01*
X154486429Y-75274714D01*
X154341286Y-75274714D01*
X154268714Y-75311000D01*
X154232429Y-75347286D01*
X154196143Y-75419857D01*
X154196143Y-75601286D01*
X154232429Y-75673857D01*
X154268714Y-75710143D01*
X154341286Y-75746429D01*
X154486429Y-75746429D01*
X154559000Y-75710143D01*
X154595286Y-75673857D01*
X154631571Y-75601286D01*
D12*
X149852143Y-103100143D02*
X149804524Y-103147762D01*
X149661667Y-103195381D01*
X149566429Y-103195381D01*
X149423571Y-103147762D01*
X149328333Y-103052524D01*
X149280714Y-102957286D01*
X149233095Y-102766810D01*
X149233095Y-102623952D01*
X149280714Y-102433476D01*
X149328333Y-102338238D01*
X149423571Y-102243000D01*
X149566429Y-102195381D01*
X149661667Y-102195381D01*
X149804524Y-102243000D01*
X149852143Y-102290619D01*
X150233095Y-102290619D02*
X150280714Y-102243000D01*
X150375952Y-102195381D01*
X150614048Y-102195381D01*
X150709286Y-102243000D01*
X150756905Y-102290619D01*
X150804524Y-102385857D01*
X150804524Y-102481095D01*
X150756905Y-102623952D01*
X150185476Y-103195381D01*
X150804524Y-103195381D01*
X151423571Y-102195381D02*
X151518810Y-102195381D01*
X151614048Y-102243000D01*
X151661667Y-102290619D01*
X151709286Y-102385857D01*
X151756905Y-102576333D01*
X151756905Y-102814429D01*
X151709286Y-103004905D01*
X151661667Y-103100143D01*
X151614048Y-103147762D01*
X151518810Y-103195381D01*
X151423571Y-103195381D01*
X151328333Y-103147762D01*
X151280714Y-103100143D01*
X151233095Y-103004905D01*
X151185476Y-102814429D01*
X151185476Y-102576333D01*
X151233095Y-102385857D01*
X151280714Y-102290619D01*
X151328333Y-102243000D01*
X151423571Y-102195381D01*
X149979143Y-99798143D02*
X149931524Y-99845762D01*
X149788667Y-99893381D01*
X149693429Y-99893381D01*
X149550571Y-99845762D01*
X149455333Y-99750524D01*
X149407714Y-99655286D01*
X149360095Y-99464810D01*
X149360095Y-99321952D01*
X149407714Y-99131476D01*
X149455333Y-99036238D01*
X149550571Y-98941000D01*
X149693429Y-98893381D01*
X149788667Y-98893381D01*
X149931524Y-98941000D01*
X149979143Y-98988619D01*
X150360095Y-98988619D02*
X150407714Y-98941000D01*
X150502952Y-98893381D01*
X150741048Y-98893381D01*
X150836286Y-98941000D01*
X150883905Y-98988619D01*
X150931524Y-99083857D01*
X150931524Y-99179095D01*
X150883905Y-99321952D01*
X150312476Y-99893381D01*
X150931524Y-99893381D01*
X151883905Y-99893381D02*
X151312476Y-99893381D01*
X151598190Y-99893381D02*
X151598190Y-98893381D01*
X151502952Y-99036238D01*
X151407714Y-99131476D01*
X151312476Y-99179095D01*
X160266143Y-95607143D02*
X160218524Y-95654762D01*
X160075667Y-95702381D01*
X159980429Y-95702381D01*
X159837571Y-95654762D01*
X159742333Y-95559524D01*
X159694714Y-95464286D01*
X159647095Y-95273810D01*
X159647095Y-95130952D01*
X159694714Y-94940476D01*
X159742333Y-94845238D01*
X159837571Y-94750000D01*
X159980429Y-94702381D01*
X160075667Y-94702381D01*
X160218524Y-94750000D01*
X160266143Y-94797619D01*
X160647095Y-94797619D02*
X160694714Y-94750000D01*
X160789952Y-94702381D01*
X161028048Y-94702381D01*
X161123286Y-94750000D01*
X161170905Y-94797619D01*
X161218524Y-94892857D01*
X161218524Y-94988095D01*
X161170905Y-95130952D01*
X160599476Y-95702381D01*
X161218524Y-95702381D01*
X161599476Y-94797619D02*
X161647095Y-94750000D01*
X161742333Y-94702381D01*
X161980429Y-94702381D01*
X162075667Y-94750000D01*
X162123286Y-94797619D01*
X162170905Y-94892857D01*
X162170905Y-94988095D01*
X162123286Y-95130952D01*
X161551857Y-95702381D01*
X162170905Y-95702381D01*
X152011143Y-97131143D02*
X151963524Y-97178762D01*
X151820667Y-97226381D01*
X151725429Y-97226381D01*
X151582571Y-97178762D01*
X151487333Y-97083524D01*
X151439714Y-96988286D01*
X151392095Y-96797810D01*
X151392095Y-96654952D01*
X151439714Y-96464476D01*
X151487333Y-96369238D01*
X151582571Y-96274000D01*
X151725429Y-96226381D01*
X151820667Y-96226381D01*
X151963524Y-96274000D01*
X152011143Y-96321619D01*
X152392095Y-96321619D02*
X152439714Y-96274000D01*
X152534952Y-96226381D01*
X152773048Y-96226381D01*
X152868286Y-96274000D01*
X152915905Y-96321619D01*
X152963524Y-96416857D01*
X152963524Y-96512095D01*
X152915905Y-96654952D01*
X152344476Y-97226381D01*
X152963524Y-97226381D01*
X153296857Y-96226381D02*
X153915905Y-96226381D01*
X153582571Y-96607333D01*
X153725429Y-96607333D01*
X153820667Y-96654952D01*
X153868286Y-96702571D01*
X153915905Y-96797810D01*
X153915905Y-97035905D01*
X153868286Y-97131143D01*
X153820667Y-97178762D01*
X153725429Y-97226381D01*
X153439714Y-97226381D01*
X153344476Y-97178762D01*
X153296857Y-97131143D01*
D14*
X143334619Y-61268429D02*
X143310429Y-61292619D01*
X143237857Y-61316810D01*
X143189476Y-61316810D01*
X143116905Y-61292619D01*
X143068524Y-61244238D01*
X143044333Y-61195857D01*
X143020143Y-61099095D01*
X143020143Y-61026524D01*
X143044333Y-60929762D01*
X143068524Y-60881381D01*
X143116905Y-60833000D01*
X143189476Y-60808810D01*
X143237857Y-60808810D01*
X143310429Y-60833000D01*
X143334619Y-60857190D01*
X143721667Y-61050714D02*
X143552333Y-61050714D01*
X143552333Y-61316810D02*
X143552333Y-60808810D01*
X143794238Y-60808810D01*
X144157096Y-61050714D02*
X144229667Y-61074905D01*
X144253858Y-61099095D01*
X144278048Y-61147476D01*
X144278048Y-61220048D01*
X144253858Y-61268429D01*
X144229667Y-61292619D01*
X144181286Y-61316810D01*
X143987762Y-61316810D01*
X143987762Y-60808810D01*
X144157096Y-60808810D01*
X144205477Y-60833000D01*
X144229667Y-60857190D01*
X144253858Y-60905571D01*
X144253858Y-60953952D01*
X144229667Y-61002333D01*
X144205477Y-61026524D01*
X144157096Y-61050714D01*
X143987762Y-61050714D01*
X144761858Y-61316810D02*
X144471572Y-61316810D01*
X144616715Y-61316810D02*
X144616715Y-60808810D01*
X144568334Y-60881381D01*
X144519953Y-60929762D01*
X144471572Y-60953952D01*
X145566191Y-58474429D02*
X145542001Y-58498619D01*
X145469429Y-58522810D01*
X145421048Y-58522810D01*
X145348477Y-58498619D01*
X145300096Y-58450238D01*
X145275905Y-58401857D01*
X145251715Y-58305095D01*
X145251715Y-58232524D01*
X145275905Y-58135762D01*
X145300096Y-58087381D01*
X145348477Y-58039000D01*
X145421048Y-58014810D01*
X145469429Y-58014810D01*
X145542001Y-58039000D01*
X145566191Y-58063190D01*
X145783905Y-58522810D02*
X145783905Y-58014810D01*
X146025810Y-58522810D02*
X146025810Y-58014810D01*
X146316096Y-58522810D01*
X146316096Y-58014810D01*
X146558000Y-58522810D02*
X146558000Y-58014810D01*
X146558000Y-58256714D02*
X146848286Y-58256714D01*
X146848286Y-58522810D02*
X146848286Y-58014810D01*
X147356286Y-58522810D02*
X147066000Y-58522810D01*
X147211143Y-58522810D02*
X147211143Y-58014810D01*
X147162762Y-58087381D01*
X147114381Y-58135762D01*
X147066000Y-58159952D01*
X152708429Y-59998429D02*
X152684239Y-60022619D01*
X152611667Y-60046810D01*
X152563286Y-60046810D01*
X152490715Y-60022619D01*
X152442334Y-59974238D01*
X152418143Y-59925857D01*
X152393953Y-59829095D01*
X152393953Y-59756524D01*
X152418143Y-59659762D01*
X152442334Y-59611381D01*
X152490715Y-59563000D01*
X152563286Y-59538810D01*
X152611667Y-59538810D01*
X152684239Y-59563000D01*
X152708429Y-59587190D01*
X153168048Y-60046810D02*
X152926143Y-60046810D01*
X152926143Y-59538810D01*
X153337381Y-60046810D02*
X153337381Y-59538810D01*
X153506715Y-59901667D01*
X153676048Y-59538810D01*
X153676048Y-60046810D01*
X153917952Y-60046810D02*
X153917952Y-59538810D01*
X154038905Y-59538810D01*
X154111476Y-59563000D01*
X154159857Y-59611381D01*
X154184048Y-59659762D01*
X154208238Y-59756524D01*
X154208238Y-59829095D01*
X154184048Y-59925857D01*
X154159857Y-59974238D01*
X154111476Y-60022619D01*
X154038905Y-60046810D01*
X153917952Y-60046810D01*
X154692048Y-60046810D02*
X154401762Y-60046810D01*
X154546905Y-60046810D02*
X154546905Y-59538810D01*
X154498524Y-59611381D01*
X154450143Y-59659762D01*
X154401762Y-59683952D01*
X148251333Y-59109429D02*
X148227143Y-59133619D01*
X148154571Y-59157810D01*
X148106190Y-59157810D01*
X148033619Y-59133619D01*
X147985238Y-59085238D01*
X147961047Y-59036857D01*
X147936857Y-58940095D01*
X147936857Y-58867524D01*
X147961047Y-58770762D01*
X147985238Y-58722381D01*
X148033619Y-58674000D01*
X148106190Y-58649810D01*
X148154571Y-58649810D01*
X148227143Y-58674000D01*
X148251333Y-58698190D01*
X148444857Y-59133619D02*
X148517428Y-59157810D01*
X148638381Y-59157810D01*
X148686762Y-59133619D01*
X148710952Y-59109429D01*
X148735143Y-59061048D01*
X148735143Y-59012667D01*
X148710952Y-58964286D01*
X148686762Y-58940095D01*
X148638381Y-58915905D01*
X148541619Y-58891714D01*
X148493238Y-58867524D01*
X148469047Y-58843333D01*
X148444857Y-58794952D01*
X148444857Y-58746571D01*
X148469047Y-58698190D01*
X148493238Y-58674000D01*
X148541619Y-58649810D01*
X148662571Y-58649810D01*
X148735143Y-58674000D01*
X148952857Y-59157810D02*
X148952857Y-58649810D01*
X148952857Y-58891714D02*
X149243143Y-58891714D01*
X149243143Y-59157810D02*
X149243143Y-58649810D01*
X149751143Y-59157810D02*
X149460857Y-59157810D01*
X149606000Y-59157810D02*
X149606000Y-58649810D01*
X149557619Y-58722381D01*
X149509238Y-58770762D01*
X149460857Y-58794952D01*
D12*
X140295334Y-60015381D02*
X139819143Y-60015381D01*
X139819143Y-59015381D01*
X140581048Y-59110619D02*
X140628667Y-59063000D01*
X140723905Y-59015381D01*
X140962001Y-59015381D01*
X141057239Y-59063000D01*
X141104858Y-59110619D01*
X141152477Y-59205857D01*
X141152477Y-59301095D01*
X141104858Y-59443952D01*
X140533429Y-60015381D01*
X141152477Y-60015381D01*
D14*
X147997333Y-63348810D02*
X147755428Y-63348810D01*
X147755428Y-62840810D01*
X148118285Y-62840810D02*
X148432762Y-62840810D01*
X148263428Y-63034333D01*
X148336000Y-63034333D01*
X148384381Y-63058524D01*
X148408571Y-63082714D01*
X148432762Y-63131095D01*
X148432762Y-63252048D01*
X148408571Y-63300429D01*
X148384381Y-63324619D01*
X148336000Y-63348810D01*
X148190857Y-63348810D01*
X148142476Y-63324619D01*
X148118285Y-63300429D01*
X158526333Y-63348810D02*
X158284428Y-63348810D01*
X158284428Y-62840810D01*
X158913381Y-63010143D02*
X158913381Y-63348810D01*
X158792428Y-62816619D02*
X158671476Y-63179476D01*
X158985952Y-63179476D01*
X158526333Y-68428810D02*
X158284428Y-68428810D01*
X158284428Y-67920810D01*
X158937571Y-67920810D02*
X158695666Y-67920810D01*
X158671476Y-68162714D01*
X158695666Y-68138524D01*
X158744047Y-68114333D01*
X158865000Y-68114333D01*
X158913381Y-68138524D01*
X158937571Y-68162714D01*
X158961762Y-68211095D01*
X158961762Y-68332048D01*
X158937571Y-68380429D01*
X158913381Y-68404619D01*
X158865000Y-68428810D01*
X158744047Y-68428810D01*
X158695666Y-68404619D01*
X158671476Y-68380429D01*
D15*
X160274001Y-73877714D02*
X159911144Y-73877714D01*
X159911144Y-73115714D01*
X160854572Y-73115714D02*
X160709429Y-73115714D01*
X160636858Y-73152000D01*
X160600572Y-73188286D01*
X160528001Y-73297143D01*
X160491715Y-73442286D01*
X160491715Y-73732571D01*
X160528001Y-73805143D01*
X160564286Y-73841429D01*
X160636858Y-73877714D01*
X160782001Y-73877714D01*
X160854572Y-73841429D01*
X160890858Y-73805143D01*
X160927143Y-73732571D01*
X160927143Y-73551143D01*
X160890858Y-73478571D01*
X160854572Y-73442286D01*
X160782001Y-73406000D01*
X160636858Y-73406000D01*
X160564286Y-73442286D01*
X160528001Y-73478571D01*
X160491715Y-73551143D01*
D12*
X164283372Y-84883721D02*
X163950038Y-84407530D01*
X163711943Y-84883721D02*
X163711943Y-83883721D01*
X164092896Y-83883721D01*
X164188134Y-83931340D01*
X164235753Y-83978959D01*
X164283372Y-84074197D01*
X164283372Y-84217054D01*
X164235753Y-84312292D01*
X164188134Y-84359911D01*
X164092896Y-84407530D01*
X163711943Y-84407530D01*
X164616705Y-83883721D02*
X165235753Y-83883721D01*
X164902419Y-84264673D01*
X165045277Y-84264673D01*
X165140515Y-84312292D01*
X165188134Y-84359911D01*
X165235753Y-84455150D01*
X165235753Y-84693245D01*
X165188134Y-84788483D01*
X165140515Y-84836102D01*
X165045277Y-84883721D01*
X164759562Y-84883721D01*
X164664324Y-84836102D01*
X164616705Y-84788483D01*
X164298334Y-92654381D02*
X163965000Y-92178190D01*
X163726905Y-92654381D02*
X163726905Y-91654381D01*
X164107858Y-91654381D01*
X164203096Y-91702000D01*
X164250715Y-91749619D01*
X164298334Y-91844857D01*
X164298334Y-91987714D01*
X164250715Y-92082952D01*
X164203096Y-92130571D01*
X164107858Y-92178190D01*
X163726905Y-92178190D01*
X165155477Y-91987714D02*
X165155477Y-92654381D01*
X164917381Y-91606762D02*
X164679286Y-92321048D01*
X165298334Y-92321048D01*
X171029334Y-86558381D02*
X170696000Y-86082190D01*
X170457905Y-86558381D02*
X170457905Y-85558381D01*
X170838858Y-85558381D01*
X170934096Y-85606000D01*
X170981715Y-85653619D01*
X171029334Y-85748857D01*
X171029334Y-85891714D01*
X170981715Y-85986952D01*
X170934096Y-86034571D01*
X170838858Y-86082190D01*
X170457905Y-86082190D01*
X171934096Y-85558381D02*
X171457905Y-85558381D01*
X171410286Y-86034571D01*
X171457905Y-85986952D01*
X171553143Y-85939333D01*
X171791239Y-85939333D01*
X171886477Y-85986952D01*
X171934096Y-86034571D01*
X171981715Y-86129810D01*
X171981715Y-86367905D01*
X171934096Y-86463143D01*
X171886477Y-86510762D01*
X171791239Y-86558381D01*
X171553143Y-86558381D01*
X171457905Y-86510762D01*
X171410286Y-86463143D01*
D14*
X166019333Y-63475810D02*
X165850000Y-63233905D01*
X165729047Y-63475810D02*
X165729047Y-62967810D01*
X165922571Y-62967810D01*
X165970952Y-62992000D01*
X165995143Y-63016190D01*
X166019333Y-63064571D01*
X166019333Y-63137143D01*
X165995143Y-63185524D01*
X165970952Y-63209714D01*
X165922571Y-63233905D01*
X165729047Y-63233905D01*
X166454762Y-62967810D02*
X166358000Y-62967810D01*
X166309619Y-62992000D01*
X166285428Y-63016190D01*
X166237047Y-63088762D01*
X166212857Y-63185524D01*
X166212857Y-63379048D01*
X166237047Y-63427429D01*
X166261238Y-63451619D01*
X166309619Y-63475810D01*
X166406381Y-63475810D01*
X166454762Y-63451619D01*
X166478952Y-63427429D01*
X166503143Y-63379048D01*
X166503143Y-63258095D01*
X166478952Y-63209714D01*
X166454762Y-63185524D01*
X166406381Y-63161333D01*
X166309619Y-63161333D01*
X166261238Y-63185524D01*
X166237047Y-63209714D01*
X166212857Y-63258095D01*
D12*
X171537334Y-93035381D02*
X171204000Y-92559190D01*
X170965905Y-93035381D02*
X170965905Y-92035381D01*
X171346858Y-92035381D01*
X171442096Y-92083000D01*
X171489715Y-92130619D01*
X171537334Y-92225857D01*
X171537334Y-92368714D01*
X171489715Y-92463952D01*
X171442096Y-92511571D01*
X171346858Y-92559190D01*
X170965905Y-92559190D01*
X171870667Y-92035381D02*
X172537334Y-92035381D01*
X172108762Y-93035381D01*
D14*
X158538333Y-65126810D02*
X158369000Y-64884905D01*
X158248047Y-65126810D02*
X158248047Y-64618810D01*
X158441571Y-64618810D01*
X158489952Y-64643000D01*
X158514143Y-64667190D01*
X158538333Y-64715571D01*
X158538333Y-64788143D01*
X158514143Y-64836524D01*
X158489952Y-64860714D01*
X158441571Y-64884905D01*
X158248047Y-64884905D01*
X158828619Y-64836524D02*
X158780238Y-64812333D01*
X158756047Y-64788143D01*
X158731857Y-64739762D01*
X158731857Y-64715571D01*
X158756047Y-64667190D01*
X158780238Y-64643000D01*
X158828619Y-64618810D01*
X158925381Y-64618810D01*
X158973762Y-64643000D01*
X158997952Y-64667190D01*
X159022143Y-64715571D01*
X159022143Y-64739762D01*
X158997952Y-64788143D01*
X158973762Y-64812333D01*
X158925381Y-64836524D01*
X158828619Y-64836524D01*
X158780238Y-64860714D01*
X158756047Y-64884905D01*
X158731857Y-64933286D01*
X158731857Y-65030048D01*
X158756047Y-65078429D01*
X158780238Y-65102619D01*
X158828619Y-65126810D01*
X158925381Y-65126810D01*
X158973762Y-65102619D01*
X158997952Y-65078429D01*
X159022143Y-65030048D01*
X159022143Y-64933286D01*
X158997952Y-64884905D01*
X158973762Y-64860714D01*
X158925381Y-64836524D01*
X158538333Y-66650810D02*
X158369000Y-66408905D01*
X158248047Y-66650810D02*
X158248047Y-66142810D01*
X158441571Y-66142810D01*
X158489952Y-66167000D01*
X158514143Y-66191190D01*
X158538333Y-66239571D01*
X158538333Y-66312143D01*
X158514143Y-66360524D01*
X158489952Y-66384714D01*
X158441571Y-66408905D01*
X158248047Y-66408905D01*
X158780238Y-66650810D02*
X158877000Y-66650810D01*
X158925381Y-66626619D01*
X158949571Y-66602429D01*
X158997952Y-66529857D01*
X159022143Y-66433095D01*
X159022143Y-66239571D01*
X158997952Y-66191190D01*
X158973762Y-66167000D01*
X158925381Y-66142810D01*
X158828619Y-66142810D01*
X158780238Y-66167000D01*
X158756047Y-66191190D01*
X158731857Y-66239571D01*
X158731857Y-66360524D01*
X158756047Y-66408905D01*
X158780238Y-66433095D01*
X158828619Y-66457286D01*
X158925381Y-66457286D01*
X158973762Y-66433095D01*
X158997952Y-66408905D01*
X159022143Y-66360524D01*
X165662428Y-66015810D02*
X165493095Y-65773905D01*
X165372142Y-66015810D02*
X165372142Y-65507810D01*
X165565666Y-65507810D01*
X165614047Y-65532000D01*
X165638238Y-65556190D01*
X165662428Y-65604571D01*
X165662428Y-65677143D01*
X165638238Y-65725524D01*
X165614047Y-65749714D01*
X165565666Y-65773905D01*
X165372142Y-65773905D01*
X166146238Y-66015810D02*
X165855952Y-66015810D01*
X166001095Y-66015810D02*
X166001095Y-65507810D01*
X165952714Y-65580381D01*
X165904333Y-65628762D01*
X165855952Y-65652952D01*
X166460714Y-65507810D02*
X166509095Y-65507810D01*
X166557476Y-65532000D01*
X166581667Y-65556190D01*
X166605857Y-65604571D01*
X166630048Y-65701333D01*
X166630048Y-65822286D01*
X166605857Y-65919048D01*
X166581667Y-65967429D01*
X166557476Y-65991619D01*
X166509095Y-66015810D01*
X166460714Y-66015810D01*
X166412333Y-65991619D01*
X166388143Y-65967429D01*
X166363952Y-65919048D01*
X166339762Y-65822286D01*
X166339762Y-65701333D01*
X166363952Y-65604571D01*
X166388143Y-65556190D01*
X166412333Y-65532000D01*
X166460714Y-65507810D01*
D12*
X160266143Y-101417381D02*
X159932809Y-100941190D01*
X159694714Y-101417381D02*
X159694714Y-100417381D01*
X160075667Y-100417381D01*
X160170905Y-100465000D01*
X160218524Y-100512619D01*
X160266143Y-100607857D01*
X160266143Y-100750714D01*
X160218524Y-100845952D01*
X160170905Y-100893571D01*
X160075667Y-100941190D01*
X159694714Y-100941190D01*
X161218524Y-101417381D02*
X160647095Y-101417381D01*
X160932809Y-101417381D02*
X160932809Y-100417381D01*
X160837571Y-100560238D01*
X160742333Y-100655476D01*
X160647095Y-100703095D01*
X162170905Y-101417381D02*
X161599476Y-101417381D01*
X161885190Y-101417381D02*
X161885190Y-100417381D01*
X161789952Y-100560238D01*
X161694714Y-100655476D01*
X161599476Y-100703095D01*
D14*
X141302619Y-65761810D02*
X141133286Y-65519905D01*
X141012333Y-65761810D02*
X141012333Y-65253810D01*
X141205857Y-65253810D01*
X141254238Y-65278000D01*
X141278429Y-65302190D01*
X141302619Y-65350571D01*
X141302619Y-65423143D01*
X141278429Y-65471524D01*
X141254238Y-65495714D01*
X141205857Y-65519905D01*
X141012333Y-65519905D01*
X141689667Y-65495714D02*
X141520333Y-65495714D01*
X141520333Y-65761810D02*
X141520333Y-65253810D01*
X141762238Y-65253810D01*
X142125096Y-65495714D02*
X142197667Y-65519905D01*
X142221858Y-65544095D01*
X142246048Y-65592476D01*
X142246048Y-65665048D01*
X142221858Y-65713429D01*
X142197667Y-65737619D01*
X142149286Y-65761810D01*
X141955762Y-65761810D01*
X141955762Y-65253810D01*
X142125096Y-65253810D01*
X142173477Y-65278000D01*
X142197667Y-65302190D01*
X142221858Y-65350571D01*
X142221858Y-65398952D01*
X142197667Y-65447333D01*
X142173477Y-65471524D01*
X142125096Y-65495714D01*
X141955762Y-65495714D01*
X142729858Y-65761810D02*
X142439572Y-65761810D01*
X142584715Y-65761810D02*
X142584715Y-65253810D01*
X142536334Y-65326381D01*
X142487953Y-65374762D01*
X142439572Y-65398952D01*
D12*
X155535095Y-102407505D02*
X155535095Y-103217029D01*
X155582714Y-103312267D01*
X155630333Y-103359886D01*
X155725571Y-103407505D01*
X155916048Y-103407505D01*
X156011286Y-103359886D01*
X156058905Y-103312267D01*
X156106524Y-103217029D01*
X156106524Y-102407505D01*
X157011286Y-102407505D02*
X156820809Y-102407505D01*
X156725571Y-102455124D01*
X156677952Y-102502743D01*
X156582714Y-102645600D01*
X156535095Y-102836076D01*
X156535095Y-103217029D01*
X156582714Y-103312267D01*
X156630333Y-103359886D01*
X156725571Y-103407505D01*
X156916048Y-103407505D01*
X157011286Y-103359886D01*
X157058905Y-103312267D01*
X157106524Y-103217029D01*
X157106524Y-102978934D01*
X157058905Y-102883695D01*
X157011286Y-102836076D01*
X156916048Y-102788457D01*
X156725571Y-102788457D01*
X156630333Y-102836076D01*
X156582714Y-102883695D01*
X156535095Y-102978934D01*
X153289095Y-61428381D02*
X153289095Y-62237905D01*
X153336714Y-62333143D01*
X153384333Y-62380762D01*
X153479571Y-62428381D01*
X153670048Y-62428381D01*
X153765286Y-62380762D01*
X153812905Y-62333143D01*
X153860524Y-62237905D01*
X153860524Y-61428381D01*
X154812905Y-61428381D02*
X154336714Y-61428381D01*
X154289095Y-61904571D01*
X154336714Y-61856952D01*
X154431952Y-61809333D01*
X154670048Y-61809333D01*
X154765286Y-61856952D01*
X154812905Y-61904571D01*
X154860524Y-61999810D01*
X154860524Y-62237905D01*
X154812905Y-62333143D01*
X154765286Y-62380762D01*
X154670048Y-62428381D01*
X154431952Y-62428381D01*
X154336714Y-62380762D01*
X154289095Y-62333143D01*
X169138715Y-61650857D02*
X169824429Y-61650857D01*
X169481572Y-62850857D02*
X169481572Y-61650857D01*
X170853001Y-62850857D02*
X170167286Y-62850857D01*
X170510144Y-62850857D02*
X170510144Y-61650857D01*
X170395858Y-61822286D01*
X170281572Y-61936571D01*
X170167286Y-61993714D01*
X133183334Y-78208143D02*
X133135715Y-78255762D01*
X132992858Y-78303381D01*
X132897620Y-78303381D01*
X132754762Y-78255762D01*
X132659524Y-78160524D01*
X132611905Y-78065286D01*
X132564286Y-77874810D01*
X132564286Y-77731952D01*
X132611905Y-77541476D01*
X132659524Y-77446238D01*
X132754762Y-77351000D01*
X132897620Y-77303381D01*
X132992858Y-77303381D01*
X133135715Y-77351000D01*
X133183334Y-77398619D01*
X134135715Y-78303381D02*
X133564286Y-78303381D01*
X133850000Y-78303381D02*
X133850000Y-77303381D01*
X133754762Y-77446238D01*
X133659524Y-77541476D01*
X133564286Y-77589095D01*
M02*
