G04 #@! TF.FileFunction,Copper,L1,Top,Signal*
%FSLAX46Y46*%
G04 Gerber Fmt 4.6, Leading zero omitted, Abs format (unit mm)*
G04 Created by KiCad (PCBNEW 4.0.6) date Friday, June 16, 2017 'PMt' 04:10:38 PM*
%MOMM*%
%LPD*%
G01*
G04 APERTURE LIST*
%ADD10C,0.100000*%
%ADD11R,1.300000X0.700000*%
%ADD12R,0.750000X0.800000*%
%ADD13R,1.300000X1.300000*%
%ADD14C,1.300000*%
%ADD15R,1.000760X2.501900*%
%ADD16R,1.998980X4.000500*%
%ADD17R,0.400000X0.510000*%
%ADD18R,1.700000X1.700000*%
%ADD19O,1.700000X1.700000*%
%ADD20R,0.800000X0.750000*%
%ADD21R,0.500000X0.900000*%
%ADD22R,0.900000X0.500000*%
%ADD23R,1.800000X1.800000*%
%ADD24O,1.800000X1.800000*%
%ADD25C,2.400000*%
%ADD26O,2.400000X2.400000*%
%ADD27R,0.700000X1.300000*%
%ADD28R,1.220000X0.650000*%
%ADD29R,1.524000X0.380000*%
%ADD30O,1.600000X1.600000*%
%ADD31R,1.651000X0.762000*%
%ADD32R,1.500000X1.950000*%
%ADD33C,1.998980*%
%ADD34C,2.500000*%
%ADD35C,1.524000*%
%ADD36C,0.762000*%
%ADD37C,0.381000*%
%ADD38C,0.457200*%
%ADD39C,0.254000*%
G04 APERTURE END LIST*
D10*
D11*
X136657000Y-61854000D03*
X136657000Y-63754000D03*
D12*
X141859000Y-57392000D03*
X141859000Y-55892000D03*
D13*
X144780000Y-57150000D03*
D14*
X144780000Y-54650000D03*
D15*
X128927860Y-66233040D03*
X130429000Y-66233040D03*
X131930140Y-66233040D03*
D16*
X130429000Y-62280800D03*
D10*
G36*
X131429760Y-64255650D02*
X130929380Y-65004950D01*
X129928620Y-65004950D01*
X129428240Y-64255650D01*
X131429760Y-64255650D01*
X131429760Y-64255650D01*
G37*
D17*
X134612000Y-64501000D03*
X133612000Y-64501000D03*
X134112000Y-65801000D03*
D18*
X125349000Y-66421000D03*
D19*
X125349000Y-63881000D03*
D12*
X129032000Y-78601000D03*
X129032000Y-77101000D03*
X128016000Y-97270000D03*
X128016000Y-95770000D03*
X134874000Y-93357000D03*
X134874000Y-94857000D03*
X144399000Y-84582000D03*
X144399000Y-83082000D03*
X157861000Y-84431000D03*
X157861000Y-82931000D03*
X174498000Y-86475000D03*
X174498000Y-84975000D03*
X171196000Y-80887000D03*
X171196000Y-79387000D03*
D20*
X147181000Y-64897000D03*
X145681000Y-64897000D03*
X162584000Y-64389000D03*
X164084000Y-64389000D03*
D12*
X145669000Y-66941000D03*
X145669000Y-68441000D03*
X147447000Y-66941000D03*
X147447000Y-68441000D03*
D20*
X162584000Y-66929000D03*
X164084000Y-66929000D03*
D12*
X158369000Y-70243000D03*
X158369000Y-71743000D03*
X156083000Y-72795000D03*
X156083000Y-74295000D03*
X149860000Y-72771000D03*
X149860000Y-74271000D03*
X154051000Y-72783000D03*
X154051000Y-74283000D03*
X152908000Y-103354000D03*
X152908000Y-101854000D03*
X152908000Y-100064000D03*
X152908000Y-98564000D03*
D20*
X161659000Y-96774000D03*
X160159000Y-96774000D03*
D12*
X154686000Y-97790000D03*
X154686000Y-96290000D03*
D20*
X147054000Y-61087000D03*
X145554000Y-61087000D03*
X145300000Y-59436000D03*
X146800000Y-59436000D03*
D12*
X151384000Y-59956000D03*
X151384000Y-61456000D03*
X149606000Y-61456000D03*
X149606000Y-59956000D03*
D21*
X142125000Y-59436000D03*
X143625000Y-59436000D03*
X145554000Y-63119000D03*
X147054000Y-63119000D03*
X159778000Y-63119000D03*
X161278000Y-63119000D03*
X159778000Y-68072000D03*
X161278000Y-68072000D03*
D22*
X160401000Y-70751000D03*
X160401000Y-72251000D03*
D18*
X124714000Y-95377000D03*
D19*
X124714000Y-97917000D03*
D18*
X137033000Y-70485000D03*
D19*
X137033000Y-73025000D03*
D18*
X146685000Y-75057000D03*
D19*
X146685000Y-72517000D03*
D23*
X132207000Y-82423000D03*
D24*
X129667000Y-82423000D03*
X127127000Y-82423000D03*
D23*
X132207000Y-73660000D03*
D24*
X129667000Y-73660000D03*
X127127000Y-73660000D03*
D25*
X121539000Y-82550000D03*
D26*
X121539000Y-69850000D03*
D27*
X163500038Y-86531340D03*
X165400038Y-86531340D03*
D11*
X164465000Y-88966000D03*
X164465000Y-90866000D03*
X171196000Y-84621340D03*
X171196000Y-82721340D03*
D21*
X165354000Y-64389000D03*
X166854000Y-64389000D03*
D11*
X171704000Y-91181000D03*
X171704000Y-89281000D03*
D21*
X161278000Y-64770000D03*
X159778000Y-64770000D03*
X161290000Y-66421000D03*
X159790000Y-66421000D03*
X165239000Y-66929000D03*
X166739000Y-66929000D03*
D27*
X159959000Y-99187000D03*
X161859000Y-99187000D03*
D22*
X142113000Y-63004000D03*
X142113000Y-64504000D03*
D23*
X132334000Y-97917000D03*
D24*
X132334000Y-95377000D03*
X132334000Y-92837000D03*
D28*
X157607000Y-101455124D03*
X157607000Y-100505124D03*
X157607000Y-99555124D03*
X154987000Y-99555124D03*
X154987000Y-100505124D03*
X154987000Y-101455124D03*
D29*
X149859000Y-64325500D03*
X155449000Y-64325500D03*
X149859000Y-64965500D03*
X155449000Y-64965500D03*
X149859000Y-65605500D03*
X155449000Y-65605500D03*
X149859000Y-66245500D03*
X155449000Y-66245500D03*
X149859000Y-66885500D03*
X155449000Y-66885500D03*
X149859000Y-67525500D03*
X155449000Y-67525500D03*
X149859000Y-68165500D03*
X155449000Y-68165500D03*
X149859000Y-68805500D03*
X155449000Y-68805500D03*
X149859000Y-69445500D03*
X155449000Y-69445500D03*
X149859000Y-70085500D03*
X155449000Y-70085500D03*
D30*
X168260038Y-82721340D03*
X168260038Y-85261340D03*
X168260038Y-87801340D03*
X168260038Y-90341340D03*
X160640038Y-90341340D03*
X160640038Y-87801340D03*
X160640038Y-85261340D03*
X160640038Y-82721340D03*
X154813000Y-82804000D03*
X154813000Y-85344000D03*
X154813000Y-87884000D03*
X154813000Y-90424000D03*
X147193000Y-90424000D03*
X147193000Y-87884000D03*
X147193000Y-85344000D03*
X147193000Y-82804000D03*
D31*
X171640500Y-64389000D03*
X168465500Y-64389000D03*
X168465500Y-65659000D03*
X171640500Y-66929000D03*
X168465500Y-66929000D03*
D18*
X167640000Y-55245000D03*
D19*
X167640000Y-52705000D03*
X165100000Y-55245000D03*
X165100000Y-52705000D03*
X162560000Y-55245000D03*
X162560000Y-52705000D03*
X160020000Y-55245000D03*
X160020000Y-52705000D03*
X157480000Y-55245000D03*
X157480000Y-52705000D03*
X154940000Y-55245000D03*
X154940000Y-52705000D03*
D32*
X131191000Y-79226000D03*
X131191000Y-76476000D03*
D33*
X136652000Y-59563000D03*
D34*
X139277000Y-56938000D03*
X139277000Y-62188000D03*
X134027000Y-56938000D03*
X134027000Y-62188000D03*
D33*
X144272000Y-100457000D03*
D34*
X146897000Y-103082000D03*
X141647000Y-103082000D03*
X146897000Y-97832000D03*
X141647000Y-97832000D03*
D33*
X166370000Y-72390000D03*
D34*
X168995000Y-75015000D03*
X163745000Y-75015000D03*
X168995000Y-69765000D03*
X163745000Y-69765000D03*
D33*
X168656000Y-98933000D03*
D34*
X171281000Y-101558000D03*
X166031000Y-101558000D03*
X171281000Y-96308000D03*
X166031000Y-96308000D03*
D35*
X150495000Y-58293000D03*
X144145000Y-64897000D03*
X129540000Y-86106000D03*
X128143000Y-99949000D03*
X160401000Y-75057000D03*
X157861000Y-86487000D03*
X162243745Y-92265186D03*
X136633705Y-92153780D03*
X144018000Y-62738000D03*
X156337000Y-97790000D03*
X143764000Y-86487000D03*
X157480000Y-65278000D03*
X162810341Y-62443172D03*
D36*
X170370500Y-65659000D02*
X168465500Y-65659000D01*
X171640500Y-64389000D02*
X170370500Y-65659000D01*
D37*
X163060318Y-100505124D02*
X158598000Y-100505124D01*
X164188214Y-101633020D02*
X163060318Y-100505124D01*
X165955980Y-101633020D02*
X164188214Y-101633020D01*
X158598000Y-100505124D02*
X157607000Y-100505124D01*
D38*
X171704000Y-91181000D02*
X169099698Y-91181000D01*
X169099698Y-91181000D02*
X168260038Y-90341340D01*
D36*
X132334000Y-95377000D02*
X134354000Y-95377000D01*
X134354000Y-95377000D02*
X134874000Y-94857000D01*
X132334000Y-95377000D02*
X128409000Y-95377000D01*
X128409000Y-95377000D02*
X128016000Y-95770000D01*
X124714000Y-95377000D02*
X127623000Y-95377000D01*
X127623000Y-95377000D02*
X128016000Y-95770000D01*
X129032000Y-77101000D02*
X129032000Y-75462000D01*
X129032000Y-75462000D02*
X129667000Y-74827000D01*
X129667000Y-73660000D02*
X129667000Y-74827000D01*
X129667000Y-74827000D02*
X131191000Y-76351000D01*
D38*
X134612000Y-64501000D02*
X134612000Y-62923040D01*
X134612000Y-62923040D02*
X133951980Y-62263020D01*
X133612000Y-64501000D02*
X133612000Y-62603000D01*
X133612000Y-62603000D02*
X133951980Y-62263020D01*
D37*
X149859000Y-69445500D02*
X151002000Y-69445500D01*
X151002000Y-69445500D02*
X152282000Y-68165500D01*
X152282000Y-68165500D02*
X152282000Y-66245500D01*
X152282000Y-66245500D02*
X153670000Y-66245500D01*
X153670000Y-66245500D02*
X154306000Y-66245500D01*
X155449000Y-64325500D02*
X154306000Y-64325500D01*
X154306000Y-64325500D02*
X153670000Y-64961500D01*
X153670000Y-64961500D02*
X153670000Y-66245500D01*
X149859000Y-67525500D02*
X151002000Y-67525500D01*
X151002000Y-67525500D02*
X152282000Y-66245500D01*
X154306000Y-66245500D02*
X155449000Y-66245500D01*
X149860000Y-74271000D02*
X147471000Y-74271000D01*
X147471000Y-74271000D02*
X146685000Y-75057000D01*
X145681000Y-64897000D02*
X144145000Y-64897000D01*
D36*
X129540000Y-86106000D02*
X129540000Y-82550000D01*
X129540000Y-82550000D02*
X129667000Y-82423000D01*
X124714000Y-97917000D02*
X126111000Y-97917000D01*
X126111000Y-97917000D02*
X128143000Y-99949000D01*
X132334000Y-97917000D02*
X128663000Y-97917000D01*
X128663000Y-97917000D02*
X128016000Y-97270000D01*
X124714000Y-97917000D02*
X127369000Y-97917000D01*
X127369000Y-97917000D02*
X128016000Y-97270000D01*
X129032000Y-78601000D02*
X129032000Y-80240000D01*
X129032000Y-80240000D02*
X129667000Y-80875000D01*
X129667000Y-82423000D02*
X129667000Y-80875000D01*
X129667000Y-80875000D02*
X131191000Y-79351000D01*
D37*
X160401000Y-72251000D02*
X160401000Y-75057000D01*
D38*
X157861000Y-84431000D02*
X157861000Y-86487000D01*
D37*
X162243745Y-92265186D02*
X163065814Y-92265186D01*
X163065814Y-92265186D02*
X164465000Y-90866000D01*
X136052220Y-92153780D02*
X136633705Y-92153780D01*
X134874000Y-93332000D02*
X136052220Y-92153780D01*
X134874000Y-93357000D02*
X134874000Y-93332000D01*
D38*
X145554000Y-63119000D02*
X144399000Y-63119000D01*
X144399000Y-63119000D02*
X144018000Y-62738000D01*
X156337000Y-97790000D02*
X154686000Y-97790000D01*
X156337000Y-99837924D02*
X156337000Y-101252324D01*
X156337000Y-101252324D02*
X156539800Y-101455124D01*
X156539800Y-101455124D02*
X157607000Y-101455124D01*
X154987000Y-99555124D02*
X156054200Y-99555124D01*
X156054200Y-99555124D02*
X156337000Y-99837924D01*
X143764000Y-86487000D02*
X143764000Y-85217000D01*
X143764000Y-85217000D02*
X144399000Y-84582000D01*
X160640038Y-85261340D02*
X158691340Y-85261340D01*
X158691340Y-85261340D02*
X157861000Y-84431000D01*
X147193000Y-85344000D02*
X145161000Y-85344000D01*
X145161000Y-85344000D02*
X144399000Y-84582000D01*
D36*
X132334000Y-92837000D02*
X134354000Y-92837000D01*
X134354000Y-92837000D02*
X134874000Y-93357000D01*
D38*
X152908000Y-98564000D02*
X153912000Y-98564000D01*
X153912000Y-98564000D02*
X154686000Y-97790000D01*
X154987000Y-99555124D02*
X154987000Y-98091000D01*
X154987000Y-98091000D02*
X154686000Y-97790000D01*
D37*
X155449000Y-64965500D02*
X157167500Y-64965500D01*
X157167500Y-64965500D02*
X157480000Y-65278000D01*
X155449000Y-65605500D02*
X157152500Y-65605500D01*
X157152500Y-65605500D02*
X157480000Y-65278000D01*
X144780000Y-57150000D02*
X142101000Y-57150000D01*
X142101000Y-57150000D02*
X141859000Y-57392000D01*
D38*
X141859000Y-57392000D02*
X141859000Y-59170000D01*
X141859000Y-59170000D02*
X142125000Y-59436000D01*
X136652000Y-59563000D02*
X141998000Y-59563000D01*
X141998000Y-59563000D02*
X142125000Y-59436000D01*
X136657000Y-61854000D02*
X136657000Y-59568000D01*
X136657000Y-59568000D02*
X136652000Y-59563000D01*
X164465000Y-88966000D02*
X167095378Y-88966000D01*
X167095378Y-88966000D02*
X168260038Y-87801340D01*
X174498000Y-86475000D02*
X174498000Y-86487000D01*
X174498000Y-86487000D02*
X171704000Y-89281000D01*
X168260038Y-87801340D02*
X170224340Y-87801340D01*
X170224340Y-87801340D02*
X171704000Y-89281000D01*
X174498000Y-84975000D02*
X174498000Y-75184000D01*
X174498000Y-75184000D02*
X170942000Y-71628000D01*
D37*
X171640500Y-70929500D02*
X170942000Y-71628000D01*
X170942000Y-71628000D02*
X170180000Y-72390000D01*
X170180000Y-72390000D02*
X166370000Y-72390000D01*
X171640500Y-66929000D02*
X171640500Y-70929500D01*
D38*
X171196000Y-82721340D02*
X171196000Y-80887000D01*
D37*
X147750694Y-64897000D02*
X148459703Y-65606009D01*
X148459703Y-65606009D02*
X149858491Y-65606009D01*
X149858491Y-65606009D02*
X149859000Y-65605500D01*
X147054000Y-63119000D02*
X147054000Y-64770000D01*
X147054000Y-64770000D02*
X147181000Y-64897000D01*
X147750694Y-64897000D02*
X147181000Y-64897000D01*
X161278000Y-63119000D02*
X161278000Y-64770000D01*
D38*
X162584000Y-64389000D02*
X161925000Y-64389000D01*
X162584000Y-64389000D02*
X161659000Y-64389000D01*
X161659000Y-64389000D02*
X161278000Y-64770000D01*
X161290000Y-64758000D02*
X161278000Y-64770000D01*
X162584000Y-64389000D02*
X162433000Y-64389000D01*
X164084000Y-64389000D02*
X165354000Y-64389000D01*
D37*
X148052154Y-66096499D02*
X148201155Y-66245500D01*
X148201155Y-66245500D02*
X149859000Y-66245500D01*
X142113000Y-64504000D02*
X142113000Y-65135000D01*
X142113000Y-65135000D02*
X143919000Y-66941000D01*
X143919000Y-66941000D02*
X144913000Y-66941000D01*
X144913000Y-66941000D02*
X145669000Y-66941000D01*
X146488501Y-66096499D02*
X145669000Y-66916000D01*
X145669000Y-66916000D02*
X145669000Y-66941000D01*
X148052154Y-66096499D02*
X146488501Y-66096499D01*
X148302345Y-69285501D02*
X148302345Y-69219155D01*
X148302345Y-69219155D02*
X148716000Y-68805500D01*
X148716000Y-68805500D02*
X149859000Y-68805500D01*
X146488501Y-69285501D02*
X145669000Y-68466000D01*
X148302345Y-69285501D02*
X146488501Y-69285501D01*
X145669000Y-68466000D02*
X145669000Y-68441000D01*
X147447000Y-66941000D02*
X147502500Y-66885500D01*
X147502500Y-66885500D02*
X149859000Y-66885500D01*
X147456846Y-66950846D02*
X147447000Y-66941000D01*
X149859000Y-68165500D02*
X147722500Y-68165500D01*
X147722500Y-68165500D02*
X147447000Y-68441000D01*
X147657154Y-68230846D02*
X147447000Y-68441000D01*
X161290000Y-66421000D02*
X161290000Y-68060000D01*
X161290000Y-68060000D02*
X161278000Y-68072000D01*
D38*
X162584000Y-66929000D02*
X161798000Y-66929000D01*
X161798000Y-66929000D02*
X161290000Y-66421000D01*
X162560000Y-66929000D02*
X162584000Y-66929000D01*
X165239000Y-66929000D02*
X164084000Y-66929000D01*
D37*
X155449000Y-69445500D02*
X156592000Y-69445500D01*
X156655501Y-71441499D02*
X156083000Y-72014000D01*
X156592000Y-69445500D02*
X156655501Y-69509001D01*
X156655501Y-69509001D02*
X156655501Y-71441499D01*
X156083000Y-72014000D02*
X156083000Y-72795000D01*
X149859000Y-70085500D02*
X149859000Y-72770000D01*
X149859000Y-72770000D02*
X149860000Y-72771000D01*
X146685000Y-72517000D02*
X149606000Y-72517000D01*
X149606000Y-72517000D02*
X149860000Y-72771000D01*
X155449000Y-70085500D02*
X155449000Y-71385000D01*
X155449000Y-71385000D02*
X154051000Y-72783000D01*
X163572340Y-61681173D02*
X162810341Y-62443172D01*
X165100000Y-60153513D02*
X163572340Y-61681173D01*
X165100000Y-55245000D02*
X165100000Y-60153513D01*
D38*
X152908000Y-103354000D02*
X152075800Y-103354000D01*
X152075800Y-103354000D02*
X149178800Y-100457000D01*
X149178800Y-100457000D02*
X145685492Y-100457000D01*
X145685492Y-100457000D02*
X144272000Y-100457000D01*
X152908000Y-103329000D02*
X152908000Y-103354000D01*
X147193000Y-87884000D02*
X146061630Y-87884000D01*
X146061630Y-87884000D02*
X144272000Y-89673630D01*
X144272000Y-89673630D02*
X144272000Y-99043508D01*
X144272000Y-99043508D02*
X144272000Y-100457000D01*
X147193000Y-87884000D02*
X154813000Y-85344000D01*
D37*
X147835000Y-63951501D02*
X148854498Y-64970999D01*
X148854498Y-64970999D02*
X149542114Y-64970999D01*
X146800000Y-59436000D02*
X146800000Y-60833000D01*
X146800000Y-60833000D02*
X147054000Y-61087000D01*
X149606000Y-61456000D02*
X148850000Y-61456000D01*
X148850000Y-61456000D02*
X148463000Y-61843000D01*
X148463000Y-61843000D02*
X147835000Y-61843000D01*
X147835000Y-63951501D02*
X147835000Y-61843000D01*
X147835000Y-61843000D02*
X147079000Y-61087000D01*
X147079000Y-61087000D02*
X147054000Y-61087000D01*
X145554000Y-61087000D02*
X143399000Y-61087000D01*
X143399000Y-61087000D02*
X142113000Y-62373000D01*
X142113000Y-62373000D02*
X142113000Y-63004000D01*
X143625000Y-59436000D02*
X145300000Y-59436000D01*
X151384000Y-61456000D02*
X149859000Y-62981000D01*
X149859000Y-62981000D02*
X149859000Y-64325500D01*
D38*
X136657000Y-63754000D02*
X136657000Y-64561200D01*
X136657000Y-64561200D02*
X135417200Y-65801000D01*
X135417200Y-65801000D02*
X134112000Y-65801000D01*
X134112000Y-65801000D02*
X132362180Y-65801000D01*
X132362180Y-65801000D02*
X131930140Y-66233040D01*
X161859000Y-99187000D02*
X168402000Y-99187000D01*
X168402000Y-99187000D02*
X168656000Y-98933000D01*
X161859000Y-99187000D02*
X161859000Y-96974000D01*
X161859000Y-96974000D02*
X161659000Y-96774000D01*
D36*
X125349000Y-66421000D02*
X124968000Y-66421000D01*
X124968000Y-66421000D02*
X121539000Y-69850000D01*
D38*
X128927860Y-66233040D02*
X125536960Y-66233040D01*
X125536960Y-66233040D02*
X125349000Y-66421000D01*
X154813000Y-87884000D02*
X160557378Y-87884000D01*
X160557378Y-87884000D02*
X160640038Y-87801340D01*
X160640038Y-87801340D02*
X162230038Y-87801340D01*
X162230038Y-87801340D02*
X163500038Y-86531340D01*
X168260038Y-85261340D02*
X170556000Y-85261340D01*
X170556000Y-85261340D02*
X171196000Y-84621340D01*
X168260038Y-85261340D02*
X166370038Y-85261340D01*
X166370038Y-85261340D02*
X165400038Y-86231340D01*
X165400038Y-86231340D02*
X165400038Y-86531340D01*
X168465500Y-64389000D02*
X166854000Y-64389000D01*
X166739000Y-66929000D02*
X168465500Y-66929000D01*
D37*
X158369000Y-70243000D02*
X159893000Y-70243000D01*
X159893000Y-70243000D02*
X160401000Y-70751000D01*
X155449000Y-68165500D02*
X156592000Y-68165500D01*
X156592000Y-68165500D02*
X158369000Y-69942500D01*
X158369000Y-69942500D02*
X158369000Y-70243000D01*
X155449000Y-68165500D02*
X155449000Y-68805500D01*
X159778000Y-64770000D02*
X159778000Y-63119000D01*
X159778000Y-64770000D02*
X157660000Y-66888000D01*
X156592000Y-66885500D02*
X155449000Y-66885500D01*
X157660000Y-66888000D02*
X156594500Y-66888000D01*
X156594500Y-66888000D02*
X156592000Y-66885500D01*
X159790000Y-64758000D02*
X159778000Y-64770000D01*
X159790000Y-66421000D02*
X159790000Y-68060000D01*
X159790000Y-68060000D02*
X159778000Y-68072000D01*
X155449000Y-67525500D02*
X156592000Y-67525500D01*
X156592000Y-67525500D02*
X156594500Y-67523000D01*
X156594500Y-67523000D02*
X157923025Y-67523000D01*
X157923025Y-67523000D02*
X159025025Y-66421000D01*
X159025025Y-66421000D02*
X159790000Y-66421000D01*
D38*
X157607000Y-99555124D02*
X159590876Y-99555124D01*
X159590876Y-99555124D02*
X159959000Y-99187000D01*
X132207000Y-73660000D02*
X133235601Y-74688601D01*
X133235601Y-74688601D02*
X133235601Y-81394399D01*
X133235601Y-81394399D02*
X132207000Y-82423000D01*
X132207000Y-73660000D02*
X136398000Y-73660000D01*
X136398000Y-73660000D02*
X137033000Y-73025000D01*
D36*
X127127000Y-73660000D02*
X127127000Y-82423000D01*
X121539000Y-82550000D02*
X127000000Y-82550000D01*
X127000000Y-82550000D02*
X127127000Y-82423000D01*
D38*
X154987000Y-101455124D02*
X153306876Y-101455124D01*
X153306876Y-101455124D02*
X152908000Y-101854000D01*
X154987000Y-100505124D02*
X153349124Y-100505124D01*
X153349124Y-100505124D02*
X152908000Y-100064000D01*
D39*
G36*
X153744817Y-51823642D02*
X153498514Y-52348108D01*
X153619181Y-52578000D01*
X154813000Y-52578000D01*
X154813000Y-52558000D01*
X155067000Y-52558000D01*
X155067000Y-52578000D01*
X157353000Y-52578000D01*
X157353000Y-52558000D01*
X157607000Y-52558000D01*
X157607000Y-52578000D01*
X159893000Y-52578000D01*
X159893000Y-52558000D01*
X160147000Y-52558000D01*
X160147000Y-52578000D01*
X162433000Y-52578000D01*
X162433000Y-52558000D01*
X162687000Y-52558000D01*
X162687000Y-52578000D01*
X164973000Y-52578000D01*
X164973000Y-52558000D01*
X165227000Y-52558000D01*
X165227000Y-52578000D01*
X167513000Y-52578000D01*
X167513000Y-52558000D01*
X167767000Y-52558000D01*
X167767000Y-52578000D01*
X168960819Y-52578000D01*
X169081486Y-52348108D01*
X168835183Y-51823642D01*
X168491026Y-51510000D01*
X177090000Y-51510000D01*
X177090000Y-113590000D01*
X115010000Y-113590000D01*
X115010000Y-110932619D01*
X115874613Y-110932619D01*
X116214155Y-111754372D01*
X116842321Y-112383636D01*
X117663481Y-112724611D01*
X118552619Y-112725387D01*
X119374372Y-112385845D01*
X120003636Y-111757679D01*
X120344611Y-110936519D01*
X120344614Y-110932619D01*
X171754613Y-110932619D01*
X172094155Y-111754372D01*
X172722321Y-112383636D01*
X173543481Y-112724611D01*
X174432619Y-112725387D01*
X175254372Y-112385845D01*
X175883636Y-111757679D01*
X176224611Y-110936519D01*
X176225387Y-110047381D01*
X175885845Y-109225628D01*
X175257679Y-108596364D01*
X174436519Y-108255389D01*
X173547381Y-108254613D01*
X172725628Y-108594155D01*
X172096364Y-109222321D01*
X171755389Y-110043481D01*
X171754613Y-110932619D01*
X120344614Y-110932619D01*
X120345387Y-110047381D01*
X120005845Y-109225628D01*
X119377679Y-108596364D01*
X118556519Y-108255389D01*
X117667381Y-108254613D01*
X116845628Y-108594155D01*
X116216364Y-109222321D01*
X115875389Y-110043481D01*
X115874613Y-110932619D01*
X115010000Y-110932619D01*
X115010000Y-104415320D01*
X140493285Y-104415320D01*
X140622533Y-104708123D01*
X141322806Y-104976388D01*
X142072435Y-104956250D01*
X142671467Y-104708123D01*
X142800715Y-104415320D01*
X145743285Y-104415320D01*
X145872533Y-104708123D01*
X146572806Y-104976388D01*
X147322435Y-104956250D01*
X147921467Y-104708123D01*
X148050715Y-104415320D01*
X146897000Y-103261605D01*
X145743285Y-104415320D01*
X142800715Y-104415320D01*
X141647000Y-103261605D01*
X140493285Y-104415320D01*
X115010000Y-104415320D01*
X115010000Y-102757806D01*
X139752612Y-102757806D01*
X139772750Y-103507435D01*
X140020877Y-104106467D01*
X140313680Y-104235715D01*
X141467395Y-103082000D01*
X141826605Y-103082000D01*
X142980320Y-104235715D01*
X143273123Y-104106467D01*
X143541388Y-103406194D01*
X143523970Y-102757806D01*
X145002612Y-102757806D01*
X145022750Y-103507435D01*
X145270877Y-104106467D01*
X145563680Y-104235715D01*
X146717395Y-103082000D01*
X147076605Y-103082000D01*
X148230320Y-104235715D01*
X148523123Y-104106467D01*
X148791388Y-103406194D01*
X148771250Y-102656565D01*
X148523123Y-102057533D01*
X148230320Y-101928285D01*
X147076605Y-103082000D01*
X146717395Y-103082000D01*
X145563680Y-101928285D01*
X145270877Y-102057533D01*
X145002612Y-102757806D01*
X143523970Y-102757806D01*
X143521250Y-102656565D01*
X143273123Y-102057533D01*
X142980320Y-101928285D01*
X141826605Y-103082000D01*
X141467395Y-103082000D01*
X140313680Y-101928285D01*
X140020877Y-102057533D01*
X139752612Y-102757806D01*
X115010000Y-102757806D01*
X115010000Y-101748680D01*
X140493285Y-101748680D01*
X141647000Y-102902395D01*
X142800715Y-101748680D01*
X142671467Y-101455877D01*
X141971194Y-101187612D01*
X141221565Y-101207750D01*
X140622533Y-101455877D01*
X140493285Y-101748680D01*
X115010000Y-101748680D01*
X115010000Y-97917000D01*
X123199907Y-97917000D01*
X123312946Y-98485285D01*
X123634853Y-98967054D01*
X124116622Y-99288961D01*
X124684907Y-99402000D01*
X124743093Y-99402000D01*
X125311378Y-99288961D01*
X125751825Y-98994665D01*
X126745965Y-99988805D01*
X126745758Y-100225661D01*
X126957990Y-100739303D01*
X127350630Y-101132629D01*
X127863900Y-101345757D01*
X128419661Y-101346242D01*
X128933303Y-101134010D01*
X129326629Y-100741370D01*
X129539757Y-100228100D01*
X129540242Y-99672339D01*
X129328010Y-99158697D01*
X129102707Y-98933000D01*
X130808387Y-98933000D01*
X130830838Y-99052317D01*
X130969910Y-99268441D01*
X131182110Y-99413431D01*
X131434000Y-99464440D01*
X133234000Y-99464440D01*
X133469317Y-99420162D01*
X133685441Y-99281090D01*
X133764543Y-99165320D01*
X140493285Y-99165320D01*
X140622533Y-99458123D01*
X141322806Y-99726388D01*
X142072435Y-99706250D01*
X142671467Y-99458123D01*
X142800715Y-99165320D01*
X141647000Y-98011605D01*
X140493285Y-99165320D01*
X133764543Y-99165320D01*
X133830431Y-99068890D01*
X133881440Y-98817000D01*
X133881440Y-97507806D01*
X139752612Y-97507806D01*
X139772750Y-98257435D01*
X140020877Y-98856467D01*
X140313680Y-98985715D01*
X141467395Y-97832000D01*
X141826605Y-97832000D01*
X142980320Y-98985715D01*
X143273123Y-98856467D01*
X143408400Y-98503343D01*
X143408400Y-99045311D01*
X143347345Y-99070538D01*
X142887154Y-99529927D01*
X142637794Y-100130453D01*
X142637226Y-100780694D01*
X142885538Y-101381655D01*
X143344927Y-101841846D01*
X143945453Y-102091206D01*
X144595694Y-102091774D01*
X145196655Y-101843462D01*
X145656846Y-101384073D01*
X145683202Y-101320600D01*
X146199121Y-101320600D01*
X145872533Y-101455877D01*
X145743285Y-101748680D01*
X146897000Y-102902395D01*
X148050715Y-101748680D01*
X147921467Y-101455877D01*
X147568343Y-101320600D01*
X148821086Y-101320600D01*
X151465143Y-103964658D01*
X151745315Y-104151862D01*
X152075800Y-104217600D01*
X152086705Y-104217600D01*
X152281110Y-104350431D01*
X152533000Y-104401440D01*
X153283000Y-104401440D01*
X153518317Y-104357162D01*
X153734441Y-104218090D01*
X153879431Y-104005890D01*
X153930440Y-103754000D01*
X153930440Y-102954000D01*
X153918646Y-102891320D01*
X164877285Y-102891320D01*
X165006533Y-103184123D01*
X165706806Y-103452388D01*
X166456435Y-103432250D01*
X167055467Y-103184123D01*
X167184715Y-102891320D01*
X170127285Y-102891320D01*
X170256533Y-103184123D01*
X170956806Y-103452388D01*
X171706435Y-103432250D01*
X172305467Y-103184123D01*
X172434715Y-102891320D01*
X171281000Y-101737605D01*
X170127285Y-102891320D01*
X167184715Y-102891320D01*
X166031000Y-101737605D01*
X164877285Y-102891320D01*
X153918646Y-102891320D01*
X153886162Y-102718683D01*
X153812380Y-102604022D01*
X153879431Y-102505890D01*
X153917333Y-102318724D01*
X154040471Y-102318724D01*
X154125110Y-102376555D01*
X154377000Y-102427564D01*
X155597000Y-102427564D01*
X155832317Y-102383286D01*
X156048441Y-102244214D01*
X156094751Y-102176437D01*
X156177256Y-102231565D01*
X156209315Y-102252986D01*
X156539800Y-102318724D01*
X156660471Y-102318724D01*
X156745110Y-102376555D01*
X156997000Y-102427564D01*
X158217000Y-102427564D01*
X158452317Y-102383286D01*
X158668441Y-102244214D01*
X158813431Y-102032014D01*
X158864440Y-101780124D01*
X158864440Y-101233806D01*
X164136612Y-101233806D01*
X164156750Y-101983435D01*
X164404877Y-102582467D01*
X164697680Y-102711715D01*
X165851395Y-101558000D01*
X166210605Y-101558000D01*
X167364320Y-102711715D01*
X167657123Y-102582467D01*
X167925388Y-101882194D01*
X167907970Y-101233806D01*
X169386612Y-101233806D01*
X169406750Y-101983435D01*
X169654877Y-102582467D01*
X169947680Y-102711715D01*
X171101395Y-101558000D01*
X171460605Y-101558000D01*
X172614320Y-102711715D01*
X172907123Y-102582467D01*
X173175388Y-101882194D01*
X173155250Y-101132565D01*
X172907123Y-100533533D01*
X172614320Y-100404285D01*
X171460605Y-101558000D01*
X171101395Y-101558000D01*
X169947680Y-100404285D01*
X169654877Y-100533533D01*
X169386612Y-101233806D01*
X167907970Y-101233806D01*
X167905250Y-101132565D01*
X167657123Y-100533533D01*
X167364320Y-100404285D01*
X166210605Y-101558000D01*
X165851395Y-101558000D01*
X164697680Y-100404285D01*
X164404877Y-100533533D01*
X164136612Y-101233806D01*
X158864440Y-101233806D01*
X158864440Y-101130124D01*
X158838081Y-100990038D01*
X158852000Y-100956434D01*
X158852000Y-100790874D01*
X158693250Y-100632124D01*
X158612949Y-100632124D01*
X158468890Y-100533693D01*
X158331880Y-100505948D01*
X158452317Y-100483286D01*
X158552649Y-100418724D01*
X159335586Y-100418724D01*
X159357110Y-100433431D01*
X159609000Y-100484440D01*
X160309000Y-100484440D01*
X160544317Y-100440162D01*
X160760441Y-100301090D01*
X160905431Y-100088890D01*
X160908081Y-100075803D01*
X161044910Y-100288441D01*
X161257110Y-100433431D01*
X161509000Y-100484440D01*
X162209000Y-100484440D01*
X162444317Y-100440162D01*
X162660441Y-100301090D01*
X162805431Y-100088890D01*
X162813185Y-100050600D01*
X164954127Y-100050600D01*
X164877285Y-100224680D01*
X166031000Y-101378395D01*
X167184715Y-100224680D01*
X167107873Y-100050600D01*
X167462147Y-100050600D01*
X167728927Y-100317846D01*
X168329453Y-100567206D01*
X168979694Y-100567774D01*
X169580655Y-100319462D01*
X169675602Y-100224680D01*
X170127285Y-100224680D01*
X171281000Y-101378395D01*
X172434715Y-100224680D01*
X172305467Y-99931877D01*
X171605194Y-99663612D01*
X170855565Y-99683750D01*
X170256533Y-99931877D01*
X170127285Y-100224680D01*
X169675602Y-100224680D01*
X170040846Y-99860073D01*
X170290206Y-99259547D01*
X170290774Y-98609306D01*
X170042462Y-98008345D01*
X169676077Y-97641320D01*
X170127285Y-97641320D01*
X170256533Y-97934123D01*
X170956806Y-98202388D01*
X171706435Y-98182250D01*
X172305467Y-97934123D01*
X172434715Y-97641320D01*
X171281000Y-96487605D01*
X170127285Y-97641320D01*
X169676077Y-97641320D01*
X169583073Y-97548154D01*
X168982547Y-97298794D01*
X168332306Y-97298226D01*
X167731345Y-97546538D01*
X167271154Y-98005927D01*
X167139328Y-98323400D01*
X162816248Y-98323400D01*
X162812162Y-98301683D01*
X162722600Y-98162500D01*
X162722600Y-97641320D01*
X164877285Y-97641320D01*
X165006533Y-97934123D01*
X165706806Y-98202388D01*
X166456435Y-98182250D01*
X167055467Y-97934123D01*
X167184715Y-97641320D01*
X166031000Y-96487605D01*
X164877285Y-97641320D01*
X162722600Y-97641320D01*
X162722600Y-96974000D01*
X162706440Y-96892759D01*
X162706440Y-96399000D01*
X162662162Y-96163683D01*
X162546415Y-95983806D01*
X164136612Y-95983806D01*
X164156750Y-96733435D01*
X164404877Y-97332467D01*
X164697680Y-97461715D01*
X165851395Y-96308000D01*
X166210605Y-96308000D01*
X167364320Y-97461715D01*
X167657123Y-97332467D01*
X167925388Y-96632194D01*
X167907970Y-95983806D01*
X169386612Y-95983806D01*
X169406750Y-96733435D01*
X169654877Y-97332467D01*
X169947680Y-97461715D01*
X171101395Y-96308000D01*
X171460605Y-96308000D01*
X172614320Y-97461715D01*
X172907123Y-97332467D01*
X173175388Y-96632194D01*
X173155250Y-95882565D01*
X172907123Y-95283533D01*
X172614320Y-95154285D01*
X171460605Y-96308000D01*
X171101395Y-96308000D01*
X169947680Y-95154285D01*
X169654877Y-95283533D01*
X169386612Y-95983806D01*
X167907970Y-95983806D01*
X167905250Y-95882565D01*
X167657123Y-95283533D01*
X167364320Y-95154285D01*
X166210605Y-96308000D01*
X165851395Y-96308000D01*
X164697680Y-95154285D01*
X164404877Y-95283533D01*
X164136612Y-95983806D01*
X162546415Y-95983806D01*
X162523090Y-95947559D01*
X162310890Y-95802569D01*
X162059000Y-95751560D01*
X161259000Y-95751560D01*
X161023683Y-95795838D01*
X160920354Y-95862329D01*
X160918698Y-95860673D01*
X160685309Y-95764000D01*
X160444750Y-95764000D01*
X160286000Y-95922750D01*
X160286000Y-96647000D01*
X160306000Y-96647000D01*
X160306000Y-96901000D01*
X160286000Y-96901000D01*
X160286000Y-97625250D01*
X160444750Y-97784000D01*
X160685309Y-97784000D01*
X160918698Y-97687327D01*
X160920068Y-97685957D01*
X160995400Y-97737430D01*
X160995400Y-98163883D01*
X160912569Y-98285110D01*
X160909919Y-98298197D01*
X160773090Y-98085559D01*
X160560890Y-97940569D01*
X160309000Y-97889560D01*
X159609000Y-97889560D01*
X159373683Y-97933838D01*
X159157559Y-98072910D01*
X159012569Y-98285110D01*
X158961560Y-98537000D01*
X158961560Y-98691524D01*
X158553529Y-98691524D01*
X158468890Y-98633693D01*
X158217000Y-98582684D01*
X157520314Y-98582684D01*
X157520629Y-98582370D01*
X157733757Y-98069100D01*
X157734242Y-97513339D01*
X157546824Y-97059750D01*
X159124000Y-97059750D01*
X159124000Y-97275310D01*
X159220673Y-97508699D01*
X159399302Y-97687327D01*
X159632691Y-97784000D01*
X159873250Y-97784000D01*
X160032000Y-97625250D01*
X160032000Y-96901000D01*
X159282750Y-96901000D01*
X159124000Y-97059750D01*
X157546824Y-97059750D01*
X157522010Y-96999697D01*
X157129370Y-96606371D01*
X156616100Y-96393243D01*
X156060339Y-96392758D01*
X155673037Y-96552787D01*
X155537250Y-96417000D01*
X154813000Y-96417000D01*
X154813000Y-96437000D01*
X154559000Y-96437000D01*
X154559000Y-96417000D01*
X153834750Y-96417000D01*
X153676000Y-96575750D01*
X153676000Y-96816309D01*
X153772673Y-97049698D01*
X153774043Y-97051068D01*
X153714569Y-97138110D01*
X153663560Y-97390000D01*
X153663560Y-97591126D01*
X153625325Y-97629361D01*
X153534890Y-97567569D01*
X153283000Y-97516560D01*
X152533000Y-97516560D01*
X152297683Y-97560838D01*
X152081559Y-97699910D01*
X151936569Y-97912110D01*
X151885560Y-98164000D01*
X151885560Y-98964000D01*
X151929838Y-99199317D01*
X152003620Y-99313978D01*
X151936569Y-99412110D01*
X151885560Y-99664000D01*
X151885560Y-100464000D01*
X151929838Y-100699317D01*
X152068910Y-100915441D01*
X152131174Y-100957984D01*
X152081559Y-100989910D01*
X151936569Y-101202110D01*
X151885560Y-101454000D01*
X151885560Y-101942445D01*
X149789457Y-99846343D01*
X149509285Y-99659138D01*
X149484284Y-99654165D01*
X149178800Y-99593400D01*
X147594879Y-99593400D01*
X147921467Y-99458123D01*
X148050715Y-99165320D01*
X146897000Y-98011605D01*
X145743285Y-99165320D01*
X145872533Y-99458123D01*
X146225657Y-99593400D01*
X145683689Y-99593400D01*
X145658462Y-99532345D01*
X145199073Y-99072154D01*
X145135600Y-99045798D01*
X145135600Y-98529879D01*
X145270877Y-98856467D01*
X145563680Y-98985715D01*
X146717395Y-97832000D01*
X147076605Y-97832000D01*
X148230320Y-98985715D01*
X148523123Y-98856467D01*
X148791388Y-98156194D01*
X148771250Y-97406565D01*
X148523123Y-96807533D01*
X148230320Y-96678285D01*
X147076605Y-97832000D01*
X146717395Y-97832000D01*
X145563680Y-96678285D01*
X145270877Y-96807533D01*
X145135600Y-97160657D01*
X145135600Y-96498680D01*
X145743285Y-96498680D01*
X146897000Y-97652395D01*
X148050715Y-96498680D01*
X147950960Y-96272690D01*
X159124000Y-96272690D01*
X159124000Y-96488250D01*
X159282750Y-96647000D01*
X160032000Y-96647000D01*
X160032000Y-95922750D01*
X159873250Y-95764000D01*
X159632691Y-95764000D01*
X159399302Y-95860673D01*
X159220673Y-96039301D01*
X159124000Y-96272690D01*
X147950960Y-96272690D01*
X147921467Y-96205877D01*
X147221194Y-95937612D01*
X146471565Y-95957750D01*
X145872533Y-96205877D01*
X145743285Y-96498680D01*
X145135600Y-96498680D01*
X145135600Y-95763691D01*
X153676000Y-95763691D01*
X153676000Y-96004250D01*
X153834750Y-96163000D01*
X154559000Y-96163000D01*
X154559000Y-95413750D01*
X154813000Y-95413750D01*
X154813000Y-96163000D01*
X155537250Y-96163000D01*
X155696000Y-96004250D01*
X155696000Y-95763691D01*
X155599327Y-95530302D01*
X155420699Y-95351673D01*
X155187310Y-95255000D01*
X154971750Y-95255000D01*
X154813000Y-95413750D01*
X154559000Y-95413750D01*
X154400250Y-95255000D01*
X154184690Y-95255000D01*
X153951301Y-95351673D01*
X153772673Y-95530302D01*
X153676000Y-95763691D01*
X145135600Y-95763691D01*
X145135600Y-94974680D01*
X164877285Y-94974680D01*
X166031000Y-96128395D01*
X167184715Y-94974680D01*
X170127285Y-94974680D01*
X171281000Y-96128395D01*
X172434715Y-94974680D01*
X172305467Y-94681877D01*
X171605194Y-94413612D01*
X170855565Y-94433750D01*
X170256533Y-94681877D01*
X170127285Y-94974680D01*
X167184715Y-94974680D01*
X167055467Y-94681877D01*
X166355194Y-94413612D01*
X165605565Y-94433750D01*
X165006533Y-94681877D01*
X164877285Y-94974680D01*
X145135600Y-94974680D01*
X145135600Y-90031344D01*
X146220959Y-88945985D01*
X146532275Y-89154000D01*
X146150189Y-89409302D01*
X145839120Y-89874849D01*
X145729887Y-90424000D01*
X145839120Y-90973151D01*
X146150189Y-91438698D01*
X146615736Y-91749767D01*
X147164887Y-91859000D01*
X147221113Y-91859000D01*
X147770264Y-91749767D01*
X148235811Y-91438698D01*
X148546880Y-90973151D01*
X148586684Y-90773039D01*
X153421096Y-90773039D01*
X153581959Y-91161423D01*
X153957866Y-91576389D01*
X154463959Y-91815914D01*
X154686000Y-91694629D01*
X154686000Y-90551000D01*
X154940000Y-90551000D01*
X154940000Y-91694629D01*
X155162041Y-91815914D01*
X155668134Y-91576389D01*
X156044041Y-91161423D01*
X156204904Y-90773039D01*
X156082915Y-90551000D01*
X154940000Y-90551000D01*
X154686000Y-90551000D01*
X153543085Y-90551000D01*
X153421096Y-90773039D01*
X148586684Y-90773039D01*
X148656113Y-90424000D01*
X148546880Y-89874849D01*
X148235811Y-89409302D01*
X147853725Y-89154000D01*
X148235811Y-88898698D01*
X148546880Y-88433151D01*
X148566081Y-88336621D01*
X154013042Y-86520967D01*
X154152275Y-86614000D01*
X153770189Y-86869302D01*
X153459120Y-87334849D01*
X153349887Y-87884000D01*
X153459120Y-88433151D01*
X153770189Y-88898698D01*
X154174703Y-89168986D01*
X153957866Y-89271611D01*
X153581959Y-89686577D01*
X153421096Y-90074961D01*
X153543085Y-90297000D01*
X154686000Y-90297000D01*
X154686000Y-90277000D01*
X154940000Y-90277000D01*
X154940000Y-90297000D01*
X156082915Y-90297000D01*
X156204904Y-90074961D01*
X156044041Y-89686577D01*
X155668134Y-89271611D01*
X155451297Y-89168986D01*
X155855811Y-88898698D01*
X155956772Y-88747600D01*
X159551498Y-88747600D01*
X159597227Y-88816038D01*
X159979313Y-89071340D01*
X159597227Y-89326642D01*
X159286158Y-89792189D01*
X159176925Y-90341340D01*
X159286158Y-90890491D01*
X159597227Y-91356038D01*
X160062774Y-91667107D01*
X160611925Y-91776340D01*
X160668151Y-91776340D01*
X160958024Y-91718681D01*
X160846988Y-91986086D01*
X160846503Y-92541847D01*
X161058735Y-93055489D01*
X161451375Y-93448815D01*
X161964645Y-93661943D01*
X162520406Y-93662428D01*
X163034048Y-93450196D01*
X163427374Y-93057556D01*
X163461977Y-92974223D01*
X163649531Y-92848903D01*
X164634994Y-91863440D01*
X165115000Y-91863440D01*
X165350317Y-91819162D01*
X165566441Y-91680090D01*
X165711431Y-91467890D01*
X165762440Y-91216000D01*
X165762440Y-90690379D01*
X166868134Y-90690379D01*
X167028997Y-91078763D01*
X167404904Y-91493729D01*
X167910997Y-91733254D01*
X168133038Y-91611969D01*
X168133038Y-90468340D01*
X168387038Y-90468340D01*
X168387038Y-91611969D01*
X168609079Y-91733254D01*
X169115172Y-91493729D01*
X169139611Y-91466750D01*
X170419000Y-91466750D01*
X170419000Y-91657309D01*
X170515673Y-91890698D01*
X170694301Y-92069327D01*
X170927690Y-92166000D01*
X171418250Y-92166000D01*
X171577000Y-92007250D01*
X171577000Y-91308000D01*
X171831000Y-91308000D01*
X171831000Y-92007250D01*
X171989750Y-92166000D01*
X172480310Y-92166000D01*
X172713699Y-92069327D01*
X172892327Y-91890698D01*
X172989000Y-91657309D01*
X172989000Y-91466750D01*
X172830250Y-91308000D01*
X171831000Y-91308000D01*
X171577000Y-91308000D01*
X170577750Y-91308000D01*
X170419000Y-91466750D01*
X169139611Y-91466750D01*
X169491079Y-91078763D01*
X169651942Y-90690379D01*
X169529953Y-90468340D01*
X168387038Y-90468340D01*
X168133038Y-90468340D01*
X166990123Y-90468340D01*
X166868134Y-90690379D01*
X165762440Y-90690379D01*
X165762440Y-90516000D01*
X165718162Y-90280683D01*
X165579090Y-90064559D01*
X165366890Y-89919569D01*
X165353803Y-89916919D01*
X165489500Y-89829600D01*
X166935522Y-89829600D01*
X166868134Y-89992301D01*
X166990123Y-90214340D01*
X168133038Y-90214340D01*
X168133038Y-90194340D01*
X168387038Y-90194340D01*
X168387038Y-90214340D01*
X169529953Y-90214340D01*
X169651942Y-89992301D01*
X169491079Y-89603917D01*
X169115172Y-89188951D01*
X168898335Y-89086326D01*
X169302849Y-88816038D01*
X169403810Y-88664940D01*
X169866626Y-88664940D01*
X170406560Y-89204875D01*
X170406560Y-89631000D01*
X170450838Y-89866317D01*
X170589910Y-90082441D01*
X170802110Y-90227431D01*
X170835490Y-90234191D01*
X170694301Y-90292673D01*
X170515673Y-90471302D01*
X170419000Y-90704691D01*
X170419000Y-90895250D01*
X170577750Y-91054000D01*
X171577000Y-91054000D01*
X171577000Y-91034000D01*
X171831000Y-91034000D01*
X171831000Y-91054000D01*
X172830250Y-91054000D01*
X172989000Y-90895250D01*
X172989000Y-90704691D01*
X172892327Y-90471302D01*
X172713699Y-90292673D01*
X172577713Y-90236346D01*
X172589317Y-90234162D01*
X172805441Y-90095090D01*
X172950431Y-89882890D01*
X173001440Y-89631000D01*
X173001440Y-89204874D01*
X174683875Y-87522440D01*
X174873000Y-87522440D01*
X175108317Y-87478162D01*
X175324441Y-87339090D01*
X175469431Y-87126890D01*
X175520440Y-86875000D01*
X175520440Y-86075000D01*
X175476162Y-85839683D01*
X175402380Y-85725022D01*
X175469431Y-85626890D01*
X175520440Y-85375000D01*
X175520440Y-84575000D01*
X175476162Y-84339683D01*
X175361600Y-84161649D01*
X175361600Y-75184000D01*
X175304704Y-74897966D01*
X175295862Y-74853514D01*
X175108657Y-74573342D01*
X172136374Y-71601060D01*
X172224217Y-71513217D01*
X172403163Y-71245406D01*
X172466000Y-70929500D01*
X172466000Y-67957440D01*
X172701317Y-67913162D01*
X172917441Y-67774090D01*
X173062431Y-67561890D01*
X173113440Y-67310000D01*
X173113440Y-66548000D01*
X173069162Y-66312683D01*
X172930090Y-66096559D01*
X172717890Y-65951569D01*
X172466000Y-65900560D01*
X170815000Y-65900560D01*
X170579683Y-65944838D01*
X170363559Y-66083910D01*
X170218569Y-66296110D01*
X170167560Y-66548000D01*
X170167560Y-67310000D01*
X170211838Y-67545317D01*
X170350910Y-67761441D01*
X170563110Y-67906431D01*
X170815000Y-67957440D01*
X170815000Y-69208594D01*
X170621123Y-68740533D01*
X170328320Y-68611285D01*
X169174605Y-69765000D01*
X169188748Y-69779143D01*
X169009143Y-69958748D01*
X168995000Y-69944605D01*
X167841285Y-71098320D01*
X167970533Y-71391123D01*
X168423112Y-71564500D01*
X167797432Y-71564500D01*
X167756462Y-71465345D01*
X167297073Y-71005154D01*
X166696547Y-70755794D01*
X166046306Y-70755226D01*
X165445345Y-71003538D01*
X164985154Y-71462927D01*
X164735794Y-72063453D01*
X164735226Y-72713694D01*
X164983538Y-73314655D01*
X165442927Y-73774846D01*
X166043453Y-74024206D01*
X166693694Y-74024774D01*
X167294655Y-73776462D01*
X167754846Y-73317073D01*
X167797023Y-73215500D01*
X168389102Y-73215500D01*
X167970533Y-73388877D01*
X167841285Y-73681680D01*
X168995000Y-74835395D01*
X170148715Y-73681680D01*
X170019467Y-73388877D01*
X169566888Y-73215500D01*
X170180000Y-73215500D01*
X170495906Y-73152663D01*
X170763717Y-72973717D01*
X170915060Y-72822374D01*
X173634400Y-75541715D01*
X173634400Y-84165294D01*
X173526569Y-84323110D01*
X173475560Y-84575000D01*
X173475560Y-85375000D01*
X173519838Y-85610317D01*
X173593620Y-85724978D01*
X173526569Y-85823110D01*
X173475560Y-86075000D01*
X173475560Y-86288125D01*
X171704000Y-88059686D01*
X170834997Y-87190683D01*
X170554825Y-87003478D01*
X170224340Y-86937740D01*
X169403810Y-86937740D01*
X169302849Y-86786642D01*
X168920763Y-86531340D01*
X169302849Y-86276038D01*
X169403810Y-86124940D01*
X170556000Y-86124940D01*
X170886485Y-86059202D01*
X171166657Y-85871997D01*
X171419874Y-85618780D01*
X171846000Y-85618780D01*
X172081317Y-85574502D01*
X172297441Y-85435430D01*
X172442431Y-85223230D01*
X172493440Y-84971340D01*
X172493440Y-84271340D01*
X172449162Y-84036023D01*
X172310090Y-83819899D01*
X172097890Y-83674909D01*
X172084803Y-83672259D01*
X172297441Y-83535430D01*
X172442431Y-83323230D01*
X172493440Y-83071340D01*
X172493440Y-82371340D01*
X172449162Y-82136023D01*
X172310090Y-81919899D01*
X172097890Y-81774909D01*
X172059600Y-81767155D01*
X172059600Y-81696706D01*
X172167431Y-81538890D01*
X172218440Y-81287000D01*
X172218440Y-80487000D01*
X172174162Y-80251683D01*
X172107671Y-80148354D01*
X172109327Y-80146698D01*
X172206000Y-79913309D01*
X172206000Y-79672750D01*
X172047250Y-79514000D01*
X171323000Y-79514000D01*
X171323000Y-79534000D01*
X171069000Y-79534000D01*
X171069000Y-79514000D01*
X170344750Y-79514000D01*
X170186000Y-79672750D01*
X170186000Y-79913309D01*
X170282673Y-80146698D01*
X170284043Y-80148068D01*
X170224569Y-80235110D01*
X170173560Y-80487000D01*
X170173560Y-81287000D01*
X170217838Y-81522317D01*
X170332400Y-81700351D01*
X170332400Y-81764092D01*
X170310683Y-81768178D01*
X170094559Y-81907250D01*
X169949569Y-82119450D01*
X169898560Y-82371340D01*
X169898560Y-83071340D01*
X169942838Y-83306657D01*
X170081910Y-83522781D01*
X170294110Y-83667771D01*
X170307197Y-83670421D01*
X170094559Y-83807250D01*
X169949569Y-84019450D01*
X169898560Y-84271340D01*
X169898560Y-84397740D01*
X169403810Y-84397740D01*
X169302849Y-84246642D01*
X168920763Y-83991340D01*
X169302849Y-83736038D01*
X169613918Y-83270491D01*
X169723151Y-82721340D01*
X169613918Y-82172189D01*
X169302849Y-81706642D01*
X168837302Y-81395573D01*
X168288151Y-81286340D01*
X168231925Y-81286340D01*
X167682774Y-81395573D01*
X167217227Y-81706642D01*
X166906158Y-82172189D01*
X166796925Y-82721340D01*
X166906158Y-83270491D01*
X167217227Y-83736038D01*
X167599313Y-83991340D01*
X167217227Y-84246642D01*
X167116266Y-84397740D01*
X166370038Y-84397740D01*
X166094383Y-84452571D01*
X166039552Y-84463478D01*
X165759380Y-84650683D01*
X165176164Y-85233900D01*
X165050038Y-85233900D01*
X164814721Y-85278178D01*
X164598597Y-85417250D01*
X164453607Y-85629450D01*
X164450957Y-85642537D01*
X164314128Y-85429899D01*
X164101928Y-85284909D01*
X163850038Y-85233900D01*
X163150038Y-85233900D01*
X162914721Y-85278178D01*
X162698597Y-85417250D01*
X162553607Y-85629450D01*
X162502598Y-85881340D01*
X162502598Y-86307465D01*
X161872324Y-86937740D01*
X161783810Y-86937740D01*
X161682849Y-86786642D01*
X161300763Y-86531340D01*
X161682849Y-86276038D01*
X161993918Y-85810491D01*
X162103151Y-85261340D01*
X161993918Y-84712189D01*
X161682849Y-84246642D01*
X161300763Y-83991340D01*
X161682849Y-83736038D01*
X161993918Y-83270491D01*
X162103151Y-82721340D01*
X161993918Y-82172189D01*
X161682849Y-81706642D01*
X161217302Y-81395573D01*
X160668151Y-81286340D01*
X160611925Y-81286340D01*
X160062774Y-81395573D01*
X159597227Y-81706642D01*
X159286158Y-82172189D01*
X159176925Y-82721340D01*
X159286158Y-83270491D01*
X159597227Y-83736038D01*
X159979313Y-83991340D01*
X159597227Y-84246642D01*
X159496266Y-84397740D01*
X159049054Y-84397740D01*
X158883440Y-84232126D01*
X158883440Y-84031000D01*
X158839162Y-83795683D01*
X158772671Y-83692354D01*
X158774327Y-83690698D01*
X158871000Y-83457309D01*
X158871000Y-83216750D01*
X158712250Y-83058000D01*
X157988000Y-83058000D01*
X157988000Y-83078000D01*
X157734000Y-83078000D01*
X157734000Y-83058000D01*
X157009750Y-83058000D01*
X156851000Y-83216750D01*
X156851000Y-83457309D01*
X156947673Y-83690698D01*
X156949043Y-83692068D01*
X156889569Y-83779110D01*
X156838560Y-84031000D01*
X156838560Y-84831000D01*
X156882838Y-85066317D01*
X156997400Y-85244351D01*
X156997400Y-85375159D01*
X156677371Y-85694630D01*
X156464243Y-86207900D01*
X156463758Y-86763661D01*
X156569840Y-87020400D01*
X155956772Y-87020400D01*
X155855811Y-86869302D01*
X155473725Y-86614000D01*
X155855811Y-86358698D01*
X156166880Y-85893151D01*
X156276113Y-85344000D01*
X156166880Y-84794849D01*
X155855811Y-84329302D01*
X155473725Y-84074000D01*
X155855811Y-83818698D01*
X156166880Y-83353151D01*
X156276113Y-82804000D01*
X156196686Y-82404691D01*
X156851000Y-82404691D01*
X156851000Y-82645250D01*
X157009750Y-82804000D01*
X157734000Y-82804000D01*
X157734000Y-82054750D01*
X157988000Y-82054750D01*
X157988000Y-82804000D01*
X158712250Y-82804000D01*
X158871000Y-82645250D01*
X158871000Y-82404691D01*
X158774327Y-82171302D01*
X158595699Y-81992673D01*
X158362310Y-81896000D01*
X158146750Y-81896000D01*
X157988000Y-82054750D01*
X157734000Y-82054750D01*
X157575250Y-81896000D01*
X157359690Y-81896000D01*
X157126301Y-81992673D01*
X156947673Y-82171302D01*
X156851000Y-82404691D01*
X156196686Y-82404691D01*
X156166880Y-82254849D01*
X155855811Y-81789302D01*
X155390264Y-81478233D01*
X154841113Y-81369000D01*
X154784887Y-81369000D01*
X154235736Y-81478233D01*
X153770189Y-81789302D01*
X153459120Y-82254849D01*
X153349887Y-82804000D01*
X153459120Y-83353151D01*
X153770189Y-83818698D01*
X154152275Y-84074000D01*
X153770189Y-84329302D01*
X153459120Y-84794849D01*
X153439919Y-84891379D01*
X147992958Y-86707033D01*
X147853725Y-86614000D01*
X148235811Y-86358698D01*
X148546880Y-85893151D01*
X148656113Y-85344000D01*
X148546880Y-84794849D01*
X148235811Y-84329302D01*
X147853725Y-84074000D01*
X148235811Y-83818698D01*
X148546880Y-83353151D01*
X148656113Y-82804000D01*
X148546880Y-82254849D01*
X148235811Y-81789302D01*
X147770264Y-81478233D01*
X147221113Y-81369000D01*
X147164887Y-81369000D01*
X146615736Y-81478233D01*
X146150189Y-81789302D01*
X145839120Y-82254849D01*
X145729887Y-82804000D01*
X145839120Y-83353151D01*
X146150189Y-83818698D01*
X146532275Y-84074000D01*
X146150189Y-84329302D01*
X146049228Y-84480400D01*
X145518715Y-84480400D01*
X145421440Y-84383125D01*
X145421440Y-84182000D01*
X145377162Y-83946683D01*
X145310671Y-83843354D01*
X145312327Y-83841698D01*
X145409000Y-83608309D01*
X145409000Y-83367750D01*
X145250250Y-83209000D01*
X144526000Y-83209000D01*
X144526000Y-83229000D01*
X144272000Y-83229000D01*
X144272000Y-83209000D01*
X143547750Y-83209000D01*
X143389000Y-83367750D01*
X143389000Y-83608309D01*
X143485673Y-83841698D01*
X143487043Y-83843068D01*
X143427569Y-83930110D01*
X143376560Y-84182000D01*
X143376560Y-84383126D01*
X143153343Y-84606343D01*
X142966138Y-84886515D01*
X142900400Y-85217000D01*
X142900400Y-85375159D01*
X142580371Y-85694630D01*
X142367243Y-86207900D01*
X142366758Y-86763661D01*
X142578990Y-87277303D01*
X142971630Y-87670629D01*
X143484900Y-87883757D01*
X144040661Y-87884242D01*
X144554303Y-87672010D01*
X144947629Y-87279370D01*
X145160757Y-86766100D01*
X145161242Y-86210339D01*
X145160031Y-86207407D01*
X145161000Y-86207600D01*
X146049228Y-86207600D01*
X146150189Y-86358698D01*
X146532275Y-86614000D01*
X146150189Y-86869302D01*
X146047327Y-87023245D01*
X145731145Y-87086138D01*
X145450973Y-87273343D01*
X143661343Y-89062973D01*
X143474138Y-89343145D01*
X143408400Y-89673630D01*
X143408400Y-97134121D01*
X143273123Y-96807533D01*
X142980320Y-96678285D01*
X141826605Y-97832000D01*
X141467395Y-97832000D01*
X140313680Y-96678285D01*
X140020877Y-96807533D01*
X139752612Y-97507806D01*
X133881440Y-97507806D01*
X133881440Y-97017000D01*
X133837162Y-96781683D01*
X133698090Y-96565559D01*
X133600210Y-96498680D01*
X140493285Y-96498680D01*
X141647000Y-97652395D01*
X142800715Y-96498680D01*
X142671467Y-96205877D01*
X141971194Y-95937612D01*
X141221565Y-95957750D01*
X140622533Y-96205877D01*
X140493285Y-96498680D01*
X133600210Y-96498680D01*
X133485890Y-96420569D01*
X133434854Y-96410234D01*
X133571966Y-96284576D01*
X133825046Y-95741742D01*
X133704998Y-95504002D01*
X133869000Y-95504002D01*
X133869000Y-95395380D01*
X133960673Y-95616698D01*
X134139301Y-95795327D01*
X134372690Y-95892000D01*
X134588250Y-95892000D01*
X134747000Y-95733250D01*
X134747000Y-94984000D01*
X135001000Y-94984000D01*
X135001000Y-95733250D01*
X135159750Y-95892000D01*
X135375310Y-95892000D01*
X135608699Y-95795327D01*
X135787327Y-95616698D01*
X135884000Y-95383309D01*
X135884000Y-95142750D01*
X135725250Y-94984000D01*
X135001000Y-94984000D01*
X134747000Y-94984000D01*
X134022750Y-94984000D01*
X133864000Y-95142750D01*
X133864000Y-95249998D01*
X133704998Y-95249998D01*
X133825046Y-95012258D01*
X133571966Y-94469424D01*
X133181418Y-94111501D01*
X133419409Y-93952481D01*
X133485880Y-93853000D01*
X133869624Y-93853000D01*
X133895838Y-93992317D01*
X133962329Y-94095646D01*
X133960673Y-94097302D01*
X133864000Y-94330691D01*
X133864000Y-94571250D01*
X134022750Y-94730000D01*
X134747000Y-94730000D01*
X134747000Y-94710000D01*
X135001000Y-94710000D01*
X135001000Y-94730000D01*
X135725250Y-94730000D01*
X135884000Y-94571250D01*
X135884000Y-94330691D01*
X135787327Y-94097302D01*
X135785957Y-94095932D01*
X135845431Y-94008890D01*
X135896440Y-93757000D01*
X135896440Y-93476994D01*
X135978902Y-93394532D01*
X136354605Y-93550537D01*
X136910366Y-93551022D01*
X137424008Y-93338790D01*
X137817334Y-92946150D01*
X138030462Y-92432880D01*
X138030947Y-91877119D01*
X137818715Y-91363477D01*
X137426075Y-90970151D01*
X136912805Y-90757023D01*
X136357044Y-90756538D01*
X135843402Y-90968770D01*
X135450076Y-91361410D01*
X135288828Y-91749739D01*
X134981043Y-92057523D01*
X134742807Y-91898338D01*
X134636130Y-91877119D01*
X134354000Y-91821000D01*
X133485880Y-91821000D01*
X133419409Y-91721519D01*
X132921419Y-91388773D01*
X132334000Y-91271928D01*
X131746581Y-91388773D01*
X131248591Y-91721519D01*
X130915845Y-92219509D01*
X130799000Y-92806928D01*
X130799000Y-92867072D01*
X130915845Y-93454491D01*
X131248591Y-93952481D01*
X131486582Y-94111501D01*
X131096034Y-94469424D01*
X130842954Y-95012258D01*
X130963003Y-95250000D01*
X132207000Y-95250000D01*
X132207000Y-95230000D01*
X132461000Y-95230000D01*
X132461000Y-95250000D01*
X132481000Y-95250000D01*
X132481000Y-95504000D01*
X132461000Y-95504000D01*
X132461000Y-95524000D01*
X132207000Y-95524000D01*
X132207000Y-95504000D01*
X130963003Y-95504000D01*
X130842954Y-95741742D01*
X131096034Y-96284576D01*
X131230538Y-96407844D01*
X131198683Y-96413838D01*
X130982559Y-96552910D01*
X130837569Y-96765110D01*
X130810051Y-96901000D01*
X129083841Y-96901000D01*
X129035102Y-96852262D01*
X128994162Y-96634683D01*
X128927671Y-96531354D01*
X128929327Y-96529698D01*
X129026000Y-96296309D01*
X129026000Y-96055750D01*
X128867250Y-95897000D01*
X128143000Y-95897000D01*
X128143000Y-95917000D01*
X127889000Y-95917000D01*
X127889000Y-95897000D01*
X127164750Y-95897000D01*
X127006000Y-96055750D01*
X127006000Y-96296309D01*
X127102673Y-96529698D01*
X127104043Y-96531068D01*
X127044569Y-96618110D01*
X126997217Y-96851943D01*
X126948160Y-96901000D01*
X125815901Y-96901000D01*
X125793147Y-96866946D01*
X125749223Y-96837597D01*
X125923698Y-96765327D01*
X126102327Y-96586699D01*
X126199000Y-96353310D01*
X126199000Y-95662750D01*
X126040250Y-95504000D01*
X124841000Y-95504000D01*
X124841000Y-95524000D01*
X124587000Y-95524000D01*
X124587000Y-95504000D01*
X123387750Y-95504000D01*
X123229000Y-95662750D01*
X123229000Y-96353310D01*
X123325673Y-96586699D01*
X123504302Y-96765327D01*
X123678777Y-96837597D01*
X123634853Y-96866946D01*
X123312946Y-97348715D01*
X123199907Y-97917000D01*
X115010000Y-97917000D01*
X115010000Y-94400690D01*
X123229000Y-94400690D01*
X123229000Y-95091250D01*
X123387750Y-95250000D01*
X124587000Y-95250000D01*
X124587000Y-94050750D01*
X124841000Y-94050750D01*
X124841000Y-95250000D01*
X126040250Y-95250000D01*
X126046559Y-95243691D01*
X127006000Y-95243691D01*
X127006000Y-95484250D01*
X127164750Y-95643000D01*
X127889000Y-95643000D01*
X127889000Y-94893750D01*
X128143000Y-94893750D01*
X128143000Y-95643000D01*
X128867250Y-95643000D01*
X129026000Y-95484250D01*
X129026000Y-95243691D01*
X128929327Y-95010302D01*
X128750699Y-94831673D01*
X128517310Y-94735000D01*
X128301750Y-94735000D01*
X128143000Y-94893750D01*
X127889000Y-94893750D01*
X127730250Y-94735000D01*
X127514690Y-94735000D01*
X127281301Y-94831673D01*
X127102673Y-95010302D01*
X127006000Y-95243691D01*
X126046559Y-95243691D01*
X126199000Y-95091250D01*
X126199000Y-94400690D01*
X126102327Y-94167301D01*
X125923698Y-93988673D01*
X125690309Y-93892000D01*
X124999750Y-93892000D01*
X124841000Y-94050750D01*
X124587000Y-94050750D01*
X124428250Y-93892000D01*
X123737691Y-93892000D01*
X123504302Y-93988673D01*
X123325673Y-94167301D01*
X123229000Y-94400690D01*
X115010000Y-94400690D01*
X115010000Y-82913403D01*
X119703682Y-82913403D01*
X119982455Y-83588086D01*
X120498199Y-84104730D01*
X121172395Y-84384681D01*
X121902403Y-84385318D01*
X122577086Y-84106545D01*
X123093730Y-83590801D01*
X123104028Y-83566000D01*
X126097710Y-83566000D01*
X126509509Y-83841155D01*
X127096928Y-83958000D01*
X127157072Y-83958000D01*
X127744491Y-83841155D01*
X128242481Y-83508409D01*
X128397000Y-83277155D01*
X128524000Y-83467224D01*
X128524000Y-85146293D01*
X128356371Y-85313630D01*
X128143243Y-85826900D01*
X128142758Y-86382661D01*
X128354990Y-86896303D01*
X128747630Y-87289629D01*
X129260900Y-87502757D01*
X129816661Y-87503242D01*
X130330303Y-87291010D01*
X130723629Y-86898370D01*
X130936757Y-86385100D01*
X130937242Y-85829339D01*
X130725010Y-85315697D01*
X130556000Y-85146392D01*
X130556000Y-83659739D01*
X130705026Y-83560163D01*
X130842910Y-83774441D01*
X131055110Y-83919431D01*
X131307000Y-83970440D01*
X133107000Y-83970440D01*
X133342317Y-83926162D01*
X133558441Y-83787090D01*
X133703431Y-83574890D01*
X133754440Y-83323000D01*
X133754440Y-82555691D01*
X143389000Y-82555691D01*
X143389000Y-82796250D01*
X143547750Y-82955000D01*
X144272000Y-82955000D01*
X144272000Y-82205750D01*
X144526000Y-82205750D01*
X144526000Y-82955000D01*
X145250250Y-82955000D01*
X145409000Y-82796250D01*
X145409000Y-82555691D01*
X145312327Y-82322302D01*
X145133699Y-82143673D01*
X144900310Y-82047000D01*
X144684750Y-82047000D01*
X144526000Y-82205750D01*
X144272000Y-82205750D01*
X144113250Y-82047000D01*
X143897690Y-82047000D01*
X143664301Y-82143673D01*
X143485673Y-82322302D01*
X143389000Y-82555691D01*
X133754440Y-82555691D01*
X133754440Y-82096875D01*
X133846258Y-82005057D01*
X134004535Y-81768178D01*
X134033463Y-81724884D01*
X134099201Y-81394399D01*
X134099201Y-78860691D01*
X170186000Y-78860691D01*
X170186000Y-79101250D01*
X170344750Y-79260000D01*
X171069000Y-79260000D01*
X171069000Y-78510750D01*
X171323000Y-78510750D01*
X171323000Y-79260000D01*
X172047250Y-79260000D01*
X172206000Y-79101250D01*
X172206000Y-78860691D01*
X172109327Y-78627302D01*
X171930699Y-78448673D01*
X171697310Y-78352000D01*
X171481750Y-78352000D01*
X171323000Y-78510750D01*
X171069000Y-78510750D01*
X170910250Y-78352000D01*
X170694690Y-78352000D01*
X170461301Y-78448673D01*
X170282673Y-78627302D01*
X170186000Y-78860691D01*
X134099201Y-78860691D01*
X134099201Y-75342750D01*
X145200000Y-75342750D01*
X145200000Y-76033310D01*
X145296673Y-76266699D01*
X145475302Y-76445327D01*
X145708691Y-76542000D01*
X146399250Y-76542000D01*
X146558000Y-76383250D01*
X146558000Y-75184000D01*
X146812000Y-75184000D01*
X146812000Y-76383250D01*
X146970750Y-76542000D01*
X147661309Y-76542000D01*
X147894698Y-76445327D01*
X148073327Y-76266699D01*
X148170000Y-76033310D01*
X148170000Y-75342750D01*
X148011250Y-75184000D01*
X146812000Y-75184000D01*
X146558000Y-75184000D01*
X145358750Y-75184000D01*
X145200000Y-75342750D01*
X134099201Y-75342750D01*
X134099201Y-74688601D01*
X134066380Y-74523600D01*
X136398000Y-74523600D01*
X136728485Y-74457862D01*
X136731538Y-74455822D01*
X137003907Y-74510000D01*
X137062093Y-74510000D01*
X137630378Y-74396961D01*
X138112147Y-74075054D01*
X138434054Y-73593285D01*
X138547093Y-73025000D01*
X138434054Y-72456715D01*
X138112147Y-71974946D01*
X138068223Y-71945597D01*
X138242698Y-71873327D01*
X138421327Y-71694699D01*
X138518000Y-71461310D01*
X138518000Y-70770750D01*
X138359250Y-70612000D01*
X137160000Y-70612000D01*
X137160000Y-70632000D01*
X136906000Y-70632000D01*
X136906000Y-70612000D01*
X135706750Y-70612000D01*
X135548000Y-70770750D01*
X135548000Y-71461310D01*
X135644673Y-71694699D01*
X135823302Y-71873327D01*
X135997777Y-71945597D01*
X135953853Y-71974946D01*
X135631946Y-72456715D01*
X135564378Y-72796400D01*
X133754440Y-72796400D01*
X133754440Y-72760000D01*
X133710162Y-72524683D01*
X133571090Y-72308559D01*
X133358890Y-72163569D01*
X133107000Y-72112560D01*
X131307000Y-72112560D01*
X131071683Y-72156838D01*
X130855559Y-72295910D01*
X130710569Y-72508110D01*
X130700234Y-72559146D01*
X130574576Y-72422034D01*
X130031742Y-72168954D01*
X129794000Y-72289003D01*
X129794000Y-73533000D01*
X129814000Y-73533000D01*
X129814000Y-73787000D01*
X129794000Y-73787000D01*
X129794000Y-75030997D01*
X129939505Y-75104470D01*
X129902673Y-75141302D01*
X129806000Y-75374691D01*
X129806000Y-76190250D01*
X129964748Y-76348998D01*
X129948515Y-76348998D01*
X129945327Y-76341302D01*
X129766699Y-76162673D01*
X129533310Y-76066000D01*
X129317750Y-76066000D01*
X129159000Y-76224750D01*
X129159000Y-76974000D01*
X129179000Y-76974000D01*
X129179000Y-77228000D01*
X129159000Y-77228000D01*
X129159000Y-77248000D01*
X128905000Y-77248000D01*
X128905000Y-77228000D01*
X128885000Y-77228000D01*
X128885000Y-76974000D01*
X128905000Y-76974000D01*
X128905000Y-76224750D01*
X128746250Y-76066000D01*
X128530690Y-76066000D01*
X128297301Y-76162673D01*
X128143000Y-76316975D01*
X128143000Y-74811880D01*
X128242481Y-74745409D01*
X128401501Y-74507418D01*
X128759424Y-74897966D01*
X129302258Y-75151046D01*
X129540000Y-75030997D01*
X129540000Y-73787000D01*
X129520000Y-73787000D01*
X129520000Y-73533000D01*
X129540000Y-73533000D01*
X129540000Y-72289003D01*
X129302258Y-72168954D01*
X128759424Y-72422034D01*
X128401501Y-72812582D01*
X128242481Y-72574591D01*
X127744491Y-72241845D01*
X127157072Y-72125000D01*
X127096928Y-72125000D01*
X126509509Y-72241845D01*
X126011519Y-72574591D01*
X125678773Y-73072581D01*
X125561928Y-73660000D01*
X125678773Y-74247419D01*
X126011519Y-74745409D01*
X126111000Y-74811880D01*
X126111000Y-81271120D01*
X126011519Y-81337591D01*
X125880283Y-81534000D01*
X123104671Y-81534000D01*
X123095545Y-81511914D01*
X122579801Y-80995270D01*
X121905605Y-80715319D01*
X121175597Y-80714682D01*
X120500914Y-80993455D01*
X119984270Y-81509199D01*
X119704319Y-82183395D01*
X119703682Y-82913403D01*
X115010000Y-82913403D01*
X115010000Y-69814050D01*
X119704000Y-69814050D01*
X119704000Y-69885950D01*
X119843681Y-70588174D01*
X120241459Y-71183491D01*
X120836776Y-71581269D01*
X121539000Y-71720950D01*
X122241224Y-71581269D01*
X122836541Y-71183491D01*
X123234319Y-70588174D01*
X123374000Y-69885950D01*
X123374000Y-69814050D01*
X123313906Y-69511935D01*
X123317151Y-69508690D01*
X135548000Y-69508690D01*
X135548000Y-70199250D01*
X135706750Y-70358000D01*
X136906000Y-70358000D01*
X136906000Y-69158750D01*
X137160000Y-69158750D01*
X137160000Y-70358000D01*
X138359250Y-70358000D01*
X138518000Y-70199250D01*
X138518000Y-69508690D01*
X138421327Y-69275301D01*
X138242698Y-69096673D01*
X138009309Y-69000000D01*
X137318750Y-69000000D01*
X137160000Y-69158750D01*
X136906000Y-69158750D01*
X136747250Y-69000000D01*
X136056691Y-69000000D01*
X135823302Y-69096673D01*
X135644673Y-69275301D01*
X135548000Y-69508690D01*
X123317151Y-69508690D01*
X124907401Y-67918440D01*
X126199000Y-67918440D01*
X126434317Y-67874162D01*
X126650441Y-67735090D01*
X126795431Y-67522890D01*
X126846440Y-67271000D01*
X126846440Y-67096640D01*
X127780040Y-67096640D01*
X127780040Y-67483990D01*
X127824318Y-67719307D01*
X127963390Y-67935431D01*
X128175590Y-68080421D01*
X128427480Y-68131430D01*
X129428240Y-68131430D01*
X129663557Y-68087152D01*
X129675414Y-68079522D01*
X129676730Y-68080421D01*
X129928620Y-68131430D01*
X130929380Y-68131430D01*
X131164697Y-68087152D01*
X131176554Y-68079522D01*
X131177870Y-68080421D01*
X131429760Y-68131430D01*
X132430520Y-68131430D01*
X132665837Y-68087152D01*
X132881961Y-67948080D01*
X133026951Y-67735880D01*
X133077960Y-67483990D01*
X133077960Y-66664600D01*
X133720202Y-66664600D01*
X133912000Y-66703440D01*
X134312000Y-66703440D01*
X134518417Y-66664600D01*
X135417200Y-66664600D01*
X135747685Y-66598862D01*
X136027857Y-66411657D01*
X137267657Y-65171857D01*
X137454862Y-64891685D01*
X137464477Y-64843346D01*
X137489593Y-64717083D01*
X137542317Y-64707162D01*
X137758441Y-64568090D01*
X137903431Y-64355890D01*
X137954440Y-64104000D01*
X137954440Y-63579940D01*
X138009554Y-63635054D01*
X138123286Y-63521322D01*
X138252533Y-63814123D01*
X138952806Y-64082388D01*
X139702435Y-64062250D01*
X140301467Y-63814123D01*
X140430715Y-63521320D01*
X139277000Y-62367605D01*
X139262858Y-62381748D01*
X139083253Y-62202143D01*
X139097395Y-62188000D01*
X137943680Y-61034285D01*
X137800111Y-61097659D01*
X137771090Y-61052559D01*
X137594350Y-60931798D01*
X138036846Y-60490073D01*
X138063202Y-60426600D01*
X138579121Y-60426600D01*
X138252533Y-60561877D01*
X138123285Y-60854680D01*
X139277000Y-62008395D01*
X140430715Y-60854680D01*
X140301467Y-60561877D01*
X139948343Y-60426600D01*
X141541399Y-60426600D01*
X141623110Y-60482431D01*
X141875000Y-60533440D01*
X142375000Y-60533440D01*
X142610317Y-60489162D01*
X142826441Y-60350090D01*
X142874134Y-60280289D01*
X142910910Y-60337441D01*
X142986345Y-60388983D01*
X142815283Y-60503283D01*
X142815281Y-60503286D01*
X141529283Y-61789283D01*
X141350337Y-62057094D01*
X141317600Y-62221674D01*
X141211559Y-62289910D01*
X141167162Y-62354887D01*
X141151250Y-61762565D01*
X140903123Y-61163533D01*
X140610320Y-61034285D01*
X139456605Y-62188000D01*
X140610320Y-63341715D01*
X140903123Y-63212467D01*
X141015560Y-62918964D01*
X141015560Y-63254000D01*
X141059838Y-63489317D01*
X141198910Y-63705441D01*
X141268711Y-63753134D01*
X141211559Y-63789910D01*
X141066569Y-64002110D01*
X141015560Y-64254000D01*
X141015560Y-64754000D01*
X141059838Y-64989317D01*
X141198910Y-65205441D01*
X141317649Y-65286572D01*
X141350337Y-65450906D01*
X141529283Y-65718717D01*
X143335281Y-67524714D01*
X143335283Y-67524717D01*
X143523775Y-67650663D01*
X143603095Y-67703663D01*
X143919000Y-67766501D01*
X143919005Y-67766500D01*
X144713018Y-67766500D01*
X144697569Y-67789110D01*
X144646560Y-68041000D01*
X144646560Y-68841000D01*
X144690838Y-69076317D01*
X144829910Y-69292441D01*
X145042110Y-69437431D01*
X145294000Y-69488440D01*
X145524007Y-69488440D01*
X145904782Y-69869215D01*
X145904784Y-69869218D01*
X146172596Y-70048164D01*
X146488501Y-70111001D01*
X148302345Y-70111001D01*
X148449560Y-70081718D01*
X148449560Y-70275500D01*
X148493838Y-70510817D01*
X148632910Y-70726941D01*
X148845110Y-70871931D01*
X149033500Y-70910081D01*
X149033500Y-71691500D01*
X147914189Y-71691500D01*
X147764147Y-71466946D01*
X147282378Y-71145039D01*
X146714093Y-71032000D01*
X146655907Y-71032000D01*
X146087622Y-71145039D01*
X145605853Y-71466946D01*
X145283946Y-71948715D01*
X145170907Y-72517000D01*
X145283946Y-73085285D01*
X145605853Y-73567054D01*
X145649777Y-73596403D01*
X145475302Y-73668673D01*
X145296673Y-73847301D01*
X145200000Y-74080690D01*
X145200000Y-74771250D01*
X145358750Y-74930000D01*
X146558000Y-74930000D01*
X146558000Y-74910000D01*
X146812000Y-74910000D01*
X146812000Y-74930000D01*
X148011250Y-74930000D01*
X148170000Y-74771250D01*
X148170000Y-74556750D01*
X148850000Y-74556750D01*
X148850000Y-74797309D01*
X148946673Y-75030698D01*
X149125301Y-75209327D01*
X149358690Y-75306000D01*
X149574250Y-75306000D01*
X149733000Y-75147250D01*
X149733000Y-74398000D01*
X149987000Y-74398000D01*
X149987000Y-75147250D01*
X150145750Y-75306000D01*
X150361310Y-75306000D01*
X150594699Y-75209327D01*
X150773327Y-75030698D01*
X150870000Y-74797309D01*
X150870000Y-74568750D01*
X153041000Y-74568750D01*
X153041000Y-74809309D01*
X153137673Y-75042698D01*
X153316301Y-75221327D01*
X153549690Y-75318000D01*
X153765250Y-75318000D01*
X153924000Y-75159250D01*
X153924000Y-74410000D01*
X154178000Y-74410000D01*
X154178000Y-75159250D01*
X154336750Y-75318000D01*
X154552310Y-75318000D01*
X154785699Y-75221327D01*
X154964327Y-75042698D01*
X155061000Y-74809309D01*
X155061000Y-74580750D01*
X155073000Y-74580750D01*
X155073000Y-74821309D01*
X155169673Y-75054698D01*
X155348301Y-75233327D01*
X155581690Y-75330000D01*
X155797250Y-75330000D01*
X155956000Y-75171250D01*
X155956000Y-74422000D01*
X156210000Y-74422000D01*
X156210000Y-75171250D01*
X156368750Y-75330000D01*
X156584310Y-75330000D01*
X156817699Y-75233327D01*
X156996327Y-75054698D01*
X157093000Y-74821309D01*
X157093000Y-74580750D01*
X156934250Y-74422000D01*
X156210000Y-74422000D01*
X155956000Y-74422000D01*
X155231750Y-74422000D01*
X155073000Y-74580750D01*
X155061000Y-74580750D01*
X155061000Y-74568750D01*
X154902250Y-74410000D01*
X154178000Y-74410000D01*
X153924000Y-74410000D01*
X153199750Y-74410000D01*
X153041000Y-74568750D01*
X150870000Y-74568750D01*
X150870000Y-74556750D01*
X150711250Y-74398000D01*
X149987000Y-74398000D01*
X149733000Y-74398000D01*
X149008750Y-74398000D01*
X148850000Y-74556750D01*
X148170000Y-74556750D01*
X148170000Y-74080690D01*
X148073327Y-73847301D01*
X147894698Y-73668673D01*
X147720223Y-73596403D01*
X147764147Y-73567054D01*
X147914189Y-73342500D01*
X148869830Y-73342500D01*
X148881838Y-73406317D01*
X148948329Y-73509646D01*
X148946673Y-73511302D01*
X148850000Y-73744691D01*
X148850000Y-73985250D01*
X149008750Y-74144000D01*
X149733000Y-74144000D01*
X149733000Y-74124000D01*
X149987000Y-74124000D01*
X149987000Y-74144000D01*
X150711250Y-74144000D01*
X150870000Y-73985250D01*
X150870000Y-73744691D01*
X150773327Y-73511302D01*
X150771957Y-73509932D01*
X150831431Y-73422890D01*
X150882440Y-73171000D01*
X150882440Y-72383000D01*
X153028560Y-72383000D01*
X153028560Y-73183000D01*
X153072838Y-73418317D01*
X153139329Y-73521646D01*
X153137673Y-73523302D01*
X153041000Y-73756691D01*
X153041000Y-73997250D01*
X153199750Y-74156000D01*
X153924000Y-74156000D01*
X153924000Y-74136000D01*
X154178000Y-74136000D01*
X154178000Y-74156000D01*
X154902250Y-74156000D01*
X155061000Y-73997250D01*
X155061000Y-73756691D01*
X154964327Y-73523302D01*
X154962957Y-73521932D01*
X155022431Y-73434890D01*
X155065593Y-73221749D01*
X155104838Y-73430317D01*
X155171329Y-73533646D01*
X155169673Y-73535302D01*
X155073000Y-73768691D01*
X155073000Y-74009250D01*
X155231750Y-74168000D01*
X155956000Y-74168000D01*
X155956000Y-74148000D01*
X156210000Y-74148000D01*
X156210000Y-74168000D01*
X156934250Y-74168000D01*
X157093000Y-74009250D01*
X157093000Y-73768691D01*
X156996327Y-73535302D01*
X156994957Y-73533932D01*
X157054431Y-73446890D01*
X157105440Y-73195000D01*
X157105440Y-72395000D01*
X157068065Y-72196368D01*
X157239215Y-72025218D01*
X157239218Y-72025216D01*
X157359000Y-71845949D01*
X157359000Y-71870002D01*
X157517748Y-71870002D01*
X157359000Y-72028750D01*
X157359000Y-72269309D01*
X157455673Y-72502698D01*
X157634301Y-72681327D01*
X157867690Y-72778000D01*
X158083250Y-72778000D01*
X158242000Y-72619250D01*
X158242000Y-71870000D01*
X158222000Y-71870000D01*
X158222000Y-71616000D01*
X158242000Y-71616000D01*
X158242000Y-71596000D01*
X158496000Y-71596000D01*
X158496000Y-71616000D01*
X158516000Y-71616000D01*
X158516000Y-71870000D01*
X158496000Y-71870000D01*
X158496000Y-72619250D01*
X158654750Y-72778000D01*
X158870310Y-72778000D01*
X159103699Y-72681327D01*
X159282327Y-72502698D01*
X159303560Y-72451437D01*
X159303560Y-72501000D01*
X159347838Y-72736317D01*
X159486910Y-72952441D01*
X159575500Y-73012972D01*
X159575500Y-73907126D01*
X159217371Y-74264630D01*
X159004243Y-74777900D01*
X159003758Y-75333661D01*
X159215990Y-75847303D01*
X159608630Y-76240629D01*
X160121900Y-76453757D01*
X160677661Y-76454242D01*
X160934012Y-76348320D01*
X162591285Y-76348320D01*
X162720533Y-76641123D01*
X163420806Y-76909388D01*
X164170435Y-76889250D01*
X164769467Y-76641123D01*
X164898715Y-76348320D01*
X167841285Y-76348320D01*
X167970533Y-76641123D01*
X168670806Y-76909388D01*
X169420435Y-76889250D01*
X170019467Y-76641123D01*
X170148715Y-76348320D01*
X168995000Y-75194605D01*
X167841285Y-76348320D01*
X164898715Y-76348320D01*
X163745000Y-75194605D01*
X162591285Y-76348320D01*
X160934012Y-76348320D01*
X161191303Y-76242010D01*
X161584629Y-75849370D01*
X161797757Y-75336100D01*
X161798242Y-74780339D01*
X161761248Y-74690806D01*
X161850612Y-74690806D01*
X161870750Y-75440435D01*
X162118877Y-76039467D01*
X162411680Y-76168715D01*
X163565395Y-75015000D01*
X163924605Y-75015000D01*
X165078320Y-76168715D01*
X165371123Y-76039467D01*
X165639388Y-75339194D01*
X165621970Y-74690806D01*
X167100612Y-74690806D01*
X167120750Y-75440435D01*
X167368877Y-76039467D01*
X167661680Y-76168715D01*
X168815395Y-75015000D01*
X169174605Y-75015000D01*
X170328320Y-76168715D01*
X170621123Y-76039467D01*
X170889388Y-75339194D01*
X170869250Y-74589565D01*
X170621123Y-73990533D01*
X170328320Y-73861285D01*
X169174605Y-75015000D01*
X168815395Y-75015000D01*
X167661680Y-73861285D01*
X167368877Y-73990533D01*
X167100612Y-74690806D01*
X165621970Y-74690806D01*
X165619250Y-74589565D01*
X165371123Y-73990533D01*
X165078320Y-73861285D01*
X163924605Y-75015000D01*
X163565395Y-75015000D01*
X162411680Y-73861285D01*
X162118877Y-73990533D01*
X161850612Y-74690806D01*
X161761248Y-74690806D01*
X161586010Y-74266697D01*
X161226500Y-73906559D01*
X161226500Y-73681680D01*
X162591285Y-73681680D01*
X163745000Y-74835395D01*
X164898715Y-73681680D01*
X164769467Y-73388877D01*
X164069194Y-73120612D01*
X163319565Y-73140750D01*
X162720533Y-73388877D01*
X162591285Y-73681680D01*
X161226500Y-73681680D01*
X161226500Y-73013957D01*
X161302441Y-72965090D01*
X161447431Y-72752890D01*
X161498440Y-72501000D01*
X161498440Y-72001000D01*
X161454162Y-71765683D01*
X161315090Y-71549559D01*
X161245289Y-71501866D01*
X161302441Y-71465090D01*
X161447431Y-71252890D01*
X161478732Y-71098320D01*
X162591285Y-71098320D01*
X162720533Y-71391123D01*
X163420806Y-71659388D01*
X164170435Y-71639250D01*
X164769467Y-71391123D01*
X164898715Y-71098320D01*
X163745000Y-69944605D01*
X162591285Y-71098320D01*
X161478732Y-71098320D01*
X161498440Y-71001000D01*
X161498440Y-70501000D01*
X161454162Y-70265683D01*
X161315090Y-70049559D01*
X161102890Y-69904569D01*
X160851000Y-69853560D01*
X160670994Y-69853560D01*
X160476717Y-69659283D01*
X160208906Y-69480337D01*
X159893000Y-69417500D01*
X159224783Y-69417500D01*
X159208090Y-69391559D01*
X158995890Y-69246569D01*
X158801045Y-69207112D01*
X157939214Y-68345280D01*
X158238931Y-68285663D01*
X158506742Y-68106717D01*
X158880560Y-67732899D01*
X158880560Y-68522000D01*
X158924838Y-68757317D01*
X159063910Y-68973441D01*
X159276110Y-69118431D01*
X159528000Y-69169440D01*
X160028000Y-69169440D01*
X160263317Y-69125162D01*
X160479441Y-68986090D01*
X160527134Y-68916289D01*
X160563910Y-68973441D01*
X160776110Y-69118431D01*
X161028000Y-69169440D01*
X161528000Y-69169440D01*
X161763317Y-69125162D01*
X161979441Y-68986090D01*
X162082703Y-68834961D01*
X161850612Y-69440806D01*
X161870750Y-70190435D01*
X162118877Y-70789467D01*
X162411680Y-70918715D01*
X163565395Y-69765000D01*
X163924605Y-69765000D01*
X165078320Y-70918715D01*
X165371123Y-70789467D01*
X165639388Y-70089194D01*
X165621970Y-69440806D01*
X167100612Y-69440806D01*
X167120750Y-70190435D01*
X167368877Y-70789467D01*
X167661680Y-70918715D01*
X168815395Y-69765000D01*
X167661680Y-68611285D01*
X167368877Y-68740533D01*
X167100612Y-69440806D01*
X165621970Y-69440806D01*
X165619250Y-69339565D01*
X165371123Y-68740533D01*
X165078320Y-68611285D01*
X163924605Y-69765000D01*
X163565395Y-69765000D01*
X162411680Y-68611285D01*
X162132394Y-68734566D01*
X162175440Y-68522000D01*
X162175440Y-67949707D01*
X162184000Y-67951440D01*
X162984000Y-67951440D01*
X163219317Y-67907162D01*
X163333978Y-67833380D01*
X163414220Y-67888207D01*
X163319565Y-67890750D01*
X162720533Y-68138877D01*
X162591285Y-68431680D01*
X163745000Y-69585395D01*
X164898715Y-68431680D01*
X164769467Y-68138877D01*
X164280186Y-67951440D01*
X164484000Y-67951440D01*
X164654927Y-67919278D01*
X164737110Y-67975431D01*
X164989000Y-68026440D01*
X165489000Y-68026440D01*
X165724317Y-67982162D01*
X165940441Y-67843090D01*
X165988134Y-67773289D01*
X166024910Y-67830441D01*
X166237110Y-67975431D01*
X166489000Y-68026440D01*
X166989000Y-68026440D01*
X167224317Y-67982162D01*
X167365749Y-67891153D01*
X167388110Y-67906431D01*
X167640000Y-67957440D01*
X168408561Y-67957440D01*
X167970533Y-68138877D01*
X167841285Y-68431680D01*
X168995000Y-69585395D01*
X170148715Y-68431680D01*
X170019467Y-68138877D01*
X169461904Y-67925282D01*
X169526317Y-67913162D01*
X169742441Y-67774090D01*
X169887431Y-67561890D01*
X169938440Y-67310000D01*
X169938440Y-66548000D01*
X169894162Y-66312683D01*
X169876645Y-66285461D01*
X169926000Y-66166309D01*
X169926000Y-65944750D01*
X169767250Y-65786000D01*
X168592500Y-65786000D01*
X168592500Y-65806000D01*
X168338500Y-65806000D01*
X168338500Y-65786000D01*
X167163750Y-65786000D01*
X167096434Y-65853316D01*
X166989000Y-65831560D01*
X166489000Y-65831560D01*
X166253683Y-65875838D01*
X166037559Y-66014910D01*
X165989866Y-66084711D01*
X165953090Y-66027559D01*
X165740890Y-65882569D01*
X165489000Y-65831560D01*
X164989000Y-65831560D01*
X164753683Y-65875838D01*
X164652814Y-65940746D01*
X164484000Y-65906560D01*
X163684000Y-65906560D01*
X163448683Y-65950838D01*
X163334022Y-66024620D01*
X163235890Y-65957569D01*
X162984000Y-65906560D01*
X162184000Y-65906560D01*
X162175612Y-65908138D01*
X162143162Y-65735683D01*
X162046659Y-65585713D01*
X162124431Y-65471890D01*
X162138537Y-65402233D01*
X162184000Y-65411440D01*
X162984000Y-65411440D01*
X163219317Y-65367162D01*
X163333978Y-65293380D01*
X163432110Y-65360431D01*
X163684000Y-65411440D01*
X164484000Y-65411440D01*
X164719317Y-65367162D01*
X164736249Y-65356267D01*
X164852110Y-65435431D01*
X165104000Y-65486440D01*
X165604000Y-65486440D01*
X165839317Y-65442162D01*
X166055441Y-65303090D01*
X166103134Y-65233289D01*
X166139910Y-65290441D01*
X166352110Y-65435431D01*
X166604000Y-65486440D01*
X167104000Y-65486440D01*
X167115943Y-65484193D01*
X167163750Y-65532000D01*
X168338500Y-65532000D01*
X168338500Y-65512000D01*
X168592500Y-65512000D01*
X168592500Y-65532000D01*
X169767250Y-65532000D01*
X169926000Y-65373250D01*
X169926000Y-65151691D01*
X169877970Y-65035737D01*
X169887431Y-65021890D01*
X169938440Y-64770000D01*
X169938440Y-64674750D01*
X170180000Y-64674750D01*
X170180000Y-64896309D01*
X170276673Y-65129698D01*
X170455301Y-65308327D01*
X170688690Y-65405000D01*
X171354750Y-65405000D01*
X171513500Y-65246250D01*
X171513500Y-64516000D01*
X171767500Y-64516000D01*
X171767500Y-65246250D01*
X171926250Y-65405000D01*
X172592310Y-65405000D01*
X172825699Y-65308327D01*
X173004327Y-65129698D01*
X173101000Y-64896309D01*
X173101000Y-64674750D01*
X172942250Y-64516000D01*
X171767500Y-64516000D01*
X171513500Y-64516000D01*
X170338750Y-64516000D01*
X170180000Y-64674750D01*
X169938440Y-64674750D01*
X169938440Y-64008000D01*
X169914674Y-63881691D01*
X170180000Y-63881691D01*
X170180000Y-64103250D01*
X170338750Y-64262000D01*
X171513500Y-64262000D01*
X171513500Y-63531750D01*
X171767500Y-63531750D01*
X171767500Y-64262000D01*
X172942250Y-64262000D01*
X173101000Y-64103250D01*
X173101000Y-63881691D01*
X173004327Y-63648302D01*
X172825699Y-63469673D01*
X172592310Y-63373000D01*
X171926250Y-63373000D01*
X171767500Y-63531750D01*
X171513500Y-63531750D01*
X171354750Y-63373000D01*
X170688690Y-63373000D01*
X170455301Y-63469673D01*
X170276673Y-63648302D01*
X170180000Y-63881691D01*
X169914674Y-63881691D01*
X169894162Y-63772683D01*
X169755090Y-63556559D01*
X169542890Y-63411569D01*
X169291000Y-63360560D01*
X167640000Y-63360560D01*
X167437881Y-63398591D01*
X167355890Y-63342569D01*
X167104000Y-63291560D01*
X166604000Y-63291560D01*
X166368683Y-63335838D01*
X166152559Y-63474910D01*
X166104866Y-63544711D01*
X166068090Y-63487559D01*
X165855890Y-63342569D01*
X165604000Y-63291560D01*
X165104000Y-63291560D01*
X164868683Y-63335838D01*
X164738693Y-63419484D01*
X164735890Y-63417569D01*
X164484000Y-63366560D01*
X163862723Y-63366560D01*
X163993970Y-63235542D01*
X164207098Y-62722272D01*
X164207542Y-62213405D01*
X165683714Y-60737232D01*
X165683717Y-60737230D01*
X165862663Y-60469418D01*
X165925500Y-60153513D01*
X165925500Y-56474189D01*
X166150054Y-56324147D01*
X166177850Y-56282548D01*
X166186838Y-56330317D01*
X166325910Y-56546441D01*
X166538110Y-56691431D01*
X166790000Y-56742440D01*
X168490000Y-56742440D01*
X168725317Y-56698162D01*
X168941441Y-56559090D01*
X169086431Y-56346890D01*
X169137440Y-56095000D01*
X169137440Y-55052619D01*
X171754613Y-55052619D01*
X172094155Y-55874372D01*
X172722321Y-56503636D01*
X173543481Y-56844611D01*
X174432619Y-56845387D01*
X175254372Y-56505845D01*
X175883636Y-55877679D01*
X176224611Y-55056519D01*
X176225387Y-54167381D01*
X175885845Y-53345628D01*
X175257679Y-52716364D01*
X174436519Y-52375389D01*
X173547381Y-52374613D01*
X172725628Y-52714155D01*
X172096364Y-53342321D01*
X171755389Y-54163481D01*
X171754613Y-55052619D01*
X169137440Y-55052619D01*
X169137440Y-54395000D01*
X169093162Y-54159683D01*
X168954090Y-53943559D01*
X168741890Y-53798569D01*
X168627699Y-53775445D01*
X168835183Y-53586358D01*
X169081486Y-53061892D01*
X168960819Y-52832000D01*
X167767000Y-52832000D01*
X167767000Y-52852000D01*
X167513000Y-52852000D01*
X167513000Y-52832000D01*
X165227000Y-52832000D01*
X165227000Y-52852000D01*
X164973000Y-52852000D01*
X164973000Y-52832000D01*
X162687000Y-52832000D01*
X162687000Y-52852000D01*
X162433000Y-52852000D01*
X162433000Y-52832000D01*
X160147000Y-52832000D01*
X160147000Y-52852000D01*
X159893000Y-52852000D01*
X159893000Y-52832000D01*
X157607000Y-52832000D01*
X157607000Y-52852000D01*
X157353000Y-52852000D01*
X157353000Y-52832000D01*
X155067000Y-52832000D01*
X155067000Y-52852000D01*
X154813000Y-52852000D01*
X154813000Y-52832000D01*
X153619181Y-52832000D01*
X153498514Y-53061892D01*
X153744817Y-53586358D01*
X154173076Y-53976645D01*
X154173101Y-53976655D01*
X153889946Y-54165853D01*
X153568039Y-54647622D01*
X153455000Y-55215907D01*
X153455000Y-55274093D01*
X153568039Y-55842378D01*
X153889946Y-56324147D01*
X154371715Y-56646054D01*
X154940000Y-56759093D01*
X155508285Y-56646054D01*
X155990054Y-56324147D01*
X156210000Y-55994974D01*
X156429946Y-56324147D01*
X156911715Y-56646054D01*
X157480000Y-56759093D01*
X158048285Y-56646054D01*
X158530054Y-56324147D01*
X158750000Y-55994974D01*
X158969946Y-56324147D01*
X159451715Y-56646054D01*
X160020000Y-56759093D01*
X160588285Y-56646054D01*
X161070054Y-56324147D01*
X161290000Y-55994974D01*
X161509946Y-56324147D01*
X161991715Y-56646054D01*
X162560000Y-56759093D01*
X163128285Y-56646054D01*
X163610054Y-56324147D01*
X163830000Y-55994974D01*
X164049946Y-56324147D01*
X164274500Y-56474189D01*
X164274500Y-59811580D01*
X163039707Y-61046372D01*
X162533680Y-61045930D01*
X162020038Y-61258162D01*
X161626712Y-61650802D01*
X161472760Y-62021560D01*
X161028000Y-62021560D01*
X160792683Y-62065838D01*
X160576559Y-62204910D01*
X160528866Y-62274711D01*
X160492090Y-62217559D01*
X160279890Y-62072569D01*
X160028000Y-62021560D01*
X159528000Y-62021560D01*
X159292683Y-62065838D01*
X159076559Y-62204910D01*
X158931569Y-62417110D01*
X158880560Y-62669000D01*
X158880560Y-63569000D01*
X158924838Y-63804317D01*
X158952500Y-63847305D01*
X158952500Y-64037476D01*
X158931569Y-64068110D01*
X158880560Y-64320000D01*
X158880560Y-64500007D01*
X158731632Y-64648935D01*
X158665010Y-64487697D01*
X158272370Y-64094371D01*
X157759100Y-63881243D01*
X157203339Y-63880758D01*
X156846000Y-64028407D01*
X156846000Y-64009190D01*
X156749327Y-63775801D01*
X156570698Y-63597173D01*
X156337309Y-63500500D01*
X155734750Y-63500500D01*
X155576000Y-63659250D01*
X155576000Y-64128060D01*
X155322000Y-64128060D01*
X155322000Y-63659250D01*
X155163250Y-63500500D01*
X154560691Y-63500500D01*
X154327302Y-63597173D01*
X154148673Y-63775801D01*
X154052000Y-64009190D01*
X154052000Y-64071750D01*
X154210750Y-64230500D01*
X154361297Y-64230500D01*
X154235559Y-64311410D01*
X154090569Y-64523610D01*
X154086234Y-64545016D01*
X154052000Y-64579250D01*
X154052000Y-64641810D01*
X154061828Y-64665537D01*
X154039560Y-64775500D01*
X154039560Y-65155500D01*
X154064919Y-65290272D01*
X154039560Y-65415500D01*
X154039560Y-65795500D01*
X154060744Y-65908081D01*
X154052000Y-65929190D01*
X154052000Y-65991750D01*
X154082163Y-66021913D01*
X154083838Y-66030817D01*
X154222910Y-66246941D01*
X154224299Y-66247890D01*
X154090569Y-66443610D01*
X154086234Y-66465016D01*
X154052000Y-66499250D01*
X154052000Y-66561810D01*
X154061828Y-66585537D01*
X154039560Y-66695500D01*
X154039560Y-67075500D01*
X154064919Y-67210272D01*
X154039560Y-67335500D01*
X154039560Y-67715500D01*
X154064919Y-67850272D01*
X154039560Y-67975500D01*
X154039560Y-68355500D01*
X154064919Y-68490272D01*
X154039560Y-68615500D01*
X154039560Y-68995500D01*
X154064919Y-69130272D01*
X154039560Y-69255500D01*
X154039560Y-69635500D01*
X154064919Y-69770272D01*
X154039560Y-69895500D01*
X154039560Y-70275500D01*
X154083838Y-70510817D01*
X154222910Y-70726941D01*
X154435110Y-70871931D01*
X154623500Y-70910081D01*
X154623500Y-71043067D01*
X153931006Y-71735560D01*
X153676000Y-71735560D01*
X153440683Y-71779838D01*
X153224559Y-71918910D01*
X153079569Y-72131110D01*
X153028560Y-72383000D01*
X150882440Y-72383000D01*
X150882440Y-72371000D01*
X150838162Y-72135683D01*
X150699090Y-71919559D01*
X150684500Y-71909590D01*
X150684500Y-70910992D01*
X150856317Y-70878662D01*
X151072441Y-70739590D01*
X151217431Y-70527390D01*
X151268440Y-70275500D01*
X151268440Y-69895500D01*
X151247256Y-69782919D01*
X151256000Y-69761810D01*
X151256000Y-69699250D01*
X151225837Y-69669087D01*
X151224162Y-69660183D01*
X151085090Y-69444059D01*
X151083701Y-69443110D01*
X151217431Y-69247390D01*
X151221766Y-69225984D01*
X151256000Y-69191750D01*
X151256000Y-69129190D01*
X151246172Y-69105463D01*
X151268440Y-68995500D01*
X151268440Y-68615500D01*
X151243081Y-68480728D01*
X151268440Y-68355500D01*
X151268440Y-67975500D01*
X151247256Y-67862919D01*
X151256000Y-67841810D01*
X151256000Y-67779250D01*
X151225837Y-67749087D01*
X151224162Y-67740183D01*
X151085090Y-67524059D01*
X151083701Y-67523110D01*
X151217431Y-67327390D01*
X151221766Y-67305984D01*
X151256000Y-67271750D01*
X151256000Y-67209190D01*
X151246172Y-67185463D01*
X151268440Y-67075500D01*
X151268440Y-66695500D01*
X151243081Y-66560728D01*
X151268440Y-66435500D01*
X151268440Y-66055500D01*
X151243081Y-65920728D01*
X151268440Y-65795500D01*
X151268440Y-65415500D01*
X151243081Y-65280728D01*
X151268440Y-65155500D01*
X151268440Y-64775500D01*
X151243081Y-64640728D01*
X151268440Y-64515500D01*
X151268440Y-64135500D01*
X151224162Y-63900183D01*
X151085090Y-63684059D01*
X150872890Y-63539069D01*
X150684500Y-63500919D01*
X150684500Y-63322934D01*
X151503993Y-62503440D01*
X151759000Y-62503440D01*
X151994317Y-62459162D01*
X152210441Y-62320090D01*
X152355431Y-62107890D01*
X152406440Y-61856000D01*
X152406440Y-61056000D01*
X152362162Y-60820683D01*
X152295671Y-60717354D01*
X152297327Y-60715698D01*
X152394000Y-60482309D01*
X152394000Y-60241750D01*
X152235250Y-60083000D01*
X151511000Y-60083000D01*
X151511000Y-60103000D01*
X151257000Y-60103000D01*
X151257000Y-60083000D01*
X150532750Y-60083000D01*
X150495000Y-60120750D01*
X150457250Y-60083000D01*
X149733000Y-60083000D01*
X149733000Y-60103000D01*
X149479000Y-60103000D01*
X149479000Y-60083000D01*
X148754750Y-60083000D01*
X148596000Y-60241750D01*
X148596000Y-60482309D01*
X148672045Y-60665897D01*
X148534095Y-60693337D01*
X148266283Y-60872283D01*
X148266281Y-60872286D01*
X148149000Y-60989567D01*
X148101440Y-60942007D01*
X148101440Y-60712000D01*
X148057162Y-60476683D01*
X147918090Y-60260559D01*
X147743076Y-60140977D01*
X147796431Y-60062890D01*
X147847440Y-59811000D01*
X147847440Y-59429691D01*
X148596000Y-59429691D01*
X148596000Y-59670250D01*
X148754750Y-59829000D01*
X149479000Y-59829000D01*
X149479000Y-59079750D01*
X149733000Y-59079750D01*
X149733000Y-59829000D01*
X150457250Y-59829000D01*
X150495000Y-59791250D01*
X150532750Y-59829000D01*
X151257000Y-59829000D01*
X151257000Y-59079750D01*
X151511000Y-59079750D01*
X151511000Y-59829000D01*
X152235250Y-59829000D01*
X152394000Y-59670250D01*
X152394000Y-59429691D01*
X152297327Y-59196302D01*
X152118699Y-59017673D01*
X151885310Y-58921000D01*
X151669750Y-58921000D01*
X151511000Y-59079750D01*
X151257000Y-59079750D01*
X151098250Y-58921000D01*
X150882690Y-58921000D01*
X150649301Y-59017673D01*
X150495000Y-59171975D01*
X150340699Y-59017673D01*
X150107310Y-58921000D01*
X149891750Y-58921000D01*
X149733000Y-59079750D01*
X149479000Y-59079750D01*
X149320250Y-58921000D01*
X149104690Y-58921000D01*
X148871301Y-59017673D01*
X148692673Y-59196302D01*
X148596000Y-59429691D01*
X147847440Y-59429691D01*
X147847440Y-59061000D01*
X147803162Y-58825683D01*
X147664090Y-58609559D01*
X147451890Y-58464569D01*
X147200000Y-58413560D01*
X146400000Y-58413560D01*
X146164683Y-58457838D01*
X146050022Y-58531620D01*
X145951890Y-58464569D01*
X145700000Y-58413560D01*
X145610056Y-58413560D01*
X145665317Y-58403162D01*
X145881441Y-58264090D01*
X146026431Y-58051890D01*
X146077440Y-57800000D01*
X146077440Y-56500000D01*
X146033162Y-56264683D01*
X145894090Y-56048559D01*
X145681890Y-55903569D01*
X145430000Y-55852560D01*
X145267615Y-55852560D01*
X145443729Y-55779611D01*
X145499410Y-55549016D01*
X144780000Y-54829605D01*
X144060590Y-55549016D01*
X144116271Y-55779611D01*
X144325902Y-55852560D01*
X144130000Y-55852560D01*
X143894683Y-55896838D01*
X143678559Y-56035910D01*
X143533569Y-56248110D01*
X143518100Y-56324500D01*
X142869000Y-56324500D01*
X142869000Y-56177750D01*
X142710250Y-56019000D01*
X141986000Y-56019000D01*
X141986000Y-56039000D01*
X141732000Y-56039000D01*
X141732000Y-56019000D01*
X141712000Y-56019000D01*
X141712000Y-55765000D01*
X141732000Y-55765000D01*
X141732000Y-55015750D01*
X141986000Y-55015750D01*
X141986000Y-55765000D01*
X142710250Y-55765000D01*
X142869000Y-55606250D01*
X142869000Y-55365691D01*
X142772327Y-55132302D01*
X142593699Y-54953673D01*
X142360310Y-54857000D01*
X142144750Y-54857000D01*
X141986000Y-55015750D01*
X141732000Y-55015750D01*
X141573250Y-54857000D01*
X141357690Y-54857000D01*
X141124301Y-54953673D01*
X140945673Y-55132302D01*
X140849000Y-55365691D01*
X140849000Y-55606250D01*
X141007748Y-55764998D01*
X140849000Y-55764998D01*
X140849000Y-55889642D01*
X140610320Y-55784285D01*
X139456605Y-56938000D01*
X140610320Y-58091715D01*
X140871280Y-57976523D01*
X140880838Y-58027317D01*
X140995400Y-58205351D01*
X140995400Y-58699400D01*
X139974879Y-58699400D01*
X140301467Y-58564123D01*
X140430715Y-58271320D01*
X139277000Y-57117605D01*
X138123285Y-58271320D01*
X138252533Y-58564123D01*
X138605657Y-58699400D01*
X138063689Y-58699400D01*
X138038462Y-58638345D01*
X137579073Y-58178154D01*
X136978547Y-57928794D01*
X136328306Y-57928226D01*
X135727345Y-58176538D01*
X135267154Y-58635927D01*
X135017794Y-59236453D01*
X135017226Y-59886694D01*
X135265538Y-60487655D01*
X135714642Y-60937543D01*
X135555559Y-61039910D01*
X135513271Y-61101800D01*
X135360320Y-61034285D01*
X134206605Y-62188000D01*
X134220748Y-62202143D01*
X134041143Y-62381748D01*
X134027000Y-62367605D01*
X132873285Y-63521320D01*
X132985175Y-63774799D01*
X132873673Y-63886302D01*
X132777000Y-64119691D01*
X132777000Y-64215250D01*
X132935748Y-64373998D01*
X132777000Y-64373998D01*
X132777000Y-64450290D01*
X132682410Y-64385659D01*
X132430520Y-64334650D01*
X132065076Y-64334650D01*
X132075930Y-64281050D01*
X132075930Y-64276750D01*
X132076953Y-64273537D01*
X132075930Y-64267654D01*
X132075930Y-61863806D01*
X132132612Y-61863806D01*
X132152750Y-62613435D01*
X132400877Y-63212467D01*
X132693680Y-63341715D01*
X133847395Y-62188000D01*
X132693680Y-61034285D01*
X132400877Y-61163533D01*
X132132612Y-61863806D01*
X132075930Y-61863806D01*
X132075930Y-60854680D01*
X132873285Y-60854680D01*
X134027000Y-62008395D01*
X135180715Y-60854680D01*
X135051467Y-60561877D01*
X134351194Y-60293612D01*
X133601565Y-60313750D01*
X133002533Y-60561877D01*
X132873285Y-60854680D01*
X132075930Y-60854680D01*
X132075930Y-60280550D01*
X132031652Y-60045233D01*
X131892580Y-59829109D01*
X131680380Y-59684119D01*
X131428490Y-59633110D01*
X129429510Y-59633110D01*
X129194193Y-59677388D01*
X128978069Y-59816460D01*
X128833079Y-60028660D01*
X128782070Y-60280550D01*
X128782070Y-64281050D01*
X128792156Y-64334650D01*
X128427480Y-64334650D01*
X128192163Y-64378928D01*
X127976039Y-64518000D01*
X127831049Y-64730200D01*
X127780040Y-64982090D01*
X127780040Y-65369440D01*
X126808514Y-65369440D01*
X126802162Y-65335683D01*
X126663090Y-65119559D01*
X126450890Y-64974569D01*
X126342893Y-64952699D01*
X126620645Y-64647924D01*
X126790476Y-64237890D01*
X126669155Y-64008000D01*
X125476000Y-64008000D01*
X125476000Y-64028000D01*
X125222000Y-64028000D01*
X125222000Y-64008000D01*
X124028845Y-64008000D01*
X123907524Y-64237890D01*
X124077355Y-64647924D01*
X124353501Y-64950937D01*
X124263683Y-64967838D01*
X124047559Y-65106910D01*
X123902569Y-65319110D01*
X123851560Y-65571000D01*
X123851560Y-66100599D01*
X121901086Y-68051073D01*
X121539000Y-67979050D01*
X120836776Y-68118731D01*
X120241459Y-68516509D01*
X119843681Y-69111826D01*
X119704000Y-69814050D01*
X115010000Y-69814050D01*
X115010000Y-63524110D01*
X123907524Y-63524110D01*
X124028845Y-63754000D01*
X125222000Y-63754000D01*
X125222000Y-62560181D01*
X125476000Y-62560181D01*
X125476000Y-63754000D01*
X126669155Y-63754000D01*
X126790476Y-63524110D01*
X126620645Y-63114076D01*
X126230358Y-62685817D01*
X125705892Y-62439514D01*
X125476000Y-62560181D01*
X125222000Y-62560181D01*
X124992108Y-62439514D01*
X124467642Y-62685817D01*
X124077355Y-63114076D01*
X123907524Y-63524110D01*
X115010000Y-63524110D01*
X115010000Y-58271320D01*
X132873285Y-58271320D01*
X133002533Y-58564123D01*
X133702806Y-58832388D01*
X134452435Y-58812250D01*
X135051467Y-58564123D01*
X135180715Y-58271320D01*
X134027000Y-57117605D01*
X132873285Y-58271320D01*
X115010000Y-58271320D01*
X115010000Y-55052619D01*
X115874613Y-55052619D01*
X116214155Y-55874372D01*
X116842321Y-56503636D01*
X117663481Y-56844611D01*
X118552619Y-56845387D01*
X119113086Y-56613806D01*
X132132612Y-56613806D01*
X132152750Y-57363435D01*
X132400877Y-57962467D01*
X132693680Y-58091715D01*
X133847395Y-56938000D01*
X134206605Y-56938000D01*
X135360320Y-58091715D01*
X135653123Y-57962467D01*
X135921388Y-57262194D01*
X135903970Y-56613806D01*
X137382612Y-56613806D01*
X137402750Y-57363435D01*
X137650877Y-57962467D01*
X137943680Y-58091715D01*
X139097395Y-56938000D01*
X137943680Y-55784285D01*
X137650877Y-55913533D01*
X137382612Y-56613806D01*
X135903970Y-56613806D01*
X135901250Y-56512565D01*
X135653123Y-55913533D01*
X135360320Y-55784285D01*
X134206605Y-56938000D01*
X133847395Y-56938000D01*
X132693680Y-55784285D01*
X132400877Y-55913533D01*
X132132612Y-56613806D01*
X119113086Y-56613806D01*
X119374372Y-56505845D01*
X120003636Y-55877679D01*
X120116994Y-55604680D01*
X132873285Y-55604680D01*
X134027000Y-56758395D01*
X135180715Y-55604680D01*
X138123285Y-55604680D01*
X139277000Y-56758395D01*
X140430715Y-55604680D01*
X140301467Y-55311877D01*
X139601194Y-55043612D01*
X138851565Y-55063750D01*
X138252533Y-55311877D01*
X138123285Y-55604680D01*
X135180715Y-55604680D01*
X135051467Y-55311877D01*
X134351194Y-55043612D01*
X133601565Y-55063750D01*
X133002533Y-55311877D01*
X132873285Y-55604680D01*
X120116994Y-55604680D01*
X120344611Y-55056519D01*
X120345123Y-54469078D01*
X143482378Y-54469078D01*
X143511917Y-54979428D01*
X143650389Y-55313729D01*
X143880984Y-55369410D01*
X144600395Y-54650000D01*
X144959605Y-54650000D01*
X145679016Y-55369410D01*
X145909611Y-55313729D01*
X146077622Y-54830922D01*
X146048083Y-54320572D01*
X145909611Y-53986271D01*
X145679016Y-53930590D01*
X144959605Y-54650000D01*
X144600395Y-54650000D01*
X143880984Y-53930590D01*
X143650389Y-53986271D01*
X143482378Y-54469078D01*
X120345123Y-54469078D01*
X120345387Y-54167381D01*
X120173335Y-53750984D01*
X144060590Y-53750984D01*
X144780000Y-54470395D01*
X145499410Y-53750984D01*
X145443729Y-53520389D01*
X144960922Y-53352378D01*
X144450572Y-53381917D01*
X144116271Y-53520389D01*
X144060590Y-53750984D01*
X120173335Y-53750984D01*
X120005845Y-53345628D01*
X119377679Y-52716364D01*
X118556519Y-52375389D01*
X117667381Y-52374613D01*
X116845628Y-52714155D01*
X116216364Y-53342321D01*
X115875389Y-54163481D01*
X115874613Y-55052619D01*
X115010000Y-55052619D01*
X115010000Y-51510000D01*
X154088974Y-51510000D01*
X153744817Y-51823642D01*
X153744817Y-51823642D01*
G37*
X153744817Y-51823642D02*
X153498514Y-52348108D01*
X153619181Y-52578000D01*
X154813000Y-52578000D01*
X154813000Y-52558000D01*
X155067000Y-52558000D01*
X155067000Y-52578000D01*
X157353000Y-52578000D01*
X157353000Y-52558000D01*
X157607000Y-52558000D01*
X157607000Y-52578000D01*
X159893000Y-52578000D01*
X159893000Y-52558000D01*
X160147000Y-52558000D01*
X160147000Y-52578000D01*
X162433000Y-52578000D01*
X162433000Y-52558000D01*
X162687000Y-52558000D01*
X162687000Y-52578000D01*
X164973000Y-52578000D01*
X164973000Y-52558000D01*
X165227000Y-52558000D01*
X165227000Y-52578000D01*
X167513000Y-52578000D01*
X167513000Y-52558000D01*
X167767000Y-52558000D01*
X167767000Y-52578000D01*
X168960819Y-52578000D01*
X169081486Y-52348108D01*
X168835183Y-51823642D01*
X168491026Y-51510000D01*
X177090000Y-51510000D01*
X177090000Y-113590000D01*
X115010000Y-113590000D01*
X115010000Y-110932619D01*
X115874613Y-110932619D01*
X116214155Y-111754372D01*
X116842321Y-112383636D01*
X117663481Y-112724611D01*
X118552619Y-112725387D01*
X119374372Y-112385845D01*
X120003636Y-111757679D01*
X120344611Y-110936519D01*
X120344614Y-110932619D01*
X171754613Y-110932619D01*
X172094155Y-111754372D01*
X172722321Y-112383636D01*
X173543481Y-112724611D01*
X174432619Y-112725387D01*
X175254372Y-112385845D01*
X175883636Y-111757679D01*
X176224611Y-110936519D01*
X176225387Y-110047381D01*
X175885845Y-109225628D01*
X175257679Y-108596364D01*
X174436519Y-108255389D01*
X173547381Y-108254613D01*
X172725628Y-108594155D01*
X172096364Y-109222321D01*
X171755389Y-110043481D01*
X171754613Y-110932619D01*
X120344614Y-110932619D01*
X120345387Y-110047381D01*
X120005845Y-109225628D01*
X119377679Y-108596364D01*
X118556519Y-108255389D01*
X117667381Y-108254613D01*
X116845628Y-108594155D01*
X116216364Y-109222321D01*
X115875389Y-110043481D01*
X115874613Y-110932619D01*
X115010000Y-110932619D01*
X115010000Y-104415320D01*
X140493285Y-104415320D01*
X140622533Y-104708123D01*
X141322806Y-104976388D01*
X142072435Y-104956250D01*
X142671467Y-104708123D01*
X142800715Y-104415320D01*
X145743285Y-104415320D01*
X145872533Y-104708123D01*
X146572806Y-104976388D01*
X147322435Y-104956250D01*
X147921467Y-104708123D01*
X148050715Y-104415320D01*
X146897000Y-103261605D01*
X145743285Y-104415320D01*
X142800715Y-104415320D01*
X141647000Y-103261605D01*
X140493285Y-104415320D01*
X115010000Y-104415320D01*
X115010000Y-102757806D01*
X139752612Y-102757806D01*
X139772750Y-103507435D01*
X140020877Y-104106467D01*
X140313680Y-104235715D01*
X141467395Y-103082000D01*
X141826605Y-103082000D01*
X142980320Y-104235715D01*
X143273123Y-104106467D01*
X143541388Y-103406194D01*
X143523970Y-102757806D01*
X145002612Y-102757806D01*
X145022750Y-103507435D01*
X145270877Y-104106467D01*
X145563680Y-104235715D01*
X146717395Y-103082000D01*
X147076605Y-103082000D01*
X148230320Y-104235715D01*
X148523123Y-104106467D01*
X148791388Y-103406194D01*
X148771250Y-102656565D01*
X148523123Y-102057533D01*
X148230320Y-101928285D01*
X147076605Y-103082000D01*
X146717395Y-103082000D01*
X145563680Y-101928285D01*
X145270877Y-102057533D01*
X145002612Y-102757806D01*
X143523970Y-102757806D01*
X143521250Y-102656565D01*
X143273123Y-102057533D01*
X142980320Y-101928285D01*
X141826605Y-103082000D01*
X141467395Y-103082000D01*
X140313680Y-101928285D01*
X140020877Y-102057533D01*
X139752612Y-102757806D01*
X115010000Y-102757806D01*
X115010000Y-101748680D01*
X140493285Y-101748680D01*
X141647000Y-102902395D01*
X142800715Y-101748680D01*
X142671467Y-101455877D01*
X141971194Y-101187612D01*
X141221565Y-101207750D01*
X140622533Y-101455877D01*
X140493285Y-101748680D01*
X115010000Y-101748680D01*
X115010000Y-97917000D01*
X123199907Y-97917000D01*
X123312946Y-98485285D01*
X123634853Y-98967054D01*
X124116622Y-99288961D01*
X124684907Y-99402000D01*
X124743093Y-99402000D01*
X125311378Y-99288961D01*
X125751825Y-98994665D01*
X126745965Y-99988805D01*
X126745758Y-100225661D01*
X126957990Y-100739303D01*
X127350630Y-101132629D01*
X127863900Y-101345757D01*
X128419661Y-101346242D01*
X128933303Y-101134010D01*
X129326629Y-100741370D01*
X129539757Y-100228100D01*
X129540242Y-99672339D01*
X129328010Y-99158697D01*
X129102707Y-98933000D01*
X130808387Y-98933000D01*
X130830838Y-99052317D01*
X130969910Y-99268441D01*
X131182110Y-99413431D01*
X131434000Y-99464440D01*
X133234000Y-99464440D01*
X133469317Y-99420162D01*
X133685441Y-99281090D01*
X133764543Y-99165320D01*
X140493285Y-99165320D01*
X140622533Y-99458123D01*
X141322806Y-99726388D01*
X142072435Y-99706250D01*
X142671467Y-99458123D01*
X142800715Y-99165320D01*
X141647000Y-98011605D01*
X140493285Y-99165320D01*
X133764543Y-99165320D01*
X133830431Y-99068890D01*
X133881440Y-98817000D01*
X133881440Y-97507806D01*
X139752612Y-97507806D01*
X139772750Y-98257435D01*
X140020877Y-98856467D01*
X140313680Y-98985715D01*
X141467395Y-97832000D01*
X141826605Y-97832000D01*
X142980320Y-98985715D01*
X143273123Y-98856467D01*
X143408400Y-98503343D01*
X143408400Y-99045311D01*
X143347345Y-99070538D01*
X142887154Y-99529927D01*
X142637794Y-100130453D01*
X142637226Y-100780694D01*
X142885538Y-101381655D01*
X143344927Y-101841846D01*
X143945453Y-102091206D01*
X144595694Y-102091774D01*
X145196655Y-101843462D01*
X145656846Y-101384073D01*
X145683202Y-101320600D01*
X146199121Y-101320600D01*
X145872533Y-101455877D01*
X145743285Y-101748680D01*
X146897000Y-102902395D01*
X148050715Y-101748680D01*
X147921467Y-101455877D01*
X147568343Y-101320600D01*
X148821086Y-101320600D01*
X151465143Y-103964658D01*
X151745315Y-104151862D01*
X152075800Y-104217600D01*
X152086705Y-104217600D01*
X152281110Y-104350431D01*
X152533000Y-104401440D01*
X153283000Y-104401440D01*
X153518317Y-104357162D01*
X153734441Y-104218090D01*
X153879431Y-104005890D01*
X153930440Y-103754000D01*
X153930440Y-102954000D01*
X153918646Y-102891320D01*
X164877285Y-102891320D01*
X165006533Y-103184123D01*
X165706806Y-103452388D01*
X166456435Y-103432250D01*
X167055467Y-103184123D01*
X167184715Y-102891320D01*
X170127285Y-102891320D01*
X170256533Y-103184123D01*
X170956806Y-103452388D01*
X171706435Y-103432250D01*
X172305467Y-103184123D01*
X172434715Y-102891320D01*
X171281000Y-101737605D01*
X170127285Y-102891320D01*
X167184715Y-102891320D01*
X166031000Y-101737605D01*
X164877285Y-102891320D01*
X153918646Y-102891320D01*
X153886162Y-102718683D01*
X153812380Y-102604022D01*
X153879431Y-102505890D01*
X153917333Y-102318724D01*
X154040471Y-102318724D01*
X154125110Y-102376555D01*
X154377000Y-102427564D01*
X155597000Y-102427564D01*
X155832317Y-102383286D01*
X156048441Y-102244214D01*
X156094751Y-102176437D01*
X156177256Y-102231565D01*
X156209315Y-102252986D01*
X156539800Y-102318724D01*
X156660471Y-102318724D01*
X156745110Y-102376555D01*
X156997000Y-102427564D01*
X158217000Y-102427564D01*
X158452317Y-102383286D01*
X158668441Y-102244214D01*
X158813431Y-102032014D01*
X158864440Y-101780124D01*
X158864440Y-101233806D01*
X164136612Y-101233806D01*
X164156750Y-101983435D01*
X164404877Y-102582467D01*
X164697680Y-102711715D01*
X165851395Y-101558000D01*
X166210605Y-101558000D01*
X167364320Y-102711715D01*
X167657123Y-102582467D01*
X167925388Y-101882194D01*
X167907970Y-101233806D01*
X169386612Y-101233806D01*
X169406750Y-101983435D01*
X169654877Y-102582467D01*
X169947680Y-102711715D01*
X171101395Y-101558000D01*
X171460605Y-101558000D01*
X172614320Y-102711715D01*
X172907123Y-102582467D01*
X173175388Y-101882194D01*
X173155250Y-101132565D01*
X172907123Y-100533533D01*
X172614320Y-100404285D01*
X171460605Y-101558000D01*
X171101395Y-101558000D01*
X169947680Y-100404285D01*
X169654877Y-100533533D01*
X169386612Y-101233806D01*
X167907970Y-101233806D01*
X167905250Y-101132565D01*
X167657123Y-100533533D01*
X167364320Y-100404285D01*
X166210605Y-101558000D01*
X165851395Y-101558000D01*
X164697680Y-100404285D01*
X164404877Y-100533533D01*
X164136612Y-101233806D01*
X158864440Y-101233806D01*
X158864440Y-101130124D01*
X158838081Y-100990038D01*
X158852000Y-100956434D01*
X158852000Y-100790874D01*
X158693250Y-100632124D01*
X158612949Y-100632124D01*
X158468890Y-100533693D01*
X158331880Y-100505948D01*
X158452317Y-100483286D01*
X158552649Y-100418724D01*
X159335586Y-100418724D01*
X159357110Y-100433431D01*
X159609000Y-100484440D01*
X160309000Y-100484440D01*
X160544317Y-100440162D01*
X160760441Y-100301090D01*
X160905431Y-100088890D01*
X160908081Y-100075803D01*
X161044910Y-100288441D01*
X161257110Y-100433431D01*
X161509000Y-100484440D01*
X162209000Y-100484440D01*
X162444317Y-100440162D01*
X162660441Y-100301090D01*
X162805431Y-100088890D01*
X162813185Y-100050600D01*
X164954127Y-100050600D01*
X164877285Y-100224680D01*
X166031000Y-101378395D01*
X167184715Y-100224680D01*
X167107873Y-100050600D01*
X167462147Y-100050600D01*
X167728927Y-100317846D01*
X168329453Y-100567206D01*
X168979694Y-100567774D01*
X169580655Y-100319462D01*
X169675602Y-100224680D01*
X170127285Y-100224680D01*
X171281000Y-101378395D01*
X172434715Y-100224680D01*
X172305467Y-99931877D01*
X171605194Y-99663612D01*
X170855565Y-99683750D01*
X170256533Y-99931877D01*
X170127285Y-100224680D01*
X169675602Y-100224680D01*
X170040846Y-99860073D01*
X170290206Y-99259547D01*
X170290774Y-98609306D01*
X170042462Y-98008345D01*
X169676077Y-97641320D01*
X170127285Y-97641320D01*
X170256533Y-97934123D01*
X170956806Y-98202388D01*
X171706435Y-98182250D01*
X172305467Y-97934123D01*
X172434715Y-97641320D01*
X171281000Y-96487605D01*
X170127285Y-97641320D01*
X169676077Y-97641320D01*
X169583073Y-97548154D01*
X168982547Y-97298794D01*
X168332306Y-97298226D01*
X167731345Y-97546538D01*
X167271154Y-98005927D01*
X167139328Y-98323400D01*
X162816248Y-98323400D01*
X162812162Y-98301683D01*
X162722600Y-98162500D01*
X162722600Y-97641320D01*
X164877285Y-97641320D01*
X165006533Y-97934123D01*
X165706806Y-98202388D01*
X166456435Y-98182250D01*
X167055467Y-97934123D01*
X167184715Y-97641320D01*
X166031000Y-96487605D01*
X164877285Y-97641320D01*
X162722600Y-97641320D01*
X162722600Y-96974000D01*
X162706440Y-96892759D01*
X162706440Y-96399000D01*
X162662162Y-96163683D01*
X162546415Y-95983806D01*
X164136612Y-95983806D01*
X164156750Y-96733435D01*
X164404877Y-97332467D01*
X164697680Y-97461715D01*
X165851395Y-96308000D01*
X166210605Y-96308000D01*
X167364320Y-97461715D01*
X167657123Y-97332467D01*
X167925388Y-96632194D01*
X167907970Y-95983806D01*
X169386612Y-95983806D01*
X169406750Y-96733435D01*
X169654877Y-97332467D01*
X169947680Y-97461715D01*
X171101395Y-96308000D01*
X171460605Y-96308000D01*
X172614320Y-97461715D01*
X172907123Y-97332467D01*
X173175388Y-96632194D01*
X173155250Y-95882565D01*
X172907123Y-95283533D01*
X172614320Y-95154285D01*
X171460605Y-96308000D01*
X171101395Y-96308000D01*
X169947680Y-95154285D01*
X169654877Y-95283533D01*
X169386612Y-95983806D01*
X167907970Y-95983806D01*
X167905250Y-95882565D01*
X167657123Y-95283533D01*
X167364320Y-95154285D01*
X166210605Y-96308000D01*
X165851395Y-96308000D01*
X164697680Y-95154285D01*
X164404877Y-95283533D01*
X164136612Y-95983806D01*
X162546415Y-95983806D01*
X162523090Y-95947559D01*
X162310890Y-95802569D01*
X162059000Y-95751560D01*
X161259000Y-95751560D01*
X161023683Y-95795838D01*
X160920354Y-95862329D01*
X160918698Y-95860673D01*
X160685309Y-95764000D01*
X160444750Y-95764000D01*
X160286000Y-95922750D01*
X160286000Y-96647000D01*
X160306000Y-96647000D01*
X160306000Y-96901000D01*
X160286000Y-96901000D01*
X160286000Y-97625250D01*
X160444750Y-97784000D01*
X160685309Y-97784000D01*
X160918698Y-97687327D01*
X160920068Y-97685957D01*
X160995400Y-97737430D01*
X160995400Y-98163883D01*
X160912569Y-98285110D01*
X160909919Y-98298197D01*
X160773090Y-98085559D01*
X160560890Y-97940569D01*
X160309000Y-97889560D01*
X159609000Y-97889560D01*
X159373683Y-97933838D01*
X159157559Y-98072910D01*
X159012569Y-98285110D01*
X158961560Y-98537000D01*
X158961560Y-98691524D01*
X158553529Y-98691524D01*
X158468890Y-98633693D01*
X158217000Y-98582684D01*
X157520314Y-98582684D01*
X157520629Y-98582370D01*
X157733757Y-98069100D01*
X157734242Y-97513339D01*
X157546824Y-97059750D01*
X159124000Y-97059750D01*
X159124000Y-97275310D01*
X159220673Y-97508699D01*
X159399302Y-97687327D01*
X159632691Y-97784000D01*
X159873250Y-97784000D01*
X160032000Y-97625250D01*
X160032000Y-96901000D01*
X159282750Y-96901000D01*
X159124000Y-97059750D01*
X157546824Y-97059750D01*
X157522010Y-96999697D01*
X157129370Y-96606371D01*
X156616100Y-96393243D01*
X156060339Y-96392758D01*
X155673037Y-96552787D01*
X155537250Y-96417000D01*
X154813000Y-96417000D01*
X154813000Y-96437000D01*
X154559000Y-96437000D01*
X154559000Y-96417000D01*
X153834750Y-96417000D01*
X153676000Y-96575750D01*
X153676000Y-96816309D01*
X153772673Y-97049698D01*
X153774043Y-97051068D01*
X153714569Y-97138110D01*
X153663560Y-97390000D01*
X153663560Y-97591126D01*
X153625325Y-97629361D01*
X153534890Y-97567569D01*
X153283000Y-97516560D01*
X152533000Y-97516560D01*
X152297683Y-97560838D01*
X152081559Y-97699910D01*
X151936569Y-97912110D01*
X151885560Y-98164000D01*
X151885560Y-98964000D01*
X151929838Y-99199317D01*
X152003620Y-99313978D01*
X151936569Y-99412110D01*
X151885560Y-99664000D01*
X151885560Y-100464000D01*
X151929838Y-100699317D01*
X152068910Y-100915441D01*
X152131174Y-100957984D01*
X152081559Y-100989910D01*
X151936569Y-101202110D01*
X151885560Y-101454000D01*
X151885560Y-101942445D01*
X149789457Y-99846343D01*
X149509285Y-99659138D01*
X149484284Y-99654165D01*
X149178800Y-99593400D01*
X147594879Y-99593400D01*
X147921467Y-99458123D01*
X148050715Y-99165320D01*
X146897000Y-98011605D01*
X145743285Y-99165320D01*
X145872533Y-99458123D01*
X146225657Y-99593400D01*
X145683689Y-99593400D01*
X145658462Y-99532345D01*
X145199073Y-99072154D01*
X145135600Y-99045798D01*
X145135600Y-98529879D01*
X145270877Y-98856467D01*
X145563680Y-98985715D01*
X146717395Y-97832000D01*
X147076605Y-97832000D01*
X148230320Y-98985715D01*
X148523123Y-98856467D01*
X148791388Y-98156194D01*
X148771250Y-97406565D01*
X148523123Y-96807533D01*
X148230320Y-96678285D01*
X147076605Y-97832000D01*
X146717395Y-97832000D01*
X145563680Y-96678285D01*
X145270877Y-96807533D01*
X145135600Y-97160657D01*
X145135600Y-96498680D01*
X145743285Y-96498680D01*
X146897000Y-97652395D01*
X148050715Y-96498680D01*
X147950960Y-96272690D01*
X159124000Y-96272690D01*
X159124000Y-96488250D01*
X159282750Y-96647000D01*
X160032000Y-96647000D01*
X160032000Y-95922750D01*
X159873250Y-95764000D01*
X159632691Y-95764000D01*
X159399302Y-95860673D01*
X159220673Y-96039301D01*
X159124000Y-96272690D01*
X147950960Y-96272690D01*
X147921467Y-96205877D01*
X147221194Y-95937612D01*
X146471565Y-95957750D01*
X145872533Y-96205877D01*
X145743285Y-96498680D01*
X145135600Y-96498680D01*
X145135600Y-95763691D01*
X153676000Y-95763691D01*
X153676000Y-96004250D01*
X153834750Y-96163000D01*
X154559000Y-96163000D01*
X154559000Y-95413750D01*
X154813000Y-95413750D01*
X154813000Y-96163000D01*
X155537250Y-96163000D01*
X155696000Y-96004250D01*
X155696000Y-95763691D01*
X155599327Y-95530302D01*
X155420699Y-95351673D01*
X155187310Y-95255000D01*
X154971750Y-95255000D01*
X154813000Y-95413750D01*
X154559000Y-95413750D01*
X154400250Y-95255000D01*
X154184690Y-95255000D01*
X153951301Y-95351673D01*
X153772673Y-95530302D01*
X153676000Y-95763691D01*
X145135600Y-95763691D01*
X145135600Y-94974680D01*
X164877285Y-94974680D01*
X166031000Y-96128395D01*
X167184715Y-94974680D01*
X170127285Y-94974680D01*
X171281000Y-96128395D01*
X172434715Y-94974680D01*
X172305467Y-94681877D01*
X171605194Y-94413612D01*
X170855565Y-94433750D01*
X170256533Y-94681877D01*
X170127285Y-94974680D01*
X167184715Y-94974680D01*
X167055467Y-94681877D01*
X166355194Y-94413612D01*
X165605565Y-94433750D01*
X165006533Y-94681877D01*
X164877285Y-94974680D01*
X145135600Y-94974680D01*
X145135600Y-90031344D01*
X146220959Y-88945985D01*
X146532275Y-89154000D01*
X146150189Y-89409302D01*
X145839120Y-89874849D01*
X145729887Y-90424000D01*
X145839120Y-90973151D01*
X146150189Y-91438698D01*
X146615736Y-91749767D01*
X147164887Y-91859000D01*
X147221113Y-91859000D01*
X147770264Y-91749767D01*
X148235811Y-91438698D01*
X148546880Y-90973151D01*
X148586684Y-90773039D01*
X153421096Y-90773039D01*
X153581959Y-91161423D01*
X153957866Y-91576389D01*
X154463959Y-91815914D01*
X154686000Y-91694629D01*
X154686000Y-90551000D01*
X154940000Y-90551000D01*
X154940000Y-91694629D01*
X155162041Y-91815914D01*
X155668134Y-91576389D01*
X156044041Y-91161423D01*
X156204904Y-90773039D01*
X156082915Y-90551000D01*
X154940000Y-90551000D01*
X154686000Y-90551000D01*
X153543085Y-90551000D01*
X153421096Y-90773039D01*
X148586684Y-90773039D01*
X148656113Y-90424000D01*
X148546880Y-89874849D01*
X148235811Y-89409302D01*
X147853725Y-89154000D01*
X148235811Y-88898698D01*
X148546880Y-88433151D01*
X148566081Y-88336621D01*
X154013042Y-86520967D01*
X154152275Y-86614000D01*
X153770189Y-86869302D01*
X153459120Y-87334849D01*
X153349887Y-87884000D01*
X153459120Y-88433151D01*
X153770189Y-88898698D01*
X154174703Y-89168986D01*
X153957866Y-89271611D01*
X153581959Y-89686577D01*
X153421096Y-90074961D01*
X153543085Y-90297000D01*
X154686000Y-90297000D01*
X154686000Y-90277000D01*
X154940000Y-90277000D01*
X154940000Y-90297000D01*
X156082915Y-90297000D01*
X156204904Y-90074961D01*
X156044041Y-89686577D01*
X155668134Y-89271611D01*
X155451297Y-89168986D01*
X155855811Y-88898698D01*
X155956772Y-88747600D01*
X159551498Y-88747600D01*
X159597227Y-88816038D01*
X159979313Y-89071340D01*
X159597227Y-89326642D01*
X159286158Y-89792189D01*
X159176925Y-90341340D01*
X159286158Y-90890491D01*
X159597227Y-91356038D01*
X160062774Y-91667107D01*
X160611925Y-91776340D01*
X160668151Y-91776340D01*
X160958024Y-91718681D01*
X160846988Y-91986086D01*
X160846503Y-92541847D01*
X161058735Y-93055489D01*
X161451375Y-93448815D01*
X161964645Y-93661943D01*
X162520406Y-93662428D01*
X163034048Y-93450196D01*
X163427374Y-93057556D01*
X163461977Y-92974223D01*
X163649531Y-92848903D01*
X164634994Y-91863440D01*
X165115000Y-91863440D01*
X165350317Y-91819162D01*
X165566441Y-91680090D01*
X165711431Y-91467890D01*
X165762440Y-91216000D01*
X165762440Y-90690379D01*
X166868134Y-90690379D01*
X167028997Y-91078763D01*
X167404904Y-91493729D01*
X167910997Y-91733254D01*
X168133038Y-91611969D01*
X168133038Y-90468340D01*
X168387038Y-90468340D01*
X168387038Y-91611969D01*
X168609079Y-91733254D01*
X169115172Y-91493729D01*
X169139611Y-91466750D01*
X170419000Y-91466750D01*
X170419000Y-91657309D01*
X170515673Y-91890698D01*
X170694301Y-92069327D01*
X170927690Y-92166000D01*
X171418250Y-92166000D01*
X171577000Y-92007250D01*
X171577000Y-91308000D01*
X171831000Y-91308000D01*
X171831000Y-92007250D01*
X171989750Y-92166000D01*
X172480310Y-92166000D01*
X172713699Y-92069327D01*
X172892327Y-91890698D01*
X172989000Y-91657309D01*
X172989000Y-91466750D01*
X172830250Y-91308000D01*
X171831000Y-91308000D01*
X171577000Y-91308000D01*
X170577750Y-91308000D01*
X170419000Y-91466750D01*
X169139611Y-91466750D01*
X169491079Y-91078763D01*
X169651942Y-90690379D01*
X169529953Y-90468340D01*
X168387038Y-90468340D01*
X168133038Y-90468340D01*
X166990123Y-90468340D01*
X166868134Y-90690379D01*
X165762440Y-90690379D01*
X165762440Y-90516000D01*
X165718162Y-90280683D01*
X165579090Y-90064559D01*
X165366890Y-89919569D01*
X165353803Y-89916919D01*
X165489500Y-89829600D01*
X166935522Y-89829600D01*
X166868134Y-89992301D01*
X166990123Y-90214340D01*
X168133038Y-90214340D01*
X168133038Y-90194340D01*
X168387038Y-90194340D01*
X168387038Y-90214340D01*
X169529953Y-90214340D01*
X169651942Y-89992301D01*
X169491079Y-89603917D01*
X169115172Y-89188951D01*
X168898335Y-89086326D01*
X169302849Y-88816038D01*
X169403810Y-88664940D01*
X169866626Y-88664940D01*
X170406560Y-89204875D01*
X170406560Y-89631000D01*
X170450838Y-89866317D01*
X170589910Y-90082441D01*
X170802110Y-90227431D01*
X170835490Y-90234191D01*
X170694301Y-90292673D01*
X170515673Y-90471302D01*
X170419000Y-90704691D01*
X170419000Y-90895250D01*
X170577750Y-91054000D01*
X171577000Y-91054000D01*
X171577000Y-91034000D01*
X171831000Y-91034000D01*
X171831000Y-91054000D01*
X172830250Y-91054000D01*
X172989000Y-90895250D01*
X172989000Y-90704691D01*
X172892327Y-90471302D01*
X172713699Y-90292673D01*
X172577713Y-90236346D01*
X172589317Y-90234162D01*
X172805441Y-90095090D01*
X172950431Y-89882890D01*
X173001440Y-89631000D01*
X173001440Y-89204874D01*
X174683875Y-87522440D01*
X174873000Y-87522440D01*
X175108317Y-87478162D01*
X175324441Y-87339090D01*
X175469431Y-87126890D01*
X175520440Y-86875000D01*
X175520440Y-86075000D01*
X175476162Y-85839683D01*
X175402380Y-85725022D01*
X175469431Y-85626890D01*
X175520440Y-85375000D01*
X175520440Y-84575000D01*
X175476162Y-84339683D01*
X175361600Y-84161649D01*
X175361600Y-75184000D01*
X175304704Y-74897966D01*
X175295862Y-74853514D01*
X175108657Y-74573342D01*
X172136374Y-71601060D01*
X172224217Y-71513217D01*
X172403163Y-71245406D01*
X172466000Y-70929500D01*
X172466000Y-67957440D01*
X172701317Y-67913162D01*
X172917441Y-67774090D01*
X173062431Y-67561890D01*
X173113440Y-67310000D01*
X173113440Y-66548000D01*
X173069162Y-66312683D01*
X172930090Y-66096559D01*
X172717890Y-65951569D01*
X172466000Y-65900560D01*
X170815000Y-65900560D01*
X170579683Y-65944838D01*
X170363559Y-66083910D01*
X170218569Y-66296110D01*
X170167560Y-66548000D01*
X170167560Y-67310000D01*
X170211838Y-67545317D01*
X170350910Y-67761441D01*
X170563110Y-67906431D01*
X170815000Y-67957440D01*
X170815000Y-69208594D01*
X170621123Y-68740533D01*
X170328320Y-68611285D01*
X169174605Y-69765000D01*
X169188748Y-69779143D01*
X169009143Y-69958748D01*
X168995000Y-69944605D01*
X167841285Y-71098320D01*
X167970533Y-71391123D01*
X168423112Y-71564500D01*
X167797432Y-71564500D01*
X167756462Y-71465345D01*
X167297073Y-71005154D01*
X166696547Y-70755794D01*
X166046306Y-70755226D01*
X165445345Y-71003538D01*
X164985154Y-71462927D01*
X164735794Y-72063453D01*
X164735226Y-72713694D01*
X164983538Y-73314655D01*
X165442927Y-73774846D01*
X166043453Y-74024206D01*
X166693694Y-74024774D01*
X167294655Y-73776462D01*
X167754846Y-73317073D01*
X167797023Y-73215500D01*
X168389102Y-73215500D01*
X167970533Y-73388877D01*
X167841285Y-73681680D01*
X168995000Y-74835395D01*
X170148715Y-73681680D01*
X170019467Y-73388877D01*
X169566888Y-73215500D01*
X170180000Y-73215500D01*
X170495906Y-73152663D01*
X170763717Y-72973717D01*
X170915060Y-72822374D01*
X173634400Y-75541715D01*
X173634400Y-84165294D01*
X173526569Y-84323110D01*
X173475560Y-84575000D01*
X173475560Y-85375000D01*
X173519838Y-85610317D01*
X173593620Y-85724978D01*
X173526569Y-85823110D01*
X173475560Y-86075000D01*
X173475560Y-86288125D01*
X171704000Y-88059686D01*
X170834997Y-87190683D01*
X170554825Y-87003478D01*
X170224340Y-86937740D01*
X169403810Y-86937740D01*
X169302849Y-86786642D01*
X168920763Y-86531340D01*
X169302849Y-86276038D01*
X169403810Y-86124940D01*
X170556000Y-86124940D01*
X170886485Y-86059202D01*
X171166657Y-85871997D01*
X171419874Y-85618780D01*
X171846000Y-85618780D01*
X172081317Y-85574502D01*
X172297441Y-85435430D01*
X172442431Y-85223230D01*
X172493440Y-84971340D01*
X172493440Y-84271340D01*
X172449162Y-84036023D01*
X172310090Y-83819899D01*
X172097890Y-83674909D01*
X172084803Y-83672259D01*
X172297441Y-83535430D01*
X172442431Y-83323230D01*
X172493440Y-83071340D01*
X172493440Y-82371340D01*
X172449162Y-82136023D01*
X172310090Y-81919899D01*
X172097890Y-81774909D01*
X172059600Y-81767155D01*
X172059600Y-81696706D01*
X172167431Y-81538890D01*
X172218440Y-81287000D01*
X172218440Y-80487000D01*
X172174162Y-80251683D01*
X172107671Y-80148354D01*
X172109327Y-80146698D01*
X172206000Y-79913309D01*
X172206000Y-79672750D01*
X172047250Y-79514000D01*
X171323000Y-79514000D01*
X171323000Y-79534000D01*
X171069000Y-79534000D01*
X171069000Y-79514000D01*
X170344750Y-79514000D01*
X170186000Y-79672750D01*
X170186000Y-79913309D01*
X170282673Y-80146698D01*
X170284043Y-80148068D01*
X170224569Y-80235110D01*
X170173560Y-80487000D01*
X170173560Y-81287000D01*
X170217838Y-81522317D01*
X170332400Y-81700351D01*
X170332400Y-81764092D01*
X170310683Y-81768178D01*
X170094559Y-81907250D01*
X169949569Y-82119450D01*
X169898560Y-82371340D01*
X169898560Y-83071340D01*
X169942838Y-83306657D01*
X170081910Y-83522781D01*
X170294110Y-83667771D01*
X170307197Y-83670421D01*
X170094559Y-83807250D01*
X169949569Y-84019450D01*
X169898560Y-84271340D01*
X169898560Y-84397740D01*
X169403810Y-84397740D01*
X169302849Y-84246642D01*
X168920763Y-83991340D01*
X169302849Y-83736038D01*
X169613918Y-83270491D01*
X169723151Y-82721340D01*
X169613918Y-82172189D01*
X169302849Y-81706642D01*
X168837302Y-81395573D01*
X168288151Y-81286340D01*
X168231925Y-81286340D01*
X167682774Y-81395573D01*
X167217227Y-81706642D01*
X166906158Y-82172189D01*
X166796925Y-82721340D01*
X166906158Y-83270491D01*
X167217227Y-83736038D01*
X167599313Y-83991340D01*
X167217227Y-84246642D01*
X167116266Y-84397740D01*
X166370038Y-84397740D01*
X166094383Y-84452571D01*
X166039552Y-84463478D01*
X165759380Y-84650683D01*
X165176164Y-85233900D01*
X165050038Y-85233900D01*
X164814721Y-85278178D01*
X164598597Y-85417250D01*
X164453607Y-85629450D01*
X164450957Y-85642537D01*
X164314128Y-85429899D01*
X164101928Y-85284909D01*
X163850038Y-85233900D01*
X163150038Y-85233900D01*
X162914721Y-85278178D01*
X162698597Y-85417250D01*
X162553607Y-85629450D01*
X162502598Y-85881340D01*
X162502598Y-86307465D01*
X161872324Y-86937740D01*
X161783810Y-86937740D01*
X161682849Y-86786642D01*
X161300763Y-86531340D01*
X161682849Y-86276038D01*
X161993918Y-85810491D01*
X162103151Y-85261340D01*
X161993918Y-84712189D01*
X161682849Y-84246642D01*
X161300763Y-83991340D01*
X161682849Y-83736038D01*
X161993918Y-83270491D01*
X162103151Y-82721340D01*
X161993918Y-82172189D01*
X161682849Y-81706642D01*
X161217302Y-81395573D01*
X160668151Y-81286340D01*
X160611925Y-81286340D01*
X160062774Y-81395573D01*
X159597227Y-81706642D01*
X159286158Y-82172189D01*
X159176925Y-82721340D01*
X159286158Y-83270491D01*
X159597227Y-83736038D01*
X159979313Y-83991340D01*
X159597227Y-84246642D01*
X159496266Y-84397740D01*
X159049054Y-84397740D01*
X158883440Y-84232126D01*
X158883440Y-84031000D01*
X158839162Y-83795683D01*
X158772671Y-83692354D01*
X158774327Y-83690698D01*
X158871000Y-83457309D01*
X158871000Y-83216750D01*
X158712250Y-83058000D01*
X157988000Y-83058000D01*
X157988000Y-83078000D01*
X157734000Y-83078000D01*
X157734000Y-83058000D01*
X157009750Y-83058000D01*
X156851000Y-83216750D01*
X156851000Y-83457309D01*
X156947673Y-83690698D01*
X156949043Y-83692068D01*
X156889569Y-83779110D01*
X156838560Y-84031000D01*
X156838560Y-84831000D01*
X156882838Y-85066317D01*
X156997400Y-85244351D01*
X156997400Y-85375159D01*
X156677371Y-85694630D01*
X156464243Y-86207900D01*
X156463758Y-86763661D01*
X156569840Y-87020400D01*
X155956772Y-87020400D01*
X155855811Y-86869302D01*
X155473725Y-86614000D01*
X155855811Y-86358698D01*
X156166880Y-85893151D01*
X156276113Y-85344000D01*
X156166880Y-84794849D01*
X155855811Y-84329302D01*
X155473725Y-84074000D01*
X155855811Y-83818698D01*
X156166880Y-83353151D01*
X156276113Y-82804000D01*
X156196686Y-82404691D01*
X156851000Y-82404691D01*
X156851000Y-82645250D01*
X157009750Y-82804000D01*
X157734000Y-82804000D01*
X157734000Y-82054750D01*
X157988000Y-82054750D01*
X157988000Y-82804000D01*
X158712250Y-82804000D01*
X158871000Y-82645250D01*
X158871000Y-82404691D01*
X158774327Y-82171302D01*
X158595699Y-81992673D01*
X158362310Y-81896000D01*
X158146750Y-81896000D01*
X157988000Y-82054750D01*
X157734000Y-82054750D01*
X157575250Y-81896000D01*
X157359690Y-81896000D01*
X157126301Y-81992673D01*
X156947673Y-82171302D01*
X156851000Y-82404691D01*
X156196686Y-82404691D01*
X156166880Y-82254849D01*
X155855811Y-81789302D01*
X155390264Y-81478233D01*
X154841113Y-81369000D01*
X154784887Y-81369000D01*
X154235736Y-81478233D01*
X153770189Y-81789302D01*
X153459120Y-82254849D01*
X153349887Y-82804000D01*
X153459120Y-83353151D01*
X153770189Y-83818698D01*
X154152275Y-84074000D01*
X153770189Y-84329302D01*
X153459120Y-84794849D01*
X153439919Y-84891379D01*
X147992958Y-86707033D01*
X147853725Y-86614000D01*
X148235811Y-86358698D01*
X148546880Y-85893151D01*
X148656113Y-85344000D01*
X148546880Y-84794849D01*
X148235811Y-84329302D01*
X147853725Y-84074000D01*
X148235811Y-83818698D01*
X148546880Y-83353151D01*
X148656113Y-82804000D01*
X148546880Y-82254849D01*
X148235811Y-81789302D01*
X147770264Y-81478233D01*
X147221113Y-81369000D01*
X147164887Y-81369000D01*
X146615736Y-81478233D01*
X146150189Y-81789302D01*
X145839120Y-82254849D01*
X145729887Y-82804000D01*
X145839120Y-83353151D01*
X146150189Y-83818698D01*
X146532275Y-84074000D01*
X146150189Y-84329302D01*
X146049228Y-84480400D01*
X145518715Y-84480400D01*
X145421440Y-84383125D01*
X145421440Y-84182000D01*
X145377162Y-83946683D01*
X145310671Y-83843354D01*
X145312327Y-83841698D01*
X145409000Y-83608309D01*
X145409000Y-83367750D01*
X145250250Y-83209000D01*
X144526000Y-83209000D01*
X144526000Y-83229000D01*
X144272000Y-83229000D01*
X144272000Y-83209000D01*
X143547750Y-83209000D01*
X143389000Y-83367750D01*
X143389000Y-83608309D01*
X143485673Y-83841698D01*
X143487043Y-83843068D01*
X143427569Y-83930110D01*
X143376560Y-84182000D01*
X143376560Y-84383126D01*
X143153343Y-84606343D01*
X142966138Y-84886515D01*
X142900400Y-85217000D01*
X142900400Y-85375159D01*
X142580371Y-85694630D01*
X142367243Y-86207900D01*
X142366758Y-86763661D01*
X142578990Y-87277303D01*
X142971630Y-87670629D01*
X143484900Y-87883757D01*
X144040661Y-87884242D01*
X144554303Y-87672010D01*
X144947629Y-87279370D01*
X145160757Y-86766100D01*
X145161242Y-86210339D01*
X145160031Y-86207407D01*
X145161000Y-86207600D01*
X146049228Y-86207600D01*
X146150189Y-86358698D01*
X146532275Y-86614000D01*
X146150189Y-86869302D01*
X146047327Y-87023245D01*
X145731145Y-87086138D01*
X145450973Y-87273343D01*
X143661343Y-89062973D01*
X143474138Y-89343145D01*
X143408400Y-89673630D01*
X143408400Y-97134121D01*
X143273123Y-96807533D01*
X142980320Y-96678285D01*
X141826605Y-97832000D01*
X141467395Y-97832000D01*
X140313680Y-96678285D01*
X140020877Y-96807533D01*
X139752612Y-97507806D01*
X133881440Y-97507806D01*
X133881440Y-97017000D01*
X133837162Y-96781683D01*
X133698090Y-96565559D01*
X133600210Y-96498680D01*
X140493285Y-96498680D01*
X141647000Y-97652395D01*
X142800715Y-96498680D01*
X142671467Y-96205877D01*
X141971194Y-95937612D01*
X141221565Y-95957750D01*
X140622533Y-96205877D01*
X140493285Y-96498680D01*
X133600210Y-96498680D01*
X133485890Y-96420569D01*
X133434854Y-96410234D01*
X133571966Y-96284576D01*
X133825046Y-95741742D01*
X133704998Y-95504002D01*
X133869000Y-95504002D01*
X133869000Y-95395380D01*
X133960673Y-95616698D01*
X134139301Y-95795327D01*
X134372690Y-95892000D01*
X134588250Y-95892000D01*
X134747000Y-95733250D01*
X134747000Y-94984000D01*
X135001000Y-94984000D01*
X135001000Y-95733250D01*
X135159750Y-95892000D01*
X135375310Y-95892000D01*
X135608699Y-95795327D01*
X135787327Y-95616698D01*
X135884000Y-95383309D01*
X135884000Y-95142750D01*
X135725250Y-94984000D01*
X135001000Y-94984000D01*
X134747000Y-94984000D01*
X134022750Y-94984000D01*
X133864000Y-95142750D01*
X133864000Y-95249998D01*
X133704998Y-95249998D01*
X133825046Y-95012258D01*
X133571966Y-94469424D01*
X133181418Y-94111501D01*
X133419409Y-93952481D01*
X133485880Y-93853000D01*
X133869624Y-93853000D01*
X133895838Y-93992317D01*
X133962329Y-94095646D01*
X133960673Y-94097302D01*
X133864000Y-94330691D01*
X133864000Y-94571250D01*
X134022750Y-94730000D01*
X134747000Y-94730000D01*
X134747000Y-94710000D01*
X135001000Y-94710000D01*
X135001000Y-94730000D01*
X135725250Y-94730000D01*
X135884000Y-94571250D01*
X135884000Y-94330691D01*
X135787327Y-94097302D01*
X135785957Y-94095932D01*
X135845431Y-94008890D01*
X135896440Y-93757000D01*
X135896440Y-93476994D01*
X135978902Y-93394532D01*
X136354605Y-93550537D01*
X136910366Y-93551022D01*
X137424008Y-93338790D01*
X137817334Y-92946150D01*
X138030462Y-92432880D01*
X138030947Y-91877119D01*
X137818715Y-91363477D01*
X137426075Y-90970151D01*
X136912805Y-90757023D01*
X136357044Y-90756538D01*
X135843402Y-90968770D01*
X135450076Y-91361410D01*
X135288828Y-91749739D01*
X134981043Y-92057523D01*
X134742807Y-91898338D01*
X134636130Y-91877119D01*
X134354000Y-91821000D01*
X133485880Y-91821000D01*
X133419409Y-91721519D01*
X132921419Y-91388773D01*
X132334000Y-91271928D01*
X131746581Y-91388773D01*
X131248591Y-91721519D01*
X130915845Y-92219509D01*
X130799000Y-92806928D01*
X130799000Y-92867072D01*
X130915845Y-93454491D01*
X131248591Y-93952481D01*
X131486582Y-94111501D01*
X131096034Y-94469424D01*
X130842954Y-95012258D01*
X130963003Y-95250000D01*
X132207000Y-95250000D01*
X132207000Y-95230000D01*
X132461000Y-95230000D01*
X132461000Y-95250000D01*
X132481000Y-95250000D01*
X132481000Y-95504000D01*
X132461000Y-95504000D01*
X132461000Y-95524000D01*
X132207000Y-95524000D01*
X132207000Y-95504000D01*
X130963003Y-95504000D01*
X130842954Y-95741742D01*
X131096034Y-96284576D01*
X131230538Y-96407844D01*
X131198683Y-96413838D01*
X130982559Y-96552910D01*
X130837569Y-96765110D01*
X130810051Y-96901000D01*
X129083841Y-96901000D01*
X129035102Y-96852262D01*
X128994162Y-96634683D01*
X128927671Y-96531354D01*
X128929327Y-96529698D01*
X129026000Y-96296309D01*
X129026000Y-96055750D01*
X128867250Y-95897000D01*
X128143000Y-95897000D01*
X128143000Y-95917000D01*
X127889000Y-95917000D01*
X127889000Y-95897000D01*
X127164750Y-95897000D01*
X127006000Y-96055750D01*
X127006000Y-96296309D01*
X127102673Y-96529698D01*
X127104043Y-96531068D01*
X127044569Y-96618110D01*
X126997217Y-96851943D01*
X126948160Y-96901000D01*
X125815901Y-96901000D01*
X125793147Y-96866946D01*
X125749223Y-96837597D01*
X125923698Y-96765327D01*
X126102327Y-96586699D01*
X126199000Y-96353310D01*
X126199000Y-95662750D01*
X126040250Y-95504000D01*
X124841000Y-95504000D01*
X124841000Y-95524000D01*
X124587000Y-95524000D01*
X124587000Y-95504000D01*
X123387750Y-95504000D01*
X123229000Y-95662750D01*
X123229000Y-96353310D01*
X123325673Y-96586699D01*
X123504302Y-96765327D01*
X123678777Y-96837597D01*
X123634853Y-96866946D01*
X123312946Y-97348715D01*
X123199907Y-97917000D01*
X115010000Y-97917000D01*
X115010000Y-94400690D01*
X123229000Y-94400690D01*
X123229000Y-95091250D01*
X123387750Y-95250000D01*
X124587000Y-95250000D01*
X124587000Y-94050750D01*
X124841000Y-94050750D01*
X124841000Y-95250000D01*
X126040250Y-95250000D01*
X126046559Y-95243691D01*
X127006000Y-95243691D01*
X127006000Y-95484250D01*
X127164750Y-95643000D01*
X127889000Y-95643000D01*
X127889000Y-94893750D01*
X128143000Y-94893750D01*
X128143000Y-95643000D01*
X128867250Y-95643000D01*
X129026000Y-95484250D01*
X129026000Y-95243691D01*
X128929327Y-95010302D01*
X128750699Y-94831673D01*
X128517310Y-94735000D01*
X128301750Y-94735000D01*
X128143000Y-94893750D01*
X127889000Y-94893750D01*
X127730250Y-94735000D01*
X127514690Y-94735000D01*
X127281301Y-94831673D01*
X127102673Y-95010302D01*
X127006000Y-95243691D01*
X126046559Y-95243691D01*
X126199000Y-95091250D01*
X126199000Y-94400690D01*
X126102327Y-94167301D01*
X125923698Y-93988673D01*
X125690309Y-93892000D01*
X124999750Y-93892000D01*
X124841000Y-94050750D01*
X124587000Y-94050750D01*
X124428250Y-93892000D01*
X123737691Y-93892000D01*
X123504302Y-93988673D01*
X123325673Y-94167301D01*
X123229000Y-94400690D01*
X115010000Y-94400690D01*
X115010000Y-82913403D01*
X119703682Y-82913403D01*
X119982455Y-83588086D01*
X120498199Y-84104730D01*
X121172395Y-84384681D01*
X121902403Y-84385318D01*
X122577086Y-84106545D01*
X123093730Y-83590801D01*
X123104028Y-83566000D01*
X126097710Y-83566000D01*
X126509509Y-83841155D01*
X127096928Y-83958000D01*
X127157072Y-83958000D01*
X127744491Y-83841155D01*
X128242481Y-83508409D01*
X128397000Y-83277155D01*
X128524000Y-83467224D01*
X128524000Y-85146293D01*
X128356371Y-85313630D01*
X128143243Y-85826900D01*
X128142758Y-86382661D01*
X128354990Y-86896303D01*
X128747630Y-87289629D01*
X129260900Y-87502757D01*
X129816661Y-87503242D01*
X130330303Y-87291010D01*
X130723629Y-86898370D01*
X130936757Y-86385100D01*
X130937242Y-85829339D01*
X130725010Y-85315697D01*
X130556000Y-85146392D01*
X130556000Y-83659739D01*
X130705026Y-83560163D01*
X130842910Y-83774441D01*
X131055110Y-83919431D01*
X131307000Y-83970440D01*
X133107000Y-83970440D01*
X133342317Y-83926162D01*
X133558441Y-83787090D01*
X133703431Y-83574890D01*
X133754440Y-83323000D01*
X133754440Y-82555691D01*
X143389000Y-82555691D01*
X143389000Y-82796250D01*
X143547750Y-82955000D01*
X144272000Y-82955000D01*
X144272000Y-82205750D01*
X144526000Y-82205750D01*
X144526000Y-82955000D01*
X145250250Y-82955000D01*
X145409000Y-82796250D01*
X145409000Y-82555691D01*
X145312327Y-82322302D01*
X145133699Y-82143673D01*
X144900310Y-82047000D01*
X144684750Y-82047000D01*
X144526000Y-82205750D01*
X144272000Y-82205750D01*
X144113250Y-82047000D01*
X143897690Y-82047000D01*
X143664301Y-82143673D01*
X143485673Y-82322302D01*
X143389000Y-82555691D01*
X133754440Y-82555691D01*
X133754440Y-82096875D01*
X133846258Y-82005057D01*
X134004535Y-81768178D01*
X134033463Y-81724884D01*
X134099201Y-81394399D01*
X134099201Y-78860691D01*
X170186000Y-78860691D01*
X170186000Y-79101250D01*
X170344750Y-79260000D01*
X171069000Y-79260000D01*
X171069000Y-78510750D01*
X171323000Y-78510750D01*
X171323000Y-79260000D01*
X172047250Y-79260000D01*
X172206000Y-79101250D01*
X172206000Y-78860691D01*
X172109327Y-78627302D01*
X171930699Y-78448673D01*
X171697310Y-78352000D01*
X171481750Y-78352000D01*
X171323000Y-78510750D01*
X171069000Y-78510750D01*
X170910250Y-78352000D01*
X170694690Y-78352000D01*
X170461301Y-78448673D01*
X170282673Y-78627302D01*
X170186000Y-78860691D01*
X134099201Y-78860691D01*
X134099201Y-75342750D01*
X145200000Y-75342750D01*
X145200000Y-76033310D01*
X145296673Y-76266699D01*
X145475302Y-76445327D01*
X145708691Y-76542000D01*
X146399250Y-76542000D01*
X146558000Y-76383250D01*
X146558000Y-75184000D01*
X146812000Y-75184000D01*
X146812000Y-76383250D01*
X146970750Y-76542000D01*
X147661309Y-76542000D01*
X147894698Y-76445327D01*
X148073327Y-76266699D01*
X148170000Y-76033310D01*
X148170000Y-75342750D01*
X148011250Y-75184000D01*
X146812000Y-75184000D01*
X146558000Y-75184000D01*
X145358750Y-75184000D01*
X145200000Y-75342750D01*
X134099201Y-75342750D01*
X134099201Y-74688601D01*
X134066380Y-74523600D01*
X136398000Y-74523600D01*
X136728485Y-74457862D01*
X136731538Y-74455822D01*
X137003907Y-74510000D01*
X137062093Y-74510000D01*
X137630378Y-74396961D01*
X138112147Y-74075054D01*
X138434054Y-73593285D01*
X138547093Y-73025000D01*
X138434054Y-72456715D01*
X138112147Y-71974946D01*
X138068223Y-71945597D01*
X138242698Y-71873327D01*
X138421327Y-71694699D01*
X138518000Y-71461310D01*
X138518000Y-70770750D01*
X138359250Y-70612000D01*
X137160000Y-70612000D01*
X137160000Y-70632000D01*
X136906000Y-70632000D01*
X136906000Y-70612000D01*
X135706750Y-70612000D01*
X135548000Y-70770750D01*
X135548000Y-71461310D01*
X135644673Y-71694699D01*
X135823302Y-71873327D01*
X135997777Y-71945597D01*
X135953853Y-71974946D01*
X135631946Y-72456715D01*
X135564378Y-72796400D01*
X133754440Y-72796400D01*
X133754440Y-72760000D01*
X133710162Y-72524683D01*
X133571090Y-72308559D01*
X133358890Y-72163569D01*
X133107000Y-72112560D01*
X131307000Y-72112560D01*
X131071683Y-72156838D01*
X130855559Y-72295910D01*
X130710569Y-72508110D01*
X130700234Y-72559146D01*
X130574576Y-72422034D01*
X130031742Y-72168954D01*
X129794000Y-72289003D01*
X129794000Y-73533000D01*
X129814000Y-73533000D01*
X129814000Y-73787000D01*
X129794000Y-73787000D01*
X129794000Y-75030997D01*
X129939505Y-75104470D01*
X129902673Y-75141302D01*
X129806000Y-75374691D01*
X129806000Y-76190250D01*
X129964748Y-76348998D01*
X129948515Y-76348998D01*
X129945327Y-76341302D01*
X129766699Y-76162673D01*
X129533310Y-76066000D01*
X129317750Y-76066000D01*
X129159000Y-76224750D01*
X129159000Y-76974000D01*
X129179000Y-76974000D01*
X129179000Y-77228000D01*
X129159000Y-77228000D01*
X129159000Y-77248000D01*
X128905000Y-77248000D01*
X128905000Y-77228000D01*
X128885000Y-77228000D01*
X128885000Y-76974000D01*
X128905000Y-76974000D01*
X128905000Y-76224750D01*
X128746250Y-76066000D01*
X128530690Y-76066000D01*
X128297301Y-76162673D01*
X128143000Y-76316975D01*
X128143000Y-74811880D01*
X128242481Y-74745409D01*
X128401501Y-74507418D01*
X128759424Y-74897966D01*
X129302258Y-75151046D01*
X129540000Y-75030997D01*
X129540000Y-73787000D01*
X129520000Y-73787000D01*
X129520000Y-73533000D01*
X129540000Y-73533000D01*
X129540000Y-72289003D01*
X129302258Y-72168954D01*
X128759424Y-72422034D01*
X128401501Y-72812582D01*
X128242481Y-72574591D01*
X127744491Y-72241845D01*
X127157072Y-72125000D01*
X127096928Y-72125000D01*
X126509509Y-72241845D01*
X126011519Y-72574591D01*
X125678773Y-73072581D01*
X125561928Y-73660000D01*
X125678773Y-74247419D01*
X126011519Y-74745409D01*
X126111000Y-74811880D01*
X126111000Y-81271120D01*
X126011519Y-81337591D01*
X125880283Y-81534000D01*
X123104671Y-81534000D01*
X123095545Y-81511914D01*
X122579801Y-80995270D01*
X121905605Y-80715319D01*
X121175597Y-80714682D01*
X120500914Y-80993455D01*
X119984270Y-81509199D01*
X119704319Y-82183395D01*
X119703682Y-82913403D01*
X115010000Y-82913403D01*
X115010000Y-69814050D01*
X119704000Y-69814050D01*
X119704000Y-69885950D01*
X119843681Y-70588174D01*
X120241459Y-71183491D01*
X120836776Y-71581269D01*
X121539000Y-71720950D01*
X122241224Y-71581269D01*
X122836541Y-71183491D01*
X123234319Y-70588174D01*
X123374000Y-69885950D01*
X123374000Y-69814050D01*
X123313906Y-69511935D01*
X123317151Y-69508690D01*
X135548000Y-69508690D01*
X135548000Y-70199250D01*
X135706750Y-70358000D01*
X136906000Y-70358000D01*
X136906000Y-69158750D01*
X137160000Y-69158750D01*
X137160000Y-70358000D01*
X138359250Y-70358000D01*
X138518000Y-70199250D01*
X138518000Y-69508690D01*
X138421327Y-69275301D01*
X138242698Y-69096673D01*
X138009309Y-69000000D01*
X137318750Y-69000000D01*
X137160000Y-69158750D01*
X136906000Y-69158750D01*
X136747250Y-69000000D01*
X136056691Y-69000000D01*
X135823302Y-69096673D01*
X135644673Y-69275301D01*
X135548000Y-69508690D01*
X123317151Y-69508690D01*
X124907401Y-67918440D01*
X126199000Y-67918440D01*
X126434317Y-67874162D01*
X126650441Y-67735090D01*
X126795431Y-67522890D01*
X126846440Y-67271000D01*
X126846440Y-67096640D01*
X127780040Y-67096640D01*
X127780040Y-67483990D01*
X127824318Y-67719307D01*
X127963390Y-67935431D01*
X128175590Y-68080421D01*
X128427480Y-68131430D01*
X129428240Y-68131430D01*
X129663557Y-68087152D01*
X129675414Y-68079522D01*
X129676730Y-68080421D01*
X129928620Y-68131430D01*
X130929380Y-68131430D01*
X131164697Y-68087152D01*
X131176554Y-68079522D01*
X131177870Y-68080421D01*
X131429760Y-68131430D01*
X132430520Y-68131430D01*
X132665837Y-68087152D01*
X132881961Y-67948080D01*
X133026951Y-67735880D01*
X133077960Y-67483990D01*
X133077960Y-66664600D01*
X133720202Y-66664600D01*
X133912000Y-66703440D01*
X134312000Y-66703440D01*
X134518417Y-66664600D01*
X135417200Y-66664600D01*
X135747685Y-66598862D01*
X136027857Y-66411657D01*
X137267657Y-65171857D01*
X137454862Y-64891685D01*
X137464477Y-64843346D01*
X137489593Y-64717083D01*
X137542317Y-64707162D01*
X137758441Y-64568090D01*
X137903431Y-64355890D01*
X137954440Y-64104000D01*
X137954440Y-63579940D01*
X138009554Y-63635054D01*
X138123286Y-63521322D01*
X138252533Y-63814123D01*
X138952806Y-64082388D01*
X139702435Y-64062250D01*
X140301467Y-63814123D01*
X140430715Y-63521320D01*
X139277000Y-62367605D01*
X139262858Y-62381748D01*
X139083253Y-62202143D01*
X139097395Y-62188000D01*
X137943680Y-61034285D01*
X137800111Y-61097659D01*
X137771090Y-61052559D01*
X137594350Y-60931798D01*
X138036846Y-60490073D01*
X138063202Y-60426600D01*
X138579121Y-60426600D01*
X138252533Y-60561877D01*
X138123285Y-60854680D01*
X139277000Y-62008395D01*
X140430715Y-60854680D01*
X140301467Y-60561877D01*
X139948343Y-60426600D01*
X141541399Y-60426600D01*
X141623110Y-60482431D01*
X141875000Y-60533440D01*
X142375000Y-60533440D01*
X142610317Y-60489162D01*
X142826441Y-60350090D01*
X142874134Y-60280289D01*
X142910910Y-60337441D01*
X142986345Y-60388983D01*
X142815283Y-60503283D01*
X142815281Y-60503286D01*
X141529283Y-61789283D01*
X141350337Y-62057094D01*
X141317600Y-62221674D01*
X141211559Y-62289910D01*
X141167162Y-62354887D01*
X141151250Y-61762565D01*
X140903123Y-61163533D01*
X140610320Y-61034285D01*
X139456605Y-62188000D01*
X140610320Y-63341715D01*
X140903123Y-63212467D01*
X141015560Y-62918964D01*
X141015560Y-63254000D01*
X141059838Y-63489317D01*
X141198910Y-63705441D01*
X141268711Y-63753134D01*
X141211559Y-63789910D01*
X141066569Y-64002110D01*
X141015560Y-64254000D01*
X141015560Y-64754000D01*
X141059838Y-64989317D01*
X141198910Y-65205441D01*
X141317649Y-65286572D01*
X141350337Y-65450906D01*
X141529283Y-65718717D01*
X143335281Y-67524714D01*
X143335283Y-67524717D01*
X143523775Y-67650663D01*
X143603095Y-67703663D01*
X143919000Y-67766501D01*
X143919005Y-67766500D01*
X144713018Y-67766500D01*
X144697569Y-67789110D01*
X144646560Y-68041000D01*
X144646560Y-68841000D01*
X144690838Y-69076317D01*
X144829910Y-69292441D01*
X145042110Y-69437431D01*
X145294000Y-69488440D01*
X145524007Y-69488440D01*
X145904782Y-69869215D01*
X145904784Y-69869218D01*
X146172596Y-70048164D01*
X146488501Y-70111001D01*
X148302345Y-70111001D01*
X148449560Y-70081718D01*
X148449560Y-70275500D01*
X148493838Y-70510817D01*
X148632910Y-70726941D01*
X148845110Y-70871931D01*
X149033500Y-70910081D01*
X149033500Y-71691500D01*
X147914189Y-71691500D01*
X147764147Y-71466946D01*
X147282378Y-71145039D01*
X146714093Y-71032000D01*
X146655907Y-71032000D01*
X146087622Y-71145039D01*
X145605853Y-71466946D01*
X145283946Y-71948715D01*
X145170907Y-72517000D01*
X145283946Y-73085285D01*
X145605853Y-73567054D01*
X145649777Y-73596403D01*
X145475302Y-73668673D01*
X145296673Y-73847301D01*
X145200000Y-74080690D01*
X145200000Y-74771250D01*
X145358750Y-74930000D01*
X146558000Y-74930000D01*
X146558000Y-74910000D01*
X146812000Y-74910000D01*
X146812000Y-74930000D01*
X148011250Y-74930000D01*
X148170000Y-74771250D01*
X148170000Y-74556750D01*
X148850000Y-74556750D01*
X148850000Y-74797309D01*
X148946673Y-75030698D01*
X149125301Y-75209327D01*
X149358690Y-75306000D01*
X149574250Y-75306000D01*
X149733000Y-75147250D01*
X149733000Y-74398000D01*
X149987000Y-74398000D01*
X149987000Y-75147250D01*
X150145750Y-75306000D01*
X150361310Y-75306000D01*
X150594699Y-75209327D01*
X150773327Y-75030698D01*
X150870000Y-74797309D01*
X150870000Y-74568750D01*
X153041000Y-74568750D01*
X153041000Y-74809309D01*
X153137673Y-75042698D01*
X153316301Y-75221327D01*
X153549690Y-75318000D01*
X153765250Y-75318000D01*
X153924000Y-75159250D01*
X153924000Y-74410000D01*
X154178000Y-74410000D01*
X154178000Y-75159250D01*
X154336750Y-75318000D01*
X154552310Y-75318000D01*
X154785699Y-75221327D01*
X154964327Y-75042698D01*
X155061000Y-74809309D01*
X155061000Y-74580750D01*
X155073000Y-74580750D01*
X155073000Y-74821309D01*
X155169673Y-75054698D01*
X155348301Y-75233327D01*
X155581690Y-75330000D01*
X155797250Y-75330000D01*
X155956000Y-75171250D01*
X155956000Y-74422000D01*
X156210000Y-74422000D01*
X156210000Y-75171250D01*
X156368750Y-75330000D01*
X156584310Y-75330000D01*
X156817699Y-75233327D01*
X156996327Y-75054698D01*
X157093000Y-74821309D01*
X157093000Y-74580750D01*
X156934250Y-74422000D01*
X156210000Y-74422000D01*
X155956000Y-74422000D01*
X155231750Y-74422000D01*
X155073000Y-74580750D01*
X155061000Y-74580750D01*
X155061000Y-74568750D01*
X154902250Y-74410000D01*
X154178000Y-74410000D01*
X153924000Y-74410000D01*
X153199750Y-74410000D01*
X153041000Y-74568750D01*
X150870000Y-74568750D01*
X150870000Y-74556750D01*
X150711250Y-74398000D01*
X149987000Y-74398000D01*
X149733000Y-74398000D01*
X149008750Y-74398000D01*
X148850000Y-74556750D01*
X148170000Y-74556750D01*
X148170000Y-74080690D01*
X148073327Y-73847301D01*
X147894698Y-73668673D01*
X147720223Y-73596403D01*
X147764147Y-73567054D01*
X147914189Y-73342500D01*
X148869830Y-73342500D01*
X148881838Y-73406317D01*
X148948329Y-73509646D01*
X148946673Y-73511302D01*
X148850000Y-73744691D01*
X148850000Y-73985250D01*
X149008750Y-74144000D01*
X149733000Y-74144000D01*
X149733000Y-74124000D01*
X149987000Y-74124000D01*
X149987000Y-74144000D01*
X150711250Y-74144000D01*
X150870000Y-73985250D01*
X150870000Y-73744691D01*
X150773327Y-73511302D01*
X150771957Y-73509932D01*
X150831431Y-73422890D01*
X150882440Y-73171000D01*
X150882440Y-72383000D01*
X153028560Y-72383000D01*
X153028560Y-73183000D01*
X153072838Y-73418317D01*
X153139329Y-73521646D01*
X153137673Y-73523302D01*
X153041000Y-73756691D01*
X153041000Y-73997250D01*
X153199750Y-74156000D01*
X153924000Y-74156000D01*
X153924000Y-74136000D01*
X154178000Y-74136000D01*
X154178000Y-74156000D01*
X154902250Y-74156000D01*
X155061000Y-73997250D01*
X155061000Y-73756691D01*
X154964327Y-73523302D01*
X154962957Y-73521932D01*
X155022431Y-73434890D01*
X155065593Y-73221749D01*
X155104838Y-73430317D01*
X155171329Y-73533646D01*
X155169673Y-73535302D01*
X155073000Y-73768691D01*
X155073000Y-74009250D01*
X155231750Y-74168000D01*
X155956000Y-74168000D01*
X155956000Y-74148000D01*
X156210000Y-74148000D01*
X156210000Y-74168000D01*
X156934250Y-74168000D01*
X157093000Y-74009250D01*
X157093000Y-73768691D01*
X156996327Y-73535302D01*
X156994957Y-73533932D01*
X157054431Y-73446890D01*
X157105440Y-73195000D01*
X157105440Y-72395000D01*
X157068065Y-72196368D01*
X157239215Y-72025218D01*
X157239218Y-72025216D01*
X157359000Y-71845949D01*
X157359000Y-71870002D01*
X157517748Y-71870002D01*
X157359000Y-72028750D01*
X157359000Y-72269309D01*
X157455673Y-72502698D01*
X157634301Y-72681327D01*
X157867690Y-72778000D01*
X158083250Y-72778000D01*
X158242000Y-72619250D01*
X158242000Y-71870000D01*
X158222000Y-71870000D01*
X158222000Y-71616000D01*
X158242000Y-71616000D01*
X158242000Y-71596000D01*
X158496000Y-71596000D01*
X158496000Y-71616000D01*
X158516000Y-71616000D01*
X158516000Y-71870000D01*
X158496000Y-71870000D01*
X158496000Y-72619250D01*
X158654750Y-72778000D01*
X158870310Y-72778000D01*
X159103699Y-72681327D01*
X159282327Y-72502698D01*
X159303560Y-72451437D01*
X159303560Y-72501000D01*
X159347838Y-72736317D01*
X159486910Y-72952441D01*
X159575500Y-73012972D01*
X159575500Y-73907126D01*
X159217371Y-74264630D01*
X159004243Y-74777900D01*
X159003758Y-75333661D01*
X159215990Y-75847303D01*
X159608630Y-76240629D01*
X160121900Y-76453757D01*
X160677661Y-76454242D01*
X160934012Y-76348320D01*
X162591285Y-76348320D01*
X162720533Y-76641123D01*
X163420806Y-76909388D01*
X164170435Y-76889250D01*
X164769467Y-76641123D01*
X164898715Y-76348320D01*
X167841285Y-76348320D01*
X167970533Y-76641123D01*
X168670806Y-76909388D01*
X169420435Y-76889250D01*
X170019467Y-76641123D01*
X170148715Y-76348320D01*
X168995000Y-75194605D01*
X167841285Y-76348320D01*
X164898715Y-76348320D01*
X163745000Y-75194605D01*
X162591285Y-76348320D01*
X160934012Y-76348320D01*
X161191303Y-76242010D01*
X161584629Y-75849370D01*
X161797757Y-75336100D01*
X161798242Y-74780339D01*
X161761248Y-74690806D01*
X161850612Y-74690806D01*
X161870750Y-75440435D01*
X162118877Y-76039467D01*
X162411680Y-76168715D01*
X163565395Y-75015000D01*
X163924605Y-75015000D01*
X165078320Y-76168715D01*
X165371123Y-76039467D01*
X165639388Y-75339194D01*
X165621970Y-74690806D01*
X167100612Y-74690806D01*
X167120750Y-75440435D01*
X167368877Y-76039467D01*
X167661680Y-76168715D01*
X168815395Y-75015000D01*
X169174605Y-75015000D01*
X170328320Y-76168715D01*
X170621123Y-76039467D01*
X170889388Y-75339194D01*
X170869250Y-74589565D01*
X170621123Y-73990533D01*
X170328320Y-73861285D01*
X169174605Y-75015000D01*
X168815395Y-75015000D01*
X167661680Y-73861285D01*
X167368877Y-73990533D01*
X167100612Y-74690806D01*
X165621970Y-74690806D01*
X165619250Y-74589565D01*
X165371123Y-73990533D01*
X165078320Y-73861285D01*
X163924605Y-75015000D01*
X163565395Y-75015000D01*
X162411680Y-73861285D01*
X162118877Y-73990533D01*
X161850612Y-74690806D01*
X161761248Y-74690806D01*
X161586010Y-74266697D01*
X161226500Y-73906559D01*
X161226500Y-73681680D01*
X162591285Y-73681680D01*
X163745000Y-74835395D01*
X164898715Y-73681680D01*
X164769467Y-73388877D01*
X164069194Y-73120612D01*
X163319565Y-73140750D01*
X162720533Y-73388877D01*
X162591285Y-73681680D01*
X161226500Y-73681680D01*
X161226500Y-73013957D01*
X161302441Y-72965090D01*
X161447431Y-72752890D01*
X161498440Y-72501000D01*
X161498440Y-72001000D01*
X161454162Y-71765683D01*
X161315090Y-71549559D01*
X161245289Y-71501866D01*
X161302441Y-71465090D01*
X161447431Y-71252890D01*
X161478732Y-71098320D01*
X162591285Y-71098320D01*
X162720533Y-71391123D01*
X163420806Y-71659388D01*
X164170435Y-71639250D01*
X164769467Y-71391123D01*
X164898715Y-71098320D01*
X163745000Y-69944605D01*
X162591285Y-71098320D01*
X161478732Y-71098320D01*
X161498440Y-71001000D01*
X161498440Y-70501000D01*
X161454162Y-70265683D01*
X161315090Y-70049559D01*
X161102890Y-69904569D01*
X160851000Y-69853560D01*
X160670994Y-69853560D01*
X160476717Y-69659283D01*
X160208906Y-69480337D01*
X159893000Y-69417500D01*
X159224783Y-69417500D01*
X159208090Y-69391559D01*
X158995890Y-69246569D01*
X158801045Y-69207112D01*
X157939214Y-68345280D01*
X158238931Y-68285663D01*
X158506742Y-68106717D01*
X158880560Y-67732899D01*
X158880560Y-68522000D01*
X158924838Y-68757317D01*
X159063910Y-68973441D01*
X159276110Y-69118431D01*
X159528000Y-69169440D01*
X160028000Y-69169440D01*
X160263317Y-69125162D01*
X160479441Y-68986090D01*
X160527134Y-68916289D01*
X160563910Y-68973441D01*
X160776110Y-69118431D01*
X161028000Y-69169440D01*
X161528000Y-69169440D01*
X161763317Y-69125162D01*
X161979441Y-68986090D01*
X162082703Y-68834961D01*
X161850612Y-69440806D01*
X161870750Y-70190435D01*
X162118877Y-70789467D01*
X162411680Y-70918715D01*
X163565395Y-69765000D01*
X163924605Y-69765000D01*
X165078320Y-70918715D01*
X165371123Y-70789467D01*
X165639388Y-70089194D01*
X165621970Y-69440806D01*
X167100612Y-69440806D01*
X167120750Y-70190435D01*
X167368877Y-70789467D01*
X167661680Y-70918715D01*
X168815395Y-69765000D01*
X167661680Y-68611285D01*
X167368877Y-68740533D01*
X167100612Y-69440806D01*
X165621970Y-69440806D01*
X165619250Y-69339565D01*
X165371123Y-68740533D01*
X165078320Y-68611285D01*
X163924605Y-69765000D01*
X163565395Y-69765000D01*
X162411680Y-68611285D01*
X162132394Y-68734566D01*
X162175440Y-68522000D01*
X162175440Y-67949707D01*
X162184000Y-67951440D01*
X162984000Y-67951440D01*
X163219317Y-67907162D01*
X163333978Y-67833380D01*
X163414220Y-67888207D01*
X163319565Y-67890750D01*
X162720533Y-68138877D01*
X162591285Y-68431680D01*
X163745000Y-69585395D01*
X164898715Y-68431680D01*
X164769467Y-68138877D01*
X164280186Y-67951440D01*
X164484000Y-67951440D01*
X164654927Y-67919278D01*
X164737110Y-67975431D01*
X164989000Y-68026440D01*
X165489000Y-68026440D01*
X165724317Y-67982162D01*
X165940441Y-67843090D01*
X165988134Y-67773289D01*
X166024910Y-67830441D01*
X166237110Y-67975431D01*
X166489000Y-68026440D01*
X166989000Y-68026440D01*
X167224317Y-67982162D01*
X167365749Y-67891153D01*
X167388110Y-67906431D01*
X167640000Y-67957440D01*
X168408561Y-67957440D01*
X167970533Y-68138877D01*
X167841285Y-68431680D01*
X168995000Y-69585395D01*
X170148715Y-68431680D01*
X170019467Y-68138877D01*
X169461904Y-67925282D01*
X169526317Y-67913162D01*
X169742441Y-67774090D01*
X169887431Y-67561890D01*
X169938440Y-67310000D01*
X169938440Y-66548000D01*
X169894162Y-66312683D01*
X169876645Y-66285461D01*
X169926000Y-66166309D01*
X169926000Y-65944750D01*
X169767250Y-65786000D01*
X168592500Y-65786000D01*
X168592500Y-65806000D01*
X168338500Y-65806000D01*
X168338500Y-65786000D01*
X167163750Y-65786000D01*
X167096434Y-65853316D01*
X166989000Y-65831560D01*
X166489000Y-65831560D01*
X166253683Y-65875838D01*
X166037559Y-66014910D01*
X165989866Y-66084711D01*
X165953090Y-66027559D01*
X165740890Y-65882569D01*
X165489000Y-65831560D01*
X164989000Y-65831560D01*
X164753683Y-65875838D01*
X164652814Y-65940746D01*
X164484000Y-65906560D01*
X163684000Y-65906560D01*
X163448683Y-65950838D01*
X163334022Y-66024620D01*
X163235890Y-65957569D01*
X162984000Y-65906560D01*
X162184000Y-65906560D01*
X162175612Y-65908138D01*
X162143162Y-65735683D01*
X162046659Y-65585713D01*
X162124431Y-65471890D01*
X162138537Y-65402233D01*
X162184000Y-65411440D01*
X162984000Y-65411440D01*
X163219317Y-65367162D01*
X163333978Y-65293380D01*
X163432110Y-65360431D01*
X163684000Y-65411440D01*
X164484000Y-65411440D01*
X164719317Y-65367162D01*
X164736249Y-65356267D01*
X164852110Y-65435431D01*
X165104000Y-65486440D01*
X165604000Y-65486440D01*
X165839317Y-65442162D01*
X166055441Y-65303090D01*
X166103134Y-65233289D01*
X166139910Y-65290441D01*
X166352110Y-65435431D01*
X166604000Y-65486440D01*
X167104000Y-65486440D01*
X167115943Y-65484193D01*
X167163750Y-65532000D01*
X168338500Y-65532000D01*
X168338500Y-65512000D01*
X168592500Y-65512000D01*
X168592500Y-65532000D01*
X169767250Y-65532000D01*
X169926000Y-65373250D01*
X169926000Y-65151691D01*
X169877970Y-65035737D01*
X169887431Y-65021890D01*
X169938440Y-64770000D01*
X169938440Y-64674750D01*
X170180000Y-64674750D01*
X170180000Y-64896309D01*
X170276673Y-65129698D01*
X170455301Y-65308327D01*
X170688690Y-65405000D01*
X171354750Y-65405000D01*
X171513500Y-65246250D01*
X171513500Y-64516000D01*
X171767500Y-64516000D01*
X171767500Y-65246250D01*
X171926250Y-65405000D01*
X172592310Y-65405000D01*
X172825699Y-65308327D01*
X173004327Y-65129698D01*
X173101000Y-64896309D01*
X173101000Y-64674750D01*
X172942250Y-64516000D01*
X171767500Y-64516000D01*
X171513500Y-64516000D01*
X170338750Y-64516000D01*
X170180000Y-64674750D01*
X169938440Y-64674750D01*
X169938440Y-64008000D01*
X169914674Y-63881691D01*
X170180000Y-63881691D01*
X170180000Y-64103250D01*
X170338750Y-64262000D01*
X171513500Y-64262000D01*
X171513500Y-63531750D01*
X171767500Y-63531750D01*
X171767500Y-64262000D01*
X172942250Y-64262000D01*
X173101000Y-64103250D01*
X173101000Y-63881691D01*
X173004327Y-63648302D01*
X172825699Y-63469673D01*
X172592310Y-63373000D01*
X171926250Y-63373000D01*
X171767500Y-63531750D01*
X171513500Y-63531750D01*
X171354750Y-63373000D01*
X170688690Y-63373000D01*
X170455301Y-63469673D01*
X170276673Y-63648302D01*
X170180000Y-63881691D01*
X169914674Y-63881691D01*
X169894162Y-63772683D01*
X169755090Y-63556559D01*
X169542890Y-63411569D01*
X169291000Y-63360560D01*
X167640000Y-63360560D01*
X167437881Y-63398591D01*
X167355890Y-63342569D01*
X167104000Y-63291560D01*
X166604000Y-63291560D01*
X166368683Y-63335838D01*
X166152559Y-63474910D01*
X166104866Y-63544711D01*
X166068090Y-63487559D01*
X165855890Y-63342569D01*
X165604000Y-63291560D01*
X165104000Y-63291560D01*
X164868683Y-63335838D01*
X164738693Y-63419484D01*
X164735890Y-63417569D01*
X164484000Y-63366560D01*
X163862723Y-63366560D01*
X163993970Y-63235542D01*
X164207098Y-62722272D01*
X164207542Y-62213405D01*
X165683714Y-60737232D01*
X165683717Y-60737230D01*
X165862663Y-60469418D01*
X165925500Y-60153513D01*
X165925500Y-56474189D01*
X166150054Y-56324147D01*
X166177850Y-56282548D01*
X166186838Y-56330317D01*
X166325910Y-56546441D01*
X166538110Y-56691431D01*
X166790000Y-56742440D01*
X168490000Y-56742440D01*
X168725317Y-56698162D01*
X168941441Y-56559090D01*
X169086431Y-56346890D01*
X169137440Y-56095000D01*
X169137440Y-55052619D01*
X171754613Y-55052619D01*
X172094155Y-55874372D01*
X172722321Y-56503636D01*
X173543481Y-56844611D01*
X174432619Y-56845387D01*
X175254372Y-56505845D01*
X175883636Y-55877679D01*
X176224611Y-55056519D01*
X176225387Y-54167381D01*
X175885845Y-53345628D01*
X175257679Y-52716364D01*
X174436519Y-52375389D01*
X173547381Y-52374613D01*
X172725628Y-52714155D01*
X172096364Y-53342321D01*
X171755389Y-54163481D01*
X171754613Y-55052619D01*
X169137440Y-55052619D01*
X169137440Y-54395000D01*
X169093162Y-54159683D01*
X168954090Y-53943559D01*
X168741890Y-53798569D01*
X168627699Y-53775445D01*
X168835183Y-53586358D01*
X169081486Y-53061892D01*
X168960819Y-52832000D01*
X167767000Y-52832000D01*
X167767000Y-52852000D01*
X167513000Y-52852000D01*
X167513000Y-52832000D01*
X165227000Y-52832000D01*
X165227000Y-52852000D01*
X164973000Y-52852000D01*
X164973000Y-52832000D01*
X162687000Y-52832000D01*
X162687000Y-52852000D01*
X162433000Y-52852000D01*
X162433000Y-52832000D01*
X160147000Y-52832000D01*
X160147000Y-52852000D01*
X159893000Y-52852000D01*
X159893000Y-52832000D01*
X157607000Y-52832000D01*
X157607000Y-52852000D01*
X157353000Y-52852000D01*
X157353000Y-52832000D01*
X155067000Y-52832000D01*
X155067000Y-52852000D01*
X154813000Y-52852000D01*
X154813000Y-52832000D01*
X153619181Y-52832000D01*
X153498514Y-53061892D01*
X153744817Y-53586358D01*
X154173076Y-53976645D01*
X154173101Y-53976655D01*
X153889946Y-54165853D01*
X153568039Y-54647622D01*
X153455000Y-55215907D01*
X153455000Y-55274093D01*
X153568039Y-55842378D01*
X153889946Y-56324147D01*
X154371715Y-56646054D01*
X154940000Y-56759093D01*
X155508285Y-56646054D01*
X155990054Y-56324147D01*
X156210000Y-55994974D01*
X156429946Y-56324147D01*
X156911715Y-56646054D01*
X157480000Y-56759093D01*
X158048285Y-56646054D01*
X158530054Y-56324147D01*
X158750000Y-55994974D01*
X158969946Y-56324147D01*
X159451715Y-56646054D01*
X160020000Y-56759093D01*
X160588285Y-56646054D01*
X161070054Y-56324147D01*
X161290000Y-55994974D01*
X161509946Y-56324147D01*
X161991715Y-56646054D01*
X162560000Y-56759093D01*
X163128285Y-56646054D01*
X163610054Y-56324147D01*
X163830000Y-55994974D01*
X164049946Y-56324147D01*
X164274500Y-56474189D01*
X164274500Y-59811580D01*
X163039707Y-61046372D01*
X162533680Y-61045930D01*
X162020038Y-61258162D01*
X161626712Y-61650802D01*
X161472760Y-62021560D01*
X161028000Y-62021560D01*
X160792683Y-62065838D01*
X160576559Y-62204910D01*
X160528866Y-62274711D01*
X160492090Y-62217559D01*
X160279890Y-62072569D01*
X160028000Y-62021560D01*
X159528000Y-62021560D01*
X159292683Y-62065838D01*
X159076559Y-62204910D01*
X158931569Y-62417110D01*
X158880560Y-62669000D01*
X158880560Y-63569000D01*
X158924838Y-63804317D01*
X158952500Y-63847305D01*
X158952500Y-64037476D01*
X158931569Y-64068110D01*
X158880560Y-64320000D01*
X158880560Y-64500007D01*
X158731632Y-64648935D01*
X158665010Y-64487697D01*
X158272370Y-64094371D01*
X157759100Y-63881243D01*
X157203339Y-63880758D01*
X156846000Y-64028407D01*
X156846000Y-64009190D01*
X156749327Y-63775801D01*
X156570698Y-63597173D01*
X156337309Y-63500500D01*
X155734750Y-63500500D01*
X155576000Y-63659250D01*
X155576000Y-64128060D01*
X155322000Y-64128060D01*
X155322000Y-63659250D01*
X155163250Y-63500500D01*
X154560691Y-63500500D01*
X154327302Y-63597173D01*
X154148673Y-63775801D01*
X154052000Y-64009190D01*
X154052000Y-64071750D01*
X154210750Y-64230500D01*
X154361297Y-64230500D01*
X154235559Y-64311410D01*
X154090569Y-64523610D01*
X154086234Y-64545016D01*
X154052000Y-64579250D01*
X154052000Y-64641810D01*
X154061828Y-64665537D01*
X154039560Y-64775500D01*
X154039560Y-65155500D01*
X154064919Y-65290272D01*
X154039560Y-65415500D01*
X154039560Y-65795500D01*
X154060744Y-65908081D01*
X154052000Y-65929190D01*
X154052000Y-65991750D01*
X154082163Y-66021913D01*
X154083838Y-66030817D01*
X154222910Y-66246941D01*
X154224299Y-66247890D01*
X154090569Y-66443610D01*
X154086234Y-66465016D01*
X154052000Y-66499250D01*
X154052000Y-66561810D01*
X154061828Y-66585537D01*
X154039560Y-66695500D01*
X154039560Y-67075500D01*
X154064919Y-67210272D01*
X154039560Y-67335500D01*
X154039560Y-67715500D01*
X154064919Y-67850272D01*
X154039560Y-67975500D01*
X154039560Y-68355500D01*
X154064919Y-68490272D01*
X154039560Y-68615500D01*
X154039560Y-68995500D01*
X154064919Y-69130272D01*
X154039560Y-69255500D01*
X154039560Y-69635500D01*
X154064919Y-69770272D01*
X154039560Y-69895500D01*
X154039560Y-70275500D01*
X154083838Y-70510817D01*
X154222910Y-70726941D01*
X154435110Y-70871931D01*
X154623500Y-70910081D01*
X154623500Y-71043067D01*
X153931006Y-71735560D01*
X153676000Y-71735560D01*
X153440683Y-71779838D01*
X153224559Y-71918910D01*
X153079569Y-72131110D01*
X153028560Y-72383000D01*
X150882440Y-72383000D01*
X150882440Y-72371000D01*
X150838162Y-72135683D01*
X150699090Y-71919559D01*
X150684500Y-71909590D01*
X150684500Y-70910992D01*
X150856317Y-70878662D01*
X151072441Y-70739590D01*
X151217431Y-70527390D01*
X151268440Y-70275500D01*
X151268440Y-69895500D01*
X151247256Y-69782919D01*
X151256000Y-69761810D01*
X151256000Y-69699250D01*
X151225837Y-69669087D01*
X151224162Y-69660183D01*
X151085090Y-69444059D01*
X151083701Y-69443110D01*
X151217431Y-69247390D01*
X151221766Y-69225984D01*
X151256000Y-69191750D01*
X151256000Y-69129190D01*
X151246172Y-69105463D01*
X151268440Y-68995500D01*
X151268440Y-68615500D01*
X151243081Y-68480728D01*
X151268440Y-68355500D01*
X151268440Y-67975500D01*
X151247256Y-67862919D01*
X151256000Y-67841810D01*
X151256000Y-67779250D01*
X151225837Y-67749087D01*
X151224162Y-67740183D01*
X151085090Y-67524059D01*
X151083701Y-67523110D01*
X151217431Y-67327390D01*
X151221766Y-67305984D01*
X151256000Y-67271750D01*
X151256000Y-67209190D01*
X151246172Y-67185463D01*
X151268440Y-67075500D01*
X151268440Y-66695500D01*
X151243081Y-66560728D01*
X151268440Y-66435500D01*
X151268440Y-66055500D01*
X151243081Y-65920728D01*
X151268440Y-65795500D01*
X151268440Y-65415500D01*
X151243081Y-65280728D01*
X151268440Y-65155500D01*
X151268440Y-64775500D01*
X151243081Y-64640728D01*
X151268440Y-64515500D01*
X151268440Y-64135500D01*
X151224162Y-63900183D01*
X151085090Y-63684059D01*
X150872890Y-63539069D01*
X150684500Y-63500919D01*
X150684500Y-63322934D01*
X151503993Y-62503440D01*
X151759000Y-62503440D01*
X151994317Y-62459162D01*
X152210441Y-62320090D01*
X152355431Y-62107890D01*
X152406440Y-61856000D01*
X152406440Y-61056000D01*
X152362162Y-60820683D01*
X152295671Y-60717354D01*
X152297327Y-60715698D01*
X152394000Y-60482309D01*
X152394000Y-60241750D01*
X152235250Y-60083000D01*
X151511000Y-60083000D01*
X151511000Y-60103000D01*
X151257000Y-60103000D01*
X151257000Y-60083000D01*
X150532750Y-60083000D01*
X150495000Y-60120750D01*
X150457250Y-60083000D01*
X149733000Y-60083000D01*
X149733000Y-60103000D01*
X149479000Y-60103000D01*
X149479000Y-60083000D01*
X148754750Y-60083000D01*
X148596000Y-60241750D01*
X148596000Y-60482309D01*
X148672045Y-60665897D01*
X148534095Y-60693337D01*
X148266283Y-60872283D01*
X148266281Y-60872286D01*
X148149000Y-60989567D01*
X148101440Y-60942007D01*
X148101440Y-60712000D01*
X148057162Y-60476683D01*
X147918090Y-60260559D01*
X147743076Y-60140977D01*
X147796431Y-60062890D01*
X147847440Y-59811000D01*
X147847440Y-59429691D01*
X148596000Y-59429691D01*
X148596000Y-59670250D01*
X148754750Y-59829000D01*
X149479000Y-59829000D01*
X149479000Y-59079750D01*
X149733000Y-59079750D01*
X149733000Y-59829000D01*
X150457250Y-59829000D01*
X150495000Y-59791250D01*
X150532750Y-59829000D01*
X151257000Y-59829000D01*
X151257000Y-59079750D01*
X151511000Y-59079750D01*
X151511000Y-59829000D01*
X152235250Y-59829000D01*
X152394000Y-59670250D01*
X152394000Y-59429691D01*
X152297327Y-59196302D01*
X152118699Y-59017673D01*
X151885310Y-58921000D01*
X151669750Y-58921000D01*
X151511000Y-59079750D01*
X151257000Y-59079750D01*
X151098250Y-58921000D01*
X150882690Y-58921000D01*
X150649301Y-59017673D01*
X150495000Y-59171975D01*
X150340699Y-59017673D01*
X150107310Y-58921000D01*
X149891750Y-58921000D01*
X149733000Y-59079750D01*
X149479000Y-59079750D01*
X149320250Y-58921000D01*
X149104690Y-58921000D01*
X148871301Y-59017673D01*
X148692673Y-59196302D01*
X148596000Y-59429691D01*
X147847440Y-59429691D01*
X147847440Y-59061000D01*
X147803162Y-58825683D01*
X147664090Y-58609559D01*
X147451890Y-58464569D01*
X147200000Y-58413560D01*
X146400000Y-58413560D01*
X146164683Y-58457838D01*
X146050022Y-58531620D01*
X145951890Y-58464569D01*
X145700000Y-58413560D01*
X145610056Y-58413560D01*
X145665317Y-58403162D01*
X145881441Y-58264090D01*
X146026431Y-58051890D01*
X146077440Y-57800000D01*
X146077440Y-56500000D01*
X146033162Y-56264683D01*
X145894090Y-56048559D01*
X145681890Y-55903569D01*
X145430000Y-55852560D01*
X145267615Y-55852560D01*
X145443729Y-55779611D01*
X145499410Y-55549016D01*
X144780000Y-54829605D01*
X144060590Y-55549016D01*
X144116271Y-55779611D01*
X144325902Y-55852560D01*
X144130000Y-55852560D01*
X143894683Y-55896838D01*
X143678559Y-56035910D01*
X143533569Y-56248110D01*
X143518100Y-56324500D01*
X142869000Y-56324500D01*
X142869000Y-56177750D01*
X142710250Y-56019000D01*
X141986000Y-56019000D01*
X141986000Y-56039000D01*
X141732000Y-56039000D01*
X141732000Y-56019000D01*
X141712000Y-56019000D01*
X141712000Y-55765000D01*
X141732000Y-55765000D01*
X141732000Y-55015750D01*
X141986000Y-55015750D01*
X141986000Y-55765000D01*
X142710250Y-55765000D01*
X142869000Y-55606250D01*
X142869000Y-55365691D01*
X142772327Y-55132302D01*
X142593699Y-54953673D01*
X142360310Y-54857000D01*
X142144750Y-54857000D01*
X141986000Y-55015750D01*
X141732000Y-55015750D01*
X141573250Y-54857000D01*
X141357690Y-54857000D01*
X141124301Y-54953673D01*
X140945673Y-55132302D01*
X140849000Y-55365691D01*
X140849000Y-55606250D01*
X141007748Y-55764998D01*
X140849000Y-55764998D01*
X140849000Y-55889642D01*
X140610320Y-55784285D01*
X139456605Y-56938000D01*
X140610320Y-58091715D01*
X140871280Y-57976523D01*
X140880838Y-58027317D01*
X140995400Y-58205351D01*
X140995400Y-58699400D01*
X139974879Y-58699400D01*
X140301467Y-58564123D01*
X140430715Y-58271320D01*
X139277000Y-57117605D01*
X138123285Y-58271320D01*
X138252533Y-58564123D01*
X138605657Y-58699400D01*
X138063689Y-58699400D01*
X138038462Y-58638345D01*
X137579073Y-58178154D01*
X136978547Y-57928794D01*
X136328306Y-57928226D01*
X135727345Y-58176538D01*
X135267154Y-58635927D01*
X135017794Y-59236453D01*
X135017226Y-59886694D01*
X135265538Y-60487655D01*
X135714642Y-60937543D01*
X135555559Y-61039910D01*
X135513271Y-61101800D01*
X135360320Y-61034285D01*
X134206605Y-62188000D01*
X134220748Y-62202143D01*
X134041143Y-62381748D01*
X134027000Y-62367605D01*
X132873285Y-63521320D01*
X132985175Y-63774799D01*
X132873673Y-63886302D01*
X132777000Y-64119691D01*
X132777000Y-64215250D01*
X132935748Y-64373998D01*
X132777000Y-64373998D01*
X132777000Y-64450290D01*
X132682410Y-64385659D01*
X132430520Y-64334650D01*
X132065076Y-64334650D01*
X132075930Y-64281050D01*
X132075930Y-64276750D01*
X132076953Y-64273537D01*
X132075930Y-64267654D01*
X132075930Y-61863806D01*
X132132612Y-61863806D01*
X132152750Y-62613435D01*
X132400877Y-63212467D01*
X132693680Y-63341715D01*
X133847395Y-62188000D01*
X132693680Y-61034285D01*
X132400877Y-61163533D01*
X132132612Y-61863806D01*
X132075930Y-61863806D01*
X132075930Y-60854680D01*
X132873285Y-60854680D01*
X134027000Y-62008395D01*
X135180715Y-60854680D01*
X135051467Y-60561877D01*
X134351194Y-60293612D01*
X133601565Y-60313750D01*
X133002533Y-60561877D01*
X132873285Y-60854680D01*
X132075930Y-60854680D01*
X132075930Y-60280550D01*
X132031652Y-60045233D01*
X131892580Y-59829109D01*
X131680380Y-59684119D01*
X131428490Y-59633110D01*
X129429510Y-59633110D01*
X129194193Y-59677388D01*
X128978069Y-59816460D01*
X128833079Y-60028660D01*
X128782070Y-60280550D01*
X128782070Y-64281050D01*
X128792156Y-64334650D01*
X128427480Y-64334650D01*
X128192163Y-64378928D01*
X127976039Y-64518000D01*
X127831049Y-64730200D01*
X127780040Y-64982090D01*
X127780040Y-65369440D01*
X126808514Y-65369440D01*
X126802162Y-65335683D01*
X126663090Y-65119559D01*
X126450890Y-64974569D01*
X126342893Y-64952699D01*
X126620645Y-64647924D01*
X126790476Y-64237890D01*
X126669155Y-64008000D01*
X125476000Y-64008000D01*
X125476000Y-64028000D01*
X125222000Y-64028000D01*
X125222000Y-64008000D01*
X124028845Y-64008000D01*
X123907524Y-64237890D01*
X124077355Y-64647924D01*
X124353501Y-64950937D01*
X124263683Y-64967838D01*
X124047559Y-65106910D01*
X123902569Y-65319110D01*
X123851560Y-65571000D01*
X123851560Y-66100599D01*
X121901086Y-68051073D01*
X121539000Y-67979050D01*
X120836776Y-68118731D01*
X120241459Y-68516509D01*
X119843681Y-69111826D01*
X119704000Y-69814050D01*
X115010000Y-69814050D01*
X115010000Y-63524110D01*
X123907524Y-63524110D01*
X124028845Y-63754000D01*
X125222000Y-63754000D01*
X125222000Y-62560181D01*
X125476000Y-62560181D01*
X125476000Y-63754000D01*
X126669155Y-63754000D01*
X126790476Y-63524110D01*
X126620645Y-63114076D01*
X126230358Y-62685817D01*
X125705892Y-62439514D01*
X125476000Y-62560181D01*
X125222000Y-62560181D01*
X124992108Y-62439514D01*
X124467642Y-62685817D01*
X124077355Y-63114076D01*
X123907524Y-63524110D01*
X115010000Y-63524110D01*
X115010000Y-58271320D01*
X132873285Y-58271320D01*
X133002533Y-58564123D01*
X133702806Y-58832388D01*
X134452435Y-58812250D01*
X135051467Y-58564123D01*
X135180715Y-58271320D01*
X134027000Y-57117605D01*
X132873285Y-58271320D01*
X115010000Y-58271320D01*
X115010000Y-55052619D01*
X115874613Y-55052619D01*
X116214155Y-55874372D01*
X116842321Y-56503636D01*
X117663481Y-56844611D01*
X118552619Y-56845387D01*
X119113086Y-56613806D01*
X132132612Y-56613806D01*
X132152750Y-57363435D01*
X132400877Y-57962467D01*
X132693680Y-58091715D01*
X133847395Y-56938000D01*
X134206605Y-56938000D01*
X135360320Y-58091715D01*
X135653123Y-57962467D01*
X135921388Y-57262194D01*
X135903970Y-56613806D01*
X137382612Y-56613806D01*
X137402750Y-57363435D01*
X137650877Y-57962467D01*
X137943680Y-58091715D01*
X139097395Y-56938000D01*
X137943680Y-55784285D01*
X137650877Y-55913533D01*
X137382612Y-56613806D01*
X135903970Y-56613806D01*
X135901250Y-56512565D01*
X135653123Y-55913533D01*
X135360320Y-55784285D01*
X134206605Y-56938000D01*
X133847395Y-56938000D01*
X132693680Y-55784285D01*
X132400877Y-55913533D01*
X132132612Y-56613806D01*
X119113086Y-56613806D01*
X119374372Y-56505845D01*
X120003636Y-55877679D01*
X120116994Y-55604680D01*
X132873285Y-55604680D01*
X134027000Y-56758395D01*
X135180715Y-55604680D01*
X138123285Y-55604680D01*
X139277000Y-56758395D01*
X140430715Y-55604680D01*
X140301467Y-55311877D01*
X139601194Y-55043612D01*
X138851565Y-55063750D01*
X138252533Y-55311877D01*
X138123285Y-55604680D01*
X135180715Y-55604680D01*
X135051467Y-55311877D01*
X134351194Y-55043612D01*
X133601565Y-55063750D01*
X133002533Y-55311877D01*
X132873285Y-55604680D01*
X120116994Y-55604680D01*
X120344611Y-55056519D01*
X120345123Y-54469078D01*
X143482378Y-54469078D01*
X143511917Y-54979428D01*
X143650389Y-55313729D01*
X143880984Y-55369410D01*
X144600395Y-54650000D01*
X144959605Y-54650000D01*
X145679016Y-55369410D01*
X145909611Y-55313729D01*
X146077622Y-54830922D01*
X146048083Y-54320572D01*
X145909611Y-53986271D01*
X145679016Y-53930590D01*
X144959605Y-54650000D01*
X144600395Y-54650000D01*
X143880984Y-53930590D01*
X143650389Y-53986271D01*
X143482378Y-54469078D01*
X120345123Y-54469078D01*
X120345387Y-54167381D01*
X120173335Y-53750984D01*
X144060590Y-53750984D01*
X144780000Y-54470395D01*
X145499410Y-53750984D01*
X145443729Y-53520389D01*
X144960922Y-53352378D01*
X144450572Y-53381917D01*
X144116271Y-53520389D01*
X144060590Y-53750984D01*
X120173335Y-53750984D01*
X120005845Y-53345628D01*
X119377679Y-52716364D01*
X118556519Y-52375389D01*
X117667381Y-52374613D01*
X116845628Y-52714155D01*
X116216364Y-53342321D01*
X115875389Y-54163481D01*
X115874613Y-55052619D01*
X115010000Y-55052619D01*
X115010000Y-51510000D01*
X154088974Y-51510000D01*
X153744817Y-51823642D01*
G36*
X131318000Y-76349000D02*
X131338000Y-76349000D01*
X131338000Y-76603000D01*
X131318000Y-76603000D01*
X131318000Y-76623000D01*
X131064000Y-76623000D01*
X131064000Y-76603000D01*
X131044000Y-76603000D01*
X131044000Y-76349000D01*
X131064000Y-76349000D01*
X131064000Y-76329000D01*
X131318000Y-76329000D01*
X131318000Y-76349000D01*
X131318000Y-76349000D01*
G37*
X131318000Y-76349000D02*
X131338000Y-76349000D01*
X131338000Y-76603000D01*
X131318000Y-76603000D01*
X131318000Y-76623000D01*
X131064000Y-76623000D01*
X131064000Y-76603000D01*
X131044000Y-76603000D01*
X131044000Y-76349000D01*
X131064000Y-76349000D01*
X131064000Y-76329000D01*
X131318000Y-76329000D01*
X131318000Y-76349000D01*
G36*
X143225630Y-63921629D02*
X143738900Y-64134757D01*
X144294661Y-64135242D01*
X144664084Y-63982600D01*
X144815560Y-63982600D01*
X144839910Y-64020441D01*
X144866420Y-64038555D01*
X144742673Y-64162301D01*
X144646000Y-64395690D01*
X144646000Y-64611250D01*
X144804750Y-64770000D01*
X145554000Y-64770000D01*
X145554000Y-64750000D01*
X145808000Y-64750000D01*
X145808000Y-64770000D01*
X145828000Y-64770000D01*
X145828000Y-65024000D01*
X145808000Y-65024000D01*
X145808000Y-65044000D01*
X145554000Y-65044000D01*
X145554000Y-65024000D01*
X144804750Y-65024000D01*
X144646000Y-65182750D01*
X144646000Y-65398310D01*
X144742673Y-65631699D01*
X144921302Y-65810327D01*
X145154691Y-65907000D01*
X145222573Y-65907000D01*
X145058683Y-65937838D01*
X144842559Y-66076910D01*
X144816192Y-66115500D01*
X144260933Y-66115500D01*
X143156140Y-65010706D01*
X143159431Y-65005890D01*
X143210440Y-64754000D01*
X143210440Y-64254000D01*
X143166162Y-64018683D01*
X143027090Y-63802559D01*
X142957289Y-63754866D01*
X143014441Y-63718090D01*
X143017694Y-63713329D01*
X143225630Y-63921629D01*
X143225630Y-63921629D01*
G37*
X143225630Y-63921629D02*
X143738900Y-64134757D01*
X144294661Y-64135242D01*
X144664084Y-63982600D01*
X144815560Y-63982600D01*
X144839910Y-64020441D01*
X144866420Y-64038555D01*
X144742673Y-64162301D01*
X144646000Y-64395690D01*
X144646000Y-64611250D01*
X144804750Y-64770000D01*
X145554000Y-64770000D01*
X145554000Y-64750000D01*
X145808000Y-64750000D01*
X145808000Y-64770000D01*
X145828000Y-64770000D01*
X145828000Y-65024000D01*
X145808000Y-65024000D01*
X145808000Y-65044000D01*
X145554000Y-65044000D01*
X145554000Y-65024000D01*
X144804750Y-65024000D01*
X144646000Y-65182750D01*
X144646000Y-65398310D01*
X144742673Y-65631699D01*
X144921302Y-65810327D01*
X145154691Y-65907000D01*
X145222573Y-65907000D01*
X145058683Y-65937838D01*
X144842559Y-66076910D01*
X144816192Y-66115500D01*
X144260933Y-66115500D01*
X143156140Y-65010706D01*
X143159431Y-65005890D01*
X143210440Y-64754000D01*
X143210440Y-64254000D01*
X143166162Y-64018683D01*
X143027090Y-63802559D01*
X142957289Y-63754866D01*
X143014441Y-63718090D01*
X143017694Y-63713329D01*
X143225630Y-63921629D01*
G36*
X135403838Y-64339317D02*
X135503183Y-64493703D01*
X135328568Y-64668318D01*
X135288250Y-64628000D01*
X134712000Y-64628000D01*
X134712000Y-64648000D01*
X134512000Y-64648000D01*
X134512000Y-64628000D01*
X133712000Y-64628000D01*
X133712000Y-64648000D01*
X133512000Y-64648000D01*
X133512000Y-64628000D01*
X133465000Y-64628000D01*
X133465000Y-64374000D01*
X133512000Y-64374000D01*
X133512000Y-64354000D01*
X133712000Y-64354000D01*
X133712000Y-64374000D01*
X134512000Y-64374000D01*
X134512000Y-64354000D01*
X134712000Y-64354000D01*
X134712000Y-64374000D01*
X135288250Y-64374000D01*
X135391025Y-64271225D01*
X135403838Y-64339317D01*
X135403838Y-64339317D01*
G37*
X135403838Y-64339317D02*
X135503183Y-64493703D01*
X135328568Y-64668318D01*
X135288250Y-64628000D01*
X134712000Y-64628000D01*
X134712000Y-64648000D01*
X134512000Y-64648000D01*
X134512000Y-64628000D01*
X133712000Y-64628000D01*
X133712000Y-64648000D01*
X133512000Y-64648000D01*
X133512000Y-64628000D01*
X133465000Y-64628000D01*
X133465000Y-64374000D01*
X133512000Y-64374000D01*
X133512000Y-64354000D01*
X133712000Y-64354000D01*
X133712000Y-64374000D01*
X134512000Y-64374000D01*
X134512000Y-64354000D01*
X134712000Y-64354000D01*
X134712000Y-64374000D01*
X135288250Y-64374000D01*
X135391025Y-64271225D01*
X135403838Y-64339317D01*
M02*
