G04 #@! TF.FileFunction,Other,Fab,Bot*
%FSLAX46Y46*%
G04 Gerber Fmt 4.6, Leading zero omitted, Abs format (unit mm)*
G04 Created by KiCad (PCBNEW 4.0.6) date Friday, June 16, 2017 'PMt' 04:10:38 PM*
%MOMM*%
%LPD*%
G01*
G04 APERTURE LIST*
%ADD10C,0.100000*%
%ADD11C,0.150000*%
G04 APERTURE END LIST*
D10*
X124079000Y-67691000D02*
X124079000Y-62611000D01*
X124079000Y-62611000D02*
X126619000Y-62611000D01*
X126619000Y-62611000D02*
X126619000Y-67691000D01*
X126619000Y-67691000D02*
X124079000Y-67691000D01*
X125984000Y-94107000D02*
X125984000Y-99187000D01*
X125984000Y-99187000D02*
X123444000Y-99187000D01*
X123444000Y-99187000D02*
X123444000Y-94107000D01*
X123444000Y-94107000D02*
X125984000Y-94107000D01*
X138303000Y-69215000D02*
X138303000Y-74295000D01*
X138303000Y-74295000D02*
X135763000Y-74295000D01*
X135763000Y-74295000D02*
X135763000Y-69215000D01*
X135763000Y-69215000D02*
X138303000Y-69215000D01*
X145415000Y-76327000D02*
X145415000Y-71247000D01*
X145415000Y-71247000D02*
X147955000Y-71247000D01*
X147955000Y-71247000D02*
X147955000Y-76327000D01*
X147955000Y-76327000D02*
X145415000Y-76327000D01*
X134667000Y-79923000D02*
X134667000Y-84323000D01*
X134667000Y-84323000D02*
X124667000Y-84323000D01*
X124667000Y-84323000D02*
X124667000Y-79923000D01*
X124667000Y-79923000D02*
X134667000Y-79923000D01*
X134667000Y-81193000D02*
X124667000Y-81193000D01*
X131517000Y-79923000D02*
X131517000Y-81193000D01*
X127817000Y-79923000D02*
X127817000Y-81193000D01*
X134667000Y-71160000D02*
X134667000Y-75560000D01*
X134667000Y-75560000D02*
X124667000Y-75560000D01*
X124667000Y-75560000D02*
X124667000Y-71160000D01*
X124667000Y-71160000D02*
X134667000Y-71160000D01*
X134667000Y-72430000D02*
X124667000Y-72430000D01*
X131517000Y-71160000D02*
X131517000Y-72430000D01*
X127817000Y-71160000D02*
X127817000Y-72430000D01*
X123339000Y-81150000D02*
X119739000Y-81150000D01*
X119739000Y-81150000D02*
X119739000Y-71250000D01*
X119739000Y-71250000D02*
X123339000Y-71250000D01*
X123339000Y-71250000D02*
X123339000Y-81150000D01*
X121539000Y-82550000D02*
X121539000Y-81150000D01*
X121539000Y-69850000D02*
X121539000Y-71250000D01*
X134834000Y-100377000D02*
X130434000Y-100377000D01*
X130434000Y-100377000D02*
X130434000Y-90377000D01*
X130434000Y-90377000D02*
X134834000Y-90377000D01*
X134834000Y-90377000D02*
X134834000Y-100377000D01*
X133564000Y-100377000D02*
X133564000Y-90377000D01*
X134834000Y-97227000D02*
X133564000Y-97227000D01*
X134834000Y-93527000D02*
X133564000Y-93527000D01*
X168910000Y-56515000D02*
X153670000Y-56515000D01*
X153670000Y-56515000D02*
X153670000Y-51435000D01*
X153670000Y-51435000D02*
X168910000Y-51435000D01*
X168910000Y-51435000D02*
X168910000Y-56515000D01*
D11*
X141432381Y-55733334D02*
X141432381Y-55161905D01*
X141432381Y-55447619D02*
X140432381Y-55447619D01*
X140575238Y-55352381D01*
X140670476Y-55257143D01*
X140718095Y-55161905D01*
X140765714Y-56590477D02*
X141432381Y-56590477D01*
X140765714Y-56161905D02*
X141289524Y-56161905D01*
X141384762Y-56209524D01*
X141432381Y-56304762D01*
X141432381Y-56447620D01*
X141384762Y-56542858D01*
X141337143Y-56590477D01*
X127134714Y-61943381D02*
X127134714Y-60943381D01*
X126753761Y-60943381D01*
X126658523Y-60991000D01*
X126610904Y-61038619D01*
X126563285Y-61133857D01*
X126563285Y-61276714D01*
X126610904Y-61371952D01*
X126658523Y-61419571D01*
X126753761Y-61467190D01*
X127134714Y-61467190D01*
X126134714Y-61943381D02*
X126134714Y-61276714D01*
X126134714Y-60943381D02*
X126182333Y-60991000D01*
X126134714Y-61038619D01*
X126087095Y-60991000D01*
X126134714Y-60943381D01*
X126134714Y-61038619D01*
X125277571Y-61895762D02*
X125372809Y-61943381D01*
X125563286Y-61943381D01*
X125658524Y-61895762D01*
X125706143Y-61800524D01*
X125706143Y-61419571D01*
X125658524Y-61324333D01*
X125563286Y-61276714D01*
X125372809Y-61276714D01*
X125277571Y-61324333D01*
X125229952Y-61419571D01*
X125229952Y-61514810D01*
X125706143Y-61610048D01*
X124896619Y-61276714D02*
X124372809Y-61276714D01*
X124896619Y-61943381D01*
X124372809Y-61943381D01*
X123849000Y-61943381D02*
X123944238Y-61895762D01*
X123991857Y-61848143D01*
X124039476Y-61752905D01*
X124039476Y-61467190D01*
X123991857Y-61371952D01*
X123944238Y-61324333D01*
X123849000Y-61276714D01*
X123706142Y-61276714D01*
X123610904Y-61324333D01*
X123563285Y-61371952D01*
X123515666Y-61467190D01*
X123515666Y-61752905D01*
X123563285Y-61848143D01*
X123610904Y-61895762D01*
X123706142Y-61943381D01*
X123849000Y-61943381D01*
X128737809Y-100664143D02*
X128785428Y-100711762D01*
X128928285Y-100759381D01*
X129023523Y-100759381D01*
X129166381Y-100711762D01*
X129261619Y-100616524D01*
X129309238Y-100521286D01*
X129356857Y-100330810D01*
X129356857Y-100187952D01*
X129309238Y-99997476D01*
X129261619Y-99902238D01*
X129166381Y-99807000D01*
X129023523Y-99759381D01*
X128928285Y-99759381D01*
X128785428Y-99807000D01*
X128737809Y-99854619D01*
X128118762Y-99759381D02*
X127928285Y-99759381D01*
X127833047Y-99807000D01*
X127737809Y-99902238D01*
X127690190Y-100092714D01*
X127690190Y-100426048D01*
X127737809Y-100616524D01*
X127833047Y-100711762D01*
X127928285Y-100759381D01*
X128118762Y-100759381D01*
X128214000Y-100711762D01*
X128309238Y-100616524D01*
X128356857Y-100426048D01*
X128356857Y-100092714D01*
X128309238Y-99902238D01*
X128214000Y-99807000D01*
X128118762Y-99759381D01*
X127261619Y-100759381D02*
X127261619Y-99759381D01*
X126690190Y-100759381D01*
X126690190Y-99759381D01*
X126214000Y-100759381D02*
X126214000Y-99759381D01*
X125642571Y-100759381D01*
X125642571Y-99759381D01*
X125404476Y-100854619D02*
X124642571Y-100854619D01*
X124214000Y-99759381D02*
X124118761Y-99759381D01*
X124023523Y-99807000D01*
X123975904Y-99854619D01*
X123928285Y-99949857D01*
X123880666Y-100140333D01*
X123880666Y-100378429D01*
X123928285Y-100568905D01*
X123975904Y-100664143D01*
X124023523Y-100711762D01*
X124118761Y-100759381D01*
X124214000Y-100759381D01*
X124309238Y-100711762D01*
X124356857Y-100664143D01*
X124404476Y-100568905D01*
X124452095Y-100378429D01*
X124452095Y-100140333D01*
X124404476Y-99949857D01*
X124356857Y-99854619D01*
X124309238Y-99807000D01*
X124214000Y-99759381D01*
X122928285Y-100759381D02*
X123499714Y-100759381D01*
X123214000Y-100759381D02*
X123214000Y-99759381D01*
X123309238Y-99902238D01*
X123404476Y-99997476D01*
X123499714Y-100045095D01*
X122594952Y-99759381D02*
X121928285Y-100759381D01*
X121928285Y-99759381D02*
X122594952Y-100759381D01*
X121356857Y-99759381D02*
X121261618Y-99759381D01*
X121166380Y-99807000D01*
X121118761Y-99854619D01*
X121071142Y-99949857D01*
X121023523Y-100140333D01*
X121023523Y-100378429D01*
X121071142Y-100568905D01*
X121118761Y-100664143D01*
X121166380Y-100711762D01*
X121261618Y-100759381D01*
X121356857Y-100759381D01*
X121452095Y-100711762D01*
X121499714Y-100664143D01*
X121547333Y-100568905D01*
X121594952Y-100378429D01*
X121594952Y-100140333D01*
X121547333Y-99949857D01*
X121499714Y-99854619D01*
X121452095Y-99807000D01*
X121356857Y-99759381D01*
X120642571Y-99854619D02*
X120594952Y-99807000D01*
X120499714Y-99759381D01*
X120261618Y-99759381D01*
X120166380Y-99807000D01*
X120118761Y-99854619D01*
X120071142Y-99949857D01*
X120071142Y-100045095D01*
X120118761Y-100187952D01*
X120690190Y-100759381D01*
X120071142Y-100759381D01*
X141056809Y-75772143D02*
X141104428Y-75819762D01*
X141247285Y-75867381D01*
X141342523Y-75867381D01*
X141485381Y-75819762D01*
X141580619Y-75724524D01*
X141628238Y-75629286D01*
X141675857Y-75438810D01*
X141675857Y-75295952D01*
X141628238Y-75105476D01*
X141580619Y-75010238D01*
X141485381Y-74915000D01*
X141342523Y-74867381D01*
X141247285Y-74867381D01*
X141104428Y-74915000D01*
X141056809Y-74962619D01*
X140437762Y-74867381D02*
X140247285Y-74867381D01*
X140152047Y-74915000D01*
X140056809Y-75010238D01*
X140009190Y-75200714D01*
X140009190Y-75534048D01*
X140056809Y-75724524D01*
X140152047Y-75819762D01*
X140247285Y-75867381D01*
X140437762Y-75867381D01*
X140533000Y-75819762D01*
X140628238Y-75724524D01*
X140675857Y-75534048D01*
X140675857Y-75200714D01*
X140628238Y-75010238D01*
X140533000Y-74915000D01*
X140437762Y-74867381D01*
X139580619Y-75867381D02*
X139580619Y-74867381D01*
X139009190Y-75867381D01*
X139009190Y-74867381D01*
X138533000Y-75867381D02*
X138533000Y-74867381D01*
X137961571Y-75867381D01*
X137961571Y-74867381D01*
X137723476Y-75962619D02*
X136961571Y-75962619D01*
X136533000Y-74867381D02*
X136437761Y-74867381D01*
X136342523Y-74915000D01*
X136294904Y-74962619D01*
X136247285Y-75057857D01*
X136199666Y-75248333D01*
X136199666Y-75486429D01*
X136247285Y-75676905D01*
X136294904Y-75772143D01*
X136342523Y-75819762D01*
X136437761Y-75867381D01*
X136533000Y-75867381D01*
X136628238Y-75819762D01*
X136675857Y-75772143D01*
X136723476Y-75676905D01*
X136771095Y-75486429D01*
X136771095Y-75248333D01*
X136723476Y-75057857D01*
X136675857Y-74962619D01*
X136628238Y-74915000D01*
X136533000Y-74867381D01*
X135247285Y-75867381D02*
X135818714Y-75867381D01*
X135533000Y-75867381D02*
X135533000Y-74867381D01*
X135628238Y-75010238D01*
X135723476Y-75105476D01*
X135818714Y-75153095D01*
X134913952Y-74867381D02*
X134247285Y-75867381D01*
X134247285Y-74867381D02*
X134913952Y-75867381D01*
X133675857Y-74867381D02*
X133580618Y-74867381D01*
X133485380Y-74915000D01*
X133437761Y-74962619D01*
X133390142Y-75057857D01*
X133342523Y-75248333D01*
X133342523Y-75486429D01*
X133390142Y-75676905D01*
X133437761Y-75772143D01*
X133485380Y-75819762D01*
X133580618Y-75867381D01*
X133675857Y-75867381D01*
X133771095Y-75819762D01*
X133818714Y-75772143D01*
X133866333Y-75676905D01*
X133913952Y-75486429D01*
X133913952Y-75248333D01*
X133866333Y-75057857D01*
X133818714Y-74962619D01*
X133771095Y-74915000D01*
X133675857Y-74867381D01*
X132961571Y-74962619D02*
X132913952Y-74915000D01*
X132818714Y-74867381D01*
X132580618Y-74867381D01*
X132485380Y-74915000D01*
X132437761Y-74962619D01*
X132390142Y-75057857D01*
X132390142Y-75153095D01*
X132437761Y-75295952D01*
X133009190Y-75867381D01*
X132390142Y-75867381D01*
X150708809Y-70484143D02*
X150756428Y-70531762D01*
X150899285Y-70579381D01*
X150994523Y-70579381D01*
X151137381Y-70531762D01*
X151232619Y-70436524D01*
X151280238Y-70341286D01*
X151327857Y-70150810D01*
X151327857Y-70007952D01*
X151280238Y-69817476D01*
X151232619Y-69722238D01*
X151137381Y-69627000D01*
X150994523Y-69579381D01*
X150899285Y-69579381D01*
X150756428Y-69627000D01*
X150708809Y-69674619D01*
X150089762Y-69579381D02*
X149899285Y-69579381D01*
X149804047Y-69627000D01*
X149708809Y-69722238D01*
X149661190Y-69912714D01*
X149661190Y-70246048D01*
X149708809Y-70436524D01*
X149804047Y-70531762D01*
X149899285Y-70579381D01*
X150089762Y-70579381D01*
X150185000Y-70531762D01*
X150280238Y-70436524D01*
X150327857Y-70246048D01*
X150327857Y-69912714D01*
X150280238Y-69722238D01*
X150185000Y-69627000D01*
X150089762Y-69579381D01*
X149232619Y-70579381D02*
X149232619Y-69579381D01*
X148661190Y-70579381D01*
X148661190Y-69579381D01*
X148185000Y-70579381D02*
X148185000Y-69579381D01*
X147613571Y-70579381D01*
X147613571Y-69579381D01*
X147375476Y-70674619D02*
X146613571Y-70674619D01*
X146185000Y-69579381D02*
X146089761Y-69579381D01*
X145994523Y-69627000D01*
X145946904Y-69674619D01*
X145899285Y-69769857D01*
X145851666Y-69960333D01*
X145851666Y-70198429D01*
X145899285Y-70388905D01*
X145946904Y-70484143D01*
X145994523Y-70531762D01*
X146089761Y-70579381D01*
X146185000Y-70579381D01*
X146280238Y-70531762D01*
X146327857Y-70484143D01*
X146375476Y-70388905D01*
X146423095Y-70198429D01*
X146423095Y-69960333D01*
X146375476Y-69769857D01*
X146327857Y-69674619D01*
X146280238Y-69627000D01*
X146185000Y-69579381D01*
X144899285Y-70579381D02*
X145470714Y-70579381D01*
X145185000Y-70579381D02*
X145185000Y-69579381D01*
X145280238Y-69722238D01*
X145375476Y-69817476D01*
X145470714Y-69865095D01*
X144565952Y-69579381D02*
X143899285Y-70579381D01*
X143899285Y-69579381D02*
X144565952Y-70579381D01*
X143327857Y-69579381D02*
X143232618Y-69579381D01*
X143137380Y-69627000D01*
X143089761Y-69674619D01*
X143042142Y-69769857D01*
X142994523Y-69960333D01*
X142994523Y-70198429D01*
X143042142Y-70388905D01*
X143089761Y-70484143D01*
X143137380Y-70531762D01*
X143232618Y-70579381D01*
X143327857Y-70579381D01*
X143423095Y-70531762D01*
X143470714Y-70484143D01*
X143518333Y-70388905D01*
X143565952Y-70198429D01*
X143565952Y-69960333D01*
X143518333Y-69769857D01*
X143470714Y-69674619D01*
X143423095Y-69627000D01*
X143327857Y-69579381D01*
X142613571Y-69674619D02*
X142565952Y-69627000D01*
X142470714Y-69579381D01*
X142232618Y-69579381D01*
X142137380Y-69627000D01*
X142089761Y-69674619D01*
X142042142Y-69769857D01*
X142042142Y-69865095D01*
X142089761Y-70007952D01*
X142661190Y-70579381D01*
X142042142Y-70579381D01*
X132547952Y-86795381D02*
X132547952Y-85795381D01*
X131500333Y-86795381D02*
X131833667Y-86319190D01*
X132071762Y-86795381D02*
X132071762Y-85795381D01*
X131690809Y-85795381D01*
X131595571Y-85843000D01*
X131547952Y-85890619D01*
X131500333Y-85985857D01*
X131500333Y-86128714D01*
X131547952Y-86223952D01*
X131595571Y-86271571D01*
X131690809Y-86319190D01*
X132071762Y-86319190D01*
X130738428Y-86271571D02*
X131071762Y-86271571D01*
X131071762Y-86795381D02*
X131071762Y-85795381D01*
X130595571Y-85795381D01*
X129738428Y-85795381D02*
X130214619Y-85795381D01*
X130262238Y-86271571D01*
X130214619Y-86223952D01*
X130119381Y-86176333D01*
X129881285Y-86176333D01*
X129786047Y-86223952D01*
X129738428Y-86271571D01*
X129690809Y-86366810D01*
X129690809Y-86604905D01*
X129738428Y-86700143D01*
X129786047Y-86747762D01*
X129881285Y-86795381D01*
X130119381Y-86795381D01*
X130214619Y-86747762D01*
X130262238Y-86700143D01*
X128738428Y-86795381D02*
X129309857Y-86795381D01*
X129024143Y-86795381D02*
X129024143Y-85795381D01*
X129119381Y-85938238D01*
X129214619Y-86033476D01*
X129309857Y-86081095D01*
X128119381Y-85795381D02*
X128024142Y-85795381D01*
X127928904Y-85843000D01*
X127881285Y-85890619D01*
X127833666Y-85985857D01*
X127786047Y-86176333D01*
X127786047Y-86414429D01*
X127833666Y-86604905D01*
X127881285Y-86700143D01*
X127928904Y-86747762D01*
X128024142Y-86795381D01*
X128119381Y-86795381D01*
X128214619Y-86747762D01*
X128262238Y-86700143D01*
X128309857Y-86604905D01*
X128357476Y-86414429D01*
X128357476Y-86176333D01*
X128309857Y-85985857D01*
X128262238Y-85890619D01*
X128214619Y-85843000D01*
X128119381Y-85795381D01*
X127357476Y-86795381D02*
X127357476Y-85795381D01*
X126786047Y-86795381D01*
X126786047Y-85795381D01*
X129762238Y-79350619D02*
X129857476Y-79303000D01*
X129952714Y-79207762D01*
X130095571Y-79064905D01*
X130190810Y-79017286D01*
X130286048Y-79017286D01*
X130238429Y-79255381D02*
X130333667Y-79207762D01*
X130428905Y-79112524D01*
X130476524Y-78922048D01*
X130476524Y-78588714D01*
X130428905Y-78398238D01*
X130333667Y-78303000D01*
X130238429Y-78255381D01*
X130047952Y-78255381D01*
X129952714Y-78303000D01*
X129857476Y-78398238D01*
X129809857Y-78588714D01*
X129809857Y-78922048D01*
X129857476Y-79112524D01*
X129952714Y-79207762D01*
X130047952Y-79255381D01*
X130238429Y-79255381D01*
X128857476Y-79255381D02*
X129428905Y-79255381D01*
X129143191Y-79255381D02*
X129143191Y-78255381D01*
X129238429Y-78398238D01*
X129333667Y-78493476D01*
X129428905Y-78541095D01*
X133024143Y-78032381D02*
X133024143Y-77032381D01*
X131976524Y-78032381D02*
X132309858Y-77556190D01*
X132547953Y-78032381D02*
X132547953Y-77032381D01*
X132167000Y-77032381D01*
X132071762Y-77080000D01*
X132024143Y-77127619D01*
X131976524Y-77222857D01*
X131976524Y-77365714D01*
X132024143Y-77460952D01*
X132071762Y-77508571D01*
X132167000Y-77556190D01*
X132547953Y-77556190D01*
X131214619Y-77508571D02*
X131547953Y-77508571D01*
X131547953Y-78032381D02*
X131547953Y-77032381D01*
X131071762Y-77032381D01*
X130643191Y-78032381D02*
X130452715Y-78032381D01*
X130357476Y-77984762D01*
X130309857Y-77937143D01*
X130214619Y-77794286D01*
X130167000Y-77603810D01*
X130167000Y-77222857D01*
X130214619Y-77127619D01*
X130262238Y-77080000D01*
X130357476Y-77032381D01*
X130547953Y-77032381D01*
X130643191Y-77080000D01*
X130690810Y-77127619D01*
X130738429Y-77222857D01*
X130738429Y-77460952D01*
X130690810Y-77556190D01*
X130643191Y-77603810D01*
X130547953Y-77651429D01*
X130357476Y-77651429D01*
X130262238Y-77603810D01*
X130214619Y-77556190D01*
X130167000Y-77460952D01*
X129262238Y-77032381D02*
X129738429Y-77032381D01*
X129786048Y-77508571D01*
X129738429Y-77460952D01*
X129643191Y-77413333D01*
X129405095Y-77413333D01*
X129309857Y-77460952D01*
X129262238Y-77508571D01*
X129214619Y-77603810D01*
X129214619Y-77841905D01*
X129262238Y-77937143D01*
X129309857Y-77984762D01*
X129405095Y-78032381D01*
X129643191Y-78032381D01*
X129738429Y-77984762D01*
X129786048Y-77937143D01*
X128262238Y-78032381D02*
X128833667Y-78032381D01*
X128547953Y-78032381D02*
X128547953Y-77032381D01*
X128643191Y-77175238D01*
X128738429Y-77270476D01*
X128833667Y-77318095D01*
X127643191Y-77032381D02*
X127547952Y-77032381D01*
X127452714Y-77080000D01*
X127405095Y-77127619D01*
X127357476Y-77222857D01*
X127309857Y-77413333D01*
X127309857Y-77651429D01*
X127357476Y-77841905D01*
X127405095Y-77937143D01*
X127452714Y-77984762D01*
X127547952Y-78032381D01*
X127643191Y-78032381D01*
X127738429Y-77984762D01*
X127786048Y-77937143D01*
X127833667Y-77841905D01*
X127881286Y-77651429D01*
X127881286Y-77413333D01*
X127833667Y-77222857D01*
X127786048Y-77127619D01*
X127738429Y-77080000D01*
X127643191Y-77032381D01*
X126881286Y-78032381D02*
X126881286Y-77032381D01*
X126309857Y-78032381D01*
X126309857Y-77032381D01*
X129762238Y-70587619D02*
X129857476Y-70540000D01*
X129952714Y-70444762D01*
X130095571Y-70301905D01*
X130190810Y-70254286D01*
X130286048Y-70254286D01*
X130238429Y-70492381D02*
X130333667Y-70444762D01*
X130428905Y-70349524D01*
X130476524Y-70159048D01*
X130476524Y-69825714D01*
X130428905Y-69635238D01*
X130333667Y-69540000D01*
X130238429Y-69492381D01*
X130047952Y-69492381D01*
X129952714Y-69540000D01*
X129857476Y-69635238D01*
X129809857Y-69825714D01*
X129809857Y-70159048D01*
X129857476Y-70349524D01*
X129952714Y-70444762D01*
X130047952Y-70492381D01*
X130238429Y-70492381D01*
X129428905Y-69587619D02*
X129381286Y-69540000D01*
X129286048Y-69492381D01*
X129047952Y-69492381D01*
X128952714Y-69540000D01*
X128905095Y-69587619D01*
X128857476Y-69682857D01*
X128857476Y-69778095D01*
X128905095Y-69920952D01*
X129476524Y-70492381D01*
X128857476Y-70492381D01*
X119131381Y-76009524D02*
X119131381Y-75438095D01*
X119131381Y-75723809D02*
X118131381Y-75723809D01*
X118274238Y-75628571D01*
X118369476Y-75533333D01*
X118417095Y-75438095D01*
X118131381Y-76914286D02*
X118131381Y-76438095D01*
X118607571Y-76390476D01*
X118559952Y-76438095D01*
X118512333Y-76533333D01*
X118512333Y-76771429D01*
X118559952Y-76866667D01*
X118607571Y-76914286D01*
X118702810Y-76961905D01*
X118940905Y-76961905D01*
X119036143Y-76914286D01*
X119083762Y-76866667D01*
X119131381Y-76771429D01*
X119131381Y-76533333D01*
X119083762Y-76438095D01*
X119036143Y-76390476D01*
X128866381Y-92329381D02*
X128866381Y-91853190D01*
X127866381Y-91853190D01*
X128866381Y-92662714D02*
X127866381Y-92662714D01*
X128580667Y-92996048D01*
X127866381Y-93329381D01*
X128866381Y-93329381D01*
X127866381Y-93710333D02*
X127866381Y-94377000D01*
X128866381Y-93948428D01*
X128294952Y-94900809D02*
X128247333Y-94805571D01*
X128199714Y-94757952D01*
X128104476Y-94710333D01*
X128056857Y-94710333D01*
X127961619Y-94757952D01*
X127914000Y-94805571D01*
X127866381Y-94900809D01*
X127866381Y-95091286D01*
X127914000Y-95186524D01*
X127961619Y-95234143D01*
X128056857Y-95281762D01*
X128104476Y-95281762D01*
X128199714Y-95234143D01*
X128247333Y-95186524D01*
X128294952Y-95091286D01*
X128294952Y-94900809D01*
X128342571Y-94805571D01*
X128390190Y-94757952D01*
X128485429Y-94710333D01*
X128675905Y-94710333D01*
X128771143Y-94757952D01*
X128818762Y-94805571D01*
X128866381Y-94900809D01*
X128866381Y-95091286D01*
X128818762Y-95186524D01*
X128771143Y-95234143D01*
X128675905Y-95281762D01*
X128485429Y-95281762D01*
X128390190Y-95234143D01*
X128342571Y-95186524D01*
X128294952Y-95091286D01*
X127866381Y-95900809D02*
X127866381Y-95996048D01*
X127914000Y-96091286D01*
X127961619Y-96138905D01*
X128056857Y-96186524D01*
X128247333Y-96234143D01*
X128485429Y-96234143D01*
X128675905Y-96186524D01*
X128771143Y-96138905D01*
X128818762Y-96091286D01*
X128866381Y-95996048D01*
X128866381Y-95900809D01*
X128818762Y-95805571D01*
X128771143Y-95757952D01*
X128675905Y-95710333D01*
X128485429Y-95662714D01*
X128247333Y-95662714D01*
X128056857Y-95710333D01*
X127961619Y-95757952D01*
X127914000Y-95805571D01*
X127866381Y-95900809D01*
X127866381Y-97138905D02*
X127866381Y-96662714D01*
X128342571Y-96615095D01*
X128294952Y-96662714D01*
X128247333Y-96757952D01*
X128247333Y-96996048D01*
X128294952Y-97091286D01*
X128342571Y-97138905D01*
X128437810Y-97186524D01*
X128675905Y-97186524D01*
X128771143Y-97138905D01*
X128818762Y-97091286D01*
X128866381Y-96996048D01*
X128866381Y-96757952D01*
X128818762Y-96662714D01*
X128771143Y-96615095D01*
X128771143Y-98186524D02*
X128818762Y-98138905D01*
X128866381Y-97996048D01*
X128866381Y-97900810D01*
X128818762Y-97757952D01*
X128723524Y-97662714D01*
X128628286Y-97615095D01*
X128437810Y-97567476D01*
X128294952Y-97567476D01*
X128104476Y-97615095D01*
X128009238Y-97662714D01*
X127914000Y-97757952D01*
X127866381Y-97900810D01*
X127866381Y-97996048D01*
X127914000Y-98138905D01*
X127961619Y-98186524D01*
X127866381Y-98472238D02*
X127866381Y-99043667D01*
X128866381Y-98757952D02*
X127866381Y-98757952D01*
X135406381Y-94615095D02*
X136215905Y-94615095D01*
X136311143Y-94662714D01*
X136358762Y-94710333D01*
X136406381Y-94805571D01*
X136406381Y-94996048D01*
X136358762Y-95091286D01*
X136311143Y-95138905D01*
X136215905Y-95186524D01*
X135406381Y-95186524D01*
X136406381Y-96186524D02*
X136406381Y-95615095D01*
X136406381Y-95900809D02*
X135406381Y-95900809D01*
X135549238Y-95805571D01*
X135644476Y-95710333D01*
X135692095Y-95615095D01*
X170426704Y-79453721D02*
X170902895Y-79453721D01*
X170902895Y-78453721D01*
X170093371Y-79453721D02*
X170093371Y-78453721D01*
X169760037Y-79168007D01*
X169426704Y-78453721D01*
X169426704Y-79453721D01*
X169045752Y-78453721D02*
X168379085Y-78453721D01*
X168807657Y-79453721D01*
X167474323Y-79453721D02*
X168045752Y-79453721D01*
X167760038Y-79453721D02*
X167760038Y-78453721D01*
X167855276Y-78596578D01*
X167950514Y-78691816D01*
X168045752Y-78739435D01*
X167140990Y-78453721D02*
X166474323Y-78453721D01*
X166902895Y-79453721D01*
X165569561Y-79453721D02*
X166140990Y-79453721D01*
X165855276Y-79453721D02*
X165855276Y-78453721D01*
X165950514Y-78596578D01*
X166045752Y-78691816D01*
X166140990Y-78739435D01*
X156979666Y-79536381D02*
X157455857Y-79536381D01*
X157455857Y-78536381D01*
X156646333Y-79536381D02*
X156646333Y-78536381D01*
X156312999Y-79250667D01*
X155979666Y-78536381D01*
X155979666Y-79536381D01*
X155598714Y-78536381D02*
X154932047Y-78536381D01*
X155360619Y-79536381D01*
X154027285Y-79536381D02*
X154598714Y-79536381D01*
X154313000Y-79536381D02*
X154313000Y-78536381D01*
X154408238Y-78679238D01*
X154503476Y-78774476D01*
X154598714Y-78822095D01*
X153693952Y-78536381D02*
X153027285Y-78536381D01*
X153455857Y-79536381D01*
X152122523Y-79536381D02*
X152693952Y-79536381D01*
X152408238Y-79536381D02*
X152408238Y-78536381D01*
X152503476Y-78679238D01*
X152598714Y-78774476D01*
X152693952Y-78822095D01*
X152907143Y-49951191D02*
X152954762Y-49903572D01*
X153002381Y-49760715D01*
X153002381Y-49665477D01*
X152954762Y-49522619D01*
X152859524Y-49427381D01*
X152764286Y-49379762D01*
X152573810Y-49332143D01*
X152430952Y-49332143D01*
X152240476Y-49379762D01*
X152145238Y-49427381D01*
X152050000Y-49522619D01*
X152002381Y-49665477D01*
X152002381Y-49760715D01*
X152050000Y-49903572D01*
X152097619Y-49951191D01*
X152002381Y-50570238D02*
X152002381Y-50760715D01*
X152050000Y-50855953D01*
X152145238Y-50951191D01*
X152335714Y-50998810D01*
X152669048Y-50998810D01*
X152859524Y-50951191D01*
X152954762Y-50855953D01*
X153002381Y-50760715D01*
X153002381Y-50570238D01*
X152954762Y-50475000D01*
X152859524Y-50379762D01*
X152669048Y-50332143D01*
X152335714Y-50332143D01*
X152145238Y-50379762D01*
X152050000Y-50475000D01*
X152002381Y-50570238D01*
X153002381Y-51427381D02*
X152002381Y-51427381D01*
X153002381Y-51998810D01*
X152002381Y-51998810D01*
X153002381Y-52475000D02*
X152002381Y-52475000D01*
X153002381Y-53046429D01*
X152002381Y-53046429D01*
X153097619Y-53284524D02*
X153097619Y-54046429D01*
X152002381Y-54475000D02*
X152002381Y-54570239D01*
X152050000Y-54665477D01*
X152097619Y-54713096D01*
X152192857Y-54760715D01*
X152383333Y-54808334D01*
X152621429Y-54808334D01*
X152811905Y-54760715D01*
X152907143Y-54713096D01*
X152954762Y-54665477D01*
X153002381Y-54570239D01*
X153002381Y-54475000D01*
X152954762Y-54379762D01*
X152907143Y-54332143D01*
X152811905Y-54284524D01*
X152621429Y-54236905D01*
X152383333Y-54236905D01*
X152192857Y-54284524D01*
X152097619Y-54332143D01*
X152050000Y-54379762D01*
X152002381Y-54475000D01*
X152097619Y-55189286D02*
X152050000Y-55236905D01*
X152002381Y-55332143D01*
X152002381Y-55570239D01*
X152050000Y-55665477D01*
X152097619Y-55713096D01*
X152192857Y-55760715D01*
X152288095Y-55760715D01*
X152430952Y-55713096D01*
X153002381Y-55141667D01*
X153002381Y-55760715D01*
X152002381Y-56094048D02*
X153002381Y-56760715D01*
X152002381Y-56760715D02*
X153002381Y-56094048D01*
X152002381Y-57332143D02*
X152002381Y-57427382D01*
X152050000Y-57522620D01*
X152097619Y-57570239D01*
X152192857Y-57617858D01*
X152383333Y-57665477D01*
X152621429Y-57665477D01*
X152811905Y-57617858D01*
X152907143Y-57570239D01*
X152954762Y-57522620D01*
X153002381Y-57427382D01*
X153002381Y-57332143D01*
X152954762Y-57236905D01*
X152907143Y-57189286D01*
X152811905Y-57141667D01*
X152621429Y-57094048D01*
X152383333Y-57094048D01*
X152192857Y-57141667D01*
X152097619Y-57189286D01*
X152050000Y-57236905D01*
X152002381Y-57332143D01*
X152002381Y-58522620D02*
X152002381Y-58332143D01*
X152050000Y-58236905D01*
X152097619Y-58189286D01*
X152240476Y-58094048D01*
X152430952Y-58046429D01*
X152811905Y-58046429D01*
X152907143Y-58094048D01*
X152954762Y-58141667D01*
X153002381Y-58236905D01*
X153002381Y-58427382D01*
X152954762Y-58522620D01*
X152907143Y-58570239D01*
X152811905Y-58617858D01*
X152573810Y-58617858D01*
X152478571Y-58570239D01*
X152430952Y-58522620D01*
X152383333Y-58427382D01*
X152383333Y-58236905D01*
X152430952Y-58141667D01*
X152478571Y-58094048D01*
X152573810Y-58046429D01*
M02*
