M48
;DRILL file {KiCad 4.0.6} date Friday, June 16, 2017 'PMt' 04:11:21 PM
;FORMAT={-:-/ absolute / inch / decimal}
FMAT,2
INCH,TZ
T1C0.031
T2C0.035
T3C0.039
T4C0.039
T5C0.047
T6C0.059
%
G90
G05
M72
T1
X5.7Y-2.1516
X5.7Y-2.25
X5.795Y-3.26
X5.795Y-3.36
X5.795Y-3.46
X5.795Y-3.56
X6.095Y-3.26
X6.095Y-3.36
X6.095Y-3.46
X6.095Y-3.56
X6.3244Y-3.2567
X6.3244Y-3.3567
X6.3244Y-3.4567
X6.3244Y-3.5567
X6.6244Y-3.2567
X6.6244Y-3.3567
X6.6244Y-3.4567
X6.6244Y-3.5567
T2
X5.045Y-3.935
X5.1Y-3.39
X5.3793Y-3.6281
X5.66Y-3.405
X5.67Y-2.47
X5.675Y-2.555
X5.925Y-2.295
X6.155Y-3.85
X6.2Y-2.57
X6.215Y-3.405
X6.315Y-2.955
X6.3875Y-3.6325
X6.4099Y-2.4584
T3
X4.91Y-3.755
X4.91Y-3.855
X4.935Y-2.515
X4.935Y-2.615
X5.005Y-2.9
X5.005Y-3.245
X5.105Y-2.9
X5.105Y-3.245
X5.205Y-2.9
X5.205Y-3.245
X5.21Y-3.655
X5.21Y-3.755
X5.21Y-3.855
X5.395Y-2.775
X5.395Y-2.875
X5.775Y-2.855
X5.775Y-2.955
X6.1Y-2.075
X6.1Y-2.175
X6.2Y-2.075
X6.2Y-2.175
X6.3Y-2.075
X6.3Y-2.175
X6.4Y-2.075
X6.4Y-2.175
X6.5Y-2.075
X6.5Y-2.175
X6.6Y-2.075
X6.6Y-2.175
T4
X5.38Y-2.345
X5.68Y-3.955
X6.55Y-2.85
X6.64Y-3.895
T5
X4.785Y-2.75
X4.785Y-3.25
T6
X5.2767Y-2.2417
X5.2767Y-2.4483
X5.4833Y-2.2417
X5.4833Y-2.4483
X5.5767Y-3.8517
X5.5767Y-4.0583
X5.7833Y-3.8517
X5.7833Y-4.0583
X6.4467Y-2.7467
X6.4467Y-2.9533
X6.5367Y-3.7917
X6.5367Y-3.9983
X6.6533Y-2.7467
X6.6533Y-2.9533
X6.7433Y-3.7917
X6.7433Y-3.9983
T0
M30
