G04 #@! TF.FileFunction,Soldermask,Top*
%FSLAX46Y46*%
G04 Gerber Fmt 4.6, Leading zero omitted, Abs format (unit mm)*
G04 Created by KiCad (PCBNEW 4.0.7) date Thursday, November 02, 2017 'PMt' 11:05:42 PM*
%MOMM*%
%LPD*%
G01*
G04 APERTURE LIST*
%ADD10C,0.100000*%
%ADD11R,1.000000X1.250000*%
%ADD12R,0.500000X0.900000*%
%ADD13R,1.524000X0.380000*%
%ADD14R,0.700000X1.300000*%
%ADD15R,0.750000X0.800000*%
%ADD16R,1.000760X2.501900*%
%ADD17R,1.998980X4.000500*%
%ADD18R,0.400000X0.510000*%
%ADD19R,0.800000X0.750000*%
%ADD20R,0.900000X0.500000*%
%ADD21R,1.220000X0.650000*%
%ADD22R,0.762000X1.651000*%
%ADD23C,4.000000*%
%ADD24R,2.500000X2.300000*%
%ADD25R,2.300000X2.500000*%
%ADD26R,0.800000X0.900000*%
%ADD27R,1.700000X1.700000*%
%ADD28O,1.700000X1.700000*%
%ADD29R,4.200000X1.350000*%
%ADD30R,3.600000X1.270000*%
G04 APERTURE END LIST*
D10*
D11*
X135620000Y-107950000D03*
X133620000Y-107950000D03*
D12*
X155309000Y-100330000D03*
X153809000Y-100330000D03*
D13*
X145033000Y-101028500D03*
X150623000Y-101028500D03*
X145033000Y-101668500D03*
X150623000Y-101668500D03*
X145033000Y-102308500D03*
X150623000Y-102308500D03*
X145033000Y-102948500D03*
X150623000Y-102948500D03*
X145033000Y-103588500D03*
X150623000Y-103588500D03*
X145033000Y-104228500D03*
X150623000Y-104228500D03*
X145033000Y-104868500D03*
X150623000Y-104868500D03*
X145033000Y-105508500D03*
X150623000Y-105508500D03*
X145033000Y-106148500D03*
X150623000Y-106148500D03*
X145033000Y-106788500D03*
X150623000Y-106788500D03*
D14*
X136078000Y-92710000D03*
X134178000Y-92710000D03*
D15*
X140271500Y-94666500D03*
X140271500Y-93166500D03*
D16*
X129562860Y-94300040D03*
X131064000Y-94300040D03*
X132565140Y-94300040D03*
D17*
X131064000Y-90347800D03*
D10*
G36*
X132064760Y-92322650D02*
X131564380Y-93071950D01*
X130563620Y-93071950D01*
X130063240Y-92322650D01*
X132064760Y-92322650D01*
X132064760Y-92322650D01*
G37*
D18*
X135199500Y-95963500D03*
X136199500Y-95963500D03*
X135699500Y-94663500D03*
D19*
X142367000Y-101854000D03*
X140867000Y-101854000D03*
D15*
X157226000Y-102096000D03*
X157226000Y-100596000D03*
X140970000Y-103898000D03*
X140970000Y-105398000D03*
X142621000Y-103898000D03*
X142621000Y-105398000D03*
X157226000Y-105144000D03*
X157226000Y-103644000D03*
X153162000Y-106692000D03*
X153162000Y-108192000D03*
X151638000Y-109105000D03*
X151638000Y-110605000D03*
X146558000Y-109486000D03*
X146558000Y-110986000D03*
X149860000Y-109105000D03*
X149860000Y-110605000D03*
X150368000Y-97524000D03*
X150368000Y-96024000D03*
X150368000Y-94603000D03*
X150368000Y-93103000D03*
D19*
X160960500Y-93789500D03*
X159460500Y-93789500D03*
X153301000Y-91821000D03*
X154801000Y-91821000D03*
X142355000Y-98171000D03*
X140855000Y-98171000D03*
X140728000Y-96520000D03*
X142228000Y-96520000D03*
X148197000Y-98298000D03*
X146697000Y-98298000D03*
X143649000Y-98171000D03*
X145149000Y-98171000D03*
D20*
X138557000Y-96659000D03*
X138557000Y-98159000D03*
D12*
X140867000Y-99949000D03*
X142367000Y-99949000D03*
X153809000Y-98552000D03*
X155309000Y-98552000D03*
X153936000Y-103886000D03*
X155436000Y-103886000D03*
D20*
X154813000Y-105930000D03*
X154813000Y-107430000D03*
X159004000Y-100469000D03*
X159004000Y-101969000D03*
D12*
X155309000Y-102108000D03*
X153809000Y-102108000D03*
D20*
X159004000Y-103517000D03*
X159004000Y-105017000D03*
D14*
X157292000Y-97409000D03*
X159192000Y-97409000D03*
D20*
X138430000Y-99834000D03*
X138430000Y-101334000D03*
D21*
X155234000Y-95565000D03*
X155234000Y-94615000D03*
X155234000Y-93665000D03*
X152614000Y-93665000D03*
X152614000Y-94615000D03*
X152614000Y-95565000D03*
D22*
X160020000Y-110807500D03*
X160020000Y-107632500D03*
X158750000Y-107632500D03*
X157480000Y-110807500D03*
X157480000Y-107632500D03*
D20*
X138176000Y-94603000D03*
X138176000Y-93103000D03*
D23*
X138976100Y-89979500D03*
X130784600Y-110807500D03*
X159486600Y-89916000D03*
D24*
X142294500Y-109664500D03*
X137994500Y-109664500D03*
D25*
X135318500Y-103051500D03*
X135318500Y-98751500D03*
D26*
X129479000Y-106791000D03*
X131379000Y-106791000D03*
X130429000Y-104791000D03*
D20*
X133858000Y-111303500D03*
X133858000Y-109803500D03*
D19*
X163778500Y-111950500D03*
X165278500Y-111950500D03*
D15*
X161099500Y-98222500D03*
X161099500Y-96722500D03*
X135445500Y-111430500D03*
X135445500Y-109930500D03*
D27*
X162306000Y-108331000D03*
D28*
X164846000Y-108331000D03*
X162306000Y-105791000D03*
X164846000Y-105791000D03*
X162306000Y-103251000D03*
X164846000Y-103251000D03*
X162306000Y-100711000D03*
X164846000Y-100711000D03*
D27*
X129984500Y-101600000D03*
D28*
X129984500Y-99060000D03*
D20*
X132334000Y-101588000D03*
X132334000Y-100088000D03*
D29*
X164338000Y-90282000D03*
X164338000Y-97282000D03*
D30*
X164538000Y-93782000D03*
D29*
X164338000Y-97282000D03*
X164338000Y-90282000D03*
D12*
X136640000Y-105410000D03*
X135140000Y-105410000D03*
M02*
