M48
;DRILL file {KiCad 4.0.7} date Thursday, November 02, 2017 'PMt' 11:05:47 PM
;FORMAT={2:4/ absolute / inch / suppress leading zeros}
FMAT,2
INCH,TZ
T1C0.015
T2C0.039
T3C0.118
%
G90
G05
M72
T1
X51500Y-40800
X51500Y-42500
X52025Y-38075
X52700Y-37650
X52700Y-41500
X53375Y-42825
X54950Y-40350
X55000Y-39350
X56550Y-37500
X57200Y-36750
X58350Y-43100
X59850Y-40150
X59950Y-38250
X61175Y-43950
X61300Y-42700
X61500Y-41900
X61750Y-37250
X63900Y-43975
T2
X51175Y-39000
X51175Y-40000
X63900Y-39650
X63900Y-40650
X63900Y-41650
X63900Y-42650
X64900Y-39650
X64900Y-40650
X64900Y-41650
X64900Y-42650
T3
X51490Y-43625
X54715Y-35425
X62790Y-35400
T0
M30
