G04 #@! TF.FileFunction,Other,Fab,Top*
%FSLAX46Y46*%
G04 Gerber Fmt 4.6, Leading zero omitted, Abs format (unit mm)*
G04 Created by KiCad (PCBNEW 4.0.7) date Thursday, November 02, 2017 'PMt' 10:29:49 PM*
%MOMM*%
%LPD*%
G01*
G04 APERTURE LIST*
%ADD10C,0.100000*%
%ADD11C,0.120000*%
%ADD12C,0.150000*%
%ADD13C,0.075000*%
G04 APERTURE END LIST*
D10*
X155359000Y-99930000D02*
X155359000Y-100730000D01*
X153759000Y-99930000D02*
X155359000Y-99930000D01*
X153759000Y-100730000D02*
X153759000Y-99930000D01*
X155359000Y-100730000D02*
X153759000Y-100730000D01*
D11*
X147188000Y-99586000D02*
X147188000Y-99586000D01*
D12*
X146998000Y-99586000D02*
X147188000Y-99586000D01*
X145878000Y-100706000D02*
X146998000Y-99586000D01*
X149778000Y-108186000D02*
X149778000Y-99586000D01*
X147193000Y-99586000D02*
X149778000Y-99586000D01*
X145878000Y-108186000D02*
X145878000Y-100711000D01*
X145878000Y-108186000D02*
X149778000Y-108186000D01*
D10*
X136128000Y-92085000D02*
X136128000Y-93335000D01*
X134128000Y-92085000D02*
X136128000Y-92085000D01*
X134128000Y-93335000D02*
X134128000Y-92085000D01*
X136128000Y-93335000D02*
X134128000Y-93335000D01*
D12*
X140671500Y-94716500D02*
X139871500Y-94716500D01*
X140671500Y-93116500D02*
X140671500Y-94716500D01*
X139871500Y-93116500D02*
X140671500Y-93116500D01*
X139871500Y-94716500D02*
X139871500Y-93116500D01*
X134849500Y-95803500D02*
X134849500Y-94823500D01*
X134849500Y-94823500D02*
X136549500Y-94823500D01*
X136549500Y-94823500D02*
X136549500Y-95803500D01*
X136549500Y-95803500D02*
X134849500Y-95803500D01*
X142417000Y-101454000D02*
X142417000Y-102254000D01*
X140817000Y-101454000D02*
X142417000Y-101454000D01*
X140817000Y-102254000D02*
X140817000Y-101454000D01*
X142417000Y-102254000D02*
X140817000Y-102254000D01*
X157626000Y-102146000D02*
X156826000Y-102146000D01*
X157626000Y-100546000D02*
X157626000Y-102146000D01*
X156826000Y-100546000D02*
X157626000Y-100546000D01*
X156826000Y-102146000D02*
X156826000Y-100546000D01*
X140570000Y-103848000D02*
X141370000Y-103848000D01*
X140570000Y-105448000D02*
X140570000Y-103848000D01*
X141370000Y-105448000D02*
X140570000Y-105448000D01*
X141370000Y-103848000D02*
X141370000Y-105448000D01*
X142221000Y-103848000D02*
X143021000Y-103848000D01*
X142221000Y-105448000D02*
X142221000Y-103848000D01*
X143021000Y-105448000D02*
X142221000Y-105448000D01*
X143021000Y-103848000D02*
X143021000Y-105448000D01*
X157626000Y-105194000D02*
X156826000Y-105194000D01*
X157626000Y-103594000D02*
X157626000Y-105194000D01*
X156826000Y-103594000D02*
X157626000Y-103594000D01*
X156826000Y-105194000D02*
X156826000Y-103594000D01*
X152762000Y-106642000D02*
X153562000Y-106642000D01*
X152762000Y-108242000D02*
X152762000Y-106642000D01*
X153562000Y-108242000D02*
X152762000Y-108242000D01*
X153562000Y-106642000D02*
X153562000Y-108242000D01*
X151238000Y-109055000D02*
X152038000Y-109055000D01*
X151238000Y-110655000D02*
X151238000Y-109055000D01*
X152038000Y-110655000D02*
X151238000Y-110655000D01*
X152038000Y-109055000D02*
X152038000Y-110655000D01*
X146158000Y-109436000D02*
X146958000Y-109436000D01*
X146158000Y-111036000D02*
X146158000Y-109436000D01*
X146958000Y-111036000D02*
X146158000Y-111036000D01*
X146958000Y-109436000D02*
X146958000Y-111036000D01*
X149460000Y-109055000D02*
X150260000Y-109055000D01*
X149460000Y-110655000D02*
X149460000Y-109055000D01*
X150260000Y-110655000D02*
X149460000Y-110655000D01*
X150260000Y-109055000D02*
X150260000Y-110655000D01*
X150768000Y-97574000D02*
X149968000Y-97574000D01*
X150768000Y-95974000D02*
X150768000Y-97574000D01*
X149968000Y-95974000D02*
X150768000Y-95974000D01*
X149968000Y-97574000D02*
X149968000Y-95974000D01*
X150768000Y-94653000D02*
X149968000Y-94653000D01*
X150768000Y-93053000D02*
X150768000Y-94653000D01*
X149968000Y-93053000D02*
X150768000Y-93053000D01*
X149968000Y-94653000D02*
X149968000Y-93053000D01*
X161010500Y-93389500D02*
X161010500Y-94189500D01*
X159410500Y-93389500D02*
X161010500Y-93389500D01*
X159410500Y-94189500D02*
X159410500Y-93389500D01*
X161010500Y-94189500D02*
X159410500Y-94189500D01*
X153251000Y-92221000D02*
X153251000Y-91421000D01*
X154851000Y-92221000D02*
X153251000Y-92221000D01*
X154851000Y-91421000D02*
X154851000Y-92221000D01*
X153251000Y-91421000D02*
X154851000Y-91421000D01*
X142405000Y-97771000D02*
X142405000Y-98571000D01*
X140805000Y-97771000D02*
X142405000Y-97771000D01*
X140805000Y-98571000D02*
X140805000Y-97771000D01*
X142405000Y-98571000D02*
X140805000Y-98571000D01*
X140678000Y-96920000D02*
X140678000Y-96120000D01*
X142278000Y-96920000D02*
X140678000Y-96920000D01*
X142278000Y-96120000D02*
X142278000Y-96920000D01*
X140678000Y-96120000D02*
X142278000Y-96120000D01*
X148247000Y-97898000D02*
X148247000Y-98698000D01*
X146647000Y-97898000D02*
X148247000Y-97898000D01*
X146647000Y-98698000D02*
X146647000Y-97898000D01*
X148247000Y-98698000D02*
X146647000Y-98698000D01*
X143599000Y-98571000D02*
X143599000Y-97771000D01*
X145199000Y-98571000D02*
X143599000Y-98571000D01*
X145199000Y-97771000D02*
X145199000Y-98571000D01*
X143599000Y-97771000D02*
X145199000Y-97771000D01*
D10*
X138157000Y-96609000D02*
X138957000Y-96609000D01*
X138157000Y-98209000D02*
X138157000Y-96609000D01*
X138957000Y-98209000D02*
X138157000Y-98209000D01*
X138957000Y-96609000D02*
X138957000Y-98209000D01*
X140817000Y-100349000D02*
X140817000Y-99549000D01*
X142417000Y-100349000D02*
X140817000Y-100349000D01*
X142417000Y-99549000D02*
X142417000Y-100349000D01*
X140817000Y-99549000D02*
X142417000Y-99549000D01*
X153759000Y-98952000D02*
X153759000Y-98152000D01*
X155359000Y-98952000D02*
X153759000Y-98952000D01*
X155359000Y-98152000D02*
X155359000Y-98952000D01*
X153759000Y-98152000D02*
X155359000Y-98152000D01*
X153886000Y-104286000D02*
X153886000Y-103486000D01*
X155486000Y-104286000D02*
X153886000Y-104286000D01*
X155486000Y-103486000D02*
X155486000Y-104286000D01*
X153886000Y-103486000D02*
X155486000Y-103486000D01*
X154413000Y-105880000D02*
X155213000Y-105880000D01*
X154413000Y-107480000D02*
X154413000Y-105880000D01*
X155213000Y-107480000D02*
X154413000Y-107480000D01*
X155213000Y-105880000D02*
X155213000Y-107480000D01*
X158604000Y-100419000D02*
X159404000Y-100419000D01*
X158604000Y-102019000D02*
X158604000Y-100419000D01*
X159404000Y-102019000D02*
X158604000Y-102019000D01*
X159404000Y-100419000D02*
X159404000Y-102019000D01*
X155359000Y-101708000D02*
X155359000Y-102508000D01*
X153759000Y-101708000D02*
X155359000Y-101708000D01*
X153759000Y-102508000D02*
X153759000Y-101708000D01*
X155359000Y-102508000D02*
X153759000Y-102508000D01*
X158604000Y-103467000D02*
X159404000Y-103467000D01*
X158604000Y-105067000D02*
X158604000Y-103467000D01*
X159404000Y-105067000D02*
X158604000Y-105067000D01*
X159404000Y-103467000D02*
X159404000Y-105067000D01*
X157242000Y-98034000D02*
X157242000Y-96784000D01*
X159242000Y-98034000D02*
X157242000Y-98034000D01*
X159242000Y-96784000D02*
X159242000Y-98034000D01*
X157242000Y-96784000D02*
X159242000Y-96784000D01*
X138030000Y-99784000D02*
X138830000Y-99784000D01*
X138030000Y-101384000D02*
X138030000Y-99784000D01*
X138830000Y-101384000D02*
X138030000Y-101384000D01*
X138830000Y-99784000D02*
X138830000Y-101384000D01*
X154804000Y-95615000D02*
X154354000Y-96065000D01*
X153044000Y-96065000D02*
X154354000Y-96065000D01*
X154804000Y-95615000D02*
X154804000Y-93165000D01*
X153044000Y-93165000D02*
X154804000Y-93165000D01*
X153044000Y-96065000D02*
X153044000Y-93165000D01*
X138576000Y-94653000D02*
X137776000Y-94653000D01*
X138576000Y-93053000D02*
X138576000Y-94653000D01*
X137776000Y-93053000D02*
X138576000Y-93053000D01*
X137776000Y-94653000D02*
X137776000Y-93053000D01*
X135801000Y-107905500D02*
X134201000Y-107905500D01*
X134201000Y-107905500D02*
X134201000Y-107105500D01*
X134201000Y-107105500D02*
X135801000Y-107105500D01*
X135801000Y-107105500D02*
X135801000Y-107905500D01*
X137844500Y-107664500D02*
X142444500Y-107664500D01*
X142444500Y-107664500D02*
X142444500Y-111664500D01*
X137844500Y-111664500D02*
X137844500Y-107664500D01*
X137844500Y-111664500D02*
X142444500Y-111664500D01*
X140793940Y-109663480D02*
X141695640Y-109663480D01*
X139643320Y-109663480D02*
X138645100Y-109663480D01*
X140793940Y-110463580D02*
X140793940Y-108863380D01*
X139643320Y-108914180D02*
X139643320Y-110463580D01*
X140793940Y-109663480D02*
X139643320Y-108914180D01*
X140793940Y-109663480D02*
X139643320Y-110463580D01*
X137318500Y-98601500D02*
X137318500Y-103201500D01*
X137318500Y-103201500D02*
X133318500Y-103201500D01*
X133318500Y-98601500D02*
X137318500Y-98601500D01*
X133318500Y-98601500D02*
X133318500Y-103201500D01*
X135319520Y-101550940D02*
X135319520Y-102452640D01*
X135319520Y-100400320D02*
X135319520Y-99402100D01*
X134519420Y-101550940D02*
X136119620Y-101550940D01*
X136068820Y-100400320D02*
X134519420Y-100400320D01*
X135319520Y-101550940D02*
X136068820Y-100400320D01*
X135319520Y-101550940D02*
X134519420Y-100400320D01*
X129479000Y-106491000D02*
X131929000Y-106491000D01*
X128909000Y-105941000D02*
X128909000Y-105091000D01*
X129479000Y-106491000D02*
X128909000Y-105941000D01*
X128909000Y-105091000D02*
X131949000Y-105091000D01*
X131949000Y-106491000D02*
X131949000Y-105091000D01*
X134258000Y-111353500D02*
X133458000Y-111353500D01*
X134258000Y-109753500D02*
X134258000Y-111353500D01*
X133458000Y-109753500D02*
X134258000Y-109753500D01*
X133458000Y-111353500D02*
X133458000Y-109753500D01*
D12*
X163728500Y-112350500D02*
X163728500Y-111550500D01*
X165328500Y-112350500D02*
X163728500Y-112350500D01*
X165328500Y-111550500D02*
X165328500Y-112350500D01*
X163728500Y-111550500D02*
X165328500Y-111550500D01*
X161499500Y-98272500D02*
X160699500Y-98272500D01*
X161499500Y-96672500D02*
X161499500Y-98272500D01*
X160699500Y-96672500D02*
X161499500Y-96672500D01*
X160699500Y-98272500D02*
X160699500Y-96672500D01*
X135845500Y-111480500D02*
X135045500Y-111480500D01*
X135845500Y-109880500D02*
X135845500Y-111480500D01*
X135045500Y-109880500D02*
X135845500Y-109880500D01*
X135045500Y-111480500D02*
X135045500Y-109880500D01*
D10*
X128584500Y-102870000D02*
X128584500Y-100330000D01*
X128584500Y-100330000D02*
X126084500Y-100330000D01*
X126084500Y-100330000D02*
X126084500Y-102870000D01*
X126084500Y-102870000D02*
X128584500Y-102870000D01*
X129984500Y-101920000D02*
X129984500Y-101280000D01*
X129984500Y-101280000D02*
X120084500Y-101280000D01*
X120084500Y-101280000D02*
X120084500Y-101920000D01*
X120084500Y-101920000D02*
X129984500Y-101920000D01*
X128584500Y-100330000D02*
X128584500Y-97790000D01*
X128584500Y-97790000D02*
X126084500Y-97790000D01*
X126084500Y-97790000D02*
X126084500Y-100330000D01*
X126084500Y-100330000D02*
X128584500Y-100330000D01*
X129984500Y-99380000D02*
X129984500Y-98740000D01*
X129984500Y-98740000D02*
X120084500Y-98740000D01*
X120084500Y-98740000D02*
X120084500Y-99380000D01*
X120084500Y-99380000D02*
X129984500Y-99380000D01*
X132734000Y-101638000D02*
X131934000Y-101638000D01*
X132734000Y-100038000D02*
X132734000Y-101638000D01*
X131934000Y-100038000D02*
X132734000Y-100038000D01*
X131934000Y-101638000D02*
X131934000Y-100038000D01*
X136690000Y-105010000D02*
X136690000Y-105810000D01*
X135090000Y-105010000D02*
X136690000Y-105010000D01*
X135090000Y-105810000D02*
X135090000Y-105010000D01*
X136690000Y-105810000D02*
X135090000Y-105810000D01*
D12*
X153892334Y-98882381D02*
X153320905Y-98882381D01*
X153606619Y-98882381D02*
X153606619Y-97882381D01*
X153511381Y-98025238D01*
X153416143Y-98120476D01*
X153320905Y-98168095D01*
X154511381Y-97882381D02*
X154606620Y-97882381D01*
X154701858Y-97930000D01*
X154749477Y-97977619D01*
X154797096Y-98072857D01*
X154844715Y-98263333D01*
X154844715Y-98501429D01*
X154797096Y-98691905D01*
X154749477Y-98787143D01*
X154701858Y-98834762D01*
X154606620Y-98882381D01*
X154511381Y-98882381D01*
X154416143Y-98834762D01*
X154368524Y-98787143D01*
X154320905Y-98691905D01*
X154273286Y-98501429D01*
X154273286Y-98263333D01*
X154320905Y-98072857D01*
X154368524Y-97977619D01*
X154416143Y-97930000D01*
X154511381Y-97882381D01*
X155463762Y-97882381D02*
X155559001Y-97882381D01*
X155654239Y-97930000D01*
X155701858Y-97977619D01*
X155749477Y-98072857D01*
X155797096Y-98263333D01*
X155797096Y-98501429D01*
X155749477Y-98691905D01*
X155701858Y-98787143D01*
X155654239Y-98834762D01*
X155559001Y-98882381D01*
X155463762Y-98882381D01*
X155368524Y-98834762D01*
X155320905Y-98787143D01*
X155273286Y-98691905D01*
X155225667Y-98501429D01*
X155225667Y-98263333D01*
X155273286Y-98072857D01*
X155320905Y-97977619D01*
X155368524Y-97930000D01*
X155463762Y-97882381D01*
X145185143Y-110052667D02*
X145661334Y-110052667D01*
X145089905Y-110338381D02*
X145423238Y-109338381D01*
X145756572Y-110338381D01*
X146089905Y-110338381D02*
X146089905Y-109338381D01*
X146328000Y-109338381D01*
X146470858Y-109386000D01*
X146566096Y-109481238D01*
X146613715Y-109576476D01*
X146661334Y-109766952D01*
X146661334Y-109909810D01*
X146613715Y-110100286D01*
X146566096Y-110195524D01*
X146470858Y-110290762D01*
X146328000Y-110338381D01*
X146089905Y-110338381D01*
X147232762Y-109766952D02*
X147137524Y-109719333D01*
X147089905Y-109671714D01*
X147042286Y-109576476D01*
X147042286Y-109528857D01*
X147089905Y-109433619D01*
X147137524Y-109386000D01*
X147232762Y-109338381D01*
X147423239Y-109338381D01*
X147518477Y-109386000D01*
X147566096Y-109433619D01*
X147613715Y-109528857D01*
X147613715Y-109576476D01*
X147566096Y-109671714D01*
X147518477Y-109719333D01*
X147423239Y-109766952D01*
X147232762Y-109766952D01*
X147137524Y-109814571D01*
X147089905Y-109862190D01*
X147042286Y-109957429D01*
X147042286Y-110147905D01*
X147089905Y-110243143D01*
X147137524Y-110290762D01*
X147232762Y-110338381D01*
X147423239Y-110338381D01*
X147518477Y-110290762D01*
X147566096Y-110243143D01*
X147613715Y-110147905D01*
X147613715Y-109957429D01*
X147566096Y-109862190D01*
X147518477Y-109814571D01*
X147423239Y-109766952D01*
X147947048Y-109338381D02*
X148566096Y-109338381D01*
X148232762Y-109719333D01*
X148375620Y-109719333D01*
X148470858Y-109766952D01*
X148518477Y-109814571D01*
X148566096Y-109909810D01*
X148566096Y-110147905D01*
X148518477Y-110243143D01*
X148470858Y-110290762D01*
X148375620Y-110338381D01*
X148089905Y-110338381D01*
X147994667Y-110290762D01*
X147947048Y-110243143D01*
X148899429Y-109338381D02*
X149518477Y-109338381D01*
X149185143Y-109719333D01*
X149328001Y-109719333D01*
X149423239Y-109766952D01*
X149470858Y-109814571D01*
X149518477Y-109909810D01*
X149518477Y-110147905D01*
X149470858Y-110243143D01*
X149423239Y-110290762D01*
X149328001Y-110338381D01*
X149042286Y-110338381D01*
X148947048Y-110290762D01*
X148899429Y-110243143D01*
X150470858Y-110338381D02*
X149899429Y-110338381D01*
X150185143Y-110338381D02*
X150185143Y-109338381D01*
X150089905Y-109481238D01*
X149994667Y-109576476D01*
X149899429Y-109624095D01*
X134461334Y-91062381D02*
X133889905Y-91062381D01*
X134175619Y-91062381D02*
X134175619Y-90062381D01*
X134080381Y-90205238D01*
X133985143Y-90300476D01*
X133889905Y-90348095D01*
X135080381Y-90062381D02*
X135175620Y-90062381D01*
X135270858Y-90110000D01*
X135318477Y-90157619D01*
X135366096Y-90252857D01*
X135413715Y-90443333D01*
X135413715Y-90681429D01*
X135366096Y-90871905D01*
X135318477Y-90967143D01*
X135270858Y-91014762D01*
X135175620Y-91062381D01*
X135080381Y-91062381D01*
X134985143Y-91014762D01*
X134937524Y-90967143D01*
X134889905Y-90871905D01*
X134842286Y-90681429D01*
X134842286Y-90443333D01*
X134889905Y-90252857D01*
X134937524Y-90157619D01*
X134985143Y-90110000D01*
X135080381Y-90062381D01*
X136032762Y-90062381D02*
X136128001Y-90062381D01*
X136223239Y-90110000D01*
X136270858Y-90157619D01*
X136318477Y-90252857D01*
X136366096Y-90443333D01*
X136366096Y-90681429D01*
X136318477Y-90871905D01*
X136270858Y-90967143D01*
X136223239Y-91014762D01*
X136128001Y-91062381D01*
X136032762Y-91062381D01*
X135937524Y-91014762D01*
X135889905Y-90967143D01*
X135842286Y-90871905D01*
X135794667Y-90681429D01*
X135794667Y-90443333D01*
X135842286Y-90252857D01*
X135889905Y-90157619D01*
X135937524Y-90110000D01*
X136032762Y-90062381D01*
X142623881Y-94083166D02*
X142623881Y-94654595D01*
X142623881Y-94368881D02*
X141623881Y-94368881D01*
X141766738Y-94464119D01*
X141861976Y-94559357D01*
X141909595Y-94654595D01*
X141957214Y-93654595D02*
X142623881Y-93654595D01*
X142052452Y-93654595D02*
X142004833Y-93606976D01*
X141957214Y-93511738D01*
X141957214Y-93368880D01*
X142004833Y-93273642D01*
X142100071Y-93226023D01*
X142623881Y-93226023D01*
X127176045Y-97701361D02*
X127176045Y-96701361D01*
X127509379Y-97415647D01*
X127842712Y-96701361D01*
X127842712Y-97701361D01*
X128318902Y-97701361D02*
X128318902Y-96701361D01*
X128556997Y-96701361D01*
X128699855Y-96748980D01*
X128795093Y-96844218D01*
X128842712Y-96939456D01*
X128890331Y-97129932D01*
X128890331Y-97272790D01*
X128842712Y-97463266D01*
X128795093Y-97558504D01*
X128699855Y-97653742D01*
X128556997Y-97701361D01*
X128318902Y-97701361D01*
X129509378Y-96701361D02*
X129604617Y-96701361D01*
X129699855Y-96748980D01*
X129747474Y-96796599D01*
X129795093Y-96891837D01*
X129842712Y-97082313D01*
X129842712Y-97320409D01*
X129795093Y-97510885D01*
X129747474Y-97606123D01*
X129699855Y-97653742D01*
X129604617Y-97701361D01*
X129509378Y-97701361D01*
X129414140Y-97653742D01*
X129366521Y-97606123D01*
X129318902Y-97510885D01*
X129271283Y-97320409D01*
X129271283Y-97082313D01*
X129318902Y-96891837D01*
X129366521Y-96796599D01*
X129414140Y-96748980D01*
X129509378Y-96701361D01*
X130795093Y-97701361D02*
X130223664Y-97701361D01*
X130509378Y-97701361D02*
X130509378Y-96701361D01*
X130414140Y-96844218D01*
X130318902Y-96939456D01*
X130223664Y-96987075D01*
X131414140Y-96701361D02*
X131509379Y-96701361D01*
X131604617Y-96748980D01*
X131652236Y-96796599D01*
X131699855Y-96891837D01*
X131747474Y-97082313D01*
X131747474Y-97320409D01*
X131699855Y-97510885D01*
X131652236Y-97606123D01*
X131604617Y-97653742D01*
X131509379Y-97701361D01*
X131414140Y-97701361D01*
X131318902Y-97653742D01*
X131271283Y-97606123D01*
X131223664Y-97510885D01*
X131176045Y-97320409D01*
X131176045Y-97082313D01*
X131223664Y-96891837D01*
X131271283Y-96796599D01*
X131318902Y-96748980D01*
X131414140Y-96701361D01*
X132366521Y-96701361D02*
X132461760Y-96701361D01*
X132556998Y-96748980D01*
X132604617Y-96796599D01*
X132652236Y-96891837D01*
X132699855Y-97082313D01*
X132699855Y-97320409D01*
X132652236Y-97510885D01*
X132604617Y-97606123D01*
X132556998Y-97653742D01*
X132461760Y-97701361D01*
X132366521Y-97701361D01*
X132271283Y-97653742D01*
X132223664Y-97606123D01*
X132176045Y-97510885D01*
X132128426Y-97320409D01*
X132128426Y-97082313D01*
X132176045Y-96891837D01*
X132223664Y-96796599D01*
X132271283Y-96748980D01*
X132366521Y-96701361D01*
X133128426Y-97701361D02*
X133128426Y-96701361D01*
X133699855Y-97701361D01*
X133699855Y-96701361D01*
X134318902Y-97129932D02*
X134223664Y-97082313D01*
X134176045Y-97034694D01*
X134128426Y-96939456D01*
X134128426Y-96891837D01*
X134176045Y-96796599D01*
X134223664Y-96748980D01*
X134318902Y-96701361D01*
X134509379Y-96701361D01*
X134604617Y-96748980D01*
X134652236Y-96796599D01*
X134699855Y-96891837D01*
X134699855Y-96939456D01*
X134652236Y-97034694D01*
X134604617Y-97082313D01*
X134509379Y-97129932D01*
X134318902Y-97129932D01*
X134223664Y-97177551D01*
X134176045Y-97225170D01*
X134128426Y-97320409D01*
X134128426Y-97510885D01*
X134176045Y-97606123D01*
X134223664Y-97653742D01*
X134318902Y-97701361D01*
X134509379Y-97701361D01*
X134604617Y-97653742D01*
X134652236Y-97606123D01*
X134699855Y-97510885D01*
X134699855Y-97320409D01*
X134652236Y-97225170D01*
X134604617Y-97177551D01*
X134509379Y-97129932D01*
X137547357Y-97008738D02*
X137585452Y-96894452D01*
X137623548Y-96856357D01*
X137699738Y-96818262D01*
X137814024Y-96818262D01*
X137890214Y-96856357D01*
X137928310Y-96894452D01*
X137966405Y-96970643D01*
X137966405Y-97275405D01*
X137166405Y-97275405D01*
X137166405Y-97008738D01*
X137204500Y-96932548D01*
X137242595Y-96894452D01*
X137318786Y-96856357D01*
X137394976Y-96856357D01*
X137471167Y-96894452D01*
X137509262Y-96932548D01*
X137547357Y-97008738D01*
X137547357Y-97275405D01*
X137737833Y-96513500D02*
X137737833Y-96132548D01*
X137966405Y-96589691D02*
X137166405Y-96323024D01*
X137966405Y-96056357D01*
X137166405Y-95903977D02*
X137966405Y-95637310D01*
X137166405Y-95370643D01*
X137966405Y-95065882D02*
X137966405Y-94913501D01*
X137928310Y-94837310D01*
X137890214Y-94799215D01*
X137775929Y-94723024D01*
X137623548Y-94684929D01*
X137318786Y-94684929D01*
X137242595Y-94723024D01*
X137204500Y-94761120D01*
X137166405Y-94837310D01*
X137166405Y-94989691D01*
X137204500Y-95065882D01*
X137242595Y-95103977D01*
X137318786Y-95142072D01*
X137509262Y-95142072D01*
X137585452Y-95103977D01*
X137623548Y-95065882D01*
X137661643Y-94989691D01*
X137661643Y-94837310D01*
X137623548Y-94761120D01*
X137585452Y-94723024D01*
X137509262Y-94684929D01*
X137966405Y-94303977D02*
X137966405Y-94151596D01*
X137928310Y-94075405D01*
X137890214Y-94037310D01*
X137775929Y-93961119D01*
X137623548Y-93923024D01*
X137318786Y-93923024D01*
X137242595Y-93961119D01*
X137204500Y-93999215D01*
X137166405Y-94075405D01*
X137166405Y-94227786D01*
X137204500Y-94303977D01*
X137242595Y-94342072D01*
X137318786Y-94380167D01*
X137509262Y-94380167D01*
X137585452Y-94342072D01*
X137623548Y-94303977D01*
X137661643Y-94227786D01*
X137661643Y-94075405D01*
X137623548Y-93999215D01*
X137585452Y-93961119D01*
X137509262Y-93923024D01*
X137166405Y-93694453D02*
X137166405Y-93237310D01*
X137966405Y-93465881D02*
X137166405Y-93465881D01*
X139902714Y-99406381D02*
X139997953Y-99406381D01*
X140093191Y-99454000D01*
X140140810Y-99501619D01*
X140188429Y-99596857D01*
X140236048Y-99787333D01*
X140236048Y-100025429D01*
X140188429Y-100215905D01*
X140140810Y-100311143D01*
X140093191Y-100358762D01*
X139997953Y-100406381D01*
X139902714Y-100406381D01*
X139807476Y-100358762D01*
X139759857Y-100311143D01*
X139712238Y-100215905D01*
X139664619Y-100025429D01*
X139664619Y-99787333D01*
X139712238Y-99596857D01*
X139759857Y-99501619D01*
X139807476Y-99454000D01*
X139902714Y-99406381D01*
X140664619Y-100311143D02*
X140712238Y-100358762D01*
X140664619Y-100406381D01*
X140617000Y-100358762D01*
X140664619Y-100311143D01*
X140664619Y-100406381D01*
X141664619Y-100406381D02*
X141093190Y-100406381D01*
X141378904Y-100406381D02*
X141378904Y-99406381D01*
X141283666Y-99549238D01*
X141188428Y-99644476D01*
X141093190Y-99692095D01*
X142093190Y-99739714D02*
X142093190Y-100739714D01*
X142569381Y-100263524D02*
X142617000Y-100358762D01*
X142712238Y-100406381D01*
X142093190Y-100263524D02*
X142140809Y-100358762D01*
X142236047Y-100406381D01*
X142426524Y-100406381D01*
X142521762Y-100358762D01*
X142569381Y-100263524D01*
X142569381Y-99739714D01*
X143474143Y-99882571D02*
X143140809Y-99882571D01*
X143140809Y-100406381D02*
X143140809Y-99406381D01*
X143617000Y-99406381D01*
X158578381Y-103060286D02*
X158578381Y-102965047D01*
X158626000Y-102869809D01*
X158673619Y-102822190D01*
X158768857Y-102774571D01*
X158959333Y-102726952D01*
X159197429Y-102726952D01*
X159387905Y-102774571D01*
X159483143Y-102822190D01*
X159530762Y-102869809D01*
X159578381Y-102965047D01*
X159578381Y-103060286D01*
X159530762Y-103155524D01*
X159483143Y-103203143D01*
X159387905Y-103250762D01*
X159197429Y-103298381D01*
X158959333Y-103298381D01*
X158768857Y-103250762D01*
X158673619Y-103203143D01*
X158626000Y-103155524D01*
X158578381Y-103060286D01*
X159483143Y-102298381D02*
X159530762Y-102250762D01*
X159578381Y-102298381D01*
X159530762Y-102346000D01*
X159483143Y-102298381D01*
X159578381Y-102298381D01*
X159578381Y-101298381D02*
X159578381Y-101869810D01*
X159578381Y-101584096D02*
X158578381Y-101584096D01*
X158721238Y-101679334D01*
X158816476Y-101774572D01*
X158864095Y-101869810D01*
X158911714Y-100869810D02*
X159911714Y-100869810D01*
X159435524Y-100393619D02*
X159530762Y-100346000D01*
X159578381Y-100250762D01*
X159435524Y-100869810D02*
X159530762Y-100822191D01*
X159578381Y-100726953D01*
X159578381Y-100536476D01*
X159530762Y-100441238D01*
X159435524Y-100393619D01*
X158911714Y-100393619D01*
X159054571Y-99488857D02*
X159054571Y-99822191D01*
X159578381Y-99822191D02*
X158578381Y-99822191D01*
X158578381Y-99346000D01*
X138522381Y-106362286D02*
X138522381Y-106267047D01*
X138570000Y-106171809D01*
X138617619Y-106124190D01*
X138712857Y-106076571D01*
X138903333Y-106028952D01*
X139141429Y-106028952D01*
X139331905Y-106076571D01*
X139427143Y-106124190D01*
X139474762Y-106171809D01*
X139522381Y-106267047D01*
X139522381Y-106362286D01*
X139474762Y-106457524D01*
X139427143Y-106505143D01*
X139331905Y-106552762D01*
X139141429Y-106600381D01*
X138903333Y-106600381D01*
X138712857Y-106552762D01*
X138617619Y-106505143D01*
X138570000Y-106457524D01*
X138522381Y-106362286D01*
X139427143Y-105600381D02*
X139474762Y-105552762D01*
X139522381Y-105600381D01*
X139474762Y-105648000D01*
X139427143Y-105600381D01*
X139522381Y-105600381D01*
X139522381Y-104600381D02*
X139522381Y-105171810D01*
X139522381Y-104886096D02*
X138522381Y-104886096D01*
X138665238Y-104981334D01*
X138760476Y-105076572D01*
X138808095Y-105171810D01*
X138855714Y-104171810D02*
X139855714Y-104171810D01*
X139379524Y-103695619D02*
X139474762Y-103648000D01*
X139522381Y-103552762D01*
X139379524Y-104171810D02*
X139474762Y-104124191D01*
X139522381Y-104028953D01*
X139522381Y-103838476D01*
X139474762Y-103743238D01*
X139379524Y-103695619D01*
X138855714Y-103695619D01*
X138998571Y-102790857D02*
X138998571Y-103124191D01*
X139522381Y-103124191D02*
X138522381Y-103124191D01*
X138522381Y-102648000D01*
X140173381Y-106362286D02*
X140173381Y-106267047D01*
X140221000Y-106171809D01*
X140268619Y-106124190D01*
X140363857Y-106076571D01*
X140554333Y-106028952D01*
X140792429Y-106028952D01*
X140982905Y-106076571D01*
X141078143Y-106124190D01*
X141125762Y-106171809D01*
X141173381Y-106267047D01*
X141173381Y-106362286D01*
X141125762Y-106457524D01*
X141078143Y-106505143D01*
X140982905Y-106552762D01*
X140792429Y-106600381D01*
X140554333Y-106600381D01*
X140363857Y-106552762D01*
X140268619Y-106505143D01*
X140221000Y-106457524D01*
X140173381Y-106362286D01*
X141078143Y-105600381D02*
X141125762Y-105552762D01*
X141173381Y-105600381D01*
X141125762Y-105648000D01*
X141078143Y-105600381D01*
X141173381Y-105600381D01*
X141173381Y-104600381D02*
X141173381Y-105171810D01*
X141173381Y-104886096D02*
X140173381Y-104886096D01*
X140316238Y-104981334D01*
X140411476Y-105076572D01*
X140459095Y-105171810D01*
X140506714Y-104171810D02*
X141506714Y-104171810D01*
X141030524Y-103695619D02*
X141125762Y-103648000D01*
X141173381Y-103552762D01*
X141030524Y-104171810D02*
X141125762Y-104124191D01*
X141173381Y-104028953D01*
X141173381Y-103838476D01*
X141125762Y-103743238D01*
X141030524Y-103695619D01*
X140506714Y-103695619D01*
X140649571Y-102790857D02*
X140649571Y-103124191D01*
X141173381Y-103124191D02*
X140173381Y-103124191D01*
X140173381Y-102648000D01*
X158578381Y-106108286D02*
X158578381Y-106013047D01*
X158626000Y-105917809D01*
X158673619Y-105870190D01*
X158768857Y-105822571D01*
X158959333Y-105774952D01*
X159197429Y-105774952D01*
X159387905Y-105822571D01*
X159483143Y-105870190D01*
X159530762Y-105917809D01*
X159578381Y-106013047D01*
X159578381Y-106108286D01*
X159530762Y-106203524D01*
X159483143Y-106251143D01*
X159387905Y-106298762D01*
X159197429Y-106346381D01*
X158959333Y-106346381D01*
X158768857Y-106298762D01*
X158673619Y-106251143D01*
X158626000Y-106203524D01*
X158578381Y-106108286D01*
X159483143Y-105346381D02*
X159530762Y-105298762D01*
X159578381Y-105346381D01*
X159530762Y-105394000D01*
X159483143Y-105346381D01*
X159578381Y-105346381D01*
X159578381Y-104346381D02*
X159578381Y-104917810D01*
X159578381Y-104632096D02*
X158578381Y-104632096D01*
X158721238Y-104727334D01*
X158816476Y-104822572D01*
X158864095Y-104917810D01*
X158911714Y-103917810D02*
X159911714Y-103917810D01*
X159435524Y-103441619D02*
X159530762Y-103394000D01*
X159578381Y-103298762D01*
X159435524Y-103917810D02*
X159530762Y-103870191D01*
X159578381Y-103774953D01*
X159578381Y-103584476D01*
X159530762Y-103489238D01*
X159435524Y-103441619D01*
X158911714Y-103441619D01*
X159054571Y-102536857D02*
X159054571Y-102870191D01*
X159578381Y-102870191D02*
X158578381Y-102870191D01*
X158578381Y-102394000D01*
X150714381Y-109156286D02*
X150714381Y-109061047D01*
X150762000Y-108965809D01*
X150809619Y-108918190D01*
X150904857Y-108870571D01*
X151095333Y-108822952D01*
X151333429Y-108822952D01*
X151523905Y-108870571D01*
X151619143Y-108918190D01*
X151666762Y-108965809D01*
X151714381Y-109061047D01*
X151714381Y-109156286D01*
X151666762Y-109251524D01*
X151619143Y-109299143D01*
X151523905Y-109346762D01*
X151333429Y-109394381D01*
X151095333Y-109394381D01*
X150904857Y-109346762D01*
X150809619Y-109299143D01*
X150762000Y-109251524D01*
X150714381Y-109156286D01*
X151619143Y-108394381D02*
X151666762Y-108346762D01*
X151714381Y-108394381D01*
X151666762Y-108442000D01*
X151619143Y-108394381D01*
X151714381Y-108394381D01*
X151714381Y-107394381D02*
X151714381Y-107965810D01*
X151714381Y-107680096D02*
X150714381Y-107680096D01*
X150857238Y-107775334D01*
X150952476Y-107870572D01*
X151000095Y-107965810D01*
X151047714Y-106965810D02*
X152047714Y-106965810D01*
X151571524Y-106489619D02*
X151666762Y-106442000D01*
X151714381Y-106346762D01*
X151571524Y-106965810D02*
X151666762Y-106918191D01*
X151714381Y-106822953D01*
X151714381Y-106632476D01*
X151666762Y-106537238D01*
X151571524Y-106489619D01*
X151047714Y-106489619D01*
X151190571Y-105584857D02*
X151190571Y-105918191D01*
X151714381Y-105918191D02*
X150714381Y-105918191D01*
X150714381Y-105442000D01*
X149190381Y-111569286D02*
X149190381Y-111474047D01*
X149238000Y-111378809D01*
X149285619Y-111331190D01*
X149380857Y-111283571D01*
X149571333Y-111235952D01*
X149809429Y-111235952D01*
X149999905Y-111283571D01*
X150095143Y-111331190D01*
X150142762Y-111378809D01*
X150190381Y-111474047D01*
X150190381Y-111569286D01*
X150142762Y-111664524D01*
X150095143Y-111712143D01*
X149999905Y-111759762D01*
X149809429Y-111807381D01*
X149571333Y-111807381D01*
X149380857Y-111759762D01*
X149285619Y-111712143D01*
X149238000Y-111664524D01*
X149190381Y-111569286D01*
X150095143Y-110807381D02*
X150142762Y-110759762D01*
X150190381Y-110807381D01*
X150142762Y-110855000D01*
X150095143Y-110807381D01*
X150190381Y-110807381D01*
X150190381Y-109807381D02*
X150190381Y-110378810D01*
X150190381Y-110093096D02*
X149190381Y-110093096D01*
X149333238Y-110188334D01*
X149428476Y-110283572D01*
X149476095Y-110378810D01*
X149523714Y-109378810D02*
X150523714Y-109378810D01*
X150047524Y-108902619D02*
X150142762Y-108855000D01*
X150190381Y-108759762D01*
X150047524Y-109378810D02*
X150142762Y-109331191D01*
X150190381Y-109235953D01*
X150190381Y-109045476D01*
X150142762Y-108950238D01*
X150047524Y-108902619D01*
X149523714Y-108902619D01*
X149666571Y-107997857D02*
X149666571Y-108331191D01*
X150190381Y-108331191D02*
X149190381Y-108331191D01*
X149190381Y-107855000D01*
X145110381Y-110831238D02*
X145110381Y-111402667D01*
X145110381Y-111116953D02*
X144110381Y-111116953D01*
X144253238Y-111212191D01*
X144348476Y-111307429D01*
X144396095Y-111402667D01*
X144443714Y-110402667D02*
X145110381Y-110402667D01*
X144538952Y-110402667D02*
X144491333Y-110355048D01*
X144443714Y-110259810D01*
X144443714Y-110116952D01*
X144491333Y-110021714D01*
X144586571Y-109974095D01*
X145110381Y-109974095D01*
X144586571Y-109164571D02*
X144586571Y-109497905D01*
X145110381Y-109497905D02*
X144110381Y-109497905D01*
X144110381Y-109021714D01*
X148412381Y-110450238D02*
X148412381Y-111021667D01*
X148412381Y-110735953D02*
X147412381Y-110735953D01*
X147555238Y-110831191D01*
X147650476Y-110926429D01*
X147698095Y-111021667D01*
X147745714Y-110021667D02*
X148412381Y-110021667D01*
X147840952Y-110021667D02*
X147793333Y-109974048D01*
X147745714Y-109878810D01*
X147745714Y-109735952D01*
X147793333Y-109640714D01*
X147888571Y-109593095D01*
X148412381Y-109593095D01*
X147888571Y-108783571D02*
X147888571Y-109116905D01*
X148412381Y-109116905D02*
X147412381Y-109116905D01*
X147412381Y-108640714D01*
X151720381Y-98178761D02*
X151720381Y-98369238D01*
X151768000Y-98464476D01*
X151815619Y-98512095D01*
X151958476Y-98607333D01*
X152148952Y-98654952D01*
X152529905Y-98654952D01*
X152625143Y-98607333D01*
X152672762Y-98559714D01*
X152720381Y-98464476D01*
X152720381Y-98273999D01*
X152672762Y-98178761D01*
X152625143Y-98131142D01*
X152529905Y-98083523D01*
X152291810Y-98083523D01*
X152196571Y-98131142D01*
X152148952Y-98178761D01*
X152101333Y-98273999D01*
X152101333Y-98464476D01*
X152148952Y-98559714D01*
X152196571Y-98607333D01*
X152291810Y-98654952D01*
X152625143Y-97654952D02*
X152672762Y-97607333D01*
X152720381Y-97654952D01*
X152672762Y-97702571D01*
X152625143Y-97654952D01*
X152720381Y-97654952D01*
X152148952Y-97035905D02*
X152101333Y-97131143D01*
X152053714Y-97178762D01*
X151958476Y-97226381D01*
X151910857Y-97226381D01*
X151815619Y-97178762D01*
X151768000Y-97131143D01*
X151720381Y-97035905D01*
X151720381Y-96845428D01*
X151768000Y-96750190D01*
X151815619Y-96702571D01*
X151910857Y-96654952D01*
X151958476Y-96654952D01*
X152053714Y-96702571D01*
X152101333Y-96750190D01*
X152148952Y-96845428D01*
X152148952Y-97035905D01*
X152196571Y-97131143D01*
X152244190Y-97178762D01*
X152339429Y-97226381D01*
X152529905Y-97226381D01*
X152625143Y-97178762D01*
X152672762Y-97131143D01*
X152720381Y-97035905D01*
X152720381Y-96845428D01*
X152672762Y-96750190D01*
X152625143Y-96702571D01*
X152529905Y-96654952D01*
X152339429Y-96654952D01*
X152244190Y-96702571D01*
X152196571Y-96750190D01*
X152148952Y-96845428D01*
X152053714Y-96226381D02*
X152720381Y-96226381D01*
X152148952Y-96226381D02*
X152101333Y-96178762D01*
X152053714Y-96083524D01*
X152053714Y-95940666D01*
X152101333Y-95845428D01*
X152196571Y-95797809D01*
X152720381Y-95797809D01*
X152196571Y-94988285D02*
X152196571Y-95321619D01*
X152720381Y-95321619D02*
X151720381Y-95321619D01*
X151720381Y-94845428D01*
X151815619Y-95733952D02*
X151768000Y-95686333D01*
X151720381Y-95591095D01*
X151720381Y-95352999D01*
X151768000Y-95257761D01*
X151815619Y-95210142D01*
X151910857Y-95162523D01*
X152006095Y-95162523D01*
X152148952Y-95210142D01*
X152720381Y-95781571D01*
X152720381Y-95162523D01*
X152625143Y-94733952D02*
X152672762Y-94686333D01*
X152720381Y-94733952D01*
X152672762Y-94781571D01*
X152625143Y-94733952D01*
X152720381Y-94733952D01*
X151815619Y-94305381D02*
X151768000Y-94257762D01*
X151720381Y-94162524D01*
X151720381Y-93924428D01*
X151768000Y-93829190D01*
X151815619Y-93781571D01*
X151910857Y-93733952D01*
X152006095Y-93733952D01*
X152148952Y-93781571D01*
X152720381Y-94353000D01*
X152720381Y-93733952D01*
X152053714Y-93305381D02*
X152720381Y-93305381D01*
X152148952Y-93305381D02*
X152101333Y-93257762D01*
X152053714Y-93162524D01*
X152053714Y-93019666D01*
X152101333Y-92924428D01*
X152196571Y-92876809D01*
X152720381Y-92876809D01*
X152196571Y-92067285D02*
X152196571Y-92400619D01*
X152720381Y-92400619D02*
X151720381Y-92400619D01*
X151720381Y-91924428D01*
X158567643Y-91675214D02*
X158567643Y-92341881D01*
X158329547Y-91294262D02*
X158091452Y-92008548D01*
X158710500Y-92008548D01*
X158996214Y-91341881D02*
X159662881Y-91341881D01*
X159234309Y-92341881D01*
X160234309Y-91341881D02*
X160329548Y-91341881D01*
X160424786Y-91389500D01*
X160472405Y-91437119D01*
X160520024Y-91532357D01*
X160567643Y-91722833D01*
X160567643Y-91960929D01*
X160520024Y-92151405D01*
X160472405Y-92246643D01*
X160424786Y-92294262D01*
X160329548Y-92341881D01*
X160234309Y-92341881D01*
X160139071Y-92294262D01*
X160091452Y-92246643D01*
X160043833Y-92151405D01*
X159996214Y-91960929D01*
X159996214Y-91722833D01*
X160043833Y-91532357D01*
X160091452Y-91437119D01*
X160139071Y-91389500D01*
X160234309Y-91341881D01*
X160996214Y-91675214D02*
X160996214Y-92675214D01*
X160996214Y-91722833D02*
X161091452Y-91675214D01*
X161281929Y-91675214D01*
X161377167Y-91722833D01*
X161424786Y-91770452D01*
X161472405Y-91865690D01*
X161472405Y-92151405D01*
X161424786Y-92246643D01*
X161377167Y-92294262D01*
X161281929Y-92341881D01*
X161091452Y-92341881D01*
X160996214Y-92294262D01*
X162234310Y-91818071D02*
X161900976Y-91818071D01*
X161900976Y-92341881D02*
X161900976Y-91341881D01*
X162377167Y-91341881D01*
X152336714Y-93173381D02*
X152431953Y-93173381D01*
X152527191Y-93221000D01*
X152574810Y-93268619D01*
X152622429Y-93363857D01*
X152670048Y-93554333D01*
X152670048Y-93792429D01*
X152622429Y-93982905D01*
X152574810Y-94078143D01*
X152527191Y-94125762D01*
X152431953Y-94173381D01*
X152336714Y-94173381D01*
X152241476Y-94125762D01*
X152193857Y-94078143D01*
X152146238Y-93982905D01*
X152098619Y-93792429D01*
X152098619Y-93554333D01*
X152146238Y-93363857D01*
X152193857Y-93268619D01*
X152241476Y-93221000D01*
X152336714Y-93173381D01*
X153098619Y-94078143D02*
X153146238Y-94125762D01*
X153098619Y-94173381D01*
X153051000Y-94125762D01*
X153098619Y-94078143D01*
X153098619Y-94173381D01*
X154098619Y-94173381D02*
X153527190Y-94173381D01*
X153812904Y-94173381D02*
X153812904Y-93173381D01*
X153717666Y-93316238D01*
X153622428Y-93411476D01*
X153527190Y-93459095D01*
X154527190Y-93506714D02*
X154527190Y-94506714D01*
X155003381Y-94030524D02*
X155051000Y-94125762D01*
X155146238Y-94173381D01*
X154527190Y-94030524D02*
X154574809Y-94125762D01*
X154670047Y-94173381D01*
X154860524Y-94173381D01*
X154955762Y-94125762D01*
X155003381Y-94030524D01*
X155003381Y-93506714D01*
X155908143Y-93649571D02*
X155574809Y-93649571D01*
X155574809Y-94173381D02*
X155574809Y-93173381D01*
X156051000Y-93173381D01*
X140533572Y-96723381D02*
X139962143Y-96723381D01*
X140247857Y-96723381D02*
X140247857Y-95723381D01*
X140152619Y-95866238D01*
X140057381Y-95961476D01*
X139962143Y-96009095D01*
X141105000Y-96151952D02*
X141009762Y-96104333D01*
X140962143Y-96056714D01*
X140914524Y-95961476D01*
X140914524Y-95913857D01*
X140962143Y-95818619D01*
X141009762Y-95771000D01*
X141105000Y-95723381D01*
X141295477Y-95723381D01*
X141390715Y-95771000D01*
X141438334Y-95818619D01*
X141485953Y-95913857D01*
X141485953Y-95961476D01*
X141438334Y-96056714D01*
X141390715Y-96104333D01*
X141295477Y-96151952D01*
X141105000Y-96151952D01*
X141009762Y-96199571D01*
X140962143Y-96247190D01*
X140914524Y-96342429D01*
X140914524Y-96532905D01*
X140962143Y-96628143D01*
X141009762Y-96675762D01*
X141105000Y-96723381D01*
X141295477Y-96723381D01*
X141390715Y-96675762D01*
X141438334Y-96628143D01*
X141485953Y-96532905D01*
X141485953Y-96342429D01*
X141438334Y-96247190D01*
X141390715Y-96199571D01*
X141295477Y-96151952D01*
X141914524Y-96056714D02*
X141914524Y-96723381D01*
X141914524Y-96151952D02*
X141962143Y-96104333D01*
X142057381Y-96056714D01*
X142200239Y-96056714D01*
X142295477Y-96104333D01*
X142343096Y-96199571D01*
X142343096Y-96723381D01*
X143152620Y-96199571D02*
X142819286Y-96199571D01*
X142819286Y-96723381D02*
X142819286Y-95723381D01*
X143295477Y-95723381D01*
X139763714Y-97872381D02*
X139858953Y-97872381D01*
X139954191Y-97920000D01*
X140001810Y-97967619D01*
X140049429Y-98062857D01*
X140097048Y-98253333D01*
X140097048Y-98491429D01*
X140049429Y-98681905D01*
X140001810Y-98777143D01*
X139954191Y-98824762D01*
X139858953Y-98872381D01*
X139763714Y-98872381D01*
X139668476Y-98824762D01*
X139620857Y-98777143D01*
X139573238Y-98681905D01*
X139525619Y-98491429D01*
X139525619Y-98253333D01*
X139573238Y-98062857D01*
X139620857Y-97967619D01*
X139668476Y-97920000D01*
X139763714Y-97872381D01*
X140525619Y-98777143D02*
X140573238Y-98824762D01*
X140525619Y-98872381D01*
X140478000Y-98824762D01*
X140525619Y-98777143D01*
X140525619Y-98872381D01*
X141525619Y-98872381D02*
X140954190Y-98872381D01*
X141239904Y-98872381D02*
X141239904Y-97872381D01*
X141144666Y-98015238D01*
X141049428Y-98110476D01*
X140954190Y-98158095D01*
X141954190Y-98205714D02*
X141954190Y-99205714D01*
X142430381Y-98729524D02*
X142478000Y-98824762D01*
X142573238Y-98872381D01*
X141954190Y-98729524D02*
X142001809Y-98824762D01*
X142097047Y-98872381D01*
X142287524Y-98872381D01*
X142382762Y-98824762D01*
X142430381Y-98729524D01*
X142430381Y-98205714D01*
X143335143Y-98348571D02*
X143001809Y-98348571D01*
X143001809Y-98872381D02*
X143001809Y-97872381D01*
X143478000Y-97872381D01*
X145732714Y-95850381D02*
X145827953Y-95850381D01*
X145923191Y-95898000D01*
X145970810Y-95945619D01*
X146018429Y-96040857D01*
X146066048Y-96231333D01*
X146066048Y-96469429D01*
X146018429Y-96659905D01*
X145970810Y-96755143D01*
X145923191Y-96802762D01*
X145827953Y-96850381D01*
X145732714Y-96850381D01*
X145637476Y-96802762D01*
X145589857Y-96755143D01*
X145542238Y-96659905D01*
X145494619Y-96469429D01*
X145494619Y-96231333D01*
X145542238Y-96040857D01*
X145589857Y-95945619D01*
X145637476Y-95898000D01*
X145732714Y-95850381D01*
X146494619Y-96755143D02*
X146542238Y-96802762D01*
X146494619Y-96850381D01*
X146447000Y-96802762D01*
X146494619Y-96755143D01*
X146494619Y-96850381D01*
X147494619Y-96850381D02*
X146923190Y-96850381D01*
X147208904Y-96850381D02*
X147208904Y-95850381D01*
X147113666Y-95993238D01*
X147018428Y-96088476D01*
X146923190Y-96136095D01*
X147923190Y-96183714D02*
X147923190Y-97183714D01*
X148399381Y-96707524D02*
X148447000Y-96802762D01*
X148542238Y-96850381D01*
X147923190Y-96707524D02*
X147970809Y-96802762D01*
X148066047Y-96850381D01*
X148256524Y-96850381D01*
X148351762Y-96802762D01*
X148399381Y-96707524D01*
X148399381Y-96183714D01*
X149304143Y-96326571D02*
X148970809Y-96326571D01*
X148970809Y-96850381D02*
X148970809Y-95850381D01*
X149447000Y-95850381D01*
X142756143Y-99618619D02*
X142803762Y-99571000D01*
X142899000Y-99523381D01*
X143137096Y-99523381D01*
X143232334Y-99571000D01*
X143279953Y-99618619D01*
X143327572Y-99713857D01*
X143327572Y-99809095D01*
X143279953Y-99951952D01*
X142708524Y-100523381D01*
X143327572Y-100523381D01*
X143708524Y-99618619D02*
X143756143Y-99571000D01*
X143851381Y-99523381D01*
X144089477Y-99523381D01*
X144184715Y-99571000D01*
X144232334Y-99618619D01*
X144279953Y-99713857D01*
X144279953Y-99809095D01*
X144232334Y-99951952D01*
X143660905Y-100523381D01*
X144279953Y-100523381D01*
X144708524Y-99856714D02*
X144708524Y-100856714D01*
X144708524Y-99904333D02*
X144803762Y-99856714D01*
X144994239Y-99856714D01*
X145089477Y-99904333D01*
X145137096Y-99951952D01*
X145184715Y-100047190D01*
X145184715Y-100332905D01*
X145137096Y-100428143D01*
X145089477Y-100475762D01*
X144994239Y-100523381D01*
X144803762Y-100523381D01*
X144708524Y-100475762D01*
X145946620Y-99999571D02*
X145613286Y-99999571D01*
X145613286Y-100523381D02*
X145613286Y-99523381D01*
X146089477Y-99523381D01*
X137109381Y-100361381D02*
X137109381Y-100932810D01*
X137109381Y-100647096D02*
X136109381Y-100647096D01*
X136252238Y-100742334D01*
X136347476Y-100837572D01*
X136395095Y-100932810D01*
X136204619Y-99980429D02*
X136157000Y-99932810D01*
X136109381Y-99837572D01*
X136109381Y-99599476D01*
X136157000Y-99504238D01*
X136204619Y-99456619D01*
X136299857Y-99409000D01*
X136395095Y-99409000D01*
X136537952Y-99456619D01*
X137109381Y-100028048D01*
X137109381Y-99409000D01*
X136109381Y-98789953D02*
X136109381Y-98694714D01*
X136157000Y-98599476D01*
X136204619Y-98551857D01*
X136299857Y-98504238D01*
X136490333Y-98456619D01*
X136728429Y-98456619D01*
X136918905Y-98504238D01*
X137014143Y-98551857D01*
X137061762Y-98599476D01*
X137109381Y-98694714D01*
X137109381Y-98789953D01*
X137061762Y-98885191D01*
X137014143Y-98932810D01*
X136918905Y-98980429D01*
X136728429Y-99028048D01*
X136490333Y-99028048D01*
X136299857Y-98980429D01*
X136204619Y-98932810D01*
X136157000Y-98885191D01*
X136109381Y-98789953D01*
X136442714Y-98028048D02*
X137109381Y-98028048D01*
X136537952Y-98028048D02*
X136490333Y-97980429D01*
X136442714Y-97885191D01*
X136442714Y-97742333D01*
X136490333Y-97647095D01*
X136585571Y-97599476D01*
X137109381Y-97599476D01*
X137109381Y-97123286D02*
X136109381Y-97123286D01*
X136585571Y-97123286D02*
X136585571Y-96551857D01*
X137109381Y-96551857D02*
X136109381Y-96551857D01*
X136585571Y-94980428D02*
X136585571Y-95313762D01*
X137109381Y-95313762D02*
X136109381Y-95313762D01*
X136109381Y-94837571D01*
X136585571Y-94123285D02*
X136633190Y-93980428D01*
X136680810Y-93932809D01*
X136776048Y-93885190D01*
X136918905Y-93885190D01*
X137014143Y-93932809D01*
X137061762Y-93980428D01*
X137109381Y-94075666D01*
X137109381Y-94456619D01*
X136109381Y-94456619D01*
X136109381Y-94123285D01*
X136157000Y-94028047D01*
X136204619Y-93980428D01*
X136299857Y-93932809D01*
X136395095Y-93932809D01*
X136490333Y-93980428D01*
X136537952Y-94028047D01*
X136585571Y-94123285D01*
X136585571Y-94456619D01*
X138664619Y-102301381D02*
X138093190Y-102301381D01*
X138378904Y-102301381D02*
X138378904Y-101301381D01*
X138283666Y-101444238D01*
X138188428Y-101539476D01*
X138093190Y-101587095D01*
X139045571Y-101396619D02*
X139093190Y-101349000D01*
X139188428Y-101301381D01*
X139426524Y-101301381D01*
X139521762Y-101349000D01*
X139569381Y-101396619D01*
X139617000Y-101491857D01*
X139617000Y-101587095D01*
X139569381Y-101729952D01*
X138997952Y-102301381D01*
X139617000Y-102301381D01*
X140236047Y-101301381D02*
X140331286Y-101301381D01*
X140426524Y-101349000D01*
X140474143Y-101396619D01*
X140521762Y-101491857D01*
X140569381Y-101682333D01*
X140569381Y-101920429D01*
X140521762Y-102110905D01*
X140474143Y-102206143D01*
X140426524Y-102253762D01*
X140331286Y-102301381D01*
X140236047Y-102301381D01*
X140140809Y-102253762D01*
X140093190Y-102206143D01*
X140045571Y-102110905D01*
X139997952Y-101920429D01*
X139997952Y-101682333D01*
X140045571Y-101491857D01*
X140093190Y-101396619D01*
X140140809Y-101349000D01*
X140236047Y-101301381D01*
X140997952Y-101634714D02*
X140997952Y-102301381D01*
X140997952Y-101729952D02*
X141045571Y-101682333D01*
X141140809Y-101634714D01*
X141283667Y-101634714D01*
X141378905Y-101682333D01*
X141426524Y-101777571D01*
X141426524Y-102301381D01*
X141902714Y-102301381D02*
X141902714Y-101301381D01*
X141902714Y-101777571D02*
X142474143Y-101777571D01*
X142474143Y-102301381D02*
X142474143Y-101301381D01*
X144045572Y-101777571D02*
X143712238Y-101777571D01*
X143712238Y-102301381D02*
X143712238Y-101301381D01*
X144188429Y-101301381D01*
X144902715Y-101777571D02*
X145045572Y-101825190D01*
X145093191Y-101872810D01*
X145140810Y-101968048D01*
X145140810Y-102110905D01*
X145093191Y-102206143D01*
X145045572Y-102253762D01*
X144950334Y-102301381D01*
X144569381Y-102301381D01*
X144569381Y-101301381D01*
X144902715Y-101301381D01*
X144997953Y-101349000D01*
X145045572Y-101396619D01*
X145093191Y-101491857D01*
X145093191Y-101587095D01*
X145045572Y-101682333D01*
X144997953Y-101729952D01*
X144902715Y-101777571D01*
X144569381Y-101777571D01*
X151606619Y-100904381D02*
X151035190Y-100904381D01*
X151320904Y-100904381D02*
X151320904Y-99904381D01*
X151225666Y-100047238D01*
X151130428Y-100142476D01*
X151035190Y-100190095D01*
X151987571Y-99999619D02*
X152035190Y-99952000D01*
X152130428Y-99904381D01*
X152368524Y-99904381D01*
X152463762Y-99952000D01*
X152511381Y-99999619D01*
X152559000Y-100094857D01*
X152559000Y-100190095D01*
X152511381Y-100332952D01*
X151939952Y-100904381D01*
X152559000Y-100904381D01*
X153178047Y-99904381D02*
X153273286Y-99904381D01*
X153368524Y-99952000D01*
X153416143Y-99999619D01*
X153463762Y-100094857D01*
X153511381Y-100285333D01*
X153511381Y-100523429D01*
X153463762Y-100713905D01*
X153416143Y-100809143D01*
X153368524Y-100856762D01*
X153273286Y-100904381D01*
X153178047Y-100904381D01*
X153082809Y-100856762D01*
X153035190Y-100809143D01*
X152987571Y-100713905D01*
X152939952Y-100523429D01*
X152939952Y-100285333D01*
X152987571Y-100094857D01*
X153035190Y-99999619D01*
X153082809Y-99952000D01*
X153178047Y-99904381D01*
X153939952Y-100237714D02*
X153939952Y-100904381D01*
X153939952Y-100332952D02*
X153987571Y-100285333D01*
X154082809Y-100237714D01*
X154225667Y-100237714D01*
X154320905Y-100285333D01*
X154368524Y-100380571D01*
X154368524Y-100904381D01*
X154844714Y-100904381D02*
X154844714Y-99904381D01*
X154844714Y-100380571D02*
X155416143Y-100380571D01*
X155416143Y-100904381D02*
X155416143Y-99904381D01*
X156987572Y-100380571D02*
X156654238Y-100380571D01*
X156654238Y-100904381D02*
X156654238Y-99904381D01*
X157130429Y-99904381D01*
X157844715Y-100380571D02*
X157987572Y-100428190D01*
X158035191Y-100475810D01*
X158082810Y-100571048D01*
X158082810Y-100713905D01*
X158035191Y-100809143D01*
X157987572Y-100856762D01*
X157892334Y-100904381D01*
X157511381Y-100904381D01*
X157511381Y-99904381D01*
X157844715Y-99904381D01*
X157939953Y-99952000D01*
X157987572Y-99999619D01*
X158035191Y-100094857D01*
X158035191Y-100190095D01*
X157987572Y-100285333D01*
X157939953Y-100332952D01*
X157844715Y-100380571D01*
X157511381Y-100380571D01*
X151733619Y-106238381D02*
X151162190Y-106238381D01*
X151447904Y-106238381D02*
X151447904Y-105238381D01*
X151352666Y-105381238D01*
X151257428Y-105476476D01*
X151162190Y-105524095D01*
X152114571Y-105333619D02*
X152162190Y-105286000D01*
X152257428Y-105238381D01*
X152495524Y-105238381D01*
X152590762Y-105286000D01*
X152638381Y-105333619D01*
X152686000Y-105428857D01*
X152686000Y-105524095D01*
X152638381Y-105666952D01*
X152066952Y-106238381D01*
X152686000Y-106238381D01*
X153305047Y-105238381D02*
X153400286Y-105238381D01*
X153495524Y-105286000D01*
X153543143Y-105333619D01*
X153590762Y-105428857D01*
X153638381Y-105619333D01*
X153638381Y-105857429D01*
X153590762Y-106047905D01*
X153543143Y-106143143D01*
X153495524Y-106190762D01*
X153400286Y-106238381D01*
X153305047Y-106238381D01*
X153209809Y-106190762D01*
X153162190Y-106143143D01*
X153114571Y-106047905D01*
X153066952Y-105857429D01*
X153066952Y-105619333D01*
X153114571Y-105428857D01*
X153162190Y-105333619D01*
X153209809Y-105286000D01*
X153305047Y-105238381D01*
X154066952Y-105571714D02*
X154066952Y-106238381D01*
X154066952Y-105666952D02*
X154114571Y-105619333D01*
X154209809Y-105571714D01*
X154352667Y-105571714D01*
X154447905Y-105619333D01*
X154495524Y-105714571D01*
X154495524Y-106238381D01*
X154971714Y-106238381D02*
X154971714Y-105238381D01*
X154971714Y-105714571D02*
X155543143Y-105714571D01*
X155543143Y-106238381D02*
X155543143Y-105238381D01*
X157114572Y-105714571D02*
X156781238Y-105714571D01*
X156781238Y-106238381D02*
X156781238Y-105238381D01*
X157257429Y-105238381D01*
X157971715Y-105714571D02*
X158114572Y-105762190D01*
X158162191Y-105809810D01*
X158209810Y-105905048D01*
X158209810Y-106047905D01*
X158162191Y-106143143D01*
X158114572Y-106190762D01*
X158019334Y-106238381D01*
X157638381Y-106238381D01*
X157638381Y-105238381D01*
X157971715Y-105238381D01*
X158066953Y-105286000D01*
X158114572Y-105333619D01*
X158162191Y-105428857D01*
X158162191Y-105524095D01*
X158114572Y-105619333D01*
X158066953Y-105666952D01*
X157971715Y-105714571D01*
X157638381Y-105714571D01*
X153365381Y-109632381D02*
X153365381Y-110203810D01*
X153365381Y-109918096D02*
X152365381Y-109918096D01*
X152508238Y-110013334D01*
X152603476Y-110108572D01*
X152651095Y-110203810D01*
X152460619Y-109251429D02*
X152413000Y-109203810D01*
X152365381Y-109108572D01*
X152365381Y-108870476D01*
X152413000Y-108775238D01*
X152460619Y-108727619D01*
X152555857Y-108680000D01*
X152651095Y-108680000D01*
X152793952Y-108727619D01*
X153365381Y-109299048D01*
X153365381Y-108680000D01*
X152365381Y-108060953D02*
X152365381Y-107965714D01*
X152413000Y-107870476D01*
X152460619Y-107822857D01*
X152555857Y-107775238D01*
X152746333Y-107727619D01*
X152984429Y-107727619D01*
X153174905Y-107775238D01*
X153270143Y-107822857D01*
X153317762Y-107870476D01*
X153365381Y-107965714D01*
X153365381Y-108060953D01*
X153317762Y-108156191D01*
X153270143Y-108203810D01*
X153174905Y-108251429D01*
X152984429Y-108299048D01*
X152746333Y-108299048D01*
X152555857Y-108251429D01*
X152460619Y-108203810D01*
X152413000Y-108156191D01*
X152365381Y-108060953D01*
X152698714Y-107299048D02*
X153365381Y-107299048D01*
X152793952Y-107299048D02*
X152746333Y-107251429D01*
X152698714Y-107156191D01*
X152698714Y-107013333D01*
X152746333Y-106918095D01*
X152841571Y-106870476D01*
X153365381Y-106870476D01*
X153365381Y-106394286D02*
X152365381Y-106394286D01*
X152841571Y-106394286D02*
X152841571Y-105822857D01*
X153365381Y-105822857D02*
X152365381Y-105822857D01*
X152841571Y-104251428D02*
X152841571Y-104584762D01*
X153365381Y-104584762D02*
X152365381Y-104584762D01*
X152365381Y-104108571D01*
X152841571Y-103394285D02*
X152889190Y-103251428D01*
X152936810Y-103203809D01*
X153032048Y-103156190D01*
X153174905Y-103156190D01*
X153270143Y-103203809D01*
X153317762Y-103251428D01*
X153365381Y-103346666D01*
X153365381Y-103727619D01*
X152365381Y-103727619D01*
X152365381Y-103394285D01*
X152413000Y-103299047D01*
X152460619Y-103251428D01*
X152555857Y-103203809D01*
X152651095Y-103203809D01*
X152746333Y-103251428D01*
X152793952Y-103299047D01*
X152841571Y-103394285D01*
X152841571Y-103727619D01*
X156651619Y-102457095D02*
X156604000Y-102409476D01*
X156556381Y-102314238D01*
X156556381Y-102076142D01*
X156604000Y-101980904D01*
X156651619Y-101933285D01*
X156746857Y-101885666D01*
X156842095Y-101885666D01*
X156984952Y-101933285D01*
X157556381Y-102504714D01*
X157556381Y-101885666D01*
X156556381Y-101552333D02*
X156556381Y-100933285D01*
X156937333Y-101266619D01*
X156937333Y-101123761D01*
X156984952Y-101028523D01*
X157032571Y-100980904D01*
X157127810Y-100933285D01*
X157365905Y-100933285D01*
X157461143Y-100980904D01*
X157508762Y-101028523D01*
X157556381Y-101123761D01*
X157556381Y-101409476D01*
X157508762Y-101504714D01*
X157461143Y-101552333D01*
X156556381Y-100599952D02*
X156556381Y-99933285D01*
X157556381Y-100361857D01*
X153892334Y-100660381D02*
X153320905Y-100660381D01*
X153606619Y-100660381D02*
X153606619Y-99660381D01*
X153511381Y-99803238D01*
X153416143Y-99898476D01*
X153320905Y-99946095D01*
X154511381Y-99660381D02*
X154606620Y-99660381D01*
X154701858Y-99708000D01*
X154749477Y-99755619D01*
X154797096Y-99850857D01*
X154844715Y-100041333D01*
X154844715Y-100279429D01*
X154797096Y-100469905D01*
X154749477Y-100565143D01*
X154701858Y-100612762D01*
X154606620Y-100660381D01*
X154511381Y-100660381D01*
X154416143Y-100612762D01*
X154368524Y-100565143D01*
X154320905Y-100469905D01*
X154273286Y-100279429D01*
X154273286Y-100041333D01*
X154320905Y-99850857D01*
X154368524Y-99755619D01*
X154416143Y-99708000D01*
X154511381Y-99660381D01*
X155463762Y-99660381D02*
X155559001Y-99660381D01*
X155654239Y-99708000D01*
X155701858Y-99755619D01*
X155749477Y-99850857D01*
X155797096Y-100041333D01*
X155797096Y-100279429D01*
X155749477Y-100469905D01*
X155701858Y-100565143D01*
X155654239Y-100612762D01*
X155559001Y-100660381D01*
X155463762Y-100660381D01*
X155368524Y-100612762D01*
X155320905Y-100565143D01*
X155273286Y-100469905D01*
X155225667Y-100279429D01*
X155225667Y-100041333D01*
X155273286Y-99850857D01*
X155320905Y-99755619D01*
X155368524Y-99708000D01*
X155463762Y-99660381D01*
X156651619Y-105505095D02*
X156604000Y-105457476D01*
X156556381Y-105362238D01*
X156556381Y-105124142D01*
X156604000Y-105028904D01*
X156651619Y-104981285D01*
X156746857Y-104933666D01*
X156842095Y-104933666D01*
X156984952Y-104981285D01*
X157556381Y-105552714D01*
X157556381Y-104933666D01*
X156556381Y-104600333D02*
X156556381Y-103981285D01*
X156937333Y-104314619D01*
X156937333Y-104171761D01*
X156984952Y-104076523D01*
X157032571Y-104028904D01*
X157127810Y-103981285D01*
X157365905Y-103981285D01*
X157461143Y-104028904D01*
X157508762Y-104076523D01*
X157556381Y-104171761D01*
X157556381Y-104457476D01*
X157508762Y-104552714D01*
X157461143Y-104600333D01*
X156556381Y-103647952D02*
X156556381Y-102981285D01*
X157556381Y-103409857D01*
X157956286Y-98961381D02*
X157765809Y-98961381D01*
X157670571Y-99009000D01*
X157622952Y-99056619D01*
X157527714Y-99199476D01*
X157480095Y-99389952D01*
X157480095Y-99770905D01*
X157527714Y-99866143D01*
X157575333Y-99913762D01*
X157670571Y-99961381D01*
X157861048Y-99961381D01*
X157956286Y-99913762D01*
X158003905Y-99866143D01*
X158051524Y-99770905D01*
X158051524Y-99532810D01*
X158003905Y-99437571D01*
X157956286Y-99389952D01*
X157861048Y-99342333D01*
X157670571Y-99342333D01*
X157575333Y-99389952D01*
X157527714Y-99437571D01*
X157480095Y-99532810D01*
X158622952Y-99389952D02*
X158527714Y-99342333D01*
X158480095Y-99294714D01*
X158432476Y-99199476D01*
X158432476Y-99151857D01*
X158480095Y-99056619D01*
X158527714Y-99009000D01*
X158622952Y-98961381D01*
X158813429Y-98961381D01*
X158908667Y-99009000D01*
X158956286Y-99056619D01*
X159003905Y-99151857D01*
X159003905Y-99199476D01*
X158956286Y-99294714D01*
X158908667Y-99342333D01*
X158813429Y-99389952D01*
X158622952Y-99389952D01*
X158527714Y-99437571D01*
X158480095Y-99485190D01*
X158432476Y-99580429D01*
X158432476Y-99770905D01*
X158480095Y-99866143D01*
X158527714Y-99913762D01*
X158622952Y-99961381D01*
X158813429Y-99961381D01*
X158908667Y-99913762D01*
X158956286Y-99866143D01*
X159003905Y-99770905D01*
X159003905Y-99580429D01*
X158956286Y-99485190D01*
X158908667Y-99437571D01*
X158813429Y-99389952D01*
X136077619Y-101822095D02*
X136030000Y-101774476D01*
X135982381Y-101679238D01*
X135982381Y-101441142D01*
X136030000Y-101345904D01*
X136077619Y-101298285D01*
X136172857Y-101250666D01*
X136268095Y-101250666D01*
X136410952Y-101298285D01*
X136982381Y-101869714D01*
X136982381Y-101250666D01*
X135982381Y-100917333D02*
X135982381Y-100250666D01*
X136982381Y-100679238D01*
X136315714Y-99441142D02*
X136982381Y-99441142D01*
X135934762Y-99679238D02*
X136649048Y-99917333D01*
X136649048Y-99298285D01*
X151447810Y-92567381D02*
X150971619Y-92567381D01*
X150971619Y-91567381D01*
X151638286Y-91567381D02*
X152209715Y-91567381D01*
X151924000Y-92567381D02*
X151924000Y-91567381D01*
X153114477Y-92472143D02*
X153066858Y-92519762D01*
X152924001Y-92567381D01*
X152828763Y-92567381D01*
X152685905Y-92519762D01*
X152590667Y-92424524D01*
X152543048Y-92329286D01*
X152495429Y-92138810D01*
X152495429Y-91995952D01*
X152543048Y-91805476D01*
X152590667Y-91710238D01*
X152685905Y-91615000D01*
X152828763Y-91567381D01*
X152924001Y-91567381D01*
X153066858Y-91615000D01*
X153114477Y-91662619D01*
X154019239Y-91567381D02*
X153543048Y-91567381D01*
X153495429Y-92043571D01*
X153543048Y-91995952D01*
X153638286Y-91948333D01*
X153876382Y-91948333D01*
X153971620Y-91995952D01*
X154019239Y-92043571D01*
X154066858Y-92138810D01*
X154066858Y-92376905D01*
X154019239Y-92472143D01*
X153971620Y-92519762D01*
X153876382Y-92567381D01*
X153638286Y-92567381D01*
X153543048Y-92519762D01*
X153495429Y-92472143D01*
X154971620Y-91567381D02*
X154495429Y-91567381D01*
X154447810Y-92043571D01*
X154495429Y-91995952D01*
X154590667Y-91948333D01*
X154828763Y-91948333D01*
X154924001Y-91995952D01*
X154971620Y-92043571D01*
X155019239Y-92138810D01*
X155019239Y-92376905D01*
X154971620Y-92472143D01*
X154924001Y-92519762D01*
X154828763Y-92567381D01*
X154590667Y-92567381D01*
X154495429Y-92519762D01*
X154447810Y-92472143D01*
X155638286Y-91567381D02*
X155733525Y-91567381D01*
X155828763Y-91615000D01*
X155876382Y-91662619D01*
X155924001Y-91757857D01*
X155971620Y-91948333D01*
X155971620Y-92186429D01*
X155924001Y-92376905D01*
X155876382Y-92472143D01*
X155828763Y-92519762D01*
X155733525Y-92567381D01*
X155638286Y-92567381D01*
X155543048Y-92519762D01*
X155495429Y-92472143D01*
X155447810Y-92376905D01*
X155400191Y-92186429D01*
X155400191Y-91948333D01*
X155447810Y-91757857D01*
X155495429Y-91662619D01*
X155543048Y-91615000D01*
X155638286Y-91567381D01*
X156304953Y-91567381D02*
X156971620Y-91567381D01*
X156543048Y-92567381D01*
D13*
X153543048Y-94341190D02*
X153543048Y-94745952D01*
X153566857Y-94793571D01*
X153590667Y-94817381D01*
X153638286Y-94841190D01*
X153733524Y-94841190D01*
X153781143Y-94817381D01*
X153804952Y-94793571D01*
X153828762Y-94745952D01*
X153828762Y-94341190D01*
X154281143Y-94341190D02*
X154185905Y-94341190D01*
X154138286Y-94365000D01*
X154114477Y-94388810D01*
X154066858Y-94460238D01*
X154043048Y-94555476D01*
X154043048Y-94745952D01*
X154066858Y-94793571D01*
X154090667Y-94817381D01*
X154138286Y-94841190D01*
X154233524Y-94841190D01*
X154281143Y-94817381D01*
X154304953Y-94793571D01*
X154328762Y-94745952D01*
X154328762Y-94626905D01*
X154304953Y-94579286D01*
X154281143Y-94555476D01*
X154233524Y-94531667D01*
X154138286Y-94531667D01*
X154090667Y-94555476D01*
X154066858Y-94579286D01*
X154043048Y-94626905D01*
D12*
X154692858Y-105838571D02*
X154635715Y-105895714D01*
X154464286Y-105952857D01*
X154350000Y-105952857D01*
X154178572Y-105895714D01*
X154064286Y-105781429D01*
X154007143Y-105667143D01*
X153950000Y-105438571D01*
X153950000Y-105267143D01*
X154007143Y-105038571D01*
X154064286Y-104924286D01*
X154178572Y-104810000D01*
X154350000Y-104752857D01*
X154464286Y-104752857D01*
X154635715Y-104810000D01*
X154692858Y-104867143D01*
X155092858Y-104752857D02*
X155892858Y-105952857D01*
X155892858Y-104752857D02*
X155092858Y-105952857D01*
X156292857Y-104867143D02*
X156350000Y-104810000D01*
X156464286Y-104752857D01*
X156750000Y-104752857D01*
X156864286Y-104810000D01*
X156921429Y-104867143D01*
X156978572Y-104981429D01*
X156978572Y-105095714D01*
X156921429Y-105267143D01*
X156235715Y-105952857D01*
X156978572Y-105952857D01*
X157721429Y-104752857D02*
X157835714Y-104752857D01*
X157950000Y-104810000D01*
X158007143Y-104867143D01*
X158064286Y-104981429D01*
X158121429Y-105210000D01*
X158121429Y-105495714D01*
X158064286Y-105724286D01*
X158007143Y-105838571D01*
X157950000Y-105895714D01*
X157835714Y-105952857D01*
X157721429Y-105952857D01*
X157607143Y-105895714D01*
X157550000Y-105838571D01*
X157492857Y-105724286D01*
X157435714Y-105495714D01*
X157435714Y-105210000D01*
X157492857Y-104981429D01*
X157550000Y-104867143D01*
X157607143Y-104810000D01*
X157721429Y-104752857D01*
X159150000Y-105152857D02*
X159150000Y-105952857D01*
X158864286Y-104695714D02*
X158578571Y-105552857D01*
X159321429Y-105552857D01*
X160407143Y-105952857D02*
X159721428Y-105952857D01*
X160064286Y-105952857D02*
X160064286Y-104752857D01*
X159950000Y-104924286D01*
X159835714Y-105038571D01*
X159721428Y-105095714D01*
X160921428Y-105952857D02*
X160921428Y-104752857D01*
X161607143Y-105952857D01*
X161607143Y-104752857D01*
X162750000Y-105952857D02*
X162178571Y-105952857D01*
X162178571Y-104752857D01*
X162978572Y-104752857D02*
X163664286Y-104752857D01*
X163321429Y-105952857D02*
X163321429Y-104752857D01*
X140528381Y-94019666D02*
X140528381Y-94591095D01*
X140528381Y-94305381D02*
X139528381Y-94305381D01*
X139671238Y-94400619D01*
X139766476Y-94495857D01*
X139814095Y-94591095D01*
X139861714Y-93162523D02*
X140528381Y-93162523D01*
X139861714Y-93591095D02*
X140385524Y-93591095D01*
X140480762Y-93543476D01*
X140528381Y-93448238D01*
X140528381Y-93305380D01*
X140480762Y-93210142D01*
X140433143Y-93162523D01*
D13*
X138356952Y-93919667D02*
X138356952Y-94110143D01*
X137956952Y-94110143D01*
X138356952Y-93576809D02*
X138356952Y-93805381D01*
X138356952Y-93691095D02*
X137956952Y-93691095D01*
X138014095Y-93729190D01*
X138052190Y-93767285D01*
X138071238Y-93805381D01*
D12*
X131315794Y-94126062D02*
X131458651Y-94173681D01*
X131696747Y-94173681D01*
X131791985Y-94126062D01*
X131839604Y-94078443D01*
X131887223Y-93983205D01*
X131887223Y-93887967D01*
X131839604Y-93792729D01*
X131791985Y-93745110D01*
X131696747Y-93697490D01*
X131506270Y-93649871D01*
X131411032Y-93602252D01*
X131363413Y-93554633D01*
X131315794Y-93459395D01*
X131315794Y-93364157D01*
X131363413Y-93268919D01*
X131411032Y-93221300D01*
X131506270Y-93173681D01*
X131744366Y-93173681D01*
X131887223Y-93221300D01*
X132744366Y-94126062D02*
X132649128Y-94173681D01*
X132458651Y-94173681D01*
X132363413Y-94126062D01*
X132315794Y-94078443D01*
X132268175Y-93983205D01*
X132268175Y-93697490D01*
X132315794Y-93602252D01*
X132363413Y-93554633D01*
X132458651Y-93507014D01*
X132649128Y-93507014D01*
X132744366Y-93554633D01*
X133172937Y-94173681D02*
X133172937Y-93507014D01*
X133172937Y-93697490D02*
X133220556Y-93602252D01*
X133268175Y-93554633D01*
X133363413Y-93507014D01*
X133458652Y-93507014D01*
X134172938Y-94126062D02*
X134077700Y-94173681D01*
X133887223Y-94173681D01*
X133791985Y-94126062D01*
X133744366Y-94030824D01*
X133744366Y-93649871D01*
X133791985Y-93554633D01*
X133887223Y-93507014D01*
X134077700Y-93507014D01*
X134172938Y-93554633D01*
X134220557Y-93649871D01*
X134220557Y-93745110D01*
X133744366Y-93840348D01*
X134553890Y-93507014D02*
X134744366Y-94173681D01*
X134934843Y-93697490D01*
X135125319Y-94173681D01*
X135315795Y-93507014D01*
X135458652Y-94268919D02*
X136220557Y-94268919D01*
X136315795Y-93173681D02*
X136887224Y-93173681D01*
X136601509Y-94173681D02*
X136601509Y-93173681D01*
X137601510Y-94126062D02*
X137506272Y-94173681D01*
X137315795Y-94173681D01*
X137220557Y-94126062D01*
X137172938Y-94030824D01*
X137172938Y-93649871D01*
X137220557Y-93554633D01*
X137315795Y-93507014D01*
X137506272Y-93507014D01*
X137601510Y-93554633D01*
X137649129Y-93649871D01*
X137649129Y-93745110D01*
X137172938Y-93840348D01*
X138077700Y-94173681D02*
X138077700Y-93507014D01*
X138077700Y-93697490D02*
X138125319Y-93602252D01*
X138172938Y-93554633D01*
X138268176Y-93507014D01*
X138363415Y-93507014D01*
X138696748Y-94173681D02*
X138696748Y-93507014D01*
X138696748Y-93602252D02*
X138744367Y-93554633D01*
X138839605Y-93507014D01*
X138982463Y-93507014D01*
X139077701Y-93554633D01*
X139125320Y-93649871D01*
X139125320Y-94173681D01*
X139125320Y-93649871D02*
X139172939Y-93554633D01*
X139268177Y-93507014D01*
X139411034Y-93507014D01*
X139506272Y-93554633D01*
X139553891Y-93649871D01*
X139553891Y-94173681D01*
X140030081Y-94173681D02*
X140030081Y-93507014D01*
X140030081Y-93173681D02*
X139982462Y-93221300D01*
X140030081Y-93268919D01*
X140077700Y-93221300D01*
X140030081Y-93173681D01*
X140030081Y-93268919D01*
X140506271Y-93507014D02*
X140506271Y-94173681D01*
X140506271Y-93602252D02*
X140553890Y-93554633D01*
X140649128Y-93507014D01*
X140791986Y-93507014D01*
X140887224Y-93554633D01*
X140934843Y-93649871D01*
X140934843Y-94173681D01*
X141839605Y-94173681D02*
X141839605Y-93649871D01*
X141791986Y-93554633D01*
X141696748Y-93507014D01*
X141506271Y-93507014D01*
X141411033Y-93554633D01*
X141839605Y-94126062D02*
X141744367Y-94173681D01*
X141506271Y-94173681D01*
X141411033Y-94126062D01*
X141363414Y-94030824D01*
X141363414Y-93935586D01*
X141411033Y-93840348D01*
X141506271Y-93792729D01*
X141744367Y-93792729D01*
X141839605Y-93745110D01*
X142458652Y-94173681D02*
X142363414Y-94126062D01*
X142315795Y-94030824D01*
X142315795Y-93173681D01*
X142601510Y-94268919D02*
X143363415Y-94268919D01*
X144125320Y-94173681D02*
X143553891Y-94173681D01*
X143839605Y-94173681D02*
X143839605Y-93173681D01*
X143744367Y-93316538D01*
X143649129Y-93411776D01*
X143553891Y-93459395D01*
X144458653Y-94173681D02*
X144982463Y-93507014D01*
X144458653Y-93507014D02*
X144982463Y-94173681D01*
X145553891Y-93173681D02*
X145649130Y-93173681D01*
X145744368Y-93221300D01*
X145791987Y-93268919D01*
X145839606Y-93364157D01*
X145887225Y-93554633D01*
X145887225Y-93792729D01*
X145839606Y-93983205D01*
X145791987Y-94078443D01*
X145744368Y-94126062D01*
X145649130Y-94173681D01*
X145553891Y-94173681D01*
X145458653Y-94126062D01*
X145411034Y-94078443D01*
X145363415Y-93983205D01*
X145315796Y-93792729D01*
X145315796Y-93554633D01*
X145363415Y-93364157D01*
X145411034Y-93268919D01*
X145458653Y-93221300D01*
X145553891Y-93173681D01*
X146839606Y-94173681D02*
X146268177Y-94173681D01*
X146553891Y-94173681D02*
X146553891Y-93173681D01*
X146458653Y-93316538D01*
X146363415Y-93411776D01*
X146268177Y-93459395D01*
X123124294Y-114954062D02*
X123267151Y-115001681D01*
X123505247Y-115001681D01*
X123600485Y-114954062D01*
X123648104Y-114906443D01*
X123695723Y-114811205D01*
X123695723Y-114715967D01*
X123648104Y-114620729D01*
X123600485Y-114573110D01*
X123505247Y-114525490D01*
X123314770Y-114477871D01*
X123219532Y-114430252D01*
X123171913Y-114382633D01*
X123124294Y-114287395D01*
X123124294Y-114192157D01*
X123171913Y-114096919D01*
X123219532Y-114049300D01*
X123314770Y-114001681D01*
X123552866Y-114001681D01*
X123695723Y-114049300D01*
X124552866Y-114954062D02*
X124457628Y-115001681D01*
X124267151Y-115001681D01*
X124171913Y-114954062D01*
X124124294Y-114906443D01*
X124076675Y-114811205D01*
X124076675Y-114525490D01*
X124124294Y-114430252D01*
X124171913Y-114382633D01*
X124267151Y-114335014D01*
X124457628Y-114335014D01*
X124552866Y-114382633D01*
X124981437Y-115001681D02*
X124981437Y-114335014D01*
X124981437Y-114525490D02*
X125029056Y-114430252D01*
X125076675Y-114382633D01*
X125171913Y-114335014D01*
X125267152Y-114335014D01*
X125981438Y-114954062D02*
X125886200Y-115001681D01*
X125695723Y-115001681D01*
X125600485Y-114954062D01*
X125552866Y-114858824D01*
X125552866Y-114477871D01*
X125600485Y-114382633D01*
X125695723Y-114335014D01*
X125886200Y-114335014D01*
X125981438Y-114382633D01*
X126029057Y-114477871D01*
X126029057Y-114573110D01*
X125552866Y-114668348D01*
X126362390Y-114335014D02*
X126552866Y-115001681D01*
X126743343Y-114525490D01*
X126933819Y-115001681D01*
X127124295Y-114335014D01*
X127267152Y-115096919D02*
X128029057Y-115096919D01*
X128124295Y-114001681D02*
X128695724Y-114001681D01*
X128410009Y-115001681D02*
X128410009Y-114001681D01*
X129410010Y-114954062D02*
X129314772Y-115001681D01*
X129124295Y-115001681D01*
X129029057Y-114954062D01*
X128981438Y-114858824D01*
X128981438Y-114477871D01*
X129029057Y-114382633D01*
X129124295Y-114335014D01*
X129314772Y-114335014D01*
X129410010Y-114382633D01*
X129457629Y-114477871D01*
X129457629Y-114573110D01*
X128981438Y-114668348D01*
X129886200Y-115001681D02*
X129886200Y-114335014D01*
X129886200Y-114525490D02*
X129933819Y-114430252D01*
X129981438Y-114382633D01*
X130076676Y-114335014D01*
X130171915Y-114335014D01*
X130505248Y-115001681D02*
X130505248Y-114335014D01*
X130505248Y-114430252D02*
X130552867Y-114382633D01*
X130648105Y-114335014D01*
X130790963Y-114335014D01*
X130886201Y-114382633D01*
X130933820Y-114477871D01*
X130933820Y-115001681D01*
X130933820Y-114477871D02*
X130981439Y-114382633D01*
X131076677Y-114335014D01*
X131219534Y-114335014D01*
X131314772Y-114382633D01*
X131362391Y-114477871D01*
X131362391Y-115001681D01*
X131838581Y-115001681D02*
X131838581Y-114335014D01*
X131838581Y-114001681D02*
X131790962Y-114049300D01*
X131838581Y-114096919D01*
X131886200Y-114049300D01*
X131838581Y-114001681D01*
X131838581Y-114096919D01*
X132314771Y-114335014D02*
X132314771Y-115001681D01*
X132314771Y-114430252D02*
X132362390Y-114382633D01*
X132457628Y-114335014D01*
X132600486Y-114335014D01*
X132695724Y-114382633D01*
X132743343Y-114477871D01*
X132743343Y-115001681D01*
X133648105Y-115001681D02*
X133648105Y-114477871D01*
X133600486Y-114382633D01*
X133505248Y-114335014D01*
X133314771Y-114335014D01*
X133219533Y-114382633D01*
X133648105Y-114954062D02*
X133552867Y-115001681D01*
X133314771Y-115001681D01*
X133219533Y-114954062D01*
X133171914Y-114858824D01*
X133171914Y-114763586D01*
X133219533Y-114668348D01*
X133314771Y-114620729D01*
X133552867Y-114620729D01*
X133648105Y-114573110D01*
X134267152Y-115001681D02*
X134171914Y-114954062D01*
X134124295Y-114858824D01*
X134124295Y-114001681D01*
X134410010Y-115096919D02*
X135171915Y-115096919D01*
X135933820Y-115001681D02*
X135362391Y-115001681D01*
X135648105Y-115001681D02*
X135648105Y-114001681D01*
X135552867Y-114144538D01*
X135457629Y-114239776D01*
X135362391Y-114287395D01*
X136267153Y-115001681D02*
X136790963Y-114335014D01*
X136267153Y-114335014D02*
X136790963Y-115001681D01*
X137362391Y-114001681D02*
X137457630Y-114001681D01*
X137552868Y-114049300D01*
X137600487Y-114096919D01*
X137648106Y-114192157D01*
X137695725Y-114382633D01*
X137695725Y-114620729D01*
X137648106Y-114811205D01*
X137600487Y-114906443D01*
X137552868Y-114954062D01*
X137457630Y-115001681D01*
X137362391Y-115001681D01*
X137267153Y-114954062D01*
X137219534Y-114906443D01*
X137171915Y-114811205D01*
X137124296Y-114620729D01*
X137124296Y-114382633D01*
X137171915Y-114192157D01*
X137219534Y-114096919D01*
X137267153Y-114049300D01*
X137362391Y-114001681D01*
X138648106Y-115001681D02*
X138076677Y-115001681D01*
X138362391Y-115001681D02*
X138362391Y-114001681D01*
X138267153Y-114144538D01*
X138171915Y-114239776D01*
X138076677Y-114287395D01*
X151826294Y-94062562D02*
X151969151Y-94110181D01*
X152207247Y-94110181D01*
X152302485Y-94062562D01*
X152350104Y-94014943D01*
X152397723Y-93919705D01*
X152397723Y-93824467D01*
X152350104Y-93729229D01*
X152302485Y-93681610D01*
X152207247Y-93633990D01*
X152016770Y-93586371D01*
X151921532Y-93538752D01*
X151873913Y-93491133D01*
X151826294Y-93395895D01*
X151826294Y-93300657D01*
X151873913Y-93205419D01*
X151921532Y-93157800D01*
X152016770Y-93110181D01*
X152254866Y-93110181D01*
X152397723Y-93157800D01*
X153254866Y-94062562D02*
X153159628Y-94110181D01*
X152969151Y-94110181D01*
X152873913Y-94062562D01*
X152826294Y-94014943D01*
X152778675Y-93919705D01*
X152778675Y-93633990D01*
X152826294Y-93538752D01*
X152873913Y-93491133D01*
X152969151Y-93443514D01*
X153159628Y-93443514D01*
X153254866Y-93491133D01*
X153683437Y-94110181D02*
X153683437Y-93443514D01*
X153683437Y-93633990D02*
X153731056Y-93538752D01*
X153778675Y-93491133D01*
X153873913Y-93443514D01*
X153969152Y-93443514D01*
X154683438Y-94062562D02*
X154588200Y-94110181D01*
X154397723Y-94110181D01*
X154302485Y-94062562D01*
X154254866Y-93967324D01*
X154254866Y-93586371D01*
X154302485Y-93491133D01*
X154397723Y-93443514D01*
X154588200Y-93443514D01*
X154683438Y-93491133D01*
X154731057Y-93586371D01*
X154731057Y-93681610D01*
X154254866Y-93776848D01*
X155064390Y-93443514D02*
X155254866Y-94110181D01*
X155445343Y-93633990D01*
X155635819Y-94110181D01*
X155826295Y-93443514D01*
X155969152Y-94205419D02*
X156731057Y-94205419D01*
X156826295Y-93110181D02*
X157397724Y-93110181D01*
X157112009Y-94110181D02*
X157112009Y-93110181D01*
X158112010Y-94062562D02*
X158016772Y-94110181D01*
X157826295Y-94110181D01*
X157731057Y-94062562D01*
X157683438Y-93967324D01*
X157683438Y-93586371D01*
X157731057Y-93491133D01*
X157826295Y-93443514D01*
X158016772Y-93443514D01*
X158112010Y-93491133D01*
X158159629Y-93586371D01*
X158159629Y-93681610D01*
X157683438Y-93776848D01*
X158588200Y-94110181D02*
X158588200Y-93443514D01*
X158588200Y-93633990D02*
X158635819Y-93538752D01*
X158683438Y-93491133D01*
X158778676Y-93443514D01*
X158873915Y-93443514D01*
X159207248Y-94110181D02*
X159207248Y-93443514D01*
X159207248Y-93538752D02*
X159254867Y-93491133D01*
X159350105Y-93443514D01*
X159492963Y-93443514D01*
X159588201Y-93491133D01*
X159635820Y-93586371D01*
X159635820Y-94110181D01*
X159635820Y-93586371D02*
X159683439Y-93491133D01*
X159778677Y-93443514D01*
X159921534Y-93443514D01*
X160016772Y-93491133D01*
X160064391Y-93586371D01*
X160064391Y-94110181D01*
X160540581Y-94110181D02*
X160540581Y-93443514D01*
X160540581Y-93110181D02*
X160492962Y-93157800D01*
X160540581Y-93205419D01*
X160588200Y-93157800D01*
X160540581Y-93110181D01*
X160540581Y-93205419D01*
X161016771Y-93443514D02*
X161016771Y-94110181D01*
X161016771Y-93538752D02*
X161064390Y-93491133D01*
X161159628Y-93443514D01*
X161302486Y-93443514D01*
X161397724Y-93491133D01*
X161445343Y-93586371D01*
X161445343Y-94110181D01*
X162350105Y-94110181D02*
X162350105Y-93586371D01*
X162302486Y-93491133D01*
X162207248Y-93443514D01*
X162016771Y-93443514D01*
X161921533Y-93491133D01*
X162350105Y-94062562D02*
X162254867Y-94110181D01*
X162016771Y-94110181D01*
X161921533Y-94062562D01*
X161873914Y-93967324D01*
X161873914Y-93872086D01*
X161921533Y-93776848D01*
X162016771Y-93729229D01*
X162254867Y-93729229D01*
X162350105Y-93681610D01*
X162969152Y-94110181D02*
X162873914Y-94062562D01*
X162826295Y-93967324D01*
X162826295Y-93110181D01*
X163112010Y-94205419D02*
X163873915Y-94205419D01*
X164635820Y-94110181D02*
X164064391Y-94110181D01*
X164350105Y-94110181D02*
X164350105Y-93110181D01*
X164254867Y-93253038D01*
X164159629Y-93348276D01*
X164064391Y-93395895D01*
X164969153Y-94110181D02*
X165492963Y-93443514D01*
X164969153Y-93443514D02*
X165492963Y-94110181D01*
X166064391Y-93110181D02*
X166159630Y-93110181D01*
X166254868Y-93157800D01*
X166302487Y-93205419D01*
X166350106Y-93300657D01*
X166397725Y-93491133D01*
X166397725Y-93729229D01*
X166350106Y-93919705D01*
X166302487Y-94014943D01*
X166254868Y-94062562D01*
X166159630Y-94110181D01*
X166064391Y-94110181D01*
X165969153Y-94062562D01*
X165921534Y-94014943D01*
X165873915Y-93919705D01*
X165826296Y-93729229D01*
X165826296Y-93491133D01*
X165873915Y-93300657D01*
X165921534Y-93205419D01*
X165969153Y-93157800D01*
X166064391Y-93110181D01*
X167350106Y-94110181D02*
X166778677Y-94110181D01*
X167064391Y-94110181D02*
X167064391Y-93110181D01*
X166969153Y-93253038D01*
X166873915Y-93348276D01*
X166778677Y-93395895D01*
X133596238Y-106362643D02*
X133643857Y-106410262D01*
X133596238Y-106457881D01*
X133548619Y-106410262D01*
X133596238Y-106362643D01*
X133596238Y-106457881D01*
X134262904Y-105457881D02*
X134358143Y-105457881D01*
X134453381Y-105505500D01*
X134501000Y-105553119D01*
X134548619Y-105648357D01*
X134596238Y-105838833D01*
X134596238Y-106076929D01*
X134548619Y-106267405D01*
X134501000Y-106362643D01*
X134453381Y-106410262D01*
X134358143Y-106457881D01*
X134262904Y-106457881D01*
X134167666Y-106410262D01*
X134120047Y-106362643D01*
X134072428Y-106267405D01*
X134024809Y-106076929D01*
X134024809Y-105838833D01*
X134072428Y-105648357D01*
X134120047Y-105553119D01*
X134167666Y-105505500D01*
X134262904Y-105457881D01*
X135548619Y-106457881D02*
X134977190Y-106457881D01*
X135262904Y-106457881D02*
X135262904Y-105457881D01*
X135167666Y-105600738D01*
X135072428Y-105695976D01*
X134977190Y-105743595D01*
X136405762Y-105791214D02*
X136405762Y-106457881D01*
X135977190Y-105791214D02*
X135977190Y-106315024D01*
X136024809Y-106410262D01*
X136120047Y-106457881D01*
X136262905Y-106457881D01*
X136358143Y-106410262D01*
X136405762Y-106362643D01*
D13*
X134808143Y-107612643D02*
X134793857Y-107626929D01*
X134751000Y-107641214D01*
X134722429Y-107641214D01*
X134679572Y-107626929D01*
X134651000Y-107598357D01*
X134636715Y-107569786D01*
X134622429Y-107512643D01*
X134622429Y-107469786D01*
X134636715Y-107412643D01*
X134651000Y-107384071D01*
X134679572Y-107355500D01*
X134722429Y-107341214D01*
X134751000Y-107341214D01*
X134793857Y-107355500D01*
X134808143Y-107369786D01*
X134922429Y-107369786D02*
X134936715Y-107355500D01*
X134965286Y-107341214D01*
X135036715Y-107341214D01*
X135065286Y-107355500D01*
X135079572Y-107369786D01*
X135093857Y-107398357D01*
X135093857Y-107426929D01*
X135079572Y-107469786D01*
X134908143Y-107641214D01*
X135093857Y-107641214D01*
X135351000Y-107341214D02*
X135293857Y-107341214D01*
X135265286Y-107355500D01*
X135251000Y-107369786D01*
X135222429Y-107412643D01*
X135208143Y-107469786D01*
X135208143Y-107584071D01*
X135222429Y-107612643D01*
X135236714Y-107626929D01*
X135265286Y-107641214D01*
X135322429Y-107641214D01*
X135351000Y-107626929D01*
X135365286Y-107612643D01*
X135379571Y-107584071D01*
X135379571Y-107512643D01*
X135365286Y-107484071D01*
X135351000Y-107469786D01*
X135322429Y-107455500D01*
X135265286Y-107455500D01*
X135236714Y-107469786D01*
X135222429Y-107484071D01*
X135208143Y-107512643D01*
D12*
X136025453Y-106493071D02*
X136168310Y-106540690D01*
X136215929Y-106588310D01*
X136263548Y-106683548D01*
X136263548Y-106826405D01*
X136215929Y-106921643D01*
X136168310Y-106969262D01*
X136073072Y-107016881D01*
X135692119Y-107016881D01*
X135692119Y-106016881D01*
X136025453Y-106016881D01*
X136120691Y-106064500D01*
X136168310Y-106112119D01*
X136215929Y-106207357D01*
X136215929Y-106302595D01*
X136168310Y-106397833D01*
X136120691Y-106445452D01*
X136025453Y-106493071D01*
X135692119Y-106493071D01*
X136596881Y-106016881D02*
X137263548Y-106016881D01*
X136596881Y-107016881D01*
X137263548Y-107016881D01*
X137549262Y-106016881D02*
X138215929Y-107016881D01*
X138215929Y-106016881D02*
X137549262Y-107016881D01*
X138739738Y-106445452D02*
X138644500Y-106397833D01*
X138596881Y-106350214D01*
X138549262Y-106254976D01*
X138549262Y-106207357D01*
X138596881Y-106112119D01*
X138644500Y-106064500D01*
X138739738Y-106016881D01*
X138930215Y-106016881D01*
X139025453Y-106064500D01*
X139073072Y-106112119D01*
X139120691Y-106207357D01*
X139120691Y-106254976D01*
X139073072Y-106350214D01*
X139025453Y-106397833D01*
X138930215Y-106445452D01*
X138739738Y-106445452D01*
X138644500Y-106493071D01*
X138596881Y-106540690D01*
X138549262Y-106635929D01*
X138549262Y-106826405D01*
X138596881Y-106921643D01*
X138644500Y-106969262D01*
X138739738Y-107016881D01*
X138930215Y-107016881D01*
X139025453Y-106969262D01*
X139073072Y-106921643D01*
X139120691Y-106826405D01*
X139120691Y-106635929D01*
X139073072Y-106540690D01*
X139025453Y-106493071D01*
X138930215Y-106445452D01*
X139977834Y-106350214D02*
X139977834Y-107016881D01*
X139739738Y-105969262D02*
X139501643Y-106683548D01*
X140120691Y-106683548D01*
X141073072Y-106921643D02*
X141025453Y-106969262D01*
X140882596Y-107016881D01*
X140787358Y-107016881D01*
X140644500Y-106969262D01*
X140549262Y-106874024D01*
X140501643Y-106778786D01*
X140454024Y-106588310D01*
X140454024Y-106445452D01*
X140501643Y-106254976D01*
X140549262Y-106159738D01*
X140644500Y-106064500D01*
X140787358Y-106016881D01*
X140882596Y-106016881D01*
X141025453Y-106064500D01*
X141073072Y-106112119D01*
X141930215Y-106016881D02*
X141739738Y-106016881D01*
X141644500Y-106064500D01*
X141596881Y-106112119D01*
X141501643Y-106254976D01*
X141454024Y-106445452D01*
X141454024Y-106826405D01*
X141501643Y-106921643D01*
X141549262Y-106969262D01*
X141644500Y-107016881D01*
X141834977Y-107016881D01*
X141930215Y-106969262D01*
X141977834Y-106921643D01*
X142025453Y-106826405D01*
X142025453Y-106588310D01*
X141977834Y-106493071D01*
X141930215Y-106445452D01*
X141834977Y-106397833D01*
X141644500Y-106397833D01*
X141549262Y-106445452D01*
X141501643Y-106493071D01*
X141454024Y-106588310D01*
X142311167Y-106016881D02*
X142644500Y-107016881D01*
X142977834Y-106016881D01*
X143263548Y-106112119D02*
X143311167Y-106064500D01*
X143406405Y-106016881D01*
X143644501Y-106016881D01*
X143739739Y-106064500D01*
X143787358Y-106112119D01*
X143834977Y-106207357D01*
X143834977Y-106302595D01*
X143787358Y-106445452D01*
X143215929Y-107016881D01*
X143834977Y-107016881D01*
X144739739Y-107016881D02*
X144263548Y-107016881D01*
X144263548Y-106016881D01*
X139406405Y-113116881D02*
X139406405Y-112116881D01*
X139644500Y-112116881D01*
X139787358Y-112164500D01*
X139882596Y-112259738D01*
X139930215Y-112354976D01*
X139977834Y-112545452D01*
X139977834Y-112688310D01*
X139930215Y-112878786D01*
X139882596Y-112974024D01*
X139787358Y-113069262D01*
X139644500Y-113116881D01*
X139406405Y-113116881D01*
X140311167Y-112116881D02*
X140930215Y-112116881D01*
X140596881Y-112497833D01*
X140739739Y-112497833D01*
X140834977Y-112545452D01*
X140882596Y-112593071D01*
X140930215Y-112688310D01*
X140930215Y-112926405D01*
X140882596Y-113021643D01*
X140834977Y-113069262D01*
X140739739Y-113116881D01*
X140454024Y-113116881D01*
X140358786Y-113069262D01*
X140311167Y-113021643D01*
X138347071Y-105020547D02*
X138394690Y-104877690D01*
X138442310Y-104830071D01*
X138537548Y-104782452D01*
X138680405Y-104782452D01*
X138775643Y-104830071D01*
X138823262Y-104877690D01*
X138870881Y-104972928D01*
X138870881Y-105353881D01*
X137870881Y-105353881D01*
X137870881Y-105020547D01*
X137918500Y-104925309D01*
X137966119Y-104877690D01*
X138061357Y-104830071D01*
X138156595Y-104830071D01*
X138251833Y-104877690D01*
X138299452Y-104925309D01*
X138347071Y-105020547D01*
X138347071Y-105353881D01*
X137870881Y-104449119D02*
X137870881Y-103782452D01*
X138870881Y-104449119D01*
X138870881Y-103782452D01*
X137870881Y-103496738D02*
X138870881Y-102830071D01*
X137870881Y-102830071D02*
X138870881Y-103496738D01*
X138299452Y-102306262D02*
X138251833Y-102401500D01*
X138204214Y-102449119D01*
X138108976Y-102496738D01*
X138061357Y-102496738D01*
X137966119Y-102449119D01*
X137918500Y-102401500D01*
X137870881Y-102306262D01*
X137870881Y-102115785D01*
X137918500Y-102020547D01*
X137966119Y-101972928D01*
X138061357Y-101925309D01*
X138108976Y-101925309D01*
X138204214Y-101972928D01*
X138251833Y-102020547D01*
X138299452Y-102115785D01*
X138299452Y-102306262D01*
X138347071Y-102401500D01*
X138394690Y-102449119D01*
X138489929Y-102496738D01*
X138680405Y-102496738D01*
X138775643Y-102449119D01*
X138823262Y-102401500D01*
X138870881Y-102306262D01*
X138870881Y-102115785D01*
X138823262Y-102020547D01*
X138775643Y-101972928D01*
X138680405Y-101925309D01*
X138489929Y-101925309D01*
X138394690Y-101972928D01*
X138347071Y-102020547D01*
X138299452Y-102115785D01*
X138204214Y-101068166D02*
X138870881Y-101068166D01*
X137823262Y-101306262D02*
X138537548Y-101544357D01*
X138537548Y-100925309D01*
X138775643Y-99972928D02*
X138823262Y-100020547D01*
X138870881Y-100163404D01*
X138870881Y-100258642D01*
X138823262Y-100401500D01*
X138728024Y-100496738D01*
X138632786Y-100544357D01*
X138442310Y-100591976D01*
X138299452Y-100591976D01*
X138108976Y-100544357D01*
X138013738Y-100496738D01*
X137918500Y-100401500D01*
X137870881Y-100258642D01*
X137870881Y-100163404D01*
X137918500Y-100020547D01*
X137966119Y-99972928D01*
X137870881Y-99115785D02*
X137870881Y-99306262D01*
X137918500Y-99401500D01*
X137966119Y-99449119D01*
X138108976Y-99544357D01*
X138299452Y-99591976D01*
X138680405Y-99591976D01*
X138775643Y-99544357D01*
X138823262Y-99496738D01*
X138870881Y-99401500D01*
X138870881Y-99211023D01*
X138823262Y-99115785D01*
X138775643Y-99068166D01*
X138680405Y-99020547D01*
X138442310Y-99020547D01*
X138347071Y-99068166D01*
X138299452Y-99115785D01*
X138251833Y-99211023D01*
X138251833Y-99401500D01*
X138299452Y-99496738D01*
X138347071Y-99544357D01*
X138442310Y-99591976D01*
X137870881Y-98734833D02*
X138870881Y-98401500D01*
X137870881Y-98068166D01*
X137966119Y-97782452D02*
X137918500Y-97734833D01*
X137870881Y-97639595D01*
X137870881Y-97401499D01*
X137918500Y-97306261D01*
X137966119Y-97258642D01*
X138061357Y-97211023D01*
X138156595Y-97211023D01*
X138299452Y-97258642D01*
X138870881Y-97830071D01*
X138870881Y-97211023D01*
X138870881Y-96306261D02*
X138870881Y-96782452D01*
X137870881Y-96782452D01*
X137231381Y-101068095D02*
X136231381Y-101068095D01*
X136231381Y-100830000D01*
X136279000Y-100687142D01*
X136374238Y-100591904D01*
X136469476Y-100544285D01*
X136659952Y-100496666D01*
X136802810Y-100496666D01*
X136993286Y-100544285D01*
X137088524Y-100591904D01*
X137183762Y-100687142D01*
X137231381Y-100830000D01*
X137231381Y-101068095D01*
X136564714Y-99639523D02*
X137231381Y-99639523D01*
X136183762Y-99877619D02*
X136898048Y-100115714D01*
X136898048Y-99496666D01*
X133476619Y-109743381D02*
X133429000Y-109838619D01*
X133333762Y-109933857D01*
X133190905Y-110076714D01*
X133143286Y-110171953D01*
X133143286Y-110267191D01*
X133381381Y-110219572D02*
X133333762Y-110314810D01*
X133238524Y-110410048D01*
X133048048Y-110457667D01*
X132714714Y-110457667D01*
X132524238Y-110410048D01*
X132429000Y-110314810D01*
X132381381Y-110219572D01*
X132381381Y-110029095D01*
X132429000Y-109933857D01*
X132524238Y-109838619D01*
X132714714Y-109791000D01*
X133048048Y-109791000D01*
X133238524Y-109838619D01*
X133333762Y-109933857D01*
X133381381Y-110029095D01*
X133381381Y-110219572D01*
X133476619Y-109600524D02*
X133476619Y-108838619D01*
X133381381Y-108600524D02*
X132381381Y-108600524D01*
X133381381Y-108029095D01*
X132381381Y-108029095D01*
X133381381Y-107552905D02*
X132381381Y-107552905D01*
X133095667Y-107219571D01*
X132381381Y-106886238D01*
X133381381Y-106886238D01*
X132381381Y-106219572D02*
X132381381Y-106029095D01*
X132429000Y-105933857D01*
X132524238Y-105838619D01*
X132714714Y-105791000D01*
X133048048Y-105791000D01*
X133238524Y-105838619D01*
X133333762Y-105933857D01*
X133381381Y-106029095D01*
X133381381Y-106219572D01*
X133333762Y-106314810D01*
X133238524Y-106410048D01*
X133048048Y-106457667D01*
X132714714Y-106457667D01*
X132524238Y-106410048D01*
X132429000Y-106314810D01*
X132381381Y-106219572D01*
X133333762Y-105410048D02*
X133381381Y-105267191D01*
X133381381Y-105029095D01*
X133333762Y-104933857D01*
X133286143Y-104886238D01*
X133190905Y-104838619D01*
X133095667Y-104838619D01*
X133000429Y-104886238D01*
X132952810Y-104933857D01*
X132905190Y-105029095D01*
X132857571Y-105219572D01*
X132809952Y-105314810D01*
X132762333Y-105362429D01*
X132667095Y-105410048D01*
X132571857Y-105410048D01*
X132476619Y-105362429D01*
X132429000Y-105314810D01*
X132381381Y-105219572D01*
X132381381Y-104981476D01*
X132429000Y-104838619D01*
X133476619Y-104648143D02*
X133476619Y-103886238D01*
X133333762Y-103695762D02*
X133381381Y-103552905D01*
X133381381Y-103314809D01*
X133333762Y-103219571D01*
X133286143Y-103171952D01*
X133190905Y-103124333D01*
X133095667Y-103124333D01*
X133000429Y-103171952D01*
X132952810Y-103219571D01*
X132905190Y-103314809D01*
X132857571Y-103505286D01*
X132809952Y-103600524D01*
X132762333Y-103648143D01*
X132667095Y-103695762D01*
X132571857Y-103695762D01*
X132476619Y-103648143D01*
X132429000Y-103600524D01*
X132381381Y-103505286D01*
X132381381Y-103267190D01*
X132429000Y-103124333D01*
X133381381Y-102695762D02*
X132381381Y-102695762D01*
X132381381Y-102457667D01*
X132429000Y-102314809D01*
X132524238Y-102219571D01*
X132619476Y-102171952D01*
X132809952Y-102124333D01*
X132952810Y-102124333D01*
X133143286Y-102171952D01*
X133238524Y-102219571D01*
X133333762Y-102314809D01*
X133381381Y-102457667D01*
X133381381Y-102695762D01*
X132429000Y-101171952D02*
X132381381Y-101267190D01*
X132381381Y-101410047D01*
X132429000Y-101552905D01*
X132524238Y-101648143D01*
X132619476Y-101695762D01*
X132809952Y-101743381D01*
X132952810Y-101743381D01*
X133143286Y-101695762D01*
X133238524Y-101648143D01*
X133333762Y-101552905D01*
X133381381Y-101410047D01*
X133381381Y-101314809D01*
X133333762Y-101171952D01*
X133286143Y-101124333D01*
X132952810Y-101124333D01*
X132952810Y-101314809D01*
D13*
X130381381Y-106064810D02*
X130333762Y-106041000D01*
X130286143Y-105993381D01*
X130214714Y-105921952D01*
X130167095Y-105898143D01*
X130119476Y-105898143D01*
X130143286Y-106017190D02*
X130095667Y-105993381D01*
X130048048Y-105945762D01*
X130024238Y-105850524D01*
X130024238Y-105683857D01*
X130048048Y-105588619D01*
X130095667Y-105541000D01*
X130143286Y-105517190D01*
X130238524Y-105517190D01*
X130286143Y-105541000D01*
X130333762Y-105588619D01*
X130357571Y-105683857D01*
X130357571Y-105850524D01*
X130333762Y-105945762D01*
X130286143Y-105993381D01*
X130238524Y-106017190D01*
X130143286Y-106017190D01*
X130548048Y-105564810D02*
X130571858Y-105541000D01*
X130619477Y-105517190D01*
X130738524Y-105517190D01*
X130786143Y-105541000D01*
X130809953Y-105564810D01*
X130833762Y-105612429D01*
X130833762Y-105660048D01*
X130809953Y-105731476D01*
X130524239Y-106017190D01*
X130833762Y-106017190D01*
D12*
X135143714Y-111553499D02*
X135810381Y-111553499D01*
X134762762Y-111791595D02*
X135477048Y-112029690D01*
X135477048Y-111410642D01*
X135715143Y-111029690D02*
X135762762Y-110982071D01*
X135810381Y-111029690D01*
X135762762Y-111077309D01*
X135715143Y-111029690D01*
X135810381Y-111029690D01*
X134810381Y-110363024D02*
X134810381Y-110267785D01*
X134858000Y-110172547D01*
X134905619Y-110124928D01*
X135000857Y-110077309D01*
X135191333Y-110029690D01*
X135429429Y-110029690D01*
X135619905Y-110077309D01*
X135715143Y-110124928D01*
X135762762Y-110172547D01*
X135810381Y-110267785D01*
X135810381Y-110363024D01*
X135762762Y-110458262D01*
X135715143Y-110505881D01*
X135619905Y-110553500D01*
X135429429Y-110601119D01*
X135191333Y-110601119D01*
X135000857Y-110553500D01*
X134905619Y-110505881D01*
X134858000Y-110458262D01*
X134810381Y-110363024D01*
X134905619Y-109648738D02*
X134858000Y-109601119D01*
X134810381Y-109505881D01*
X134810381Y-109267785D01*
X134858000Y-109172547D01*
X134905619Y-109124928D01*
X135000857Y-109077309D01*
X135096095Y-109077309D01*
X135238952Y-109124928D01*
X135810381Y-109696357D01*
X135810381Y-109077309D01*
D13*
X134038952Y-110810642D02*
X133848476Y-110943976D01*
X134038952Y-111039214D02*
X133638952Y-111039214D01*
X133638952Y-110886833D01*
X133658000Y-110848738D01*
X133677048Y-110829690D01*
X133715143Y-110810642D01*
X133772286Y-110810642D01*
X133810381Y-110829690D01*
X133829429Y-110848738D01*
X133848476Y-110886833D01*
X133848476Y-111039214D01*
X134038952Y-110429690D02*
X134038952Y-110658262D01*
X134038952Y-110543976D02*
X133638952Y-110543976D01*
X133696095Y-110582071D01*
X133734190Y-110620166D01*
X133753238Y-110658262D01*
X133677048Y-110277310D02*
X133658000Y-110258262D01*
X133638952Y-110220167D01*
X133638952Y-110124929D01*
X133658000Y-110086833D01*
X133677048Y-110067786D01*
X133715143Y-110048738D01*
X133753238Y-110048738D01*
X133810381Y-110067786D01*
X134038952Y-110296357D01*
X134038952Y-110048738D01*
D12*
X163314214Y-113302881D02*
X163409453Y-113302881D01*
X163504691Y-113350500D01*
X163552310Y-113398119D01*
X163599929Y-113493357D01*
X163647548Y-113683833D01*
X163647548Y-113921929D01*
X163599929Y-114112405D01*
X163552310Y-114207643D01*
X163504691Y-114255262D01*
X163409453Y-114302881D01*
X163314214Y-114302881D01*
X163218976Y-114255262D01*
X163171357Y-114207643D01*
X163123738Y-114112405D01*
X163076119Y-113921929D01*
X163076119Y-113683833D01*
X163123738Y-113493357D01*
X163171357Y-113398119D01*
X163218976Y-113350500D01*
X163314214Y-113302881D01*
X164076119Y-114207643D02*
X164123738Y-114255262D01*
X164076119Y-114302881D01*
X164028500Y-114255262D01*
X164076119Y-114207643D01*
X164076119Y-114302881D01*
X165076119Y-114302881D02*
X164504690Y-114302881D01*
X164790404Y-114302881D02*
X164790404Y-113302881D01*
X164695166Y-113445738D01*
X164599928Y-113540976D01*
X164504690Y-113588595D01*
X165933262Y-113636214D02*
X165933262Y-114302881D01*
X165504690Y-113636214D02*
X165504690Y-114160024D01*
X165552309Y-114255262D01*
X165647547Y-114302881D01*
X165790405Y-114302881D01*
X165885643Y-114255262D01*
X165933262Y-114207643D01*
X162451881Y-98686786D02*
X162451881Y-98591547D01*
X162499500Y-98496309D01*
X162547119Y-98448690D01*
X162642357Y-98401071D01*
X162832833Y-98353452D01*
X163070929Y-98353452D01*
X163261405Y-98401071D01*
X163356643Y-98448690D01*
X163404262Y-98496309D01*
X163451881Y-98591547D01*
X163451881Y-98686786D01*
X163404262Y-98782024D01*
X163356643Y-98829643D01*
X163261405Y-98877262D01*
X163070929Y-98924881D01*
X162832833Y-98924881D01*
X162642357Y-98877262D01*
X162547119Y-98829643D01*
X162499500Y-98782024D01*
X162451881Y-98686786D01*
X163356643Y-97924881D02*
X163404262Y-97877262D01*
X163451881Y-97924881D01*
X163404262Y-97972500D01*
X163356643Y-97924881D01*
X163451881Y-97924881D01*
X163451881Y-96924881D02*
X163451881Y-97496310D01*
X163451881Y-97210596D02*
X162451881Y-97210596D01*
X162594738Y-97305834D01*
X162689976Y-97401072D01*
X162737595Y-97496310D01*
X162785214Y-96067738D02*
X163451881Y-96067738D01*
X162785214Y-96496310D02*
X163309024Y-96496310D01*
X163404262Y-96448691D01*
X163451881Y-96353453D01*
X163451881Y-96210595D01*
X163404262Y-96115357D01*
X163356643Y-96067738D01*
X136797881Y-111894786D02*
X136797881Y-111799547D01*
X136845500Y-111704309D01*
X136893119Y-111656690D01*
X136988357Y-111609071D01*
X137178833Y-111561452D01*
X137416929Y-111561452D01*
X137607405Y-111609071D01*
X137702643Y-111656690D01*
X137750262Y-111704309D01*
X137797881Y-111799547D01*
X137797881Y-111894786D01*
X137750262Y-111990024D01*
X137702643Y-112037643D01*
X137607405Y-112085262D01*
X137416929Y-112132881D01*
X137178833Y-112132881D01*
X136988357Y-112085262D01*
X136893119Y-112037643D01*
X136845500Y-111990024D01*
X136797881Y-111894786D01*
X137702643Y-111132881D02*
X137750262Y-111085262D01*
X137797881Y-111132881D01*
X137750262Y-111180500D01*
X137702643Y-111132881D01*
X137797881Y-111132881D01*
X137797881Y-110132881D02*
X137797881Y-110704310D01*
X137797881Y-110418596D02*
X136797881Y-110418596D01*
X136940738Y-110513834D01*
X137035976Y-110609072D01*
X137083595Y-110704310D01*
X137131214Y-109275738D02*
X137797881Y-109275738D01*
X137131214Y-109704310D02*
X137655024Y-109704310D01*
X137750262Y-109656691D01*
X137797881Y-109561453D01*
X137797881Y-109418595D01*
X137750262Y-109323357D01*
X137702643Y-109275738D01*
X123883786Y-97242381D02*
X123883786Y-96242381D01*
X124264739Y-96242381D01*
X124359977Y-96290000D01*
X124407596Y-96337619D01*
X124455215Y-96432857D01*
X124455215Y-96575714D01*
X124407596Y-96670952D01*
X124359977Y-96718571D01*
X124264739Y-96766190D01*
X123883786Y-96766190D01*
X124883786Y-97242381D02*
X124883786Y-96575714D01*
X124883786Y-96242381D02*
X124836167Y-96290000D01*
X124883786Y-96337619D01*
X124931405Y-96290000D01*
X124883786Y-96242381D01*
X124883786Y-96337619D01*
X125740929Y-97194762D02*
X125645691Y-97242381D01*
X125455214Y-97242381D01*
X125359976Y-97194762D01*
X125312357Y-97099524D01*
X125312357Y-96718571D01*
X125359976Y-96623333D01*
X125455214Y-96575714D01*
X125645691Y-96575714D01*
X125740929Y-96623333D01*
X125788548Y-96718571D01*
X125788548Y-96813810D01*
X125312357Y-96909048D01*
X126121881Y-96575714D02*
X126645691Y-96575714D01*
X126121881Y-97242381D01*
X126645691Y-97242381D01*
X127169500Y-97242381D02*
X127074262Y-97194762D01*
X127026643Y-97147143D01*
X126979024Y-97051905D01*
X126979024Y-96766190D01*
X127026643Y-96670952D01*
X127074262Y-96623333D01*
X127169500Y-96575714D01*
X127312358Y-96575714D01*
X127407596Y-96623333D01*
X127455215Y-96670952D01*
X127502834Y-96766190D01*
X127502834Y-97051905D01*
X127455215Y-97147143D01*
X127407596Y-97194762D01*
X127312358Y-97242381D01*
X127169500Y-97242381D01*
X133781619Y-102076095D02*
X133734000Y-102028476D01*
X133686381Y-101933238D01*
X133686381Y-101695142D01*
X133734000Y-101599904D01*
X133781619Y-101552285D01*
X133876857Y-101504666D01*
X133972095Y-101504666D01*
X134114952Y-101552285D01*
X134686381Y-102123714D01*
X134686381Y-101504666D01*
X133686381Y-100885619D02*
X133686381Y-100790380D01*
X133734000Y-100695142D01*
X133781619Y-100647523D01*
X133876857Y-100599904D01*
X134067333Y-100552285D01*
X134305429Y-100552285D01*
X134495905Y-100599904D01*
X134591143Y-100647523D01*
X134638762Y-100695142D01*
X134686381Y-100790380D01*
X134686381Y-100885619D01*
X134638762Y-100980857D01*
X134591143Y-101028476D01*
X134495905Y-101076095D01*
X134305429Y-101123714D01*
X134067333Y-101123714D01*
X133876857Y-101076095D01*
X133781619Y-101028476D01*
X133734000Y-100980857D01*
X133686381Y-100885619D01*
X133686381Y-99933238D02*
X133686381Y-99837999D01*
X133734000Y-99742761D01*
X133781619Y-99695142D01*
X133876857Y-99647523D01*
X134067333Y-99599904D01*
X134305429Y-99599904D01*
X134495905Y-99647523D01*
X134591143Y-99695142D01*
X134638762Y-99742761D01*
X134686381Y-99837999D01*
X134686381Y-99933238D01*
X134638762Y-100028476D01*
X134591143Y-100076095D01*
X134495905Y-100123714D01*
X134305429Y-100171333D01*
X134067333Y-100171333D01*
X133876857Y-100123714D01*
X133781619Y-100076095D01*
X133734000Y-100028476D01*
X133686381Y-99933238D01*
X171875143Y-98424857D02*
X171922762Y-98472476D01*
X171970381Y-98615333D01*
X171970381Y-98710571D01*
X171922762Y-98853429D01*
X171827524Y-98948667D01*
X171732286Y-98996286D01*
X171541810Y-99043905D01*
X171398952Y-99043905D01*
X171208476Y-98996286D01*
X171113238Y-98948667D01*
X171018000Y-98853429D01*
X170970381Y-98710571D01*
X170970381Y-98615333D01*
X171018000Y-98472476D01*
X171065619Y-98424857D01*
X170970381Y-97805810D02*
X170970381Y-97615333D01*
X171018000Y-97520095D01*
X171113238Y-97424857D01*
X171303714Y-97377238D01*
X171637048Y-97377238D01*
X171827524Y-97424857D01*
X171922762Y-97520095D01*
X171970381Y-97615333D01*
X171970381Y-97805810D01*
X171922762Y-97901048D01*
X171827524Y-97996286D01*
X171637048Y-98043905D01*
X171303714Y-98043905D01*
X171113238Y-97996286D01*
X171018000Y-97901048D01*
X170970381Y-97805810D01*
X171970381Y-96948667D02*
X170970381Y-96948667D01*
X171970381Y-96377238D01*
X170970381Y-96377238D01*
X171970381Y-95901048D02*
X170970381Y-95901048D01*
X171970381Y-95329619D01*
X170970381Y-95329619D01*
X172065619Y-95091524D02*
X172065619Y-94329619D01*
X171875143Y-93520095D02*
X171922762Y-93567714D01*
X171970381Y-93710571D01*
X171970381Y-93805809D01*
X171922762Y-93948667D01*
X171827524Y-94043905D01*
X171732286Y-94091524D01*
X171541810Y-94139143D01*
X171398952Y-94139143D01*
X171208476Y-94091524D01*
X171113238Y-94043905D01*
X171018000Y-93948667D01*
X170970381Y-93805809D01*
X170970381Y-93710571D01*
X171018000Y-93567714D01*
X171065619Y-93520095D01*
X170970381Y-92901048D02*
X170970381Y-92710571D01*
X171018000Y-92615333D01*
X171113238Y-92520095D01*
X171303714Y-92472476D01*
X171637048Y-92472476D01*
X171827524Y-92520095D01*
X171922762Y-92615333D01*
X171970381Y-92710571D01*
X171970381Y-92901048D01*
X171922762Y-92996286D01*
X171827524Y-93091524D01*
X171637048Y-93139143D01*
X171303714Y-93139143D01*
X171113238Y-93091524D01*
X171018000Y-92996286D01*
X170970381Y-92901048D01*
X171684667Y-92091524D02*
X171684667Y-91615333D01*
X171970381Y-92186762D02*
X170970381Y-91853429D01*
X171970381Y-91520095D01*
X170970381Y-91282000D02*
X171970381Y-90615333D01*
X170970381Y-90615333D02*
X171970381Y-91282000D01*
X171970381Y-90234381D02*
X170970381Y-90234381D01*
X171684667Y-89805810D02*
X171684667Y-89329619D01*
X171970381Y-89901048D02*
X170970381Y-89567715D01*
X171970381Y-89234381D01*
X171970381Y-88424857D02*
X171970381Y-88901048D01*
X170970381Y-88901048D01*
X134485238Y-103867143D02*
X134532857Y-103914762D01*
X134485238Y-103962381D01*
X134437619Y-103914762D01*
X134485238Y-103867143D01*
X134485238Y-103962381D01*
X134866190Y-102962381D02*
X135485238Y-102962381D01*
X135151904Y-103343333D01*
X135294762Y-103343333D01*
X135390000Y-103390952D01*
X135437619Y-103438571D01*
X135485238Y-103533810D01*
X135485238Y-103771905D01*
X135437619Y-103867143D01*
X135390000Y-103914762D01*
X135294762Y-103962381D01*
X135009047Y-103962381D01*
X134913809Y-103914762D01*
X134866190Y-103867143D01*
X136390000Y-102962381D02*
X135913809Y-102962381D01*
X135866190Y-103438571D01*
X135913809Y-103390952D01*
X136009047Y-103343333D01*
X136247143Y-103343333D01*
X136342381Y-103390952D01*
X136390000Y-103438571D01*
X136437619Y-103533810D01*
X136437619Y-103771905D01*
X136390000Y-103867143D01*
X136342381Y-103914762D01*
X136247143Y-103962381D01*
X136009047Y-103962381D01*
X135913809Y-103914762D01*
X135866190Y-103867143D01*
X137294762Y-103295714D02*
X137294762Y-103962381D01*
X136866190Y-103295714D02*
X136866190Y-103819524D01*
X136913809Y-103914762D01*
X137009047Y-103962381D01*
X137151905Y-103962381D01*
X137247143Y-103914762D01*
X137294762Y-103867143D01*
D13*
X134566191Y-105590952D02*
X134566191Y-105190952D01*
X134756667Y-105324286D02*
X134756667Y-105590952D01*
X134756667Y-105362381D02*
X134775715Y-105343333D01*
X134813810Y-105324286D01*
X134870953Y-105324286D01*
X134909048Y-105343333D01*
X134928096Y-105381429D01*
X134928096Y-105590952D01*
X135290001Y-105590952D02*
X135290001Y-105190952D01*
X135290001Y-105571905D02*
X135251905Y-105590952D01*
X135175715Y-105590952D01*
X135137620Y-105571905D01*
X135118572Y-105552857D01*
X135099524Y-105514762D01*
X135099524Y-105400476D01*
X135118572Y-105362381D01*
X135137620Y-105343333D01*
X135175715Y-105324286D01*
X135251905Y-105324286D01*
X135290001Y-105343333D01*
X135651906Y-105324286D02*
X135651906Y-105590952D01*
X135480477Y-105324286D02*
X135480477Y-105533810D01*
X135499525Y-105571905D01*
X135537620Y-105590952D01*
X135594763Y-105590952D01*
X135632858Y-105571905D01*
X135651906Y-105552857D01*
X136013811Y-105571905D02*
X135975715Y-105590952D01*
X135899525Y-105590952D01*
X135861430Y-105571905D01*
X135842382Y-105552857D01*
X135823334Y-105514762D01*
X135823334Y-105400476D01*
X135842382Y-105362381D01*
X135861430Y-105343333D01*
X135899525Y-105324286D01*
X135975715Y-105324286D01*
X136013811Y-105343333D01*
X136128096Y-105324286D02*
X136280477Y-105324286D01*
X136185239Y-105190952D02*
X136185239Y-105533810D01*
X136204287Y-105571905D01*
X136242382Y-105590952D01*
X136280477Y-105590952D01*
X136470953Y-105590952D02*
X136432858Y-105571905D01*
X136413810Y-105552857D01*
X136394762Y-105514762D01*
X136394762Y-105400476D01*
X136413810Y-105362381D01*
X136432858Y-105343333D01*
X136470953Y-105324286D01*
X136528096Y-105324286D01*
X136566191Y-105343333D01*
X136585239Y-105362381D01*
X136604286Y-105400476D01*
X136604286Y-105514762D01*
X136585239Y-105552857D01*
X136566191Y-105571905D01*
X136528096Y-105590952D01*
X136470953Y-105590952D01*
X136775715Y-105590952D02*
X136775715Y-105324286D01*
X136775715Y-105400476D02*
X136794763Y-105362381D01*
X136813810Y-105343333D01*
X136851906Y-105324286D01*
X136890001Y-105324286D01*
X137232858Y-105590952D02*
X137004286Y-105590952D01*
X137118572Y-105590952D02*
X137118572Y-105190952D01*
X137080477Y-105248095D01*
X137042382Y-105286190D01*
X137004286Y-105305238D01*
M02*
