G04 #@! TF.FileFunction,Copper,L2,Bot,Signal*
%FSLAX46Y46*%
G04 Gerber Fmt 4.6, Leading zero omitted, Abs format (unit mm)*
G04 Created by KiCad (PCBNEW 4.0.7) date Thursday, November 02, 2017 'PMt' 11:05:42 PM*
%MOMM*%
%LPD*%
G01*
G04 APERTURE LIST*
%ADD10C,0.100000*%
%ADD11C,4.000000*%
%ADD12R,1.700000X1.700000*%
%ADD13O,1.700000X1.700000*%
%ADD14R,4.200000X1.350000*%
%ADD15C,0.762000*%
%ADD16C,0.381000*%
%ADD17C,0.254000*%
G04 APERTURE END LIST*
D10*
D11*
X138976100Y-89979500D03*
X130784600Y-110807500D03*
X159486600Y-89916000D03*
D12*
X162306000Y-108331000D03*
D13*
X164846000Y-108331000D03*
X162306000Y-105791000D03*
X164846000Y-105791000D03*
X162306000Y-103251000D03*
X164846000Y-103251000D03*
X162306000Y-100711000D03*
X164846000Y-100711000D03*
D12*
X129984500Y-101600000D03*
D13*
X129984500Y-99060000D03*
D14*
X164338000Y-97282000D03*
X164338000Y-90282000D03*
D15*
X130810000Y-107950000D03*
X156845000Y-94615000D03*
X135572500Y-108775500D03*
X155384500Y-111633000D03*
X139573000Y-102489000D03*
X143637000Y-95250000D03*
X133858000Y-95631000D03*
X139700000Y-99949000D03*
X152019000Y-101981000D03*
X156210000Y-106426000D03*
X145288000Y-93345000D03*
X155702000Y-108458000D03*
X152273000Y-97155000D03*
X148209000Y-109474000D03*
X130810000Y-103632000D03*
X162306000Y-111696500D03*
X133858000Y-105410000D03*
X132143500Y-96710500D03*
D16*
X130810000Y-107950000D02*
X131000500Y-108140500D01*
X131000500Y-108140500D02*
X135572500Y-108775500D01*
X156845000Y-94615000D02*
X156845000Y-94678500D01*
X156845000Y-94678500D02*
X155987750Y-95535750D01*
X138430000Y-111633000D02*
X155384500Y-111633000D01*
X135572500Y-108775500D02*
X138430000Y-111633000D01*
X160528000Y-112649000D02*
X160147000Y-112649000D01*
X164846000Y-110490000D02*
X162687000Y-112649000D01*
X164846000Y-108331000D02*
X164846000Y-110490000D01*
X155384500Y-111633000D02*
X159131000Y-111633000D01*
X162687000Y-112649000D02*
X160528000Y-112649000D01*
X160147000Y-112649000D02*
X159131000Y-111633000D01*
X133858000Y-95631000D02*
X133858000Y-96774000D01*
X133858000Y-96774000D02*
X139573000Y-102489000D01*
X143637000Y-95250000D02*
X143637000Y-98425000D01*
X143637000Y-98425000D02*
X139573000Y-102489000D01*
X129984500Y-99060000D02*
X130810000Y-99060000D01*
X164397000Y-97226000D02*
X157678000Y-97226000D01*
X155702000Y-95250000D02*
X143637000Y-95250000D01*
X157678000Y-97226000D02*
X155987750Y-95535750D01*
X155987750Y-95535750D02*
X155702000Y-95250000D01*
X130429000Y-99060000D02*
X130302000Y-99060000D01*
X164397000Y-90226000D02*
X164397000Y-97226000D01*
X139700000Y-97663000D02*
X139700000Y-99949000D01*
X139700000Y-99949000D02*
X139573000Y-100076000D01*
X145288000Y-93345000D02*
X144018000Y-93345000D01*
X144018000Y-93345000D02*
X139700000Y-97663000D01*
X152019000Y-101981000D02*
X152019000Y-102235000D01*
X152019000Y-102235000D02*
X156210000Y-106426000D01*
X152273000Y-97155000D02*
X152273000Y-100393500D01*
X152273000Y-100393500D02*
X157607000Y-105727500D01*
X157607000Y-106553000D02*
X155702000Y-108458000D01*
X157607000Y-105727500D02*
X157607000Y-106553000D01*
X152273000Y-97155000D02*
X152297000Y-97179000D01*
X148209000Y-109474000D02*
X156083000Y-109474000D01*
X156083000Y-109474000D02*
X162306000Y-103251000D01*
X148082000Y-109601000D02*
X148336000Y-109347000D01*
X148209000Y-109474000D02*
X148082000Y-109601000D01*
X148336000Y-109347000D02*
X148336000Y-109601000D01*
X130810000Y-103632000D02*
X130810000Y-106426000D01*
X131953000Y-107569000D02*
X133223000Y-107569000D01*
X130810000Y-106426000D02*
X131953000Y-107569000D01*
X133223000Y-107569000D02*
X135763000Y-107569000D01*
X156464000Y-110744000D02*
X138938000Y-110744000D01*
X135763000Y-107569000D02*
X138938000Y-110744000D01*
X161417000Y-105791000D02*
X156464000Y-110744000D01*
X162306000Y-105791000D02*
X161417000Y-105791000D01*
X162306000Y-108331000D02*
X162306000Y-111696500D01*
X162306000Y-111696500D02*
X162433000Y-111823500D01*
X162306000Y-108331000D02*
X162306000Y-108839000D01*
X132143500Y-100584000D02*
X131000500Y-100584000D01*
X131000500Y-100584000D02*
X129984500Y-101600000D01*
X132588000Y-102743000D02*
X131127500Y-102743000D01*
X133858000Y-104013000D02*
X132588000Y-102743000D01*
X133858000Y-105410000D02*
X133858000Y-104013000D01*
X131127500Y-102743000D02*
X129984500Y-101600000D01*
X132143500Y-100584000D02*
X132143500Y-96710500D01*
X132143500Y-96710500D02*
X132143500Y-96583500D01*
D17*
G36*
X155404031Y-96119464D02*
X155404033Y-96119467D01*
X157094281Y-97809714D01*
X157094283Y-97809717D01*
X157362095Y-97988663D01*
X157678000Y-98051500D01*
X161608341Y-98051500D01*
X161634838Y-98192317D01*
X161773910Y-98408441D01*
X161986110Y-98553431D01*
X162238000Y-98604440D01*
X165914000Y-98604440D01*
X165914000Y-99653498D01*
X165443378Y-99339039D01*
X164875093Y-99226000D01*
X164816907Y-99226000D01*
X164248622Y-99339039D01*
X163766853Y-99660946D01*
X163577655Y-99944101D01*
X163577645Y-99944076D01*
X163187358Y-99515817D01*
X162662892Y-99269514D01*
X162433000Y-99390181D01*
X162433000Y-100584000D01*
X162453000Y-100584000D01*
X162453000Y-100838000D01*
X162433000Y-100838000D01*
X162433000Y-100858000D01*
X162179000Y-100858000D01*
X162179000Y-100838000D01*
X160985845Y-100838000D01*
X160864524Y-101067890D01*
X161034355Y-101477924D01*
X161424642Y-101906183D01*
X161567553Y-101973298D01*
X161226853Y-102200946D01*
X160904946Y-102682715D01*
X160791907Y-103251000D01*
X160849421Y-103540145D01*
X158432500Y-105957066D01*
X158432500Y-105727500D01*
X158369663Y-105411595D01*
X158369663Y-105411594D01*
X158190717Y-105143783D01*
X153401044Y-100354110D01*
X160864524Y-100354110D01*
X160985845Y-100584000D01*
X162179000Y-100584000D01*
X162179000Y-99390181D01*
X161949108Y-99269514D01*
X161424642Y-99515817D01*
X161034355Y-99944076D01*
X160864524Y-100354110D01*
X153401044Y-100354110D01*
X153098500Y-100051566D01*
X153098500Y-97766528D01*
X153133821Y-97731269D01*
X153288824Y-97357982D01*
X153289176Y-96953792D01*
X153134825Y-96580234D01*
X152849269Y-96294179D01*
X152475982Y-96139176D01*
X152071792Y-96138824D01*
X151698234Y-96293175D01*
X151412179Y-96578731D01*
X151257176Y-96952018D01*
X151256824Y-97356208D01*
X151411175Y-97729766D01*
X151447500Y-97766154D01*
X151447500Y-100393500D01*
X151510337Y-100709406D01*
X151689283Y-100977217D01*
X156781500Y-106069434D01*
X156781500Y-106211066D01*
X155550699Y-107441867D01*
X155500792Y-107441824D01*
X155127234Y-107596175D01*
X154841179Y-107881731D01*
X154686176Y-108255018D01*
X154685833Y-108648500D01*
X148820528Y-108648500D01*
X148785269Y-108613179D01*
X148411982Y-108458176D01*
X148007792Y-108457824D01*
X147634234Y-108612175D01*
X147348179Y-108897731D01*
X147193176Y-109271018D01*
X147192824Y-109675208D01*
X147293350Y-109918500D01*
X139279934Y-109918500D01*
X136346717Y-106985283D01*
X136078906Y-106806337D01*
X135763000Y-106743500D01*
X132294934Y-106743500D01*
X131635500Y-106084066D01*
X131635500Y-104243528D01*
X131670821Y-104208269D01*
X131825824Y-103834982D01*
X131826056Y-103568500D01*
X132246066Y-103568500D01*
X133032500Y-104354933D01*
X133032500Y-104798472D01*
X132997179Y-104833731D01*
X132842176Y-105207018D01*
X132841824Y-105611208D01*
X132996175Y-105984766D01*
X133281731Y-106270821D01*
X133655018Y-106425824D01*
X134059208Y-106426176D01*
X134432766Y-106271825D01*
X134718821Y-105986269D01*
X134873824Y-105612982D01*
X134874176Y-105208792D01*
X134719825Y-104835234D01*
X134683500Y-104798846D01*
X134683500Y-104013000D01*
X134620663Y-103697095D01*
X134620663Y-103697094D01*
X134534739Y-103568500D01*
X134441717Y-103429283D01*
X134441714Y-103429281D01*
X133171717Y-102159283D01*
X132903906Y-101980337D01*
X132588000Y-101917500D01*
X131481940Y-101917500D01*
X131481940Y-101409500D01*
X132143500Y-101409500D01*
X132459405Y-101346663D01*
X132727217Y-101167717D01*
X132906163Y-100899905D01*
X132969000Y-100584000D01*
X132969000Y-97322028D01*
X133004321Y-97286769D01*
X133092334Y-97074810D01*
X133095337Y-97089906D01*
X133274283Y-97357717D01*
X138556867Y-102640301D01*
X138556824Y-102690208D01*
X138711175Y-103063766D01*
X138996731Y-103349821D01*
X139370018Y-103504824D01*
X139774208Y-103505176D01*
X140147766Y-103350825D01*
X140433821Y-103065269D01*
X140588824Y-102691982D01*
X140588869Y-102640565D01*
X144220717Y-99008717D01*
X144399663Y-98740906D01*
X144462501Y-98425000D01*
X144462500Y-98424995D01*
X144462500Y-96075500D01*
X155360067Y-96075500D01*
X155404031Y-96119464D01*
X155404031Y-96119464D01*
G37*
X155404031Y-96119464D02*
X155404033Y-96119467D01*
X157094281Y-97809714D01*
X157094283Y-97809717D01*
X157362095Y-97988663D01*
X157678000Y-98051500D01*
X161608341Y-98051500D01*
X161634838Y-98192317D01*
X161773910Y-98408441D01*
X161986110Y-98553431D01*
X162238000Y-98604440D01*
X165914000Y-98604440D01*
X165914000Y-99653498D01*
X165443378Y-99339039D01*
X164875093Y-99226000D01*
X164816907Y-99226000D01*
X164248622Y-99339039D01*
X163766853Y-99660946D01*
X163577655Y-99944101D01*
X163577645Y-99944076D01*
X163187358Y-99515817D01*
X162662892Y-99269514D01*
X162433000Y-99390181D01*
X162433000Y-100584000D01*
X162453000Y-100584000D01*
X162453000Y-100838000D01*
X162433000Y-100838000D01*
X162433000Y-100858000D01*
X162179000Y-100858000D01*
X162179000Y-100838000D01*
X160985845Y-100838000D01*
X160864524Y-101067890D01*
X161034355Y-101477924D01*
X161424642Y-101906183D01*
X161567553Y-101973298D01*
X161226853Y-102200946D01*
X160904946Y-102682715D01*
X160791907Y-103251000D01*
X160849421Y-103540145D01*
X158432500Y-105957066D01*
X158432500Y-105727500D01*
X158369663Y-105411595D01*
X158369663Y-105411594D01*
X158190717Y-105143783D01*
X153401044Y-100354110D01*
X160864524Y-100354110D01*
X160985845Y-100584000D01*
X162179000Y-100584000D01*
X162179000Y-99390181D01*
X161949108Y-99269514D01*
X161424642Y-99515817D01*
X161034355Y-99944076D01*
X160864524Y-100354110D01*
X153401044Y-100354110D01*
X153098500Y-100051566D01*
X153098500Y-97766528D01*
X153133821Y-97731269D01*
X153288824Y-97357982D01*
X153289176Y-96953792D01*
X153134825Y-96580234D01*
X152849269Y-96294179D01*
X152475982Y-96139176D01*
X152071792Y-96138824D01*
X151698234Y-96293175D01*
X151412179Y-96578731D01*
X151257176Y-96952018D01*
X151256824Y-97356208D01*
X151411175Y-97729766D01*
X151447500Y-97766154D01*
X151447500Y-100393500D01*
X151510337Y-100709406D01*
X151689283Y-100977217D01*
X156781500Y-106069434D01*
X156781500Y-106211066D01*
X155550699Y-107441867D01*
X155500792Y-107441824D01*
X155127234Y-107596175D01*
X154841179Y-107881731D01*
X154686176Y-108255018D01*
X154685833Y-108648500D01*
X148820528Y-108648500D01*
X148785269Y-108613179D01*
X148411982Y-108458176D01*
X148007792Y-108457824D01*
X147634234Y-108612175D01*
X147348179Y-108897731D01*
X147193176Y-109271018D01*
X147192824Y-109675208D01*
X147293350Y-109918500D01*
X139279934Y-109918500D01*
X136346717Y-106985283D01*
X136078906Y-106806337D01*
X135763000Y-106743500D01*
X132294934Y-106743500D01*
X131635500Y-106084066D01*
X131635500Y-104243528D01*
X131670821Y-104208269D01*
X131825824Y-103834982D01*
X131826056Y-103568500D01*
X132246066Y-103568500D01*
X133032500Y-104354933D01*
X133032500Y-104798472D01*
X132997179Y-104833731D01*
X132842176Y-105207018D01*
X132841824Y-105611208D01*
X132996175Y-105984766D01*
X133281731Y-106270821D01*
X133655018Y-106425824D01*
X134059208Y-106426176D01*
X134432766Y-106271825D01*
X134718821Y-105986269D01*
X134873824Y-105612982D01*
X134874176Y-105208792D01*
X134719825Y-104835234D01*
X134683500Y-104798846D01*
X134683500Y-104013000D01*
X134620663Y-103697095D01*
X134620663Y-103697094D01*
X134534739Y-103568500D01*
X134441717Y-103429283D01*
X134441714Y-103429281D01*
X133171717Y-102159283D01*
X132903906Y-101980337D01*
X132588000Y-101917500D01*
X131481940Y-101917500D01*
X131481940Y-101409500D01*
X132143500Y-101409500D01*
X132459405Y-101346663D01*
X132727217Y-101167717D01*
X132906163Y-100899905D01*
X132969000Y-100584000D01*
X132969000Y-97322028D01*
X133004321Y-97286769D01*
X133092334Y-97074810D01*
X133095337Y-97089906D01*
X133274283Y-97357717D01*
X138556867Y-102640301D01*
X138556824Y-102690208D01*
X138711175Y-103063766D01*
X138996731Y-103349821D01*
X139370018Y-103504824D01*
X139774208Y-103505176D01*
X140147766Y-103350825D01*
X140433821Y-103065269D01*
X140588824Y-102691982D01*
X140588869Y-102640565D01*
X144220717Y-99008717D01*
X144399663Y-98740906D01*
X144462501Y-98425000D01*
X144462500Y-98424995D01*
X144462500Y-96075500D01*
X155360067Y-96075500D01*
X155404031Y-96119464D01*
G36*
X136743558Y-88484943D02*
X136341558Y-89453067D01*
X136340643Y-90501334D01*
X136740953Y-91470158D01*
X137481543Y-92212042D01*
X138449667Y-92614042D01*
X139497934Y-92614957D01*
X140466758Y-92214647D01*
X141208642Y-91474057D01*
X141610642Y-90505933D01*
X141611557Y-89457666D01*
X141211247Y-88488842D01*
X141189443Y-88467000D01*
X157235141Y-88467000D01*
X156852058Y-89389567D01*
X156851143Y-90437834D01*
X157251453Y-91406658D01*
X157992043Y-92148542D01*
X158960167Y-92550542D01*
X160008434Y-92551457D01*
X160977258Y-92151147D01*
X161719142Y-91410557D01*
X161741156Y-91357540D01*
X161773910Y-91408441D01*
X161986110Y-91553431D01*
X162238000Y-91604440D01*
X163571500Y-91604440D01*
X163571500Y-95959560D01*
X162238000Y-95959560D01*
X162002683Y-96003838D01*
X161786559Y-96142910D01*
X161641569Y-96355110D01*
X161632377Y-96400500D01*
X158019933Y-96400500D01*
X157190846Y-95571413D01*
X157419766Y-95476825D01*
X157705821Y-95191269D01*
X157860824Y-94817982D01*
X157861176Y-94413792D01*
X157706825Y-94040234D01*
X157421269Y-93754179D01*
X157047982Y-93599176D01*
X156643792Y-93598824D01*
X156270234Y-93753175D01*
X155984179Y-94038731D01*
X155829176Y-94412018D01*
X155829143Y-94449790D01*
X155702000Y-94424500D01*
X144248528Y-94424500D01*
X144213269Y-94389179D01*
X143839982Y-94234176D01*
X143435792Y-94233824D01*
X143062234Y-94388175D01*
X142776179Y-94673731D01*
X142621176Y-95047018D01*
X142620824Y-95451208D01*
X142775175Y-95824766D01*
X142811500Y-95861154D01*
X142811500Y-98083066D01*
X139573000Y-101321566D01*
X134683500Y-96432066D01*
X134683500Y-96242528D01*
X134718821Y-96207269D01*
X134873824Y-95833982D01*
X134874176Y-95429792D01*
X134719825Y-95056234D01*
X134434269Y-94770179D01*
X134060982Y-94615176D01*
X133656792Y-94614824D01*
X133283234Y-94769175D01*
X132997179Y-95054731D01*
X132842176Y-95428018D01*
X132841824Y-95832208D01*
X132940340Y-96070636D01*
X132719769Y-95849679D01*
X132346482Y-95694676D01*
X131942292Y-95694324D01*
X131568734Y-95848675D01*
X131282679Y-96134231D01*
X131127676Y-96507518D01*
X131127324Y-96911708D01*
X131281675Y-97285266D01*
X131318000Y-97321654D01*
X131318000Y-98390613D01*
X131063647Y-98009946D01*
X130581878Y-97688039D01*
X130013593Y-97575000D01*
X129955407Y-97575000D01*
X129387122Y-97688039D01*
X129234000Y-97790352D01*
X129234000Y-88467000D01*
X136761532Y-88467000D01*
X136743558Y-88484943D01*
X136743558Y-88484943D01*
G37*
X136743558Y-88484943D02*
X136341558Y-89453067D01*
X136340643Y-90501334D01*
X136740953Y-91470158D01*
X137481543Y-92212042D01*
X138449667Y-92614042D01*
X139497934Y-92614957D01*
X140466758Y-92214647D01*
X141208642Y-91474057D01*
X141610642Y-90505933D01*
X141611557Y-89457666D01*
X141211247Y-88488842D01*
X141189443Y-88467000D01*
X157235141Y-88467000D01*
X156852058Y-89389567D01*
X156851143Y-90437834D01*
X157251453Y-91406658D01*
X157992043Y-92148542D01*
X158960167Y-92550542D01*
X160008434Y-92551457D01*
X160977258Y-92151147D01*
X161719142Y-91410557D01*
X161741156Y-91357540D01*
X161773910Y-91408441D01*
X161986110Y-91553431D01*
X162238000Y-91604440D01*
X163571500Y-91604440D01*
X163571500Y-95959560D01*
X162238000Y-95959560D01*
X162002683Y-96003838D01*
X161786559Y-96142910D01*
X161641569Y-96355110D01*
X161632377Y-96400500D01*
X158019933Y-96400500D01*
X157190846Y-95571413D01*
X157419766Y-95476825D01*
X157705821Y-95191269D01*
X157860824Y-94817982D01*
X157861176Y-94413792D01*
X157706825Y-94040234D01*
X157421269Y-93754179D01*
X157047982Y-93599176D01*
X156643792Y-93598824D01*
X156270234Y-93753175D01*
X155984179Y-94038731D01*
X155829176Y-94412018D01*
X155829143Y-94449790D01*
X155702000Y-94424500D01*
X144248528Y-94424500D01*
X144213269Y-94389179D01*
X143839982Y-94234176D01*
X143435792Y-94233824D01*
X143062234Y-94388175D01*
X142776179Y-94673731D01*
X142621176Y-95047018D01*
X142620824Y-95451208D01*
X142775175Y-95824766D01*
X142811500Y-95861154D01*
X142811500Y-98083066D01*
X139573000Y-101321566D01*
X134683500Y-96432066D01*
X134683500Y-96242528D01*
X134718821Y-96207269D01*
X134873824Y-95833982D01*
X134874176Y-95429792D01*
X134719825Y-95056234D01*
X134434269Y-94770179D01*
X134060982Y-94615176D01*
X133656792Y-94614824D01*
X133283234Y-94769175D01*
X132997179Y-95054731D01*
X132842176Y-95428018D01*
X132841824Y-95832208D01*
X132940340Y-96070636D01*
X132719769Y-95849679D01*
X132346482Y-95694676D01*
X131942292Y-95694324D01*
X131568734Y-95848675D01*
X131282679Y-96134231D01*
X131127676Y-96507518D01*
X131127324Y-96911708D01*
X131281675Y-97285266D01*
X131318000Y-97321654D01*
X131318000Y-98390613D01*
X131063647Y-98009946D01*
X130581878Y-97688039D01*
X130013593Y-97575000D01*
X129955407Y-97575000D01*
X129387122Y-97688039D01*
X129234000Y-97790352D01*
X129234000Y-88467000D01*
X136761532Y-88467000D01*
X136743558Y-88484943D01*
M02*
